<svg width="26" height="26" viewBox="0 0 26 26" fill= "none" xmlns="http://www.w3.org/2000/svg">
<path d="M23.9973 6.84425C24.3152 6.52635 24.5674 6.14895 24.7394 5.73359C24.9115 5.31824 25 4.87306 25 4.42348C25 3.9739 24.9115 3.52873 24.7394 3.11337C24.5674 2.69802 24.3152 2.32061 23.9973 2.00271C23.6794 1.68481 23.302 1.43264 22.8866 1.2606C22.4713 1.08855 22.0261 1 21.5765 1C21.1269 1 20.6818 1.08855 20.2664 1.2606C19.8511 1.43264 19.4737 1.68481 19.1558 2.00271L2.81558 18.3429L1 25L7.65711 23.1844L19.6404 11.2012"   fill ="transparent"/>
</svg>
