<svg width="24" height="24" viewBox="0 0 24 24" fill="none" xmlns="http://www.w3.org/2000/svg">
<path d="M4.50055 2.19098C4.39031 2.18256 4.23725 2.18182 3.95146 2.18182H1.09388C0.489747 2.18182 0 1.69341 0 1.09091C0 0.488422 0.489747 5.18318e-06 1.09388 5.18318e-06L3.98308 2.58225e-06C4.22477 -2.70683e-05 4.46341 -5.63283e-05 4.66752 0.0155253C4.8942 0.0328288 5.15818 0.0735042 5.43006 0.197417C5.81176 0.371385 6.13523 0.651168 6.3619 1.0034C6.52335 1.25429 6.60106 1.50916 6.65029 1.73049C6.69462 1.92981 6.72835 2.16543 6.7625 2.40404L8.31071 13.2121C8.38919 13.76 8.44011 14.1102 8.49916 14.3757C8.55525 14.6279 8.60254 14.7221 8.634 14.771C8.74733 14.9471 8.90907 15.087 9.09992 15.174C9.1529 15.1982 9.25318 15.2315 9.51139 15.2512C9.78326 15.272 10.1382 15.2727 10.6931 15.2727H18.7098C19.2865 15.2727 19.6563 15.272 19.939 15.2499C20.2083 15.2289 20.3115 15.1934 20.365 15.1682C20.5604 15.0761 20.7241 14.9284 20.8354 14.7436C20.8658 14.6931 20.9116 14.5942 20.9593 14.3291C21.0083 14.0571 21.0453 13.7008 21.1004 13.151L21.7628 6.54546H10.9388C10.3347 6.54546 9.84493 6.05704 9.84493 5.45455C9.84493 4.85206 10.3347 4.36364 10.9388 4.36364L22.0318 4.36363C22.1748 4.36358 22.3426 4.36352 22.4893 4.37593C22.6568 4.3901 22.9025 4.42669 23.1554 4.56486C23.479 4.7416 23.7333 5.02192 23.8775 5.36057C23.9902 5.62527 24.0022 5.87271 23.9997 6.04041C23.9975 6.18721 23.9807 6.35375 23.9664 6.49566L23.2773 13.368C23.225 13.8897 23.1797 14.3423 23.1126 14.7147C23.0415 15.1098 22.933 15.4983 22.7107 15.8673C22.3768 16.4215 21.8857 16.8648 21.2995 17.141C20.9092 17.3248 20.5107 17.3938 20.1095 17.4251C19.7313 17.4546 19.2752 17.4546 18.7494 17.4545H10.6545C10.1492 17.4546 9.70981 17.4546 9.34442 17.4267C8.95612 17.397 8.57071 17.3317 8.19055 17.1584C7.618 16.8975 7.13279 16.4778 6.79279 15.9495C6.56703 15.5986 6.44766 15.2274 6.36332 14.8482C6.28396 14.4914 6.22184 14.0577 6.15039 13.5588L4.60119 2.7438C4.5608 2.46184 4.53838 2.3106 4.51445 2.203L4.51193 2.1919L4.50055 2.19098Z" fill="#2A4455"/>
<path d="M12.0327 21.8182C12.0327 23.0232 11.0532 24 9.84493 24C8.63666 24 7.65717 23.0232 7.65717 21.8182C7.65717 20.6132 8.63666 19.6364 9.84493 19.6364C11.0532 19.6364 12.0327 20.6132 12.0327 21.8182Z" fill="#2A4455"/>
<path d="M19.6899 24C20.8981 24 21.8776 23.0232 21.8776 21.8182C21.8776 20.6132 20.8981 19.6364 19.6899 19.6364C18.4816 19.6364 17.5021 20.6132 17.5021 21.8182C17.5021 23.0232 18.4816 24 19.6899 24Z" fill="#2A4455"/>
</svg>
