<svg width="26" height="22" viewBox="0 0 26 22" xmlns="http://www.w3.org/2000/svg">
<path d="M15.4394 2.35311C14.011 1.9322 12.5018 1.88683 11.0518 2.22106C9.60183 2.5553 8.25673 3.25872 7.14264 4.26754C6.02843 5.27646 5.18153 6.55812 4.68282 7.9939C4.50161 8.51561 3.93178 8.79164 3.41007 8.61043C2.88836 8.42922 2.61233 7.85939 2.79354 7.33768C3.40138 5.58771 4.43514 4.02109 5.8002 2.78502C7.16538 1.54884 8.81736 0.683687 10.6026 0.272166C12.3879 -0.139372 14.2466 -0.0834085 16.0047 0.434672C17.7576 0.951221 19.352 1.90988 20.6408 3.2197L24 6.43553V2.10877C24 1.55649 24.4477 1.10877 25 1.10877C25.5523 1.10877 26 1.55649 26 2.10877V8.77719C26 9.32948 25.5523 9.77719 25 9.77719H18.4545C17.9023 9.77719 17.4545 9.32948 17.4545 8.77719C17.4545 8.22491 17.9023 7.77719 18.4545 7.77719H22.5093L19.2467 4.65383C19.2391 4.6466 19.2317 4.63926 19.2244 4.63179C18.1702 3.55732 16.8678 2.77404 15.4394 2.35311ZM0 13.2228C0 12.6705 0.447715 12.2228 1 12.2228H7.54545C8.09774 12.2228 8.54545 12.6705 8.54545 13.2228C8.54545 13.7751 8.09774 14.2228 7.54545 14.2228H3.49069L6.75334 17.3462C6.76089 17.3534 6.76833 17.3607 6.77565 17.3682C7.82978 18.4427 9.13223 19.226 10.5606 19.6469C11.989 20.0678 13.4982 20.1132 14.9482 19.7789C16.3982 19.4447 17.7433 18.7413 18.8574 17.7325C19.9716 16.7235 20.8185 15.4419 21.3172 14.0061C21.4984 13.4844 22.0682 13.2084 22.5899 13.3896C23.1116 13.5708 23.3877 14.1406 23.2065 14.6623C22.5986 16.4123 21.5649 17.9789 20.1998 19.215C18.8346 20.4512 17.1826 21.3163 15.3974 21.7278C13.6121 22.1394 11.7534 22.0834 9.99531 21.5653C8.24241 21.0488 6.64803 20.0901 5.35922 18.7803L2 15.5645V19.8912C2 20.4435 1.55228 20.8912 1 20.8912C0.447715 20.8912 0 20.4435 0 19.8912V13.2228Z"/>
</svg>
