<svg width="38" height="32" viewBox="0 0 38 32" fill="none" xmlns="http://www.w3.org/2000/svg">
<path d="M32.0714 6.29289C32.4619 5.90237 33.0951 5.90237 33.4856 6.29289C33.8762 6.68342 33.8762 7.31658 33.4856 7.70711L28.5359 12.6569C28.1454 13.0474 27.5122 13.0474 27.1217 12.6569L27.1106 12.6456L24.2929 9.8279C23.9024 9.43737 23.9024 8.80421 24.2929 8.41368C24.6834 8.02316 25.3166 8.02316 25.7071 8.41368L27.8289 10.5354L32.0714 6.29289Z" fill="white"/>
<path fill-rule="evenodd" clip-rule="evenodd" d="M31.8638 1.00001C32.3686 0.999945 32.8602 0.999887 33.2765 1.0339C33.7337 1.07125 34.2731 1.15939 34.816 1.43598C35.5686 1.81948 36.1805 2.4314 36.564 3.18405C36.8406 3.7269 36.9288 4.26636 36.9661 4.72355C37.0001 5.13987 37.0001 5.63145 37 6.13622V11.8638C37.0001 12.3686 37.0001 12.8602 36.9661 13.2765C36.9288 13.7337 36.8406 14.2731 36.564 14.816C36.1805 15.5686 35.5686 16.1805 34.816 16.564C34.2731 16.8406 33.7337 16.9288 33.2765 16.9661C32.8602 17.0001 32.3686 17.0001 31.8638 17L29.8471 17L29.4263 19.5247C29.3521 19.9705 29.2874 20.3586 29.2091 20.6777C29.1258 21.0171 29.0116 21.3487 28.8038 21.6612C28.4904 22.1325 28.0501 22.5055 27.5337 22.7372C27.1913 22.8908 26.8454 22.9489 26.4969 22.9753C26.1692 23 25.7758 23 25.3238 23H13.8208C13.3618 23 12.9626 23 12.6305 22.9747C12.2775 22.9478 11.9271 22.8884 11.5811 22.7312C11.0598 22.4942 10.6172 22.1131 10.3056 21.6327C10.0987 21.3138 9.98804 20.9761 9.90905 20.631C9.83473 20.3063 9.77553 19.9116 9.70747 19.4577L7.61546 5.511C7.57696 5.2543 7.55568 5.11699 7.53329 5.01918L7.53095 5.00914L7.52067 5.00831C7.42061 5.00068 7.28172 5 7.0221 5H3C2.44772 5 2 4.55229 2 4C2 3.44772 2.44772 3 3 3L7.05087 3C7.27035 2.99998 7.4872 2.99995 7.67277 3.0141C7.87894 3.02983 8.11891 3.06679 8.36632 3.17923C8.71386 3.33718 9.00894 3.59129 9.21669 3.91156C9.36459 4.13955 9.43674 4.37138 9.48287 4.57294C9.5244 4.75435 9.55654 4.9688 9.58907 5.18585L11.6801 19.1264C11.7549 19.6248 11.8034 19.9434 11.8586 20.1848C11.9111 20.4139 11.9545 20.4997 11.9834 20.5442C12.0873 20.7044 12.2349 20.8314 12.4086 20.9104C12.457 20.9324 12.5482 20.9626 12.7826 20.9805C13.0295 20.9993 13.3518 21 13.8558 21H25.2892C25.7858 21 26.1029 20.9993 26.3461 20.981C26.5767 20.9635 26.6669 20.934 26.715 20.9124C26.8872 20.8352 27.034 20.7108 27.1384 20.5537C27.1677 20.5098 27.2116 20.4257 27.2667 20.201C27.3248 19.9642 27.3776 19.6515 27.4593 19.1617L27.8195 17L26.1362 17C25.6315 17.0001 25.1399 17.0001 24.7236 16.9661C24.2664 16.9288 23.7269 16.8406 23.184 16.564C22.4314 16.1805 21.8195 15.5686 21.436 14.816C21.1594 14.2731 21.0713 13.7337 21.0339 13.2765C20.9999 12.8602 20.9999 12.3686 21 11.8638L21 10H14C13.4477 10 13 9.55229 13 9C13 8.44772 13.4477 8 14 8H21L21 6.13621C20.9999 5.63145 20.9999 5.13987 21.0339 4.72355C21.0713 4.26636 21.1594 3.7269 21.436 3.18405C21.8195 2.4314 22.4314 1.81948 23.184 1.43598C23.7269 1.15939 24.2664 1.07125 24.7236 1.0339C25.1399 0.999887 25.6314 0.999945 26.1362 1.00001L31.8638 1.00001ZM31.8 15H29.0168C29.0047 14.9998 28.9928 14.9998 28.9808 15H26.2C25.0799 15 24.5199 15 24.092 14.782C23.7157 14.5903 23.4097 14.2843 23.218 13.908C23 13.4802 23 12.9201 23 11.8V6.20001C23 5.07991 23 4.51985 23.218 4.09203C23.4097 3.71571 23.7157 3.40974 24.092 3.218C24.5199 3.00001 25.0799 3.00001 26.2 3.00001H31.8C32.9201 3.00001 33.4802 3.00001 33.908 3.218C34.2843 3.40974 34.5903 3.71571 34.782 4.09203C35 4.51985 35 5.07991 35 6.20001V11.8C35 12.9201 35 13.4802 34.782 13.908C34.5903 14.2843 34.2843 14.5903 33.908 14.782C33.4802 15 32.9201 15 31.8 15Z" fill="white"/>
<path fill-rule="evenodd" clip-rule="evenodd" d="M13.668 30C15.3248 30 16.668 28.6569 16.668 27C16.668 25.3431 15.3248 24 13.668 24C12.0111 24 10.668 25.3431 10.668 27C10.668 28.6569 12.0111 30 13.668 30ZM13.668 28C14.2203 28 14.668 27.5523 14.668 27C14.668 26.4477 14.2203 26 13.668 26C13.1157 26 12.668 26.4477 12.668 27C12.668 27.5523 13.1157 28 13.668 28Z" fill="white"/>
<path fill-rule="evenodd" clip-rule="evenodd" d="M28.668 27C28.668 28.6569 27.3248 30 25.668 30C24.0111 30 22.668 28.6569 22.668 27C22.668 25.3431 24.0111 24 25.668 24C27.3248 24 28.668 25.3431 28.668 27ZM26.668 27C26.668 27.5523 26.2203 28 25.668 28C25.1157 28 24.668 27.5523 24.668 27C24.668 26.4477 25.1157 26 25.668 26C26.2203 26 26.668 26.4477 26.668 27Z" fill="white"/>
</svg>
