<svg width="48" height="48" viewBox="0 0 48 48" fill="none" xmlns="http://www.w3.org/2000/svg">
<rect x="0.5" y="0.5" width="47" height="47" rx="4.5" fill="transparent" stroke="#FFC100"/>
<path d="M10.152 30.096C9.832 30.096 9.56 29.9893 9.336 29.776C9.112 29.552 9 29.28 9 28.96C9 28.6293 9.10667 28.3573 9.32 28.144C9.544 27.92 9.82133 27.808 10.152 27.808C10.4827 27.808 10.7547 27.92 10.968 28.144C11.192 28.3573 11.304 28.6293 11.304 28.96C11.304 29.28 11.192 29.552 10.968 29.776C10.7547 29.9893 10.4827 30.096 10.152 30.096Z" fill="#FFC100"/>
<path d="M15.5763 30.096C15.1283 30.096 14.6749 30.0427 14.2162 29.936C13.7576 29.8187 13.3736 29.6267 13.0642 29.36L13.7842 27.712C13.9762 27.936 14.1896 28.1067 14.4243 28.224C14.6696 28.3307 14.9683 28.384 15.3203 28.384C15.6509 28.384 15.9176 28.3253 16.1203 28.208C16.3229 28.0907 16.4722 27.8773 16.5683 27.568C16.6749 27.2587 16.7283 26.816 16.7283 26.24V18.176H18.5043V26.688C18.5043 27.8827 18.2323 28.752 17.6883 29.296C17.1549 29.8293 16.4509 30.096 15.5763 30.096Z" fill="#FFC100"/>
<path d="M21.1112 18.176H23.7032C25.1646 18.176 26.2312 18.4907 26.9032 19.12C27.5859 19.7387 27.9272 20.592 27.9272 21.68C27.9272 22.9387 27.5592 23.904 26.8232 24.576C26.0872 25.248 24.9939 25.584 23.5433 25.584H22.9193V29.936H21.1112V18.176ZM23.5913 24C24.5299 24 25.1859 23.792 25.5592 23.376C25.9326 22.96 26.1193 22.4587 26.1193 21.872C26.1193 21.2427 25.9379 20.7307 25.5753 20.336C25.2126 19.9413 24.6046 19.744 23.7513 19.744H22.9193V24H23.5913Z" fill="#FFC100"/>
<path d="M35.0836 30.096C33.921 30.096 32.881 29.8293 31.9636 29.296C31.0463 28.7627 30.3263 28.032 29.8036 27.104C29.2916 26.1653 29.0356 25.1147 29.0356 23.952C29.0356 22.8213 29.297 21.8027 29.8196 20.896C30.3423 19.9893 31.0676 19.28 31.9956 18.768C32.9236 18.256 33.969 18 35.1316 18C35.761 18 36.3263 18.0587 36.8276 18.176C37.3396 18.2827 37.7556 18.4107 38.0756 18.56C38.3956 18.6987 38.6143 18.8213 38.7316 18.928L38.0276 20.432C37.3663 19.8987 36.3903 19.632 35.0996 19.632C34.2463 19.632 33.505 19.8187 32.8756 20.192C32.2463 20.5653 31.7663 21.072 31.4356 21.712C31.105 22.352 30.9396 23.0667 30.9396 23.856C30.9396 24.752 31.1156 25.552 31.4676 26.256C31.8303 26.96 32.3263 27.5093 32.9556 27.904C33.5956 28.288 34.3156 28.48 35.1156 28.48C35.617 28.48 36.097 28.4213 36.5556 28.304C37.0143 28.176 37.4036 27.9787 37.7236 27.712V25.44H35.3076V23.792H39.4996V28.4C39.1156 28.88 38.5343 29.2853 37.7556 29.616C36.9876 29.936 36.097 30.096 35.0836 30.096Z" fill="#FFC100"/>
</svg>