<svg width="48" height="48" viewBox="0 0 48 48" fill="none" xmlns="http://www.w3.org/2000/svg">
<rect x="0.5" y="0.5" width="47" height="47" rx="4.5" fill="transparent" stroke="#FFC100"/>
<path d="M8.152 30.096C7.832 30.096 7.56 29.9893 7.336 29.776C7.112 29.552 7 29.28 7 28.96C7 28.6293 7.10667 28.3573 7.32 28.144C7.544 27.92 7.82133 27.808 8.152 27.808C8.48267 27.808 8.75467 27.92 8.968 28.144C9.192 28.3573 9.304 28.6293 9.304 28.96C9.304 29.28 9.192 29.552 8.968 29.776C8.75467 29.9893 8.48267 30.096 8.152 30.096Z" fill="#FFC100"/>
<path d="M11.7362 18.176H14.3282C15.7896 18.176 16.8563 18.4907 17.5283 19.12C18.2109 19.7387 18.5522 20.592 18.5522 21.68C18.5522 22.9387 18.1843 23.904 17.4483 24.576C16.7123 25.248 15.6189 25.584 14.1683 25.584H13.5443V29.936H11.7362V18.176ZM14.2162 24C15.1549 24 15.8109 23.792 16.1842 23.376C16.5576 22.96 16.7443 22.4587 16.7443 21.872C16.7443 21.2427 16.5629 20.7307 16.2003 20.336C15.8376 19.9413 15.2296 19.744 14.3763 19.744H13.5443V24H14.2162Z" fill="#FFC100"/>
<path d="M21.9646 22.32L22.0126 23.6V29.936H20.2206V18.16H20.4446L27.3566 25.872L27.2926 24.528V18.176H29.0846V29.936H28.8446L21.9646 22.32Z" fill="#FFC100"/>
<path d="M37.068 30.096C35.9053 30.096 34.8653 29.8293 33.948 29.296C33.0307 28.7627 32.3107 28.032 31.788 27.104C31.276 26.1653 31.02 25.1147 31.02 23.952C31.02 22.8213 31.2813 21.8027 31.804 20.896C32.3267 19.9893 33.052 19.28 33.98 18.768C34.908 18.256 35.9533 18 37.116 18C37.7453 18 38.3107 18.0587 38.812 18.176C39.324 18.2827 39.74 18.4107 40.06 18.56C40.38 18.6987 40.5987 18.8213 40.716 18.928L40.012 20.432C39.3507 19.8987 38.3747 19.632 37.084 19.632C36.2307 19.632 35.4893 19.8187 34.86 20.192C34.2307 20.5653 33.7507 21.072 33.42 21.712C33.0893 22.352 32.924 23.0667 32.924 23.856C32.924 24.752 33.1 25.552 33.452 26.256C33.8147 26.96 34.3107 27.5093 34.94 27.904C35.58 28.288 36.3 28.48 37.1 28.48C37.6013 28.48 38.0813 28.4213 38.54 28.304C38.9987 28.176 39.388 27.9787 39.708 27.712V25.44H37.292V23.792H41.484V28.4C41.1 28.88 40.5187 29.2853 39.74 29.616C38.972 29.936 38.0813 30.096 37.068 30.096Z" fill="#FFC100"/>
</svg>