<svg width="48" height="48" viewBox="0 0 48 48" fill="none" xmlns="http://www.w3.org/2000/svg">
<rect x="0.5" y="0.5" width="47" height="47" rx="4.5" fill="transparent" stroke="#1A66AE"/>
<path d="M18.3384 28.1669L22.0306 12.5077H26.1371L29.9676 27.9332C30.1903 28.8936 30.3497 29.8672 30.4449 30.8477L30.4887 31.2994H30.9426H31.0073H31.4711L31.5059 30.8369C31.5775 29.8862 31.7108 28.941 31.9051 28.0069L31.9052 28.0069L31.9062 28.0017L34.9575 12.5H38.3663L33.1056 34.5H28.689L25.0529 19.6494L25.0527 19.6486C24.9475 19.2217 24.8257 18.6576 24.6912 17.9585C24.5561 17.2559 24.4754 16.759 24.4444 16.4581L24.3982 16.0093H23.947H23.8822H23.4366L23.3855 16.452C23.344 16.8124 23.2614 17.3574 23.1361 18.0924L23.629 18.1764L23.1361 18.0924C23.0112 18.8255 22.9121 19.3609 22.8387 19.7039L19.4234 34.4961H14.9233L9.63452 12.5077H13.129L16.4544 28.194L16.4544 28.194L16.4565 28.2033C16.5276 28.5097 16.5978 28.9308 16.6676 29.4685C16.7373 30.007 16.7828 30.4683 16.8035 30.8587L16.8286 31.3322H17.3028H17.3852H17.8462L17.8836 30.8728C17.9132 30.5087 17.9757 30.0611 18.0734 29.5271L17.6739 29.4541L18.0734 29.5271C18.1718 28.9884 18.2601 28.5353 18.3384 28.1669Z" fill="#1A66AE" stroke="#1A66AE"/>
</svg>