<svg width="48" height="48" viewBox="0 0 48 48" fill="none" xmlns="http://www.w3.org/2000/svg">
<rect x="0.5" y="0.5" width="47" height="47" rx="4.5" fill="transparent" stroke="#BC0000"/>
<path d="M20.0978 30.191L20.0718 30.2288C19.9966 30.3384 19.8914 30.4924 19.7714 30.6701C19.5308 31.0266 19.234 31.4738 19.0015 31.8475C18.1054 33.2877 17.1318 34.6086 16.1909 35.682C15.2565 36.7478 14.3302 37.5976 13.5243 38.0661C12.6415 38.5793 11.7177 38.8655 10.8746 38.8974C10.0346 38.9292 9.23273 38.707 8.67063 38.1494C8.16378 37.6466 7.88378 37.0542 7.89902 36.3931C7.91389 35.7481 8.20819 35.1153 8.68779 34.511C9.63956 33.3118 11.4484 32.065 13.986 30.814L17.0006 29.3278L18.1628 26.8052C18.8383 25.3391 19.8488 22.9412 20.4051 21.4846L21.3583 18.9887L20.7179 17.1879C20.2688 15.9249 19.969 14.3621 19.8498 12.9498C19.7901 12.2421 19.7749 11.5621 19.8114 10.968C19.8473 10.3835 19.9352 9.84402 20.1041 9.43951L20.5655 9.63217L20.1041 9.43951C20.5647 8.33648 21.5697 7.8316 22.5876 7.90796C23.5925 7.98334 24.5907 8.61671 25.1464 9.7169C25.5753 10.5659 25.7454 11.7062 25.7077 13.0301C25.6697 14.3625 25.4197 15.9245 24.9676 17.6487L24.2904 20.2319L24.8269 21.1354M20.0978 30.191L24.8269 21.1354M20.0978 30.191C22.054 29.536 22.748 29.3056 24.1133 28.9406C24.7869 28.7605 25.8169 28.53 26.6867 28.3432C27.1198 28.2501 27.5103 28.1684 27.7925 28.11C27.8669 28.0946 27.9338 28.0809 27.9919 28.0689C28.07 28.1417 28.1698 28.2326 28.2885 28.3367C28.596 28.6063 29.0334 28.9666 29.5534 29.3289C31.8544 30.9321 34.3927 31.6911 36.3903 31.6872C37.3857 31.6852 38.2899 31.4933 38.9629 31.0771C39.6573 30.6478 40.0984 29.9786 40.0984 29.1108C40.0984 28.4829 39.9261 27.8809 39.5298 27.3581C39.1364 26.8392 38.5482 26.4322 37.7712 26.1436C36.2331 25.5721 33.8678 25.4315 30.4647 25.872L30.5289 26.3679L30.4647 25.872L28.6151 26.1115L27.0834 24.2215C27.0832 24.2212 27.083 24.2209 27.0827 24.2207C26.176 23.0906 25.1616 21.6992 24.8269 21.1354M20.0978 30.191L24.3969 21.3907L24.8269 21.1354M30.3661 27.6382C30.5852 27.7796 30.7909 27.9083 30.9367 27.9911L30.3661 27.6382ZM30.3661 27.6382C31.1384 27.5443 32.1068 27.4416 32.8398 27.3916C34.9871 27.3606 35.5448 27.453 36.2551 27.8077C36.6435 28.0017 36.8347 28.3207 36.8659 28.6217C36.896 28.9121 36.7823 29.2221 36.4759 29.4456L36.4494 29.4644C36.1141 29.7025 35.6114 29.7973 34.4398 29.4415C33.2417 29.0777 31.5937 28.3632 30.9371 27.9913L30.3661 27.6382ZM15.1278 32.2269C14.5627 33.0545 13.9309 33.8782 13.3291 34.5843C12.5505 35.4977 11.8653 36.1626 11.4571 36.4129C10.8445 36.7885 10.4668 36.9345 10.2193 36.955C10.1096 36.9641 10.0342 36.9474 9.97204 36.9184C9.90586 36.8875 9.82626 36.829 9.73068 36.7147C9.614 36.5753 9.57877 36.4283 9.63533 36.221C9.70007 35.9837 9.88992 35.6671 10.2663 35.2804C11.0154 34.5107 12.3597 33.6076 14.2681 32.6557L15.1278 32.2269ZM26.6762 26.5086C26.4906 26.5463 26.2828 26.5888 26.0631 26.6344C25.2713 26.7989 24.3118 27.0062 23.6724 27.1719C23.0679 27.3285 22.1806 27.5975 21.4521 27.8247C21.3892 27.8443 21.3274 27.8636 21.267 27.8826L22.6975 24.3749C22.9467 23.7912 23.2191 23.0254 23.427 22.4134C23.4355 22.3884 23.4439 22.3636 23.4522 22.3391C23.631 22.6021 23.8509 22.9108 24.1121 23.2511C24.7352 24.1837 25.7083 25.4314 26.3042 26.0562L26.6762 26.5086ZM23.046 11.0968C23.0603 11.5873 23.0126 12.1606 22.9411 12.7572C22.764 13.864 22.4669 15.2842 22.2541 16.0682L22.1726 15.8117C21.8725 14.8673 21.6397 13.2934 21.5661 12.365C21.4583 11.0062 21.7404 10.2415 22.0254 9.94814C22.1514 9.81854 22.2639 9.79034 22.3641 9.80132C22.475 9.81346 22.6459 9.88323 22.8511 10.0947C22.9595 10.2869 23.032 10.6165 23.046 11.0968Z" fill="transparent" stroke="#BC0000"/>
</svg>