<svg width="16" height="10" viewBox="0 0 16 10" fill="none" xmlns="http://www.w3.org/2000/svg">
<path fill-rule="evenodd" clip-rule="evenodd" d="M9.96654 0.138674C10.1584 -0.041845 10.475 -0.046764 10.6735 0.127687L15.8475 4.67314C15.9449 4.75879 16 4.87675 16 5C16 5.12325 15.9449 5.24121 15.8475 5.32686L10.6735 9.87231C10.475 10.0468 10.1584 10.0418 9.96654 9.86133C9.77465 9.68081 9.78006 9.39305 9.97863 9.21859L14.2631 5.45455H0.5C0.223858 5.45455 0 5.25104 0 5C0 4.74896 0.223858 4.54545 0.5 4.54545H14.2631L9.97863 0.781404C9.78006 0.606953 9.77465 0.319193 9.96654 0.138674Z" fill="#BC0000"/>
</svg>
