<svg xmlns="http://www.w3.org/2000/svg">
<path fill-rule="evenodd" clip-rule="evenodd" d="M0.0933568 9.44244C-0.313758 7.83638 0.64852 6.16838 2.24266 5.71686L22.026 0.113507C23.6201 -0.338013 25.2424 0.597925 25.6496 2.20398L26.3087 4.80408L27.435 9.2477C27.5238 9.37101 27.6034 9.50143 27.673 9.63803C27.8658 10.0164 27.9371 10.4096 27.9694 10.805C28 11.1795 28 11.6343 28 12.1614V12.2V21.5C28 22.0523 27.5523 22.5 27 22.5C26.4477 22.5 26 22.0523 26 21.5V12.2C26 11.6234 25.9992 11.2512 25.9761 10.9678C25.9539 10.6962 25.9162 10.5955 25.891 10.546C25.7951 10.3578 25.6422 10.2049 25.454 10.109C25.4045 10.0838 25.3038 10.0461 25.0322 10.0239C24.7488 10.0008 24.3766 10 23.8 10H4.2C3.62345 10 3.25117 10.0008 2.96784 10.0239C2.69617 10.0461 2.59545 10.0838 2.54601 10.109C2.35785 10.2049 2.20487 10.3578 2.10899 10.546C2.0838 10.5955 2.04612 10.6962 2.02393 10.9678C2.00078 11.2512 2 11.6234 2 12.2V25.8C2 26.3766 2.00078 26.7488 2.02393 27.0322C2.04612 27.3038 2.0838 27.4045 2.10899 27.454C2.20487 27.6422 2.35785 27.7951 2.54601 27.891C2.59545 27.9162 2.69617 27.9539 2.96784 27.9761C3.25117 27.9992 3.62345 28 4.2 28H19.5C20.0523 28 20.5 28.4477 20.5 29C20.5 29.5523 20.0523 30 19.5 30H4.2H4.16143C3.6343 30 3.17954 30 2.80497 29.9694C2.40963 29.9371 2.01641 29.8658 1.63803 29.673C1.07354 29.3854 0.614601 28.9265 0.326981 28.362C0.134187 27.9836 0.0628714 27.5904 0.0305704 27.195C-3.34047e-05 26.8205 -1.79069e-05 26.3657 9.28212e-07 25.8385V25.8V12.2V12.1615C-1.79069e-05 11.6343 -3.34047e-05 11.1795 0.0305704 10.805C0.0553268 10.502 0.103001 10.2002 0.210719 9.90543L0.0933568 9.44244ZM2.11967 8.14279C2.34571 8.08136 2.57499 8.04936 2.80497 8.03057C3.17955 7.99997 3.63431 7.99998 4.16146 8L4.2 8H23.8L23.8385 8C24.3046 7.99998 24.7141 7.99997 25.0617 8.02112L24.3843 5.34912L23.7253 2.74902C23.5896 2.21366 23.0488 1.90168 22.5174 2.05219L2.73409 7.65555C2.46423 7.73198 2.24868 7.913 2.11967 8.14279ZM32 29C32 28.4477 31.5523 28 31 28H28V25C28 24.4477 27.5523 24 27 24C26.4477 24 26 24.4477 26 25V28H23C22.4477 28 22 28.4477 22 29C22 29.5523 22.4477 30 23 30H26V33C26 33.5523 26.4477 34 27 34C27.5523 34 28 33.5523 28 33V30H31C31.5523 30 32 29.5523 32 29ZM6 15C6 14.4477 6.44772 14 7 14C7.55229 14 8 14.4477 8 15C8 15.5523 7.55229 16 7 16C6.44772 16 6 15.5523 6 15ZM7 18C8.65686 18 10 16.6569 10 15C10 13.3431 8.65686 12 7 12C5.34315 12 4 13.3431 4 15C4 16.6569 5.34315 18 7 18ZM19.666 17.0215L14.3197 24.1274L14.3006 24.1528L14.2988 24.1552C14.1257 24.3854 13.9597 24.606 13.8049 24.7787C13.6372 24.9658 13.416 25.1751 13.1067 25.3103C12.6841 25.495 12.2107 25.5279 11.7666 25.4036C11.4415 25.3127 11.1934 25.136 11.0014 24.9741C10.8241 24.8244 10.6292 24.629 10.4259 24.4251L10.4013 24.4004L8.5273 22.5217L8.48087 22.4752L8.44093 22.4229C8.43422 22.4142 8.42833 22.41 8.42202 22.407C8.41419 22.4033 8.40251 22.4001 8.38824 22.4001C8.37396 22.4001 8.36228 22.4033 8.35445 22.407C8.34814 22.41 8.34226 22.4142 8.33554 22.4229L8.32926 22.4311L8.32281 22.4392L5.78164 25.6237C5.43716 26.0554 4.80796 26.1261 4.37627 25.7816C3.94458 25.4372 3.87389 24.808 4.21836 24.3763L6.7541 21.1986C7.56462 20.1509 9.14717 20.1342 9.98234 21.1484L11.8173 22.988C12.0544 23.2257 12.1878 23.3583 12.2912 23.4455L12.3042 23.4563L12.3156 23.4438C12.4059 23.3431 12.5197 23.1933 12.7215 22.925L12.7406 22.8996L12.7406 22.8996L18.0715 15.8142L18.0762 15.8079L18.0762 15.8079C18.9 14.7307 20.5353 14.7307 21.3591 15.808L21.3682 15.8199L21.377 15.8322L23.8123 19.2244C24.1344 19.6731 24.0318 20.2978 23.5832 20.6199C23.1345 20.942 22.5097 20.8394 22.1877 20.3908L19.7663 17.018C19.7612 17.0124 19.7564 17.0093 19.7514 17.0069C19.7436 17.0032 19.7319 17 19.7176 17C19.7034 17 19.6917 17.0032 19.6839 17.0069C19.6779 17.0098 19.6723 17.0136 19.666 17.0215Z"/>
</svg>
