<svg width="83" height="17" viewBox="0 0 83 17"  xmlns="http://www.w3.org/2000/svg">
<path fill-rule="evenodd" clip-rule="evenodd" d="M1.30376 2.64211C2.12309 1.68539 3.56475 0.700195 5.55221 0.700195C6.51645 0.700195 7.24293 0.947259 7.24293 0.947259L7.24621 0.945903C8.61792 1.37758 9.79201 2.28378 10.5022 3.62013L10.5012 3.62132C10.5129 3.64084 11.1283 4.67467 11.1283 6.15903C11.1283 7.76112 10.4922 8.90827 10.4922 8.90827C10.0487 9.8031 9.14112 10.9029 8.77853 11.3423C8.71797 11.4157 8.67261 11.4707 8.64716 11.5032C7.99032 12.3059 7.32187 13.1411 6.78392 14.081C6.50976 14.5678 6.33598 15.083 6.11453 15.7581C6.00788 16.0682 5.86986 16.2688 5.56559 16.2688C5.28642 16.2688 5.15656 16.1509 5.01289 15.756C4.77858 15.0411 4.64495 14.6388 4.32437 14.0455C3.9489 13.4147 3.52892 12.8101 3.06747 12.2361L3.06785 12.234C2.8585 11.9582 2.62232 11.6721 2.37732 11.3753C1.71235 10.5697 0.982305 9.6853 0.547218 8.71531L0.547479 8.71386C0.523796 8.66784 0 7.63318 0 6.1493C0 4.715 0.571015 3.46118 1.30393 2.64342L1.30376 2.64211ZM3.9252 4.79444L3.92724 4.79611L3.89474 4.8338C3.78719 4.96953 3.43744 5.46244 3.43744 6.13293C3.43744 7.28834 4.38725 8.20465 5.56292 8.20465C6.36898 8.20465 6.89882 7.77151 7.10424 7.56678L7.20016 7.46017L7.23844 7.4134C7.35239 7.26544 7.68975 6.77215 7.68975 6.11772C7.68975 4.93536 6.66967 4.05211 5.56772 4.05211C4.52568 4.05211 3.92719 4.79361 3.92719 4.79361V4.79214L3.9252 4.79444Z" />
<path d="M56.9714 13.3276V5.14505H58.0486L60.9642 10.1277H61.0112L63.9269 5.14505H65.004V13.3276H63.9269V8.47046L63.9739 7.0989H63.9269L61.3045 11.5901H60.6725L58.0501 7.0989H58.0031L58.0501 8.47046V13.3272L56.9714 13.3276Z" />
<path fill-rule="evenodd" clip-rule="evenodd" d="M68.1533 13.499C67.5448 13.499 67.0351 13.3276 66.6257 12.9847C66.2164 12.6418 66.0109 12.1887 66.0109 11.6247C66.0109 11.0124 66.2525 10.5373 66.7368 10.1904C67.2211 9.84355 67.8177 9.67058 68.5247 9.67058C69.1571 9.67058 69.6759 9.78477 70.0822 10.0135V9.85335C70.0822 9.44188 69.9379 9.11246 69.6493 8.86509C69.3607 8.61772 69.0053 8.49373 68.5834 8.49373C68.2713 8.49373 67.9887 8.56598 67.7349 8.70804C67.4811 8.85009 67.3077 9.05093 67.2142 9.30197L66.2305 8.89081C66.3632 8.55557 66.6248 8.24789 67.0147 7.9595C67.4046 7.6711 67.92 7.53088 68.5602 7.53088C69.2942 7.53088 69.9027 7.7406 70.3867 8.15941C70.8707 8.57823 71.1126 9.1691 71.1126 9.93111V13.3168H70.0825V12.5392H70.0354C69.6057 13.1821 68.9774 13.499 68.1533 13.499ZM68.329 12.5392C68.7738 12.5392 69.1775 12.377 69.5407 12.0537C69.904 11.7304 70.0853 11.3495 70.0853 10.9056C69.781 10.6616 69.3243 10.5397 68.7155 10.5397C68.1922 10.5397 67.798 10.65 67.5329 10.8713C67.2678 11.0926 67.1345 11.3513 67.1345 11.6483C67.1345 11.9226 67.2556 12.1397 67.4974 12.2998C67.7393 12.4599 68.0169 12.5392 68.329 12.5392Z" />
<path fill-rule="evenodd" clip-rule="evenodd" d="M75.149 13.499C74.712 13.499 74.3196 13.4072 73.9727 13.2247C73.6258 13.0422 73.3657 12.8132 73.1948 12.5389H73.1477L73.1948 13.3159V15.7844H72.1176V7.71672H73.1483V8.49373H73.1954C73.367 8.21942 73.6264 7.99103 73.9733 7.80795C74.3202 7.62487 74.713 7.53364 75.1496 7.53364C75.8911 7.53364 76.5313 7.81928 77.0699 8.39086C77.6085 8.96245 77.878 9.67058 77.878 10.5165C77.878 11.3624 77.6082 12.0708 77.0699 12.6421C76.5317 13.2134 75.8905 13.499 75.149 13.499ZM74.9733 12.5392C75.473 12.5392 75.9018 12.3543 76.2613 11.9881C76.6207 11.622 76.7999 11.1291 76.7999 10.5195C76.7999 9.90999 76.6204 9.41739 76.2613 9.05093C75.9021 8.68446 75.4727 8.49985 74.9733 8.49985C74.4661 8.49985 74.0345 8.68262 73.6794 9.04848C73.3243 9.41433 73.1471 9.9057 73.1471 10.5226C73.1471 11.1395 73.3246 11.6309 73.6794 11.9967C74.0342 12.3626 74.4658 12.5453 74.9733 12.5453V12.5392Z" />
<path d="M80.7403 13.499C80.1004 13.499 79.5715 13.3465 79.1537 13.0419C78.7359 12.7373 78.4322 12.3561 78.2346 11.8991L79.1945 11.5102C79.4987 12.2144 80.0182 12.5613 80.7522 12.5613C81.0878 12.5613 81.3632 12.489 81.5778 12.347C81.7923 12.2049 81.8999 12.0117 81.8999 11.7757C81.8999 11.4101 81.6383 11.1621 81.1151 11.0329L79.9561 10.7589C79.5891 10.6677 79.2418 10.4941 78.914 10.2391C78.5863 9.98407 78.4222 9.63904 78.4222 9.20523C78.4222 8.71018 78.6465 8.3082 79.0953 7.99899C79.5442 7.68978 80.0772 7.53609 80.6935 7.53609C81.2008 7.53609 81.6534 7.64845 82.0518 7.87285C82.4421 8.089 82.7441 8.43009 82.9065 8.83846L81.9696 9.21563C81.7594 8.72059 81.3218 8.47291 80.6584 8.47291C80.3385 8.47291 80.0687 8.53782 79.8507 8.66701C79.6327 8.79621 79.5229 8.97194 79.5229 9.19298C79.5229 9.51291 79.7738 9.72997 80.2839 9.84447L81.4194 10.1071C81.958 10.229 82.356 10.4387 82.6136 10.7357C82.8711 11.0326 83 11.3682 83 11.7417C83 12.2444 82.7892 12.6601 82.3676 12.9987C81.946 13.3373 81.4037 13.5014 80.7365 13.5014L80.7403 13.499Z" />
<path d="M25.0503 8.44903H20.6319V9.72874H23.7687C23.614 11.5228 22.0842 12.2882 20.6404 12.2882C20.1828 12.2902 19.7295 12.2032 19.3068 12.0324C18.8841 11.8615 18.5005 11.6102 18.1784 11.293C17.8563 10.9758 17.6022 10.5992 17.431 10.1851C17.2597 9.77106 17.1746 9.32782 17.1808 8.88132C17.1808 6.9443 18.7172 5.45242 20.6438 5.45242C22.1306 5.45242 23.0058 6.37761 23.0058 6.37761L23.9239 5.44997C23.9239 5.44997 22.7454 4.17026 20.5968 4.17026C17.8605 4.17026 15.7432 6.42445 15.7432 8.85927C15.7432 11.2448 17.7351 13.5719 20.6667 13.5719C23.2451 13.5719 25.1335 11.8476 25.1335 9.29799C25.1335 8.76039 25.0535 8.44934 25.0535 8.44934L25.0503 8.44903Z" />
<path fill-rule="evenodd" clip-rule="evenodd" d="M25.5653 10.5354C25.5653 8.92198 26.8646 7.53879 28.6776 7.53879L28.6808 7.53818C30.171 7.53818 31.7874 8.56899 31.7874 10.5703C31.7874 12.3166 30.3981 13.5816 28.7021 13.5816C26.8257 13.5816 25.5653 12.1727 25.5653 10.5354ZM30.432 10.5626C30.432 9.42928 29.5873 8.72574 28.6955 8.72574C27.6939 8.72574 26.9235 9.50796 26.9235 10.5544C26.9235 11.6241 27.703 12.3965 28.6911 12.3965C29.5904 12.3965 30.432 11.6721 30.432 10.5626Z" />
<path fill-rule="evenodd" clip-rule="evenodd" d="M35.4141 7.53879C33.601 7.53879 32.3018 8.92198 32.3018 10.5354C32.3018 12.1727 33.5621 13.5816 35.4385 13.5816C37.1346 13.5816 38.5238 12.3166 38.5238 10.5703C38.5238 8.56899 36.9075 7.53818 35.4172 7.53818L35.4141 7.53879ZM35.4319 8.72574C36.3237 8.72574 37.1684 9.42928 37.1684 10.5626C37.1684 11.6721 36.3269 12.3965 35.4275 12.3965C34.4395 12.3965 33.66 11.6241 33.66 10.5544C33.66 9.50796 34.4304 8.72574 35.4319 8.72574Z" />
<path fill-rule="evenodd" clip-rule="evenodd" d="M39.0749 10.558C39.0749 8.96145 40.3833 7.53876 42.0473 7.53876L42.0448 7.53723C42.7688 7.53723 43.3146 7.81124 43.7136 8.23066V7.71878H45.0116V13.1468C45.0116 15.2832 43.7503 16.3002 42.0956 16.3002C40.5824 16.3002 39.733 15.3915 39.3108 14.5205L40.5006 14.035C40.6656 14.4244 41.1395 15.1108 42.0853 15.1108C43.0677 15.1108 43.7164 14.4863 43.7164 13.4438V12.848C43.3695 13.2408 42.9005 13.5828 42.0181 13.5828C40.5912 13.5828 39.0749 12.3766 39.0749 10.558ZM43.8215 10.5645C43.8215 9.40322 42.9839 8.72357 42.1678 8.72357C41.2939 8.72357 40.4369 9.4121 40.4369 10.5755C40.4369 11.6923 41.2625 12.3952 42.1496 12.3952C42.9855 12.3952 43.8215 11.745 43.8215 10.5645Z" />
<path fill-rule="evenodd" clip-rule="evenodd" d="M47.9165 10.5565C47.9165 8.75724 49.2349 7.53876 50.8045 7.53876L50.8108 7.53907C52.0461 7.53907 52.9815 8.34486 53.383 9.30985L53.5985 9.79969L49.4473 11.4835C49.6951 11.9342 50.095 12.3995 50.9655 12.3995C51.7399 12.3995 52.2045 11.9881 52.4821 11.5674L53.5486 12.2624C53.0693 12.8891 52.265 13.5886 50.9551 13.5886C49.3855 13.5886 47.9165 12.4595 47.9165 10.5565ZM52.0044 9.34628C51.8309 8.99488 51.4245 8.70101 50.8588 8.70091C49.9623 8.70091 49.1129 9.60161 49.2321 10.4772L52.0044 9.34628Z" />
<path d="M47.297 13.4086H45.9338V4.4996H47.297V13.4086Z" />
</svg>
