<svg width="31" height="13" viewBox="0 0 31 13" fill="none" xmlns="http://www.w3.org/2000/svg">
<path d="M1.152 12.096C0.832 12.096 0.56 11.9893 0.336 11.776C0.112 11.552 0 11.28 0 10.96C0 10.6293 0.106667 10.3573 0.32 10.144C0.544 9.92 0.821333 9.808 1.152 9.808C1.48267 9.808 1.75467 9.92 1.968 10.144C2.192 10.3573 2.304 10.6293 2.304 10.96C2.304 11.28 2.192 11.552 1.968 11.776C1.75467 11.9893 1.48267 12.096 1.152 12.096Z" fill="#FFC100"/>
<path d="M6.57625 12.096C6.12825 12.096 5.67492 12.0427 5.21625 11.936C4.75758 11.8187 4.37358 11.6267 4.06425 11.36L4.78425 9.712C4.97625 9.936 5.18958 10.1067 5.42425 10.224C5.66958 10.3307 5.96825 10.384 6.32025 10.384C6.65092 10.384 6.91758 10.3253 7.12025 10.208C7.32292 10.0907 7.47225 9.87733 7.56825 9.568C7.67492 9.25867 7.72825 8.816 7.72825 8.24V0.176001H9.50425V8.688C9.50425 9.88267 9.23225 10.752 8.68825 11.296C8.15492 11.8293 7.45092 12.096 6.57625 12.096Z" fill="#FFC100"/>
<path d="M12.1112 0.176001H14.7032C16.1646 0.176001 17.2312 0.490667 17.9032 1.12C18.5859 1.73867 18.9272 2.592 18.9272 3.68C18.9272 4.93867 18.5592 5.904 17.8232 6.576C17.0872 7.248 15.9939 7.584 14.5433 7.584H13.9193V11.936H12.1112V0.176001ZM14.5913 6C15.5299 6 16.1859 5.792 16.5592 5.376C16.9326 4.96 17.1193 4.45867 17.1193 3.872C17.1193 3.24267 16.9379 2.73067 16.5753 2.336C16.2126 1.94133 15.6046 1.744 14.7513 1.744H13.9193V6H14.5913Z" fill="#FFC100"/>
<path d="M26.0836 12.096C24.921 12.096 23.881 11.8293 22.9636 11.296C22.0463 10.7627 21.3263 10.032 20.8036 9.104C20.2916 8.16533 20.0356 7.11467 20.0356 5.952C20.0356 4.82133 20.297 3.80267 20.8196 2.896C21.3423 1.98933 22.0676 1.28 22.9956 0.768001C23.9236 0.256 24.969 0 26.1316 0C26.761 0 27.3263 0.0586669 27.8276 0.176001C28.3396 0.282667 28.7556 0.410667 29.0756 0.56C29.3956 0.698667 29.6143 0.821334 29.7316 0.928L29.0276 2.432C28.3663 1.89867 27.3903 1.632 26.0996 1.632C25.2463 1.632 24.505 1.81867 23.8756 2.192C23.2463 2.56533 22.7663 3.072 22.4356 3.712C22.105 4.352 21.9396 5.06667 21.9396 5.856C21.9396 6.752 22.1156 7.552 22.4676 8.256C22.8303 8.96 23.3263 9.50933 23.9556 9.904C24.5956 10.288 25.3156 10.48 26.1156 10.48C26.617 10.48 27.097 10.4213 27.5556 10.304C28.0143 10.176 28.4036 9.97867 28.7236 9.712V7.44H26.3076V5.792H30.4996V10.4C30.1156 10.88 29.5343 11.2853 28.7556 11.616C27.9876 11.936 27.097 12.096 26.0836 12.096Z" fill="#FFC100"/>
</svg>
