<svg width="18" height="19" viewBox="0 0 18 19" fill="none" xmlns="http://www.w3.org/2000/svg">
<path fill-rule="evenodd" clip-rule="evenodd" d="M2 0C2.55228 0 3 0.447715 3 1V8C3 8.55228 2.55228 9 2 9C1.44772 9 1 8.55228 1 8V1C1 0.447715 1.44772 0 2 0ZM9 0C9.55229 0 10 0.447715 10 1V5C10.5523 5 11 5.44772 11 6C11 6.55228 10.5523 7 10 7H8C7.44772 7 7 6.55228 7 6C7 5.44772 7.44772 5 8 5V1C8 0.447715 8.44772 0 9 0ZM16 0C16.5523 0 17 0.447715 17 1V10C17 10.5523 16.5523 11 16 11C15.4477 11 15 10.5523 15 10V1C15 0.447715 15.4477 0 16 0ZM9 9C9.55229 9 10 9.44771 10 10V18C10 18.5523 9.55229 19 9 19C8.44772 19 8 18.5523 8 18V10C8 9.44771 8.44772 9 9 9ZM0 12C0 11.4477 0.447715 11 1 11H3C3.55228 11 4 11.4477 4 12C4 12.5523 3.55228 13 3 13V18C3 18.5523 2.55228 19 2 19C1.44772 19 1 18.5523 1 18V13C0.447715 13 0 12.5523 0 12ZM14 14C14 13.4477 14.4477 13 15 13H17C17.5523 13 18 13.4477 18 14C18 14.5523 17.5523 15 17 15V18C17 18.5523 16.5523 19 16 19C15.4477 19 15 18.5523 15 18V15C14.4477 15 14 14.5523 14 14Z" />
</svg>
