<svg width="24" height="24" viewBox="0 0 24 24" fill="none" xmlns="http://www.w3.org/2000/svg">
<path d="M6.51839 22H2.38529V8.71333H6.51839V22ZM4.40981 6.81383C3.07741 6.81383 2 5.7346 2 4.40621C2 3.07783 3.07881 2 4.40981 2C5.738 2 6.81821 3.07923 6.81821 4.40621C6.81821 5.7346 5.738 6.81383 4.40981 6.81383ZM22 22H17.8697V15.5386C17.8697 13.9975 17.8417 12.0154 15.7219 12.0154C13.5713 12.0154 13.2406 13.6937 13.2406 15.4267V22H9.11033V8.71333H13.0753V10.5288H13.1313C13.6834 9.4846 15.0312 8.38298 17.0417 8.38298C21.2266 8.38298 22 11.1349 22 14.7128V22Z" fill="#D3D3D3"/>
</svg>
