<svg width="18" height="24" viewBox="0 0 18 24" fill="none" xmlns="http://www.w3.org/2000/svg">
<path fill-rule="evenodd" clip-rule="evenodd" d="M3 8C3 6.89543 3.89543 6 5 6H13C14.1046 6 15 6.89543 15 8V11C15 12.1046 14.1046 13 13 13H5C3.89543 13 3 12.1046 3 11V8ZM5 7H13C13.5523 7 14 7.44772 14 8V11C14 11.5523 13.5523 12 13 12H5C4.44772 12 4 11.5523 4 11V8C4 7.44772 4.44772 7 5 7Z" fill="#1D262C"/>
<path d="M3 14.5C3 14.2239 3.22386 14 3.5 14H14.5C14.7761 14 15 14.2239 15 14.5C15 14.7761 14.7761 15 14.5 15H3.5C3.22386 15 3 14.7761 3 14.5Z" fill="#1D262C"/>
<path d="M3.5 16C3.22386 16 3 16.2239 3 16.5C3 16.7761 3.22386 17 3.5 17H14.5C14.7761 17 15 16.7761 15 16.5C15 16.2239 14.7761 16 14.5 16H3.5Z" fill="#1D262C"/>
<path d="M3 18.5C3 18.2239 3.22386 18 3.5 18H14.5C14.7761 18 15 18.2239 15 18.5C15 18.7761 14.7761 19 14.5 19H3.5C3.22386 19 3 18.7761 3 18.5Z" fill="#1D262C"/>
<path fill-rule="evenodd" clip-rule="evenodd" d="M4 1C4 0.447716 4.44772 0 5 0H7V1H5.5C5.22386 1 5 1.22386 5 1.5V3H16C17.1046 3 18 3.89543 18 5V24H16V22H2V24H0V5C0 3.89543 0.895432 3 2 3H4V1ZM2 4H16C16.5523 4 17 4.44772 17 5V21H1V5C1 4.44772 1.44772 4 2 4Z" fill="#1D262C"/>
</svg>
