<svg width="22" height="21" viewBox="0 0 22 21" fill="none" xmlns="http://www.w3.org/2000/svg">
<path fill-rule="evenodd" clip-rule="evenodd" d="M14.0004 0C15.6571 0.000222632 17 1.34328 17 3C17 3.7744 16.7066 4.48027 16.2249 5.0125C17.2236 5.12424 18 5.97145 18 7V8C19.2138 8 20.2364 8.65829 20.9213 9.57157C21.6061 10.4845 22 11.7 22 13C22 14.3 21.6061 15.5155 20.9213 16.4284C20.2364 17.3417 19.2138 18 18 18H16V21H13V18H8V21H5V18H4C2.78625 18 1.76364 17.3417 1.07868 16.4284C0.393948 15.5155 0 14.3 0 13C0 11.7 0.393948 10.4845 1.07868 9.57157C1.76364 8.65829 2.78625 8 4 8V7C4 6.1276 4.55857 5.38566 5.33759 5.11231C5.12437 4.79427 5 4.41166 5 4C5 3.07123 5.63309 2.29032 6.49127 2.06528L6.60627 2.02581C6.77401 1.96837 7.01508 1.8864 7.30895 1.78808C7.89647 1.59152 8.69617 1.3292 9.54367 1.06668C10.3902 0.804472 11.2892 0.540533 12.0741 0.34166C12.5945 0.209792 13.0917 0.0991931 13.4971 0.041973C13.6606 0.0143707 13.829 0 14.0004 0ZM16 3C16 3.74028 15.5978 4.38663 15 4.73244V4C15 3.44772 14.5523 3 14 3C13.4477 3 13 3.44772 13 4V4.73244C12.4022 4.38663 12 3.74028 12 3C12 2.00922 12.7204 1.1867 13.666 1.02776C13.8003 1.00948 13.9127 1 14.0004 1C15.1048 1.00022 16 1.89557 16 3ZM14 20H15V16.5C15 16.2239 14.7761 16 14.5 16C14.2239 16 14 16.2239 14 16.5V20ZM16 17V16.5C16 15.6716 15.3284 15 14.5 15C13.6716 15 13 15.6716 13 16.5V17H8V16.5C8 15.6716 7.32843 15 6.5 15C5.67157 15 5 15.6716 5 16.5V17H4V9H18V17H16ZM17 7V8H5V7C5 6.44772 5.44772 6 6 6H16C16.5523 6 17 6.44772 17 7ZM21 13C21 14.7416 20.1652 16.2233 19 16.7724V9.22761C20.1652 9.77672 21 11.2584 21 13ZM1 13C1 11.2584 1.83481 9.77672 3 9.22761V16.7724C1.83481 16.2233 1 14.7416 1 13ZM6 16.5C6 16.2239 6.22386 16 6.5 16C6.77614 16 7 16.2239 7 16.5V20H6V16.5ZM11 3C11 3.76835 11.2889 4.46924 11.7639 5H8.73244C8.90261 4.70583 9 4.36429 9 4C9 3.40495 8.74013 2.87059 8.32768 2.50422C8.78411 2.35477 9.3024 2.1883 9.83956 2.02191C10.3441 1.86563 10.8634 1.70999 11.3627 1.56881C11.1314 1.99418 11 2.48174 11 3ZM6 4C6 4.55228 6.44772 5 7 5C7.55228 5 8 4.55228 8 4C8 3.44772 7.55228 3 7 3C6.92199 3 6.84607 3.00893 6.7732 3.02583L6.68901 3.05495L6.67332 3.0604L6.67059 3.05552C6.28014 3.19169 6 3.56313 6 4Z" fill="#1D262C"/>
</svg>
