<svg width="22" height="19" viewBox="0 0 22 19" fill="none" xmlns="http://www.w3.org/2000/svg">
<path fill-rule="evenodd" clip-rule="evenodd" d="M15 17C16.1046 17 17 16.1046 17 15V8C17 6.89543 16.1046 6 15 6H4C2.89543 6 2 6.89543 2 8V15C2 16.1046 2.89543 17 4 17H15ZM15 7H4C3.44772 7 3 7.44772 3 8V15C3 15.5523 3.44772 16 4 16H5V9H6V16H7V10H8V16H9V11H10V16H11V12H12V16H13V13H14V16H15C15.5523 16 16 15.5523 16 15V8C16 7.44772 15.5523 7 15 7Z" fill="#1D262C"/>
<path d="M19 8C18.4477 8 18 8.44771 18 9C18 9.55229 18.4477 10 19 10C19.5523 10 20 9.55229 20 9C20 8.44771 19.5523 8 19 8Z" fill="#1D262C"/>
<path d="M18 12C18 11.4477 18.4477 11 19 11C19.5523 11 20 11.4477 20 12C20 12.5523 19.5523 13 19 13C18.4477 13 18 12.5523 18 12Z" fill="#1D262C"/>
<path d="M19 14C18.4477 14 18 14.4477 18 15C18 15.5523 18.4477 16 19 16C19.5523 16 20 15.5523 20 15C20 14.4477 19.5523 14 19 14Z" fill="#1D262C"/>
<path fill-rule="evenodd" clip-rule="evenodd" d="M4 4V1.5C4 0.671573 4.67157 0 5.5 0H16.5C17.3284 0 18 0.671573 18 1.5V4H20C21.1046 4 22 4.89543 22 6V17C22 18.1046 21.1046 19 20 19H2C0.89543 19 0 18.1046 0 17V6C0 4.89543 0.895431 4 2 4H4ZM5 1.5C5 1.22386 5.22386 1 5.5 1H16.5C16.7761 1 17 1.22386 17 1.5V4H5V1.5ZM2 5C1.44772 5 1 5.44772 1 6V17C1 17.5523 1.44772 18 2 18H20C20.5523 18 21 17.5523 21 17V6C21 5.44771 20.5523 5 20 5H2Z" fill="#1D262C"/>
</svg>
