<svg width="14" height="23" viewBox="0 0 14 23" fill="none" xmlns="http://www.w3.org/2000/svg">
<path fill-rule="evenodd" clip-rule="evenodd" d="M7 10C9.20914 10 11 8.20914 11 6C11 3.79086 9.20914 2 7 2C4.79086 2 3 3.79086 3 6C3 8.20914 4.79086 10 7 10ZM7 9C8.65685 9 10 7.65685 10 6C10 5.19914 9.68619 4.47158 9.17483 3.93356L7.1 6.7L6.3 6.1L8.37521 3.33306C7.96325 3.12021 7.49567 3 7 3C5.34315 3 4 4.34315 4 6C4 7.65685 5.34315 9 7 9ZM8.82426 3.6182C8.807 3.60496 8.7896 3.59191 8.77205 3.57904L8.82426 3.6182Z" fill="#1D262C"/>
<path fill-rule="evenodd" clip-rule="evenodd" d="M3.03541 14.8636C3.60718 12.7297 5.80052 11.4634 7.93439 12.0352C10.0683 12.6069 11.3346 14.8003 10.7628 16.9341C10.191 19.068 7.9977 20.3343 5.86384 19.7626C3.72997 19.1908 2.46364 16.9975 3.03541 14.8636ZM4.00133 15.1224C4.43016 13.522 6.07517 12.5723 7.67557 13.0011C9.27597 13.4299 10.2257 15.0749 9.79689 16.6753C9.36806 18.2757 7.72305 19.2255 6.12265 18.7966C5.64378 18.6683 5.22316 18.4311 4.8803 18.1188L7.6015 15.9828L6.98406 15.1962L4.26342 17.3318C3.90884 16.6798 3.79408 15.8959 4.00133 15.1224ZM4.49681 17.696C4.5255 17.7344 4.55513 17.7722 4.58566 17.8092L4.49681 17.696Z" fill="#1D262C"/>
<path fill-rule="evenodd" clip-rule="evenodd" d="M2 0C0.895431 0 0 0.89543 0 2V20C0 21.1046 0.89543 22 2 22L2 22.5C2 22.7761 2.22386 23 2.5 23H4.5C4.77614 23 5 22.7761 5 22.5V22H9V22.5C9 22.7761 9.22386 23 9.5 23H11.5C11.7761 23 12 22.7761 12 22.5V22C13.1046 22 14 21.1046 14 20V2C14 0.895431 13.1046 0 12 0H2ZM12 1H2C1.44771 1 1 1.44772 1 2V20C1 20.5523 1.44772 21 2 21H12C12.5523 21 13 20.5523 13 20V2C13 1.44772 12.5523 1 12 1Z" fill="#1D262C"/>
</svg>
