<svg width="20" height="24" viewBox="0 0 20 24" fill="none" xmlns="http://www.w3.org/2000/svg">
<path fill-rule="evenodd" clip-rule="evenodd" d="M15 1H17V3C17 3.54531 16.5635 3.98867 16.0209 3.99979H15.9791C15.4365 3.98867 15 3.54531 15 3V1ZM15 4.73243C14.4022 4.38662 14 3.74028 14 3H6C6 3.74028 5.5978 4.38662 5 4.73243V6H6H6.12602C6.57006 7.72523 8.13616 9 10 9C11.8638 9 13.4299 7.72523 13.874 6H14H15V4.73243ZM3 4.73243V6.99963C1.78555 7.91184 1 9.36418 1 11V13C1 14.6358 1.78555 16.0882 3 17.0004V19.2676C2.4022 19.6134 2 20.2597 2 21H0.5C0.223858 21 0 21.2239 0 21.5C0 21.7761 0.223858 22 0.5 22H2V24H6V22H14V24H18V22H19.5C19.7761 22 20 21.7761 20 21.5C20 21.2239 19.7761 21 19.5 21H18C18 20.2597 17.5978 19.6134 17 19.2676V17.0004C18.2144 16.0882 19 14.6358 19 13V11C19 9.36418 18.2144 7.91184 17 6.99963V4.73243C17.5978 4.38662 18 3.74028 18 3H19.5C19.7761 3 20 2.77614 20 2.5C20 2.22386 19.7761 2 19.5 2H18V0H14V2H6V0H2V2H0.5C0.223858 2 0 2.22386 0 2.5C0 2.77614 0.223858 3 0.5 3H2C2 3.74028 2.4022 4.38662 3 4.73243ZM15 19.2676V18H14H13.874C13.4299 16.2748 11.8638 15 10 15C8.13616 15 6.57006 16.2748 6.12602 18H6H5V19.2676C5.5978 19.6134 6 20.2597 6 21H14C14 20.2597 14.4022 19.6134 15 19.2676ZM3 21C3 20.4552 3.43571 20.0121 3.97768 20.0002H4.02232C4.56429 20.0121 5 20.4552 5 21V23H3V21ZM5 7.12601C3.27477 7.57006 2 9.13616 2 11V13C2 14.8638 3.27477 16.4299 5 16.874V7.12601ZM6 15.9999V8.00012C6.91191 9.21432 8.36358 10 10 10C11.6364 10 13.0881 9.21432 14 8.00012V15.9999C13.0881 14.7857 11.6364 14 10 14C8.36358 14 6.91191 14.7857 6 15.9999ZM15 16.874C16.7252 16.4299 18 14.8638 18 13V11C18 9.13616 16.7252 7.57006 15 7.12601V16.874ZM16 20C16.5523 20 17 20.4477 17 21V23H15V21C15 20.4477 15.4477 20 16 20ZM4 4C3.44772 4 3 3.55228 3 3V1H5V3C5 3.55228 4.55228 4 4 4Z" fill="#1D262C"/>
</svg>
