<svg width="22" height="24" viewBox="0 0 22 24" fill="none" xmlns="http://www.w3.org/2000/svg">
<path d="M9.5 6C9.22386 6 9 6.22386 9 6.5V7.5C9 7.77614 9.22386 8 9.5 8H12.5C12.7761 8 13 7.77614 13 7.5V6.5C13 6.22386 12.7761 6 12.5 6H9.5Z" fill="#1D262C"/>
<path fill-rule="evenodd" clip-rule="evenodd" d="M3.5 0C3.22386 0 3 0.223858 3 0.5V1.17071C1.83481 1.58254 1 2.69378 1 4V14C0.447715 14 0 14.4477 0 15V24H1V22H21V24H22V15C22 14.4477 21.5523 14 21 14V4C21 2.69378 20.1652 1.58254 19 1.17071V0.5C19 0.223858 18.7761 0 18.5 0H16.5C16.2239 0 16 0.223858 16 0.5V1.17071C14.8348 1.58254 14 2.69378 14 4L8 4C8 2.69378 7.16519 1.58254 6 1.17071V0.5C6 0.223858 5.77614 0 5.5 0H3.5ZM18 20C19.6569 20 21 18.6569 21 17V21H1V17C1 18.6569 2.34315 20 4 20H5C5.8885 20 6.68679 19.6137 7.23611 19H14.7639C15.3132 19.6137 16.1115 20 17 20H18ZM17 2H18C19.1046 2 20 2.89543 20 4V17C20 18.1046 19.1046 19 18 19H17C15.8954 19 15 18.1046 15 17V4C15 2.89543 15.8954 2 17 2ZM5 2H4C2.89543 2 2 2.89543 2 4V17C2 18.1046 2.89543 19 4 19H5C6.10457 19 7 18.1046 7 17V4C7 2.89543 6.10457 2 5 2ZM14 16V10H13V16H14ZM14 17H8V18H14V17ZM9 16V10H8V16H9ZM10 16V10H12V16H10ZM14 9V5H8V9H14Z" fill="#1D262C"/>
</svg>
