<svg width="14" height="22" viewBox="0 0 14 22" fill="none" xmlns="http://www.w3.org/2000/svg">
<path fill-rule="evenodd" clip-rule="evenodd" d="M4 14C4 12.8176 5.52792 10.267 6.40293 8.90328C6.75402 8.35611 7 8 7 8C7 8 7.24598 8.35611 7.59707 8.90328C8.47208 10.267 10 12.8176 10 14C10 15.6569 8.65685 17 7 17C5.34315 17 4 15.6569 4 14ZM9 14C9 15.1046 8.10457 16 7 16C5.89543 16 5 15.1046 5 14C5 13.8129 5.10613 13.3989 5.38429 12.7657C5.64441 12.1737 5.999 11.5114 6.365 10.8805C6.58268 10.5052 6.80088 10.1471 7 9.82911C7.19912 10.1471 7.41732 10.5052 7.635 10.8805C8.001 11.5114 8.35559 12.1737 8.61571 12.7657C8.89387 13.3989 9 13.8129 9 14Z" fill="#1D262C"/>
<path fill-rule="evenodd" clip-rule="evenodd" d="M2 0.5C2 0.223858 2.22386 0 2.5 0H6.5C6.77614 0 7 0.223858 7 0.5V2H8.17157C8.70201 2 9.21071 2.21071 9.58579 2.58579L14 7V20C14 21.1046 13.1046 22 12 22H2C0.89543 22 0 21.1046 0 20V4C0 2.89543 0.895431 2 2 2V0.5ZM13 20V7.41421L8.87868 3.29289C8.69114 3.10536 8.43679 3 8.17157 3H2C1.44772 3 1 3.44772 1 4V20C1 20.5523 1.44772 21 2 21H12C12.5523 21 13 20.5523 13 20Z" fill="#1D262C"/>
</svg>
