<svg width="24" height="18" viewBox="0 0 24 18" fill="none" xmlns="http://www.w3.org/2000/svg">
<path fill-rule="evenodd" clip-rule="evenodd" d="M13 8.5C13 10.9853 10.9853 13 8.5 13C6.01472 13 4 10.9853 4 8.5C4 6.01472 6.01472 4 8.5 4C10.9853 4 13 6.01472 13 8.5ZM11.6632 10C11.3174 10.7278 10.7278 11.3174 10 11.6632V10H11.6632ZM11.9646 9C11.9879 8.8367 12 8.66976 12 8.5C12 8.33024 11.9879 8.1633 11.9646 8H10V9H11.9646ZM9 9V8H8V9H9ZM8 10V11.9646C8.1633 11.9879 8.33024 12 8.5 12C8.66976 12 8.8367 11.9879 9 11.9646V10H8ZM7 10V11.6632C6.27215 11.3174 5.68258 10.7278 5.33681 10H7ZM7 9V8H5.03544C5.01208 8.1633 5 8.33024 5 8.5C5 8.66976 5.01208 8.8367 5.03544 9H7ZM11.6632 7H10V5.33681C10.7278 5.68258 11.3174 6.27216 11.6632 7ZM9 7V5.03545C8.8367 5.01209 8.66976 5 8.5 5C8.33024 5 8.1633 5.01209 8 5.03545V7H9ZM7 7V5.33681C6.27215 5.68258 5.68258 6.27216 5.33681 7H7Z" fill="#1D262C"/>
<path fill-rule="evenodd" clip-rule="evenodd" d="M2 4C2 2.89543 2.89543 2 4 2H13C14.1046 2 15 2.89543 15 4V13C15 14.1046 14.1046 15 13 15H4C2.89543 15 2 14.1046 2 13V4ZM4 3H13C13.5523 3 14 3.44772 14 4V13C14 13.5523 13.5523 14 13 14H4C3.44772 14 3 13.5523 3 13V4C3 3.44772 3.44772 3 4 3Z" fill="#1D262C"/>
<path fill-rule="evenodd" clip-rule="evenodd" d="M18 2C16.8954 2 16 2.89543 16 4V13C16 14.1046 16.8954 15 18 15H20C21.1046 15 22 14.1046 22 13V4C22 2.89543 21.1046 2 20 2H18ZM20 3H18C17.4477 3 17 3.44772 17 4V13C17 13.5523 17.4477 14 18 14H20C20.5523 14 21 13.5523 21 13V4C21 3.44772 20.5523 3 20 3Z" fill="#1D262C"/>
<path fill-rule="evenodd" clip-rule="evenodd" d="M0 2C0 0.895432 0.895432 0 2 0H22C23.1046 0 24 0.895432 24 2V15C24 16.1046 23.1046 17 22 17H20V17.5C20 17.7761 19.7761 18 19.5 18H17.5C17.2239 18 17 17.7761 17 17.5V17H7V17.5C7 17.7761 6.77614 18 6.5 18H4.5C4.22386 18 4 17.7761 4 17.5V17H2C0.89543 17 0 16.1046 0 15V2ZM2 1H22C22.5523 1 23 1.44772 23 2V15C23 15.5523 22.5523 16 22 16H2C1.44772 16 1 15.5523 1 15V2C1 1.44772 1.44772 1 2 1Z" fill="#1D262C"/>
</svg>
