<svg width="134" height="40" viewBox="0 0 134 40" fill="none" xmlns="http://www.w3.org/2000/svg">
<path d="M9.40351 0H0V9.41177H9.40351V0Z" fill="#BC0000"/>
<path d="M29.386 15.2941C29.386 21.6588 25.507 27.1059 19.9825 29.4118C18.1723 30.1647 16.1858 30.5882 14.1053 30.5882H9.40351V40L0 30.5882V11.7647H9.40351V21.1765H14.1053C17.3495 21.1765 19.9825 18.5412 19.9825 15.2941C19.9825 12.0471 17.3495 9.41177 14.1053 9.41177H11.7544V0H14.1053C17.1379 0 19.9589 0.882353 22.3333 2.41176C26.5767 5.12941 29.386 9.88235 29.386 15.2941Z" fill="#071C28"/>
<path d="M45.2373 21.6305C44.5556 21.3105 43.7222 21.1611 42.7489 21.1611H41.2996H41.1915C40.7154 21.1611 38.79 21.1611 38.79 21.1611V33.3447H41.3114V28.9129H42.7607C43.7234 28.9129 44.5673 28.7635 45.2491 28.4435C45.9308 28.1235 46.461 27.6858 46.8183 27.0976C47.1862 26.5105 47.3696 25.827 47.3696 25.0258C47.3696 24.2352 47.1862 23.5305 46.8183 22.9541C46.4492 22.3882 45.9191 21.94 45.2373 21.6305ZM44.3393 26.3494C43.9502 26.6588 43.4307 26.8082 42.7595 26.8082H41.3102V23.2529H42.7595C43.4307 23.2529 43.9608 23.4023 44.3393 23.7011C44.7284 24 44.9235 24.4376 44.9235 25.0247C44.9235 25.6129 44.7284 26.0505 44.3393 26.3494Z" fill="#071C28"/>
<path d="M54.7253 25.6776C54.0976 25.3365 53.3406 25.1753 52.4532 25.1753C51.6421 25.1753 50.938 25.3141 50.3221 25.5918C49.705 25.8588 49.2184 26.2541 48.861 26.7553C48.4931 27.2576 48.2557 27.8341 48.1358 28.4953C48.1146 28.6235 48.1029 28.7624 48.0817 28.9118C48.0605 29.0506 48.0605 29.1894 48.0605 29.3494C48.0605 30.1506 48.2333 30.8765 48.5801 31.5059C48.9374 32.1353 49.4241 32.6376 50.0835 33.0012C50.7429 33.3647 51.5222 33.5459 52.4202 33.5459C53.1772 33.5459 53.8049 33.4494 54.335 33.2682C54.8652 33.0871 55.2977 32.82 55.6656 32.4776C56.0336 32.1247 56.3368 31.7412 56.6072 31.2812L54.616 30.6729C54.4749 30.8976 54.3021 31.1106 54.0858 31.2812C53.8696 31.4518 53.631 31.5906 53.3606 31.6871C53.0902 31.7835 52.7764 31.8259 52.4297 31.8259C52.0182 31.8259 51.6727 31.7506 51.3483 31.58C51.0344 31.4094 50.7852 31.1424 50.6018 30.7788C50.4831 30.5329 50.4185 30.2235 50.375 29.8929H56.6177C56.6389 29.7647 56.6507 29.6576 56.6507 29.54C56.6507 29.4329 56.6507 29.3482 56.6507 29.2835C56.6507 28.44 56.4884 27.7035 56.1534 27.1059C55.829 26.4671 55.353 25.9976 54.7253 25.6776ZM50.3973 28.4529C50.4408 28.1965 50.5055 27.9506 50.6136 27.7482C50.7864 27.4176 51.0462 27.1718 51.3388 27.0118C51.6315 26.8518 51.9877 26.7659 52.3662 26.7659C52.7447 26.7659 53.0585 26.8294 53.2971 26.9682C53.5463 27.0965 53.7403 27.3094 53.8813 27.5553C54.0224 27.8012 54.1188 28.1106 54.1622 28.4624H50.3973V28.4529Z" fill="#071C28"/>
<path d="M62.3102 25.1543C61.4662 25.1543 60.6869 25.3249 60.0051 25.6778C59.3234 26.0308 58.7827 26.5002 58.3936 27.1402C57.9928 27.7696 57.7988 28.4966 57.7988 29.3402C57.7988 30.1625 58.0045 30.899 58.3936 31.5296C58.7827 32.159 59.3245 32.6508 60.0051 33.0025C60.6857 33.3543 61.4544 33.5261 62.3102 33.5261C62.9049 33.5261 63.4351 33.4508 63.8794 33.3119C64.3343 33.1731 64.6904 32.959 64.9831 32.7143V30.3978C64.8421 30.6543 64.6481 30.8778 64.3778 31.0708C64.118 31.2625 63.8147 31.4237 63.4903 31.5296C63.1659 31.6366 62.8191 31.6896 62.4736 31.6896C62.0304 31.6896 61.6507 31.5931 61.2828 31.3908C60.9149 31.199 60.634 30.9214 60.4283 30.579C60.2226 30.2261 60.1144 29.8319 60.1144 29.3508C60.1144 28.9025 60.2226 28.5072 60.4283 28.1543C60.6446 27.8014 60.9255 27.5355 61.2828 27.3319C61.6507 27.1296 62.0292 27.0225 62.4736 27.0225C62.798 27.0225 63.133 27.0649 63.4586 27.1719C63.7724 27.279 64.0863 27.4178 64.3566 27.6202C64.627 27.8119 64.8432 28.0472 64.9843 28.2931V25.9766C64.7034 25.7308 64.3354 25.5284 63.8806 25.3896C63.4351 25.2284 62.9049 25.1543 62.3102 25.1543Z" fill="#071C28"/>
<path d="M70.3058 30.3225L68.2829 25.3354H65.751L69.1151 32.5425L67.071 37.1766H69.4078L74.6878 25.346H72.3076L70.3058 30.3225Z" fill="#071C28"/>
<path d="M82.6066 25.6024C82.0119 25.2718 81.3736 25.1118 80.6919 25.1118C79.9995 25.1118 79.393 25.2824 78.8852 25.6353C78.4961 25.9024 78.1823 26.2871 77.9331 26.7353V25.3365H75.6504V37.1765H77.9331V31.9659C78.1929 32.4142 78.4961 32.7989 78.8852 33.0765C79.3942 33.4295 79.9995 33.6001 80.6919 33.6001C81.3736 33.6001 82.0119 33.4401 82.6066 33.1095C83.1908 32.7789 83.6775 32.3083 84.0348 31.6577C84.4027 31.0165 84.5755 30.2483 84.5861 29.3624C84.5861 28.433 84.4027 27.6648 84.0348 27.0342C83.6786 26.4036 83.2026 25.9224 82.6066 25.6024ZM81.9261 30.5777C81.7309 30.9189 81.45 31.1648 81.1256 31.3353C80.8012 31.5059 80.4227 31.5918 80.0219 31.5918C79.6869 31.5918 79.3507 31.5059 79.0368 31.3459C78.723 31.1765 78.4526 30.9201 78.2469 30.5883C78.0412 30.2471 77.9437 29.8412 77.9437 29.3495C77.9437 28.8577 78.0412 28.4424 78.2469 28.1106C78.4526 27.7695 78.723 27.513 79.0368 27.353C79.3507 27.193 79.6857 27.1071 80.0219 27.1071C80.4227 27.1071 80.7788 27.193 81.1256 27.3636C81.4606 27.5342 81.7309 27.7906 81.9261 28.1212C82.1212 28.4624 82.2187 28.8789 82.2187 29.3601C82.2281 29.8412 82.12 30.2471 81.9261 30.5777Z" fill="#071C28"/>
<path d="M89.1862 27.3108C89.5541 27.1084 89.9326 27.0014 90.3757 27.0014C90.7002 27.0014 91.0352 27.0437 91.3608 27.1508C91.6746 27.2578 91.9884 27.3966 92.2588 27.599C92.5292 27.7908 92.7454 28.0261 92.8865 28.2719V25.9555C92.6056 25.7096 92.2376 25.5072 91.7827 25.3684C91.3278 25.2296 90.8095 25.1543 90.2135 25.1543C89.3696 25.1543 88.5902 25.3249 87.9085 25.6778C87.2267 26.0308 86.686 26.5002 86.2852 27.1296C85.8844 27.759 85.6904 28.4861 85.6904 29.3296C85.6904 30.1519 85.8961 30.8884 86.2852 31.519C86.6743 32.1484 87.2162 32.6402 87.8967 32.9919C88.5785 33.3449 89.3461 33.5155 90.2018 33.5155C90.7965 33.5155 91.3267 33.4402 91.771 33.3014C92.2259 33.1625 92.582 32.9484 92.8747 32.7037V30.3872C92.7337 30.6437 92.5397 30.8672 92.2694 31.0602C92.0096 31.2519 91.7063 31.4131 91.3819 31.519C91.0575 31.6249 90.7107 31.679 90.3652 31.679C89.922 31.679 89.5424 31.5825 89.1744 31.3802C88.8065 31.1884 88.5256 30.9108 88.3199 30.5684C88.1142 30.2155 88.0061 29.8214 88.0061 29.3402C88.0061 28.8919 88.1142 28.4966 88.3199 28.1437C88.5479 27.7919 88.8183 27.5143 89.1862 27.3108Z" fill="#071C28"/>
<path d="M41.1587 2.46938H38.7891V14.7917L47.3474 7.07174V14.2047H49.7171V1.88232L41.1587 9.61291V2.46938Z" fill="#071C28"/>
<path d="M58.1123 9.29276H54.3157V6.49512H52.1729V14.2045H54.3157V10.9904H58.1123V14.2045H60.2552V6.49512H58.1123V9.29276Z" fill="#071C28"/>
<path d="M66.238 6.32471C65.4152 6.32471 64.6476 6.4953 63.987 6.82706C63.317 7.15765 62.7975 7.62706 62.4084 8.2353C62.0193 8.84353 61.8242 9.54824 61.8242 10.3494C61.8242 11.1506 62.0299 11.8447 62.4084 12.4529C62.7869 13.0612 63.317 13.5318 63.9882 13.8729C64.6594 14.2035 65.4058 14.3753 66.2392 14.3753C66.8234 14.3753 67.3323 14.3 67.7755 14.1612C68.2186 14.0224 68.5654 13.8306 68.8463 13.5847V11.3541C68.7052 11.6106 68.5113 11.8129 68.2621 11.9953C68.0023 12.1871 67.7108 12.3259 67.397 12.4329C67.0725 12.54 66.7375 12.5929 66.4014 12.5929C65.9688 12.5929 65.6009 12.4965 65.2436 12.3047C64.8862 12.1129 64.6053 11.8565 64.4102 11.5141C64.1939 11.1835 64.0963 10.7882 64.0858 10.34C64.0858 9.91294 64.1939 9.51765 64.3996 9.18706C64.6159 8.85647 64.8862 8.58941 65.233 8.38588C65.5903 8.18353 65.9582 8.09765 66.3908 8.09765C66.7152 8.09765 67.0396 8.14 67.3535 8.24706C67.6673 8.35412 67.9706 8.49294 68.2304 8.67412C68.5007 8.86588 68.7064 9.08 68.8475 9.32588V7.09294C68.5665 6.84706 68.2092 6.66588 67.7766 6.52706C67.3311 6.39882 66.8116 6.32471 66.238 6.32471Z" fill="#071C28"/>
<path d="M85.2901 6.74138C84.7059 6.43197 84.0888 6.27197 83.4188 6.27197C82.7477 6.27197 82.1529 6.44256 81.6557 6.77433C81.2666 7.04138 80.9739 7.40374 80.7247 7.83197V6.48491H78.4961V17.8884H80.7247V12.8696C80.9739 13.3073 81.276 13.6708 81.6557 13.9379C82.1529 14.2684 82.7371 14.4402 83.4188 14.4402C84.09 14.4402 84.7059 14.2802 85.2901 13.9708C85.8638 13.6614 86.3292 13.1908 86.6854 12.572C87.0427 11.9531 87.2261 11.2049 87.2261 10.3614C87.2261 9.4755 87.0427 8.72727 86.6854 8.11903C86.3398 7.52021 85.8743 7.06138 85.2901 6.74138ZM84.6307 11.5461C84.4356 11.8661 84.1652 12.112 83.8514 12.2826C83.527 12.4531 83.1696 12.539 82.7806 12.539C82.4456 12.539 82.1212 12.4531 81.8179 12.2931C81.504 12.1226 81.2443 11.8873 81.0492 11.5567C80.8435 11.2367 80.7459 10.8308 80.7459 10.3602C80.7459 9.8908 80.8435 9.4955 81.0492 9.16374C81.2549 8.84374 81.5146 8.58727 81.8179 8.42727C82.1317 8.26727 82.4562 8.18138 82.7806 8.18138C83.1696 8.18138 83.5164 8.26727 83.8514 8.43786C84.1864 8.60962 84.4462 8.84491 84.6307 9.1755C84.8141 9.50609 84.9234 9.91197 84.9234 10.372C84.9222 10.8308 84.8247 11.2261 84.6307 11.5461Z" fill="#071C28"/>
<path d="M93.8385 6.50571L91.8803 11.2892L89.8997 6.49512H87.4336L90.7119 13.4351L88.7207 17.8986H91.0034L96.1542 6.50571H93.8385Z" fill="#071C28"/>
<path d="M101.531 11.4282L98.4251 5.9082L96.1318 14.2047H98.0466L99.0646 10.4894L101.531 14.7388L104.052 10.4776L105.069 14.2047H106.973L104.69 5.9082L101.531 11.4282Z" fill="#071C28"/>
<path d="M114.147 6.8257C113.53 6.5057 112.794 6.3457 111.929 6.3457C111.139 6.3457 110.447 6.48453 109.852 6.741C109.246 7.00806 108.781 7.38217 108.424 7.86217C108.066 8.34217 107.829 8.89747 107.721 9.53864C107.7 9.66688 107.688 9.8057 107.667 9.93394C107.646 10.0728 107.646 10.2116 107.646 10.3504C107.646 11.1304 107.818 11.8128 108.154 12.4222C108.501 13.0304 108.977 13.5116 109.626 13.8528C110.275 14.1939 111.033 14.3763 111.909 14.3763C112.645 14.3763 113.262 14.2798 113.78 14.0986C114.3 13.9175 114.722 13.6716 115.079 13.3304C115.436 12.9998 115.738 12.6151 115.998 12.1775L114.049 11.5881C113.908 11.8128 113.735 12.0045 113.53 12.1751C113.313 12.3457 113.087 12.4633 112.827 12.5598C112.556 12.6563 112.253 12.6986 111.918 12.6986C111.517 12.6986 111.182 12.6233 110.869 12.4528C110.555 12.2822 110.317 12.0363 110.143 11.6728C110.025 11.4375 109.96 11.1386 109.916 10.8186H116.008C116.029 10.6904 116.04 10.5833 116.04 10.4881C116.04 10.381 116.04 10.2963 116.04 10.2316C116.04 9.40923 115.878 8.71512 115.554 8.13864C115.218 7.59511 114.752 7.14688 114.147 6.8257ZM109.927 9.49511C109.971 9.24923 110.025 9.01511 110.143 8.81158C110.316 8.50217 110.565 8.25629 110.846 8.09629C111.139 7.93629 111.484 7.85041 111.852 7.85041C112.22 7.85041 112.524 7.91394 112.761 8.05276C113.01 8.181 113.194 8.37276 113.335 8.61864C113.476 8.86453 113.572 9.15276 113.616 9.48335H109.927V9.49511Z" fill="#071C28"/>
<path d="M123.667 9.29276H119.869V6.49512H117.716V14.2045H119.869V10.9904H123.667V14.2045H125.809V6.49512H123.667V9.29276Z" fill="#071C28"/>
<path d="M134 6.48486H127.433V8.31075H129.64V14.3225H131.792V8.31075H134V6.48486Z" fill="#071C28"/>
<path d="M70.2959 8.31075H72.514V14.3225H74.6556V8.31075H76.8737V6.48486H70.2959V8.31075Z" fill="#071C28"/>
</svg>
