<svg width="26" height="26" viewBox="0 0 26 26" fill="none" xmlns="http://www.w3.org/2000/svg">
<path  d="M11.5 2.21054C11.5 1.81812 11.8181 1.5 12.2105 1.5H13.7895C14.1819 1.5 14.5 1.81812 14.5 2.21054C14.5 3.03398 15.0797 3.69645 15.8106 3.9225C16.3285 4.08267 16.8276 4.28598 17.3035 4.52827C17.9877 4.87655 18.8664 4.81138 19.4503 4.22746C19.7377 3.94015 20.2035 3.94015 20.4908 4.22746L21.6055 5.34219C21.8741 5.61081 21.8741 6.04633 21.6055 6.31494C21.0245 6.89598 20.972 7.77476 21.3388 8.44472C21.642 8.99849 21.8915 9.58566 22.0806 10.1993C22.3064 10.9323 22.9726 11.5126 23.7983 11.5075C24.1875 11.505 24.5051 11.8186 24.5075 12.2079L24.5172 13.773C24.5197 14.1762 24.1949 14.5051 23.7917 14.5076C22.9639 14.5127 22.3001 15.0964 22.0713 15.8307C21.8915 16.4073 21.6583 16.9604 21.3773 17.4841C21.0315 18.1287 21.0886 18.9676 21.6442 19.5232C21.8914 19.7704 21.8914 20.1711 21.6442 20.4182L20.4179 21.6445C20.1708 21.8917 19.77 21.8917 19.5229 21.6445C18.9672 21.0888 18.1284 21.0318 17.4838 21.3775C16.954 21.6617 16.3943 21.897 15.8106 22.0775C15.0797 22.3036 14.5 22.966 14.5 23.7895C14.5 24.1819 14.1819 24.5 13.7895 24.5H12.2105C11.8181 24.5 11.5 24.1819 11.5 23.7895C11.5 22.966 10.9203 22.3036 10.1894 22.0775C9.57938 21.8889 8.99556 21.6404 8.44479 21.3388C7.77478 20.972 6.89595 21.0245 6.31488 21.6056C6.04622 21.8742 5.61063 21.8742 5.34197 21.6056L4.22739 20.491C3.94005 20.2036 3.94005 19.7378 4.22739 19.4504C4.81135 18.8665 4.87652 17.9877 4.52823 17.3035C4.30507 16.8651 4.11498 16.4071 3.96121 15.9328C3.72581 15.2068 3.05993 14.6359 2.23866 14.641C1.84293 14.6435 1.52014 14.3247 1.51769 13.9289L1.50783 12.3371C1.50546 11.9551 1.81315 11.6436 2.19508 11.6412C3.01431 11.6362 3.66839 11.0523 3.88261 10.3218C4.05622 9.72977 4.28597 9.16167 4.56575 8.62362C4.93469 7.9141 4.87413 6.99575 4.26511 6.38673C3.95684 6.07847 3.95684 5.57867 4.26511 5.2704L5.27015 4.26536C5.57839 3.95712 6.07814 3.95712 6.38637 4.26536C6.9954 4.87438 7.91375 4.93492 8.62325 4.56594C9.12117 4.307 9.64484 4.0909 10.1894 3.9225C10.9203 3.69644 11.5 3.03397 11.5 2.21054ZM13 18.5C16.0376 18.5 18.5 16.0376 18.5 13C18.5 9.96243 16.0376 7.5 13 7.5C9.96243 7.5 7.5 9.96243 7.5 13C7.5 16.0376 9.96243 18.5 13 18.5Z" stroke="#1D262C" fill="transparent"/>
<circle cx="13" cy="13" r="7.5" stroke="#1D262C"  fill="transparent"/>
</svg>
