<svg width="24" height="24" viewBox="0 0 24 24" fill="none" xmlns="http://www.w3.org/2000/svg">
<path d="M11.9982 2C15.0342 2 17.5023 4.36591 17.5023 7.27338C17.5023 10.1808 15.0329 12.5419 11.9982 12.5419C8.96359 12.5419 6.49673 10.1772 6.49673 7.27094C6.49673 4.36347 8.96359 1.99875 11.9982 2ZM11.9982 5.14938C10.7784 5.14938 9.78642 6.10095 9.78642 7.27094C9.78642 8.43967 10.7784 9.39005 11.9982 9.39005C13.2194 9.39005 14.2126 8.43967 14.2126 7.27094C14.2126 6.10095 13.2194 5.14938 11.9982 5.14938ZM7.81924 12.5858C8.02017 12.6171 8.21691 12.6876 8.40022 12.7982C10.5881 14.1182 13.4108 14.1182 15.6014 12.7982C16.3333 12.3557 17.2991 12.5669 17.7597 13.2694C18.2189 13.9719 18.0011 14.9009 17.2679 15.3421C16.3011 15.9234 15.2497 16.3351 14.1616 16.5726L17.1532 19.4388C17.7651 20.0238 17.7651 20.9741 17.1532 21.5603C16.5413 22.1466 15.5507 22.1466 14.9388 21.5603L12.0008 18.7454L9.06274 21.5603C8.75615 21.8541 8.35482 21.9998 7.95429 21.9998C7.55376 21.9998 7.15498 21.8541 6.84838 21.5603C6.23649 20.9753 6.23525 20.0226 6.84583 19.4363L9.83739 16.5726C8.74799 16.3351 7.69792 15.9209 6.73117 15.3397C5.99925 14.8984 5.78007 13.9719 6.24192 13.2694C6.58733 12.7425 7.21642 12.4918 7.81924 12.5858Z" fill="#D3D3D3"/>
</svg>
