<svg width="25" height="20" viewBox="0 0 25 20" fill="none" xmlns="http://www.w3.org/2000/svg">
<path d="M16 12.4C16 12.0686 16.2686 11.8 16.6 11.8H17.2C17.5314 11.8 17.8 12.0686 17.8 12.4C17.8 12.7314 17.5314 13 17.2 13H16.6C16.2686 13 16 12.7314 16 12.4Z" />
<path fill-rule="evenodd" clip-rule="evenodd" d="M6.5456 4.02718C5.70692 4.26473 5.15972 5.06344 5.20232 5.90621C5.12841 5.92987 5.05516 5.95933 4.98282 5.99619C4.64413 6.16876 4.36876 6.44413 4.19619 6.78282C4.08051 7.00985 4.03772 7.24578 4.01834 7.48298C3.99998 7.70772 3.99999 7.98056 4 8.29683V16.5031C3.99999 16.8194 3.99998 17.0923 4.01834 17.317C4.03772 17.5542 4.08051 17.7902 4.19619 18.0172C4.36876 18.3559 4.64413 18.6312 4.98282 18.8038C5.20985 18.9195 5.44578 18.9623 5.68298 18.9817C5.90772 19 6.18058 19 6.49686 19H16C16.3314 19 16.6 18.7314 16.6 18.4C16.6 18.0686 16.3314 17.8 16 17.8H6.52C6.17407 17.8 5.9507 17.7995 5.7807 17.7856C5.6177 17.7723 5.55727 17.7497 5.52761 17.7346C5.41471 17.6771 5.32292 17.5853 5.2654 17.4724C5.25028 17.4427 5.22767 17.3823 5.21436 17.2193C5.20047 17.0493 5.2 16.8259 5.2 16.48V8.32C5.2 7.97407 5.20047 7.7507 5.21436 7.5807C5.22767 7.4177 5.25028 7.35727 5.2654 7.32761C5.32292 7.21471 5.41471 7.12292 5.52761 7.0654C5.55727 7.05028 5.6177 7.02767 5.7807 7.01436C5.9507 7.00047 6.17407 7 6.52 7H18.28C18.6259 7 18.8493 7.00047 19.0193 7.01436C19.1823 7.02767 19.2427 7.05028 19.2724 7.0654C19.3853 7.12292 19.4771 7.21471 19.5346 7.32761C19.5497 7.35727 19.5723 7.4177 19.5856 7.5807C19.5995 7.7507 19.6 7.97407 19.6 8.32V10H16.6C15.2745 10 14.2 11.0745 14.2 12.4C14.2 13.7255 15.2745 14.8 16.6 14.8H19.6V16.48C19.6 16.8259 19.5995 17.0493 19.5856 17.2193C19.5723 17.3823 19.5497 17.4427 19.5346 17.4724C19.4771 17.5853 19.3853 17.6771 19.2724 17.7346C19.2427 17.7497 19.1823 17.7723 19.0193 17.7856C18.8493 17.7995 18.6259 17.8 18.28 17.8H18.25C17.9186 17.8 17.65 18.0686 17.65 18.4C17.65 18.7314 17.9186 19 18.25 19H18.3031C18.6194 19 18.8923 19 19.117 18.9817C19.3542 18.9623 19.5901 18.9195 19.8172 18.8038C20.1559 18.6312 20.4312 18.3559 20.6038 18.0172C20.7195 17.7902 20.7623 17.5542 20.7816 17.317C20.8 17.0923 20.8 16.8194 20.8 16.5031V14.6952C20.8705 14.6713 20.9433 14.6414 21.0172 14.6038C21.3559 14.4313 21.6312 14.1559 21.8038 13.8172C21.9371 13.5557 21.9736 13.3061 21.9878 13.1318C22.0001 12.9814 22 12.8107 22 12.6678V12.1322C22 11.9893 22.0001 11.8186 21.9878 11.6682C21.9736 11.494 21.9371 11.2444 21.8038 10.9828C21.6312 10.6441 21.3559 10.3688 21.0172 10.1962C20.9433 10.1586 20.8705 10.1287 20.8 10.1048V8.29686C20.8 7.98058 20.8 7.70772 20.7816 7.48298C20.7623 7.24578 20.7195 7.00985 20.6038 6.78282C20.493 6.56546 20.34 6.37418 20.155 6.21941L19.1671 2.32239C18.9229 1.35875 17.9494 0.797192 16.993 1.0681L6.5456 4.02718ZM6.39208 5.80002C6.38578 5.52531 6.56645 5.268 6.84045 5.19039L17.2878 2.23131C17.6067 2.14101 17.9311 2.3282 18.0125 2.64941L18.1913 3.35464L9.55768 5.8L6.39208 5.80002ZM18.3031 5.8H13.9594L18.4862 4.51785L18.8121 5.80365C18.6579 5.79999 18.4879 5.79999 18.3031 5.8ZM15.4 12.4C15.4 11.7373 15.9372 11.2 16.6 11.2H19.84C20.176 11.2 20.344 11.2 20.4724 11.2654C20.5853 11.3229 20.6771 11.4147 20.7346 11.5276C20.8 11.656 20.8 11.824 20.8 12.16V12.64C20.8 12.976 20.8 13.1441 20.7346 13.2724C20.6771 13.3853 20.5853 13.4771 20.4724 13.5346C20.344 13.6 20.176 13.6 19.84 13.6H16.6C15.9372 13.6 15.4 13.0628 15.4 12.4Z" />
</svg>
