<svg width="31" height="30" viewBox="0 0 31 30" xmlns="http://www.w3.org/2000/svg">
<path d="M20.5 19C20.5 18.4477 20.9477 18 21.5 18H22.5C23.0523 18 23.5 18.4477 23.5 19C23.5 19.5523 23.0523 20 22.5 20H21.5C20.9477 20 20.5 19.5523 20.5 19Z"/>
<path fill-rule="evenodd" clip-rule="evenodd" d="M4.74266 5.04531C3.34487 5.44122 2.43287 6.77239 2.50387 8.17701C2.38069 8.21645 2.25861 8.26555 2.13803 8.32698C1.57355 8.6146 1.1146 9.07354 0.826984 9.63803C0.63419 10.0164 0.562874 10.4096 0.530573 10.805C0.499971 11.1795 0.499985 11.6343 0.500001 12.1614V25.8385C0.499985 26.3657 0.499971 26.8205 0.530573 27.195C0.562874 27.5904 0.63419 27.9836 0.826984 28.362C1.1146 28.9265 1.57355 29.3854 2.13803 29.673C2.51641 29.8658 2.90963 29.9371 3.30498 29.9694C3.67954 30 4.1343 30 4.66144 30H20.5C21.0523 30 21.5 29.5523 21.5 29C21.5 28.4477 21.0523 28 20.5 28H4.7C4.12345 28 3.75118 27.9992 3.46784 27.9761C3.19618 27.9539 3.09546 27.9162 3.04601 27.891C2.85785 27.7951 2.70487 27.6422 2.609 27.454C2.5838 27.4045 2.54613 27.3038 2.52393 27.0322C2.50078 26.7488 2.5 26.3766 2.5 25.8V12.2C2.5 11.6234 2.50078 11.2512 2.52393 10.9678C2.54613 10.6962 2.5838 10.5955 2.609 10.546C2.70487 10.3578 2.85785 10.2049 3.04601 10.109C3.09546 10.0838 3.19618 10.0461 3.46784 10.0239C3.75118 10.0008 4.12345 10 4.7 10H24.3C24.8766 10 25.2488 10.0008 25.5322 10.0239C25.8038 10.0461 25.9045 10.0838 25.954 10.109C26.1422 10.2049 26.2951 10.3578 26.391 10.546C26.4162 10.5955 26.4539 10.6962 26.4761 10.9678C26.4992 11.2512 26.5 11.6234 26.5 12.2V15H21.5C19.2909 15 17.5 16.7909 17.5 19C17.5 21.2092 19.2909 23 21.5 23H26.5V25.8C26.5 26.3766 26.4992 26.7488 26.4761 27.0322C26.4539 27.3038 26.4162 27.4045 26.391 27.454C26.2951 27.6422 26.1422 27.7951 25.954 27.891C25.9045 27.9162 25.8038 27.9539 25.5322 27.9761C25.2488 27.9992 24.8766 28 24.3 28H24.25C23.6977 28 23.25 28.4477 23.25 29C23.25 29.5523 23.6977 30 24.25 30H24.3386C24.8657 30 25.3205 30 25.695 29.9694C26.0904 29.9371 26.4836 29.8658 26.862 29.673C27.4265 29.3854 27.8854 28.9265 28.173 28.362C28.3658 27.9836 28.4371 27.5904 28.4694 27.195C28.5 26.8205 28.5 26.3657 28.5 25.8386V22.8254C28.6175 22.7856 28.7389 22.7357 28.862 22.673C29.4265 22.3854 29.8854 21.9265 30.173 21.362C30.3951 20.9261 30.456 20.5101 30.4797 20.2197C30.5002 19.969 30.5001 19.6845 30.5 19.4463V18.5537C30.5001 18.3155 30.5002 18.031 30.4797 17.7804C30.456 17.4899 30.3951 17.0739 30.173 16.6381C29.8854 16.0736 29.4265 15.6146 28.862 15.327C28.7389 15.2643 28.6175 15.2145 28.5 15.1747V12.1614C28.5 11.6343 28.5 11.1795 28.4694 10.805C28.4371 10.4096 28.3658 10.0164 28.173 9.63803C27.9884 9.27576 27.7333 8.95696 27.425 8.69902L25.7786 2.20398C25.3714 0.597923 23.7491 -0.338013 22.155 0.113507L4.74266 5.04531ZM4.48681 8.00004C4.4763 7.54219 4.77741 7.11334 5.2341 6.98399L22.6464 2.05219C23.1778 1.90168 23.7186 2.21366 23.8543 2.74902L24.1522 3.9244L9.76281 8L4.48681 8.00004ZM24.3385 8H17.099L24.6436 5.86308L25.1869 8.00608C24.9298 7.99998 24.6465 7.99999 24.3385 8ZM19.5 19C19.5 17.8955 20.3954 17 21.5 17H26.9C27.4601 17 27.7401 17 27.954 17.109C28.1422 17.2049 28.2951 17.3579 28.391 17.546C28.5 17.7599 28.5 18.04 28.5 18.6V19.4C28.5 19.9601 28.5 20.2401 28.391 20.454C28.2951 20.6422 28.1422 20.7952 27.954 20.891C27.7401 21 27.4601 21 26.9 21H21.5C20.3954 21 19.5 20.1046 19.5 19Z"/>
</svg>
