<svg viewBox="0 0 32 31" xmlns="http://www.w3.org/2000/svg">
<path d="M13.0643 4.4048L13.0677 4.40453L13.0643 4.4048ZM13.0643 4.4048L13.0604 4.40511L13.0643 4.4048ZM10.1303 21.8444L10.5986 21.1077L10.4312 21.1912L11.291 19.325C11.9777 17.8346 12.999 15.4111 13.5655 13.9277L14.2463 12.1452L14.2958 12.3009L14.6766 11.0184L14.6821 11.004L14.6814 11.0021L14.9832 9.98594L15.3883 8.62153C15.624 7.82783 15.9718 6.18004 16.1693 4.94349L15.4364 4.82647L16.1733 4.91498C16.2474 4.29814 16.3047 3.64794 16.2876 3.06064C16.2866 3.02447 16.2852 2.98802 16.2836 2.95135C16.4215 3.48727 16.4896 4.168 16.466 4.9947C16.4314 6.20735 16.2016 7.6725 15.7661 9.33369L15.2121 11.4468L15.1226 11.283L14.6004 12.9493L14.6004 12.9494L14.6003 12.9495L14.6 12.9504L14.5989 12.9541L14.5941 12.9693L14.5751 13.0293C14.5584 13.0818 14.5338 13.1585 14.5029 13.2541C14.4409 13.4454 14.3533 13.7123 14.2509 14.0139C14.0442 14.6223 13.7835 15.3526 13.5536 15.8907L13.5535 15.8906L13.5489 15.902L12.0541 19.5673L11.6329 20.3753L10.9868 21.6147C10.9182 21.7149 10.8344 21.8381 10.7419 21.9751C10.4989 22.3351 10.1917 22.7976 9.94682 23.1913C9.08191 24.5814 8.14793 25.8466 7.25679 26.8632C6.35586 27.8909 5.53416 28.6235 4.89999 28.9922C4.752 29.0782 4.60447 29.1555 4.45828 29.2243C4.99637 28.8039 5.64145 28.1327 6.27444 27.39C7.07362 26.4524 7.92128 25.3194 8.61752 24.2241L8.20355 23.961L8.61752 24.2241L9.16525 23.3625L9.84196 22.2979L9.94462 22.2473L10.0547 22.0085L10.1303 21.8444ZM30.3097 22.0206C30.0627 22.1734 29.7277 22.2957 29.3117 22.369C29.9018 21.8866 30.1733 21.1868 30.1014 20.4936C30.0634 20.1272 29.9315 19.7766 29.7178 19.4704C30.1118 19.6651 30.3717 19.8866 30.5399 20.1085C30.7528 20.3893 30.8563 20.7191 30.8563 21.1108C30.8563 21.493 30.6875 21.787 30.3097 22.0206Z"/>
</svg>
