<svg width="35" height="13" viewBox="0 0 35 13" fill="none" xmlns="http://www.w3.org/2000/svg">
<path d="M1.152 12.096C0.832 12.096 0.56 11.9893 0.336 11.776C0.112 11.552 0 11.28 0 10.96C0 10.6293 0.106667 10.3573 0.32 10.144C0.544 9.92 0.821333 9.808 1.152 9.808C1.48267 9.808 1.75467 9.92 1.968 10.144C2.192 10.3573 2.304 10.6293 2.304 10.96C2.304 11.28 2.192 11.552 1.968 11.776C1.75467 11.9893 1.48267 12.096 1.152 12.096Z" fill="#FFC100"/>
<path d="M4.73625 0.176001H7.32825C8.78958 0.176001 9.85625 0.490667 10.5283 1.12C11.2109 1.73867 11.5522 2.592 11.5522 3.68C11.5522 4.93867 11.1843 5.904 10.4483 6.576C9.71225 7.248 8.61892 7.584 7.16825 7.584H6.54425V11.936H4.73625V0.176001ZM7.21625 6C8.15492 6 8.81092 5.792 9.18425 5.376C9.55758 4.96 9.74425 4.45867 9.74425 3.872C9.74425 3.24267 9.56292 2.73067 9.20025 2.336C8.83758 1.94133 8.22958 1.744 7.37625 1.744H6.54425V6H7.21625Z" fill="#FFC100"/>
<path d="M14.9646 4.32L15.0126 5.6V11.936H13.2206V0.16H13.4446L20.3566 7.872L20.2926 6.528V0.176001H22.0846V11.936H21.8446L14.9646 4.32Z" fill="#FFC100"/>
<path d="M30.068 12.096C28.9053 12.096 27.8653 11.8293 26.948 11.296C26.0307 10.7627 25.3107 10.032 24.788 9.104C24.276 8.16533 24.02 7.11467 24.02 5.952C24.02 4.82133 24.2813 3.80267 24.804 2.896C25.3267 1.98933 26.052 1.28 26.98 0.768001C27.908 0.256 28.9533 0 30.116 0C30.7453 0 31.3107 0.0586669 31.812 0.176001C32.324 0.282667 32.74 0.410667 33.06 0.56C33.38 0.698667 33.5987 0.821334 33.716 0.928L33.012 2.432C32.3507 1.89867 31.3747 1.632 30.084 1.632C29.2307 1.632 28.4893 1.81867 27.86 2.192C27.2307 2.56533 26.7507 3.072 26.42 3.712C26.0893 4.352 25.924 5.06667 25.924 5.856C25.924 6.752 26.1 7.552 26.452 8.256C26.8147 8.96 27.3107 9.50933 27.94 9.904C28.58 10.288 29.3 10.48 30.1 10.48C30.6013 10.48 31.0813 10.4213 31.54 10.304C31.9987 10.176 32.388 9.97867 32.708 9.712V7.44H30.292V5.792H34.484V10.4C34.1 10.88 33.5187 11.2853 32.74 11.616C31.972 11.936 31.0813 12.096 30.068 12.096Z" fill="#FFC100"/>
</svg>
