<svg width="18" height="18" viewBox="0 0 18 18" fill="none" xmlns="http://www.w3.org/2000/svg">
<path fill-rule="evenodd" clip-rule="evenodd" d="M11.6667 2C11.1144 2 10.6667 1.55228 10.6667 1C10.6667 0.447715 11.1144 0 11.6667 0H17C17.5523 0 18 0.447715 18 1V6.33333C18 6.88562 17.5523 7.33333 17 7.33333C16.4477 7.33333 16 6.88562 16 6.33333V3.41421L7.92933 11.4849C7.53881 11.8754 6.90564 11.8754 6.51512 11.4849C6.12459 11.0944 6.12459 10.4612 6.51512 10.0707L14.5858 2H11.6667ZM2.77778 4.66667C2.5715 4.66667 2.37367 4.74861 2.22781 4.89447C2.08194 5.04033 2 5.23816 2 5.44444V15.2222C2 15.4285 2.08194 15.6263 2.22781 15.7722C2.37367 15.9181 2.5715 16 2.77778 16H12.5556C12.7618 16 12.9597 15.9181 13.1055 15.7722C13.2514 15.6263 13.3333 15.4285 13.3333 15.2222V9.88889C13.3333 9.3366 13.781 8.88889 14.3333 8.88889C14.8856 8.88889 15.3333 9.3366 15.3333 9.88889V15.2222C15.3333 15.9589 15.0407 16.6655 14.5197 17.1864C13.9988 17.7073 13.2923 18 12.5556 18H2.77778C2.04106 18 1.33453 17.7073 0.813592 17.1864C0.292658 16.6655 0 15.9589 0 15.2222V5.44444C0 4.70773 0.292658 4.00119 0.813592 3.48026C1.33453 2.95932 2.04107 2.66667 2.77778 2.66667H8.11111C8.66339 2.66667 9.11111 3.11438 9.11111 3.66667C9.11111 4.21895 8.66339 4.66667 8.11111 4.66667H2.77778Z"/>
</svg>
