<svg width="22" height="12" viewBox="0 0 22 12" fill="none" xmlns="http://www.w3.org/2000/svg">
<path d="M20.9951 11.9501L18.0593 11.9891C18.0593 11.9891 17.426 12.1076 16.5978 11.5616C15.4992 10.8416 14.4636 8.96806 13.6558 9.21107C12.837 9.46007 12.8621 11.1461 12.8621 11.1461C12.8621 11.1461 12.8684 11.4431 12.6814 11.6366C12.4786 11.8451 12.081 11.8241 12.081 11.8241H10.7656C10.7656 11.8241 7.86447 12.0536 5.3075 9.50957C2.52266 6.736 0.0615554 1.26235 0.0615554 1.26235C0.0615554 1.26235 -0.083031 0.917337 0.0709843 0.740332C0.24543 0.545326 0.715334 0.539326 0.715334 0.539326L3.8585 0.524327C3.8585 0.524327 4.15396 0.573826 4.3677 0.72383C4.54214 0.846834 4.64115 1.07784 4.64115 1.07784C4.64115 1.07784 5.14877 2.30637 5.82298 3.4194C7.13683 5.58846 7.7466 6.06398 8.19293 5.83147C8.84357 5.49246 8.64869 2.76539 8.64869 2.76539C8.64869 2.76539 8.66126 1.77536 8.3218 1.33435C8.05777 0.990839 7.56115 0.888836 7.34428 0.863335C7.16669 0.840834 7.45586 0.447823 7.83304 0.270819C8.39881 0.00681127 9.39834 -0.00818898 10.5786 0.00231131C11.498 0.0113116 11.7636 0.0653131 12.1219 0.149315C13.2063 0.399822 12.8385 1.36585 12.8385 3.68341C12.8385 4.42593 12.6987 5.46996 13.2581 5.81347C13.5002 5.96198 14.0895 5.83597 15.5589 3.44491C16.2583 2.31087 16.7816 0.978838 16.7816 0.978838C16.7816 0.978838 16.8964 0.741832 17.074 0.639829C17.2563 0.534826 17.5014 0.567827 17.5014 0.567827L20.8096 0.548326C20.8096 0.548326 21.8029 0.434323 21.9647 0.864835C22.1345 1.31485 21.5938 2.36638 20.2423 4.08692C18.0232 6.913 17.7765 6.65049 19.6199 8.28554C21.3801 9.84708 21.7431 10.6061 21.8044 10.7021C22.5321 11.8586 20.9951 11.9501 20.9951 11.9501Z"/>
</svg>