<?xml version="1.0" encoding="utf-8"?><svg viewBox="0 0 42 30" xmlns="http://www.w3.org/2000/svg" xmlns:xlink="http://www.w3.org/1999/xlink"><style>:root>svg{display:none}:root>svg:target{display:block}</style><svg viewBox="0 0 5 8" id="circle-info-icon" xmlns="http://www.w3.org/2000/svg"><path d="M1.395 5.497V5.16c0-.388.07-.711.21-.969.139-.257.383-.523.731-.798.415-.332.681-.59.8-.773.122-.183.183-.402.183-.656 0-.296-.098-.524-.293-.683-.195-.158-.475-.238-.841-.238a2.86 2.86 0 00-.92.143c-.282.095-.558.21-.826.344L0 .598A4.557 4.557 0 012.274 0c.682 0 1.224.17 1.625.508.4.339.601.806.601 1.402 0 .265-.038.5-.115.71-.077.204-.193.4-.35.586-.153.187-.42.43-.8.73-.324.258-.542.471-.653.64-.108.17-.162.398-.162.683v.238H1.395zm-.214 1.688c0-.532.256-.799.768-.799.251 0 .443.07.575.212.133.137.199.333.199.587 0 .25-.068.45-.204.598-.132.145-.322.217-.57.217-.247 0-.437-.07-.57-.212-.132-.144-.198-.345-.198-.603z"/></svg><svg viewBox="0 0 42 23" id="delivery" xmlns="http://www.w3.org/2000/svg"><path clip-rule="evenodd" d="M12.068 0c-.252 0-.498 0-.706.017a2.022 2.022 0 00-.77.201 2 2 0 00-.874.874 2.022 2.022 0 00-.201.77c-.017.208-.017.454-.017.706V4h-1a1 1 0 000 2h15a1 1 0 100-2h-12V2.6c0-.297 0-.459.01-.575l.002-.014h.013C11.64 2 11.803 2 12.1 2h16.8c.297 0 .459 0 .575.01l.013.001.002.014c.01.116.01.278.01.575V18h-6.126a4.002 4.002 0 00-7.748 0H12.1c-.296 0-.459 0-.575-.01l-.014-.002v-.013a8.207 8.207 0 01-.011-.575V16a1 1 0 10-2 0v1.432c0 .252 0 .498.017.706.019.229.063.499.201.77a2 2 0 00.874.874c.271.138.541.182.77.201.208.017.454.017.706.017h3.558a4.002 4.002 0 007.748 0h8.252a4.002 4.002 0 007.749-.004c.092-.002.18-.006.263-.013a2.02 2.02 0 00.77-.201 2 2 0 00.874-.874c.138-.272.182-.541.201-.77.017-.208.017-.454.017-.706v-5.691l-3.002-5.404-.035-.063c-.127-.231-.287-.522-.53-.745a2 2 0 00-.727-.428c-.313-.103-.645-.102-.909-.101h-4.229c-.198 0-.393 0-.568.008v-2.44c0-.252 0-.498-.017-.706a2.022 2.022 0 00-.201-.77 2 2 0 00-.874-.874 2.022 2.022 0 00-.77-.201C29.43 0 29.184 0 28.932 0H12.068zm27.305 17.995l.102-.005.014-.002v-.013c.01-.116.011-.279.011-.575V13h-8v5h.126a4.002 4.002 0 017.747-.005zM17.5 19v-.002a2 2 0 110 .002zm14-11.429V11h7.3l-2.05-3.692a6.58 6.58 0 00-.172-.298l-.003-.005h-.005A6.641 6.641 0 0036.225 7H32.1c-.297 0-.459 0-.575.01l-.013.001-.002.014c-.009.112-.01.268-.01.546zM37.5 19a2 2 0 11-4 0 2 2 0 014 0z"/><path d="M.5 13a1 1 0 011-1h6a1 1 0 110 2h-6a1 1 0 01-1-1zM4.5 9a1 1 0 011-1h12a1 1 0 110 2h-12a1 1 0 01-1-1z"/></svg><svg fill="none" viewBox="0 0 24 24" id="facebook-footer" xmlns="http://www.w3.org/2000/svg"><path d="M10.594 12v10h3.595V12h3.266l.513-3.333h-3.78V7.242c0-1.278.451-1.909 1.74-1.909H18V2.146l-.022-.003C17.605 2.096 16.838 2 15.412 2c-3.037 0-4.818 1.488-4.818 4.877v1.79H7V12h3.594z" fill="#D3D3D3"/></svg><svg fill="none" viewBox="0 0 24 24" id="instagram-footer" xmlns="http://www.w3.org/2000/svg"><path d="M7.832 2A5.84 5.84 0 002 7.835v8.333A5.84 5.84 0 007.835 22h8.333A5.84 5.84 0 0022 16.165V7.832A5.84 5.84 0 0016.165 2H7.832zm10.001 3.333a.834.834 0 110 1.668.834.834 0 010-1.668zM12 7c2.758 0 5 2.242 5 5s-2.242 5-5 5-5-2.242-5-5 2.242-5 5-5zm0 1.667a3.333 3.333 0 100 6.666 3.333 3.333 0 000-6.666z" fill="#D3D3D3"/></svg><svg viewBox="0 0 24 24" id="main-cart" xmlns="http://www.w3.org/2000/svg"><path d="M5.125 3.008A7.655 7.655 0 004.622 3h-2.62A1.001 1.001 0 011 2c0-.552.449-1 1.003-1H4.65c.222 0 .44 0 .628.014.207.016.45.053.699.167.35.16.646.416.854.739.148.23.219.463.264.666.04.183.072.399.103.618l1.42 9.907c.071.502.118.823.172 1.067.051.23.095.317.123.362.104.162.253.29.428.37.048.022.14.052.377.07.249.02.574.02 1.083.02h7.349c.528 0 .867 0 1.127-.02.246-.02.34-.053.39-.076.179-.084.33-.22.431-.389.028-.046.07-.137.114-.38.045-.25.078-.576.13-1.08L20.948 7h-9.922a1.001 1.001 0 01-1.002-1c0-.552.448-1 1.002-1h10.169c.13 0 .285 0 .42.011.153.013.378.047.61.173.296.162.53.42.662.73.103.243.114.47.112.623-.002.135-.018.287-.03.417l-.632 6.3c-.048.478-.09.893-.151 1.235-.066.362-.165.718-.369 1.056a3.005 3.005 0 01-1.294 1.167c-.357.17-.723.232-1.09.261-.347.027-.765.027-1.247.027h-7.42c-.464 0-.866 0-1.201-.026-.356-.027-.71-.087-1.058-.245a3.005 3.005 0 01-1.281-1.109c-.207-.321-.317-.662-.394-1.01-.073-.326-.13-.724-.195-1.181l-1.42-9.914a7.606 7.606 0 00-.08-.496l-.002-.01h-.01zM12.03 21c0 1.105-.898 2-2.005 2a2.003 2.003 0 01-2.006-2c0-1.105.898-2 2.005-2 1.108 0 2.006.895 2.006 2zM19.049 23a2.003 2.003 0 002.006-2c0-1.105-.898-2-2.006-2a2.003 2.003 0 00-2.005 2c0 1.105.898 2 2.005 2z"/></svg><svg viewBox="0 0 22 20" id="main-heart" xmlns="http://www.w3.org/2000/svg"><path fill-rule="evenodd" clip-rule="evenodd" d="M10.183 1.523a6.096 6.096 0 00-8.379.313c-2.405 2.44-2.405 6.396 0 8.836L10.998 20l8.71-8.837.488-.496c2.405-2.44 2.405-6.397 0-8.837a6.095 6.095 0 00-8.71 0l-.489.496-.483-.49a6.285 6.285 0 00-.33-.313zm6.718 9.64l-.001-.001 1.872-1.9c1.637-1.66 1.637-4.366 0-6.028a4.097 4.097 0 00-5.862 0l-1.913 1.94L9.09 3.24a4.097 4.097 0 00-5.862 0c-1.637 1.661-1.637 4.367 0 6.028l7.77 7.883 5.903-5.988z"/></svg><svg viewBox="0 0 24 24" id="main-user" xmlns="http://www.w3.org/2000/svg"><path fill-rule="evenodd" clip-rule="evenodd" d="M15 6a3 3 0 11-6 0 3 3 0 016 0zm2 0A5 5 0 117 6a5 5 0 0110 0zM4 19a5 5 0 015-5h6a5 5 0 015 5v3a1 1 0 102 0v-3a7 7 0 00-7-7H9a7 7 0 00-7 7v2a2 2 0 002 2h13a1 1 0 100-2H4v-2z"/></svg><svg fill="none" viewBox="0 0 24 24" id="ok-footer" xmlns="http://www.w3.org/2000/svg"><path d="M11.998 2c3.036 0 5.504 2.366 5.504 5.273 0 2.908-2.47 5.269-5.504 5.269-3.034 0-5.501-2.365-5.501-5.271 0-2.908 2.467-5.272 5.501-5.271zm0 3.15c-1.22 0-2.212.95-2.212 2.12 0 1.17.992 2.12 2.212 2.12 1.221 0 2.215-.95 2.215-2.12 0-1.169-.994-2.12-2.215-2.12zM7.82 12.585c.201.031.398.102.581.212 2.188 1.32 5.01 1.32 7.201 0 .732-.442 1.698-.231 2.159.471.459.703.241 1.632-.492 2.073-.967.581-2.018.993-3.106 1.23l2.991 2.867a1.455 1.455 0 010 2.121 1.614 1.614 0 01-2.214 0L12 18.745 9.063 21.56c-.307.294-.708.44-1.109.44-.4 0-.799-.146-1.106-.44a1.46 1.46 0 01-.002-2.124l2.991-2.863a10.276 10.276 0 01-3.106-1.233c-.732-.442-.95-1.368-.49-2.07a1.592 1.592 0 011.578-.684z" fill="#D3D3D3"/></svg><svg viewBox="0 0 31 30" id="payment" xmlns="http://www.w3.org/2000/svg"><path d="M20.5 19a1 1 0 011-1h1a1 1 0 110 2h-1a1 1 0 01-1-1z"/><path fill-rule="evenodd" clip-rule="evenodd" d="M4.743 5.045a3.107 3.107 0 00-2.24 3.132c-.122.04-.244.089-.365.15A3 3 0 00.827 9.638c-.193.378-.264.772-.296 1.167C.5 11.18.5 11.635.5 12.161V25.84c0 .527 0 .982.03 1.356.033.395.104.789.297 1.167a3 3 0 001.311 1.311c.378.193.772.264 1.167.296.375.031.83.031 1.356.031H20.5a1 1 0 100-2H4.7c-.577 0-.949 0-1.232-.024-.272-.022-.373-.06-.422-.085a1 1 0 01-.437-.437c-.025-.05-.063-.15-.085-.422C2.5 26.75 2.5 26.377 2.5 25.8V12.2c0-.577 0-.949.024-1.232.022-.272.06-.373.085-.422a1 1 0 01.437-.437c.05-.025.15-.063.422-.085C3.75 10 4.123 10 4.7 10h19.6c.577 0 .949 0 1.232.024.272.022.372.06.422.085a1 1 0 01.437.437c.025.05.063.15.085.422.023.283.024.655.024 1.232V15h-5a4 4 0 000 8h5v2.8c0 .577 0 .949-.024 1.232-.022.272-.06.372-.085.422a1 1 0 01-.437.437c-.05.025-.15.063-.422.085C25.25 28 24.877 28 24.3 28h-.05a1 1 0 100 2h.089c.527 0 .982 0 1.356-.03.395-.033.789-.104 1.167-.297a3 3 0 001.311-1.311c.193-.378.264-.772.296-1.167.031-.375.031-.83.031-1.356v-3.014c.117-.04.239-.09.362-.152a3 3 0 001.311-1.311c.222-.436.283-.852.307-1.142.02-.251.02-.535.02-.774v-.892c0-.238 0-.523-.02-.774a3.014 3.014 0 00-.307-1.142 3 3 0 00-1.311-1.311 2.717 2.717 0 00-.362-.152V12.16c0-.527 0-.981-.03-1.356-.033-.395-.104-.789-.297-1.167a3 3 0 00-.748-.939l-1.646-6.495a2.901 2.901 0 00-3.624-2.09L4.743 5.045zM4.487 8c-.01-.458.29-.887.747-1.016l17.412-4.932a.967.967 0 011.208.697l.298 1.175L9.762 8H4.488zm19.851 0H17.1l7.545-2.137.543 2.143C24.93 8 24.647 8 24.338 8zM19.5 19a2 2 0 012-2h5.4c.56 0 .84 0 1.054.109a1 1 0 01.437.437c.109.214.109.494.109 1.054v.8c0 .56 0 .84-.109 1.054a1 1 0 01-.437.437C27.74 21 27.46 21 26.9 21h-5.4a2 2 0 01-2-2z"/></svg><svg viewBox="0 0 28 28" id="services" xmlns="http://www.w3.org/2000/svg"><path clip-rule="evenodd" d="M13.214 2a1 1 0 00-1 1v.086c.002.297.003.66-.103.976-.12.357-.303.631-.587.878-.168.145-.352.24-.497.308-.143.067-.322.14-.517.221l-.02.008-.056.024-.018.008c-.184.077-.351.147-.491.198a2.13 2.13 0 01-.533.133 1.912 1.912 0 01-1.118-.22c-.277-.145-.517-.386-.713-.584l-.058-.058a1 1 0 00-1.414 0L4.978 6.09a1 1 0 000 1.414l.058.057c.198.197.439.436.584.714.189.36.258.713.22 1.117-.02.207-.08.392-.133.533-.051.14-.122.308-.199.491l-.008.019-.023.055-.008.02c-.08.195-.154.374-.221.517-.068.145-.163.33-.308.497-.247.284-.521.468-.878.587-.317.106-.679.105-.976.103H3a1 1 0 00-1 1v1.572a1 1 0 001 1h.086c.297-.002.66-.003.976.103.357.12.631.303.878.587.145.168.24.352.308.497.067.143.14.322.221.517l.008.02.014.032.008.02c.081.195.156.373.21.523.054.151.118.35.133.57a1.91 1.91 0 01-.204 1.034c-.15.3-.407.556-.618.765l-.062.061a1 1 0 000 1.415l1.112 1.11a1 1 0 001.414 0l.06-.06c.21-.212.466-.47.765-.618.337-.168.66-.232 1.035-.205.221.016.42.08.57.134.15.054.328.128.523.21l.02.008.033.014.02.008c.195.08.374.154.517.221.145.068.33.163.497.308.284.247.468.521.587.878.106.317.105.679.103.976V25a1 1 0 001 1h1.572a1 1 0 001-1v-.086c-.002-.296-.003-.658.103-.974.119-.357.302-.63.586-.877.168-.146.355-.242.5-.31.146-.07.328-.145.528-.228l.04-.016c.206-.085.393-.163.55-.219.157-.056.365-.121.597-.134.353-.019.656.041.975.194.199.096.355.221.478.33.114.103.242.23.375.364l.016.016a1 1 0 001.415 0l1.11-1.111a1 1 0 000-1.414l-.015-.016c-.134-.134-.262-.261-.364-.376a2.048 2.048 0 01-.33-.478 1.906 1.906 0 01-.194-.974c.013-.232.078-.44.134-.598.056-.157.134-.344.219-.55l.016-.04c.083-.2.159-.382.227-.528a2.14 2.14 0 01.31-.5c.247-.284.521-.467.878-.586.316-.106.678-.105.974-.103H25a1 1 0 001-1v-1.572a1 1 0 00-1-1h-.086c-.297.002-.66.003-.976-.103a1.908 1.908 0 01-.878-.587 2.125 2.125 0 01-.308-.497c-.067-.143-.14-.322-.221-.517l-.008-.02-.015-.034-.008-.02a12.39 12.39 0 01-.21-.522 2.123 2.123 0 01-.133-.568 1.91 1.91 0 01.205-1.038c.15-.299.406-.554.617-.763l.061-.06a1 1 0 000-1.415L21.93 4.96a1 1 0 00-1.414 0l-.061.061c-.21.211-.465.468-.764.617a1.91 1.91 0 01-1.036.205 2.125 2.125 0 01-.57-.133c-.148-.054-.327-.128-.521-.21l-.02-.008-.033-.014-.02-.008c-.195-.08-.374-.154-.517-.221a2.124 2.124 0 01-.497-.308 1.908 1.908 0 01-.587-.878c-.106-.317-.105-.679-.103-.976V3a1 1 0 00-1-1h-1.572zm-3 1a3 3 0 013-3h1.572a3 3 0 013 3 8.581 8.581 0 00.006.422l.031.016c.095.044.227.1.45.19l.04.017a11.675 11.675 0 00.485.194l.01-.01c.063-.056.145-.137.293-.284a3 3 0 014.242 0l1.111 1.11a3 3 0 010 4.244 8.62 8.62 0 00-.294.302l.012.033c.035.098.09.231.182.452l.018.042a11.611 11.611 0 00.206.48l.014.001c.084.005.2.005.408.005a3 3 0 013 3v1.572a3 3 0 01-3 3 8.543 8.543 0 00-.421.005l-.017.035c-.046.098-.103.236-.197.462a11.739 11.739 0 00-.203.511l.01.012c.06.067.147.154.302.31a3 3 0 010 4.242l-1.111 1.111a3 3 0 01-4.243 0 8.851 8.851 0 00-.321-.312l-.035.012a11.85 11.85 0 00-.476.19 12.352 12.352 0 00-.497.215v.014c-.005.084-.005.2-.005.407a3 3 0 01-3 3h-1.572a3 3 0 01-3-3 8.583 8.583 0 00-.006-.422 11.607 11.607 0 00-.48-.206l-.041-.017a11.693 11.693 0 00-.453-.183l-.033-.012-.01.01a8.616 8.616 0 00-.293.285 3 3 0 01-4.243 0l-1.11-1.111a3 3 0 010-4.243 8.615 8.615 0 00.294-.303 11.638 11.638 0 00-.195-.486l-.016-.04a11.602 11.602 0 00-.206-.48l-.014-.001A8.581 8.581 0 003 17.786a3 3 0 01-3-3v-1.572a3 3 0 013-3 8.581 8.581 0 00.422-.006l.016-.031c.044-.095.1-.227.19-.45l.029-.067a11.778 11.778 0 00.185-.457 3 3 0 01-.278-4.528l1.111-1.11a3 3 0 014.243 0 8.629 8.629 0 00.285.277l.031-.011c.093-.034.218-.087.426-.174l.068-.029a11.609 11.609 0 00.48-.206l.001-.014c.005-.084.005-.2.005-.408zM14 9a5 5 0 100 10 5 5 0 000-10zm-7 5a7 7 0 1114 0 7 7 0 01-14 0z"/></svg><svg fill="none" viewBox="0 0 24 24" id="twitter-footer" xmlns="http://www.w3.org/2000/svg"><path d="M22 5.894a8.292 8.292 0 01-2.357.636 4.058 4.058 0 001.804-2.235 8.306 8.306 0 01-2.606.981A4.127 4.127 0 0015.846 4c-2.266 0-4.103 1.81-4.103 4.04 0 .316.037.625.107.92a11.71 11.71 0 01-8.458-4.222 3.982 3.982 0 00-.554 2.032c0 1.401.723 2.638 1.824 3.362a4.144 4.144 0 01-1.858-.506v.051c0 1.958 1.414 3.59 3.291 3.96a4.17 4.17 0 01-1.853.07 4.1 4.1 0 003.833 2.806 8.312 8.312 0 01-5.096 1.73c-.33 0-.657-.02-.979-.057A11.75 11.75 0 008.29 20c7.547 0 11.673-6.155 11.673-11.493 0-.175-.004-.349-.011-.522A8.28 8.28 0 0022 5.894z" fill="#D3D3D3"/></svg><svg fill="none" viewBox="0 0 24 24" id="vk-footer" xmlns="http://www.w3.org/2000/svg"><path d="M21.995 17.95l-2.936.04s-.633.118-1.461-.428c-1.099-.72-2.134-2.594-2.942-2.35-.819.248-.794 1.934-.794 1.934s.006.297-.18.49c-.203.21-.601.188-.601.188h-1.315s-2.902.23-5.458-2.314c-2.785-2.774-5.246-8.248-5.246-8.248s-.145-.345.009-.522c.174-.195.644-.2.644-.2l3.144-.016s.295.05.509.2c.174.123.273.354.273.354s.508 1.228 1.182 2.341c1.314 2.17 1.924 2.645 2.37 2.412.65-.338.456-3.066.456-3.066s.012-.99-.327-1.43c-.264-.344-.76-.446-.978-.472-.177-.022.112-.415.489-.592.566-.264 1.565-.28 2.746-.269.919.01 1.185.063 1.543.147 1.084.25.716 1.217.716 3.534 0 .743-.14 1.787.42 2.13.242.149.832.023 2.3-2.368.7-1.134 1.224-2.466 1.224-2.466s.114-.237.292-.34c.182-.104.427-.071.427-.071l3.309-.02s.993-.114 1.155.317c.17.45-.371 1.501-1.723 3.222-2.219 2.826-2.466 2.563-.622 4.199 1.76 1.561 2.123 2.32 2.184 2.416.728 1.157-.809 1.248-.809 1.248z" fill="#fff"/></svg><svg viewBox="0 0 24 24" id="youtube-footer" xmlns="http://www.w3.org/2000/svg"><path d="M21.582 6.186a2.506 2.506 0 00-1.768-1.768C18.254 4 12 4 12 4s-6.254 0-7.814.418c-.86.23-1.538.908-1.768 1.768C2 7.746 2 12 2 12s0 4.254.418 5.814c.23.86.908 1.538 1.768 1.768C5.746 20 12 20 12 20s6.254 0 7.814-.418a2.504 2.504 0 001.768-1.768C22 16.254 22 12 22 12s0-4.254-.418-5.814zM10 15.464V8.536L16 12l-6 3.464z"/></svg></svg>