<?xml version="1.0" encoding="utf-8"?><svg viewBox="0 0 26 24" xmlns="http://www.w3.org/2000/svg" xmlns:xlink="http://www.w3.org/1999/xlink"><style>:root>svg{display:none}:root>svg:target{display:block}</style><svg viewBox="0 0 26 22" id="calculator-reload" xmlns="http://www.w3.org/2000/svg"><path d="M15.44 2.353a8.644 8.644 0 00-4.388-.132 8.755 8.755 0 00-3.91 2.047 9.015 9.015 0 00-2.46 3.726 1 1 0 01-1.888-.656A11.015 11.015 0 015.8 2.785 10.755 10.755 0 0110.603.272a10.643 10.643 0 015.402.163A10.782 10.782 0 0120.64 3.22L24 6.436V2.109a1 1 0 112 0v6.668a1 1 0 01-1 1h-6.546a1 1 0 010-2h4.055l-3.262-3.123a8.783 8.783 0 00-3.807-2.3zM0 13.223a1 1 0 011-1h6.545a1 1 0 110 2H3.491l3.262 3.123a8.782 8.782 0 003.807 2.3 8.643 8.643 0 004.388.133 8.755 8.755 0 003.91-2.046 9.015 9.015 0 002.46-3.727 1 1 0 011.888.656 11.015 11.015 0 01-3.006 4.553 10.755 10.755 0 01-4.803 2.513 10.642 10.642 0 01-5.402-.163A10.781 10.781 0 015.36 18.78L2 15.564v4.327a1 1 0 11-2 0v-6.668z"/></svg><svg viewBox="0 0 5 8" id="circle-info-icon" xmlns="http://www.w3.org/2000/svg"><path d="M1.395 5.497V5.16c0-.388.07-.711.21-.969.139-.257.383-.523.731-.798.415-.332.681-.59.8-.773.122-.183.183-.402.183-.656 0-.296-.098-.524-.293-.683-.195-.158-.475-.238-.841-.238a2.86 2.86 0 00-.92.143c-.282.095-.558.21-.826.344L0 .598A4.557 4.557 0 012.274 0c.682 0 1.224.17 1.625.508.4.339.601.806.601 1.402 0 .265-.038.5-.115.71-.077.204-.193.4-.35.586-.153.187-.42.43-.8.73-.324.258-.542.471-.653.64-.108.17-.162.398-.162.683v.238H1.395zm-.214 1.688c0-.532.256-.799.768-.799.251 0 .443.07.575.212.133.137.199.333.199.587 0 .25-.068.45-.204.598-.132.145-.322.217-.57.217-.247 0-.437-.07-.57-.212-.132-.144-.198-.345-.198-.603z"/></svg><svg fill="none" viewBox="0 0 24 24" id="facebook-footer" xmlns="http://www.w3.org/2000/svg"><path d="M10.594 12v10h3.595V12h3.266l.513-3.333h-3.78V7.242c0-1.278.451-1.909 1.74-1.909H18V2.146l-.022-.003C17.605 2.096 16.838 2 15.412 2c-3.037 0-4.818 1.488-4.818 4.877v1.79H7V12h3.594z" fill="#D3D3D3"/></svg><svg fill="none" viewBox="0 0 24 24" id="instagram-footer" xmlns="http://www.w3.org/2000/svg"><path d="M7.832 2A5.84 5.84 0 002 7.835v8.333A5.84 5.84 0 007.835 22h8.333A5.84 5.84 0 0022 16.165V7.832A5.84 5.84 0 0016.165 2H7.832zm10.001 3.333a.834.834 0 110 1.668.834.834 0 010-1.668zM12 7c2.758 0 5 2.242 5 5s-2.242 5-5 5-5-2.242-5-5 2.242-5 5-5zm0 1.667a3.333 3.333 0 100 6.666 3.333 3.333 0 000-6.666z" fill="#D3D3D3"/></svg><svg viewBox="0 0 24 24" id="main-cart" xmlns="http://www.w3.org/2000/svg"><path d="M5.125 3.008A7.655 7.655 0 004.622 3h-2.62A1.001 1.001 0 011 2c0-.552.449-1 1.003-1H4.65c.222 0 .44 0 .628.014.207.016.45.053.699.167.35.16.646.416.854.739.148.23.219.463.264.666.04.183.072.399.103.618l1.42 9.907c.071.502.118.823.172 1.067.051.23.095.317.123.362.104.162.253.29.428.37.048.022.14.052.377.07.249.02.574.02 1.083.02h7.349c.528 0 .867 0 1.127-.02.246-.02.34-.053.39-.076.179-.084.33-.22.431-.389.028-.046.07-.137.114-.38.045-.25.078-.576.13-1.08L20.948 7h-9.922a1.001 1.001 0 01-1.002-1c0-.552.448-1 1.002-1h10.169c.13 0 .285 0 .42.011.153.013.378.047.61.173.296.162.53.42.662.73.103.243.114.47.112.623-.002.135-.018.287-.03.417l-.632 6.3c-.048.478-.09.893-.151 1.235-.066.362-.165.718-.369 1.056a3.005 3.005 0 01-1.294 1.167c-.357.17-.723.232-1.09.261-.347.027-.765.027-1.247.027h-7.42c-.464 0-.866 0-1.201-.026-.356-.027-.71-.087-1.058-.245a3.005 3.005 0 01-1.281-1.109c-.207-.321-.317-.662-.394-1.01-.073-.326-.13-.724-.195-1.181l-1.42-9.914a7.606 7.606 0 00-.08-.496l-.002-.01h-.01zM12.03 21c0 1.105-.898 2-2.005 2a2.003 2.003 0 01-2.006-2c0-1.105.898-2 2.005-2 1.108 0 2.006.895 2.006 2zM19.049 23a2.003 2.003 0 002.006-2c0-1.105-.898-2-2.006-2a2.003 2.003 0 00-2.005 2c0 1.105.898 2 2.005 2z"/></svg><svg viewBox="0 0 22 20" id="main-heart" xmlns="http://www.w3.org/2000/svg"><path fill-rule="evenodd" clip-rule="evenodd" d="M10.183 1.523a6.096 6.096 0 00-8.379.313c-2.405 2.44-2.405 6.396 0 8.836L10.998 20l8.71-8.837.488-.496c2.405-2.44 2.405-6.397 0-8.837a6.095 6.095 0 00-8.71 0l-.489.496-.483-.49a6.285 6.285 0 00-.33-.313zm6.718 9.64l-.001-.001 1.872-1.9c1.637-1.66 1.637-4.366 0-6.028a4.097 4.097 0 00-5.862 0l-1.913 1.94L9.09 3.24a4.097 4.097 0 00-5.862 0c-1.637 1.661-1.637 4.367 0 6.028l7.77 7.883 5.903-5.988z"/></svg><svg viewBox="0 0 24 24" id="main-user" xmlns="http://www.w3.org/2000/svg"><path fill-rule="evenodd" clip-rule="evenodd" d="M15 6a3 3 0 11-6 0 3 3 0 016 0zm2 0A5 5 0 117 6a5 5 0 0110 0zM4 19a5 5 0 015-5h6a5 5 0 015 5v3a1 1 0 102 0v-3a7 7 0 00-7-7H9a7 7 0 00-7 7v2a2 2 0 002 2h13a1 1 0 100-2H4v-2z"/></svg><svg fill="none" viewBox="0 0 24 24" id="ok-footer" xmlns="http://www.w3.org/2000/svg"><path d="M11.998 2c3.036 0 5.504 2.366 5.504 5.273 0 2.908-2.47 5.269-5.504 5.269-3.034 0-5.501-2.365-5.501-5.271 0-2.908 2.467-5.272 5.501-5.271zm0 3.15c-1.22 0-2.212.95-2.212 2.12 0 1.17.992 2.12 2.212 2.12 1.221 0 2.215-.95 2.215-2.12 0-1.169-.994-2.12-2.215-2.12zM7.82 12.585c.201.031.398.102.581.212 2.188 1.32 5.01 1.32 7.201 0 .732-.442 1.698-.231 2.159.471.459.703.241 1.632-.492 2.073-.967.581-2.018.993-3.106 1.23l2.991 2.867a1.455 1.455 0 010 2.121 1.614 1.614 0 01-2.214 0L12 18.745 9.063 21.56c-.307.294-.708.44-1.109.44-.4 0-.799-.146-1.106-.44a1.46 1.46 0 01-.002-2.124l2.991-2.863a10.276 10.276 0 01-3.106-1.233c-.732-.442-.95-1.368-.49-2.07a1.592 1.592 0 011.578-.684z" fill="#D3D3D3"/></svg><svg fill="none" viewBox="0 0 24 24" id="twitter-footer" xmlns="http://www.w3.org/2000/svg"><path d="M22 5.894a8.292 8.292 0 01-2.357.636 4.058 4.058 0 001.804-2.235 8.306 8.306 0 01-2.606.981A4.127 4.127 0 0015.846 4c-2.266 0-4.103 1.81-4.103 4.04 0 .316.037.625.107.92a11.71 11.71 0 01-8.458-4.222 3.982 3.982 0 00-.554 2.032c0 1.401.723 2.638 1.824 3.362a4.144 4.144 0 01-1.858-.506v.051c0 1.958 1.414 3.59 3.291 3.96a4.17 4.17 0 01-1.853.07 4.1 4.1 0 003.833 2.806 8.312 8.312 0 01-5.096 1.73c-.33 0-.657-.02-.979-.057A11.75 11.75 0 008.29 20c7.547 0 11.673-6.155 11.673-11.493 0-.175-.004-.349-.011-.522A8.28 8.28 0 0022 5.894z" fill="#D3D3D3"/></svg><svg fill="none" viewBox="0 0 24 24" id="vk-footer" xmlns="http://www.w3.org/2000/svg"><path d="M21.995 17.95l-2.936.04s-.633.118-1.461-.428c-1.099-.72-2.134-2.594-2.942-2.35-.819.248-.794 1.934-.794 1.934s.006.297-.18.49c-.203.21-.601.188-.601.188h-1.315s-2.902.23-5.458-2.314c-2.785-2.774-5.246-8.248-5.246-8.248s-.145-.345.009-.522c.174-.195.644-.2.644-.2l3.144-.016s.295.05.509.2c.174.123.273.354.273.354s.508 1.228 1.182 2.341c1.314 2.17 1.924 2.645 2.37 2.412.65-.338.456-3.066.456-3.066s.012-.99-.327-1.43c-.264-.344-.76-.446-.978-.472-.177-.022.112-.415.489-.592.566-.264 1.565-.28 2.746-.269.919.01 1.185.063 1.543.147 1.084.25.716 1.217.716 3.534 0 .743-.14 1.787.42 2.13.242.149.832.023 2.3-2.368.7-1.134 1.224-2.466 1.224-2.466s.114-.237.292-.34c.182-.104.427-.071.427-.071l3.309-.02s.993-.114 1.155.317c.17.45-.371 1.501-1.723 3.222-2.219 2.826-2.466 2.563-.622 4.199 1.76 1.561 2.123 2.32 2.184 2.416.728 1.157-.809 1.248-.809 1.248z" fill="#fff"/></svg><svg viewBox="0 0 24 24" id="youtube-footer" xmlns="http://www.w3.org/2000/svg"><path d="M21.582 6.186a2.506 2.506 0 00-1.768-1.768C18.254 4 12 4 12 4s-6.254 0-7.814.418c-.86.23-1.538.908-1.768 1.768C2 7.746 2 12 2 12s0 4.254.418 5.814c.23.86.908 1.538 1.768 1.768C5.746 20 12 20 12 20s6.254 0 7.814-.418a2.504 2.504 0 001.768-1.768C22 16.254 22 12 22 12s0-4.254-.418-5.814zM10 15.464V8.536L16 12l-6 3.464z"/></svg></svg>