<svg width="24" height="24" viewBox="0 0 24 24" fill="none" xmlns="http://www.w3.org/2000/svg">
<path d="M22 5.89389C21.2639 6.21572 20.4731 6.4323 19.6432 6.52998C20.4908 6.0302 21.1408 5.23887 21.4469 4.29533C20.6547 4.75801 19.7762 5.09423 18.8409 5.27597C18.0925 4.4907 17.0263 4 15.8464 4C13.5803 4 11.7435 5.80908 11.7435 8.03919C11.7435 8.35572 11.7804 8.66468 11.8496 8.95925C8.43975 8.79114 5.41679 7.18273 3.39225 4.73832C3.03996 5.33504 2.83766 6.02868 2.83766 6.77003C2.83766 8.17095 3.56148 9.40754 4.66221 10.1315C3.98992 10.1103 3.35687 9.92853 2.80382 9.62639C2.80382 9.64381 2.80382 9.65971 2.80382 9.67713C2.80382 11.6346 4.21761 13.2673 6.09523 13.6376C5.75139 13.7299 5.38833 13.7792 5.01373 13.7792C4.74989 13.7792 4.49221 13.7534 4.24222 13.7072C4.76451 15.3118 6.27984 16.4803 8.07515 16.5128C6.67136 17.5965 4.9022 18.2424 2.97919 18.2424C2.64844 18.2424 2.32153 18.2235 2 18.1856C3.81608 19.3313 5.97216 20 8.28976 20C15.8372 20 19.9632 13.845 19.9632 8.50717C19.9632 8.33224 19.9593 8.15808 19.9516 7.98467C20.7539 7.41445 21.45 6.70339 22 5.89389Z"/>
</svg>
