<svg width="452" height="216" viewBox="0 0 452 216" fill="none" xmlns="http://www.w3.org/2000/svg">
<path fill-rule="evenodd" clip-rule="evenodd" d="M225.882 64.9206C225.882 69.2767 222.339 72.8081 217.967 72.8081C213.596 72.8081 210.052 69.2767 210.052 64.9206C210.052 60.5644 213.596 57.0331 217.967 57.0331C222.339 57.0331 225.882 60.5644 225.882 64.9206ZM224.664 64.9206C224.664 68.6066 221.666 71.5946 217.967 71.5946C214.268 71.5946 211.27 68.6066 211.27 64.9206C211.27 61.2346 214.268 58.2465 217.967 58.2465C221.666 58.2465 224.664 61.2346 224.664 64.9206Z" fill="#2A4455"/>
<path fill-rule="evenodd" clip-rule="evenodd" d="M48.708 74.3047H119.943V202.162H48.708V74.3047ZM49.9257 75.5224H118.725V200.945H49.9257V75.5224Z" fill="#2A4455"/>
<path fill-rule="evenodd" clip-rule="evenodd" d="M17.0479 87.0898V99.2668H32.8779V87.0898H17.0479ZM31.6602 88.3075H18.2655V98.0491H31.6602V88.3075Z" fill="#2A4455"/>
<path fill-rule="evenodd" clip-rule="evenodd" d="M29.225 109.617C29.225 111.971 27.3169 113.879 24.9631 113.879C22.6093 113.879 20.7012 111.971 20.7012 109.617C20.7012 107.264 22.6093 105.355 24.9631 105.355C27.3169 105.355 29.225 107.264 29.225 109.617ZM28.0073 109.617C28.0073 111.299 26.6444 112.662 24.9631 112.662C23.2818 112.662 21.9189 111.299 21.9189 109.617C21.9189 107.936 23.2818 106.573 24.9631 106.573C26.6444 106.573 28.0073 107.936 28.0073 109.617Z" fill="#2A4455"/>
<path fill-rule="evenodd" clip-rule="evenodd" d="M12.7852 82.832H37.139V118.145H12.7852V82.832ZM14.0028 84.0497H35.9213V116.927H14.0028V84.0497Z" fill="#2A4455"/>
<path fill-rule="evenodd" clip-rule="evenodd" d="M7.30664 74.3047V202.162H42.6197V74.3047H7.30664ZM41.402 75.5224H8.52433V200.945H41.402V75.5224Z" fill="#2A4455"/>
<path fill-rule="evenodd" clip-rule="evenodd" d="M17.0479 203.988H32.8779V212.512H17.0479V203.988ZM18.2655 205.206H31.6602V211.294H18.2655V205.206Z" fill="#2A4455"/>
<path fill-rule="evenodd" clip-rule="evenodd" d="M94.9795 203.988V212.512H110.81V203.988H94.9795ZM109.592 205.206H96.1972V211.294H109.592V205.206Z" fill="#2A4455"/>
<path fill-rule="evenodd" clip-rule="evenodd" d="M211.879 0H224.056V3.89858C238.967 5.18327 250.237 11.0984 250.237 18.2014V80.5859H263.021V79.3718H259.978V75.7188H270.937V79.3718H267.892V80.5859H427.645V79.3718H424.601V75.7188H435.56V79.3718H432.515V80.5859H452V86.6744H435.56V86.6783H424.601V86.6744H270.937V86.6783H259.978V86.6744H250.237L250.237 190.514C250.236 193.007 248.847 195.353 246.4 197.405L250 215.997H242.81L239.94 201.177C235.16 203.183 229.028 204.543 222.229 204.948L222.23 216H213.706L213.706 204.948C206.803 204.537 200.589 203.141 195.777 201.084L192.89 215.997H185.699L189.333 197.232C187.012 195.222 185.7 192.937 185.699 190.514V86.6744H175.957V86.6783H164.998V86.6744H155.256V89.7199H153.43V94.5885H152.212V111.032C152.212 114.058 149.759 116.511 146.733 116.511C143.706 116.511 141.253 114.058 141.253 111.032V94.5927L141.253 94.5885H140.035V89.7199H137.6V86.6744H127.858L127.858 215.558H0V67H127.858V80.5859H137.6V77.543H155.256V80.5859H168.042V79.3718H164.998V75.7188H175.957V79.3718H172.913V80.5859H185.699V18.2014C185.699 11.0985 196.969 5.1835 211.879 3.89865V0ZM434.342 85.4567H425.818V81.8075H434.342V85.4567ZM435.56 85.4567H450.783V81.8036H435.56V85.4567ZM424.601 81.8036V85.4567H270.937V81.8036H424.601ZM431.298 80.5859V79.3718H428.862V80.5859H431.298ZM264.239 80.5859H266.675V79.3718H264.239V80.5859ZM250.237 81.8036H259.978V85.4567H250.237V81.8036ZM261.195 85.4567H269.719V81.8075H261.195V85.4567ZM164.998 81.8036H155.256V85.4567H164.998V81.8036ZM174.74 85.4567H166.216V81.8075H174.74V85.4567ZM175.957 85.4567V81.8036H185.698V85.4567H175.957ZM171.695 80.5859V79.3718H169.26V80.5859H171.695ZM214.923 205.01V214.786H221.013L221.013 205.01C220.01 205.052 218.995 205.074 217.968 205.074C216.941 205.074 215.926 205.052 214.923 205.01ZM222.838 1.21346V3.80457C221.25 3.69606 219.624 3.6398 217.968 3.6398C216.312 3.6398 214.686 3.69608 213.097 3.80463V1.21346H222.838ZM249.019 18.2014C249.019 17.9994 249.008 17.7971 248.985 17.5946H186.951C186.928 17.7971 186.917 17.9994 186.917 18.2014V189.905H249.019V18.2014ZM195.655 199.704C190.251 197.266 187.297 194.175 186.951 191.118H248.985C248.639 194.175 245.685 197.266 240.282 199.704C234.633 202.252 226.746 203.86 217.968 203.86C209.19 203.86 201.303 202.252 195.655 199.704ZM248.711 16.3811C247.814 13.7321 244.97 11.1252 240.283 9.01019C234.635 6.46137 226.747 4.85326 217.968 4.85326C209.19 4.85326 201.301 6.46137 195.653 9.01019C190.966 11.1252 188.122 13.7321 187.225 16.3811H248.711ZM187.174 214.783L190.407 198.089C191.619 198.985 193.039 199.817 194.636 200.571L191.884 214.783H187.174ZM243.815 214.783L241.083 200.673C242.678 199.934 244.101 199.119 245.322 198.241L248.525 214.783H243.815ZM1.21769 68.2177H126.64V214.341H1.21769V68.2177ZM137.6 81.8036V85.4567H127.858V81.8036H137.6ZM138.817 88.5022H140.035V88.5H143.079V78.7617H144.297V88.5H148.559V78.7617H149.776V88.5H153.43V88.5022H154.038V78.7607H138.817V88.5022ZM141.253 89.7199V93.3708H152.212V89.7199H141.253ZM150.994 94.5927H142.471V111.032C142.471 113.385 144.379 115.293 146.733 115.293C149.086 115.293 150.994 113.385 150.994 111.032V94.5927ZM174.74 76.9364H166.216V78.1541H168.042V78.1523H172.913V78.1541H174.74V76.9364ZM261.195 76.9364H269.719V78.1541H267.892V78.1523H263.021V78.1541H261.195V76.9364ZM434.342 76.9364H425.818V78.1541H427.645V78.1523H432.515V78.1541H434.342V76.9364Z" fill="#2A4455"/>
<rect x="87" y="169" width="24" height="24" rx="8" fill="#1A66AE"/>
<path d="M100.283 186H98.1709V180.217C98.1709 180.057 98.1732 179.861 98.1777 179.629C98.1823 179.392 98.1891 179.15 98.1982 178.904C98.2074 178.654 98.2165 178.428 98.2256 178.228C98.1755 178.287 98.0729 178.389 97.918 178.535C97.7676 178.676 97.6263 178.804 97.4941 178.918L96.3457 179.841L95.3271 178.569L98.5469 176.006H100.283V186Z" fill="white"/>
<rect x="134" y="49" width="24" height="24" rx="8" fill="#1A66AE"/>
<path d="M149.047 66H142.061V64.5303L144.569 61.9941C145.075 61.4746 145.481 61.0417 145.786 60.6953C146.096 60.3444 146.319 60.0254 146.456 59.7383C146.597 59.4512 146.668 59.1436 146.668 58.8154C146.668 58.4189 146.556 58.1227 146.333 57.9268C146.114 57.7262 145.82 57.626 145.451 57.626C145.064 57.626 144.688 57.7148 144.323 57.8926C143.959 58.0703 143.578 58.3232 143.182 58.6514L142.033 57.291C142.32 57.0449 142.623 56.8125 142.942 56.5938C143.266 56.375 143.64 56.1995 144.063 56.0674C144.492 55.9307 145.005 55.8623 145.602 55.8623C146.258 55.8623 146.821 55.9808 147.29 56.2178C147.764 56.4548 148.129 56.7783 148.384 57.1885C148.639 57.5941 148.767 58.0544 148.767 58.5693C148.767 59.1208 148.657 59.6243 148.438 60.0801C148.22 60.5358 147.901 60.987 147.481 61.4336C147.067 61.8802 146.565 62.3747 145.978 62.917L144.692 64.127V64.2227H149.047V66Z" fill="white"/>
<rect x="217" y="158" width="24" height="24" rx="8" fill="#1A66AE"/>
<path d="M231.657 167.241C231.657 167.701 231.562 168.1 231.37 168.438C231.179 168.775 230.919 169.05 230.591 169.265C230.267 169.479 229.903 169.636 229.497 169.736V169.777C230.299 169.878 230.908 170.124 231.322 170.516C231.742 170.908 231.951 171.432 231.951 172.088C231.951 172.671 231.808 173.193 231.521 173.653C231.238 174.114 230.8 174.476 230.208 174.74C229.616 175.005 228.852 175.137 227.918 175.137C227.367 175.137 226.852 175.091 226.373 175C225.899 174.913 225.452 174.779 225.033 174.597V172.799C225.462 173.018 225.91 173.184 226.38 173.298C226.849 173.407 227.287 173.462 227.692 173.462C228.449 173.462 228.978 173.332 229.278 173.072C229.584 172.808 229.736 172.439 229.736 171.965C229.736 171.687 229.666 171.452 229.524 171.261C229.383 171.069 229.137 170.924 228.786 170.823C228.44 170.723 227.954 170.673 227.33 170.673H226.571V169.053H227.344C227.959 169.053 228.426 168.996 228.745 168.882C229.069 168.763 229.287 168.604 229.401 168.403C229.52 168.198 229.579 167.966 229.579 167.706C229.579 167.351 229.47 167.073 229.251 166.872C229.032 166.672 228.668 166.571 228.157 166.571C227.838 166.571 227.547 166.612 227.282 166.694C227.022 166.772 226.788 166.868 226.578 166.981C226.368 167.091 226.184 167.198 226.024 167.303L225.047 165.847C225.439 165.564 225.897 165.329 226.421 165.143C226.95 164.956 227.578 164.862 228.308 164.862C229.338 164.862 230.153 165.07 230.755 165.484C231.356 165.899 231.657 166.485 231.657 167.241Z" fill="white"/>
</svg>
