<svg width="199" height="33" viewBox="0 0 199 33" fill="none" xmlns="http://www.w3.org/2000/svg">
<path d="M162.805 25.6657H140.418C139.096 25.6657 138.528 25.2558 138.528 23.96V1.00575C138.528 0.0669545 138.171 0.0140646 137.471 0.0140646H130.004C129.251 0.0140646 128.999 0.0140646 128.999 1.00575V23.1666C128.999 30.5448 131.643 32.938 138.819 32.938H162.911C163.797 32.938 163.797 32.6471 163.797 31.8935V26.7499C163.797 26.0095 163.797 25.6657 162.805 25.6657ZM121.916 0.0140646H97.7969C91.189 0.0140646 87.2243 2.11644 87.2243 9.04502V23.9203C87.2243 30.8489 91.189 32.938 97.8762 32.938H121.916C122.867 32.938 122.814 32.6471 122.814 31.9464V26.8028C122.814 26.102 122.814 25.8111 121.916 25.8111H98.2859C97.2286 25.8111 96.6868 25.4144 96.6868 24.3566V19.8478H121.268C122.22 19.8478 122.167 19.5437 122.167 18.8561V13.7787C122.167 13.0382 122.167 12.787 121.268 12.787H96.6868V8.59545C96.6868 7.55088 97.2286 7.1542 98.2859 7.1542H121.916C122.867 7.1542 122.814 6.85009 122.814 6.10963V1.00575C122.814 0.318182 122.907 0.0140646 121.916 0.0140646ZM80.9336 0.0140646H56.8279C50.22 0.0140646 46.1628 2.11644 46.1628 9.04502V23.9203C46.1628 30.8489 50.2465 32.938 56.8279 32.938H80.9336C81.8719 32.938 81.8719 32.6471 81.8719 31.9464V26.8028C81.8719 26.102 81.8719 25.8111 80.9336 25.8111H57.3434C56.2993 25.8111 55.7442 25.4144 55.7442 24.3566V19.8478H80.2728C81.2243 19.8478 81.2243 19.5437 81.2243 18.8561V13.7787C81.2243 13.0382 81.2243 12.787 80.2728 12.787H55.7442V8.59545C55.7442 7.55088 56.2993 7.1542 57.3434 7.1542H80.9336C81.8719 7.1542 81.8719 6.85009 81.8719 6.10963V1.00575C81.938 0.318182 81.938 0.0140646 80.9336 0.0140646ZM39.0395 0.0140646H10.718C4.03082 0.0140646 0 2.11644 0 9.04502V23.9203C0 30.8489 4.03082 32.938 10.718 32.938H39.0395C39.991 32.938 39.9381 32.6471 39.9381 31.9464V13.7787C39.9381 13.0382 39.9381 12.787 39.0395 12.787H15.6475C14.7092 12.787 14.762 13.0382 14.762 13.7787V18.8825C14.762 19.5701 14.762 19.8742 15.6475 19.8742H30.3963V25.8111H11.1145C10.1101 25.8111 9.52859 25.4144 9.52859 24.3566V8.59545C9.52859 7.55088 10.1101 7.1542 11.1145 7.1542H39.0395C39.991 7.1542 39.9381 6.85009 39.9381 6.10963V1.00575C39.9381 0.318182 39.991 0.0140646 39.0395 0.0140646ZM198.316 0.0140646H189.686C189.166 -0.0337116 188.642 0.0406179 188.156 0.23114C187.669 0.421662 187.234 0.723119 186.885 1.11153L174.99 14.1357L163.162 1.11153C162.802 0.722941 162.357 0.42203 161.862 0.231814C161.367 0.0415987 160.836 -0.0328835 160.308 0.0140646H151.691C151.004 0.0140646 150.687 0.371071 151.546 1.25698L170.233 21.8179V31.9992C170.233 32.938 170.537 32.938 171.29 32.938H178.757C179.457 32.938 179.761 32.938 179.761 31.9992V21.8179L198.501 1.25698C199.307 0.371071 199.056 0.0140646 198.316 0.0140646Z" fill="#0070B2"/>
</svg>
