<svg width="74" height="72" viewBox="0 0 74 72" fill="none" xmlns="http://www.w3.org/2000/svg">
<path fill-rule="evenodd" clip-rule="evenodd" d="M54.6614 47.624C54.0955 48.189 55.2272 47.0591 54.6614 47.624V47.624Z" fill="#402020"/>
<path fill-rule="evenodd" clip-rule="evenodd" d="M33.0898 37.3422V36.2813H35.5275C35.7326 36.2226 35.8492 36.1451 35.947 35.9792C36.0347 35.804 36.0449 35.5802 36.0542 34.9472V32.8449C31.9096 31.4717 30.8273 28.8529 30.9438 16.9766L33.87 19.3903L36.8056 17.1323L36.7366 22.1945L35.5769 22.1843L35.5378 20.1892L33.8402 21.8338L32.124 20.1398C32.0559 32.8542 39.7215 32.6109 39.936 22.7884L40.0236 20.8511L41.379 19.6438L41.2429 23.1194C41.3893 23.7813 42.1108 23.3916 42.2469 22.6029L42.6375 19.0304L44.198 17.4921C43.0374 29.8756 41.0966 31.7933 37.2736 32.8542V34.9668C37.2829 35.5606 37.2633 35.7844 37.3416 35.9988C37.4488 36.1154 37.4097 36.1639 37.8002 36.2813H40.6277V37.3516L33.0898 37.3422ZM34.4061 23.2751C34.8349 23.2844 35.177 23.6349 35.1668 24.0535C35.1574 24.4721 34.806 24.8133 34.3865 24.8133C33.967 24.8031 33.6258 24.4526 33.6258 24.034C33.636 23.6154 33.9866 23.2751 34.4061 23.2751ZM35.3718 25.0175C35.8007 25.0269 36.1419 25.3774 36.1325 25.796C36.1223 26.2248 35.7717 26.5557 35.3523 26.5557C34.9234 26.5455 34.5916 26.1959 34.5916 25.7773C34.6009 25.3587 34.9523 25.0175 35.3718 25.0175ZM36.3954 23.3142C36.8149 23.3142 37.1561 23.6647 37.1468 24.0833C37.1468 24.5113 36.7954 24.8422 36.3759 24.8422C35.947 24.8329 35.6058 24.4823 35.6152 24.0637C35.6254 23.6451 35.976 23.304 36.3954 23.304V23.3142ZM36.3376 26.7701C36.7664 26.7701 37.1076 27.1207 37.0983 27.5393C37.0881 27.9672 36.7469 28.3084 36.318 28.2982C35.8985 28.2888 35.5573 27.9383 35.5667 27.5197C35.5667 27.1011 35.9181 26.7599 36.3376 26.7701ZM37.3612 25.0566C37.7807 25.0566 38.1219 25.4072 38.1117 25.8258C38.1117 26.2537 37.7611 26.5949 37.3323 26.5847C36.9128 26.5753 36.5716 26.2248 36.5809 25.8062C36.5911 25.3876 36.9417 25.0464 37.3612 25.0566ZM38.3754 23.3431C38.8043 23.3431 39.1455 23.6936 39.1361 24.1216C39.1268 24.5402 38.7754 24.8712 38.3559 24.8712C37.9364 24.8618 37.5952 24.5113 37.5952 24.0927C37.6054 23.6741 37.956 23.3338 38.3754 23.3431Z" fill="#402020"/>
<path fill-rule="evenodd" clip-rule="evenodd" d="M54.6613 12.8789C55.2756 13.2192 55.5683 14.1934 56.1435 14.4172C56.2609 14.2615 56.3971 14.0275 56.5536 13.9884C56.5341 13.9203 56.4847 13.7552 56.4362 13.7067C56.6506 13.5604 56.6991 13.648 56.7289 13.677C57.2165 14.1832 57.7823 14.8162 57.4505 15.5947L57.4896 15.6338C57.3433 15.7699 56.9042 17.0938 56.5919 17.5515C56.6115 17.5813 56.6311 17.6 56.6506 17.6196C56.0559 18.1454 56.9629 19.0319 57.2948 18.4763C57.4505 18.0969 57.8215 16.8505 57.6164 16.6267C58.2988 15.5266 58.9038 15.1863 59.8108 14.3006C59.8304 14.3193 59.6738 15.2543 59.8397 15.5564C59.9767 15.5853 61.4488 14.7379 61.6147 14.5924C61.7023 14.777 61.3024 15.1276 61.4785 15.5751C61.8095 15.6534 63.0774 15.2543 63.4875 15.1182C63.7895 15.4687 62.6485 15.7801 62.6289 16.1009C63.0773 15.975 64.0235 16.1885 64.3843 16.471C63.9257 17.1431 63.3505 17.3473 62.8238 17.8144C63.1165 17.9803 63.3411 18.1752 63.5649 18.4278L60.9323 20.0052C60.854 19.927 59.0501 20.5889 58.8842 20.8033C59.8593 22.1178 61.4785 19.2259 62.7361 19.9559C62.8927 19.9661 63.3803 19.8393 63.4577 19.9176C63.3113 20.0827 62.5124 20.6765 62.5413 20.8033C62.6876 20.7548 64.8327 20.959 64.8327 20.959C64.5213 21.3002 64.2286 21.4167 63.9452 21.66C64.072 21.8064 64.3749 21.5818 64.4524 21.6694C64.7059 21.4456 66.2469 22.1178 66.5889 22.3807C66.6272 22.3415 66.657 22.322 66.6766 22.3024C66.8714 22.5262 67.0373 22.5457 67.1837 22.7116C66.5983 22.9643 66.2179 22.8963 65.8087 23.0715C65.7891 23.052 65.75 23.0035 65.7304 22.9839C65.584 23.1107 65.3986 23.1685 65.2131 23.3344C65.3501 23.3251 66.0622 23.6943 66.1592 23.8117C66.1788 23.7922 66.1788 23.7922 66.1984 23.7726C66.5983 24.1325 67.2416 24.4345 67.6219 24.8531C67.3198 25.1934 64.7944 25.6222 64.1699 25.6027C64.3843 25.846 64.6574 26.0213 64.8906 26.2842C64.4915 26.6347 63.2824 25.9047 62.8825 25.6809C62.5498 25.9728 63.1658 26.6542 63.4194 26.7512C63.3607 26.7708 63.3215 26.7997 63.273 26.8389C63.2339 26.8099 62.5124 26.5079 62.4145 26.5955C61.7415 26.2059 61.3322 25.7584 60.7953 25.1645C59.3718 23.85 60.6591 25.515 60.5128 25.6418C60.8251 26.0017 60.2788 27.0822 60.9416 27.9977C60.6591 27.9781 59.4985 27.6956 59.2739 27.8615C59.5666 28.1823 59.9572 28.9514 59.684 29.3802C59.4109 29.205 58.2112 28.8638 57.9865 28.6205C57.9185 28.6689 57.8597 28.7668 57.7721 28.8442C57.7917 29.1658 57.9967 29.4772 58.1524 29.7886C58.1329 29.7988 58.1133 29.8175 58.0937 29.8371C58.2401 30.0124 58.0835 30.334 58.2112 30.5679C58.172 30.5577 58.1524 30.5773 58.1039 30.6164C57.3143 30.0804 57.3143 30.0226 56.6506 29.2926C56.0261 29.6618 55.5683 29.604 55.7342 28.7566C54.0078 29.9545 55.5879 26.0017 55.9972 25.4955C55.793 25.2623 56.4073 24.3179 55.5488 23.9674C55.1293 25.2717 54.9736 26.6058 53.9202 27.5399L53.0718 27.6956L52.8668 26.7615C53.1305 25.3883 54.4469 22.3509 55.1199 23.1107C55.5292 22.7406 56.1146 22.6044 56.5145 22.2539C56.5536 22.293 56.6021 22.3611 56.6413 22.3994C56.6217 22.419 56.5826 22.4581 56.5536 22.4777C58.3575 24.5026 55.8415 25.3398 56.2022 27.2966C56.6702 28.3184 56.7383 26.8687 56.7579 26.8491C56.7187 26.8099 56.6804 26.7317 56.6506 26.644C56.6702 26.6245 56.6898 26.6058 56.7289 26.5666C56.4558 25.9923 57.1093 25.544 57.4794 25.1645C57.9576 25.1841 57.5866 26.148 57.4794 26.3914C58.3184 27.2183 58.0835 25.8656 58.2307 25.3202C58.406 25.612 58.5328 25.846 58.6306 26.2059L58.5915 26.245L59.0399 26.7512L59.1863 26.576C59.0203 25.1645 57.9185 23.5097 57.2454 22.2735C57.4896 22.0301 59.4398 22.8673 60.1129 22.9065C60.249 23.1004 61.6343 25.3304 62.1022 25.3593C62.4434 24.8335 61.6828 24.3758 61.3518 23.8798C61.3798 23.8602 61.4003 23.8406 61.4198 23.8211C61.3322 23.6747 61.2539 23.519 61.1858 23.354C61.7125 23.0622 63.1846 24.5613 64.0627 23.7045L61.4785 22.9065C62.3167 22.3705 62.8536 22.7891 63.5555 22.8376L63.7997 22.5559C63.741 22.487 63.6823 22.4292 63.604 22.3415C63.5649 22.3807 63.5453 22.3994 63.5266 22.4096C62.1124 22.225 59.0893 22.7312 58.2988 21.8447C58.2988 21.8447 58.2792 21.8642 58.2307 21.894C58.2018 21.8549 57.4215 21.5435 57.3918 21.5528C57.1961 20.9496 58.6596 19.3237 58.7566 19.4403C59.3522 18.9247 62.1414 19.4692 61.2633 18.4763L60.1418 18.7103C60.1129 18.6618 60.0933 18.6422 60.0542 18.6031C60.386 18.4278 62.0248 17.1329 62.1805 16.87C61.7517 16.3936 59.6543 18.7299 59.1667 18.4474L59.5666 17.4545L59.5079 17.3958C59.6543 17.2206 59.781 17.0751 59.918 16.8802C59.5377 16.2379 58.874 17.8731 58.7668 18.0875C58.7864 18.1062 58.7864 18.1062 58.8161 18.1454C58.7966 18.1649 58.0835 19.3629 57.9967 19.2557C56.0559 21.1538 57.1484 21.6115 54.9242 19.1093C55.3046 18.769 56.4847 16.4131 56.0754 15.9554L54.8366 17.7855C54.5634 17.3567 55.3828 15.6142 54.4758 15.5564L53.8912 18.3308C53.8325 18.2236 53.7542 18.1454 53.7057 18.0382C53.7253 18.0195 53.7449 17.9999 53.7645 17.9897C53.579 17.7659 53.413 17.503 53.208 17.2793C52.0967 18.9434 56.6804 20.7446 56.3579 21.7477C56.2609 21.7187 55.9095 21.9229 55.8023 22.0106C55.7827 21.991 55.7827 21.991 55.7632 21.9714C54.8272 22.7993 53.442 22.419 52.4669 23.2272C52.3792 23.3055 51.1897 23.9181 50.9455 23.5097C50.6919 23.1107 51.5011 21.8838 51.5794 21.8064C52.7009 20.7939 54.4273 21.8549 54.9931 21.2704L52.4464 20.394L51.2578 17.834C51.336 17.834 51.8815 18.1939 51.9699 18.2526C52.0082 18.2236 51.9895 17.0359 52.1452 16.6752L52.4575 17.1916C53.4522 16.7628 52.5647 15.4781 53.0421 14.7575C53.2761 14.7677 53.3841 15.0502 53.5492 15.2441C53.7347 15.0884 54.8366 13.0831 54.6613 12.8789Z" fill="#402020"/>
<path fill-rule="evenodd" clip-rule="evenodd" d="M66.0639 37.5686C65.9762 37.5592 65.8979 37.5592 65.8197 37.5499C65.8588 37.9684 64.5127 37.0819 64.2889 37.15C64.2208 37.2972 64.1332 37.5796 64.0158 37.686L63.8984 37.4911C63.8796 37.4911 63.8601 37.5005 63.8405 37.5005C63.6354 37.1108 63.518 36.9066 63.4406 36.5272L62.748 37.1798C62.6603 36.8488 62.4357 35.6117 62.9726 35.456C63.0994 35.1157 63.1479 35.1055 62.9726 34.6673C61.9958 34.7652 62.6118 35.2808 62.3676 35.5734C62.3863 36.1571 62.1141 36.7118 62.1141 37.3448C61.8699 37.3252 61.8801 37.0241 61.5193 37.0138C61.4802 37.9293 60.9441 37.3737 60.6216 37.0623C60.3102 37.6366 59.9588 37.7345 59.461 38.0467C59.3155 37.6179 59.1981 37.2376 59.2653 36.8488L59.4032 36.1673C59.1981 36.1673 58.9735 36.1477 58.8084 36.1282C59.0619 35.5632 59.1981 35.8066 59.1394 35.2033L59.062 35.2127C59.0126 35.0859 58.8663 35.0281 58.7982 34.9694C58.759 34.5993 60.1443 34.4921 60.3978 34.4734C60.3681 34.2198 61.4606 33.7042 59.9681 33.8404C59.9784 33.9373 58.8569 34.4538 58.6518 34.5806C58.4663 34.0735 58.8858 34.025 58.7786 33.7621C58.5353 33.6651 58.2323 33.7919 57.9694 33.8114C57.9396 33.5094 58.0477 33.4507 58.2817 33.2176C58.223 33.1002 57.9694 33.0032 57.9396 33.1104C57.4819 32.7888 57.4717 32.263 57.3644 31.767L57.3057 31.7763C57.2283 31.6597 57.179 31.5432 57.1211 31.4062C57.179 31.3381 57.4427 31.3773 57.5695 31.3679L57.5789 31.4258L59.0228 31.6691L58.9735 30.9493C59.4797 30.9391 59.6371 31.3092 60.1145 31.3577C60.2217 31.2309 60.1834 31.0659 60.2319 30.9298C60.2711 30.9196 60.3289 30.9102 60.3876 30.9102C60.5927 31.2701 60.602 31.4556 60.671 31.8929C60.6905 31.8929 60.7101 31.8929 60.7288 31.8835C60.7978 32.6135 61.5976 32.8568 61.3729 31.767H61.3049C61.2266 31.5721 60.5833 30.4525 60.7186 30.2874C60.7978 30.3257 60.905 30.3742 61.0513 30.3555C61.0802 30.2968 60.768 29.7803 60.7288 29.6153C60.9339 29.6246 61.0215 29.674 61.207 29.6935C61.207 29.7123 61.207 29.7318 61.2164 29.7514C61.2751 29.7514 61.3142 29.7225 61.3534 29.7225C61.3049 29.1865 61.9286 28.6224 62.2698 28.3008C62.2698 28.3399 62.8748 29.2554 62.9726 29.6246C63.1964 29.6059 63.4108 29.343 63.6746 29.3132C63.7818 29.6348 63.6746 30.1504 63.7818 30.4431C63.8209 30.4329 63.8601 30.4525 63.8796 30.4525L64.0064 32.5454C64.1136 32.4578 64.1221 32.3506 64.2498 32.3412C64.2208 31.0268 64.0447 30.7247 65.0496 30.0534C65.0785 30.17 65.0887 30.2678 65.1372 30.3938C65.7031 30.5205 66.0724 29.9556 66.5123 29.9071L66.3855 30.6567C66.8245 30.6082 67.3802 30.3742 67.8779 30.3257L67.0585 31.9422C67.244 31.9226 67.4193 31.932 67.6048 31.9124L66.9318 32.7496L67.1564 33.1682C66.6978 33.7238 64.9024 33.8404 64.3868 33.7042C63.9766 34.1611 65.9081 34.2981 66.2978 34.3466C66.337 34.7065 66.1319 34.7065 66.1617 35.0672C66.4051 35.2518 66.7071 35.8653 66.8245 36.2354C66.4442 36.2736 66.1804 36.0405 65.8784 36.0695C65.732 36.2447 66.2391 37.2674 66.3072 37.5686C66.2196 37.5686 66.1421 37.5592 66.0639 37.5686ZM64.2498 36.6735C63.5963 36.0797 64.1519 34.2981 62.9233 34.1424C62.9233 34.1228 62.9139 34.0837 62.9139 34.0641C62.7965 34.0735 62.8552 33.8599 62.5923 33.8497C62.2604 34.2879 61.7048 35.4177 61.7626 36.0405C61.675 36.1477 61.7729 36.3324 61.5389 36.3911C61.2947 35.924 61.3244 35.8261 61.3917 35.3684C61.207 35.4467 60.6216 36.0303 60.4463 36.2447C60.4463 36.3128 60.0566 36.2252 60.0371 36.2252C60.0762 36.0601 60.9535 35.1055 61.1194 35.0672C61.1194 35.0085 61.1083 34.9694 61.1083 34.9302C61.0513 34.9498 60.9926 34.9796 60.9143 35.0085V35.0672C60.437 35.2323 60.3783 35.5343 59.9001 35.2518C60.2711 34.7941 62.2791 34.0352 62.0656 33.4805C61.4802 33.4992 60.8947 33.529 60.3196 33.5681V33.4898C60.2804 33.4898 60.2319 33.4992 60.2217 33.4992C60.203 33.5188 60.203 33.5579 60.203 33.5775C60.1834 33.5579 60.1732 33.5188 60.1732 33.4992C59.6959 33.3631 58.9735 33.5188 58.8662 32.9836C58.9352 32.8866 59.2764 33.0032 59.4125 33.0032L58.4374 32.1268L59.6176 32.6237L59.3734 31.9422H59.3155C59.3053 31.8248 59.3342 31.7763 59.3929 31.6691C59.5487 31.6597 59.9588 32.1753 59.9979 32.3021C60.0175 32.3021 60.0371 32.3021 60.0566 32.2927C60.3289 33.2363 61.5482 33.1002 62.2698 33.0321C62.377 32.8866 62.0554 31.9031 62.046 31.8444C61.6163 31.7567 61.441 30.6082 61.5091 30.2381C61.5287 30.2381 61.5389 30.2091 61.5874 30.2091C61.5678 30.0245 61.8996 31.4062 62.2213 31.3773C62.1923 31.0752 61.6946 29.7318 62.0945 29.6348C62.2213 30.0824 62.4263 30.472 62.5429 30.9H62.6016C62.6212 31.037 62.6603 31.1927 62.6893 31.3381C63.1572 31.2896 62.9335 30.1802 63.187 30.1504C63.2066 30.1896 63.2066 30.2091 63.2355 30.2287C63.2551 30.2287 63.2942 30.2185 63.3138 30.2185C63.4491 30.9 62.9624 31.4649 62.8654 32.1073C62.8356 32.1073 62.9233 32.896 62.9233 32.9351C63.5563 33.4507 65.2547 32.0001 65.5567 31.9711C65.5567 32.0103 65.5661 32.0494 65.5661 32.0877C66.1515 32.2145 66.6391 30.9493 66.805 31.8639C66.7173 31.9805 66.2485 32.137 66.2587 32.3021C67.3215 32.7496 64.9126 33.0423 64.728 33.061C64.728 33.0806 64.7373 33.1197 64.7373 33.1393C64.4353 33.1784 63.6354 33.4116 63.3725 33.5775C63.4015 33.8404 64.1221 34.3177 64.3281 34.3559C64.3281 34.3755 64.3281 34.3951 64.3374 34.4342C64.5033 34.4146 65.7516 35.359 65.7899 35.4467L64.7373 35.2033L65.0207 36.0499C65.0394 36.0499 65.059 36.0499 65.0785 36.0405C65.0887 36.1673 65.0785 36.2643 65.0981 36.3911C64.8054 36.4106 64.591 36.0116 64.494 35.8551C64.4744 35.8551 64.4548 35.8653 64.4353 35.8653C64.357 35.9529 64.4838 36.4787 64.4055 36.6735C64.3476 36.6633 64.2889 36.6633 64.2498 36.6735ZM59.0126 33.4311C59.0322 33.4311 59.0517 33.4116 59.0424 33.3928C59.0713 33.4022 59.0909 33.4218 59.1105 33.4218L59.0126 33.4311ZM65.8588 32.5846C65.6733 32.5165 66.0536 32.2825 66.1804 32.331C66.0443 32.4578 66.0834 32.565 65.8588 32.5846ZM65.6639 31.7959C65.6248 31.767 65.7618 31.1629 65.7899 31.037C65.869 31.0268 65.9566 30.9978 66.0154 30.9978C66.2783 31.2114 65.8494 31.7763 65.6639 31.7959Z" fill="#402020"/>
<path fill-rule="evenodd" clip-rule="evenodd" d="M57.5586 33.0016C57.5773 33.1284 57.5875 33.2645 57.5875 33.4006C57.568 34.4037 56.8958 35.2112 56.0662 35.2018C55.2476 35.1916 54.5941 34.3646 54.6137 33.3615C54.6137 33.216 54.6333 33.0893 54.652 32.9531C54.789 33.8295 55.3744 34.4914 56.0857 34.5007C56.7886 34.5101 57.3927 33.8677 57.5586 33.0016Z" fill="#402020"/>
<path fill-rule="evenodd" clip-rule="evenodd" d="M54.9649 31.1032C54.9836 31.23 54.9938 31.3661 54.9938 31.5022C54.9742 32.5053 54.302 33.3127 53.4826 33.3034C52.6632 33.2838 52.0004 32.456 52.02 31.4537C52.02 31.3176 52.0395 31.1815 52.0582 31.0547C52.1952 31.931 52.7806 32.5929 53.492 32.6023C54.1948 32.6125 54.7989 31.9693 54.9649 31.1032Z" fill="#402020"/>
<path fill-rule="evenodd" clip-rule="evenodd" d="M57.6853 30.3532C57.7048 30.48 57.7244 30.6161 57.7142 30.7522C57.7048 31.7553 57.0233 32.5627 56.2039 32.5431C55.3836 32.5338 54.7301 31.706 54.7404 30.7037C54.7404 30.5676 54.7599 30.4315 54.7897 30.3047C54.925 31.181 55.5104 31.8429 56.2132 31.8523C56.9246 31.8625 57.5295 31.2193 57.6853 30.3532Z" fill="#402020"/>
<path fill-rule="evenodd" clip-rule="evenodd" d="M55.7545 28.2696C55.7732 28.3964 55.7936 28.5325 55.7825 28.6686C55.7732 29.6811 55.0916 30.4791 54.2722 30.4698C53.4528 30.4604 52.7985 29.6326 52.8087 28.6295C52.8087 28.4934 52.8291 28.3572 52.8581 28.2305C52.9942 29.0974 53.5703 29.7594 54.2816 29.7687C54.9929 29.7789 55.5885 29.1357 55.7545 28.2696Z" fill="#402020"/>
<path fill-rule="evenodd" clip-rule="evenodd" d="M66.3839 27.5699C66.3839 27.541 66.3745 27.5112 66.3745 27.4823C66.3838 27.1513 66.5106 26.8493 66.7063 26.6255C66.9105 26.4018 67.193 26.2656 67.5053 26.2656H67.5155C67.8269 26.275 68.1103 26.4213 68.3154 26.6544C69.4266 27.8719 68.2566 29.7309 66.628 29.6722C66.1209 29.6629 65.4087 29.468 64.814 29.1371C64.1801 28.7866 63.6934 28.271 63.6934 27.6184C63.7027 27.4627 63.8287 27.3359 63.9852 27.3359C64.1409 27.3461 64.2686 27.4729 64.2686 27.6286C64.2686 28.0276 64.6285 28.3875 65.088 28.6504C65.5942 28.9329 66.2094 29.0979 66.6383 29.1082C67.0178 29.1082 67.359 28.9422 67.6125 28.6598C67.8771 28.368 68.0414 27.9689 68.0414 27.5112V27.5018C68.0524 27.3164 67.9844 27.142 67.8771 27.0152C67.7878 26.908 67.6517 26.8297 67.5053 26.8297C67.4075 26.8297 67.3113 26.8595 67.2322 26.9173C67.4466 27.0152 67.5938 27.2287 67.5938 27.4823C67.5836 27.8132 67.3113 28.0761 66.9786 28.0659C66.6774 28.0659 66.4332 27.8524 66.3839 27.5699Z" fill="#402020"/>
<path fill-rule="evenodd" clip-rule="evenodd" d="M49.5892 15.0399C49.5892 15.0688 49.5892 15.0986 49.5985 15.1275C49.6674 15.4585 49.8521 15.7214 50.0963 15.8966C50.3498 16.0812 50.6519 16.1595 50.9548 16.0812H50.9642V16.0915C51.2765 16.0132 51.5198 15.8183 51.6662 15.5461C52.4958 14.115 50.9642 12.5377 49.3943 12.9273V12.9375H49.3841C47.7751 13.2974 45.2395 16.7627 48.0967 14.2512C48.5358 13.8717 49.1016 13.5799 49.5109 13.4923V13.482H49.5211C49.8819 13.4046 50.252 13.5016 50.5643 13.7254C50.8765 13.95 51.1301 14.3192 51.228 14.7574V14.7676C51.2662 14.9522 51.2467 15.1275 51.1692 15.2738C51.1012 15.3997 50.9837 15.4976 50.8374 15.5367C50.7395 15.5554 50.6425 15.5461 50.5447 15.507C50.7395 15.3708 50.8374 15.1275 50.7889 14.8842C50.7106 14.5626 50.389 14.3584 50.0571 14.4264C49.7746 14.4945 49.5798 14.7574 49.5892 15.0399Z" fill="#402020"/>
<path fill-rule="evenodd" clip-rule="evenodd" d="M22.0108 12.5781C21.3769 12.8997 21.0553 13.8628 20.4699 14.0772C20.3627 13.9215 20.2266 13.6782 20.0802 13.6297C20.0998 13.5617 20.1483 13.406 20.1968 13.3566C19.9917 13.2009 19.9432 13.2885 19.9143 13.3183C19.4072 13.8143 18.8217 14.4278 19.1238 15.2165C19.1238 15.2165 19.1042 15.236 19.0949 15.2556C19.231 15.3917 19.6309 16.7249 19.9236 17.2022C19.9041 17.2218 19.8845 17.2414 19.8649 17.2609C20.441 17.7961 19.5144 18.6622 19.1927 18.0981C19.0557 17.7178 18.7239 16.462 18.9392 16.2383C18.2857 15.1186 17.7003 14.7587 16.8128 13.8433C16.7932 13.8628 16.92 14.7979 16.7447 15.0999C16.6078 15.1288 15.1647 14.2329 14.9987 14.0772C14.9017 14.2619 15.2914 14.632 15.1059 15.0701C14.775 15.1382 13.5165 14.7 13.1166 14.5545C12.795 14.8855 13.936 15.236 13.9453 15.567C13.4969 15.4207 12.5414 15.6061 12.1704 15.8784C12.6095 16.5599 13.1847 16.7836 13.6918 17.2609C13.3991 17.426 13.1651 17.6115 12.9311 17.8642L15.5161 19.519C15.5935 19.4415 17.3787 20.1613 17.5446 20.3757C16.5201 21.6613 14.9987 18.7209 13.7216 19.4118C13.5556 19.4118 13.0774 19.2663 13 19.3539C13.1362 19.519 13.9164 20.1426 13.8875 20.2592C13.7411 20.2107 11.5859 20.3468 11.5859 20.3468C11.8879 20.6973 12.1806 20.8241 12.4538 21.0768C12.3168 21.2129 12.0343 20.9892 11.9466 21.0768C11.7024 20.8428 10.1419 21.4665 9.79134 21.7191C9.7522 21.68 9.73263 21.6613 9.71306 21.6417C9.508 21.8553 9.34208 21.8655 9.17701 22.0305C9.76156 22.3036 10.1419 22.2449 10.552 22.4304C10.5716 22.4108 10.6099 22.3717 10.6295 22.3428C10.7758 22.4789 10.9519 22.5368 11.1366 22.712C11.0004 22.6925 10.2789 23.043 10.1717 23.1604L10.1325 23.1213C9.72242 23.4718 9.06895 23.7441 8.68945 24.1533C8.97195 24.5038 11.488 25.0101 12.1125 25.0101C11.8879 25.2432 11.6054 25.4184 11.3706 25.672C11.7611 26.0421 12.9898 25.3308 13.3897 25.136C13.7114 25.4286 13.0774 26.0906 12.8239 26.1782C12.8826 26.1978 12.9217 26.2361 12.9609 26.2752C13.0094 26.2463 13.7411 25.9638 13.8381 26.0514C14.5214 25.6915 14.94 25.2534 15.4965 24.6689C16.9592 23.4037 15.6233 25.0296 15.7696 25.1555C15.4378 25.5061 15.9543 26.6062 15.2625 27.5021C15.545 27.4918 16.715 27.2485 16.9302 27.4144C16.6375 27.7258 16.2181 28.4856 16.481 28.9229C16.7541 28.7485 17.9632 28.4558 18.1981 28.2125C18.2559 28.2712 18.3248 28.3682 18.4023 28.4464C18.3733 28.7672 18.1589 29.0692 17.993 29.3713C18.0126 29.3908 18.0321 29.4104 18.0517 29.4291C17.8951 29.595 18.0517 29.926 17.9147 30.1497C17.9538 30.1497 17.9734 30.1693 18.0126 30.2085C18.8217 29.692 18.832 29.6342 19.5144 28.9229C20.1287 29.3126 20.5873 29.2734 20.441 28.4269C22.1376 29.6733 20.675 25.672 20.2844 25.1462C20.4895 24.9224 19.9041 23.9585 20.7822 23.6369C21.1523 24.9616 21.2697 26.2854 22.2933 27.2485L23.1425 27.4433L23.3663 26.5092C23.1519 25.1266 21.9326 22.0603 21.2306 22.7903C20.8307 22.4108 20.2555 22.2552 19.8649 21.8944C19.8266 21.9335 19.7679 22.0016 19.7288 22.0408C19.7484 22.0603 19.7969 22.0986 19.8164 22.1182C17.9538 24.0852 20.4503 24.9998 20.0215 26.9473C19.5237 27.9496 19.5042 26.499 19.4846 26.4794C19.5237 26.4411 19.5629 26.3628 19.602 26.2854C19.5731 26.2658 19.5535 26.2463 19.5144 26.2071C19.8164 25.6328 19.1732 25.1657 18.8124 24.7761C18.3342 24.7863 18.666 25.7596 18.7732 26.0029C17.9147 26.801 18.1878 25.4576 18.0611 24.9122C17.8662 25.1947 17.7292 25.4184 17.622 25.7792L17.6611 25.8175L17.2025 26.3143L17.057 26.1391C17.2714 24.7276 18.4218 23.1111 19.1238 21.8944C18.9 21.6417 16.9302 22.4202 16.247 22.4398C16.1006 22.6346 14.6482 24.8152 14.1793 24.8246C13.8577 24.2988 14.6286 23.8615 14.9792 23.374C14.9502 23.3552 14.9307 23.3357 14.9111 23.3161C15.0089 23.1698 15.0864 23.0141 15.1647 22.849C14.6482 22.547 13.1268 23.9976 12.2683 23.1111L14.8822 22.4006C14.0628 21.8366 13.5165 22.2449 12.8043 22.2645L12.5703 21.9727C12.6384 21.914 12.6877 21.8459 12.7652 21.7676C12.8145 21.8068 12.8341 21.8263 12.8537 21.8459C14.2678 21.6902 17.2714 22.3036 18.09 21.4273C18.09 21.4273 18.1198 21.4469 18.1589 21.486C18.1878 21.4469 18.9775 21.1551 19.0072 21.1644C19.2217 20.5706 17.8075 18.9055 17.7003 19.0127C17.1344 18.4776 14.3257 18.9353 15.2327 17.9714L16.3448 18.2436C16.384 18.1951 16.4035 18.1756 16.4418 18.1373C16.1108 17.9518 14.5112 16.6084 14.3648 16.3455C14.8039 15.8877 16.8324 18.2828 17.3293 18.0105L16.9592 17.0074C16.9787 16.9878 16.9983 16.9683 17.0179 16.9495C16.8809 16.7743 16.7541 16.6177 16.6273 16.4135C17.0272 15.7908 17.6322 17.4456 17.7394 17.66C17.7199 17.6795 17.7199 17.6795 17.6807 17.7178C17.7003 17.7374 18.3827 18.9549 18.4805 18.8477C20.3533 20.8045 19.2506 21.2427 21.5522 18.7992C21.1821 18.4487 20.0802 16.0537 20.4988 15.6061L21.6696 17.4847C21.9623 17.0559 21.2017 15.2939 22.1087 15.265L22.6056 18.0488C22.6643 17.9518 22.7426 17.8744 22.8005 17.7672C22.7809 17.7476 22.7622 17.728 22.7426 17.7178C22.9375 17.5043 23.1034 17.2414 23.3178 17.0176C24.3806 18.7209 19.7484 20.3859 20.0308 21.3984C20.1287 21.3686 20.4801 21.583 20.5771 21.6707L20.6163 21.6315C21.5327 22.4883 22.9272 22.1573 23.8734 22.9945C23.9611 23.0728 25.1412 23.7245 25.3948 23.3255C25.6484 22.9264 24.8877 21.6706 24.8094 21.6026C23.7271 20.551 21.9623 21.5541 21.4161 20.95L23.9908 20.1613L25.2587 17.6404C25.1804 17.6404 24.6248 17.9807 24.5269 18.0394C24.4878 18.0003 24.5465 16.8228 24.4001 16.4527L24.0785 16.9589C23.0932 16.5012 24.0198 15.236 23.5612 14.506C23.3272 14.5154 23.2106 14.7979 23.0345 14.9731C22.8592 14.8174 21.816 12.773 22.0108 12.5781Z" fill="#402020"/>
<path fill-rule="evenodd" clip-rule="evenodd" d="M8.04648 36.6801H8.30004C8.24218 37.0893 9.6172 36.2521 9.83163 36.3202C9.8997 36.4665 9.97798 36.7584 10.0852 36.8656L10.212 36.6801H10.28C10.4851 36.3006 10.6212 36.0964 10.7089 35.7263L11.3726 36.3976C11.4798 36.0667 11.7333 34.8406 11.2066 34.6747C11.0892 34.3242 11.0407 34.3149 11.2262 33.8767C12.2013 34.0035 11.5674 34.5097 11.8014 34.8015C11.7623 35.3954 12.026 35.9501 12.0065 36.5831C12.2498 36.5729 12.2498 36.2615 12.6106 36.2717C12.6208 37.1863 13.1764 36.6512 13.4981 36.3398C13.7908 36.9234 14.1422 37.0306 14.6391 37.3616C14.7957 36.9336 14.9224 36.5635 14.8731 36.1739L14.7565 35.483C14.9616 35.4924 15.1854 35.483 15.3513 35.4634C15.1173 34.8985 14.9616 35.1325 15.039 34.5293L15.1173 34.5386C15.176 34.4221 15.3317 34.3633 15.3998 34.3149C15.4491 33.9354 14.0545 33.7891 13.8103 33.7601C13.8495 33.5066 12.7672 32.9612 14.2588 33.1467C14.2494 33.2437 15.3419 33.7891 15.5461 33.9252C15.7512 33.419 15.3317 33.3705 15.4491 33.0982C15.6925 33.0106 15.9946 33.1467 16.2583 33.1756C16.2975 32.8838 16.1903 32.8157 15.9656 32.5724C16.0243 32.4652 16.2779 32.3674 16.3068 32.4746C16.7748 32.1734 16.7944 31.6476 16.9212 31.1507L16.9799 31.1609C17.0582 31.0435 17.1169 30.9363 17.1747 30.8002C17.1169 30.7321 16.8531 30.7517 16.7263 30.7423V30.8002L15.273 31.0044L15.3419 30.2846C14.8348 30.2548 14.6689 30.6249 14.1907 30.6641C14.0835 30.5279 14.1226 30.3722 14.0835 30.2259C14.0443 30.2165 13.9856 30.2063 13.9278 30.2063C13.7125 30.5569 13.6938 30.7423 13.6155 31.1796C13.5959 31.1796 13.5764 31.1703 13.5568 31.1703C13.4589 31.8909 12.66 32.1147 12.9229 31.0239C12.9424 31.0342 12.962 31.0342 12.9816 31.0342C13.0692 30.8393 13.7423 29.7392 13.6155 29.5733C13.5279 29.6031 13.4206 29.6516 13.2836 29.632C13.2547 29.564 13.5764 29.0577 13.6249 28.902C13.4206 28.902 13.3321 28.9505 13.1475 28.9608C13.1373 28.9897 13.1373 29.0092 13.1373 29.0288C13.0786 29.0186 13.0403 28.9897 13.0012 28.9897C13.0692 28.4545 12.4549 27.87 12.123 27.5391C12.123 27.5782 11.4891 28.4741 11.3819 28.8433C11.1675 28.8144 10.9531 28.5422 10.6893 28.5124C10.5727 28.8238 10.6697 29.3402 10.5532 29.632C10.5047 29.6227 10.4655 29.6422 10.446 29.632L10.2605 31.725C10.1533 31.6374 10.1533 31.5302 10.0171 31.5115C10.0945 30.197 10.2707 29.9051 9.29472 29.2041C9.26579 29.3206 9.24622 29.4278 9.19772 29.535C8.62252 29.6516 8.27111 29.0773 7.83206 29.0186L7.93927 29.7682C7.50021 29.7103 6.9548 29.4568 6.45703 29.3887L7.22793 31.0342C7.04244 31.0146 6.8663 31.0044 6.68166 30.9857L7.32493 31.8424L7.09094 32.261C7.52999 32.8251 9.3245 32.991 9.8512 32.8736C10.2409 33.3509 8.31025 33.4292 7.91969 33.4581C7.87119 33.818 8.07626 33.8282 8.02691 34.1787C7.78356 34.354 7.45171 34.9666 7.32493 35.3367C7.70527 35.386 7.98862 35.152 8.28047 35.1912C8.42682 35.3664 7.89077 36.3789 7.81248 36.6801H8.04648ZM9.89034 35.8429C10.5625 35.2686 10.0656 33.4777 11.2943 33.3611C11.2943 33.3415 11.3036 33.3024 11.3036 33.2828C11.4211 33.2922 11.3726 33.0786 11.6355 33.0786C11.9478 33.5262 12.4745 34.6654 12.3962 35.2882C12.4838 35.4047 12.3766 35.58 12.6106 35.6387C12.8642 35.1912 12.8352 35.084 12.7867 34.6262C12.9714 34.7139 13.5279 35.3077 13.7125 35.5417C13.7031 35.5996 14.103 35.5221 14.1124 35.5315C14.0835 35.3562 13.2249 34.3829 13.0692 34.3344C13.0692 34.2757 13.0786 34.2366 13.0786 34.1983C13.1373 34.2272 13.196 34.2562 13.2743 34.2859C13.2743 34.3046 13.2743 34.3242 13.2641 34.3438C13.7423 34.519 13.801 34.8304 14.2783 34.5582C13.9176 34.0911 11.9376 33.2633 12.1724 32.7179C12.757 32.757 13.3424 32.8055 13.9082 32.8642C13.9082 32.8447 13.9176 32.8055 13.9176 32.786C13.9567 32.786 13.9958 32.7962 14.0154 32.7962C14.035 32.8157 14.035 32.8549 14.0248 32.8736C14.0545 32.8549 14.0545 32.8157 14.0545 32.7962C14.5421 32.6796 15.2534 32.8447 15.3904 32.3189C15.3122 32.2312 14.9803 32.3291 14.8348 32.3291L15.8388 31.4817L14.6391 31.9394L14.9122 31.2579C14.9318 31.2673 14.9514 31.2673 14.9709 31.2673C14.9803 31.1507 14.9514 31.1022 14.9029 30.995C14.737 30.9755 14.3175 31.4817 14.2783 31.6084C14.2494 31.6084 14.2298 31.5982 14.2103 31.5982C13.9082 32.5333 12.7085 32.358 11.9869 32.2704C11.8797 32.1147 12.2303 31.1414 12.2405 31.0827C12.6795 31.0146 12.8837 29.866 12.8352 29.4959C12.8157 29.4959 12.7961 29.467 12.757 29.467C12.7765 29.2815 12.3962 30.6547 12.0745 30.6156C12.1137 30.3135 12.66 28.9803 12.26 28.8731C12.123 29.3206 11.9086 29.7001 11.7725 30.1289C11.7529 30.1289 11.7529 30.1289 11.7138 30.1187C11.6942 30.265 11.6551 30.4207 11.6159 30.5569C11.1479 30.499 11.4015 29.3887 11.1581 29.3598C11.1284 29.3989 11.1284 29.4176 11.1088 29.4372C11.0799 29.4372 11.0407 29.4278 11.0212 29.4278C10.8654 30.0991 11.3334 30.6734 11.4117 31.326C11.4406 31.326 11.3334 32.1045 11.3232 32.1436C10.68 32.6405 9.0318 31.1414 8.72973 31.1022C8.71952 31.1414 8.71952 31.1796 8.71016 31.229C8.12476 31.3362 7.67634 30.0506 7.48149 30.9661C7.56913 31.0827 8.03712 31.2486 8.01755 31.423C6.94458 31.8322 9.34407 32.2023 9.51935 32.2219C9.51935 32.2414 9.51935 32.2797 9.50999 32.2993C9.81206 32.3486 10.6017 32.6013 10.8552 32.7766C10.8263 33.0489 10.0852 33.4972 9.89034 33.5262C9.88012 33.5457 9.88013 33.5653 9.87077 33.6044C9.70484 33.5849 8.42682 34.4901 8.38768 34.5778L9.45128 34.3634L9.13901 35.2005C9.11944 35.2005 9.09987 35.1912 9.0803 35.1912C9.06073 35.3077 9.07094 35.4149 9.06073 35.5315C9.33386 35.5706 9.56785 35.1716 9.67506 35.0253C9.69463 35.0253 9.7142 35.0253 9.73377 35.0355C9.80184 35.1231 9.65549 35.6387 9.73377 35.8429C9.79248 35.8335 9.85119 35.8429 9.89034 35.8429ZM15.2245 32.7672C15.2049 32.7672 15.1854 32.7375 15.1956 32.7179C15.1658 32.7375 15.1462 32.757 15.1267 32.757L15.2245 32.7672ZM8.40725 31.7157C8.59274 31.6476 8.22261 31.4043 8.09583 31.4528C8.22261 31.5795 8.18347 31.6859 8.40725 31.7157ZM8.63188 30.927C8.67102 30.898 8.54424 30.294 8.52467 30.1672C8.44639 30.1578 8.35875 30.1187 8.30004 30.1187C8.03712 30.3237 8.44639 30.9074 8.63188 30.927Z" fill="#402020"/>
<path fill-rule="evenodd" clip-rule="evenodd" d="M16.6971 32.3789C16.6681 32.515 16.6486 32.6418 16.6486 32.7779C16.6383 33.7904 17.2918 34.6182 18.1112 34.6276C18.9306 34.6378 19.613 33.8295 19.6224 32.8264C19.6326 32.6903 19.613 32.5542 19.5935 32.4274C19.4377 33.2944 18.8328 33.9367 18.1206 33.9265C17.4092 33.9172 16.8332 33.2552 16.6971 32.3789Z" fill="#402020"/>
<path fill-rule="evenodd" clip-rule="evenodd" d="M19.3384 30.5586C19.3095 30.6854 19.2993 30.8215 19.2993 30.9576C19.2797 31.9607 19.9332 32.7877 20.7526 32.8073C21.572 32.8175 22.2544 32.0092 22.2739 31.0061C22.2739 30.87 22.2637 30.7339 22.245 30.6071C22.0791 31.4741 21.4741 32.1164 20.7619 32.1062C20.0599 32.0968 19.4745 31.4349 19.3384 30.5586Z" fill="#402020"/>
<path fill-rule="evenodd" clip-rule="evenodd" d="M16.6372 29.7305C16.6177 29.8572 16.5981 29.9934 16.5981 30.1295C16.5785 31.1326 17.232 31.9596 18.0607 31.9698C18.8801 31.9791 19.5532 31.1811 19.5728 30.178C19.5728 30.0325 19.5626 29.8964 19.5438 29.7696C19.3779 30.6357 18.7729 31.2781 18.071 31.2687C17.3588 31.2585 16.7734 30.5966 16.6372 29.7305Z" fill="#402020"/>
<path fill-rule="evenodd" clip-rule="evenodd" d="M18.6365 27.707C18.6076 27.8338 18.5974 27.9699 18.588 28.1061C18.5778 29.1185 19.2313 29.9463 20.0507 29.9557C20.8701 29.9659 21.5525 29.1576 21.5618 28.1546C21.572 28.0184 21.5525 27.8823 21.5329 27.7555C21.3772 28.6225 20.7722 29.2648 20.06 29.2546C19.3581 29.2453 18.7726 28.5834 18.6365 27.707Z" fill="#402020"/>
<path fill-rule="evenodd" clip-rule="evenodd" d="M25.0336 14.5025C25.043 14.5315 25.0336 14.5612 25.0336 14.5902V14.5995C24.946 14.9211 24.7511 15.184 24.5069 15.3491C24.2534 15.515 23.9411 15.5831 23.639 15.5056H23.6297C23.3267 15.4274 23.0928 15.2232 22.9464 14.9407C22.1568 13.4994 23.7369 11.962 25.2965 12.4002L25.3067 12.4096C26.9064 12.8188 29.3348 16.3615 26.555 13.7623C26.1261 13.3633 25.5697 13.0621 25.1604 12.9549C24.7894 12.8673 24.4193 12.9447 24.107 13.1591C23.7854 13.3829 23.5216 13.7334 23.4144 14.1716V14.1809C23.3659 14.3664 23.3855 14.551 23.4535 14.6872C23.5216 14.8241 23.639 14.9211 23.7752 14.9603C23.873 14.9892 23.9709 14.9798 24.0679 14.9407C23.8832 14.7944 23.7854 14.551 23.8534 14.3179C23.9317 13.9963 24.2636 13.8015 24.5852 13.8798C24.8677 13.9572 25.0532 14.2201 25.0336 14.5025Z" fill="#402020"/>
<path fill-rule="evenodd" clip-rule="evenodd" d="M38.3779 3.62102C38.4655 3.76735 38.5727 3.89412 38.6995 4.01068C39.0705 4.37057 39.5776 4.59433 40.1528 4.60454H40.2796H40.2992H40.3085C40.3672 4.60454 40.426 4.59433 40.4651 4.59433C40.5136 4.58498 40.5723 4.57562 40.6208 4.56541C40.8939 4.51691 41.1475 4.41907 41.3721 4.28294L41.4402 4.24465C41.1475 4.11789 40.9331 3.82606 40.9424 3.47553C40.9424 3.03736 41.3134 2.67662 41.7627 2.68683C42.2103 2.68683 42.571 3.05693 42.571 3.50446C42.5617 3.91284 42.2494 4.24465 41.8597 4.29315L41.9371 4.40035L41.9473 4.41907C42.0052 4.49734 42.0639 4.56541 42.132 4.63347C42.2009 4.70153 42.269 4.76024 42.3472 4.81895C42.7276 5.12013 43.216 5.28604 43.7512 5.26647C43.7512 5.26647 43.7512 5.25711 43.7708 5.25711H43.9069C43.9461 5.2469 43.9852 5.23754 44.0337 5.23754C44.2294 5.1984 44.4242 5.1397 44.6191 5.05207L44.8531 4.30251L43.9963 4.03025L44.317 3.0178L45.1849 3.29005L45.4487 2.4333L46.2281 2.67663L45.955 3.53338L46.8135 3.80649L46.4919 4.81895L45.6334 4.55605L45.3509 5.43237C45.7014 5.85097 46.1311 6.22022 46.794 5.80162L47.1062 5.60679L47.3496 5.89947L48.4421 7.24288L48.9007 6.77494C48.6957 6.60053 48.5697 6.34699 48.5697 6.05516C48.5791 5.53872 49.0079 5.12013 49.5244 5.13034C50.0418 5.1397 50.4613 5.5685 50.451 6.08409C50.451 6.40569 50.2851 6.67795 50.0316 6.84385L48.7152 8.17706C48.5978 8.3234 48.2371 8.34297 48.0813 8.1677L46.9114 6.70688C45.8188 7.2131 45.1849 6.58096 44.6676 5.94796C44.5119 6.00667 44.346 6.04495 44.1707 6.07473H44.1605C44.112 6.08409 44.0533 6.0943 43.9963 6.10366C43.9265 6.10366 43.8686 6.11302 43.8295 6.11302H43.7801C43.039 6.14279 42.3566 5.90882 41.8206 5.49023C41.7133 5.41281 41.6155 5.32517 41.5278 5.22733C41.5083 5.21797 41.4981 5.1984 41.4793 5.17884C41.2547 5.28604 41.0301 5.3541 40.7867 5.4026C40.7187 5.41281 40.6404 5.42217 40.5723 5.43237C40.4838 5.44173 40.4158 5.45109 40.3477 5.45109C40.3383 5.45109 40.3383 5.45109 40.3085 5.4613H40.1333C39.4696 5.45109 38.8552 5.22733 38.3592 4.84787V4.89637C38.3592 5.06227 38.1533 5.20776 37.9099 5.1984H37.5585C37.3143 5.18819 37.1101 5.04271 37.1194 4.8768V4.58498C37.1194 4.58498 37.1101 4.59433 37.0999 4.60454C36.5638 5.10056 35.8321 5.39324 35.0322 5.38303C34.9744 5.38303 34.9157 5.37367 34.8672 5.37367H34.8178C34.7599 5.36346 34.691 5.3541 34.6034 5.34389C34.5251 5.33453 34.457 5.31496 34.389 5.3056C34.1448 5.2469 33.921 5.16948 33.7066 5.06227C33.687 5.08184 33.6768 5.0912 33.6572 5.11077C33.5602 5.1984 33.4623 5.28604 33.3551 5.36346C32.7995 5.76334 32.1163 5.97689 31.3751 5.92839H31.3266C31.2875 5.91903 31.2288 5.90882 31.1607 5.90882C31.102 5.89947 31.0441 5.88926 30.9948 5.86969L30.9854 5.8799C30.8195 5.84076 30.6442 5.79226 30.4877 5.73356C29.961 6.34699 29.2981 6.96042 28.2252 6.42526L27.0161 7.82653C26.8986 7.97287 26.5574 7.99244 26.3822 7.83674L25.105 6.46355C24.8608 6.29849 24.7051 6.00667 24.7051 5.68506C24.7144 5.17883 25.1433 4.76024 25.6606 4.7696C26.1771 4.7696 26.5966 5.20776 26.5872 5.71399C26.5872 6.00667 26.4502 6.26956 26.2358 6.43462L26.6842 6.91192L27.8159 5.60679L28.0593 5.31496L28.3715 5.52937C29.1229 6.02538 29.6002 5.47066 29.9805 5.01293L29.7763 4.31272L28.9178 4.55605L28.6157 3.53338L29.4836 3.29005L29.2394 2.42394L30.0299 2.20018L30.2732 3.06629L31.1411 2.81275L31.4338 3.84478L30.5659 4.08811L30.8101 4.94487C30.9174 4.984 31.0339 5.01293 31.1514 5.04271C31.1905 5.04271 31.239 5.05206 31.2781 5.06227C31.3071 5.06227 31.3462 5.07163 31.4049 5.07163H31.4143H31.4338C31.9708 5.11077 32.4583 4.96443 32.848 4.68197C32.9263 4.62411 33.0037 4.55605 33.0624 4.49734C33.1305 4.42928 33.1994 4.36121 33.2573 4.28294L33.2675 4.26337L33.3458 4.16638C32.9552 4.10767 32.6625 3.75714 32.6625 3.35812C32.6727 2.91059 33.0429 2.55071 33.4921 2.56006C33.9405 2.56006 34.3013 2.93016 34.2911 3.37769C34.2911 3.71886 34.0673 4.01068 33.7644 4.12724L33.8333 4.16638C34.0571 4.31272 34.3107 4.40971 34.5744 4.47777C34.6332 4.48798 34.6817 4.49734 34.7404 4.5067C34.7693 4.5067 34.828 4.51691 34.8961 4.52627H34.9054H34.925H35.0518C35.6176 4.53648 36.135 4.33229 36.5247 3.98176C36.8267 3.69929 37.042 3.32919 37.1492 2.90124V2.5405L36.1248 2.52093C35.9299 2.52093 35.7836 2.18061 35.7929 1.77137C35.7929 1.36299 35.9588 1.03202 36.1443 1.03202L37.1781 1.05074L37.1875 0.311394C37.1875 0.136129 37.3926 0 37.6368 0L37.9873 0.00935937C38.2409 0.00935937 38.4366 0.155697 38.4366 0.330962L38.417 1.07031L39.4509 1.08988C39.6355 1.08988 39.7921 1.42084 39.7818 1.83008C39.7725 2.23846 39.6159 2.56942 39.4313 2.56942L38.3966 2.56006L38.3779 3.62102ZM39.6551 7.07697C39.2943 7.06762 38.9922 7.35944 38.982 7.71933C38.982 8.08943 39.2747 8.38126 39.6355 8.39147C39.9963 8.39147 40.2992 8.109 40.3085 7.7389C40.3085 7.37901 40.0158 7.07697 39.6551 7.07697ZM41.664 7.27181C41.3032 7.26245 41.0012 7.55428 40.9909 7.91417C40.9909 8.27491 41.2836 8.57609 41.6444 8.57609C42.0052 8.5863 42.3081 8.29447 42.3081 7.93373C42.3175 7.57384 42.0248 7.27181 41.664 7.27181ZM43.5078 7.64191C43.1462 7.64191 42.8442 7.93373 42.8442 8.29447C42.8348 8.65436 43.1275 8.9564 43.4883 8.9564C43.8584 8.96576 44.1511 8.67393 44.1605 8.31319C44.1707 7.9533 43.878 7.65127 43.5078 7.64191ZM46.7455 9.25758C46.3847 9.24822 46.0818 9.54005 46.0818 9.89994C46.0724 10.2607 46.3651 10.5627 46.7259 10.5721C47.0867 10.5721 47.3887 10.2896 47.3998 9.91951C47.3998 9.55962 47.1062 9.25758 46.7455 9.25758ZM45.2632 8.24513C44.9024 8.23577 44.5995 8.52759 44.5902 8.89769C44.58 9.25758 44.8727 9.55026 45.2436 9.55962C45.6044 9.56898 45.9065 9.27715 45.9065 8.91726C45.9167 8.54716 45.624 8.25534 45.2632 8.24513ZM30.1175 8.01201C30.4783 8.02137 30.771 8.3234 30.771 8.68329C30.7608 9.04403 30.4587 9.33586 30.098 9.32565C29.7372 9.32565 29.4445 9.02446 29.4445 8.66372C29.4538 8.30383 29.7568 8.01201 30.1175 8.01201ZM28.6055 8.98532C28.9663 8.98532 29.259 9.28736 29.2496 9.64725C29.2496 10.0071 28.9467 10.2998 28.5859 10.2998C28.2158 10.2896 27.9231 9.98757 27.9325 9.62768C27.9427 9.26779 28.2354 8.97511 28.6055 8.98532ZM31.8823 7.46664C32.243 7.476 32.5357 7.77804 32.5357 8.13793C32.5264 8.49867 32.2243 8.79049 31.8627 8.78113C31.5019 8.78113 31.2101 8.4791 31.2194 8.11921C31.2194 7.75847 31.5215 7.46664 31.8823 7.46664ZM33.7457 7.14504C34.1065 7.15525 34.3983 7.44707 34.389 7.81717C34.389 8.17706 34.0869 8.45953 33.7261 8.45953C33.3551 8.45017 33.0624 8.15749 33.0726 7.7976C33.082 7.42751 33.3747 7.14504 33.7457 7.14504ZM35.7546 7.01912C36.1154 7.01912 36.4081 7.32031 36.4081 7.68105C36.3979 8.05029 36.0958 8.33276 35.7351 8.33276C35.3743 8.3234 35.0816 8.02137 35.0909 7.66148C35.0909 7.30074 35.3938 7.00891 35.7546 7.01912ZM37.7048 6.97998C38.0656 6.98934 38.3592 7.29138 38.3592 7.65127C38.3481 8.01201 38.046 8.30383 37.6853 8.29447C37.3245 8.29447 37.0318 7.99244 37.042 7.6317C37.042 7.27181 37.3441 6.97998 37.7048 6.97998ZM37.7244 5.71399C43.3513 5.79226 47.9061 7.42751 47.8763 9.33586C47.8763 9.55026 47.8184 9.75445 47.701 9.95864C46.862 8.3234 42.708 6.84386 37.7142 6.76558C32.7119 6.68816 28.5085 8.05029 27.621 9.65661C27.5138 9.45242 27.4645 9.23801 27.4645 9.03382C27.4943 7.11611 32.1069 5.62636 37.7244 5.71399ZM37.6853 8.54716C42.4051 8.61523 46.2477 9.59875 46.2281 10.7278C46.2188 11.3701 44.9901 11.9248 43.0782 12.266C44.0048 11.9546 44.551 11.5454 44.5604 11.0877C44.58 10.0071 41.4887 9.08232 37.6759 9.02446C33.8623 8.96576 30.7514 9.80295 30.7319 10.8835C30.7217 11.331 31.2679 11.7598 32.175 12.1001C30.2732 11.7011 29.0641 11.1072 29.0735 10.4751C29.0931 9.34522 32.9552 8.46889 37.6853 8.54716Z" fill="#402020"/>
<path fill-rule="evenodd" clip-rule="evenodd" d="M8.02716 26.6821C8.03652 26.6532 8.04673 26.6234 8.04673 26.5945C8.04673 26.2635 7.92931 25.9521 7.74467 25.7284C7.53961 25.5038 7.26647 25.3481 6.94484 25.3481C6.62321 25.3387 6.33986 25.4851 6.1348 25.7088C4.98441 26.8965 6.09651 28.7845 7.7251 28.7751C8.23222 28.7845 8.95377 28.6194 9.5579 28.2978C10.1918 27.9669 10.7091 27.4606 10.7185 26.8183C10.7185 26.6626 10.5917 26.5264 10.436 26.5264C10.2803 26.5264 10.1535 26.6532 10.1433 26.8089C10.1433 27.2079 9.76296 27.5483 9.29498 27.8018C8.77849 28.0647 8.1633 28.2204 7.73446 28.2102C7.35412 28.2008 7.01291 28.0256 6.77892 27.7337C6.52536 27.4411 6.36965 27.0225 6.37901 26.5749V26.5656C6.37901 26.3801 6.44708 26.2048 6.55429 26.0883C6.65214 25.9811 6.78828 25.913 6.93463 25.913C7.03248 25.913 7.13033 25.9522 7.20776 26.01C6.99334 26.0976 6.83763 26.3027 6.82742 26.5554C6.82742 26.8863 7.09119 27.1594 7.42219 27.1688C7.7251 27.1688 7.96845 26.9646 8.02716 26.6821Z" fill="#402020"/>
<path fill-rule="evenodd" clip-rule="evenodd" d="M48.0792 36.0878C48.0299 36.5353 48.44 37.0322 48.3515 37.4116C48.2256 37.4218 48.0503 37.4014 47.9813 37.4703C47.9524 37.4312 47.8844 37.3529 47.8741 37.3036C47.7184 37.364 47.7465 37.4218 47.7576 37.4508C47.8452 37.8787 47.972 38.3952 48.4987 38.5015V38.5398C48.6255 38.5117 49.4738 38.7542 49.8252 38.7653C49.8252 38.784 49.8346 38.7942 49.8346 38.8138C50.3221 38.6972 50.4591 39.485 50.0481 39.4553C49.8048 39.3974 49.0245 39.1447 48.976 38.9499C48.1575 38.921 47.7669 39.1047 46.9773 39.2613C46.9867 39.2808 47.5236 39.5335 47.6206 39.7284C47.5814 39.8066 46.6157 40.2644 46.4898 40.2933C46.5485 40.4099 46.8795 40.3324 47.0454 40.5758C46.9662 40.78 46.3043 41.2964 46.0898 41.4512C46.1579 41.7337 46.7331 41.2573 46.9092 41.3645C46.6838 41.5491 46.46 42.114 46.4795 42.3973C46.9867 42.405 47.2989 42.1821 47.7278 42.0749C47.7184 42.2791 47.738 42.4731 47.7857 42.6781L49.5512 41.88C49.5325 41.812 50.5272 41.1211 50.7025 41.1016C51.0343 42.0749 48.9471 41.88 48.8782 42.7955C48.8305 42.8831 48.5863 43.0873 48.6059 43.1545C48.7412 43.1358 49.3377 42.9316 49.3955 43.0005C49.3181 43.0482 48.6544 44.2359 48.6544 44.2359C48.9471 44.1968 49.113 44.0904 49.3377 44.0317C49.3666 44.1483 49.1522 44.2266 49.1607 44.2946C48.9573 44.3431 48.7522 45.3751 48.771 45.6474C48.7327 45.6576 48.7225 45.667 48.7029 45.667C48.7412 45.8524 48.6935 45.9401 48.7327 46.0762C49.0739 45.8618 49.1717 45.6474 49.4057 45.4908C49.4057 45.4721 49.3955 45.4432 49.3955 45.4228C49.5129 45.3947 49.6006 45.3164 49.7563 45.2781C49.6976 45.3462 49.6397 45.8524 49.6686 45.9401C49.6491 45.9401 49.6491 45.9401 49.6287 45.9494C49.6789 46.2804 49.6006 46.7186 49.6882 47.0691C49.9716 47.0299 51.1024 45.8814 51.3168 45.5504C51.3559 45.7546 51.3559 45.9588 51.4147 46.1638C51.7363 46.0856 51.7839 45.1999 51.8146 44.9174C52.0877 44.8493 52.2136 45.4041 52.1847 45.5793C52.2136 45.5504 52.2434 45.5402 52.2817 45.5308C52.2817 45.5019 52.3804 45.0152 52.4578 44.9957C52.4961 44.509 52.4093 44.1381 52.2919 43.6523C52.1166 42.445 52.5166 43.7008 52.6433 43.6718C52.7106 43.9637 53.4721 44.07 53.7163 44.7413C53.8039 44.5864 54.0669 43.8862 54.2319 43.8275C54.3008 44.0904 54.5646 44.5669 54.8863 44.5771C54.8863 44.3831 55.15 43.6327 55.0913 43.4285C55.15 43.4183 55.2181 43.4183 55.2862 43.3987C55.4521 43.5255 55.5397 43.7399 55.6376 43.9339C55.6563 43.9339 55.6767 43.9237 55.6954 43.9237C55.7244 44.0606 55.9592 44.0998 56.0273 44.2461C56.0469 44.2163 56.0571 44.2163 56.0954 44.2061C56.0954 43.6131 56.0664 43.5842 55.9201 42.9801C56.3396 42.7955 56.4757 42.5326 55.9677 42.3182C57.2075 41.8511 54.5842 41.2573 54.1741 41.2862C54.1247 41.1016 53.4134 41.082 53.5402 40.5077C54.3698 40.7604 55.1194 41.1586 55.9788 40.9459L56.3685 40.5656L55.949 40.1291C55.1398 39.7675 53.0917 39.3685 53.2483 39.9819C52.9063 40.0585 52.6238 40.3129 52.3021 40.4005C52.3115 40.4294 52.3208 40.4779 52.3311 40.5179C52.3506 40.5179 52.3804 40.5077 52.3991 40.4975C52.8093 42.1523 54.1553 41.1501 55.0428 42.0357C55.4129 42.6398 54.6327 42.1625 54.6131 42.1625C54.6038 42.1336 54.574 42.0842 54.5451 42.0357C54.5255 42.0357 54.5059 42.046 54.477 42.046C54.2711 41.6954 53.8039 41.88 53.4721 41.9379C53.3164 42.1906 53.9494 42.3471 54.1162 42.3769C54.243 43.0967 53.6278 42.4935 53.2968 42.3769C53.3751 42.5811 53.4517 42.7274 53.6091 42.9019L53.638 42.8925L53.7452 43.3111L53.598 43.3204C52.925 42.7274 52.4578 41.5686 52.0486 40.7902C51.8435 40.8191 51.5806 42.1225 51.3559 42.4935C51.4044 42.6296 52.0775 44.1483 51.9218 44.4018C51.5312 44.3831 51.561 43.8275 51.4147 43.477C51.4044 43.4864 51.3849 43.4864 51.3653 43.4966C51.3262 43.3987 51.2683 43.3017 51.2002 43.2039C50.8675 43.3698 51.122 44.6732 50.3613 44.8196L50.8675 43.1945C50.2932 43.437 50.3221 43.8658 50.0873 44.2461L49.8541 44.2657C49.8448 44.2163 49.8346 44.1678 49.815 44.0998C49.8448 44.0904 49.8635 44.0802 49.8831 44.0802C50.283 43.283 51.6291 41.9005 51.4538 41.1688C51.4538 41.1688 51.4734 41.1688 51.5014 41.1586C51.4929 41.1305 51.6087 40.6149 51.6197 40.6047C51.3755 40.2831 50.0099 40.4592 50.0294 40.5553C49.5512 40.6719 48.8399 42.3088 48.634 41.5006L49.1522 41.0148C49.142 40.9748 49.142 40.9544 49.1317 40.9263C48.9275 41.0335 47.6597 41.4223 47.4742 41.4027C47.3772 41.0148 49.347 40.7604 49.3666 40.4099L48.7131 40.2644C48.7029 40.2448 48.7029 40.2252 48.6935 40.2048C48.5574 40.2252 48.4306 40.2354 48.2843 40.2354C48.0886 39.816 49.1717 40.05 49.3274 40.0687C49.3274 40.0891 49.3274 40.0891 49.3377 40.1291C49.3564 40.118 50.2345 40.1767 50.2149 40.0891C51.8911 39.7675 51.7465 40.4975 51.2292 38.4539C50.9169 38.5313 49.2679 38.2973 49.1717 37.9179L50.5757 37.9366C50.4387 37.6354 49.2398 37.4414 49.5419 36.9539L51.1892 37.6354C51.1611 37.5775 51.1415 37.5095 51.1117 37.4414C51.093 37.4414 51.0735 37.4508 51.0539 37.4508C51.0147 37.2755 50.9356 37.1002 50.888 36.9156C52.1558 36.9343 51.4538 39.9428 52.0877 40.1368C52.1166 40.0789 52.3413 39.9623 52.4281 39.9428C52.4281 39.9223 52.4187 39.9223 52.4187 39.9138C53.1896 39.719 53.4823 38.8725 54.2523 38.6581C54.3204 38.6385 55.0717 38.2395 54.9441 37.9664C54.8275 37.6941 53.9018 37.6745 53.8329 37.6941C52.9063 37.9085 52.8382 39.1728 52.3311 39.2613L52.7897 37.626L51.8733 36.0971C51.8537 36.1465 51.8435 36.5549 51.8435 36.6229C51.8044 36.6331 51.2002 36.195 50.9467 36.1465L51.1117 36.4868C50.5365 36.8569 50.1758 35.9321 49.6287 35.9219C49.5512 36.0589 49.6686 36.2043 49.7078 36.36C49.5512 36.3992 48.1183 36.2537 48.0792 36.0878Z" fill="#402020"/>
<path fill-rule="evenodd" clip-rule="evenodd" d="M57.3142 37.4024C57.3337 37.5292 57.3533 37.6653 57.3431 37.8014C57.3337 38.8139 56.6522 39.6128 55.8328 39.6026C55.0125 39.5924 54.359 38.7654 54.3693 37.7632C54.3693 37.627 54.3888 37.4909 54.4186 37.3633C54.5445 38.2302 55.1308 38.8922 55.8421 38.9015C56.545 38.9117 57.1491 38.2685 57.3142 37.4024Z" fill="#402020"/>
<path fill-rule="evenodd" clip-rule="evenodd" d="M55.8513 34.9587C55.8802 35.0854 55.8904 35.2216 55.8904 35.3577C55.87 36.3701 55.1884 37.1682 54.369 37.1588C53.5496 37.1495 52.8962 36.3216 52.9064 35.3185C52.9157 35.1824 52.9259 35.0463 52.9549 34.9102C53.091 35.7865 53.6764 36.4484 54.3784 36.4578C55.0897 36.468 55.6956 35.8248 55.8513 34.9587Z" fill="#402020"/>
<path fill-rule="evenodd" clip-rule="evenodd" d="M54.4579 33.7516C54.4766 33.8784 54.4859 34.0145 54.4859 34.1506C54.4766 35.1537 53.795 35.9612 52.9756 35.9416C52.1562 35.9322 51.4934 35.1044 51.5121 34.1021C51.5121 33.966 51.5325 33.829 51.5512 33.7031C51.6874 34.5795 52.2736 35.2312 52.985 35.2507C53.6878 35.2609 54.2919 34.6177 54.4579 33.7423V33.7516Z" fill="#402020"/>
<path fill-rule="evenodd" clip-rule="evenodd" d="M25.854 36.216C25.8829 36.6635 25.4643 37.1502 25.5417 37.5305C25.6592 37.5398 25.8344 37.5305 25.9127 37.5986C25.9417 37.5603 26.0097 37.482 26.0199 37.4437C26.1663 37.5007 26.1365 37.5603 26.1365 37.5883C26.0293 38.0171 25.8829 38.5327 25.3562 38.6204V38.6604C25.2295 38.6204 24.3718 38.8441 24.0204 38.8348C24.0204 38.8543 24.011 38.8748 24.011 38.8935C23.5328 38.7565 23.3669 39.5358 23.777 39.5256C24.0306 39.4771 24.8202 39.244 24.8687 39.0585C25.6881 39.0492 26.0684 39.244 26.8487 39.4295C26.8487 39.4482 26.3024 39.6822 26.1952 39.8668C26.225 39.9544 27.1805 40.4411 27.3167 40.4802C27.2486 40.5874 26.927 40.4896 26.7415 40.744C26.8095 40.9371 27.463 41.4731 27.6681 41.6382C27.5898 41.9206 27.0342 41.4255 26.8589 41.5216C27.0827 41.7164 27.2877 42.2907 27.258 42.5732C26.7508 42.563 26.4394 42.3299 26.0097 42.2125C26.0199 42.4175 25.9902 42.6123 25.9417 42.8165L24.1965 41.9598C24.2152 41.8917 23.2503 41.1711 23.0742 41.1515C22.7134 42.1155 24.8006 41.9802 24.8398 42.8939C24.8883 42.9824 25.1223 43.1968 25.1027 43.2649C24.9759 43.2445 24.3811 43.0207 24.3233 43.0803C24.4007 43.1373 25.0253 44.3446 25.0253 44.3446C24.7419 44.2969 24.5768 44.1804 24.3522 44.1208C24.3131 44.2374 24.5377 44.3156 24.5181 44.3837C24.7223 44.4424 24.8883 45.4838 24.8687 45.756C24.8985 45.7663 24.918 45.7663 24.9376 45.7756C24.8883 45.9517 24.9376 46.0487 24.8985 46.1848C24.5573 45.9619 24.4688 45.7365 24.2348 45.5808C24.2348 45.5612 24.245 45.5229 24.2544 45.5127C24.1276 45.4744 24.0501 45.397 23.8936 45.357C23.9429 45.4251 23.9914 45.9219 23.9617 46.0189C23.9812 46.0189 23.9812 46.0189 23.9914 46.03C23.9429 46.3601 24.0008 46.7983 23.9038 47.1386C23.6204 47.0995 22.5288 45.9117 22.3331 45.5808C22.2752 45.7756 22.2752 45.9807 22.2165 46.1942C21.8846 46.0981 21.8651 45.2124 21.8455 44.9299C21.5724 44.8516 21.426 45.4055 21.4652 45.5808C21.4362 45.5518 21.3971 45.5425 21.3682 45.5331C21.3682 45.5034 21.2805 45.0065 21.2022 44.9869C21.1827 44.5011 21.2805 44.1404 21.4167 43.6537C21.6217 42.4473 21.1827 43.6937 21.0559 43.6631C20.9776 43.9557 20.2169 44.0332 19.954 44.6951C19.8664 44.5394 19.6222 43.8298 19.4562 43.7618C19.3882 44.0238 19.115 44.5011 18.7832 44.5011C18.7934 44.2969 18.5594 43.5474 18.6181 43.3517C18.5688 43.333 18.4913 43.333 18.4224 43.3125C18.2565 43.43 18.1595 43.6435 18.0523 43.8383C18.0327 43.8298 18.0131 43.8188 18.0029 43.8188C17.9646 43.9557 17.7306 43.9847 17.6524 44.1302C17.6422 44.1123 17.6226 44.1012 17.5937 44.0919C17.6132 43.4878 17.6328 43.4691 17.7987 42.8744C17.3886 42.6702 17.2618 42.4073 17.7689 42.2125C16.5505 41.7062 19.1831 41.1906 19.6026 41.2298C19.6511 41.0443 20.3633 41.0443 20.2561 40.47C19.4171 40.704 18.6564 41.0741 17.8081 40.8307L17.4277 40.4411L17.8574 40.0123C18.676 39.6822 20.7436 39.341 20.5683 39.9544C20.9002 40.0429 21.1725 40.305 21.4949 40.3934C21.4847 40.4317 21.4754 40.4802 21.4652 40.5185C21.4456 40.5091 21.4167 40.4998 21.3971 40.4998C20.9385 42.135 19.6324 41.0945 18.7151 41.9598C18.3254 42.5434 19.115 42.0865 19.1346 42.0967C19.144 42.0568 19.1737 42.0083 19.2027 41.9691C19.2222 41.9691 19.2418 41.9691 19.2707 41.9887C19.486 41.6382 19.954 41.833 20.2756 41.9011C20.422 42.1546 19.7881 42.3009 19.6222 42.3197C19.4758 43.0403 20.1097 42.4558 20.4509 42.3494C20.3539 42.5434 20.2756 42.6898 20.1199 42.865L20.0808 42.8557L19.9736 43.2649L20.1097 43.2836C20.8023 42.7093 21.3095 41.5616 21.7383 40.7916C21.9434 40.8307 22.168 42.1444 22.3824 42.5255C22.3237 42.6617 21.6115 44.1506 21.7579 44.4033C22.1484 44.4033 22.1289 43.8485 22.2846 43.5074C22.3041 43.5074 22.3135 43.5176 22.3331 43.5176C22.3824 43.43 22.4403 43.333 22.5092 43.2351C22.8402 43.4112 22.5483 44.7053 23.2988 44.8806L22.8402 43.2351C23.4162 43.498 23.3771 43.926 23.5915 44.3156L23.8255 44.3446C23.8349 44.2867 23.8544 44.2374 23.874 44.1693C23.8349 44.1599 23.8255 44.1599 23.8059 44.1506C23.4256 43.3423 22.1186 41.9206 22.3237 41.2008C22.3237 41.2008 22.3041 41.1906 22.2752 41.1813C22.2846 41.1515 22.1867 40.6359 22.1774 40.6257C22.4309 40.3152 23.7864 40.5296 23.7668 40.6257C24.2348 40.7525 24.8985 42.4175 25.1325 41.6186L24.6253 41.103C24.6347 41.0741 24.6347 41.0545 24.6449 41.0154C24.8593 41.1328 26.0982 41.5616 26.2931 41.5505C26.4003 41.1617 24.4398 40.8503 24.4305 40.4998L25.0933 40.373C25.0933 40.3534 25.1027 40.3339 25.1027 40.3152C25.249 40.3441 25.3665 40.3535 25.5222 40.3637C25.7272 39.9442 24.6347 40.1493 24.479 40.1688C24.479 40.179 24.479 40.179 24.4688 40.2173C24.4501 40.2071 23.5719 40.2369 23.6009 40.1586C21.9332 39.7792 22.0506 40.5185 22.6258 38.4842C22.938 38.5719 24.5956 38.3872 24.7036 38.0171L23.2988 37.9976C23.4452 37.6964 24.6449 37.5305 24.3616 37.0438L22.6938 37.676C22.7236 37.6079 22.7432 37.5398 22.7823 37.482C22.8019 37.482 22.8113 37.4922 22.8308 37.4922C22.8793 37.3161 22.967 37.1408 23.0163 36.9562C21.7579 36.9366 22.3526 39.974 21.7187 40.139C21.6992 40.0812 21.4754 39.9646 21.3877 39.9442C21.3877 39.9246 21.3877 39.9246 21.3971 39.9059C20.6364 39.7009 20.3633 38.8348 19.6026 38.6008C19.5345 38.5719 18.7934 38.1533 18.9295 37.8904C19.0563 37.6181 19.9829 37.6283 20.051 37.647C20.9683 37.8904 20.9972 39.1572 21.5043 39.2534L21.095 37.6181L22.0506 36.119C22.0795 36.1573 22.0795 36.5665 22.0795 36.6346C22.1093 36.644 22.7236 36.2356 22.9772 36.1964L22.8113 36.5274C23.3771 36.9068 23.7574 36.0016 24.3037 36.0118C24.3811 36.1377 24.2646 36.2934 24.2152 36.4398C24.3616 36.4883 25.8055 36.3819 25.854 36.216Z" fill="#402020"/>
<path fill-rule="evenodd" clip-rule="evenodd" d="M13.8384 38.5312C13.8188 38.658 13.7993 38.795 13.7993 38.9311C13.7797 39.9334 14.4332 40.7604 15.2526 40.7808C16.0813 40.7901 16.7544 39.9819 16.7739 38.9788C16.7739 38.8426 16.7637 38.7065 16.745 38.5806C16.5791 39.4467 15.9741 40.0891 15.2721 40.0789C14.5599 40.0695 13.9745 39.4076 13.8384 38.5312Z" fill="#402020"/>
<path fill-rule="evenodd" clip-rule="evenodd" d="M12.7459 36.7891C12.717 36.9252 12.7067 37.052 12.6974 37.1881C12.6872 38.2005 13.3406 39.0284 14.16 39.0377C14.9794 39.0479 15.6619 38.2397 15.6712 37.2357C15.6814 37.1005 15.6712 36.9643 15.6423 36.8376C15.4866 37.7045 14.8816 38.3469 14.1694 38.3358C13.4674 38.3282 12.882 37.6654 12.7459 36.7891Z" fill="#402020"/>
<path fill-rule="evenodd" clip-rule="evenodd" d="M16.19 37.6367C16.1704 37.7635 16.1508 37.9005 16.1508 38.0366C16.1312 39.0388 16.7847 39.8658 17.6135 39.876C18.4329 39.8956 19.1059 39.0873 19.1255 38.0842C19.1255 37.9481 19.1153 37.812 19.0966 37.6861C18.9306 38.5522 18.3257 39.1945 17.6237 39.1843C16.9115 39.175 16.3261 38.513 16.19 37.6367Z" fill="#402020"/>
<path fill-rule="evenodd" clip-rule="evenodd" d="M14.5513 34.6758C14.5317 34.8026 14.5121 34.9387 14.5121 35.0748C14.4926 36.0873 15.1563 36.9049 15.9748 36.9245C16.7942 36.9347 17.4673 36.1264 17.4868 35.1233C17.4868 34.9872 17.4766 34.851 17.4579 34.7243C17.292 35.5912 16.687 36.2336 15.985 36.2234C15.2728 36.214 14.6874 35.5521 14.5513 34.6758Z" fill="#402020"/>
<path fill-rule="evenodd" clip-rule="evenodd" d="M17.7212 35.2422C17.7016 35.369 17.6821 35.5051 17.6821 35.6412C17.6625 36.6443 18.3262 37.4713 19.1447 37.4815C19.9641 37.5011 20.6465 36.6928 20.6567 35.6897C20.6567 35.5442 20.6465 35.4175 20.6278 35.2813C20.4619 36.1474 19.8569 36.8 19.1549 36.7804C18.4427 36.7702 17.8676 36.1083 17.7212 35.2422Z" fill="#402020"/>
<path fill-rule="evenodd" clip-rule="evenodd" d="M19.7674 33.2148C19.7384 33.351 19.7189 33.4871 19.7189 33.6241C19.7087 34.6263 20.3621 35.4542 21.1815 35.4635C22.0009 35.4737 22.6833 34.6655 22.7029 33.6624C22.7029 33.5262 22.6927 33.3901 22.6638 33.2633C22.5081 34.1303 21.9031 34.7727 21.1909 34.7625C20.4889 34.7531 19.9035 34.0912 19.7674 33.2148Z" fill="#402020"/>
<path fill-rule="evenodd" clip-rule="evenodd" d="M40.6768 49.6278C40.7653 49.4525 40.8325 49.2875 40.9117 49.0926L40.9593 49.1029C40.9797 48.9267 41.0376 48.7523 41.0869 48.606C41.4179 48.6553 41.3014 49.0535 41.6809 49.1029C41.7489 48.5958 41.8178 47.6522 41.349 47.34L41.3881 46.8048C41.9063 46.8729 42.0135 47.0677 41.954 47.5552C42.0714 47.8564 42.2075 48.1585 42.3148 48.4699C42.6568 48.5183 42.4033 48.041 42.7632 48.0215C42.7547 48.1491 43.4362 48.5779 43.5928 48.5575C43.6124 48.3822 43.2814 48.0317 43.7 48.013C44.3339 48.8391 44.6657 48.4401 45.5141 48.4111C45.5141 48.372 45.5141 48.3635 45.5243 48.3431C45.5532 48.3337 45.5719 48.3235 45.6017 48.3235C45.6111 48.275 45.6315 48.2274 45.64 48.1967C45.4945 48.1585 45.3286 48.0708 45.1635 48.0317C45.1635 48.0215 45.1729 47.9832 45.1524 47.973C43.4566 47.3791 42.49 45.384 40.453 45.1211L38.0638 45.4223C37.4588 45.9591 37.0291 46.7768 36.9219 47.574C37.1082 47.5255 37.4094 47.3791 37.5464 47.3791C37.7617 47.682 37.1082 49.1029 37.4681 49.2288C37.5856 49.0535 38.7649 47.9534 38.7853 47.9636L39.2533 48.4596C39.1461 48.013 39.1937 46.6491 39.8089 46.7368C40.1203 47.1358 39.2439 48.703 39.6626 48.6553C39.917 48.4596 39.8574 48.4316 40.2182 48.4503C40.179 48.714 40.2863 49.6576 40.6768 49.6278ZM40.8325 48.2555L41.4384 48.5183L41.3294 48.1772C41.3694 48.0895 40.3748 44.7212 39.8276 45.6962C40.0131 45.9387 40.2863 46.2595 40.2386 46.5904C40.442 46.6202 39.7596 47.7305 40.3458 47.9534C40.4037 47.7781 40.3747 47.6139 40.4139 47.4183C40.453 47.4276 40.4615 47.4276 40.482 47.4276C40.482 47.4081 40.4922 47.3791 40.4922 47.3596C40.5211 47.3698 40.5398 47.3698 40.5687 47.3698C40.6581 47.6709 40.5509 48.1287 40.8325 48.2555ZM38.2782 47.574C38.336 47.5255 38.473 46.9512 38.5028 46.8729C38.8049 46.7665 38.707 47.3502 38.9699 47.3791V47.3315L39.0184 47.34C39.0865 47.1953 39.0576 46.6585 39.0865 46.4254L39.1367 46.4347C39.2141 46.114 39.4286 45.8809 39.5162 45.5397C39.175 45.5005 39.2329 45.384 39.0772 45.8604C39.0184 45.8604 38.1123 46.4254 38.0638 46.5521C37.526 46.4841 37.6145 47.8266 37.9651 46.941C38.0527 46.8831 38.1123 46.8448 38.1897 46.8346C38.1514 47.009 38.1318 47.1749 38.0918 47.3502C38.142 47.3596 38.0527 47.574 38.2782 47.574Z" fill="#402020"/>
<path fill-rule="evenodd" clip-rule="evenodd" d="M45.2318 44.3141C45.2505 44.4111 45.2598 44.5183 45.2505 44.6153C45.2411 45.3852 44.7238 45.9885 44.1103 45.9791C43.4849 45.9689 42.988 45.3461 42.9982 44.5863C43.0084 44.48 43.0169 44.3821 43.0373 44.2852C43.1343 44.9471 43.5836 45.4431 44.1188 45.4533C44.6557 45.4635 45.105 44.976 45.2318 44.3141Z" fill="#402020"/>
<path fill-rule="evenodd" clip-rule="evenodd" d="M46.8997 43.2626C46.9091 43.3588 46.9185 43.4575 46.9185 43.5638C46.9091 44.3227 46.3918 44.937 45.7681 44.9277C45.1529 44.9175 44.656 44.2845 44.6662 43.5255C44.6662 43.4286 44.6849 43.3205 44.6951 43.2227C44.8032 43.8854 45.2422 44.3908 45.7783 44.3908C46.3143 44.4019 46.773 43.9152 46.8997 43.2626Z" fill="#402020"/>
<path fill-rule="evenodd" clip-rule="evenodd" d="M43.1825 44.0908C43.2021 44.1869 43.2114 44.2856 43.2114 44.392C43.1919 45.1509 42.6847 45.7651 42.061 45.7558C41.4365 45.7447 40.9489 45.1228 40.9591 44.3622C40.9591 44.2558 40.9685 44.1486 40.9881 44.0508C41.0953 44.7127 41.5343 45.2189 42.0704 45.2291C42.6073 45.2394 43.0651 44.7433 43.1825 44.0908Z" fill="#402020"/>
<path fill-rule="evenodd" clip-rule="evenodd" d="M44.9388 42.6696C44.9575 42.7665 44.9575 42.8737 44.9575 42.9809C44.9482 43.7407 44.4308 44.3439 43.8173 44.3346C43.1919 44.3235 42.695 43.7016 42.7052 42.941C42.7052 42.8346 42.724 42.7376 42.7444 42.6406C42.8414 43.3026 43.2813 43.7986 43.8173 43.8088C44.3534 43.819 44.812 43.3315 44.9388 42.6696Z" fill="#402020"/>
<path fill-rule="evenodd" clip-rule="evenodd" d="M46.4301 41.1798C46.4497 41.2768 46.4591 41.3746 46.4497 41.4818C46.4404 42.2407 45.923 42.855 45.3095 42.8448C44.6841 42.8346 44.1872 42.2016 44.2076 41.4427C44.2076 41.3457 44.2161 41.2385 44.2357 41.1406C44.3429 41.8026 44.782 42.2994 45.318 42.3088C45.8549 42.3198 46.3127 41.8332 46.4301 41.1798Z" fill="#402020"/>
<path fill-rule="evenodd" clip-rule="evenodd" d="M42.9598 42.0953C42.9794 42.1915 42.9888 42.2995 42.9888 42.4059C42.9794 43.1665 42.4621 43.7697 41.8384 43.7604C41.224 43.7501 40.7263 43.1274 40.7365 42.3676C40.7365 42.2612 40.7458 42.1634 40.7654 42.0664C40.8726 42.7283 41.3117 43.2235 41.8477 43.2346C42.3846 43.2439 42.8424 42.7564 42.9598 42.0953Z" fill="#402020"/>
<path fill-rule="evenodd" clip-rule="evenodd" d="M44.393 40.6055C44.4126 40.7025 44.422 40.8004 44.422 40.9067C44.4032 41.6665 43.8953 42.2799 43.2724 42.2706C42.647 42.2595 42.1501 41.6274 42.1705 40.877C42.1705 40.7706 42.179 40.6642 42.1986 40.5664C42.3058 41.2275 42.7449 41.7346 43.2809 41.7448C43.8178 41.7448 44.2756 41.2581 44.393 40.6055Z" fill="#402020"/>
<path fill-rule="evenodd" clip-rule="evenodd" d="M32.9624 49.513C32.8841 49.3377 32.8161 49.1624 32.748 48.9778H32.6986C32.6791 48.8017 32.6306 48.6273 32.5821 48.4809C32.2596 48.5107 32.3481 48.9191 31.9677 48.9582C31.9184 48.4427 31.8792 47.5076 32.3574 47.2047L32.3379 46.6696C31.8214 46.7189 31.704 46.9138 31.7525 47.4004C31.6257 47.7016 31.4802 48.0045 31.3628 48.3048C31.0216 48.3448 31.2845 47.8675 30.9237 47.8377C30.9339 47.9654 30.2311 48.3729 30.0754 48.355C30.066 48.1798 30.4072 47.8377 29.9971 47.7994C29.3249 48.6077 29.0126 48.1985 28.1643 48.15C28.1643 48.1117 28.1643 48.1015 28.1541 48.0819C28.1252 48.0726 28.1056 48.0521 28.0758 48.0623C28.0664 48.0045 28.0469 47.9654 28.0469 47.9262C28.1932 47.8973 28.3591 47.819 28.5251 47.7799C28.5251 47.7697 28.5149 47.7314 28.5344 47.722C30.2507 47.1767 31.2845 45.2105 33.3232 45.0156L35.7023 45.3849C36.2979 45.9404 36.6969 46.7776 36.7752 47.5757C36.5999 47.517 36.2877 47.3613 36.1609 47.3613C35.9362 47.6531 36.5514 49.0944 36.1804 49.2109C36.063 49.0357 34.922 47.8973 34.9033 47.9058L34.4149 48.384C34.5417 47.9458 34.5323 46.5828 33.918 46.6415C33.5963 47.0405 34.4251 48.6273 34.0056 48.5686C33.7622 48.3644 33.8201 48.3448 33.4593 48.3448C33.4891 48.6077 33.3428 49.5521 32.9624 49.513ZM32.845 48.1406L32.2409 48.384L32.3574 48.0419C32.3183 47.9551 33.4108 44.6157 33.9273 45.6095C33.7325 45.8435 33.4593 46.1634 33.4891 46.485C33.2934 46.5147 33.9273 47.6437 33.3428 47.8488C33.2934 47.6735 33.3232 47.5076 33.2934 47.3128C33.2551 47.3128 33.2449 47.323 33.2253 47.323C33.2253 47.3026 33.216 47.2745 33.216 47.2549C33.1862 47.2549 33.1666 47.2643 33.1377 47.2643C33.0398 47.5553 33.1377 48.0241 32.845 48.1406ZM35.4198 47.5272C35.3713 47.4872 35.2445 46.9044 35.2147 46.8261C34.9126 46.7096 35.0003 47.2932 34.7374 47.323V47.2643L34.688 47.2745C34.6199 47.1282 34.6684 46.593 34.6395 46.359L34.6004 46.3684C34.5323 46.0366 34.3272 45.8043 34.2396 45.4631C34.5808 45.4334 34.5323 45.3074 34.6684 45.7941C34.7271 45.7941 35.6248 46.3982 35.664 46.5232C36.2 46.4662 36.0732 47.8097 35.7516 46.9044C35.664 46.8457 35.6146 46.8057 35.527 46.7972C35.5661 46.9725 35.5755 47.1375 35.6146 47.3128C35.5661 47.323 35.6538 47.5365 35.4198 47.5272Z" fill="#402020"/>
<path fill-rule="evenodd" clip-rule="evenodd" d="M27.8537 44.3711C27.8341 44.4774 27.8146 44.5855 27.8146 44.7021C27.8052 45.5392 28.3515 46.2207 29.0339 46.2301C29.7069 46.2395 30.2719 45.5673 30.2915 44.7412C30.2915 44.6238 30.2821 44.5064 30.2626 44.4094C30.1264 45.1206 29.6286 45.6558 29.0339 45.6456C28.4485 45.6354 27.9711 45.0917 27.8537 44.3711Z" fill="#402020"/>
<path fill-rule="evenodd" clip-rule="evenodd" d="M25.9709 43.1836C25.9513 43.2908 25.9318 43.398 25.9318 43.5146C25.9224 44.3415 26.4687 45.0332 27.1511 45.0434C27.8241 45.0528 28.3891 44.3798 28.3993 43.5545C28.4087 43.4363 28.3993 43.3299 28.3797 43.2125C28.2436 43.9332 27.7458 44.4683 27.1511 44.4589C26.5657 44.4589 26.0883 43.9042 25.9709 43.1836Z" fill="#402020"/>
<path fill-rule="evenodd" clip-rule="evenodd" d="M29.9982 43.8555C29.9693 43.9635 29.9591 44.0801 29.9591 44.1966C29.9497 45.0236 30.4858 45.7153 31.1682 45.7247C31.8515 45.7349 32.4164 45.0636 32.4267 44.2349C32.4267 44.1192 32.4164 44.0018 32.3977 43.8955C32.2709 44.6161 31.7638 45.1504 31.1784 45.1402C30.593 45.1317 30.1055 44.5855 29.9982 43.8555Z" fill="#402020"/>
<path fill-rule="evenodd" clip-rule="evenodd" d="M28.1936 42.5625C28.1646 42.6697 28.1544 42.7769 28.1544 42.8935C28.1451 43.7213 28.6811 44.4121 29.3635 44.4224C30.0468 44.4317 30.6118 43.7596 30.622 42.9335C30.622 42.8152 30.6118 42.6986 30.593 42.6016C30.4663 43.3121 29.9591 43.8472 29.3737 43.8379C28.7883 43.8276 28.3008 43.284 28.1936 42.5625Z" fill="#402020"/>
<path fill-rule="evenodd" clip-rule="evenodd" d="M27.0822 41.4219C27.0627 41.5291 27.0533 41.6363 27.0431 41.7537C27.0337 42.59 27.58 43.2724 28.2624 43.2809C28.9355 43.2911 29.5004 42.619 29.52 41.792C29.52 41.6754 29.5106 41.5691 29.4911 41.461C29.3549 42.1808 28.8572 42.7074 28.2624 42.7074C27.677 42.6972 27.1997 42.1425 27.0822 41.4219Z" fill="#402020"/>
<path fill-rule="evenodd" clip-rule="evenodd" d="M30.0647 41.7734C30.0451 41.8806 30.0255 41.9972 30.0255 42.1053C30.0161 42.9416 30.5624 43.6231 31.2346 43.6426C31.9179 43.652 32.4829 42.9807 32.4931 42.1435C32.5024 42.0372 32.4931 41.9198 32.4735 41.8126C32.3374 42.5324 31.8302 43.0684 31.2448 43.0581C30.6594 43.0488 30.1719 42.5034 30.0647 41.7734Z" fill="#402020"/>
<path fill-rule="evenodd" clip-rule="evenodd" d="M28.6135 40.3984C28.5939 40.5056 28.5743 40.6222 28.5743 40.7294C28.565 41.5666 29.1112 42.2481 29.7834 42.2574C30.4667 42.2668 31.0317 41.6057 31.0419 40.7685C31.0513 40.652 31.0419 40.5448 31.0223 40.4376C30.8862 41.1591 30.3791 41.6934 29.7937 41.6832C29.2082 41.6738 28.7207 41.1191 28.6135 40.3984Z" fill="#402020"/>
<path fill-rule="evenodd" clip-rule="evenodd" d="M35.6063 44.5562C35.5774 44.5758 35.5476 44.5758 35.5187 44.5851C35.1868 44.6345 34.8652 44.5664 34.6116 44.4099C34.3581 44.2542 34.1632 44.0015 34.1139 43.6901V43.6807C34.0654 43.3685 34.1632 43.0665 34.3581 42.8333C35.4506 41.4312 37.4008 42.4922 37.6348 43.953C37.742 44.3418 37.6059 44.7706 37.1081 45.8129C37.4297 44.6243 37.4493 43.7777 36.4648 43.1643C36.133 42.9593 35.7041 42.8725 35.2549 42.9414H35.2455C35.06 42.9788 34.8941 43.0665 34.7971 43.1932C34.6993 43.3098 34.6508 43.4468 34.6797 43.5923C34.6899 43.6901 34.7384 43.7777 34.8065 43.8458C34.8652 43.622 35.0507 43.4366 35.3042 43.3983C35.6259 43.3489 35.9381 43.5633 35.996 43.8951C36.0454 44.1853 35.8692 44.4601 35.6063 44.5562Z" fill="#402020"/>
<path fill-rule="evenodd" clip-rule="evenodd" d="M38.1887 44.5952C38.2168 44.6139 38.2372 44.6241 38.267 44.6241H38.2772C38.5971 44.6922 38.9196 44.6241 39.1833 44.4778C39.4471 44.3315 39.642 44.0796 39.6998 43.7665C39.7585 43.456 39.6709 43.1556 39.4846 42.9115C38.4422 41.4702 36.4529 42.4733 36.1695 43.9333C36.053 44.3127 36.1797 44.7509 36.6477 45.8127C36.355 44.6046 36.3652 43.7665 37.3693 43.1837C37.7105 42.9889 38.1402 42.9115 38.5886 42.9983C38.7834 43.028 38.94 43.125 39.037 43.262C39.1246 43.3777 39.174 43.5138 39.1442 43.6602C39.1246 43.7589 39.0761 43.8457 38.9979 43.9137C38.9502 43.6797 38.7732 43.4951 38.5205 43.4458C38.198 43.3879 37.8764 43.5921 37.8177 43.9231C37.7598 44.2157 37.9257 44.488 38.1887 44.5952Z" fill="#402020"/>
<path fill-rule="evenodd" clip-rule="evenodd" d="M60.2207 39.2305C60.2394 39.3667 60.2497 39.5019 60.2497 39.6398C60.2301 40.642 59.5579 41.4401 58.7283 41.4307C57.9097 41.4214 57.2562 40.5944 57.2758 39.5904C57.2758 39.4543 57.2852 39.3182 57.3141 39.1914C57.4511 40.0669 58.0365 40.7203 58.7478 40.7297C59.4507 40.7399 60.0548 40.1069 60.2207 39.2305Z" fill="#402020"/>
<path fill-rule="evenodd" clip-rule="evenodd" d="M61.3598 37.5266C61.3887 37.6533 61.3989 37.7903 61.3887 37.9264C61.3794 38.9287 60.697 39.7369 59.8776 39.7267C59.0582 39.7174 58.4047 38.8904 58.4243 37.8873C58.4243 37.7512 58.4345 37.6151 58.4634 37.4883C58.5995 38.3552 59.1849 39.0172 59.8878 39.0265C60.5991 39.0359 61.2041 38.3935 61.3598 37.5266Z" fill="#402020"/>
<path fill-rule="evenodd" clip-rule="evenodd" d="M59.627 35.3688C59.6457 35.4956 59.6559 35.6317 59.6559 35.7678C59.6363 36.7709 58.9539 37.5783 58.1345 37.5588C57.316 37.5494 56.6625 36.7216 56.6821 35.7193C56.6821 35.5832 56.6914 35.4462 56.7204 35.3203C56.8573 36.1864 57.4428 36.8484 58.1447 36.8679C58.8569 36.8773 59.461 36.2256 59.627 35.3688Z" fill="#402020"/>
<path fill-rule="evenodd" clip-rule="evenodd" d="M37.1955 12.3047C45.1351 12.3047 51.5609 18.7104 51.5609 26.6058C51.5609 34.5004 45.1351 40.9061 37.1955 40.9061C29.267 40.9061 22.8301 34.5004 22.8301 26.6058C22.8301 18.7104 29.267 12.3047 37.1955 12.3047ZM37.1955 13.2295C44.6169 13.2295 50.6445 19.2166 50.6445 26.6058C50.6445 33.9942 44.6169 39.9813 37.1955 39.9813C29.7741 39.9813 23.7567 33.9942 23.7567 26.6058C23.7567 19.2166 29.7741 13.2295 37.1955 13.2295Z" fill="#402020"/>
<path d="M0 59.8805L0.819398 53.9631H0.94618L3.36523 58.8204L5.76387 53.9631H5.85151L6.69984 59.8805H6.12379L5.52988 55.6469L3.43331 59.8805H3.27674L1.15124 55.618L0.585406 59.8805H0ZM12.5318 59.8805H11.9081V55.3355L7.99743 59.8805H7.86044V53.9631H8.4552V58.577L12.3956 53.9631H12.5318V59.8805ZM13.9562 53.9631H14.5509V56.4441H17.5741V53.9631H18.1689V59.8805H17.5741V57.0192H14.5509V59.8805H13.9562V53.9631ZM25.1418 55.053L24.6738 55.4121C24.4109 55.082 24.108 54.8293 23.7379 54.654C23.3771 54.4787 22.9865 54.3911 22.5475 54.3911C22.0795 54.3911 21.6413 54.5077 21.2312 54.7306C20.8313 54.9552 20.5181 55.2674 20.2952 55.6469C20.0808 56.0263 19.9634 56.4645 19.9634 56.941C19.9634 57.6624 20.2161 58.2657 20.7138 58.7523C21.2023 59.2296 21.8362 59.4729 22.5866 59.4729C23.4162 59.4729 24.108 59.1513 24.6738 58.4996L25.1418 58.8595C24.8398 59.2296 24.479 59.5214 24.0306 59.7256C23.5915 59.9307 23.0938 60.037 22.5475 60.037C21.5145 60.037 20.6943 59.6874 20.0902 58.9948C19.5932 58.4214 19.3397 57.7101 19.3397 56.8925C19.3397 56.0263 19.6417 55.2964 20.2561 54.7025C20.861 54.1086 21.6217 53.8168 22.5381 53.8168C23.0938 53.8168 23.5915 53.9232 24.0399 54.1376C24.4875 54.3622 24.8593 54.6625 25.1418 55.053ZM26.3314 53.9631H26.9363V56.182L29.3163 53.9631H30.1059L27.2486 56.6202L30.3305 59.8805H29.54L26.9363 57.1171V59.8805H26.3314V53.9631ZM35.8893 59.8805H35.275V55.3355L31.3541 59.8805H31.218V53.9631H31.8127V58.577L35.7523 53.9631H35.8893V59.8805ZM42.0037 59.8805H41.38V55.3355L37.4694 59.8805H37.3324V53.9631H37.9272V58.577L41.8676 53.9631H42.0037V59.8805ZM38.2394 52.5312H38.7747C38.864 52.6767 38.9908 52.7848 39.1371 52.8529C39.292 52.9209 39.4775 52.9592 39.6927 52.9592C39.9072 52.9592 40.0825 52.9209 40.2092 52.8631C40.3462 52.8044 40.473 52.6972 40.5896 52.5312H41.1061C41.038 52.7754 40.8916 52.9796 40.6474 53.1438C40.4049 53.3004 40.0825 53.388 39.6817 53.388C39.292 53.388 38.9703 53.3106 38.7176 53.1438C38.4734 52.989 38.3075 52.7848 38.2394 52.5312ZM45.8463 54.5374C46.2658 54.0593 46.7814 53.8168 47.3975 53.8168C47.885 53.8168 48.2849 53.9529 48.6066 54.2354C48.9282 54.5179 49.0831 54.8769 49.0831 55.3253C49.0831 55.9489 48.7819 56.4058 48.1871 56.6789C48.9674 56.9222 49.3664 57.4378 49.3664 58.2452C49.3664 58.7804 49.1903 59.2194 48.8406 59.541C48.4892 59.872 48.011 60.037 47.3975 60.037C46.978 60.037 46.607 59.9485 46.2845 59.7741C45.9731 59.5997 45.6795 59.2875 45.3971 58.8485L45.8659 58.577C46.1382 58.9761 46.3926 59.239 46.6351 59.3555C46.8708 59.4627 47.1243 59.5214 47.3873 59.5214C47.7582 59.5214 48.0799 59.4134 48.3428 59.199C48.6066 58.9761 48.7427 58.6647 48.7427 58.2367C48.7427 58.0121 48.6934 57.8181 48.6066 57.6624C48.5181 57.4957 48.3922 57.3596 48.2254 57.2532C48.0603 57.1562 47.9046 57.0873 47.7583 57.0686C47.6119 57.0388 47.3677 57.0192 47.0256 57.0192H46.9286V56.5036H47.1243C48.0016 56.5036 48.4398 56.1438 48.4398 55.4325C48.4398 55.1117 48.3428 54.8488 48.148 54.654C47.942 54.4583 47.6893 54.3622 47.3771 54.3622C46.978 54.3622 46.607 54.5374 46.2564 54.8973L45.8463 54.5374ZM52.9563 53.9631L55.7259 59.8805H55.092L54.1654 57.9347H51.5906L50.664 59.8805H50.0105L52.8099 53.9631H52.9563ZM52.8874 55.2087L51.8638 57.3596H53.9008L52.8874 55.2087ZM56.6619 53.9631H57.8225C58.2998 53.9631 58.6614 54.021 58.915 54.1274C59.1686 54.2439 59.3626 54.4107 59.5098 54.6438C59.6561 54.8769 59.7336 55.1313 59.7336 55.4121C59.7336 55.6758 59.6655 55.9089 59.5378 56.1335C59.4119 56.3479 59.2256 56.5232 58.972 56.6585C59.2851 56.7563 59.5191 56.8831 59.6842 57.0192C59.851 57.1656 59.9778 57.3298 60.0748 57.5357C60.1632 57.7305 60.2109 57.9543 60.2109 58.1874C60.2109 58.6647 60.0356 59.0629 59.6842 59.3947C59.3439 59.7256 58.8759 59.8805 58.2905 59.8805H56.6619V53.9631ZM57.2362 54.5374V56.4356H57.5783C57.9884 56.4356 58.2905 56.3956 58.4853 56.3275C58.681 56.2501 58.8367 56.1233 58.9533 55.9583C59.0614 55.7932 59.1192 55.6077 59.1192 55.4121C59.1192 55.1407 59.0222 54.9263 58.8367 54.7706C58.6419 54.6149 58.3381 54.5374 57.9203 54.5374H57.2362ZM57.2362 57.0294V59.307H57.9688C58.407 59.307 58.7287 59.2688 58.9244 59.1811C59.1294 59.0926 59.2945 58.9667 59.4119 58.7804C59.5379 58.606 59.5974 58.412 59.5974 58.1976C59.5974 57.9347 59.5098 57.7007 59.3438 57.5059C59.1686 57.3119 58.9337 57.1749 58.6317 57.1069C58.4275 57.0584 58.076 57.0294 57.5689 57.0294H57.2362ZM64.2194 53.8168C65.1171 53.8168 65.8684 54.1188 66.4725 54.7127C67.0775 55.3057 67.3787 56.0451 67.3787 56.9222C67.3787 57.7884 67.0775 58.5277 66.4725 59.1309C65.8684 59.7358 65.1358 60.037 64.2585 60.037C63.3813 60.037 62.6402 59.7358 62.0352 59.1309C61.4311 58.5277 61.1281 57.8079 61.1281 56.9512C61.1281 56.3769 61.2651 55.8511 61.5383 55.3644C61.8208 54.8871 62.1917 54.4983 62.6691 54.2252C63.1473 53.9529 63.6638 53.8168 64.2194 53.8168ZM64.2398 54.3911C63.8008 54.3911 63.3906 54.5077 62.9916 54.7306C62.601 54.9654 62.2887 55.2674 62.0743 55.6562C61.8505 56.0451 61.7416 56.4739 61.7416 56.9512C61.7416 57.6522 61.9858 58.2452 62.4742 58.7327C62.9618 59.2194 63.5566 59.4534 64.2398 59.4534C64.6976 59.4534 65.1273 59.3453 65.517 59.1224C65.9075 58.8987 66.219 58.5958 66.4334 58.207C66.658 57.8181 66.7652 57.3893 66.7652 56.9222C66.7652 56.4551 66.658 56.0263 66.4334 55.6469C66.219 55.2674 65.9075 54.9654 65.5076 54.7306C65.1069 54.5077 64.6882 54.3911 64.2398 54.3911ZM68.57 60.7679H67.9735V59.3368H68.4525L70.7729 53.9631H70.9788L73.4353 59.3368H73.9033V60.7679H73.3094V59.8805H68.57V60.7679ZM69.1145 59.3368H72.7333L70.8801 55.1994L69.1145 59.3368ZM5.37417 64.4961V71.8164H3.98893V67.2314L1.21931 71.8164H0.0195701V64.4961H1.41416V69.2274L4.21356 64.4961H5.37417ZM7.04189 64.4961H10.6786V65.8591H8.42628V71.8164H7.04189V64.4961ZM11.7609 64.4961H13.244C14.0438 64.4961 14.6292 64.5744 14.9798 64.7198C15.3312 64.8662 15.6137 65.1095 15.8187 65.4303C16.0238 65.7612 16.1208 66.1611 16.1208 66.6171C16.1208 67.1344 15.9847 67.553 15.7217 67.8933C15.458 68.2345 15.0878 68.4676 14.6292 68.6046C14.3561 68.682 13.8685 68.711 13.1563 68.711V71.8164H11.7609V64.4961ZM13.1563 67.3582H13.5954C13.9562 67.3582 14.2004 67.3386 14.3365 67.2901C14.4718 67.2314 14.5798 67.154 14.6581 67.0357C14.7364 66.92 14.7747 66.783 14.7747 66.6171C14.7747 66.3364 14.6675 66.1313 14.4437 65.9952C14.288 65.8974 13.9851 65.8489 13.5469 65.8489H13.1563V67.3582ZM22.8308 64.4961V71.8164H21.4465V67.2314L18.676 71.8164H17.4771V64.4961H18.8717V69.2274L21.6694 64.4961H22.8308ZM31.2469 65.7808L30.2624 66.7056C29.5987 66.0054 28.8576 65.6549 28.0195 65.6549C27.3167 65.6549 26.7321 65.8974 26.2437 66.3747C25.7664 66.852 25.5222 67.4365 25.5222 68.1358C25.5222 68.6242 25.6302 69.0615 25.8447 69.4418C26.0591 69.8213 26.3611 70.1131 26.7517 70.3275C27.1414 70.5419 27.5702 70.6482 28.0484 70.6482C28.4484 70.6482 28.8185 70.5802 29.1605 70.4245C29.4915 70.279 29.8625 69.9965 30.2624 69.6069L31.218 70.5904C30.6717 71.1153 30.1646 71.4863 29.677 71.6905C29.1988 71.8947 28.6432 72.001 28.0289 72.001C26.8878 72.001 25.9519 71.642 25.2303 70.9111C24.4986 70.1914 24.1378 69.2657 24.1378 68.1469C24.1378 67.4169 24.3037 66.7643 24.6347 66.1994C24.9666 65.6353 25.4345 65.1776 26.0591 64.827C26.6734 64.4867 27.3363 64.3106 28.0484 64.3106C28.6534 64.3106 29.238 64.4374 29.7944 64.6909C30.3594 64.9538 30.8376 65.3137 31.2469 65.7808ZM31.754 64.4961H35.8017V65.8676H34.4658V71.8164H33.0508V65.8676H31.754V64.4961ZM42.3449 64.4961H43.7302V71.8164H42.3449V64.4961ZM36.7478 71.8164V64.4961H38.1314V67.2612H38.4351C39.0197 67.2612 39.5064 67.3284 39.8876 67.4645C40.2782 67.5922 40.6083 67.8448 40.8916 68.2243C41.1741 68.6046 41.3205 69.0513 41.3205 69.5864C41.3205 70.0833 41.1946 70.5121 40.9512 70.8626C40.7164 71.2038 40.433 71.4565 40.1114 71.6028C39.7897 71.739 39.3515 71.8164 38.7951 71.8164H36.7478ZM38.1314 68.4966V70.4925H38.4836C39.0588 70.4925 39.4494 70.4151 39.6442 70.279C39.8391 70.1327 39.9361 69.8893 39.9361 69.5388C39.9361 68.8471 39.4383 68.4966 38.4249 68.4966H38.1314ZM44.9197 64.4961H46.4998L48.0407 66.8426L49.5808 64.4961H51.1703L48.8304 68.049L51.2979 71.8164H49.7178L48.0407 69.2563L46.3637 71.8164H44.7742L47.2511 68.049L44.9197 64.4961ZM55.1992 71.8164V64.4961H56.3487C57.0218 64.4961 57.5196 64.5352 57.8225 64.6229C58.2709 64.7394 58.6214 64.9538 58.8759 65.2746C59.1388 65.5851 59.2656 65.9561 59.2656 66.3849C59.2656 66.6673 59.2077 66.92 59.0903 67.1438C58.9729 67.3778 58.7882 67.5922 58.5142 67.7853C58.9635 67.9997 59.2851 68.2541 59.4902 68.5748C59.6953 68.8854 59.8025 69.2563 59.8025 69.6851C59.8025 70.0935 59.6953 70.4636 59.4808 70.8048C59.2656 71.1451 58.9933 71.3978 58.6504 71.5637C58.3202 71.7296 57.8523 71.8164 57.2566 71.8164H55.1992ZM56.5844 65.8199V67.3675H56.8959C57.2473 67.3675 57.5008 67.2995 57.6668 67.154C57.8412 67.0077 57.9203 66.8128 57.9203 66.5695C57.9203 66.3457 57.8412 66.1611 57.6863 66.0241C57.5196 65.888 57.2762 65.8199 56.9537 65.8199H56.5844ZM56.5844 68.614V70.4925H56.935C57.5298 70.4925 57.9203 70.4151 58.1237 70.2679C58.3288 70.1233 58.436 69.9089 58.436 69.6366C58.436 69.3142 58.31 69.0717 58.076 68.8854C57.8318 68.7008 57.4328 68.614 56.8754 68.614H56.5844ZM66.4734 64.4961V71.8164H65.0788V67.2314L62.3185 71.8164H61.1188V64.4961H62.504V69.2274L65.3119 64.4961H66.4734ZM68.1309 64.4961H69.5544V67.2612H72.0024V64.4961H73.4064V71.8164H72.0024V68.6046H69.5544V71.8164H68.1309V64.4961Z" fill="#402020"/>
</svg>
