<svg width="110" height="64" viewBox="0 0 110 64" fill="none" xmlns="http://www.w3.org/2000/svg">
<path fill-rule="evenodd" clip-rule="evenodd" d="M50.9162 15.7418C48.6699 24.4448 46.809 31.6496 46.7809 31.7522L46.7297 31.9388L28.3623 31.9533L9.99485 31.9677L4.98993 43.1653C2.23719 49.324 -0.00827127 54.3695 2.29038e-05 54.3776C0.00831708 54.3857 12.3824 56.5541 27.4979 59.1962L54.9806 64L82.4903 59.1915L110 54.3829L109.727 53.775C109.576 53.4407 107.318 48.3908 104.707 42.5532L99.9607 31.9392L81.6 31.9248L63.2394 31.9103L59.1369 15.9964C56.8806 7.24374 55.0267 0.0454297 55.0173 0.000215793C55.0079 -0.0450555 53.1624 7.03864 50.9162 15.7418ZM57.3428 34.869C58.5531 39.5613 59.526 43.4178 59.5048 43.439C59.4837 43.4601 58.4588 43.9196 57.2274 44.4601L54.9884 45.4429L52.7328 44.4318C51.4922 43.8757 50.4684 43.412 50.4576 43.4012C50.4468 43.3905 51.4457 39.4693 52.6774 34.6873C53.909 29.9054 54.9334 25.9411 54.9538 25.8779C54.982 25.79 55.0085 25.8305 55.0665 26.0503C55.1083 26.2083 56.1326 30.1767 57.3428 34.869ZM46.2131 33.9246C46.2131 33.9423 45.5454 36.547 44.7294 39.7127C43.9134 42.8785 43.2067 45.6047 43.159 45.7711L43.0723 46.0734L41.1306 46.0583L39.1889 46.0432L36.8864 40.9161L34.5838 35.789L31.0467 35.803L27.5095 35.8169L25.5946 40.1116C24.5413 42.4737 23.6522 44.4491 23.6187 44.5013C23.5701 44.577 23.1557 43.7059 21.5757 40.2066L19.5937 35.8169L16.068 35.8021L12.5424 35.7874L8.81633 44.0779C6.76697 48.6376 5.09021 52.3867 5.09021 52.4091C5.09021 52.4315 6.67451 52.4432 8.61089 52.4351L12.1316 52.4203L13.9153 48.4561C14.8963 46.2759 15.7788 44.3135 15.8764 44.0953C15.974 43.8771 16.0682 43.7129 16.0859 43.7304C16.1035 43.7479 16.9895 45.7102 18.0546 48.0912L19.9913 52.4203H23.5677H27.1442L29.1068 48.055L31.0695 43.6897L31.2486 44.0909C31.3473 44.3115 32.2293 46.2759 33.2089 48.4561L34.9898 52.4203L41.5459 52.4348L48.102 52.4494L48.4556 51.0848C48.6855 50.1973 48.8334 49.7256 48.8784 49.7358C48.9165 49.7445 50.3066 50.3606 51.9676 51.105L54.9875 52.4583L57.894 51.1531C59.4925 50.4353 60.8815 49.8138 60.9807 49.7722L61.1611 49.6966L61.5027 51.0202C61.6907 51.7483 61.859 52.3676 61.8769 52.3965C61.8965 52.4282 70.4459 52.4434 83.4044 52.4347L104.899 52.4203L103.469 49.2401L102.039 46.0599L99.8773 45.0974C98.6882 44.568 97.7029 44.1226 97.6877 44.1076C97.6725 44.0925 98.2563 43.6592 98.985 43.1447L100.31 42.2092L98.8755 39.0131L97.4409 35.8169L86.4248 35.8024L75.4086 35.7879L74.0095 38.9048C73.24 40.619 72.593 42.0669 72.5718 42.1222C72.5353 42.2174 72.8128 42.2231 77.8611 42.2308C80.7913 42.2352 84.6007 42.2546 86.3264 42.2739L89.4639 42.3089L88.1679 43.198C87.4552 43.687 86.8719 44.1035 86.8719 44.1235C86.8719 44.1436 87.7267 44.5422 88.7715 45.0094C89.8163 45.4766 90.7624 45.9056 90.874 45.9628C91.0706 46.0635 90.6921 46.0669 78.9829 46.0694L66.8887 46.0719L65.6191 41.1455C64.9208 38.436 64.2143 35.6956 64.0492 35.0557L63.749 33.8923L81.2411 33.8938L98.7332 33.8953L103.118 43.6595L107.503 53.4236L107.323 53.4517C107.224 53.4672 95.3851 54.4091 81.0138 55.5448L54.8843 57.6098L28.7125 55.5286C14.3181 54.3839 2.52696 53.4337 2.51008 53.417C2.49321 53.4003 4.41322 49.0844 6.77671 43.8262C9.14026 38.568 11.1097 34.1818 11.1533 34.0791L11.2324 33.8923H28.7228C38.3424 33.8923 46.2131 33.9069 46.2131 33.9246Z" fill="#D03730"/>
</svg>
