<svg width="122" height="72" viewBox="0 0 122 72" fill="none" xmlns="http://www.w3.org/2000/svg">
<path fill-rule="evenodd" clip-rule="evenodd" d="M61.2982 0.886719C77.6208 0.886719 90.8582 14.1308 90.8582 30.4619C90.8582 46.7929 77.6208 60.0371 61.2982 60.0371C44.9756 60.0371 31.7383 46.7929 31.7383 30.4619C31.7383 14.1308 44.9756 0.886719 61.2982 0.886719Z" fill="#E30613" stroke="#05537E" stroke-width="0.216" stroke-miterlimit="22.9256"/>
<path fill-rule="evenodd" clip-rule="evenodd" d="M51.6316 29.5383C51.4337 29.8802 51.2358 30.2228 51.0387 30.5655C45.229 36.6937 44.5673 41.5712 43.5059 47.3745H79.4158C78.768 40.5023 76.2176 34.364 70.1799 28.9961L69.7748 28.4949L66.6957 27.2891L64.5118 27.3533L54.5546 28.3495L51.6316 29.5383Z" fill="white"/>
<path fill-rule="evenodd" clip-rule="evenodd" d="M6.80111 47.7422H115.577C118.546 47.7422 120.974 50.1717 120.974 53.1418V65.7145C120.974 68.6839 118.546 71.1141 115.577 71.1141H6.80111C3.83252 71.1141 1.4043 68.6847 1.4043 65.7145V53.1418C1.4043 50.1717 3.83252 47.7422 6.80111 47.7422Z" fill="#E30613" stroke="#05537E" stroke-width="0.216" stroke-miterlimit="22.9256"/>
<path fill-rule="evenodd" clip-rule="evenodd" d="M60.7187 5.09766C61.0596 5.43566 61.3534 5.90052 61.6564 6.37311C61.9224 6.78769 62.2092 7.24868 62.4821 7.72436C62.7279 8.15286 62.9227 8.67109 63.2698 9.15064C63.5226 9.50025 64.0437 10.1616 64.3576 10.2389C64.9915 10.3952 65.5906 9.84908 66.1202 9.6387C66.5995 10.6071 66.6497 11.7456 66.4201 12.8664C66.1604 14.1364 65.5048 15.3276 64.6946 16.0941C64.5106 16.2673 64.3034 16.4236 64.1697 16.6193C65.5148 16.9604 67.01 17.4593 68.3335 17.7826C69.3926 18.2923 70.5174 18.6334 71.5974 19.0959C72.6704 19.5561 73.7411 20.1138 74.8234 20.41C75.9544 20.7194 77.6157 19.9274 78.3865 19.5097C78.8109 19.2792 79.3103 18.9722 79.737 18.6837C80.1274 18.4199 80.6671 17.863 81.0876 17.8576C81.4942 17.8529 81.9187 18.334 81.9504 18.8708C81.9851 19.461 81.6465 20.1432 81.3876 20.7473C81.1556 21.2887 80.8967 21.8433 80.7877 22.5866C80.6694 23.3887 80.7188 23.9494 80.8626 24.651C81.0111 25.3749 81.6272 26.341 81.3876 27.1655C81.3327 27.355 81.0621 27.7487 80.6748 27.7286C80.2102 27.7046 79.8739 27.2104 79.4371 26.8283C78.4375 25.9543 76.8535 24.7701 74.9734 24.914C74.0774 24.9828 73.5772 25.3486 72.648 25.6642C73.261 27.4455 72.1068 28.8594 70.3226 28.929C70.3705 29.1379 70.5963 29.2578 70.7346 29.3792C71.776 30.2911 72.8018 31.2634 73.7357 32.3439C76.8682 35.9699 78.991 40.8227 79.5871 46.9052C79.3745 46.9052 79.1619 46.9052 78.9493 46.9052C78.688 42.8213 77.4712 39.3809 75.9111 36.4348C74.3487 33.4832 72.3473 30.923 69.8719 28.8911C69.6268 28.9112 69.4451 28.8679 69.2341 28.854C69.4529 29.1812 69.7791 29.4171 70.059 29.6801C74.3773 33.7323 77.5392 39.2216 78.2736 46.906C77.4356 46.906 76.5984 46.906 75.7604 46.906C75.0476 38.7127 71.7659 32.6425 67.2086 28.1788C66.9311 27.9073 66.5709 27.4455 66.0831 27.7286C66.5995 28.3876 67.2604 28.9027 67.8086 29.53C71.6082 33.8762 74.4175 39.3817 75.1226 46.8689C74.2212 46.954 73.3167 46.8967 72.4972 46.906C71.8935 38.7784 69.0919 32.8498 65.2582 27.9537C63.1075 28.4696 60.7952 29.0048 58.2062 29.0048C57.8212 29.0048 57.3079 28.9236 57.0435 29.0048C56.8449 29.0659 56.5805 29.5586 56.3679 29.868C53.298 34.3426 50.9618 39.9672 50.4786 46.9068C49.6035 46.9068 48.7284 46.9068 47.8533 46.9068C48.6055 39.0151 51.6846 33.4515 55.8051 28.9298C55.1719 28.6398 54.8488 29.1982 54.4545 29.643C50.6711 33.9125 47.8293 39.5998 47.1776 46.8689C46.4014 46.9555 45.4652 46.882 44.6272 46.906C45.4274 39.2255 48.6008 33.9179 52.8419 29.6801C51.7418 29.8092 51.0375 30.7846 50.4036 31.5186C47.0817 35.3643 44.5716 40.4313 43.9894 46.8681C43.8209 46.9254 43.4831 46.9254 43.3146 46.8681C44.0134 39.9603 46.6596 34.8151 50.4794 30.9927C50.7183 30.7537 51.0584 30.5023 51.1172 30.1295C49.3569 30.3491 48.1679 29.0721 48.416 27.2769C47.7141 26.908 46.9797 26.6806 46.3156 26.3008C45.0323 25.5683 43.8078 24.842 42.6768 23.8241C41.9524 23.1721 40.6629 22.2509 41.1762 20.8594C41.6223 19.6505 43.2852 19.0008 44.6651 18.457C47.8749 17.1932 52.4669 16.3292 56.2179 15.9433C56.0896 15.6138 55.8027 15.3717 55.5801 15.0801C54.8279 14.0939 54.1337 12.0813 54.7174 10.539C55.1797 10.8066 56.0679 11.0588 56.6307 10.802C57.1077 10.5839 57.3087 9.61085 57.5306 9.00058C57.9619 7.81486 58.3856 6.2656 58.8811 5.24771C59.3651 5.29721 60.3198 5.43257 60.7187 5.09766ZM61.3557 7.01122C61.1856 6.69951 60.8602 5.8866 60.493 5.81002C60.1281 5.73422 59.757 6.01112 59.2174 5.88505C58.902 6.79542 58.5294 7.64856 58.2797 8.62468C59.1463 7.85972 61.0558 7.87132 62.1056 8.32457C61.8706 7.96104 61.641 7.53409 61.3557 7.01122ZM64.1318 10.8391C62.8563 9.8777 62.2509 8.36789 60.0809 8.54965C59.0844 8.63319 58.5356 9.0323 58.0926 9.63793C57.6411 10.2552 57.4386 11.1385 56.817 11.3643C56.3184 11.5453 55.5623 11.4587 55.0915 11.4014C55.066 12.3791 55.2794 13.315 55.6914 14.1411C55.9496 14.6585 56.6732 15.7684 57.2669 15.9054C57.8266 16.0337 58.3129 15.8125 58.9553 15.9054C57.6481 13.9987 57.3875 9.72301 60.3809 9.6008C60.6414 9.58997 60.9707 9.58533 61.3186 9.67582C63.4051 10.2157 63.9146 13.8131 62.7442 15.6803C62.5795 15.9425 62.268 16.0832 62.2942 16.3184C63.4113 16.538 64.2872 15.7808 64.8454 15.005C65.6532 13.882 66.2833 12.1803 65.7831 10.5019C65.3038 10.686 64.8376 10.8832 64.1318 10.8391ZM58.5804 12.4534C58.5997 12.6962 58.5255 13.0335 58.6554 13.1665C58.9669 12.7705 60.3345 12.7217 60.3438 13.3165C60.118 13.3289 60.0121 13.2222 59.856 13.1665C59.9039 13.6886 59.0009 13.868 59.0311 13.2415C58.5533 13.3367 58.6507 13.8278 58.7683 14.2548C58.8997 14.7343 59.2576 15.3956 59.556 15.681C60.016 16.1211 60.7458 16.0879 61.4686 16.207C62.2734 15.5604 62.8508 14.6879 62.7813 13.1673C62.6645 13.0706 62.5115 13.0118 62.3313 12.9793C62.4519 13.5269 61.4794 13.6074 61.5436 13.0543C61.2668 13.0249 61.2892 13.4194 61.0187 13.2794C61.1393 12.5609 62.2247 12.6096 62.7442 12.7914C62.7434 12.5052 62.7078 12.2523 62.6321 12.0411C61.2413 12.1386 59.9062 12.2917 58.5804 12.4534ZM79.7734 19.8091C78.6107 20.6119 77.0669 21.479 75.1968 21.4604C73.7999 21.4465 72.3264 20.7032 71.108 20.1842C67.4058 18.6055 63.1454 17.047 58.1297 16.9944C57.9759 16.9928 57.829 16.9882 57.6798 16.9944C54.855 17.1112 51.9513 17.5482 49.278 18.1206C48.0055 18.3928 46.8227 18.6574 45.5271 19.1338C44.4734 19.5213 42.1727 20.3188 42.8267 21.9485C43.1808 22.831 44.3141 23.7182 45.19 24.2751C45.5062 24.4762 45.9337 24.8266 46.2027 24.8382C46.3806 24.8459 46.8088 24.6456 47.0655 24.538C48.5467 23.9146 49.37 22.879 49.9916 21.5354C50.1501 21.1928 50.3967 20.0411 50.7793 19.9591C50.9981 19.9119 51.3398 19.9668 51.4171 20.2592C51.5439 20.7411 51.0074 21.5594 50.8172 21.9485C50.0155 23.582 49.0059 24.7871 47.4041 25.4391C47.7899 25.5536 48.1625 25.6812 48.5668 25.7771C48.5173 25.2311 48.6511 24.9658 48.9796 24.8768C49.7682 24.6618 50.164 25.6101 50.2923 26.2652C50.8118 26.4191 51.1635 26.3719 51.5679 26.1902C52.068 25.9651 52.3046 25.4036 52.7306 25.2899C53.0073 25.2156 53.4503 25.1584 53.7433 25.3278C53.8994 25.4175 53.9095 25.5846 54.0061 25.7779C54.0981 25.9636 54.2025 26.1152 54.2311 26.266C54.2953 26.6048 54.0811 26.8848 54.2682 27.0913C54.446 27.287 55.3629 27.3705 55.8058 27.4293C60.0268 27.9908 63.9324 27.0688 66.9837 25.928C67.0131 25.6766 66.8809 25.5088 66.9087 25.2527C66.9404 24.9673 67.3184 24.3099 67.5086 24.2395C67.7892 24.1351 68.2593 24.1668 68.4834 24.2395C68.9001 24.3741 69.1212 24.9859 69.534 25.1027C70.0474 24.9658 70.5205 24.7887 70.9967 24.6146C71.2178 24.214 71.4474 23.7437 72.0473 23.7886C72.3233 23.8094 72.3906 24.0941 72.6472 24.1266C72.8706 24.1544 73.496 23.8736 73.8478 23.7886C74.2699 23.6865 74.7469 23.5905 75.1983 23.5635C77.0908 23.449 78.2806 24.5466 79.1371 25.4778C79.3119 25.6673 79.8399 26.3317 80.2249 26.003C80.4854 25.781 80.2024 25.3502 80.0378 24.9898C79.601 24.0376 79.3482 22.4203 79.8878 21.3869C80.0803 21.0172 80.398 20.6575 80.6385 20.2987C80.8526 19.9777 81.2708 19.5623 81.0134 19.0603C80.4854 19.0859 80.1584 19.543 79.7734 19.8091ZM70.9959 25.5884C70.4262 25.9558 69.2635 25.4608 68.8576 25.0632C68.6466 24.8559 68.495 24.4259 68.1077 24.5752C68.1247 25.2349 68.7981 25.7601 69.1576 26.0765C68.761 25.9226 68.3984 25.518 68.1827 25.1383C68.0683 24.9364 67.9918 24.5117 67.7328 24.538C67.3401 24.5775 67.5944 25.2597 67.6949 25.4763C67.9755 26.0765 68.3543 26.307 68.7455 26.6396C68.3613 26.4764 68.0683 26.2227 67.8457 25.8893C67.6694 25.6248 67.6292 25.2581 67.3579 25.0632C67.0927 25.4917 67.3772 26.0479 67.6207 26.4145C67.8457 26.7533 68.2322 26.9683 68.4463 27.2027C68.0923 27.0619 67.8317 26.8082 67.6207 26.5274C67.5156 26.3874 67.4715 26.1716 67.2829 26.1144C67.1592 26.6202 67.5921 27.1338 67.9207 27.4277C68.7927 28.2097 70.4911 28.3806 71.4837 27.6157C72.3859 26.9203 72.0233 25.6178 72.1965 24.2758C71.2735 23.8311 71.4745 25.2798 70.9959 25.5884ZM48.9402 25.3254C49.1853 26.6349 48.7175 27.7804 49.4651 28.5152C50.3124 29.3483 52.1469 29.3382 53.104 28.5903C53.5152 28.2685 53.9752 27.7116 53.8917 27.164C53.4704 27.5059 53.2841 28.0821 52.6911 28.2523C52.8094 28.0836 53.0769 27.9823 53.2539 27.8021C53.5779 27.4718 54.2265 26.5282 53.7039 26.1128C53.4186 26.7904 53.0947 27.4301 52.3912 27.6892C52.5937 27.4687 53.0089 27.2684 53.2539 26.901C53.465 26.5846 53.8964 25.7044 53.4418 25.6255C53.1357 25.5722 52.9122 26.2528 52.7669 26.4508C52.511 26.7981 52.3208 27.0108 51.942 27.1261C52.4337 26.7649 53.0143 26.3008 53.0297 25.5876C52.4584 25.6534 52.242 26.2521 51.7549 26.488C51.3058 26.7061 50.4662 26.8654 50.0294 26.6001C49.7682 26.1175 49.7249 24.9225 48.9402 25.3254Z" fill="#312783"/>
<path fill-rule="evenodd" clip-rule="evenodd" d="M62.1072 8.32479C61.0573 7.87154 59.1479 7.85994 58.2812 8.6249C58.531 7.64878 58.9036 6.79487 59.219 5.88527C59.7578 6.01135 60.1289 5.73444 60.4946 5.81024C60.8618 5.88604 61.1872 6.69974 61.3573 7.01144C61.6418 7.53431 61.8714 7.96126 62.1072 8.32479Z" fill="white"/>
<path fill-rule="evenodd" clip-rule="evenodd" d="M65.7835 10.5025C66.2837 12.181 65.6536 13.8826 64.8457 15.0057C64.2876 15.7815 63.4125 16.5387 62.2946 16.319C62.2683 16.0839 62.5806 15.9431 62.7445 15.6809C63.915 13.8137 63.4055 10.2163 61.319 9.67646C60.9711 9.58596 60.6418 9.5906 60.3813 9.60143C57.3879 9.72364 57.6492 13.9994 58.9557 15.906C58.3141 15.8132 57.8278 16.0344 57.2673 15.906C56.6736 15.7699 55.95 14.6592 55.6918 14.1417C55.279 13.3156 55.0664 12.3797 55.0919 11.4021C55.5627 11.4585 56.3188 11.5459 56.8174 11.3649C57.4382 11.1391 57.6415 10.2558 58.093 9.63856C58.5359 9.03293 59.084 8.63382 60.0813 8.55029C62.2513 8.36775 62.8566 9.87833 64.1322 10.8398C64.8388 10.8838 65.3049 10.6866 65.7835 10.5025Z" fill="white"/>
<path fill-rule="evenodd" clip-rule="evenodd" d="M62.6318 12.0391C62.7083 12.2502 62.7431 12.5031 62.7439 12.7893C62.2244 12.6068 61.139 12.5588 61.0184 13.2774C61.289 13.4174 61.2673 13.0229 61.5433 13.0523C61.4784 13.6053 62.4517 13.5249 62.3311 12.9773C62.512 13.009 62.665 13.0686 62.781 13.1652C62.8506 14.6859 62.2723 15.5583 61.4683 16.205C60.7447 16.0859 60.0149 16.1191 59.5557 15.679C59.2573 15.3944 58.8994 14.7323 58.768 14.2527C58.6505 13.8258 58.5531 13.3346 59.0308 13.2395C59.0015 13.866 59.9044 13.6866 59.8557 13.1645C60.0119 13.2209 60.1178 13.3277 60.3435 13.3145C60.335 12.7197 58.9667 12.7684 58.6551 13.1645C58.5252 13.0322 58.5995 12.6942 58.5801 12.4513C59.9067 12.2904 61.2418 12.1373 62.6318 12.0391ZM60.3814 14.2906C60.4309 14.6356 61.1606 14.5405 61.2441 14.2906C61.132 14.0888 60.6581 14.3038 60.3814 14.2906ZM60.3064 15.2289C60.4494 15.8677 61.5974 15.5259 61.432 15.0788C61.2294 15.3108 60.6241 15.4493 60.3064 15.2289Z" fill="white"/>
<path fill-rule="evenodd" clip-rule="evenodd" d="M61.2436 14.2939C61.1601 14.5437 60.4303 14.6389 60.3809 14.2939C60.6576 14.3071 61.1315 14.092 61.2436 14.2939Z" fill="#312783"/>
<path fill-rule="evenodd" clip-rule="evenodd" d="M61.4322 15.082C61.5984 15.5291 60.4504 15.871 60.3066 15.2321C60.6251 15.4525 61.2305 15.3141 61.4322 15.082Z" fill="#E30613"/>
<path fill-rule="evenodd" clip-rule="evenodd" d="M81.0107 19.0573C81.2681 19.5593 80.8499 19.9747 80.6357 20.2957C80.3961 20.6546 80.0784 21.015 79.8851 21.3839C79.3463 22.4173 79.599 24.0346 80.0351 24.9868C80.2005 25.3472 80.4827 25.778 80.2221 26C79.8372 26.3287 79.3091 25.6643 79.1344 25.4748C78.2779 24.5436 77.0881 23.446 75.1956 23.5605C74.7442 23.5876 74.2672 23.6842 73.8451 23.7856C73.4933 23.8706 72.8679 24.1514 72.6445 24.1236C72.3871 24.0911 72.3198 23.8065 72.0446 23.7856C71.4447 23.7399 71.2151 24.2102 70.994 24.6116C70.5178 24.7857 70.0447 24.962 69.5313 25.0997C69.1185 24.9829 68.8982 24.3711 68.4807 24.2365C68.2565 24.1638 67.7865 24.1321 67.5059 24.2365C67.3157 24.3069 66.9369 24.9643 66.906 25.2497C66.8782 25.5058 67.0103 25.6736 66.981 25.925C63.9297 27.0651 60.0241 27.9871 55.8031 27.4263C55.3602 27.3675 54.4433 27.2847 54.2655 27.0883C54.0776 26.8818 54.2918 26.6018 54.2284 26.263C54.1998 26.1122 54.0954 25.9606 54.0034 25.7749C53.9076 25.5816 53.8967 25.4145 53.7406 25.3248C53.4468 25.1554 53.0046 25.2126 52.7279 25.2869C52.3019 25.4006 52.0653 25.9629 51.5651 26.1872C51.1608 26.369 50.8091 26.4161 50.2896 26.2622C50.1605 25.6063 49.7654 24.6588 48.9769 24.8738C48.6483 24.9636 48.5146 25.2289 48.5641 25.7742C48.1598 25.6783 47.7872 25.5514 47.4014 25.4362C49.0032 24.7849 50.0136 23.5798 50.8145 21.9455C51.0054 21.5572 51.542 20.7381 51.4144 20.2562C51.3379 19.9639 50.9954 19.9089 50.7766 19.9561C50.3939 20.0381 50.1473 21.1898 49.9889 21.5325C49.3673 22.876 48.544 23.9116 47.0628 24.5351C46.8061 24.6426 46.3778 24.8429 46.2 24.8352C45.931 24.8236 45.5035 24.4732 45.1873 24.2721C44.3122 23.7152 43.1781 22.828 42.824 21.9455C42.17 20.3158 44.4714 19.5176 45.5244 19.1308C46.82 18.6544 48.0036 18.3898 49.2753 18.1176C51.9486 17.5452 54.8523 17.1082 57.6771 16.9914C57.8263 16.9852 57.9731 16.9899 58.127 16.9914C63.1427 17.0448 67.4031 18.6025 71.1053 20.1812C72.3229 20.7002 73.7964 21.4435 75.1941 21.4574C77.0641 21.476 78.608 20.6089 79.7707 19.8061C80.158 19.5423 80.485 19.0852 81.0107 19.0573ZM45.8266 23.2233C47.3604 23.0291 47.2019 20.4767 45.5267 20.6337C43.8035 20.7953 44.0934 23.4429 45.8266 23.2233Z" fill="white"/>
<path fill-rule="evenodd" clip-rule="evenodd" d="M45.5286 20.6359C47.2039 20.4788 47.3631 23.0313 45.8286 23.2254C44.0953 23.4451 43.8054 20.7975 45.5286 20.6359Z" fill="#312783"/>
<path fill-rule="evenodd" clip-rule="evenodd" d="M72.1969 24.2753C72.0238 25.6172 72.3863 26.9198 71.4842 27.6151C70.4915 28.3808 68.7931 28.2091 67.9211 27.4272C67.5925 27.1325 67.1596 26.6197 67.2833 26.1138C67.4719 26.171 67.516 26.3868 67.6211 26.5268C67.8322 26.8076 68.0919 27.0613 68.4468 27.2021C68.2334 26.9677 67.8461 26.7527 67.6211 26.4139C67.3784 26.0473 67.0931 25.4912 67.3583 25.0627C67.6296 25.2576 67.6698 25.6242 67.8461 25.8887C68.0687 26.2221 68.3617 26.4758 68.7459 26.639C68.3548 26.3064 67.976 26.0759 67.6953 25.4757C67.5941 25.2591 67.3405 24.5769 67.7332 24.5375C67.993 24.5112 68.0687 24.9358 68.1831 25.1377C68.3988 25.5175 68.7622 25.9228 69.158 26.0759C68.7985 25.7588 68.1252 25.2336 68.1081 24.5746C68.4955 24.4253 68.647 24.8554 68.858 25.0627C69.2639 25.4602 70.4258 25.9552 70.9963 25.5878C71.4749 25.28 71.2739 23.8313 72.1969 24.2753Z" fill="white"/>
<path fill-rule="evenodd" clip-rule="evenodd" d="M50.0287 26.603C50.4655 26.8675 51.3051 26.7082 51.7542 26.4908C52.242 26.2541 52.4585 25.6562 53.029 25.5905C53.0135 26.3036 52.433 26.7685 51.9413 27.1289C52.3201 27.0129 52.5103 26.801 52.7662 26.4537C52.9123 26.2557 53.1349 25.575 53.4411 25.6284C53.8956 25.7073 53.465 26.5875 53.2532 26.9038C53.0081 27.2712 52.5938 27.4716 52.3904 27.692C53.0939 27.4329 53.4179 26.794 53.7031 26.1157C54.2257 26.5303 53.5763 27.4747 53.2532 27.8049C53.0769 27.9852 52.8087 28.0873 52.6904 28.2551C53.2833 28.0849 53.4697 27.5087 53.891 27.1668C53.9745 27.7144 53.5153 28.2713 53.1032 28.5931C52.1462 29.3403 50.3117 29.3511 49.4644 28.5181C48.7168 27.7833 49.1837 26.6378 48.9395 25.3283C49.7257 24.9238 49.769 26.1188 50.0287 26.603Z" fill="white"/>
<path fill-rule="evenodd" clip-rule="evenodd" d="M59.2177 40.1496C59.0376 42.3068 58.7979 44.7688 58.8049 46.8672C57.6669 46.9546 56.3666 46.8796 55.166 46.9043C55.34 44.5893 55.5108 42.2705 55.9167 40.1868C56.8335 40.1496 57.9893 40.1458 59.2177 40.1496Z" fill="#312783"/>
<path fill-rule="evenodd" clip-rule="evenodd" d="M60.0062 40.1484C61.1441 40.1484 62.2821 40.1484 63.4193 40.1484C63.6983 42.243 63.7803 44.7514 63.9071 46.866C62.4939 46.9534 60.9184 46.8784 59.4434 46.9032C59.5872 44.6462 59.6691 42.4286 59.9312 40.2606C59.9296 40.1964 59.959 40.1639 60.0062 40.1484Z" fill="#312783"/>
<path fill-rule="evenodd" clip-rule="evenodd" d="M67.3201 40.1492C67.6541 42.2917 67.8466 44.5766 68.0329 46.8668C66.9452 46.9542 65.6944 46.8792 64.5448 46.9039C64.585 44.8519 64.3299 42.448 64.1699 40.2614C64.1281 40.2072 64.1297 40.1693 64.207 40.1484C65.2444 40.1492 66.2827 40.1492 67.3201 40.1492Z" fill="#312783"/>
<path fill-rule="evenodd" clip-rule="evenodd" d="M65.9688 29.9414C69.0146 34.3247 71.306 39.988 71.8201 46.9044C70.628 46.9005 69.7869 46.9214 68.6691 46.9044C68.6281 44.5631 68.2903 42.3061 68.0313 40.1489C68.5871 40.1288 69.2241 40.1914 69.7197 40.1118C69.1028 36.0889 67.6935 32.8582 65.9688 29.9414Z" fill="#312783"/>
<path fill-rule="evenodd" clip-rule="evenodd" d="M53.1805 40.1113C53.9134 40.2382 54.5318 40.1152 55.206 40.1863C54.8473 42.3049 54.6177 44.5518 54.4932 46.9039C53.3676 46.9039 52.2428 46.9039 51.1172 46.9039C51.7009 40.1322 53.8121 34.8888 56.7057 30.4282C56.7142 30.4143 56.7158 30.4275 56.7057 30.4282C55.1565 33.2816 54.0951 36.623 53.1805 40.1113Z" fill="#312783"/>
<path fill-rule="evenodd" clip-rule="evenodd" d="M13.9051 63.3784C13.9074 63.8812 13.4799 63.9903 13.2302 64.1666C12.6828 64.5533 12.1827 64.9084 11.5418 65.3299C11.265 65.5124 10.8854 65.8156 10.6419 65.8551C10.0652 65.9479 9.24885 65.6215 8.69147 65.3299C7.07111 64.4814 6.09704 62.919 5.72828 60.901C4.96913 56.7506 6.80285 52.5468 10.9048 52.72C11.4328 52.7425 11.9531 52.8082 12.4053 52.983C12.7246 53.106 13.2951 53.3875 13.3801 53.7712C13.4915 54.2685 13.1482 54.9878 13.0052 55.5355C12.9171 55.8696 12.7741 57.0066 12.4424 57.0739C11.9538 57.1737 11.8224 56.0746 11.7296 55.7605C11.4374 54.7674 10.7842 54.0032 9.51633 54.5222C8.12248 55.093 7.55737 57.0515 7.71585 59.1383C7.89598 61.5144 9.65549 63.9121 12.6295 63.4542C12.9975 63.397 13.442 63.0644 13.9051 63.3784ZM102.804 53.0201C106.623 52.7061 108.776 55.2864 108.993 58.7624C109.245 62.8177 107.092 65.7716 103.554 65.8551C99.8776 65.9417 97.58 63.1835 97.5522 59.4747C97.539 57.7182 98.159 56.1047 98.9398 55.0837C99.757 54.0164 100.993 53.1694 102.804 53.0201ZM101.828 54.5214C99.0311 55.9152 99.5846 61.5747 101.453 63.6406C102.123 64.3816 103.384 64.9818 104.604 64.5038C107.807 63.2493 107.054 56.8666 104.942 55.0087C104.433 54.5609 103.649 54.1772 102.692 54.2956C102.305 54.3443 102.054 54.4093 101.828 54.5214ZM43.5755 53.2081C43.8724 53.8191 44.1368 54.5531 44.3633 55.3096C44.4259 55.5169 44.6084 55.8433 44.3633 56.0227C43.7248 56.0661 43.7309 55.4395 43.2006 55.1974C42.8002 55.0149 41.5818 54.837 41.2123 55.1224C40.8273 55.4202 41.0074 56.5928 40.9873 57.449C40.951 58.996 40.9084 61.0774 40.9873 62.6653C41.0306 63.5347 41.0863 64.4149 41.5501 64.7668C41.7488 64.9176 42.7677 64.947 42.6007 65.48C42.4747 65.8822 41.4079 65.705 40.8373 65.705C40.0132 65.705 39.3538 65.8226 39.0368 65.5171C38.6897 65.1829 38.849 63.7033 38.849 62.9275C38.849 60.8237 38.9247 58.2789 38.924 56.36C38.924 55.9462 38.9302 55.4504 38.774 55.2717C38.4308 54.8795 37.183 54.9878 36.7107 55.1967C36.2306 55.4086 36.1309 55.9856 35.548 56.022C35.2426 55.8936 35.4459 55.5239 35.5109 55.3088C35.7219 54.6034 35.9971 53.7634 36.3357 53.2073C38.6464 53.1462 41.387 53.1439 43.5755 53.2081ZM113.869 65.5179C113.65 65.7654 113.239 65.6679 112.894 65.6679C112.152 65.6679 111.567 65.6609 111.018 65.6679C110.728 65.6718 110.367 65.7213 110.156 65.5929C109.707 65.3206 109.836 63.7613 109.856 63.0033C109.904 61.1648 109.942 59.0107 109.931 57.6741C109.924 56.8488 110.024 56.1705 109.931 55.1595C109.884 54.6568 109.635 54.1865 109.293 53.9583C109.011 53.7712 108.449 53.7642 108.505 53.3953C108.559 53.0464 109.498 53.1787 109.968 53.1702C111.669 53.14 114.411 52.8298 115.857 53.4703C116.923 53.9421 117.557 55.1472 117.432 56.8852C117.273 59.1097 115.6 60.2126 113.494 60.6009C112.926 60.7053 112.302 60.7564 112.143 61.2011C111.978 61.666 112.106 62.4379 112.143 62.9275C112.206 63.7505 112.309 64.4868 112.818 64.8039C113.197 65.0398 113.88 64.8442 113.869 65.5179ZM112.068 55.9856C112.057 56.3058 112.046 56.6423 112.031 56.961C112.009 57.4583 111.961 58.7221 112.181 58.9874C112.752 59.6782 114.343 58.8652 114.694 58.4244C115.52 57.3887 115.029 55.3173 114.131 54.7844C113.844 54.6135 113.242 54.5508 112.932 54.5965C112.073 54.7225 112.101 55.1039 112.068 55.9856ZM18.4438 53.1702C18.7066 53.1702 18.9687 53.1702 19.2315 53.1702C19.6652 53.9576 20.0023 54.8904 20.3571 55.8348C21.1998 58.0802 21.9651 60.5321 22.8704 62.8153C23.2569 63.7899 23.3914 64.2772 24.2959 64.7668C24.6028 64.9331 25.1563 65.1775 25.0458 65.5171C24.9329 65.8644 23.8058 65.695 23.3203 65.705C22.7498 65.7166 22.013 65.8621 21.5948 65.5929C21.1967 65.3369 21.0637 64.452 20.9199 63.9787C20.7158 63.3104 20.572 62.902 20.32 62.3273C19.8276 62.3126 19.407 62.3273 18.8574 62.3273C18.3409 62.3273 17.6916 62.209 17.2447 62.3273C16.7608 62.4557 16.1562 64.0258 16.4941 64.5789C16.8505 65.1621 17.9869 64.7862 17.8075 65.5921C17.6784 65.7963 17.3522 65.7043 17.1319 65.7043C16.4338 65.7043 15.5679 65.7043 14.8436 65.7043C14.3844 65.4305 14.2669 65.0654 14.3187 64.5031C14.4014 63.5942 14.8729 62.5129 15.1814 61.5383C15.7736 59.6642 16.515 57.8156 17.2069 55.9841C17.5772 55.0025 17.9521 53.7333 18.4438 53.1702ZM17.3189 60.6759C18.0673 60.6713 19.0831 60.7556 19.6443 60.6009C19.7016 59.9373 19.3869 59.3355 19.1944 58.7624C18.9919 58.1614 18.8218 57.5527 18.5195 57.036C18.511 57.0066 18.4878 56.9927 18.4445 56.9989C18.0116 58.1668 17.5223 59.279 17.3189 60.6759ZM27.5212 58.0492C28.3097 58.1173 29.2985 58.0864 30.2223 58.0864C31.143 58.0864 32.1287 58.2349 32.6977 57.8234C32.7031 56.3754 33.01 54.6351 32.1727 53.9955C31.9864 53.8532 31.2868 53.8052 31.31 53.4324C31.3347 53.034 32.2485 53.1694 32.8105 53.1694C33.6717 53.1694 34.6118 53.007 34.8739 53.5445C35.1514 54.1138 34.9488 55.6306 34.9488 56.5092C34.9488 58.6726 34.9164 60.2157 34.9488 62.3265C34.9643 63.3313 35.0509 64.3693 35.5116 64.766C35.8247 65.0352 36.8104 65.0453 36.7122 65.5163C36.631 65.9038 35.2264 65.7414 34.7618 65.7414C33.892 65.7414 33.1105 65.8172 32.8484 65.5163C32.5113 65.128 32.6814 63.496 32.6984 62.7767C32.7208 61.8292 32.7564 61.1037 32.7355 59.9991C31.1121 59.9249 29.1477 59.9535 27.634 59.9991C27.7083 61.5376 27.2436 64.2525 28.3468 64.8782C28.6653 65.0592 29.4229 64.9641 29.3595 65.4784C29.3108 65.8737 28.1675 65.7414 27.5969 65.7414C26.5827 65.7414 25.6758 65.8992 25.4215 65.3291C25.2228 64.8836 25.3844 63.7149 25.3844 62.8517C25.3844 61.1153 25.4215 59.2922 25.4215 57.4475C25.4215 55.991 25.6403 54.5276 24.8216 53.9576C24.5518 53.7696 23.662 53.6961 24.1467 53.2073C24.8208 53.3473 26.7172 52.8515 27.3349 53.2823C27.76 53.5793 27.5977 54.4387 27.5977 55.0458C27.5962 56.1751 27.5475 57.0205 27.5212 58.0492ZM48.1143 53.1702C49.3782 56.0042 50.5657 59.7269 51.7902 62.7775C52.1845 63.7605 52.2254 64.2733 53.1408 64.7668C53.4809 64.9509 53.9641 65.1041 53.9285 65.4421C53.8852 65.8574 52.9436 65.7422 52.3159 65.7422C51.5838 65.7422 50.8347 65.8257 50.4775 65.5921C50.084 65.3345 49.9534 64.4729 49.8026 63.9779C49.6047 63.3282 49.4532 62.9128 49.2027 62.3265C48.1197 62.4866 47.0513 62.1076 46.1646 62.3265C45.7726 62.4232 45.642 62.9159 45.5268 63.2276C45.4147 63.5308 45.1712 63.9817 45.3018 64.428C45.3915 64.7336 45.7448 64.8929 46.0525 64.9911C46.33 65.0801 46.8526 65.1033 46.7274 65.5163C46.6284 65.8412 45.8971 65.7414 45.3018 65.7414C44.1708 65.7414 43.3506 65.9293 43.2014 64.9911C43.1233 64.5015 43.3459 63.8224 43.5013 63.3026C44.3896 60.3317 45.5013 57.4305 46.6145 54.5957C46.8116 54.0929 46.9894 53.5267 47.2523 53.2444C47.4115 53.0928 47.8359 53.2042 48.1143 53.1702ZM46.2009 60.6759C46.9972 60.6411 47.9674 60.8306 48.5642 60.5638C48.3292 59.2102 47.8785 58.0724 47.3636 56.9989C46.8681 58.091 46.3926 59.4036 46.2009 60.6759ZM66.2691 53.2081C66.5706 53.5824 66.5064 54.3087 66.5319 54.8966C66.5582 55.5099 66.668 56.2169 66.3819 56.5858C65.8578 56.3491 65.9026 55.7257 65.6321 55.3096C65.4836 55.0822 65.1883 54.8316 64.9193 54.7094C64.3093 54.4317 62.5096 54.2244 62.1811 54.8594C61.9646 55.2787 62.0721 56.1279 62.0682 56.623C62.0628 57.2835 61.9685 57.8876 62.1053 58.4623C63.0245 58.8235 63.9777 58.603 64.7685 58.5744C66.6587 58.5056 68.1484 59.3873 67.9946 61.5391C67.7943 64.3399 65.6406 65.6571 62.6681 65.705C62.2993 65.7112 61.8966 65.7151 61.4675 65.705C60.9117 65.6919 60.1858 65.8559 59.9299 65.367C59.6918 64.913 59.8673 63.4241 59.892 62.7775C59.967 60.8206 59.9299 59.4771 59.9299 57.7862C59.9299 56.3236 60.1633 54.5988 59.3671 53.9955C59.2032 53.8709 57.9184 53.4548 58.7293 53.1694C59.1684 53.0155 60.0543 53.1694 60.6427 53.1694C62.5452 53.1702 64.4856 53.14 66.2691 53.2081ZM62.2932 59.7377C61.9066 60.1376 62.0929 61.5175 62.1053 62.1393C62.1146 62.5965 62.0914 64.0954 62.4053 64.3159C62.9271 64.6825 64.2606 64.2115 64.5428 64.0529C65.6398 63.4372 66.1786 61.1238 65.1427 60.0749C64.7801 59.7083 63.9893 59.5103 63.2672 59.5498C62.9673 59.5668 62.5065 59.5173 62.2932 59.7377ZM68.1445 53.2081C68.1546 53.205 68.1476 53.1733 68.1824 53.1702C69.5577 53.0696 70.8665 53.1702 72.2712 53.1702C73.7493 53.1702 75.0164 53.2135 75.8351 53.9212C76.6081 54.5903 76.9027 55.8851 76.7728 57.0739C76.5548 59.0663 75.3086 60.0912 73.5097 60.5267C72.7706 60.7061 71.6806 60.7247 71.4842 61.2777C71.2987 61.7982 71.4641 62.6359 71.5213 63.2292C71.5886 63.9214 71.713 64.5402 72.0462 64.8055C72.3593 65.0546 73.3311 65.0824 73.2089 65.5186C73.1278 65.811 72.8023 65.7437 72.4212 65.7437C72.0602 65.7437 71.6241 65.7414 71.4084 65.7437C70.8657 65.7491 70.0339 65.8883 69.5709 65.7066C68.9825 65.4761 69.1696 64.2153 69.1959 63.305C69.2493 61.4726 69.233 59.8143 69.233 57.7878C69.233 56.2293 69.4804 54.6057 68.6331 53.997C68.5713 53.9529 67.8299 53.8037 67.8075 53.509C67.7851 53.222 68.0626 53.2313 68.1445 53.2081ZM71.5576 54.9724C71.4077 55.2083 71.4572 55.6097 71.4456 55.8727C71.4092 56.6639 71.151 58.477 71.4827 58.9874C71.8738 59.5884 73.2105 59.2056 73.7331 58.7995C74.687 58.0593 74.626 55.9493 73.8452 55.1216C73.5553 54.8138 72.9979 54.6142 72.4575 54.6336C72.0625 54.6483 71.7494 54.6699 71.5576 54.9724ZM84.386 56.5858C83.8665 56.4195 83.9051 55.8495 83.6732 55.4597C83.33 54.8811 82.7479 54.5531 81.7978 54.4843C81.2922 54.4472 80.2431 54.4271 80.0352 54.7473C79.8859 54.9755 79.9462 55.8959 79.9223 56.3986C79.889 57.1157 79.9277 57.5782 79.8852 58.2001C81.1824 58.3942 82.4085 58.0137 83.5232 58.125C83.6755 58.716 83.4003 59.426 83.2233 59.9264C82.6288 60.2993 80.5616 59.6232 80.0723 60.1515C79.8914 60.3472 79.9594 61.1485 79.9594 61.6528C79.9594 62.7744 79.8396 63.9771 80.7471 64.2424C81.7405 64.5325 83.5642 64.1333 84.0482 63.7172C84.3435 63.4627 84.502 63.1271 84.686 62.8169C84.8522 62.5354 85.03 62.1185 85.4737 62.0659C85.6894 62.7434 85.4003 63.2918 85.2859 63.9052C85.1908 64.4172 85.2008 65.4343 84.8359 65.6695C84.5437 65.8574 83.6106 65.7445 83.1475 65.7445C81.8271 65.7445 80.9621 65.7445 79.6216 65.7445C79.0843 65.7445 78.2656 65.8118 78.0082 65.6323C77.5312 65.299 77.7453 64.1009 77.7453 63.2678C77.7453 61.2498 77.7824 60.0046 77.7824 57.9765C77.7824 56.5278 78.0429 54.6173 77.2196 53.9986C77.1439 53.9421 76.3948 53.806 76.3569 53.5105C76.3321 53.3195 76.537 53.1988 76.6197 53.1725C77.0333 53.0418 77.9656 53.1725 78.5702 53.1725C79.937 53.1725 80.9845 53.1725 82.434 53.1725C82.9172 53.1725 83.9902 53.0518 84.2716 53.2475C84.5499 53.4409 84.4811 54.4828 84.4965 54.9368C84.5174 55.4651 84.6558 56.1589 84.386 56.5858ZM91.9258 58.1622C92.6548 56.527 93.1743 54.6831 94.0641 53.2081C94.7792 53.1447 95.7494 53.147 96.4645 53.2081C96.8819 53.9274 96.7273 54.8571 96.7273 55.6847C96.7273 58.3795 96.5851 60.2869 96.7273 62.8525C96.766 63.5587 96.9098 64.5789 97.478 64.879C97.8344 65.0677 98.5293 64.9903 98.4907 65.4421C98.4559 65.8504 97.1943 65.705 96.6531 65.705C96.0424 65.705 94.9941 65.8265 94.7026 65.555C94.3849 65.2587 94.5148 64.0026 94.5148 63.2284C94.5148 60.5615 94.5874 58.5675 94.5148 56.0978C94.262 56.1844 94.2102 56.4845 94.102 56.698C93.3644 58.156 92.7529 60.0061 92.1136 61.6142C91.8631 61.5894 91.5137 61.6637 91.3259 61.577C90.937 61.2205 90.8435 60.6574 90.6502 60.1879C90.0727 58.7817 89.3561 57.3121 88.5869 56.0599C88.5173 58.0198 88.4098 60.7958 88.5498 63.0404C88.5923 63.7188 88.7693 64.517 89.1497 64.8039C89.5718 65.1226 90.2699 64.8155 90.2753 65.5921C89.9684 65.8404 89.2378 65.7422 88.5869 65.7422C87.7991 65.7422 86.9912 65.862 86.7864 65.3299C86.5753 64.7807 86.7493 63.5409 86.7493 62.6653C86.7493 61.6923 86.7446 61.0952 86.7493 60.3387C86.7593 58.504 86.934 56.5069 86.7864 55.0845C86.7439 54.6761 86.5096 54.2167 86.2236 53.9962C85.9631 53.7959 85.432 53.7534 85.3987 53.5082C85.3237 52.9629 87.0771 53.1702 87.612 53.1702C88.2189 53.1702 89.0561 52.9985 89.5625 53.2081C89.8168 53.3133 90.0944 53.9653 90.2753 54.3343C90.9007 55.6066 91.4271 56.8403 91.9258 58.1622Z" fill="white"/>
<path fill-rule="evenodd" clip-rule="evenodd" d="M61.2988 0C78.1108 0 91.7447 13.6409 91.7447 30.4616C91.7447 36.497 89.989 42.1224 86.9617 46.8553H115.576C119.032 46.8553 121.859 49.6838 121.859 53.1413V65.714C121.859 69.1714 119.032 72 115.576 72H6.80033C3.3447 72 0.517578 69.1714 0.517578 65.714V53.142C0.517578 49.6846 3.3447 46.856 6.80033 46.856H35.6359C32.6086 42.1232 30.8529 36.497 30.8529 30.4623C30.8529 13.6409 44.4868 0 61.2988 0ZM6.80033 48.8508C4.44169 48.8508 2.51133 50.7822 2.51133 53.142V65.7148C2.51133 68.0754 4.44169 70.006 6.80033 70.006H115.577C117.936 70.006 119.866 68.0746 119.866 65.7148V53.142C119.866 50.7814 117.936 48.8508 115.577 48.8508C79.3175 48.8508 43.0589 48.8508 6.80033 48.8508ZM38.0386 46.856H84.5597C87.8298 42.2206 89.7517 36.5658 89.7517 30.4623C89.7517 14.7431 77.0107 1.99555 61.2988 1.99555C45.5877 1.99555 32.8467 14.7431 32.8467 30.4623C32.8467 36.5658 34.7685 42.2206 38.0386 46.856Z" fill="#D7B46A"/>
</svg>
