<svg width="25" height="20" viewBox="0 0 25 20" fill="none" xmlns="http://www.w3.org/2000/svg">
<path d="M9.18808 2.69789C9.03961 2.57041 8.84954 2.501 8.65325 2.50293L8.64587 2.503L6.30868 2.50296C6.1965 2.50311 6.08561 2.52655 5.98308 2.57177C5.88047 2.61702 5.78853 2.68306 5.71306 2.7656C5.63759 2.84814 5.58025 2.94537 5.54459 3.05107C5.50946 3.15519 5.49612 3.26534 5.50533 3.37473C5.74941 5.65937 6.52856 7.85474 7.77991 9.78329L7.7835 9.78882C8.92057 11.5754 10.4377 13.0902 12.2274 14.2256C12.912 14.6599 13.6271 15.0082 14.1763 15.2492C14.4495 15.3691 14.6785 15.461 14.8378 15.5225C14.9175 15.5532 14.9795 15.5763 15.0208 15.5914L15.0668 15.608L15.0773 15.6117L15.0791 15.6123C15.4709 15.7484 15.6785 16.1766 15.5425 16.5686C15.4065 16.9607 14.9785 17.1682 14.5865 17.0321L14.5632 17.0239C14.5865 17.0321 14.5865 17.0321 14.5865 17.0321L14.584 17.0313L14.5793 17.0296L14.5632 17.0239L14.5056 17.0032C14.4563 16.9852 14.3857 16.9589 14.297 16.9247C14.1198 16.8563 13.8696 16.7557 13.5727 16.6255C12.9817 16.3662 12.193 15.9834 11.4227 15.4948C9.44788 14.2419 7.77331 12.5704 6.51788 10.5988C5.13775 8.47079 4.27878 6.04817 4.01062 3.52698L4.00937 3.51524C3.98048 3.196 4.01858 2.87426 4.12103 2.57055C4.22349 2.26683 4.38813 1.98784 4.6044 1.75131C4.82066 1.51478 5.08379 1.32589 5.377 1.19659C5.6702 1.06729 5.9871 1.00038 6.30754 1.00008L8.64255 1.00008C9.20114 0.995565 9.74268 1.19347 10.1666 1.55749C10.5917 1.92242 10.8695 2.42946 10.9481 2.98425L10.9491 2.99117C11.0403 3.68177 11.2095 4.35987 11.4534 5.01254L11.4527 5.01084C11.6083 5.42396 11.642 5.873 11.5497 6.30471C11.4575 6.73641 11.2433 7.13248 10.9327 7.44606L10.9298 7.44905L10.3563 8.02157C11.28 9.47392 12.5135 10.7052 13.9686 11.6272L14.5467 11.0501C14.8607 10.74 15.2571 10.5265 15.6887 10.4346C16.12 10.3428 16.5686 10.3762 16.9815 10.531C17.6352 10.7744 18.3144 10.9433 19.0061 11.0344L19.0128 11.0353C19.5734 11.1143 20.0857 11.3962 20.4521 11.828C20.8163 12.2571 21.011 12.8045 20.9995 13.3671V13.3587L20.9993 13.3774C20.9994 13.374 20.9995 13.3705 20.9995 13.3671V15.6926C20.9995 15.717 20.9983 15.7414 20.996 15.7657C20.9119 16.6263 20.4883 17.2137 19.9661 17.5658C19.4744 17.8975 18.9253 18.0031 18.5434 17.9999C18.5184 17.9997 18.4935 17.9983 18.4686 17.9956C18.0486 17.95 17.6312 17.8881 17.2176 17.8102C16.8099 17.7334 16.5416 17.3405 16.6184 16.9327C16.6951 16.5248 17.0879 16.2565 17.4956 16.3333C17.8564 16.4012 18.2203 16.4557 18.5865 16.4966C18.5758 16.497 18.5655 16.4972 18.5559 16.4971L18.6306 16.5015C18.6159 16.4999 18.6012 16.4982 18.5865 16.4966C18.7236 16.4912 18.9425 16.4437 19.1263 16.3197C19.2893 16.2098 19.4527 16.0247 19.4971 15.6524V15.6926L19.5007 15.6195C19.4996 15.6306 19.4984 15.6416 19.4971 15.6524V13.3587L19.4973 13.34C19.5022 13.1432 19.4345 12.9512 19.3067 12.8006C19.1795 12.6507 19.0014 12.5521 18.806 12.5239L18.81 12.5245L18.8033 12.5235L18.806 12.5239C18.0033 12.4179 17.215 12.2217 16.4563 11.9391L16.4546 11.9384C16.31 11.8841 16.1527 11.8724 16.0015 11.9046C15.8509 11.9366 15.7128 12.0109 15.6033 12.1185L15.605 12.1168L15.6021 12.1198L14.6154 13.1048C14.3764 13.3434 14.0076 13.3932 13.714 13.2265C11.6457 12.0523 9.93303 10.3425 8.75678 8.27717C8.58914 7.98282 8.63912 7.61265 8.87882 7.37334L9.86671 6.38703L9.86545 6.3883L9.86842 6.38533L9.86671 6.38703C9.97444 6.27778 10.0485 6.14025 10.0805 5.99066C10.1126 5.84051 10.1009 5.68431 10.0467 5.54053L10.0461 5.53884C9.76291 4.78114 9.56633 3.99393 9.4601 3.19216C9.43225 3.00034 9.33579 2.82471 9.18808 2.69789Z"/>
<path d="M14.0043 1.69584C14.0459 1.26662 14.3836 0.957239 14.7586 1.00483C16.3503 1.20684 17.8347 2.02116 18.9682 3.31442C20.1017 4.60771 20.8167 6.30311 20.9956 8.12233C21.0379 8.55147 20.7681 8.93853 20.3932 8.98685C20.0183 9.03516 19.6801 8.72644 19.6379 8.29729C19.4937 6.83139 18.9175 5.46481 18.0036 4.42202C17.0896 3.37921 15.8923 2.7222 14.608 2.55921C14.233 2.51161 13.9627 2.12507 14.0043 1.69584Z" />
<path d="M14.0127 4.87074C14.0848 4.44684 14.4435 4.17012 14.8139 4.25267C15.6392 4.43663 16.3979 4.8978 16.9927 5.57739C17.5876 6.257 17.9916 7.12414 18.1528 8.06789C18.2252 8.49172 17.9837 8.90248 17.6134 8.98533C17.2431 9.06818 16.8842 8.79175 16.8119 8.36792C16.703 7.73025 16.4299 7.144 16.0275 6.68429C15.6251 6.22457 15.1116 5.91231 14.5527 5.78773C14.1824 5.70519 13.9406 5.29463 14.0127 4.87074Z" />
</svg>
