<svg width="202" height="56" viewBox="0 0 202 56" fill="none" xmlns="http://www.w3.org/2000/svg">
<g clip-path="url(#clip0_481_3765)">
<path d="M31.695 25.9472L31.0381 28.0821C29.5601 32.8446 27.5894 32.8446 26.6041 32.8446C24.1408 32.8446 22.4985 31.0381 22.4985 28.739H13.4663C13.4663 36.2933 19.2141 42.0411 26.6041 42.0411C30.217 42.0411 36.6217 40.5631 39.7419 30.8739L40.3988 28.739C41.5484 25.2903 43.1906 23.4839 45.3255 23.4839C47.7889 23.4839 49.4311 25.4545 49.4311 28.5748H58.6276C58.6276 20.3636 52.8798 14.2874 45.4897 14.2874C39.085 14.2874 33.9941 18.5572 31.695 25.9472ZM0 28.0821C0 43.5191 12.4809 56.1642 28.0821 56.1642V46.9677C17.7361 46.9677 9.19648 38.4282 9.19648 28.0821C9.19648 17.7361 17.5718 9.19648 28.0821 9.19648V0C12.6452 0 0 12.4809 0 28.0821Z" fill="#1BA085"/>
<path d="M192.143 31.8592C192.143 32.8445 192.799 33.5014 194.113 34.1583C195.263 34.6509 196.084 35.1436 196.905 35.6363C197.89 36.4574 198.383 37.4427 198.383 38.7565C198.383 40.8914 196.905 42.3694 194.606 42.3694H193.785C191.814 42.3694 190.5 41.2199 190.5 40.3987C190.5 40.2345 190.5 40.2345 190.665 40.2345L191.486 39.7419H191.65C191.814 39.7419 191.814 39.7419 191.814 39.9061C192.471 40.563 192.799 41.0556 193.785 41.0556H194.77C196.084 41.0556 197.069 40.0703 197.069 38.7565C197.069 37.2785 195.92 36.7858 194.113 35.8005C191.814 34.6509 190.665 33.9941 190.665 31.6949C190.665 29.56 192.143 28.082 194.442 28.082H194.77C196.741 28.082 198.055 29.2316 198.055 30.0527C198.055 30.0527 198.055 30.2169 197.89 30.2169L197.069 30.7096H196.905C196.905 30.7096 196.741 30.7096 196.741 30.5454C196.084 29.8885 195.755 29.3958 194.77 29.3958H194.442C193.292 29.56 192.143 30.5454 192.143 31.8592ZM189.022 29.7243H186.395C186.231 29.7243 186.231 29.7243 186.231 29.8885V41.8768C186.231 42.041 186.231 42.041 186.066 42.041H185.081C184.917 42.041 184.917 42.041 184.917 41.8768V30.0527C184.917 29.8885 184.917 29.8885 184.753 29.8885H182.125C181.961 29.8885 181.961 29.8885 181.961 29.7243V28.9031C181.961 28.7389 181.961 28.7389 182.125 28.7389H189.187C189.351 28.7389 189.351 28.7389 189.351 28.9031V29.56C189.351 29.7243 189.187 29.7243 189.022 29.7243ZM179.333 42.2052H178.348L178.184 42.041L172.436 31.3665L172.6 41.8768C172.6 42.041 172.6 42.041 172.436 42.041H171.45C171.286 42.041 171.286 42.041 171.286 41.8768V28.7389C171.286 28.5747 171.286 28.5747 171.45 28.5747H172.436L172.6 28.7389L178.348 39.4134L178.184 28.9031C178.184 28.7389 178.184 28.7389 178.348 28.7389H179.333C179.497 28.7389 179.497 28.7389 179.497 28.9031V42.041C179.497 42.041 179.497 42.2052 179.333 42.2052ZM168.002 42.2052H160.94C160.776 42.2052 160.776 42.2052 160.776 42.041V28.9031C160.776 28.7389 160.776 28.7389 160.94 28.7389H168.002C168.166 28.7389 168.166 28.7389 168.166 28.9031V29.56C168.166 29.7243 168.166 29.7243 168.002 29.7243H162.418C162.254 29.7243 162.254 29.7243 162.254 29.8885V34.3225C162.254 34.4867 162.254 34.4867 162.418 34.4867H167.016C167.181 34.4867 167.181 34.4867 167.181 34.6509V35.4721C167.181 35.6363 167.181 35.6363 167.016 35.6363H162.418C162.254 35.6363 162.254 35.6363 162.254 35.8005V40.3987C162.254 40.563 162.254 40.563 162.418 40.563H168.002C168.166 40.563 168.166 40.7272 168.166 40.7272V41.5483C168.166 42.041 168.166 42.2052 168.002 42.2052ZM152.236 39.9061L152.072 40.0703H151.744C151.58 40.0703 151.58 40.0703 151.58 39.9061L147.967 31.3665L148.131 41.8768C148.131 42.041 148.131 42.041 147.967 42.041H146.981C146.817 42.041 146.817 42.041 146.817 41.8768V28.7389C146.817 28.5747 146.817 28.5747 146.981 28.5747H147.802C147.967 28.5747 147.967 28.7389 147.967 28.7389L151.744 37.7712L155.521 28.7389L155.685 28.5747H156.67C156.835 28.5747 156.835 28.5747 156.835 28.7389V41.8768C156.835 42.041 156.835 42.041 156.67 42.041H156.014C155.849 42.041 155.849 42.041 155.849 41.8768L156.014 31.3665L152.236 39.9061ZM139.755 42.3694H139.099C136.799 42.3694 135.321 40.8914 135.321 38.7565V28.7389C135.321 28.5747 135.321 28.5747 135.486 28.5747H136.471C136.635 28.5747 136.635 28.5747 136.635 28.7389V38.7565C136.635 40.0703 137.621 41.0556 138.934 41.0556H139.591C140.905 41.0556 141.89 40.0703 141.89 38.7565V28.7389C141.89 28.5747 141.89 28.5747 142.055 28.5747H143.04C143.204 28.5747 143.204 28.5747 143.204 28.7389V38.7565C143.533 40.8914 142.055 42.3694 139.755 42.3694ZM129.409 34.6509H126.618C126.453 34.6509 126.453 34.6509 126.453 34.4867V30.0527C126.453 29.8885 126.453 29.8885 126.618 29.8885H129.409C130.723 29.8885 131.709 30.8738 131.709 32.1876V32.3518C131.709 33.6656 130.723 34.6509 129.409 34.6509ZM132.037 34.9794C132.858 34.1583 133.351 33.3372 133.351 32.516V32.1876C133.351 29.8885 131.873 28.4105 129.574 28.4105H125.468C125.304 28.4105 125.304 28.4105 125.304 28.5747V41.7125C125.304 41.8768 125.304 41.8768 125.468 41.8768H126.453C126.618 41.8768 126.618 41.8768 126.618 41.7125V35.8005C126.618 35.6363 126.618 35.6363 126.782 35.6363H129.409C129.574 35.6363 129.574 35.8005 129.574 35.8005L131.544 41.7125L131.709 41.8768H133.022C133.187 41.8768 133.187 41.8768 133.187 41.7125C133.187 41.7125 133.187 41.7125 133.351 41.7125L131.216 35.4721C131.216 35.4721 131.544 35.3078 132.037 34.9794ZM123.005 29.7243H120.377C120.213 29.7243 120.213 29.7243 120.213 29.8885V41.8768C120.213 42.041 120.213 42.041 120.049 42.041H119.063C118.899 42.041 118.899 42.041 118.899 41.8768V30.0527C118.899 29.8885 118.899 29.8885 118.735 29.8885H116.107C115.943 29.8885 115.943 29.8885 115.943 29.7243V28.9031C115.943 28.7389 115.943 28.7389 116.107 28.7389H123.005C123.169 28.7389 123.169 28.7389 123.169 28.9031V29.56C123.169 29.7243 123.169 29.7243 123.005 29.7243ZM108.389 31.8592C108.389 32.8445 109.046 33.5014 110.36 34.1583C111.509 34.6509 112.33 35.1436 113.151 35.6363C114.137 36.4574 114.629 37.4427 114.629 38.7565C114.629 40.8914 113.151 42.3694 110.852 42.3694H110.031C108.06 42.3694 106.747 41.2199 106.747 40.3987C106.747 40.2345 106.747 40.2345 106.911 40.2345L107.732 39.7419H107.896C108.06 39.7419 108.06 39.7419 108.06 39.9061C108.717 40.563 109.046 41.0556 110.031 41.0556H111.016C112.33 41.0556 113.316 40.0703 113.316 38.7565C113.316 37.2785 112.166 36.7858 110.36 35.8005C108.06 34.6509 106.911 33.9941 106.911 31.6949C106.911 29.56 108.389 28.082 110.688 28.082H111.016C112.987 28.082 114.301 29.2316 114.301 30.0527C114.301 30.0527 114.301 30.2169 114.137 30.2169L113.316 30.7096H113.151C113.151 30.7096 112.987 30.7096 112.987 30.5454C112.33 29.8885 112.002 29.3958 111.016 29.3958H110.688C109.374 29.56 108.389 30.5454 108.389 31.8592ZM104.283 42.2052H103.298L103.134 42.041L97.3859 31.3665L97.5502 41.8768C97.5502 42.041 97.5502 42.041 97.3859 42.041H96.4006C96.2364 42.041 96.2364 42.041 96.2364 41.8768V28.7389C96.2364 28.5747 96.2364 28.5747 96.4006 28.5747H97.3859L97.5502 28.7389L103.298 39.4134L103.134 28.9031C103.134 28.7389 103.134 28.7389 103.298 28.7389H104.283C104.448 28.7389 104.448 28.7389 104.448 28.9031V42.041C104.612 42.041 104.448 42.2052 104.283 42.2052ZM92.9519 42.2052H91.9666C91.8024 42.2052 91.8024 42.2052 91.8024 42.041V28.9031C91.8024 28.7389 91.8024 28.7389 91.9666 28.7389H92.9519C93.1161 28.7389 93.1162 28.7389 93.1162 28.9031V42.041C93.2804 42.041 93.1161 42.2052 92.9519 42.2052ZM77.1865 31.8592C77.1865 32.8445 77.8434 33.5014 79.1572 34.1583C80.3068 34.6509 81.1279 35.1436 81.949 35.6363C82.9343 36.4574 83.427 37.4427 83.427 38.7565C83.427 40.8914 81.949 42.3694 79.6499 42.3694H78.8288C76.8581 42.3694 75.5443 41.2199 75.5443 40.3987C75.5443 40.2345 75.5443 40.2345 75.7085 40.2345L76.5296 39.7419H76.6939C76.8581 39.7419 76.8581 39.7419 76.8581 39.9061C77.515 40.563 77.8434 41.0556 78.8288 41.0556H79.8141C81.1279 41.0556 82.1132 40.0703 82.1132 38.7565C82.1132 37.2785 80.9637 36.7858 79.1572 35.8005C76.8581 34.6509 75.7085 33.9941 75.7085 31.6949C75.7085 29.56 77.1865 28.082 79.4857 28.082H79.8141C81.7848 28.082 83.0986 29.2316 83.0986 30.0527C83.0986 30.0527 83.0986 30.2169 82.9343 30.2169L82.1132 30.8738H81.949C81.949 30.8738 81.7848 30.8738 81.7848 30.7096C81.1279 30.0527 80.7994 29.56 79.8141 29.56H79.4857C78.1719 29.56 77.1865 30.5454 77.1865 31.8592ZM73.9021 40.3987C73.9021 41.0556 72.5883 42.3694 70.6176 42.3694H69.9607C67.6616 42.3694 66.1836 40.8914 66.1836 38.7565V31.8592C66.1836 29.7243 67.6616 28.2463 69.9607 28.2463H70.6176C72.5883 28.2463 73.9021 29.3958 73.9021 30.2169C73.9021 30.2169 73.9021 30.3812 73.7379 30.3812L72.9167 30.8738H72.7525C72.7525 30.8738 72.5883 30.8738 72.5883 30.7096C71.9314 30.0527 71.4387 29.56 70.6176 29.56H69.9607C68.6469 29.56 67.6616 30.5454 67.6616 31.8592V38.7565C67.6616 40.0703 68.6469 41.0556 69.9607 41.0556H70.6176C71.1103 41.0556 71.6029 40.8914 71.9314 40.563C72.4241 40.0703 72.5883 39.7419 72.7525 39.7419H72.9167L73.7379 40.2345C73.9021 40.3987 73.9021 40.3987 73.9021 40.3987Z" fill="#1BA085"/>
</g>
<defs>
<clipPath id="clip0_481_3765">
<rect width="202" height="56" fill="white"/>
</clipPath>
</defs>
</svg>
