<svg width="25" height="20" viewBox="0 0 25 20" fill="none" xmlns="http://www.w3.org/2000/svg">
<path fill-rule="evenodd" clip-rule="evenodd" d="M6.69228 1.86684C7.13554 1.42358 7.73673 1.17456 8.36359 1.17456H14.9457C15.1362 1.17456 15.3188 1.25021 15.4535 1.38487L20.3901 6.32148C20.5247 6.45614 20.6004 6.63878 20.6004 6.82922V16.7024C20.6004 17.3293 20.3514 17.9305 19.9081 18.3737C19.4649 18.817 18.8637 19.066 18.2368 19.066C17.8402 19.066 17.5188 18.7445 17.5188 18.348C17.5188 17.9514 17.8402 17.6299 18.2368 17.6299C18.4828 17.6299 18.7187 17.5322 18.8926 17.3583C19.0666 17.1843 19.1643 16.9484 19.1643 16.7024L19.1643 7.54727H14.9457C14.5492 7.54727 14.2277 7.22579 14.2277 6.82922V2.61066H8.36359C8.1176 2.61066 7.88169 2.70838 7.70776 2.88232C7.53382 3.05626 7.4361 3.29216 7.4361 3.53815V16.7024C7.4361 16.9484 7.53382 17.1843 7.70776 17.3583C7.88169 17.5322 8.1176 17.6299 8.36359 17.6299H15.277C15.6736 17.6299 15.9951 17.9514 15.9951 18.348C15.9951 18.7445 15.6736 19.066 15.277 19.066H8.36359C7.73673 19.066 7.13554 18.817 6.69228 18.3737C6.24902 17.9305 6 17.3293 6 16.7024V3.53815C6 2.91129 6.24902 2.3101 6.69228 1.86684ZM15.6638 6.11117V3.62614L18.1488 6.11117H15.6638Z" />
<path fill-rule="evenodd" clip-rule="evenodd" d="M9.29102 10.943C9.29102 10.5465 9.6125 10.225 10.0091 10.225H16.5912C16.9878 10.225 17.3093 10.5465 17.3093 10.943C17.3093 11.3396 16.9878 11.6611 16.5912 11.6611H10.0091C9.6125 11.6611 9.29102 11.3396 9.29102 10.943Z" />
<path fill-rule="evenodd" clip-rule="evenodd" d="M9.29102 10.943C9.29102 10.5465 9.6125 10.225 10.0091 10.225H16.5912C16.9878 10.225 17.3093 10.5465 17.3093 10.943C17.3093 11.3396 16.9878 11.6611 16.5912 11.6611H10.0091C9.6125 11.6611 9.29102 11.3396 9.29102 10.943Z" />
<path fill-rule="evenodd" clip-rule="evenodd" d="M9.29102 14.2341C9.29102 13.8375 9.6125 13.5161 10.0091 13.5161H16.5912C16.9878 13.5161 17.3093 13.8375 17.3093 14.2341C17.3093 14.6307 16.9878 14.9522 16.5912 14.9522H10.0091C9.6125 14.9522 9.29102 14.6307 9.29102 14.2341Z" />
<path fill-rule="evenodd" clip-rule="evenodd" d="M9.29102 14.2341C9.29102 13.8375 9.6125 13.5161 10.0091 13.5161H16.5912C16.9878 13.5161 17.3093 13.8375 17.3093 14.2341C17.3093 14.6307 16.9878 14.9522 16.5912 14.9522H10.0091C9.6125 14.9522 9.29102 14.6307 9.29102 14.2341Z" />
</svg>
