<svg width="30" height="23" viewBox="0 0 30 23" fill="none" xmlns="http://www.w3.org/2000/svg">
<path d="M9.33836 16.1669L13.0306 0.507718H17.1371L20.9676 15.9332C21.1903 16.8936 21.3497 17.8672 21.4449 18.8477L21.4887 19.2994H21.9426H22.0073H22.4711L22.5059 18.8369C22.5775 17.8862 22.7108 16.941 22.9051 16.0069L22.9052 16.0069L22.9062 16.0017L25.9575 0.5H29.3663L24.1056 22.5H19.689L16.0529 7.64936L16.0527 7.64862C15.9475 7.2217 15.8257 6.65759 15.6912 5.95847C15.5561 5.25588 15.4754 4.75896 15.4444 4.45806L15.3982 4.00928H14.947H14.8822H14.4366L14.3855 4.452C14.344 4.81243 14.2614 5.35735 14.1361 6.09239L14.629 6.17639L14.1361 6.09239C14.0112 6.82549 13.9121 7.36094 13.8387 7.70393L10.4234 22.4961H5.92327L0.634522 0.507672H4.12901L7.45445 16.194L7.45436 16.194L7.45652 16.2033C7.52763 16.5097 7.59777 16.9308 7.6676 17.4685C7.73728 18.007 7.78282 18.4683 7.80351 18.8587L7.82861 19.3322H8.30281H8.38523H8.84619L8.88358 18.8728C8.91321 18.5087 8.97574 18.0611 9.07336 17.5271L8.67385 17.4541L9.07336 17.5271C9.17182 16.9884 9.26015 16.5353 9.33836 16.1669Z" fill="#1A66AE" stroke="#1A66AE"/>
</svg>
