<svg width="34" height="34" viewBox="0 0 34 34" fill="none" xmlns="http://www.w3.org/2000/svg">
<path fill-rule="evenodd" clip-rule="evenodd" d="M4.5 1C2.84326 1 1.5 2.34277 1.5 4V27C1.5 28.6572 2.84326 30 4.5 30H15H18.5H20C20.5522 30 21 29.5527 21 29C21 28.4473 20.5522 28 20 28H18.5H15H4.5C3.94775 28 3.5 27.5527 3.5 27V4C3.5 3.44727 3.94775 3 4.5 3H26C26.5522 3 27 3.44727 27 4V15V21C27 21.5527 27.4478 22 28 22C28.5522 22 29 21.5527 29 21V15V4C29 2.34277 27.6567 1 26 1H4.5ZM8 7C7.44775 7 7 7.44726 7 8C7 8.55273 7.44775 9 8 9H22C22.5522 9 23 8.55273 23 8C23 7.44726 22.5522 7 22 7H8ZM7 13C7 12.4473 7.44775 12 8 12H22C22.1836 12 22.3555 12.0498 22.5032 12.1357C22.5857 12.1836 22.6606 12.2432 22.7261 12.3115C22.7476 12.334 22.7681 12.3574 22.7874 12.3818L22.835 12.4482C22.8669 12.4971 22.8948 12.5488 22.918 12.6025C22.9707 12.7246 23 12.8584 23 13C23 13.5527 22.5522 14 22 14H8C7.8833 14 7.77124 13.9805 7.66724 13.9434C7.42163 13.8564 7.21997 13.6768 7.10498 13.4463C7.03784 13.3115 7 13.1602 7 13ZM8 17C7.44775 17 7 17.4473 7 18C7 18.2754 7.11084 18.5244 7.29053 18.7051C7.36597 18.7803 7.45337 18.8437 7.5498 18.8926C7.68506 18.9609 7.83813 19 8 19H22C22.5522 19 23 18.5527 23 18C23 17.7441 22.9043 17.5117 22.7468 17.335C22.5637 17.1289 22.2969 17 22 17H8ZM7 23C7 22.4473 7.44775 22 8 22H22C22.1082 22 22.2124 22.0176 22.3098 22.0498C22.4495 22.0947 22.5757 22.1699 22.6807 22.2676C22.8772 22.4502 23 22.7109 23 23C23 23.5527 22.5522 24 22 24H8C7.44775 24 7 23.5527 7 23ZM32.7981 24.6025C33.1309 24.1617 33.0433 23.5346 32.6025 23.2019C32.1617 22.8691 31.5346 22.9567 31.2019 23.3975L27.3162 28.5447L24.654 26.2435C24.2361 25.8823 23.6046 25.9282 23.2435 26.346C22.8823 26.7639 22.9282 27.3954 23.346 27.7565L26.8166 30.7565C27.026 30.9375 27.3009 31.0236 27.5761 30.9944C27.8512 30.9652 28.102 30.8233 28.2687 30.6025L32.7981 24.6025Z" fill="#559E53"/>
</svg>
