<svg width="84" height="21" viewBox="0 0 84 21"  xmlns="http://www.w3.org/2000/svg">
<path fill-rule="evenodd" clip-rule="evenodd" d="M6.15331 1.55492C7.17856 1.16136 8.27563 0.972539 9.3784 0.999847C10.4811 0.971552 11.5783 1.15974 12.6036 1.55304C13.629 1.94634 14.5611 2.53657 15.3437 3.28804C16.1263 4.03951 16.7431 4.93661 17.1568 5.92508C17.5704 6.91355 17.7724 7.97285 17.7505 9.03893C17.7505 11.2631 16.9396 13.1255 14.8951 14.9678C14.3811 15.4297 13.8381 15.8451 13.3062 16.2521C12.4108 16.9371 11.5465 17.5984 10.9031 18.4179C10.4387 19.0344 10.1172 19.7404 9.96056 20.4879C9.8774 20.8296 9.71799 20.9971 9.37147 20.9971C9.02494 20.9971 8.8794 20.8296 8.7893 20.4879C8.6347 19.7419 8.31298 19.0376 7.84675 18.4246C7.20367 17.6 6.33415 16.9355 5.43168 16.2459C4.90443 15.843 4.36593 15.4315 3.85477 14.9745C1.82412 13.1322 0.999391 11.2698 0.999391 9.03893C0.979381 7.97279 1.18291 6.91377 1.59771 5.9257C2.01251 4.93764 2.62999 4.041 3.41293 3.28982C4.19587 2.53864 5.12806 1.94848 6.15331 1.55492ZM6.64375 10.209C6.49801 9.86328 6.42633 9.49258 6.43306 9.11933C6.42458 8.74376 6.49474 8.3704 6.63932 8.0217C6.78391 7.673 6.99993 7.35616 7.27442 7.09021C7.5489 6.82426 7.87617 6.6147 8.23657 6.47412C8.59696 6.33354 8.98304 6.26484 9.3716 6.27215C9.76048 6.26487 10.1469 6.33354 10.5076 6.47405C10.8684 6.61455 11.1961 6.824 11.4712 7.08985C11.7462 7.3557 11.9629 7.67248 12.1082 8.02121C12.2536 8.36993 12.3246 8.74343 12.3171 9.11933C12.3238 9.49316 12.252 9.86443 12.1058 10.2106C11.9596 10.5568 11.7422 10.8706 11.4668 11.1331C11.1913 11.3956 10.8636 11.6013 10.5034 11.7376C10.1433 11.874 9.75821 11.9382 9.3716 11.9263C8.98557 11.9372 8.60126 11.8724 8.24191 11.7356C7.88257 11.5988 7.55566 11.393 7.28096 11.1306C7.00626 10.8682 6.78949 10.5547 6.64375 10.209Z" />
<path d="M28.1463 11.0488H27.5434C26.5662 11.0488 25.7622 10.5397 25.7622 8.96535C25.7622 7.39103 26.6424 6.7814 27.5434 6.7814H28.1463V11.0488ZM28.1463 11.9264V15.6847H29.2691V5.8904H27.5849C27.1693 5.87639 26.7552 5.94805 26.3704 6.10062C25.9856 6.25319 25.6387 6.48316 25.3529 6.77527C25.0671 7.06739 24.8489 7.41494 24.7127 7.79485C24.5766 8.17476 24.5256 8.57833 24.5632 8.97875C24.5632 10.4459 25.1801 11.2431 26.1018 11.6584L24.1405 15.678H25.4434L27.2315 11.9197L28.1463 11.9264Z" />
<path d="M43.4143 9.56809C44.0727 9.56809 44.2737 10.4323 44.2737 11.6114H42.3886C42.4579 10.3787 42.7074 9.56809 43.4143 9.56809ZM38.7917 14.8203H36.8303C37.3586 13.1896 37.5931 11.4832 37.5234 9.77577V9.64849H38.7986L38.7917 14.8203ZM53.623 15.7984C54.1828 15.8131 54.7284 15.627 55.1546 15.2758L54.8913 14.4786C54.5446 14.7611 54.1041 14.9133 53.6507 14.9074C52.729 14.9074 52.2646 13.9159 52.2646 12.1875C52.2646 10.4591 52.8468 9.58149 53.6507 9.58149C54.1021 9.60415 54.5321 9.7742 54.8705 10.0638L55.0576 9.03885C54.6446 8.785 54.1604 8.66097 53.6715 8.6838C51.9389 8.6838 51.0518 10.0705 51.0518 12.2344C51.0933 14.6059 52.0428 15.7984 53.623 15.7984ZM49.7003 15.6979H50.9478L48.8686 12.0401L50.6983 8.78428H49.5132L47.739 11.9798V8.78428H46.6162V15.6979H47.7528V12.2545L49.7003 15.6979ZM33.5106 8.78428V11.7186H31.8126V8.78428H30.6691V15.6979H31.8126V12.6028H33.5106V15.6979H34.6333V8.78428H33.5106ZM45.4588 15.2357L45.1955 14.3982C44.7717 14.6897 44.2669 14.8507 43.747 14.8605C42.8391 14.8605 42.3609 14.0432 42.3609 12.4756H45.4311V11.886C45.4311 9.5413 44.6272 8.6771 43.4005 8.6771C41.8342 8.6771 41.1758 10.2983 41.1758 12.5158C41.1758 14.7332 42.1114 15.785 43.6292 15.785C44.2852 15.8031 44.9288 15.6098 45.4588 15.2357ZM40.5035 14.8203H39.9144V8.79098H36.4907V9.38052C36.4907 11.2228 36.4214 13.3599 35.7492 14.827H35.2917V17.0779H36.3452V15.7381H39.5055V17.0779H40.5035V14.8203Z" />
<path d="M62.4872 15.698H63.305L60.0268 10.419L63.0416 5.89031H62.3416L59.2853 10.4726V5.89031H58.5506V15.698H59.2853V10.5262L62.4872 15.698Z" />
<path d="M67.1513 15.698H67.7751C67.6667 15.2819 67.6131 14.8542 67.6157 14.4251V10.6534C67.6157 9.28009 66.9226 8.64367 65.7167 8.64367C65.3938 8.62595 65.0707 8.67673 64.7702 8.79246C64.4697 8.90818 64.199 9.08605 63.9772 9.31359L64.1643 9.92992C64.3419 9.69378 64.5757 9.50236 64.8458 9.37178C65.116 9.2412 65.4147 9.17529 65.7167 9.1796C66.5207 9.1796 66.9434 9.62845 66.9434 10.6869V11.5846H66.1464C64.5524 11.5846 63.6861 12.355 63.6861 13.8356C63.6861 15.095 64.3791 15.8453 65.3702 15.8453C65.7173 15.8383 66.0546 15.7331 66.3405 15.5425C66.6263 15.352 66.8479 15.0846 66.9781 14.7735C66.9971 15.0873 67.0552 15.3977 67.1513 15.698ZM65.5088 15.3161C64.8157 15.3161 64.3514 14.7534 64.3514 13.782C64.3514 12.5694 64.9405 12.0536 66.1533 12.0536H66.9434V13.9562C66.6801 14.6998 66.1949 15.3161 65.5088 15.3161Z" />
<path d="M71.1364 15.8253C72.5225 15.8253 73.4166 14.5726 73.4166 12.0403C73.4166 10.0305 72.7235 8.65047 71.4691 8.65047C71.0916 8.68405 70.7321 8.82192 70.4335 9.04762C70.1349 9.27332 69.9097 9.57731 69.785 9.92332L69.7295 8.78445H69.1266V17.8418H69.8196V15.2224C69.9784 15.4118 70.1792 15.5643 70.4071 15.6687C70.635 15.773 70.8842 15.8266 71.1364 15.8253ZM71.178 15.3162C70.885 15.3366 70.5928 15.2665 70.3437 15.116C70.0945 14.9655 69.9013 14.7424 69.7919 14.4788V10.6133C70.1107 9.86973 70.6652 9.2132 71.3236 9.2132C72.176 9.2132 72.7097 10.2784 72.7097 12.0939C72.7304 14.2711 72.1136 15.3162 71.178 15.3162Z" />
<path d="M77.9491 9.3204V8.78446H73.8601V9.3204H75.565V15.6981H76.258V9.3204H77.9491Z" />
<path d="M80.1947 11.8594C80.4251 11.8303 80.6594 11.8537 80.8788 11.9278C81.0983 12.0019 81.2967 12.1245 81.4583 12.286C81.62 12.4474 81.7403 12.6432 81.8097 12.8576C81.8791 13.072 81.8956 13.2991 81.858 13.5208C81.8875 13.7481 81.8627 13.979 81.7856 14.1956C81.7085 14.4123 81.5811 14.6089 81.4131 14.7706C81.2452 14.9323 81.0412 15.0547 80.8168 15.1283C80.5924 15.202 80.3535 15.225 80.1184 15.1956H79.6818V11.846L80.1947 11.8594ZM83.9995 8.78446H83.3065V15.6981H83.9995V8.78446ZM78.9957 15.6981H80.1808C80.4911 15.7325 80.8054 15.7002 81.1013 15.6035C81.3972 15.5069 81.6674 15.3483 81.8925 15.139C82.1176 14.9297 82.2921 14.6749 82.4036 14.3929C82.515 14.1108 82.5606 13.8085 82.5372 13.5074C82.5372 12.0671 81.6293 11.3503 80.2224 11.3503H79.6818V8.78446H78.9888L78.9957 15.6981Z" />
</svg>
