<svg width="32" height="32" viewBox="0 0 32 32" fill="none" xmlns="http://www.w3.org/2000/svg">
<path fill-rule="evenodd" clip-rule="evenodd" d="M24.4256 4.76755C25.9742 4.76755 27.2336 6.02697 27.2336 7.57563V10.3837H30.0417V13.1918H27.2336V18.8079H30.0417V21.616H27.2336V24.4241C27.2336 25.9728 25.9742 27.2322 24.4256 27.2322H21.6175V30.0403H18.8094V27.2322H13.1933V30.0403H10.3852V27.2322H7.57709C6.02844 27.2322 4.76902 25.9728 4.76902 24.4241V21.616H1.96094V18.8079H4.76902V13.1918H1.96094V10.3837H4.76902V7.57563C4.76902 6.02697 6.02844 4.76755 7.57709 4.76755H10.3852V1.95947H13.1933V4.76755H18.8094V1.95947H21.6175V4.76755H24.4256ZM24.5074 7.49219H7.49219V24.5074H24.5074V7.49219Z" fill="#071C28"/>
<path d="M10.449 10.4492H21.551V21.5513H10.449V10.4492Z" fill="#BC0000"/>
</svg>
