<svg width="32" height="32" viewBox="0 0 32 32" fill="none" xmlns="http://www.w3.org/2000/svg">
<path d="M0 5.96061C0.115961 6.13929 0.257683 6.3105 0.397456 6.47935C0.476535 6.57489 0.55499 6.66966 0.627804 6.76462L4.94874 12.4221C6.29081 13.9977 7.79661 14.9361 9.55779 14.4219C9.82773 14.3425 10.1584 14.1799 10.5129 13.9651L22.1219 29.1551C22.747 29.9727 23.9627 30.0669 24.757 29.4155L24.9384 29.2676C25.8326 28.5332 25.9853 27.1818 25.2298 26.3032L12.9246 11.9772C13.2882 11.5767 13.5549 11.1966 13.6457 10.9068C14.1747 9.22045 13.9461 7.77504 12.014 5.61746L7.40611 0L5.78259 1.30664L9.45917 5.89634C10.1728 6.77468 8.82861 7.92208 8.09163 7.01743L4.40437 2.41587L2.90761 3.6205C3.42109 4.25221 4.03652 5.02783 4.65195 5.80345C5.35244 6.68629 6.05294 7.56912 6.6031 8.23974C7.367 9.02686 6.19022 10.178 5.43805 9.19736L1.73113 4.56736L0 5.96061Z" fill="#071C28"/>
<path d="M12.6799 19.3233L7.19879 25.8819C5.07911 28.4185 8.46082 30.8994 10.3123 28.5782L15.1467 22.5124L12.6799 19.3233Z" fill="#BC0000"/>
<path d="M18.8834 11.8984L16.9404 14.2242L19.4457 17.1206L21.7481 14.2347C27.3828 16.9998 35.4981 6.01419 30.1162 1.39876C25.6863 -2.39694 16.4439 5.73532 18.8834 11.8984Z" fill="#BC0000"/>
</svg>
