<svg width="32" height="32" viewBox="0 0 32 32" fill="none" xmlns="http://www.w3.org/2000/svg">
<path fill-rule="evenodd" clip-rule="evenodd" d="M28.2588 3.33887H13.4732C6.04402 3.33887 0 9.37606 0 16.7967C0 24.2174 6.04402 30.2545 13.4732 30.2546H13.5168C20.9459 30.2546 26.99 24.2175 26.99 16.7968C26.99 16.7897 26.9898 16.7827 26.9896 16.7757L26.9896 11.9361L19.9339 11.9359V16.078H16.4717C16.3305 15.4901 16.0199 14.9671 15.5947 14.5638L18.0343 10.3429H28.2588V3.33887ZM7.05151 16.0779H10.4743C10.6156 15.49 10.9261 14.967 11.3515 14.5637L9.64073 11.6037C8.22899 12.6459 7.25539 14.2476 7.05151 16.0779ZM9.64057 21.9897L11.3514 19.0298C10.9261 18.6264 10.6155 18.1034 10.4742 17.5155H7.05143C7.25539 19.3461 8.22883 20.9476 9.64057 21.9897ZM16.0604 22.7104L14.3494 19.7501C14.0715 19.8325 13.7775 19.8767 13.4732 19.8767C13.1689 19.8767 12.8749 19.8325 12.597 19.7501L10.8859 22.7105C11.6785 23.0577 12.5538 23.2506 13.4732 23.2506H13.4894L13.4918 23.2506L13.4948 23.2506C13.4963 23.2505 13.4983 23.2505 13.4999 23.2505H13.5014C14.3209 23.2469 15.1256 23.0879 15.8748 22.7883C15.9372 22.7632 15.9989 22.7373 16.0604 22.7104ZM13.4732 18.4391C14.3797 18.4391 15.1173 17.7023 15.1173 16.7967C15.1173 15.8911 14.3797 15.1543 13.4732 15.1543C12.5664 15.1543 11.8287 15.8911 11.8287 16.7967C11.8287 17.7023 12.5664 18.4391 13.4732 18.4391ZM15.5947 19.0297L17.3056 21.9897C18.7171 20.9475 19.6906 19.3459 19.8944 17.5156H16.4717C16.3305 18.1034 16.0199 18.6264 15.5947 19.0297ZM16.3725 10.3428H13.8072C13.7499 10.3428 13.6941 10.3361 13.6407 10.3235C13.5872 10.3361 13.5314 10.3428 13.4741 10.3428C12.5542 10.3428 11.6787 10.5357 10.8858 10.8831L12.5969 13.8434C12.8748 13.761 13.1688 13.7167 13.4731 13.7167C13.7773 13.7167 14.0714 13.761 14.3492 13.8434L16.3725 10.3428Z" fill="#071C28"/>
<path d="M29.625 11.9362H31.9975V1.74561C31.9975 1.77018 30.5111 1.76503 30.3301 1.75712C30.2117 1.75195 30.0664 1.74561 29.9093 1.74561H29.625V11.9362Z" fill="#BC0000"/>
</svg>
