<svg width="12" height="26" viewBox="0 0 12 26" fill="none" xmlns="http://www.w3.org/2000/svg">
<path d="M8 7C8 8.10457 7.10457 9 6 9C4.89543 9 4 8.10457 4 7C4 5.89543 4.89543 5 6 5C7.10457 5 8 5.89543 8 7Z" fill="#1D262C"/>
<path fill-rule="evenodd" clip-rule="evenodd" d="M5.5 0C5.22386 0 5 0.223858 5 0.5V1C2.79086 1 1 2.79086 1 5V20C1 20.7031 1.18142 21.3639 1.5 21.938V25H1C0.447715 25 0 25.4477 0 26H3C3 25.6299 2.7989 25.3067 2.5 25.1338V23.1227C3.1848 23.6716 4.05405 24 5 24H5.5V25C4.94772 25 4.5 25.4477 4.5 26H7.5C7.5 25.4477 7.05228 25 6.5 25V24H7C7.94595 24 8.8152 23.6716 9.5 23.1227V25.1338C9.2011 25.3067 9 25.6299 9 26H12C12 25.4477 11.5523 25 11 25H10.5V21.938C10.8186 21.3639 11 20.7031 11 20V11H11.5C11.7761 11 12 10.7761 12 10.5V9.5C12 9.22386 11.7761 9 11.5 9H11V5C11 2.79086 9.20914 1 7 1V0.5C7 0.223858 6.77614 0 6.5 0H5.5ZM5 2H7C8.65685 2 10 3.34315 10 5V20H2V5C2 3.34315 3.34315 2 5 2ZM2.17071 21C2.58254 22.1652 3.69378 23 5 23H7C8.30622 23 9.41746 22.1652 9.82929 21H2.17071Z" fill="#1D262C"/>
</svg>
