<svg width="22" height="24" viewBox="0 0 22 24" fill="none" xmlns="http://www.w3.org/2000/svg">
<path d="M13 9H9V12H13V9Z" fill="#1D262C"/>
<path fill-rule="evenodd" clip-rule="evenodd" d="M5 0C4.44772 0 4 0.447715 4 1V2H3.5C3.22386 2 3 2.22386 3 2.5V3.17071C1.83481 3.58254 1 4.69378 1 6V14C0.447715 14 0 14.4477 0 15V24H1V22H21V24H22V15C22 14.4477 21.5523 14 21 14V6C21 4.69378 20.1652 3.58254 19 3.17071V2.5C19 2.22386 18.7761 2 18.5 2H18V1C18 0.447715 17.5523 0 17 0H5ZM17 2V1.5C17 1.22386 16.7761 1 16.5 1H5.5C5.22386 1 5 1.22386 5 1.5V2H5.5C5.77614 2 6 2.22386 6 2.5V3.17071C7.16519 3.58254 8 4.69378 8 6H14C14 4.69378 14.8348 3.58254 16 3.17071V2.5C16 2.22386 16.2239 2 16.5 2H17ZM8 16V7H14V16H8ZM18 20C19.6569 20 21 18.6569 21 17V21H1V17C1 18.6569 2.34315 20 4 20H5C5.8885 20 6.68679 19.6137 7.23611 19H14.7639C15.3132 19.6137 16.1115 20 17 20H18ZM17 4H18C19.1046 4 20 4.89543 20 6V17C20 18.1046 19.1046 19 18 19H17C15.8954 19 15 18.1046 15 17V6C15 4.89543 15.8954 4 17 4ZM5 4H4C2.89543 4 2 4.89543 2 6V17C2 18.1046 2.89543 19 4 19H5C6.10457 19 7 18.1046 7 17V6C7 4.89543 6.10457 4 5 4ZM14 17H8V18H14V17Z" fill="#1D262C"/>
</svg>
