<svg width="19" height="22" viewBox="0 0 19 22" fill="none" xmlns="http://www.w3.org/2000/svg">
<path fill-rule="evenodd" clip-rule="evenodd" d="M14 10C14 11.1046 13.1046 12 12 12H6C4.89543 12 4 11.1046 4 10V4C4 2.89543 4.89543 2 6 2H12C13.1046 2 14 2.89543 14 4V10ZM12 3H6C5.44772 3 5 3.44772 5 4V9H13V4C13 3.44772 12.5523 3 12 3ZM5 10C5 10.5523 5.44772 11 6 11H12C12.5523 11 13 10.5523 13 10H5Z" fill="#1D262C"/>
<path fill-rule="evenodd" clip-rule="evenodd" d="M2 21V2C2 0.89543 2.89543 0 4 0H14C15.1046 0 16 0.895431 16 2V4H16.5C16.7761 4 17 4.22386 17 4.5V5H17.5C18.3284 5 19 5.67157 19 6.5V16.5C19 17.3284 18.3284 18 17.5 18H16V21H17C17.5523 21 18 21.4477 18 22H0C0 21.4477 0.447715 21 1 21H2ZM4 1H14C14.5523 1 15 1.44772 15 2V21H3V2C3 1.44772 3.44771 1 4 1ZM16 17H17.5C17.7761 17 18 16.7761 18 16.5V6.5C18 6.22386 17.7761 6 17.5 6H17V6.5C17 6.77614 16.7761 7 16.5 7H16V17Z" fill="#1D262C"/>
</svg>
