<svg width="24" height="24" viewBox="0 0 24 24"  xmlns="http://www.w3.org/2000/svg">
<path fill-rule="evenodd" clip-rule="evenodd" d="M15 6C15 7.65685 13.6569 9 12 9C10.3431 9 9 7.65685 9 6C9 4.34315 10.3431 3 12 3C13.6569 3 15 4.34315 15 6ZM17 6C17 8.76142 14.7614 11 12 11C9.23858 11 7 8.76142 7 6C7 3.23858 9.23858 1 12 1C14.7614 1 17 3.23858 17 6ZM4 19C4 16.2386 6.23858 14 9 14H12H15C17.7614 14 20 16.2386 20 19V22C20 22.5523 20.4477 23 21 23C21.5523 23 22 22.5523 22 22V19C22 15.134 18.866 12 15 12H12H9C5.13401 12 2 15.134 2 19V21C2 22.1046 2.89543 23 4 23H17C17.5523 23 18 22.5523 18 22C18 21.4477 17.5523 21 17 21H4V19Z" />
</svg>
