<svg width="12" height="20" viewBox="0 0 12 20" fill="none" xmlns="http://www.w3.org/2000/svg">
<path d="M5.99824 4.95327e-07C9.03419 4.95327e-07 11.5023 2.36591 11.5023 5.27338C11.5023 8.18084 9.03288 10.5419 5.99824 10.5419C2.96359 10.5419 0.496735 8.17715 0.496735 5.27094C0.496735 2.36347 2.96359 -0.00124949 5.99824 4.95327e-07ZM5.99824 3.14938C4.77838 3.14938 3.78642 4.10095 3.78642 5.27094C3.78642 6.43967 4.77838 7.39005 5.99824 7.39005C7.2194 7.39005 8.2126 6.43967 8.2126 5.27094C8.2126 4.10095 7.2194 3.14938 5.99824 3.14938ZM1.81924 10.5858C2.02017 10.6171 2.21691 10.6876 2.40022 10.7982C4.58814 12.1182 7.41082 12.1182 9.60135 10.7982C10.3333 10.3557 11.2991 10.5669 11.7597 11.2694C12.2189 11.9719 12.0011 12.9009 11.2679 13.3421C10.3011 13.9234 9.24972 14.3351 8.16163 14.5726L11.1532 17.4388C11.7651 18.0238 11.7651 18.9741 11.1532 19.5603C10.5413 20.1466 9.55071 20.1466 8.93883 19.5603L6.00078 16.7454L3.06274 19.5603C2.75615 19.8541 2.35482 19.9998 1.95429 19.9998C1.55376 19.9998 1.15498 19.8541 0.848382 19.5603C0.236495 18.9753 0.235251 18.0226 0.845834 17.4363L3.83739 14.5726C2.74799 14.3351 1.69792 13.9209 0.731168 13.3397C-0.000748401 12.8984 -0.219932 11.9719 0.241919 11.2694C0.587327 10.7425 1.21642 10.4918 1.81924 10.5858Z" fill="#D3D3D3"/>
</svg>
