<svg width="20" height="20" viewBox="0 0 20 20" fill="none" xmlns="http://www.w3.org/2000/svg">
<path fill-rule="evenodd" clip-rule="evenodd" d="M11.8764 3.34866C10.7777 3.02488 9.61675 2.98998 8.50142 3.24708C7.38603 3.50419 6.35133 4.04528 5.49434 4.8213C4.63725 5.59739 3.98579 6.58328 3.60217 7.68773C3.46278 8.08905 3.02445 8.30137 2.62313 8.16198C2.22182 8.02259 2.00949 7.58426 2.14888 7.18294C2.61645 5.83681 3.41164 4.63172 4.46169 3.6809C5.51183 2.72999 6.78259 2.06449 8.15585 1.74793C9.52916 1.43137 10.9589 1.47441 12.3113 1.87294C13.6597 2.27028 14.8861 3.00772 15.8775 4.01527L18.4615 6.48898V3.16071C18.4615 2.73587 18.8059 2.39148 19.2308 2.39148C19.6556 2.39148 20 2.73587 20 3.16071V8.29026C20 8.7151 19.6556 9.05949 19.2308 9.05949H14.1958C13.771 9.05949 13.4266 8.7151 13.4266 8.29026C13.4266 7.86543 13.771 7.52103 14.1958 7.52103H17.3149L14.8051 5.11845C14.7993 5.11288 14.7936 5.10723 14.788 5.10149C13.9771 4.27498 12.9752 3.67245 11.8764 3.34866ZM0 11.71C0 11.2851 0.344396 10.9407 0.769231 10.9407H5.8042C6.22903 10.9407 6.57343 11.2851 6.57343 11.71C6.57343 12.1348 6.22903 12.4792 5.8042 12.4792H2.68514L5.19488 14.8818C5.20068 14.8873 5.20641 14.893 5.21204 14.8987C6.02291 15.7253 7.02479 16.3278 8.12357 16.6516C9.22228 16.9753 10.3832 17.0102 11.4986 16.7531C12.614 16.496 13.6487 15.9549 14.5057 15.1789C15.3627 14.4028 16.0142 13.4169 16.3978 12.3125C16.5372 11.9112 16.9756 11.6989 17.3769 11.8382C17.7782 11.9776 17.9905 12.416 17.8511 12.8173C17.3836 14.1634 16.5884 15.3685 15.5383 16.3193C14.4882 17.2702 13.2174 17.9357 11.8442 18.2523C10.4708 18.5689 9.04107 18.5258 7.6887 18.1273C6.34032 17.7299 5.11387 16.9925 4.12248 15.9849L1.53846 13.5112V16.8395C1.53846 17.2644 1.19407 17.6087 0.769231 17.6087C0.344396 17.6087 0 17.2644 0 16.8395V11.71Z"/>
</svg>
