<svg viewBox="0 0 28 28" xmlns="http://www.w3.org/2000/svg">
<path clip-rule="evenodd" d="M13.2143 2C12.662 2 12.2143 2.44772 12.2143 3C12.2143 3.02809 12.2144 3.05693 12.2145 3.08642C12.2156 3.38317 12.217 3.74539 12.111 4.06215C11.9918 4.41886 11.808 4.69343 11.5237 4.93968C11.3564 5.08459 11.1723 5.17968 11.0273 5.24778C10.8837 5.31524 10.7053 5.38877 10.5101 5.46926L10.4903 5.47742L10.4342 5.50077L10.4156 5.50856C10.2323 5.58559 10.065 5.65587 9.925 5.70742C9.78393 5.75935 9.59894 5.82021 9.39212 5.83993C8.98736 5.87851 8.6341 5.80916 8.27396 5.62042C7.99677 5.47516 7.75732 5.23402 7.5608 5.03611C7.54125 5.01642 7.52212 4.99716 7.50342 4.97846C7.1129 4.58794 6.47973 4.58794 6.08921 4.97846L4.97804 6.08963C4.58752 6.48015 4.58752 7.11332 4.97804 7.50384C4.99675 7.52255 5.01602 7.54169 5.03572 7.56125C5.23372 7.75787 5.475 7.99745 5.6203 8.27482C5.80885 8.63474 5.87815 8.98771 5.83969 9.3922C5.82002 9.59913 5.75915 9.78423 5.70721 9.92538C5.65565 10.0655 5.58535 10.2328 5.5083 10.4163L5.5005 10.4348L5.47742 10.4903L5.46922 10.5102C5.38874 10.7054 5.31523 10.8837 5.24778 11.0273C5.17968 11.1723 5.08459 11.3564 4.93968 11.5237C4.69343 11.808 4.41886 11.9918 4.06215 12.111C3.7454 12.217 3.38317 12.2156 3.08642 12.2145C3.05693 12.2144 3.02809 12.2143 3 12.2143C2.44772 12.2143 2 12.662 2 13.2143V14.7857C2 15.338 2.44772 15.7857 3 15.7857C3.02809 15.7857 3.05693 15.7856 3.08642 15.7855C3.38317 15.7844 3.7454 15.783 4.06215 15.889C4.41886 16.0082 4.69343 16.192 4.93968 16.4763C5.08459 16.6436 5.17968 16.8277 5.24778 16.9727C5.31524 17.1163 5.38877 17.2947 5.46926 17.4899L5.47742 17.5097L5.49077 17.5419L5.49904 17.5618C5.58045 17.7571 5.65484 17.9355 5.70888 18.0851C5.76345 18.2362 5.82658 18.4341 5.84238 18.6555C5.86906 19.0296 5.80511 19.353 5.63802 19.6888C5.48877 19.9887 5.23095 20.2446 5.01978 20.4542C4.9988 20.475 4.97827 20.4954 4.95836 20.5153C4.56784 20.9058 4.56784 21.539 4.95836 21.9295L6.06953 23.0407C6.46006 23.4312 7.09322 23.4312 7.48374 23.0407C7.50363 23.0208 7.52398 23.0003 7.54479 22.9793C7.75415 22.7684 8.00976 22.5109 8.30929 22.3617C8.64561 22.1942 8.96955 22.1301 9.34432 22.1571C9.56545 22.173 9.76311 22.2361 9.91401 22.2906C10.0634 22.3447 10.2417 22.419 10.4368 22.5003L10.4566 22.5086L10.4903 22.5226L10.51 22.5307C10.7053 22.6112 10.8837 22.6847 11.0273 22.7522C11.1723 22.8203 11.3564 22.9154 11.5237 23.0603C11.808 23.3066 11.9918 23.5811 12.111 23.9378C12.217 24.2546 12.2156 24.6168 12.2145 24.9136C12.2144 24.9431 12.2143 24.9719 12.2143 25C12.2143 25.5523 12.662 26 13.2143 26H14.7857C15.338 26 15.7857 25.5523 15.7857 25C15.7857 24.972 15.7856 24.9432 15.7855 24.9138C15.7844 24.6176 15.783 24.2559 15.8887 23.9396C16.0077 23.5831 16.1908 23.3091 16.4746 23.0627C16.6429 22.9166 16.8298 22.8205 16.9752 22.7521C17.1209 22.6836 17.3027 22.6083 17.5034 22.5252L17.5438 22.5085C17.7487 22.4236 17.9357 22.3461 18.0924 22.2903C18.2505 22.2339 18.4579 22.169 18.6896 22.1563C19.0427 22.137 19.3458 22.1973 19.6646 22.3503C19.8636 22.4459 20.0198 22.5711 20.1426 22.6807C20.257 22.7828 20.385 22.9108 20.5183 23.0441L20.5344 23.0602C20.9249 23.4507 21.5581 23.4507 21.9486 23.0602L23.0598 21.949C23.4503 21.5585 23.4503 20.9253 23.0598 20.5348L23.0436 20.5187C22.9104 20.3854 22.7824 20.2575 22.6803 20.143C22.5706 20.0201 22.4454 19.8639 22.3499 19.6648C22.197 19.3462 22.1368 19.0434 22.1561 18.6905C22.1687 18.4587 22.2337 18.2511 22.29 18.093C22.3459 17.9362 22.4235 17.7489 22.5085 17.5438L22.5251 17.5036C22.6083 17.3029 22.6836 17.121 22.7521 16.9752C22.8205 16.8298 22.9166 16.6429 23.0628 16.4746C23.3092 16.1907 23.5831 16.0077 23.9396 15.8887C24.256 15.783 24.6176 15.7844 24.9138 15.7855C24.9432 15.7856 24.972 15.7857 25 15.7857C25.5523 15.7857 26 15.338 26 14.7857V13.2143C26 12.662 25.5523 12.2143 25 12.2143C24.9719 12.2143 24.9431 12.2144 24.9136 12.2145C24.6168 12.2156 24.2546 12.217 23.9378 12.111C23.5811 11.9918 23.3066 11.808 23.0603 11.5237C22.9154 11.3564 22.8203 11.1723 22.7522 11.0273C22.6847 10.8837 22.6112 10.7053 22.5307 10.51L22.5226 10.4903L22.5083 10.4559L22.5001 10.4361C22.4188 10.2414 22.3446 10.0635 22.2907 9.91435C22.2362 9.76375 22.1732 9.56649 22.1572 9.3458C22.1299 8.9701 22.1941 8.64525 22.3622 8.30817C22.5113 8.00934 22.7683 7.75424 22.9789 7.54527C22.9998 7.52451 23.0202 7.5042 23.0401 7.48435C23.4306 7.09383 23.4306 6.46066 23.0401 6.07013L21.9289 4.95897C21.5384 4.56844 20.9052 4.56844 20.5147 4.95897C20.4948 4.97884 20.4745 4.99932 20.4537 5.02026C20.2445 5.23103 19.9891 5.48834 19.6899 5.63748C19.3533 5.80522 19.0291 5.86933 18.654 5.84231C18.4331 5.82639 18.2356 5.76332 18.0848 5.70883C17.9355 5.65487 17.7574 5.58061 17.5625 5.49934L17.5426 5.49107L17.5097 5.47742L17.4899 5.46926C17.2947 5.38877 17.1163 5.31524 16.9727 5.24778C16.8277 5.17968 16.6436 5.08459 16.4763 4.93968C16.192 4.69343 16.0082 4.41886 15.889 4.06215C15.783 3.7454 15.7844 3.38317 15.7855 3.08642C15.7856 3.05693 15.7857 3.02809 15.7857 3C15.7857 2.44772 15.338 2 14.7857 2H13.2143ZM10.2143 3C10.2143 1.34315 11.5574 0 13.2143 0H14.7857C16.4426 0 17.7857 1.34315 17.7857 3C17.7857 3.20791 17.7861 3.32356 17.7907 3.40757C17.791 3.41292 17.7913 3.41785 17.7916 3.42238C17.8004 3.42675 17.8108 3.43181 17.8231 3.43755C17.9176 3.48199 18.0505 3.53706 18.2721 3.62842L18.3122 3.64505C18.5335 3.7373 18.6663 3.79238 18.7646 3.8279C18.7773 3.83248 18.7882 3.83628 18.7975 3.83943C18.8009 3.83645 18.8046 3.83318 18.8086 3.82961C18.8713 3.77344 18.9534 3.69187 19.1005 3.54475C20.2721 2.37318 22.1716 2.37318 23.3431 3.54475L24.4543 4.65592C25.6259 5.82749 25.6259 7.72699 24.4543 8.89856C24.3074 9.04552 24.2259 9.1275 24.1698 9.19012C24.1662 9.19411 24.1629 9.1978 24.1599 9.20121C24.1631 9.21052 24.1669 9.22145 24.1715 9.23411C24.207 9.33228 24.262 9.46498 24.3542 9.68603L24.3716 9.72794C24.4629 9.94951 24.518 10.0824 24.5624 10.1769C24.5682 10.1892 24.5732 10.1996 24.5776 10.2084C24.5821 10.2087 24.5871 10.209 24.5924 10.2093C24.6764 10.2139 24.7921 10.2143 25 10.2143C26.6569 10.2143 28 11.5574 28 13.2143V14.7857C28 16.4426 26.6569 17.7857 25 17.7857C24.7925 17.7857 24.6771 17.7861 24.5933 17.7907C24.588 17.7909 24.5832 17.7912 24.5788 17.7915C24.574 17.8012 24.5684 17.8127 24.562 17.8263C24.516 17.9242 24.4587 18.0617 24.3648 18.2884C24.2684 18.5211 24.2108 18.6611 24.1739 18.7646C24.1691 18.778 24.1652 18.7895 24.1619 18.7994C24.1652 18.8031 24.1687 18.8071 24.1726 18.8115C24.2321 18.8782 24.3187 18.9653 24.474 19.1206C25.6456 20.2922 25.6456 22.1917 24.474 23.3632L23.3628 24.4744C22.1912 25.646 20.2918 25.646 19.1202 24.4744C18.9648 24.3191 18.8777 24.2324 18.811 24.1729C18.8066 24.169 18.8025 24.1654 18.7988 24.1622C18.7889 24.1654 18.7774 24.1694 18.764 24.1741C18.6606 24.211 18.5208 24.2686 18.2883 24.3649C18.0616 24.4588 17.9241 24.516 17.8263 24.562C17.8127 24.5684 17.8012 24.574 17.7915 24.5788C17.7912 24.5832 17.7909 24.588 17.7907 24.5933C17.7861 24.6771 17.7857 24.7925 17.7857 25C17.7857 26.6569 16.4426 28 14.7857 28H13.2143C11.5574 28 10.2143 26.6569 10.2143 25C10.2143 24.7921 10.2139 24.6764 10.2093 24.5924C10.209 24.5871 10.2087 24.5821 10.2084 24.5776C10.1996 24.5732 10.1892 24.5682 10.1769 24.5624C10.0824 24.518 9.94951 24.4629 9.72793 24.3716L9.68689 24.3546C9.46543 24.2622 9.33248 24.2071 9.23412 24.1715C9.22145 24.167 9.21051 24.1631 9.20118 24.16C9.19777 24.163 9.19407 24.1662 9.19008 24.1698C9.12733 24.226 9.0452 24.3077 8.89796 24.4549C7.72639 25.6265 5.82689 25.6265 4.65532 24.4549L3.54415 23.3437C2.37258 22.1722 2.37258 20.2727 3.54415 19.1011C3.69155 18.9537 3.77327 18.8715 3.82954 18.8087C3.83312 18.8047 3.83639 18.801 3.83937 18.7976C3.83622 18.7882 3.83241 18.7773 3.82783 18.7646C3.79226 18.6661 3.7371 18.533 3.64469 18.3113L3.62842 18.2721C3.53706 18.0505 3.48199 17.9176 3.43755 17.8231C3.43181 17.8108 3.42675 17.8004 3.42238 17.7916C3.41785 17.7913 3.41292 17.791 3.40757 17.7907C3.32356 17.7861 3.20791 17.7857 3 17.7857C1.34315 17.7857 0 16.4426 0 14.7857V13.2143C0 11.5574 1.34315 10.2143 3 10.2143C3.20791 10.2143 3.32356 10.2139 3.40757 10.2093C3.41292 10.209 3.41786 10.2087 3.42238 10.2084C3.42676 10.1996 3.43181 10.1892 3.43755 10.1769C3.48199 10.0824 3.53706 9.94951 3.62842 9.72793L3.65654 9.66035C3.74393 9.45229 3.79622 9.32717 3.83028 9.23463C3.83475 9.22248 3.83846 9.21201 3.84154 9.20311C3.83862 9.19981 3.83542 9.19621 3.8319 9.19232C3.7788 9.13347 3.70204 9.05627 3.56383 8.91806C2.39226 7.74649 2.39226 5.84699 3.56383 4.67542L4.675 3.56425C5.84657 2.39268 7.74606 2.39268 8.91764 3.56425C9.05578 3.70239 9.13294 3.77911 9.19176 3.83219C9.19565 3.8357 9.19924 3.83891 9.20255 3.84182C9.21144 3.83875 9.22191 3.83503 9.23405 3.83056C9.32655 3.79651 9.45161 3.74423 9.65955 3.65687L9.72793 3.62842C9.94951 3.53706 10.0824 3.48199 10.1769 3.43755C10.1892 3.43181 10.1996 3.42675 10.2084 3.42238C10.2087 3.41785 10.209 3.41292 10.2093 3.40757C10.2139 3.32356 10.2143 3.20791 10.2143 3ZM14 9C11.2386 9 9 11.2386 9 14C9 16.7614 11.2386 19 14 19C16.7614 19 19 16.7614 19 14C19 13.4138 18.8995 12.8533 18.7157 12.3332C18.5292 11.8054 18.2561 11.3176 17.913 10.887C16.9952 9.73525 15.5838 9 14 9ZM7 14C7 10.134 10.134 7 14 7C16.2185 7 18.1963 8.03314 19.4771 9.64061C19.9566 10.2424 20.3395 10.9256 20.6014 11.6668C20.8598 12.3979 21 13.1836 21 14C21 17.866 17.866 21 14 21C10.134 21 7 17.866 7 14Z"/>
</svg>
