<svg width="26" height="26" viewBox="0 0 26 26"  xmlns="http://www.w3.org/2000/svg">
<path fill-rule="evenodd" clip-rule="evenodd" d="M10.0203 11C10.5726 11 11.0203 11.4477 11.0203 12V19.125C11.0203 19.6773 10.5726 20.125 10.0203 20.125C9.46803 20.125 9.02031 19.6773 9.02031 19.125V12C9.02031 11.4477 9.46803 11 10.0203 11ZM15.9412 11C16.4935 11 16.9412 11.4477 16.9412 12V19.125C16.9412 19.6773 16.4935 20.125 15.9412 20.125C15.3889 20.125 14.9412 19.6773 14.9412 19.125V12C14.9412 11.4477 15.3889 11 15.9412 11ZM21 23V7H5V23C5 23.5523 5.44771 24 6 24H20C20.5523 24 21 23.5523 21 23ZM23 23C23 24.6569 21.6569 26 20 26H6C4.34315 26 3 24.6569 3 23V7H23V23Z" />
<path fill-rule="evenodd" clip-rule="evenodd" d="M9.26772 2.2494C9.42472 2.07242 9.61016 2 9.77419 2H16.2258C16.3898 2 16.5753 2.07242 16.7323 2.2494C16.8927 2.43028 17 2.69868 17 3V5H9V3C9 2.69868 9.10727 2.43028 9.26772 2.2494ZM7 5V3C7 2.24045 7.26658 1.49144 7.77157 0.922172C8.28003 0.349009 8.99714 0 9.77419 0H16.2258C17.0029 0 17.72 0.349009 18.2284 0.922172C18.7334 1.49144 19 2.24045 19 3V5H24C24.5523 5 25 5.44772 25 6C25 6.55228 24.5523 7 24 7H23H3H2C1.44772 7 1 6.55228 1 6C1 5.44772 1.44772 5 2 5H7Z" />
</svg>
