<svg width="34" height="34" viewBox="0 0 34 34" fill="none" xmlns="http://www.w3.org/2000/svg">
<path d="M28 21V9M20.5 29H5.2C4.0799 29 3.51984 29 3.09202 28.782C2.71569 28.5903 2.40973 28.2843 2.21799 27.908C2 27.4802 2 26.9201 2 25.8V9M2 9V6.2C2 5.07989 2 4.51984 2.21799 4.09202C2.40973 3.71569 2.71569 3.40973 3.09202 3.21799C3.51984 3 4.07989 3 5.2 3H24.8C25.9201 3 26.4802 3 26.908 3.21799C27.2843 3.40973 27.5903 3.71569 27.782 4.09202C28 4.51984 28 5.0799 28 6.2V9M2 9H28" stroke="#2A4455" stroke-width="2" stroke-linecap="round" fill="transparent"/>
<rect x="33" y="28" width="2" height="10" rx="1" transform="rotate(90 33 28)" fill="#2A4455"/>
<rect x="27" y="24" width="2" height="10" rx="1" fill="#2A4455"/>
<circle cx="5" cy="6" r="1" fill="#2A4455"/>
<circle cx="8" cy="6" r="1" fill="#2A4455"/>
<circle cx="11" cy="6" r="1" fill="#2A4455"/>
<path d="M21.7074 14.3662C21.5464 13.8287 21.0718 13.405 20.4698 13.2613C19.3778 13 15 13 15 13C15 13 10.6222 13 9.5302 13.2613C8.9282 13.405 8.4536 13.8287 8.2926 14.3662C8 15.3412 8 18 8 18C8 18 8 20.6587 8.2926 21.6337C8.4536 22.1712 8.9282 22.595 9.5302 22.7388C10.6222 23 15 23 15 23C15 23 19.3778 23 20.4698 22.7388C21.0725 22.595 21.5464 22.1712 21.7074 21.6337C22 20.6587 22 18 22 18C22 18 22 15.3412 21.7074 14.3662ZM13.6 20.165V15.835L17.8 18L13.6 20.165Z" fill="#2A4455"/>
</svg>