<svg width="24" height="24" viewBox="0 0 24 24" fill="none" xmlns="http://www.w3.org/2000/svg">
<path d="M21.9951 17.9501L19.0593 17.9891C19.0593 17.9891 18.426 18.1076 17.5978 17.5616C16.4992 16.8416 15.4636 14.9681 14.6558 15.2111C13.837 15.4601 13.8621 17.1461 13.8621 17.1461C13.8621 17.1461 13.8684 17.4431 13.6814 17.6366C13.4786 17.8451 13.081 17.8241 13.081 17.8241H11.7656C11.7656 17.8241 8.86447 18.0536 6.3075 15.5096C3.52266 12.736 1.06156 7.26235 1.06156 7.26235C1.06156 7.26235 0.916969 6.91734 1.07098 6.74033C1.24543 6.54533 1.71533 6.53933 1.71533 6.53933L4.8585 6.52433C4.8585 6.52433 5.15396 6.57383 5.3677 6.72383C5.54214 6.84683 5.64115 7.07784 5.64115 7.07784C5.64115 7.07784 6.14877 8.30637 6.82298 9.4194C8.13683 11.5885 8.7466 12.064 9.19293 11.8315C9.84357 11.4925 9.64869 8.76539 9.64869 8.76539C9.64869 8.76539 9.66126 7.77536 9.3218 7.33435C9.05777 6.99084 8.56115 6.88884 8.34428 6.86333C8.16669 6.84083 8.45586 6.44782 8.83304 6.27082C9.39881 6.00681 10.3983 5.99181 11.5786 6.00231C12.498 6.01131 12.7636 6.06531 13.1219 6.14932C14.2063 6.39982 13.8385 7.36585 13.8385 9.68341C13.8385 10.4259 13.6987 11.47 14.2581 11.8135C14.5002 11.962 15.0895 11.836 16.5589 9.44491C17.2583 8.31087 17.7816 6.97884 17.7816 6.97884C17.7816 6.97884 17.8964 6.74183 18.074 6.63983C18.2563 6.53483 18.5014 6.56783 18.5014 6.56783L21.8096 6.54833C21.8096 6.54833 22.8029 6.43432 22.9647 6.86483C23.1345 7.31485 22.5938 8.36638 21.2423 10.0869C19.0232 12.913 18.7765 12.6505 20.6199 14.2855C22.3801 15.8471 22.7431 16.6061 22.8044 16.7021C23.5321 17.8586 21.9951 17.9501 21.9951 17.9501Z" fill="white"/>
</svg>
