<svg width="5" height="8" viewBox="0 0 5 8" fill="none" xmlns="http://www.w3.org/2000/svg">
<path d="M1.39547 5.49735V5.15873C1.39547 4.77072 1.46516 4.44797 1.60453 4.19048C1.7439 3.93298 1.9878 3.66667 2.33624 3.39153C2.75087 3.05996 3.01742 2.80247 3.13589 2.61905C3.25784 2.43563 3.31882 2.21693 3.31882 1.96296C3.31882 1.66667 3.22125 1.43915 3.02613 1.28042C2.83101 1.12169 2.55052 1.04233 2.18467 1.04233C1.85366 1.04233 1.54704 1.08995 1.26481 1.18519C0.982578 1.28042 0.707317 1.39506 0.439024 1.5291L0 0.597884C0.707317 0.199295 1.46516 0 2.27352 0C2.95645 0 3.49826 0.169312 3.89895 0.507936C4.29965 0.846561 4.5 1.31393 4.5 1.91005C4.5 2.1746 4.46167 2.41093 4.38502 2.61905C4.30836 2.82363 4.19164 3.0194 4.03484 3.20635C3.88153 3.3933 3.61498 3.63668 3.23519 3.93651C2.91115 4.194 2.69338 4.40741 2.58188 4.57672C2.47387 4.74603 2.41986 4.97354 2.41986 5.25926V5.49735H1.39547ZM1.18118 7.18518C1.18118 6.65256 1.43728 6.38624 1.94948 6.38624C2.20035 6.38624 2.39199 6.45679 2.52439 6.59788C2.65679 6.73545 2.723 6.93122 2.723 7.18518C2.723 7.43563 2.65505 7.63492 2.51916 7.78307C2.38676 7.92769 2.19686 8 1.94948 8C1.70209 8 1.5122 7.92945 1.37979 7.78836C1.24739 7.64374 1.18118 7.44268 1.18118 7.18518Z" fill="#D3D3D3"/>
</svg>
