<svg width="140" height="48" viewBox="0 0 140 48" fill="none" xmlns="http://www.w3.org/2000/svg">
<path fill-rule="evenodd" clip-rule="evenodd" d="M119.85 10.8092V11.0717H120.427H121.005V12.559V14.0464H121.315H121.626V12.5632V11.08L122.182 11.054C122.714 11.029 122.738 11.018 122.765 10.7873L122.793 10.5467H121.321H119.85V10.8092ZM123.136 12.2966V14.0464H123.403H123.669L123.678 12.5809L123.687 11.1154L124.171 12.5809C124.649 14.0273 124.658 14.0464 124.911 14.0464C125.143 14.0464 125.18 14.0035 125.305 13.5871C125.381 13.3344 125.581 12.6946 125.75 12.1653L126.057 11.2029L126.063 12.6247L126.068 14.0464H126.334H126.601V12.2917V10.5371L126.181 10.5638L125.762 10.5905L125.365 11.881C125.146 12.5907 124.942 13.1715 124.911 13.1715C124.88 13.1715 124.667 12.5809 124.436 11.8591L124.017 10.5467H123.577H123.136V12.2966ZM65.0164 15.4231C64.9946 15.4599 62.3084 20.1555 59.0468 25.8577C55.7854 31.56 52.9645 36.4912 52.7781 36.816L52.4395 37.4066H55.1306H57.8217L59.1082 35.0224L60.3947 32.6383H67.3479H74.3011L75.6328 35.0224L76.9644 37.4066H79.9851C82.3672 37.4066 82.9961 37.3835 82.9596 37.2972C82.9341 37.2371 80.0566 32.2861 76.5651 26.2952L70.2171 15.4025L67.6365 15.3793C66.2173 15.3665 65.0382 15.3862 65.0164 15.4231ZM96.0443 26.3827V37.4066H98.7091H101.374V33.2945V29.1824H103.758H106.141L110.594 33.2954L115.047 37.4084L118.881 37.3857L122.714 37.3628L117.672 33.2945L112.63 29.2261L114.296 29.1707C116.338 29.1027 116.857 29.0475 117.615 28.8175C119.021 28.3907 119.751 27.6278 120.077 26.2428C120.192 25.7565 120.209 25.0602 120.184 21.9756C120.156 18.3663 120.151 18.2783 119.947 17.7362C119.44 16.3808 118.385 15.6855 116.474 15.4472C116.091 15.3994 111.619 15.363 105.926 15.3615L96.0443 15.3588V26.3827ZM113.604 19.3777C114.275 19.4733 114.58 19.6132 114.823 19.9366C114.999 20.1709 115.009 20.291 115.009 22.2589C115.009 24.5009 114.986 24.6187 114.497 24.9329C114.074 25.2041 113.148 25.244 107.259 25.2446L101.374 25.2453V22.2706V19.2959L107.214 19.2976C110.426 19.2986 113.302 19.3346 113.604 19.3777ZM69.7074 24.1079C70.9158 26.3455 71.9412 28.2451 71.9859 28.3294C72.063 28.4742 71.8188 28.4825 67.4388 28.4825C63.6773 28.4825 62.8156 28.4611 62.8389 28.3683C62.872 28.237 67.2486 20.2716 67.3804 20.1031C67.4283 20.0417 67.4772 20.0024 67.4889 20.0156C67.5007 20.0288 68.499 21.8703 69.7074 24.1079Z" fill="black"/>
<path fill-rule="evenodd" clip-rule="evenodd" d="M22.6088 8.08681C22.4622 8.12986 22.2328 8.25427 22.0992 8.36329C21.7495 8.6486 13.0766 23.3854 13.0113 23.8053C12.9824 23.9916 13.0107 24.271 13.0766 24.4475C13.2278 24.8528 20.398 37.0193 20.6446 37.289C20.8735 37.5393 21.25 37.74 21.4907 37.74C21.6565 37.74 21.6656 37.7801 21.6169 38.2937C21.551 38.9886 21.7313 39.4075 22.2386 39.7383L22.5957 39.9711L31.3803 39.9946C37.6013 40.0113 40.2716 39.9899 40.5306 39.9211C40.7317 39.8678 41.0191 39.6998 41.1691 39.5476C41.3192 39.3955 42.7532 37.0425 44.3558 34.3186L47.2698 29.3661L48.0277 29.3134C48.531 29.2784 48.918 29.1975 49.1799 29.0727C50.2333 28.5704 50.3015 27.2799 49.3057 26.6949L48.968 26.4966L49.546 25.5055C50.181 24.4167 50.2949 23.9819 50.0777 23.4763C49.7877 22.8017 41.3716 8.63215 41.1311 8.41394C40.9887 8.28454 40.7201 8.13712 40.5342 8.08629C40.1123 7.97089 23.0024 7.97141 22.6088 8.08681ZM87.1413 11.3614V13.6799H89.4952H91.8491V11.3614V9.04283H89.4952H87.1413V11.3614ZM43.1556 17.485L46.9997 24.0024L46.2862 25.2147L45.5728 26.427L38.9318 26.4756C35.2793 26.5024 32.28 26.5141 32.2667 26.5017C32.2535 26.4892 33.4905 24.4752 35.0156 22.0261C36.5408 19.5771 37.8267 17.4339 37.8733 17.2635C38.0057 16.7798 37.8735 16.3146 37.4989 15.9456C36.948 15.403 36.1717 15.3291 35.562 15.7611C35.4024 15.8743 33.0815 19.5271 29.1898 25.7901C25.8232 31.2082 23.0583 35.631 23.0457 35.6185C23.033 35.606 21.4841 32.9878 19.6037 29.8004L16.1846 24.0047L20.0185 17.4899L23.8523 10.9749L31.5819 10.9713L39.3115 10.9676L43.1556 17.485ZM87.0555 16.0779C86.9316 16.2179 85.9594 17.2809 84.895 18.4402L82.9597 20.548L84.7618 20.6015C85.7529 20.631 86.6938 20.6605 86.8526 20.6671L87.1413 20.6792V29.2971V37.915H89.4952H91.8491V26.894V15.8729L89.5648 15.8482L87.2805 15.8234L87.0555 16.0779ZM43.7939 29.3894C43.7939 29.4162 42.7855 31.1485 41.5531 33.239L39.3122 37.0401H32.4945H25.6766L26.5055 35.7059C26.9614 34.9721 28.0206 33.2692 28.8592 31.9219L30.384 29.4721L33.2028 29.4265C37.5048 29.3569 43.7939 29.3349 43.7939 29.3894Z" fill="#FFBA00"/>
</svg>
