<svg width="22" height="22" viewBox="0 0 22 22" fill="none" xmlns="http://www.w3.org/2000/svg">
<path d="M21 3L11 13.01L8 10.01" stroke="#2A4455" stroke-width="2" stroke-linecap="round" stroke-linejoin="round"/>
<path fill-rule="evenodd" clip-rule="evenodd" d="M11 22C17.0751 22 22 17.0751 22 11C22 9.20735 21.5712 7.51486 20.8105 6.0195L12.4149 14.4235C12.0399 14.7989 11.5311 15.0099 11.0005 15.01C10.4699 15.0101 9.96098 14.7994 9.58579 14.4242L6.58579 11.4242C5.80474 10.6432 5.80474 9.37683 6.58579 8.59579C7.36684 7.81474 8.63317 7.81474 9.41421 8.59579L10.9993 10.1809L18.3536 2.81916C16.4051 1.06652 13.8271 0 11 0C4.92487 0 0 4.92487 0 11C0 17.0751 4.92487 22 11 22Z" fill="#2A4455"/>
</svg>
