<svg width="18" height="18" viewBox="0 0 18 18" fill="none" xmlns="http://www.w3.org/2000/svg">
<path fill-rule="evenodd" clip-rule="evenodd" d="M11.849 2.60601C10.4702 1.99164 8.92971 1.83944 7.45733 2.17211C5.98495 2.50478 4.65955 3.30448 3.6788 4.45196C2.69805 5.59943 2.1145 7.0332 2.01518 8.53942C1.91586 10.0456 2.30609 11.5436 3.12767 12.81C3.94926 14.0763 5.15818 15.0431 6.57413 15.5662C7.99008 16.0893 9.5372 16.1407 10.9847 15.7127C12.4323 15.2847 13.7027 14.4003 14.6065 13.1913C15.5103 11.9823 15.9991 10.5135 16 9.00401V8.26858C16 7.71629 16.4477 7.26858 17 7.26858C17.5523 7.26858 18 7.71629 18 8.26858V9.00458C17.9989 10.9454 17.3704 12.8344 16.2084 14.3888C15.0463 15.9432 13.413 17.0804 11.5518 17.6307C9.69068 18.1809 7.70153 18.1149 5.88102 17.4423C4.06051 16.7697 2.50619 15.5266 1.44986 13.8985C0.39354 12.2704 -0.108188 10.3444 0.0195091 8.40783C0.147206 6.47126 0.897486 4.62784 2.15845 3.15252C3.41942 1.67719 5.12351 0.648995 7.01657 0.221283C8.90963 -0.20643 10.8902 -0.0107453 12.663 0.779152C13.1675 1.00393 13.3942 1.59511 13.1694 2.09958C12.9446 2.60405 12.3535 2.83079 11.849 2.60601ZM17.7068 1.89712C18.0975 2.28745 18.0978 2.92061 17.7075 3.31133L9.70746 11.3193C9.51996 11.507 9.26556 11.6125 9.00025 11.6126C8.73495 11.6126 8.48049 11.5073 8.2929 11.3197L5.8929 8.91968C5.50237 8.52916 5.50237 7.89599 5.8929 7.50547C6.28342 7.11495 6.91659 7.11495 7.30711 7.50547L8.99965 9.19801L16.2925 1.89783C16.6829 1.50711 17.316 1.50679 17.7068 1.89712Z" fill="#559E53"/>
</svg>
