<svg width="32" height="32" viewBox="0 0 32 32" fill="none" xmlns="http://www.w3.org/2000/svg">
<path fill-rule="evenodd" clip-rule="evenodd" d="M15.2143 4C14.662 4 14.2143 4.44772 14.2143 5C14.2143 5.02809 14.2144 5.05693 14.2145 5.08642C14.2156 5.38317 14.217 5.74539 14.111 6.06215C13.9918 6.41886 13.808 6.69343 13.5237 6.93968C13.3564 7.08459 13.1723 7.17968 13.0273 7.24778C12.8837 7.31524 12.7053 7.38877 12.5101 7.46926L12.4903 7.47742L12.4342 7.50077L12.4156 7.50856C12.2323 7.58559 12.065 7.65587 11.925 7.70742C11.7839 7.75935 11.5989 7.82021 11.3921 7.83993C10.9874 7.87851 10.6341 7.80916 10.274 7.62042C9.99677 7.47516 9.75732 7.23402 9.5608 7.03611C9.54125 7.01642 9.52212 6.99716 9.50342 6.97846C9.1129 6.58794 8.47973 6.58794 8.08921 6.97846L6.97804 8.08963C6.58752 8.48015 6.58752 9.11332 6.97804 9.50384C6.99675 9.52255 7.01602 9.54169 7.03572 9.56125C7.23372 9.75787 7.475 9.99745 7.6203 10.2748C7.80885 10.6347 7.87815 10.9877 7.83969 11.3922C7.82002 11.5991 7.75915 11.7842 7.70721 11.9254C7.65565 12.0655 7.58535 12.2328 7.5083 12.4163L7.5005 12.4348L7.47742 12.4903L7.46922 12.5102C7.38874 12.7054 7.31523 12.8837 7.24778 13.0273C7.17968 13.1723 7.08459 13.3564 6.93968 13.5237C6.69343 13.808 6.41886 13.9918 6.06215 14.111C5.7454 14.217 5.38317 14.2156 5.08642 14.2145C5.05693 14.2144 5.02809 14.2143 5 14.2143C4.44772 14.2143 4 14.662 4 15.2143V16.7857C4 17.338 4.44772 17.7857 5 17.7857C5.02809 17.7857 5.05693 17.7856 5.08642 17.7855C5.38317 17.7844 5.7454 17.783 6.06215 17.889C6.41886 18.0082 6.69343 18.192 6.93968 18.4763C7.08459 18.6436 7.17968 18.8277 7.24778 18.9727C7.31524 19.1163 7.38877 19.2947 7.46926 19.4899L7.47742 19.5097L7.49077 19.5419L7.49904 19.5618C7.58045 19.7571 7.65484 19.9355 7.70888 20.0851C7.76345 20.2362 7.82658 20.4341 7.84238 20.6555C7.86906 21.0296 7.80511 21.353 7.63802 21.6888C7.48877 21.9887 7.23095 22.2446 7.01978 22.4542C6.9988 22.475 6.97827 22.4954 6.95836 22.5153C6.56784 22.9058 6.56784 23.539 6.95836 23.9295L8.06953 25.0407C8.46006 25.4312 9.09322 25.4312 9.48374 25.0407C9.50363 25.0208 9.52398 25.0003 9.54479 24.9793C9.75415 24.7684 10.0098 24.5109 10.3093 24.3617C10.6456 24.1942 10.9696 24.1301 11.3443 24.1571C11.5655 24.173 11.7631 24.2361 11.914 24.2906C12.0634 24.3447 12.2417 24.419 12.4368 24.5003L12.4566 24.5086L12.4903 24.5226L12.51 24.5307C12.7053 24.6112 12.8837 24.6847 13.0273 24.7522C13.1723 24.8203 13.3564 24.9154 13.5237 25.0603C13.808 25.3066 13.9918 25.5811 14.111 25.9378C14.217 26.2546 14.2156 26.6168 14.2145 26.9136C14.2144 26.9431 14.2143 26.9719 14.2143 27C14.2143 27.5523 14.662 28 15.2143 28H16.7857C17.338 28 17.7857 27.5523 17.7857 27C17.7857 26.972 17.7856 26.9432 17.7855 26.9138C17.7844 26.6176 17.783 26.2559 17.8887 25.9396C18.0077 25.5831 18.1908 25.3091 18.4746 25.0627C18.6429 24.9166 18.8298 24.8205 18.9752 24.7521C19.1209 24.6836 19.3027 24.6083 19.5034 24.5252L19.5438 24.5085C19.7487 24.4236 19.9357 24.3461 20.0924 24.2903C20.2505 24.2339 20.4579 24.169 20.6896 24.1563C21.0427 24.137 21.3458 24.1973 21.6646 24.3503C21.8636 24.4459 22.0198 24.5711 22.1426 24.6807C22.257 24.7828 22.385 24.9108 22.5183 25.0441L22.5344 25.0602C22.9249 25.4507 23.5581 25.4507 23.9486 25.0602L25.0598 23.949C25.4503 23.5585 25.4503 22.9253 25.0598 22.5348L25.0436 22.5187C24.9104 22.3854 24.7824 22.2575 24.6803 22.143C24.5706 22.0201 24.4454 21.8639 24.3499 21.6648C24.197 21.3462 24.1368 21.0434 24.1561 20.6905C24.1687 20.4587 24.2337 20.2511 24.29 20.093C24.3459 19.9362 24.4235 19.7489 24.5085 19.5438L24.5251 19.5036C24.6083 19.3029 24.6836 19.121 24.7521 18.9752C24.8205 18.8298 24.9166 18.6429 25.0628 18.4746C25.3092 18.1907 25.5831 18.0077 25.9396 17.8887C26.256 17.783 26.6176 17.7844 26.9138 17.7855C26.9432 17.7856 26.972 17.7857 27 17.7857C27.5523 17.7857 28 17.338 28 16.7857V15.2143C28 14.662 27.5523 14.2143 27 14.2143C26.9719 14.2143 26.9431 14.2144 26.9136 14.2145C26.6168 14.2156 26.2546 14.217 25.9378 14.111C25.5811 13.9918 25.3066 13.808 25.0603 13.5237C24.9154 13.3564 24.8203 13.1723 24.7522 13.0273C24.6847 12.8837 24.6112 12.7053 24.5307 12.51L24.5226 12.4903L24.5083 12.4559L24.5001 12.4361C24.4188 12.2414 24.3446 12.0635 24.2907 11.9143C24.2362 11.7638 24.1732 11.5665 24.1572 11.3458C24.1299 10.9701 24.1941 10.6452 24.3622 10.3082C24.5113 10.0093 24.7683 9.75424 24.9789 9.54527C24.9998 9.52451 25.0202 9.5042 25.0401 9.48435C25.4306 9.09383 25.4306 8.46066 25.0401 8.07013L23.9289 6.95897C23.5384 6.56844 22.9052 6.56844 22.5147 6.95897C22.4948 6.97884 22.4745 6.99932 22.4537 7.02026C22.2445 7.23103 21.9891 7.48834 21.6899 7.63748C21.3533 7.80522 21.0291 7.86933 20.654 7.84231C20.4331 7.82639 20.2356 7.76332 20.0848 7.70883C19.9355 7.65487 19.7574 7.58061 19.5625 7.49934L19.5426 7.49107L19.5097 7.47742L19.4899 7.46926C19.2947 7.38877 19.1163 7.31524 18.9727 7.24778C18.8277 7.17968 18.6436 7.08459 18.4763 6.93968C18.192 6.69343 18.0082 6.41886 17.889 6.06215C17.783 5.7454 17.7844 5.38317 17.7855 5.08642C17.7856 5.05693 17.7857 5.02809 17.7857 5C17.7857 4.44772 17.338 4 16.7857 4H15.2143ZM12.2143 5C12.2143 3.34315 13.5574 2 15.2143 2H16.7857C18.4426 2 19.7857 3.34315 19.7857 5C19.7857 5.20791 19.7861 5.32356 19.7907 5.40757C19.791 5.41292 19.7913 5.41785 19.7916 5.42238C19.8004 5.42675 19.8108 5.43181 19.8231 5.43755C19.9176 5.48199 20.0505 5.53706 20.2721 5.62842L20.3122 5.64505C20.5335 5.7373 20.6663 5.79238 20.7646 5.8279C20.7773 5.83248 20.7882 5.83628 20.7975 5.83943C20.8009 5.83645 20.8046 5.83318 20.8086 5.82961C20.8713 5.77344 20.9534 5.69187 21.1005 5.54475C22.2721 4.37318 24.1716 4.37318 25.3431 5.54475L26.4543 6.65592C27.6259 7.82749 27.6259 9.72699 26.4543 10.8986C26.3074 11.0455 26.2259 11.1275 26.1698 11.1901C26.1662 11.1941 26.1629 11.1978 26.1599 11.2012C26.1631 11.2105 26.1669 11.2215 26.1715 11.2341C26.207 11.3323 26.262 11.465 26.3542 11.686L26.3716 11.7279C26.4629 11.9495 26.518 12.0824 26.5624 12.1769C26.5682 12.1892 26.5732 12.1996 26.5776 12.2084C26.5821 12.2087 26.5871 12.209 26.5924 12.2093C26.6764 12.2139 26.7921 12.2143 27 12.2143C28.6569 12.2143 30 13.5574 30 15.2143V16.7857C30 18.4426 28.6569 19.7857 27 19.7857C26.7925 19.7857 26.6771 19.7861 26.5933 19.7907C26.588 19.7909 26.5832 19.7912 26.5788 19.7915C26.574 19.8012 26.5684 19.8127 26.562 19.8263C26.516 19.9242 26.4587 20.0617 26.3648 20.2884C26.2684 20.5211 26.2108 20.6611 26.1739 20.7646C26.1691 20.778 26.1652 20.7895 26.1619 20.7994C26.1652 20.8031 26.1687 20.8071 26.1726 20.8115C26.2321 20.8782 26.3187 20.9653 26.474 21.1206C27.6456 22.2922 27.6456 24.1917 26.474 25.3632L25.3628 26.4744C24.1912 27.646 22.2918 27.646 21.1202 26.4744C20.9648 26.3191 20.8777 26.2324 20.811 26.1729C20.8066 26.169 20.8025 26.1654 20.7988 26.1622C20.7889 26.1654 20.7774 26.1694 20.764 26.1741C20.6606 26.211 20.5208 26.2686 20.2883 26.3649C20.0616 26.4588 19.9241 26.516 19.8263 26.562C19.8127 26.5684 19.8012 26.574 19.7915 26.5788C19.7912 26.5832 19.7909 26.588 19.7907 26.5933C19.7861 26.6771 19.7857 26.7925 19.7857 27C19.7857 28.6569 18.4426 30 16.7857 30H15.2143C13.5574 30 12.2143 28.6569 12.2143 27C12.2143 26.7921 12.2139 26.6764 12.2093 26.5924C12.209 26.5871 12.2087 26.5821 12.2084 26.5776C12.1996 26.5732 12.1892 26.5682 12.1769 26.5624C12.0824 26.518 11.9495 26.4629 11.7279 26.3716L11.6869 26.3546C11.4654 26.2622 11.3325 26.2071 11.2341 26.1715C11.2214 26.167 11.2105 26.1631 11.2012 26.16C11.1978 26.163 11.1941 26.1662 11.1901 26.1698C11.1273 26.226 11.0452 26.3077 10.898 26.4549C9.72639 27.6265 7.82689 27.6265 6.65532 26.4549L5.54415 25.3437C4.37258 24.1722 4.37258 22.2727 5.54415 21.1011C5.69155 20.9537 5.77327 20.8715 5.82954 20.8087C5.83312 20.8047 5.83639 20.801 5.83937 20.7976C5.83622 20.7882 5.83241 20.7773 5.82783 20.7646C5.79226 20.6661 5.7371 20.533 5.64469 20.3113L5.62842 20.2721C5.53706 20.0505 5.48199 19.9176 5.43755 19.8231C5.43181 19.8108 5.42675 19.8004 5.42238 19.7916C5.41785 19.7913 5.41292 19.791 5.40757 19.7907C5.32356 19.7861 5.20791 19.7857 5 19.7857C3.34315 19.7857 2 18.4426 2 16.7857V15.2143C2 13.5574 3.34315 12.2143 5 12.2143C5.20791 12.2143 5.32356 12.2139 5.40757 12.2093C5.41292 12.209 5.41786 12.2087 5.42238 12.2084C5.42676 12.1996 5.43181 12.1892 5.43755 12.1769C5.48199 12.0824 5.53706 11.9495 5.62842 11.7279L5.65654 11.6603C5.74393 11.4523 5.79622 11.3272 5.83028 11.2346C5.83475 11.2225 5.83846 11.212 5.84154 11.2031C5.83862 11.1998 5.83542 11.1962 5.8319 11.1923C5.7788 11.1335 5.70204 11.0563 5.56383 10.9181C4.39226 9.74649 4.39226 7.84699 5.56383 6.67542L6.675 5.56425C7.84657 4.39268 9.74606 4.39268 10.9176 5.56425C11.0558 5.70239 11.1329 5.77911 11.1918 5.83219C11.1956 5.8357 11.1992 5.83891 11.2025 5.84182C11.2114 5.83875 11.2219 5.83503 11.2341 5.83056C11.3265 5.79651 11.4516 5.74423 11.6596 5.65687L11.7279 5.62842C11.9495 5.53706 12.0824 5.48199 12.1769 5.43755C12.1892 5.43181 12.1996 5.42675 12.2084 5.42238C12.2087 5.41785 12.209 5.41292 12.2093 5.40757C12.2139 5.32356 12.2143 5.20791 12.2143 5ZM16 11C13.2386 11 11 13.2386 11 16C11 18.7614 13.2386 21 16 21C18.7614 21 21 18.7614 21 16C21 15.4138 20.8995 14.8533 20.7157 14.3332C20.5292 13.8054 20.2561 13.3176 19.913 12.887C18.9952 11.7352 17.5838 11 16 11ZM9 16C9 12.134 12.134 9 16 9C18.2185 9 20.1963 10.0331 21.4771 11.6406C21.9566 12.2424 22.3395 12.9256 22.6014 13.6668C22.8598 14.3979 23 15.1836 23 16C23 19.866 19.866 23 16 23C12.134 23 9 19.866 9 16Z" fill="#BC0000"/>
</svg>
