<svg width="42" height="32" viewBox="0 0 42 32" fill="none" xmlns="http://www.w3.org/2000/svg">
<path fill-rule="evenodd" clip-rule="evenodd" d="M12.5681 5C12.3157 4.99997 12.0699 4.99994 11.8618 5.01695C11.6332 5.03563 11.3634 5.07969 11.092 5.21799C10.7157 5.40974 10.4097 5.7157 10.218 6.09202C10.0797 6.36345 10.0356 6.63318 10.017 6.86178C9.99994 7.06993 9.99997 7.31572 10 7.56811L10 9H9C8.44772 9 8 9.44772 8 10C8 10.5523 8.44772 11 9 11H10.9967L11 11L11.0033 11H24C24.5523 11 25 10.5523 25 10C25 9.44772 24.5523 9 24 9H12V7.60001C12 7.30348 12.0008 7.14122 12.0103 7.02464L12.0115 7.01145L12.0246 7.01031C12.1412 7.00078 12.3035 7.00001 12.6 7.00001H29.4C29.6965 7.00001 29.8588 7.00078 29.9754 7.01031L29.9885 7.01145L29.9897 7.02464C29.9992 7.14122 30 7.30348 30 7.60001V23H23.874C23.4299 21.2748 21.8638 20 20 20C18.1362 20 16.5701 21.2748 16.126 23H12.6C12.3035 23 12.1412 22.9992 12.0246 22.9897L12.0115 22.9885L12.0103 22.9754C12.0008 22.8588 12 22.6965 12 22.4V21C12 20.4477 11.5523 20 11 20C10.4477 20 10 20.4477 10 21L10 22.4319C9.99997 22.6843 9.99994 22.9301 10.017 23.1382C10.0356 23.3668 10.0797 23.6366 10.218 23.908C10.4097 24.2843 10.7157 24.5903 11.092 24.782C11.3634 24.9203 11.6332 24.9644 11.8618 24.9831C12.0698 25.0001 12.3155 25 12.5677 25L16.126 25C16.5701 26.7252 18.1362 28 20 28C21.8638 28 23.4299 26.7252 23.874 25L32.126 24.9999C32.57 26.7252 34.1361 28 36 28C37.8652 28 39.4322 26.7234 39.875 24.9962C39.9673 24.9937 40.0557 24.9897 40.1382 24.9829C40.3668 24.9643 40.6366 24.9202 40.908 24.7819C41.2843 24.5901 41.5903 24.2842 41.782 23.9079C41.9203 23.6364 41.9644 23.3667 41.9831 23.1381C42.0001 22.93 42 22.6844 42 22.4321L42 16.7408L38.998 11.3372L38.9632 11.2741C38.8359 11.0429 38.6758 10.7523 38.4336 10.5291C38.2242 10.3362 37.9761 10.1902 37.7057 10.1009C37.393 9.99753 37.0612 9.99874 36.7974 9.9997L36.7252 9.99988L32.5681 9.99988C32.3696 9.99985 32.1752 9.99983 32 10.0081V7.56809C32 7.31585 32.0001 7.06982 31.9831 6.86178C31.9644 6.63318 31.9203 6.36345 31.782 6.09202C31.5903 5.7157 31.2843 5.40974 30.908 5.21799C30.6366 5.07969 30.3668 5.03563 30.1382 5.01695C29.9301 4.99994 29.6843 4.99997 29.4319 5H12.5681ZM39.8728 22.9954C39.9112 22.994 39.9448 22.9921 39.9754 22.9896L39.9886 22.9884L39.9897 22.9752C39.9992 22.8587 40 22.6964 40 22.3999V17.9999H32V22.9999H32.126C32.5701 21.2747 34.1362 20 36 20C37.8622 20 39.4272 21.2725 39.8728 22.9954ZM18 24L18 23.9977C18.0012 22.8942 18.8962 22 20 22C21.1046 22 22 22.8954 22 24C22 25.1046 21.1046 26 20 26C18.8954 26 18 25.1046 18 24ZM32 12.5715L32 15.9999H39.3005L37.2497 12.3085C37.1609 12.1485 37.115 12.0669 37.0785 12.0096L37.0754 12.0047L37.0697 12.0044C37.0019 12.0003 36.9082 11.9999 36.7252 11.9999H32.6C32.3035 11.9999 32.1412 12.0007 32.0246 12.0102L32.0115 12.0113L32.0103 12.0245C32.0011 12.1373 32.0001 12.2929 32 12.5715ZM38 24C38 25.1046 37.1046 26 36 26C34.8954 26 34 25.1046 34 24C34 22.8954 34.8954 22 36 22C37.1046 22 38 22.8954 38 24Z" fill="#BC0000"/>
<path d="M1 18C1 17.4477 1.44772 17 2 17H8C8.55228 17 9 17.4477 9 18C9 18.5523 8.55228 19 8 19H2C1.44772 19 1 18.5523 1 18Z" fill="#BC0000"/>
<path d="M5 14C5 13.4477 5.44772 13 6 13H18C18.5523 13 19 13.4477 19 14C19 14.5523 18.5523 15 18 15H6C5.44772 15 5 14.5523 5 14Z" fill="#BC0000"/>
</svg>
