<svg width="32" height="32" viewBox="0 0 32 32" fill="none" xmlns="http://www.w3.org/2000/svg">
<path fill-rule="evenodd" clip-rule="evenodd" d="M8 3H24V15H8V3ZM26 29C29.3137 29 32 26.3137 32 23V21C32 17.6863 29.3137 15 26 15V3C26 1.89543 25.1046 1 24 1H8C6.89543 1 6 1.89543 6 3V15C2.68629 15 0 17.6863 0 21V23C0 26.3137 2.68629 29 6 29V30C6 30.5523 6.44772 31 7 31C7.55228 31 8 30.5523 8 30V29H24V30C24 30.5523 24.4477 31 25 31C25.5523 31 26 30.5523 26 30V29ZM5 17.126C3.27477 17.5701 2 19.1362 2 21V23C2 25.2091 3.79086 27 6 27H26C28.2091 27 30 25.2091 30 23V21C30 19.1362 28.7252 17.5701 27 17.126C26.6804 17.0438 26.3453 17 26 17V18C26 18.5523 25.5523 19 25 19C24.4477 19 24 18.5523 24 18V17H8V18C8 18.5523 7.55228 19 7 19C6.44772 19 6 18.5523 6 18V17C5.6547 17 5.31962 17.0438 5 17.126ZM10 6C9.44772 6 9 6.44772 9 7C9 7.55228 9.44771 8 10 8H15C15.5523 8 16 7.55228 16 7C16 6.44772 15.5523 6 15 6H10ZM9 11C9 10.4477 9.44772 10 10 10H15C15.5523 10 16 10.4477 16 11C16 11.5523 15.5523 12 15 12H10C9.44771 12 9 11.5523 9 11Z" fill="#BC0000"/>
</svg>
