<svg width="88" height="88" viewBox="0 0 88 88" fill="none" xmlns="http://www.w3.org/2000/svg">
<path d="M13 56L29 47V73H13V56Z" fill="#F5F5F5"/>
<path fill-rule="evenodd" clip-rule="evenodd" d="M29 45L13 54V56L29 47V45Z" fill="#BC0000"/>
<path fill-rule="evenodd" clip-rule="evenodd" d="M45 45L29 54V56L45 47V45Z" fill="#BC0000"/>
<path fill-rule="evenodd" clip-rule="evenodd" d="M61 45L45 54V56L61 47V45Z" fill="#BC0000"/>
<path d="M29 56L45 47V73H29V56Z" fill="#D3D3D3"/>
<path d="M63 15H71L75 73H59L63 15Z" fill="#BC0000"/>
<path d="M17 62.2C17 61.0799 17 60.5198 17.218 60.092C17.4097 59.7157 17.7157 59.4097 18.092 59.218C18.5198 59 19.0799 59 20.2 59H21.8C22.9201 59 23.4802 59 23.908 59.218C24.2843 59.4097 24.5903 59.7157 24.782 60.092C25 60.5198 25 61.0799 25 62.2V63.8C25 64.9201 25 65.4802 24.782 65.908C24.5903 66.2843 24.2843 66.5903 23.908 66.782C23.4802 67 22.9201 67 21.8 67H20.2C19.0799 67 18.5198 67 18.092 66.782C17.7157 66.5903 17.4097 66.2843 17.218 65.908C17 65.4802 17 64.9201 17 63.8V62.2Z" fill="#2A4455"/>
<path d="M33 62.2C33 61.0799 33 60.5198 33.218 60.092C33.4097 59.7157 33.7157 59.4097 34.092 59.218C34.5198 59 35.0799 59 36.2 59H37.8C38.9201 59 39.4802 59 39.908 59.218C40.2843 59.4097 40.5903 59.7157 40.782 60.092C41 60.5198 41 61.0799 41 62.2V63.8C41 64.9201 41 65.4802 40.782 65.908C40.5903 66.2843 40.2843 66.5903 39.908 66.782C39.4802 67 38.9201 67 37.8 67H36.2C35.0799 67 34.5198 67 34.092 66.782C33.7157 66.5903 33.4097 66.2843 33.218 65.908C33 65.4802 33 64.9201 33 63.8V62.2Z" fill="#2A4455"/>
<path d="M45 56L61 47V73H45V56Z" fill="#92A7B3"/>
<path d="M49 62.2C49 61.0799 49 60.5198 49.218 60.092C49.4097 59.7157 49.7157 59.4097 50.092 59.218C50.5198 59 51.0799 59 52.2 59H53.8C54.9201 59 55.4802 59 55.908 59.218C56.2843 59.4097 56.5903 59.7157 56.782 60.092C57 60.5198 57 61.0799 57 62.2V63.8C57 64.9201 57 65.4802 56.782 65.908C56.5903 66.2843 56.2843 66.5903 55.908 66.782C55.4802 67 54.9201 67 53.8 67H52.2C51.0799 67 50.5198 67 50.092 66.782C49.7157 66.5903 49.4097 66.2843 49.218 65.908C49 65.4802 49 64.9201 49 63.8V62.2Z" fill="#2A4455"/>
<path fill-rule="evenodd" clip-rule="evenodd" d="M67 15H63L59 73H67V15Z" fill="#991C12"/>
</svg>
