<svg width="88" height="88" viewBox="0 0 88 88" fill="none" xmlns="http://www.w3.org/2000/svg">
<path d="M73 28.5C73 32.0899 70.0899 35 66.5 35C62.9101 35 60 32.0899 60 28.5C60 24.9101 62.9101 22 66.5 22C70.0899 22 73 24.9101 73 28.5Z" fill="#D3D3D3"/>
<path d="M66.5 47L61 37L72 37L66.5 47Z" fill="#F5F5F5"/>
<path fill-rule="evenodd" clip-rule="evenodd" d="M66.5 37L66.5 37L66.5 37L64 37L65.7045 39.7273L63 49H70L67.2955 39.7273L69 37L66.5 37Z" fill="#BC0000"/>
<path fill-rule="evenodd" clip-rule="evenodd" d="M61.3172 37L66.5004 46.975L71.6835 37H72C76.4183 37 80 40.5817 80 45V47C80 48.1046 79.1046 49 78 49H55C53.8954 49 53 48.1046 53 47V45C53 40.5817 56.5817 37 61 37H61.3172Z" fill="#D3D3D3"/>
<path d="M28 21.5C28 25.0899 25.0899 28 21.5 28C17.9101 28 15 25.0899 15 21.5C15 17.9101 17.9101 15 21.5 15C25.0899 15 28 17.9101 28 21.5Z" fill="#2A4455"/>
<path d="M21.5 40L16 30L27 30L21.5 40Z" fill="#F5F5F5"/>
<path d="M19 30L20.7045 32.7273L18 42H25L22.2955 32.7273L24 30L19 30Z" fill="#BC0000"/>
<path d="M16.3172 30L21.5004 39.975L26.6835 30H27C31.4183 30 35 33.5817 35 38V40C35 41.1046 34.1046 42 33 42H10C8.89543 42 8 41.1046 8 40V38C8 33.5817 11.5817 30 16 30H16.3172Z" fill="#2A4455"/>
<path d="M53 25C53 30.5228 48.5228 35 43 35C37.4772 35 33 30.5228 33 25C33 19.4772 37.4772 15 43 15C48.5228 15 53 19.4772 53 25Z" fill="#92A7B3"/>
<path d="M15 60L16.3471 64.1459H20.7064L17.1797 66.7082L18.5268 70.8541L15 68.2918L11.4733 70.8541L12.8204 66.7082L9.2937 64.1459H13.653L15 60Z" fill="#BC0000"/>
<path d="M29 60L30.3471 64.1459H34.7064L31.1797 66.7082L32.5268 70.8541L29 68.2918L25.4733 70.8541L26.8204 66.7082L23.2937 64.1459H27.653L29 60Z" fill="#BC0000"/>
<path d="M43 60L44.3471 64.1459H48.7064L45.1797 66.7082L46.5268 70.8541L43 68.2918L39.4733 70.8541L40.8204 66.7082L37.2937 64.1459H41.653L43 60Z" fill="#BC0000"/>
<path d="M57 60L58.3471 64.1459H62.7064L59.1797 66.7082L60.5268 70.8541L57 68.2918L53.4733 70.8541L54.8204 66.7082L51.2937 64.1459H55.653L57 60Z" fill="#BC0000"/>
<path d="M71 60L72.3471 64.1459H76.7064L73.1797 66.7082L74.5268 70.8541L71 68.2918L67.4733 70.8541L68.8204 66.7082L65.2937 64.1459H69.653L71 60Z" fill="#BC0000"/>
<path d="M43 52L35.2057 37L50.7942 37L43 52Z" fill="#F5F5F5"/>
<path d="M41.8747 41.051L39.5359 37H46.4641L44.1253 41.051L48 55H38L41.8747 41.051Z" fill="#BC0000"/>
<path d="M35 37C28.3726 37 23 42.3726 23 49V53C23 54.1046 23.8954 55 25 55H61C62.1046 55 63 54.1046 63 53V49C63 42.3726 57.6274 37 51 37H50.7942L43 52L35.2058 37H35Z" fill="#92A7B3"/>
</svg>
