<svg width="140" height="48" viewBox="0 0 140 48" fill="none" xmlns="http://www.w3.org/2000/svg">
<path d="M98.3946 33.9217C95.9538 33.2405 94.2411 31.418 93.5628 28.8908C93.2293 27.6484 93.2651 26.3715 93.4602 25.1261C93.6901 23.659 94.1398 22.2479 94.9233 20.9516C96.6993 18.0132 99.3179 16.3095 102.65 15.7215C105.008 15.3054 107.376 15.3218 109.687 16.0966C112.895 17.1723 114.738 20.0976 114.22 23.6619C113.954 25.4864 113.487 27.2217 112.502 28.7755C110.376 32.1271 107.536 33.8551 103.635 34.1447C103.214 34.176 102.467 34.2098 102.044 34.2098C102.036 34.2597 99.5709 34.2499 98.3946 33.9217ZM107.373 23.3155C107.343 22.8623 107.356 22.401 107.275 21.9571C106.995 20.4164 105.73 19.536 104.209 19.8439C102.932 20.1027 101.962 20.846 101.315 21.9659C100.623 23.165 100.378 24.5134 100.278 25.8658C100.224 26.5935 100.294 27.4334 100.447 28.1555C100.569 28.7317 100.892 29.289 101.424 29.6214C102.882 30.5321 105.115 29.8169 106.122 27.962C106.91 26.5096 107.362 24.9766 107.373 23.3155Z" fill="#1B3073"/>
<path d="M123.607 33.4662C121.223 33.4662 119.028 33.4662 116.771 33.4662C118.26 25.2742 119.73 17.1894 121.206 9.06836C123.468 9.06836 125.665 9.06836 128.001 9.06836C127.281 13.1794 126.587 17.2367 125.858 21.2873C125.125 25.3526 124.358 29.4116 123.607 33.4662Z" fill="#1B3173"/>
<path d="M59.9738 33.5359C57.7447 33.5359 55.6082 33.5359 53.3223 33.5359C54.3704 27.5656 55.4034 21.6807 56.444 15.7526C58.4908 15.7526 60.4968 15.7526 62.5025 15.7526L61.9916 19.2048C62.5852 18.9557 63.1116 18.2403 63.4388 17.8064C64.8686 15.9094 66.7607 15.0728 69.2496 15.3084C68.8456 17.5738 68.4468 19.8099 68.0442 22.0681C67.2156 22.0681 66.4071 22.0025 65.6133 22.082C64.0518 22.2388 62.8741 23.0373 62.1206 24.4262C61.5394 25.4974 60.0531 33.3055 59.9738 33.5359Z" fill="#1C3174"/>
<path d="M44.6958 15.7383C46.9714 15.7383 49.1448 15.7383 51.4497 15.7383C51.3682 16.2041 48.299 33.3951 48.2642 33.5305C46.0709 33.5305 43.9067 33.5305 41.6133 33.5305C42.6463 27.5686 43.6635 21.6972 44.6958 15.7383Z" fill="#1C3173"/>
<path d="M51.7768 13.6685C49.5149 13.6685 47.3163 13.6685 45.0039 13.6685C45.2731 12.0911 45.5303 10.5834 45.7932 9.04199C48.0514 9.04199 50.217 9.04199 52.5223 9.04199C52.2725 10.5918 52.033 12.0784 51.7768 13.6685Z" fill="#D7342C"/>
<path fill-rule="evenodd" clip-rule="evenodd" d="M33.4637 9H25.4046C23.2081 13.0999 20.9377 17.217 18.6716 21.3263C16.4179 25.4131 14.1684 29.4923 12 33.5391H19.7461C19.96 33.0836 20.2129 32.5462 20.4757 31.9878C20.7641 31.375 21.0644 30.737 21.338 30.1541L29.8828 30.1613C29.95 30.7185 30.0093 31.3037 30.0679 31.881C30.1251 32.4449 30.1815 33.0014 30.2438 33.5171H37.9924C37.5319 31.0241 37.0717 28.5327 36.6114 26.0408C35.5645 20.3731 34.517 14.702 33.4637 9ZM28.5627 25.4398C28.5986 25.4394 28.6344 25.4389 28.6703 25.4385C28.8757 25.4359 29.8097 25.4502 29.8097 25.4502C29.5538 23.0649 28.0987 15.3908 28.0987 15.3908C27.8467 15.9002 27.5739 16.4473 27.2886 17.0196C25.9531 19.6983 24.3435 22.9269 23.3042 25.4052L24.2805 25.4305C24.282 25.4306 24.2835 25.4306 24.285 25.4306C24.525 25.4342 24.7649 25.4374 25.0049 25.44C26.1908 25.4531 27.3769 25.4543 28.5627 25.4398Z" fill="#1B3073"/>
<path fill-rule="evenodd" clip-rule="evenodd" d="M78.6406 17.5655C78.5674 17.6287 78.4973 17.6956 77.8358 18.2651L77.5303 18.5086L77.9992 15.7965H72.0836C71.7533 17.1789 67.9982 38.3196 67.8184 39.6719H74.367C74.367 39.6719 75.5379 33.2545 75.8131 31.9031C75.8131 31.9031 76.1891 32.3934 76.6985 32.8462C77.5781 33.6281 78.3886 33.9494 79.2619 34.0638C82.0801 34.4328 84.5862 33.6912 86.6358 31.7534C90.024 28.5501 91.5789 24.8743 90.772 20.3692C90.4565 18.6073 89.2083 16.8961 87.4491 16.0362C84.6876 14.6863 81.3387 15.3518 78.8456 17.3958C78.7186 17.4999 78.6791 17.5322 78.6406 17.5655ZM76.7939 26.9275C76.9752 28.1252 77.8517 28.9214 79.0086 29.0757C80.1907 29.2334 81.1882 28.7778 81.981 27.9357C82.0011 27.9143 82.021 27.8929 82.0407 27.8713C83.1487 26.6695 83.8368 25.2084 83.7943 23.5817C83.8335 21.9671 83.1916 20.4492 81.1971 20.3644C81.0446 20.3516 80.8936 20.3529 80.7471 20.3688C80.7456 20.3689 80.7442 20.3689 80.7427 20.369C79.7378 20.4801 78.8698 20.8768 78.1985 21.6397C76.885 23.1329 76.5609 24.9294 76.78 26.8235C76.7841 26.8585 76.7887 26.8931 76.7939 26.9275Z" fill="#1B3073"/>
</svg>
