<svg width="117" height="56" viewBox="0 0 117 56" fill="none" xmlns="http://www.w3.org/2000/svg">
<path d="M55.8981 55.6462C55.2115 55.6462 54.525 55.6462 53.8354 55.6462C49.8608 55.6462 47.7797 56.4436 45.3783 55.6431C45.1413 55.5631 44.6025 55.3691 43.9899 54.9781C43.5096 54.6703 42.4906 54.0145 42.0503 52.8508C41.8471 52.3151 41.7794 51.8903 41.8717 51.1052C42.0349 49.7198 42.392 48.3683 42.6137 46.9921C42.7492 46.1424 42.7953 45.2743 43.017 44.443C43.3526 43.19 43.4203 41.8939 43.7035 40.6347C43.9314 39.6249 44.0822 38.6028 44.2608 37.5869C44.4209 36.6694 44.5317 35.7397 44.7472 34.8346C44.9319 34.0557 45.0212 33.2675 45.1351 32.4763C45.1659 32.2577 45.2459 32.0453 45.2459 31.8175C45.2459 31.3157 45.0797 31.1125 44.584 31.0971C44.0514 31.0786 43.5157 31.0848 42.9801 31.1033C42.5644 31.1186 42.3489 31.4111 42.2381 31.9776C42.038 32.9843 41.8748 33.9972 41.7332 35.0131C41.5977 36.0106 41.3268 36.9896 41.1698 37.984C41.0467 38.7568 40.9543 39.5357 40.8158 40.3084C40.7019 40.9518 40.5017 41.5737 40.3971 42.2172C40.3201 42.6974 40.3355 43.1931 40.1569 43.658C40.003 44.0582 39.8491 44.169 39.4242 44.1721C38.3652 44.1752 37.3061 44.1721 36.2471 44.1721C34.015 44.1721 31.783 44.1721 29.5541 44.1721C28.8491 44.1721 28.652 43.8889 28.7567 43.1962C28.9014 42.251 29.043 41.3028 29.2647 40.3731C29.4525 39.5911 29.317 39.8866 29.668 37.9686C29.942 36.4724 29.8989 36.651 30.0959 35.7766C30.296 34.8869 30.3545 33.9818 30.4992 33.0859C30.5762 32.5964 30.6747 32.2577 30.7178 32.0699C31.1088 30.3675 31.3151 28.7481 31.6106 26.9224C31.9216 24.9952 31.8846 25.6079 32.6851 21.2177C32.916 19.9493 33.1222 18.7856 33.3377 17.4864C33.4947 16.5382 33.584 15.9779 33.584 15.9779C33.7287 15.082 33.7995 14.1769 34.0243 13.2933C34.1259 12.89 34.132 12.4559 34.2644 12.0649C34.5846 11.1321 34.5261 10.1531 34.6893 9.20176C34.7878 8.6199 35.1818 8.24122 35.8037 8.20428C35.9361 8.19504 36.0716 8.2012 36.204 8.2012C37.1276 8.2012 53.8754 8.29972 55.6395 8.19504C55.7564 8.18889 56.2244 8.15502 56.7816 8.30587C57.1541 8.40747 57.4097 8.54601 57.4743 8.58295C57.6344 8.67223 57.7391 8.75228 58.1362 9.07246C58.5272 9.38956 58.7304 9.53733 58.7858 9.60199C59.1337 10.0176 59.5924 10.3501 59.8079 10.8612C60.1127 11.5846 60.2328 12.3266 60.0327 13.1147C59.8172 13.9583 59.7679 14.8357 59.6386 15.6977C59.5709 16.1349 59.4046 16.5474 59.3277 16.9815C59.1645 17.9205 59.0783 18.8749 58.8997 19.8046C58.6842 20.9191 58.4441 22.0305 58.2563 23.148C58.1485 23.7976 58.0346 24.4195 57.5944 24.9367C57.4158 25.1491 57.2342 25.3585 56.9848 25.4909C56.7077 25.6387 56.4922 25.8572 56.286 26.0912C56.052 26.3591 56.0797 26.6731 56.3568 26.9009C56.4768 26.9994 56.6 27.0918 56.7324 27.1687C56.9048 27.2703 57.0064 27.4058 57.0679 27.4674C57.0679 27.4674 57.1819 27.5813 57.2865 27.7013C58.3764 28.9728 54.8975 42.328 54.8975 42.328C54.5157 43.7904 54.3803 44.9756 54.2664 45.4898C54.2294 45.6622 54.1956 45.8315 54.1986 46.007C54.2048 46.3764 54.3741 46.5765 54.7405 46.6258C54.8513 46.6412 54.9652 46.6381 55.0791 46.6381C59.1399 46.6381 63.2037 46.6381 67.2644 46.635C67.5045 46.635 67.7354 46.6627 67.9633 46.7274C68.3111 46.8259 68.5082 47.0968 68.3789 47.4262C68.1172 48.0912 68.0956 48.7901 68.0033 49.4766C67.9078 50.1785 67.7201 50.862 67.5969 51.5578C67.406 52.6261 67.1998 53.6944 67.1043 54.775C67.0828 55.0213 66.9381 55.2398 66.9689 55.4954C66.9843 55.6277 66.8765 55.6339 66.7811 55.6339C66.5748 55.637 66.3716 55.6431 66.1653 55.6462C66.0668 55.6462 66.0514 55.6462 65.9468 55.6462C65.7035 55.6524 62.8989 55.6493 55.8981 55.6462ZM46.3696 17.2062C46.1541 17.2062 45.9386 17.197 45.7231 17.2093C45.1751 17.237 44.7903 17.5049 44.7564 17.9266C44.7257 18.3269 44.6764 18.7179 44.5594 19.0996C44.3439 19.8077 44.3839 20.5589 44.1992 21.2762C44.0761 21.7503 44.2485 21.9781 44.7318 22.0551C45.2583 22.1413 45.797 22.1198 46.3265 22.0674C46.7206 22.0305 46.9854 21.7349 47.0562 21.3378C47.1054 21.0669 47.1239 20.7898 47.1763 20.5189C47.3271 19.7369 47.4872 18.9549 47.6504 18.1729C47.7797 17.5449 47.5087 17.2062 46.8653 17.2032C46.6991 17.2062 46.5328 17.2062 46.3696 17.2062Z" fill="#00169A"/>
<path d="M14.0962 44.1755C10.8052 44.1755 7.51716 44.1724 4.22609 44.1816C4.08139 44.1816 3.8351 44.1539 3.53955 44.0647C3.16088 43.9507 2.9269 43.7937 2.4805 43.5105C1.46455 42.8701 1.55075 43.0333 1.34448 42.8116C0.987356 42.433 0.537873 42.1282 0.319289 41.6356C0.0237393 40.9768 -0.0840132 40.2902 0.0699191 39.5698C0.233087 38.7971 0.18075 37.9905 0.390098 37.227C0.814951 35.66 0.968884 34.0437 1.2552 32.452C1.33524 31.9994 1.4861 31.5592 1.55998 31.1036C1.72007 30.0845 1.8309 29.0563 2.00639 28.0372C2.14493 27.2306 2.36659 26.4394 2.51128 25.6328C2.63751 24.9278 2.67445 24.2074 2.81607 23.5055C3.00079 22.5726 3.26863 21.6521 3.38562 20.707C3.49029 19.8727 3.58573 19.0353 3.78892 18.2225C4.09987 16.9849 4.21993 15.7226 4.41081 14.4666C4.55858 13.4937 4.72483 12.5085 5.17739 11.628C5.50065 10.9969 6.02402 10.4889 6.56894 10.0395C7.24008 9.48839 7.96049 8.99888 8.79788 8.70949C9.59217 8.43549 10.3741 8.17996 11.2454 8.19228C13.7945 8.22922 16.3436 8.20459 18.8958 8.20459C19.8287 8.20459 20.0534 8.05374 20.1735 7.13322C20.272 6.37895 20.5029 5.65547 20.5829 4.89813C20.6568 4.20851 20.7553 3.51581 20.8908 2.83543C21.0232 2.17352 21.2233 1.52701 21.2787 0.846628C21.3003 0.588021 21.5404 0.384831 21.4911 0.0985167C21.4757 0.0184719 21.5589 0.0123147 21.6235 0.00923603C21.7682 0.00615739 21.9098 0 22.0545 0C25.4164 0 28.7783 0 32.1402 0C32.8667 0 33.0083 0.166247 32.8821 0.895886C32.8175 1.2684 32.7313 1.63784 32.6574 2.01036C32.3741 3.41422 32.1063 4.82116 31.9093 6.24042C31.7954 7.06857 31.5398 7.87825 31.3982 8.70641C31.2628 9.49146 31.2566 10.3011 31.0565 11.077C30.6932 12.4778 30.5393 13.9155 30.3022 15.3409C30.1606 16.206 30.0405 17.0834 29.7819 17.927C29.6465 18.3703 29.6526 18.8382 29.6064 19.297C29.5202 20.1467 29.2863 20.9656 29.1077 21.7968C28.9661 22.4526 28.883 23.1083 28.8152 23.7702C28.7413 24.4968 28.5443 25.1987 28.3842 25.9068C28.1626 26.9074 28.0825 27.9326 27.904 28.9393C27.7439 29.8475 27.5869 30.7557 27.3652 31.6485C27.242 32.1411 27.1774 32.6336 27.1312 33.1324C27.085 33.625 26.9096 34.096 26.8665 34.5794C26.7772 35.543 26.3893 36.4419 26.3646 37.4179C26.3492 37.9997 26.2353 38.5816 26.0598 39.1388C25.8259 39.8777 25.8043 40.6566 25.6258 41.3986C25.4626 42.0697 25.5149 42.7593 25.3487 43.4243C25.2594 43.7845 25.0439 43.9631 24.696 44.0708C24.3512 44.1786 24.0125 44.1693 23.6677 44.1693C20.4721 44.1786 17.2826 44.1755 14.0962 44.1755ZM13.7237 35.1766V35.1735C13.97 35.1735 14.2194 35.1858 14.4626 35.1705C14.9521 35.1427 15.2661 34.9057 15.3585 34.4716C15.4878 33.8497 15.5894 33.2217 15.694 32.5967C15.8203 31.8301 15.8572 31.0481 16.0635 30.2939C16.1651 29.9183 16.2297 29.5334 16.319 29.1548C16.5684 28.0772 16.5869 26.9659 16.8516 25.8822C17.1256 24.7646 17.3011 23.6163 17.4335 22.4649C17.5351 21.5721 17.7691 20.6947 17.9476 19.8142C18.08 19.1615 18.2216 18.5088 18.2832 17.8469C18.3109 17.5298 18.0338 17.2281 17.7167 17.2219C17.181 17.2096 16.6453 17.2004 16.1127 17.225C15.6448 17.2466 15.3831 17.5113 15.3185 17.967C15.2907 18.1702 15.3092 18.3857 15.2476 18.5765C14.8874 19.6664 14.9367 20.827 14.6596 21.9354C14.204 23.7425 14.0993 25.6205 13.6591 27.4338C13.3173 28.8408 13.2927 30.297 12.9171 31.6977C12.794 32.1595 12.7632 32.6429 12.6462 33.1139C12.5261 33.5973 12.3999 34.0898 12.4276 34.6009C12.4461 34.9549 12.6647 35.1705 13.0187 35.1828C13.2496 35.1828 13.4867 35.1766 13.7237 35.1766Z" fill="#00169A"/>
<path d="M85.3799 55.638C84.444 55.6164 83.6897 55.6256 83.2187 55.638C79.2165 55.7334 75.0695 56.3522 73.0561 55.4101C72.6312 55.21 72.1571 54.9114 72.1571 54.9114C71.5045 54.5019 70.9134 54.1017 70.4208 53.3936C69.8389 52.5624 69.7065 51.6203 69.9682 50.5921C70.3377 49.1328 70.3838 47.6058 70.7502 46.1465C70.8025 45.9402 71.2181 43.6435 72.0463 39.0564C72.4096 37.046 72.5912 36.0393 72.8067 34.7955C73.3978 31.3598 73.3732 31.172 73.8381 28.4935C74.2321 26.2153 74.2537 26.3139 75.1126 21.6435C75.6883 18.5187 75.9746 16.9578 75.99 16.7793C76.0054 16.6069 76.4057 14.1563 77.203 9.26123C77.2307 9.09191 77.3046 8.67937 77.6279 8.42692C77.8095 8.2853 78.0527 8.21449 78.376 8.21449C81.5747 8.20834 84.7734 8.21141 87.9691 8.21449C88.0399 8.21449 88.1138 8.22373 88.1815 8.23604C88.2215 8.24528 88.6648 8.33456 88.8403 8.58701C89.0127 8.8333 88.8927 9.18735 88.8342 9.37822C88.5879 10.1694 88.634 11.0315 88.3939 11.8227C88.3323 12.0259 88.0614 13.599 87.5165 16.7516C87.0331 19.547 87.0208 19.8179 86.716 21.3418C86.4821 22.5148 86.4544 22.5456 86.1804 23.9248C85.7986 25.8705 85.5616 27.3113 85.4846 27.7916C85.2352 29.3371 85.2999 29.1647 85.0443 30.7717C84.7426 32.6928 84.444 34.2414 84.2624 35.1834C83.9545 36.7874 83.9607 36.8028 83.7051 38.0127C83.4835 39.0594 83.4681 40.1554 83.1848 41.1929C82.84 42.446 82.8123 43.7482 82.5229 45.0043C82.4706 45.2321 82.3967 45.4569 82.3197 45.6816C82.1781 46.1003 82.3505 46.4451 82.7754 46.5621C83.0124 46.6268 83.2587 46.6483 83.5081 46.6483C88.4432 46.6452 93.3813 46.6483 98.3164 46.6391C98.5996 46.6391 98.8582 46.7037 99.1168 46.7868C99.3447 46.8607 99.514 47.1563 99.4062 47.4241C98.9998 48.4155 99.1384 49.493 98.8705 50.5058C98.7505 50.9615 98.6704 51.4264 98.5565 51.882C98.3903 52.5408 98.341 53.2151 98.2517 53.8862C98.1809 54.428 98.0793 54.9668 98.0024 55.5086C97.9839 55.6441 97.9008 55.641 97.8084 55.6441C97.5098 55.6503 97.2081 55.6995 96.9156 55.6595C96.6108 55.6102 93.7446 55.5918 85.3799 55.638Z" fill="#00169A"/>
<path d="M63.1074 44.1763C61.4634 44.1763 59.8163 44.1763 58.1723 44.1763C57.4981 44.1763 57.2733 43.8684 57.378 43.1911C57.5935 41.7965 58.0091 40.4357 58.16 39.0318C58.3416 37.3355 58.8342 35.7007 59.0466 34.0137C59.1174 33.4441 59.1605 32.8653 59.296 32.3112C59.5238 31.3937 59.7516 30.4763 59.8224 29.5404C59.9025 28.4813 60.1765 27.4592 60.3858 26.434C60.629 25.2487 60.6875 24.0388 60.9862 22.8628C61.1832 22.087 61.3248 21.2834 61.4233 20.4799C61.5157 19.7133 61.7835 19.6641 62.3346 19.6672C65.6041 19.6795 68.8737 19.6856 72.1401 19.6641C72.839 19.661 73.0298 20.0304 72.9406 20.6739C72.8359 21.4281 72.6142 22.1516 72.4818 22.8967C72.1617 24.71 71.9184 26.5387 71.5305 28.3428C71.2904 29.4665 71.2535 30.6241 70.9764 31.7385C70.7516 32.6344 70.5977 33.5395 70.4592 34.4508C70.4007 34.8233 70.4315 35.2143 70.3206 35.5776C70.0374 36.5227 69.905 37.4987 69.7449 38.4623C69.5048 39.9062 69.2708 41.3501 68.9599 42.7847C68.9106 43.0125 68.9106 43.2527 68.8767 43.4866C68.8059 43.9761 68.5627 44.1824 68.064 44.1824C66.4169 44.1793 64.7606 44.1763 63.1074 44.1763Z" fill="#00169A"/>
<path d="M102.583 42.6607C100.034 42.6607 97.4848 42.6607 94.9327 42.6607C94.6956 42.6607 94.5201 42.6084 94.4 42.4945C94.2338 42.3313 94.2153 42.0912 94.2153 41.9526C94.1815 38.8032 95.9424 33.2863 95.9424 33.2863C95.964 33.2185 95.9886 32.9322 96.1733 32.6213C96.3581 32.3103 96.5028 31.9809 96.592 31.633C96.7398 31.0573 97.1893 30.6879 97.5095 30.2292C97.7835 29.8382 98.156 29.5919 98.5808 29.3856C99.5229 28.93 100.502 28.6837 101.53 28.9238C102.229 29.087 102.879 29.4041 103.267 30.0845C103.537 30.5617 103.932 30.6109 104.316 30.2138C104.658 29.8597 104.972 29.478 105.302 29.1147C106.102 28.2373 107.103 27.8093 108.288 27.7355C108.987 27.6924 109.652 27.8124 110.323 27.954C110.674 28.0249 110.905 28.2865 111.169 28.4959C111.52 28.7699 111.807 29.0808 112.038 29.4256C112.472 30.0722 112.626 30.7341 112.706 31.3098C113.047 33.7111 112.484 36.1617 111.998 38.2706C111.939 38.523 111.914 38.6216 111.859 38.874C111.388 41.0906 111.299 41.6971 111.299 41.6971C111.262 41.9496 111.222 42.2328 110.994 42.436C110.828 42.5868 110.588 42.6577 110.261 42.6607C109.119 42.6638 107.98 42.6638 106.838 42.6638C105.419 42.6638 103.999 42.6638 102.58 42.6638C102.583 42.6577 102.583 42.6607 102.583 42.6607ZM106.789 37.5994C107.22 37.5994 107.567 37.6056 107.918 37.5994C108.525 37.584 108.783 37.3254 108.842 36.722C108.891 36.2017 108.907 35.6722 109.113 35.1827C109.35 34.6132 109.276 34.0959 108.953 33.5756C108.451 32.766 107.497 32.5104 106.844 33.0492C106.576 33.2709 106.327 33.5172 106.068 33.7542C105.843 33.9636 105.714 34.2283 105.625 34.5177C105.403 35.2443 105.289 35.9955 105.04 36.7128C104.874 37.19 105.052 37.4578 105.548 37.5594C105.985 37.6518 106.428 37.5717 106.789 37.5994ZM100.022 37.6364C100.342 37.6364 100.597 37.6364 100.853 37.6364C100.862 37.6364 100.874 37.6364 100.884 37.6364C101.336 37.6271 101.543 37.4701 101.73 37.0607C101.903 36.6851 101.887 36.2818 101.949 35.8908C101.992 35.5983 102.094 35.3089 102.05 35.0134C101.933 34.2129 100.902 33.6711 100.173 34.0159C99.763 34.2068 99.3197 34.3823 99.1412 34.8348C98.8918 35.4721 98.6794 36.1248 98.47 36.7774C98.3469 37.1654 98.507 37.4332 98.8918 37.5625C99.2828 37.6949 99.6861 37.6087 100.022 37.6364Z" fill="#343434"/>
<path d="M111.292 19.6323C110.624 19.5954 110.224 19.5369 109.553 19.6323C109.297 19.6693 108.992 19.7308 108.614 19.8447C107.155 20.2912 106.262 21.0362 104.575 22.0183C104.113 22.2861 103.645 22.5447 103.645 22.5447C103.291 22.7418 103.038 22.8772 102.974 22.9111C102.192 23.3329 99.8951 24.7675 98.2972 25.4633C98.1433 25.531 97.817 25.6634 97.5861 25.5248C97.3798 25.3986 97.2782 25.1092 97.3367 24.7213C97.5183 23.5453 97.7431 22.3785 98.014 21.224C98.0879 20.913 98.2141 20.6483 98.3834 20.4205C98.756 19.931 99.2701 19.7462 99.4917 19.6662C99.4917 19.6662 103.223 18.3147 104.125 17.1817C104.181 17.1109 104.341 16.9139 104.285 16.7199C104.251 16.5968 104.15 16.4952 103.974 16.4244C103.325 16.1658 102.718 15.8148 102.161 15.4146C101.625 15.0297 101.019 14.7927 100.471 14.4417C100.172 14.2508 99.932 13.9984 99.6919 13.7459C99.4179 13.4596 99.5225 13.1271 99.6272 12.8193C99.8119 12.2744 99.8489 11.7048 99.9104 11.1414C99.9782 10.5103 100.067 9.88841 100.354 9.3127C100.6 8.82012 100.976 8.69697 101.471 8.93095C101.696 9.0387 101.896 9.17108 102.072 9.34964C102.17 9.45124 102.278 9.55591 102.404 9.62056C103.192 10.0208 103.817 10.6581 104.562 11.1106C105.649 11.7725 106.659 12.5514 107.743 13.2195C108.312 13.5705 108.882 13.9707 109.396 14.4171C109.673 14.6572 109.975 14.7465 110.326 14.7465C112.197 14.7465 114.069 14.7557 115.941 14.7465C116.178 14.7465 116.267 14.8081 116.261 15.0513C116.246 15.7594 116.304 16.4736 116.243 17.1786C116.126 18.5763 116.44 19.1921 116.027 19.4845C115.852 19.6077 115.565 19.66 115.519 19.6693C115.137 19.7401 114.83 19.6539 114.734 19.6323C113.949 19.4322 113.327 19.7462 111.292 19.6323Z" fill="#343434"/>
<path d="M67.8091 17.2047C66.1836 17.2047 64.5611 17.2047 62.9356 17.2047C62.7355 17.2047 62.5416 17.1893 62.3722 17.0847C62.0828 16.9061 62.0428 16.6167 62.1105 16.3242C62.4061 15.0651 62.4092 13.7566 62.7848 12.516C63.0988 11.4846 63.0988 10.4102 63.2712 9.36034C63.4097 8.51372 63.733 8.20585 64.595 8.20585C67.7014 8.20585 70.8046 8.20585 73.911 8.20585C74.0434 8.20585 74.1819 8.19354 74.3112 8.22125C74.8531 8.329 75.204 8.62147 75.0162 9.21257C74.5606 10.6411 74.5513 12.1465 74.1788 13.5873C73.9418 14.5048 73.8032 15.4314 73.7293 16.3766C73.6832 16.9461 73.3538 17.2047 72.7442 17.2078C71.1002 17.2078 69.4531 17.2047 67.8091 17.2047Z" fill="#00169A"/>
<path d="M20.8998 47.3432C20.9399 47.6172 20.7582 47.8696 20.7305 48.156C20.7059 48.4207 20.6412 48.6886 20.8537 48.9164C20.9306 48.9964 21.0045 49.0395 21.0784 49.0334C21.1431 49.0303 21.1892 48.9903 21.2662 48.9133C21.4909 48.7009 21.5433 48.6362 21.5433 48.6362C21.8204 48.2976 21.9589 48.1252 21.9743 48.1036C22.1313 47.8758 22.1436 47.8111 22.2945 47.5556C22.5623 47.1061 22.7101 46.8999 22.9225 46.7336C23.2335 46.4873 23.6922 46.4473 23.9569 46.6228C24.2002 46.786 24.2771 47.1616 24.1509 47.5833C23.9046 48.393 23.8707 49.2366 23.7784 50.0709C23.7538 50.2895 23.7691 50.5327 24.0093 50.6281C24.2494 50.7235 24.468 50.622 24.6466 50.4342C25.0837 49.9754 25.2623 49.4028 25.3824 48.8025C25.4809 48.3099 25.5024 47.805 25.6502 47.3216C25.8349 46.7213 26.1397 46.4812 26.7647 46.4504C27.3712 46.4227 27.9746 46.4381 28.578 46.512C29.1537 46.5828 29.4061 47.023 29.2553 47.6818C29.1445 48.159 28.932 48.6085 28.8889 49.1103C28.8489 49.6214 28.7381 50.1232 28.7196 50.6373C28.7042 51.1053 28.4579 51.3885 28.0854 51.4039C27.6328 51.4224 27.3465 51.1238 27.4943 50.702C27.7529 49.9693 27.8022 49.1965 27.9807 48.4515C28.107 47.922 27.9222 47.5556 27.5097 47.4756C27.0479 47.3863 26.6477 47.6695 26.5584 48.1652C26.4722 48.6393 26.4075 49.1165 26.3183 49.5875C26.189 50.2771 25.7025 50.7451 25.2253 51.1853C24.8128 51.5671 24.3079 51.4655 23.8553 51.1884C23.6614 51.0684 23.4921 51.0837 23.3074 51.1792C23.2519 51.2069 23.1996 51.2438 23.138 51.2562C22.9379 51.2931 22.7224 51.367 22.5531 51.2007C22.393 51.0437 22.4299 50.8221 22.5069 50.6497C22.6731 50.2618 22.747 49.8677 22.7193 49.449C22.7101 49.332 22.7009 49.2181 22.5869 49.1596C22.5654 49.1473 22.5469 49.1473 22.5223 49.1442C22.4145 49.1319 22.3253 49.1811 22.2822 49.2089C22.0944 49.3228 21.9497 49.4859 21.9497 49.4859C21.7526 49.7107 21.5833 49.6429 21.4725 49.9015C21.2693 50.3757 20.9122 50.7328 20.6135 51.1361C20.3888 51.4409 20.0748 51.5733 19.693 51.4932C19.2928 51.4101 19.0711 51.0714 19.1666 50.6651C19.2281 50.3972 19.3205 50.1324 19.4036 49.8708C19.6776 49.018 19.7823 48.1498 19.6099 47.2693C19.5514 46.9676 19.6776 46.826 19.9085 46.709C20.4658 46.4381 20.906 46.7059 20.8998 47.3432Z" fill="#343434"/>
<path d="M107.079 51.71C106.626 51.71 106.173 51.6915 105.724 51.7131C104.985 51.7531 104.677 51.2513 104.887 50.6417C105.191 49.7612 105.308 48.853 105.487 47.9541C105.536 47.7016 105.598 47.4553 105.699 47.2183C105.826 46.9196 106.053 46.7472 106.367 46.7719C107.423 46.8519 108.479 46.7903 109.535 46.8303C109.8 46.8396 109.917 46.9319 109.988 46.9874C110.622 47.4799 109.908 48.7576 109.674 50.7618C109.652 50.9373 109.6 51.2728 109.36 51.4822C109.19 51.63 108.947 51.6915 108.584 51.7038C108.562 51.7038 108.544 51.7038 108.522 51.7038C108.039 51.7038 107.559 51.7038 107.075 51.7038C107.079 51.7069 107.079 51.71 107.079 51.71Z" fill="#343434"/>
<path d="M7.99257 50.8667C7.98333 50.7282 8.0172 50.5681 8.06646 50.4111C8.09724 50.3157 8.11571 50.211 8.11879 50.1094C8.12187 49.9247 8.13111 49.6907 7.94639 49.6199C7.90329 49.6045 7.86634 49.6014 7.83248 49.6076C7.66931 49.6384 7.57079 49.8415 7.53693 49.9154C7.53693 49.9154 6.97969 51.113 6.52405 51.4486C6.4748 51.4855 6.33934 51.5841 6.22543 51.541C6.17617 51.5225 6.14538 51.4825 6.13615 51.4671C5.79134 50.996 5.8837 51.2208 5.68358 50.8729C5.43729 50.4388 5.44653 50.3649 5.2926 50.2356C5.21871 50.174 5.07401 50.054 4.917 50.0878C4.86466 50.1001 4.71381 50.1186 4.62145 50.408C4.53833 50.6697 4.5137 50.9529 4.35977 51.1931C4.18121 51.4732 3.87026 51.5933 3.59318 51.4825C3.35613 51.387 3.23914 51.1007 3.28224 50.7775C3.37768 50.057 3.57471 49.3644 3.89181 48.7117C4.07037 48.3453 4.12271 47.9482 4.17505 47.5541C4.1966 47.3786 4.22739 47.2124 4.28588 47.0461C4.44289 46.5967 4.76923 46.3811 5.22487 46.4335C5.67435 46.4858 5.93603 46.7721 5.98529 47.2555C6.02531 47.6434 6.01608 48.0344 6.10536 48.4161C6.21003 48.8718 6.36089 48.8995 6.7765 48.6871C7.30603 48.4161 7.45073 47.9205 7.63852 47.431C7.86634 46.8429 8.33738 46.4704 8.82996 46.4766C9.21171 46.4797 9.47032 46.7136 9.50418 47.0892C9.5165 47.2339 9.49803 47.3725 9.46416 47.5172C9.25789 48.45 9.17169 49.3982 9.20248 50.3557C9.20863 50.5496 9.20248 50.7436 9.15322 50.9375C9.03931 51.3778 8.68834 51.5748 8.26041 51.424C8.04491 51.3408 7.98949 51.23 7.99257 50.8667Z" fill="#343434"/>
<path d="M36.3988 51.5821C36.0601 51.5759 35.7246 51.5759 35.3859 51.5266C34.8379 51.4466 34.5793 51.0987 34.7486 50.5723C34.9949 49.8088 35.1366 49.0237 35.2874 48.2417C35.3367 47.98 35.3428 47.7122 35.3736 47.4474C35.4537 46.764 35.703 46.5054 36.4019 46.4715C37.0576 46.4376 37.7134 46.4869 38.363 46.5946C38.757 46.6593 39.0618 46.8717 39.1696 47.2966C39.2342 47.5521 39.1757 47.7615 38.9941 47.9431C38.8925 48.0447 38.7909 48.1463 38.6893 48.2479C38.443 48.4942 38.3814 48.8605 38.5323 49.1746C38.5446 49.2023 38.5569 49.23 38.5754 49.2546C39.422 50.3537 38.5692 51.1357 37.621 51.4712C37.2208 51.6067 36.8083 51.5851 36.3988 51.5821ZM36.6359 50.4953C37.0515 50.4984 37.4024 50.1628 37.4178 49.7503C37.4271 49.467 37.2085 49.2792 36.8637 49.2761C36.4788 49.2731 36.1556 49.621 36.1525 50.0397C36.1494 50.3321 36.3218 50.4922 36.6359 50.4953ZM36.9591 48.254C37.384 48.254 37.6641 48.0878 37.6703 47.8323C37.6764 47.5891 37.3901 47.3274 37.1161 47.3274C36.7805 47.3243 36.4881 47.5767 36.4881 47.8723C36.4819 48.1278 36.6389 48.254 36.9591 48.254Z" fill="#343434"/>
<path d="M12.9393 46.5601C13.4842 46.5816 13.7552 46.5939 14.0138 46.7294C14.334 46.8956 14.5279 47.1635 14.6295 47.3051C14.6295 47.3051 14.765 47.4929 14.8542 47.6961C15.1221 48.2933 14.9835 49.3401 14.4509 50.1805C14.2878 50.4392 13.9522 50.9625 13.2841 51.2981C12.6715 51.606 11.948 51.6798 11.2338 51.4736C10.4764 51.255 10.1193 50.4238 10.0608 49.8234C10.0362 49.5771 10.07 49.3709 10.1347 48.9891C10.1993 48.6012 10.2609 48.2441 10.4826 47.85C10.7258 47.419 11.0521 47.1819 11.1414 47.0804C11.4708 46.7078 11.908 46.5908 12.3821 46.5662C12.5391 46.5539 12.6715 46.5508 12.9393 46.5601ZM13.8722 48.6782C13.8752 48.0347 13.5551 47.7207 13.0286 47.536C12.5607 47.3728 12.1296 47.4929 11.8125 47.9362C11.6247 48.1979 11.5108 48.515 11.3354 48.789C11.0829 49.1831 11.0767 49.5802 11.2923 49.9774C11.5016 50.3622 11.8372 50.5962 12.2805 50.6054C12.7023 50.6146 13.1795 50.3868 13.3549 50.002" fill="#343434"/>
<path d="M32.6971 46.5096C33.1035 46.4542 33.5745 46.5158 33.9317 46.913C34.3534 47.3809 34.3442 47.9812 34.338 48.1814C34.3319 48.4523 34.3257 48.677 34.1656 48.8648C34.061 48.988 33.904 49.0803 33.5006 49.145C32.7187 49.2712 32.5093 49.0495 31.8874 49.1727C31.6042 49.2281 31.1209 49.3235 31.0162 49.6529C30.9115 49.9824 31.2194 50.4318 31.5457 50.5796C31.8043 50.6966 32.0752 50.7305 32.3585 50.6751C32.5801 50.632 32.808 50.6166 33.0265 50.6935C33.3775 50.8136 33.4391 51.1307 33.1712 51.377C32.9957 51.5371 32.7772 51.5586 32.5678 51.574C32.066 51.614 31.5611 51.6017 31.0624 51.5186C30.773 51.4724 30.5698 51.2846 30.3789 51.0753C29.7447 50.3857 29.6985 49.5452 29.8494 48.7016C29.9417 48.1998 30.2989 47.7842 30.6344 47.3963C30.8561 47.1438 31.0747 46.876 31.3671 46.6974C31.7551 46.4665 32.183 46.5189 32.6971 46.5096ZM32.4139 47.2793C32.1799 47.2885 32.0106 47.3224 31.8474 47.3901C31.3702 47.5872 31.3056 48.0921 31.712 48.4092C32.0444 48.6678 32.9403 48.4584 33.1097 48.0736C33.1589 47.9597 33.1743 47.8181 33.0943 47.7196C32.9065 47.4887 32.6879 47.2885 32.4139 47.2793Z" fill="#343434"/>
<path d="M15.4329 50.8082C15.4175 50.6973 15.4606 50.5803 15.5037 50.4633C15.8269 49.6013 15.907 48.687 16.0394 47.788C16.1102 47.3108 16.1871 46.8521 16.6705 46.5966C16.9199 46.4642 17.1908 46.4827 17.4525 46.4549C17.788 46.418 18.1298 46.4396 18.4684 46.4426C18.607 46.4426 18.727 46.5134 18.8379 46.5873C19.1426 46.7936 19.1396 47.1045 18.8379 47.3139C18.6501 47.4432 18.4438 47.4863 18.2221 47.4617C17.4956 47.3816 17.0184 47.828 16.9168 48.5022C16.8121 49.1795 16.7044 49.8569 16.6489 50.5403C16.6366 50.6942 16.6151 50.8451 16.5658 50.9929C16.455 51.3346 16.2302 51.5008 15.9378 51.4577C15.6237 51.4177 15.436 51.1807 15.4329 50.8082Z" fill="#343434"/>
<path d="M46.3701 17.2093C46.3701 17.2063 46.3701 17.2063 46.3701 17.2093C46.5332 17.2093 46.6995 17.2063 46.8627 17.2093C47.5061 17.2124 47.777 17.5511 47.6477 18.1791C47.4876 18.9611 47.3245 19.74 47.1736 20.525C47.1213 20.796 47.1028 21.073 47.0535 21.344C46.9827 21.7411 46.721 22.0367 46.3239 22.0736C45.7944 22.1229 45.2556 22.1444 44.7292 22.0613C44.2458 21.9843 44.0734 21.7565 44.1965 21.2824C44.3813 20.5651 44.3412 19.8139 44.5568 19.1058C44.6737 18.721 44.723 18.33 44.7538 17.9328" fill="#FEFEFE"/>
<path d="M98.4688 36.7735C98.6781 36.1209 98.8905 35.4682 99.1399 34.8309C99.3185 34.3783 99.7618 34.2029 100.171 34.012C100.904 33.6672 101.932 34.209 102.049 35.0095C102.092 35.305 101.991 35.5975 101.948 35.8869C101.889 36.2779 101.901 36.6812 101.729 37.0568C101.541 37.4662 101.335 37.6263 100.882 37.6325C100.873 37.6325 100.861 37.6325 100.852 37.6325C100.596 37.6325 100.337 37.6325 100.02 37.6325" fill="#FEFEFE"/>
<path d="M36.9585 48.2559C36.6384 48.2559 36.4813 48.1297 36.4844 47.8711L36.9585 48.2559Z" fill="#FEFEFE"/>
<path d="M31.7154 48.4072C31.306 48.0901 31.3706 47.5852 31.8509 47.3882C32.011 47.3235 32.1834 47.2866 32.4174 47.2773C32.6914 47.2835 32.91 47.4836 33.1008 47.7145" fill="#FEFEFE"/>
</svg>
