<svg width="200" height="38" viewBox="0 0 200 38" fill="none" xmlns="http://www.w3.org/2000/svg">
<path fill-rule="evenodd" clip-rule="evenodd" d="M194.319 22.5223H191.551V19.4351L194.616 19.437L194.879 19.45L194.889 19.4506L194.9 19.4518L194.911 19.4524L194.922 19.4537L194.933 19.4549L194.945 19.4562L194.956 19.4574L194.967 19.4586L194.978 19.4599L194.989 19.4611L195 19.4623L195.011 19.4636L195.022 19.4648L195.034 19.4661L195.045 19.4673L195.056 19.4685L195.067 19.4698L195.078 19.471L195.089 19.4722L195.1 19.4735L195.112 19.4747L195.123 19.476L195.134 19.4778L195.145 19.479L195.156 19.4803L195.167 19.4821L195.178 19.4834L195.189 19.4852L195.201 19.4871L195.212 19.4889L195.223 19.4908L195.232 19.492L195.443 19.5366L195.632 19.5922L195.8 19.659L195.947 19.7364L196.076 19.8236L196.187 19.9207L196.281 20.0283L196.362 20.1477L196.428 20.2807L196.48 20.4291L196.519 20.5943L196.542 20.7774L196.55 20.9784L196.542 21.2029L196.518 21.4033L196.479 21.5796L196.425 21.7336L196.357 21.8672L196.276 21.9835L196.18 22.0856L196.066 22.1765L195.932 22.2569L195.775 22.3274L195.594 22.3874L195.389 22.4363L195.158 22.474L195.147 22.4753L195.134 22.4765L195.122 22.4777L195.11 22.479L195.097 22.4802L195.085 22.4814L195.073 22.4827L195.06 22.4839L195.048 22.4852L195.035 22.4864L195.023 22.4876L195.011 22.4889L194.998 22.4901L194.986 22.4913L194.974 22.4926L194.961 22.4938L194.949 22.4951L194.937 22.4963L194.924 22.4969L194.912 22.4981L194.899 22.4994L194.887 22.5L194.875 22.5012L194.862 22.5019L194.85 22.5025L194.838 22.5031L194.825 22.5043L194.813 22.5049L194.8 22.5056L194.788 22.5062L194.776 22.5068L194.764 22.5074L194.751 22.508L194.737 22.5087L194.723 22.5093L194.708 22.5099L194.694 22.5105L194.68 22.5111L194.666 22.5118L194.651 22.5124L194.637 22.513L194.623 22.5136L194.609 22.5142L194.595 22.5148L194.58 22.5155L194.566 22.5161L194.552 22.5167L194.538 22.5173L194.523 22.5179L194.509 22.5186L194.495 22.5192H194.481L194.467 22.5198H194.452L194.438 22.5204H194.424H194.41L194.395 22.521H194.381H194.367H194.353H194.339H194.324L194.319 22.5223ZM194.612 25.2408L194.645 25.2401L194.677 25.2395L194.71 25.2389L194.742 25.2383L194.774 25.2377L194.807 25.237L194.839 25.2364L194.871 25.2358L194.904 25.2352L194.936 25.2346L194.969 25.234L195.001 25.2333L195.033 25.2327L195.066 25.2321L195.098 25.2309L195.13 25.2302L195.163 25.2296L195.195 25.2284L195.227 25.2271L195.26 25.2259L195.292 25.2247L195.325 25.2234L195.357 25.2222L195.39 25.221L195.422 25.2197L195.455 25.2185L195.487 25.2173L195.52 25.2154L195.552 25.2135L195.573 25.2123L195.594 25.2111L195.614 25.2098L195.635 25.2086L195.656 25.2074L195.677 25.2061L195.697 25.2049L195.717 25.2036L195.738 25.2024L195.759 25.2012L195.779 25.1993L195.8 25.1981L195.82 25.1968L195.841 25.195L195.862 25.1931L195.882 25.1913L195.902 25.1894L195.923 25.1876L195.943 25.1857L195.964 25.1839L195.985 25.182L196.005 25.1801L196.025 25.1783L196.046 25.1764L196.066 25.1746L196.087 25.1727L196.108 25.1709L196.128 25.169L196.148 25.1665L196.169 25.1647L196.189 25.1628L196.21 25.1603L196.226 25.1585L196.241 25.1566L196.255 25.1548L196.27 25.1529L196.285 25.1511L196.3 25.1492L196.315 25.1474L196.33 25.1455L196.345 25.1436L196.36 25.1418L196.375 25.1399L196.39 25.1381L196.404 25.1362L196.419 25.1344L196.434 25.1319L196.449 25.13L196.464 25.1282L196.479 25.1257L196.493 25.1239L196.508 25.1214L196.523 25.1189L196.538 25.1164L196.553 25.114L196.568 25.1115L196.583 25.109L196.597 25.1065L196.612 25.1041L196.627 25.1016L196.642 25.0991L196.657 25.0966L196.672 25.0942L196.687 25.0917L196.701 25.0892L196.715 25.0867L196.729 25.0843L196.743 25.0818L196.757 25.0793L196.77 25.0768L196.785 25.0744L196.798 25.0719L196.812 25.0694L196.826 25.0669L196.84 25.0645L196.853 25.062L196.868 25.0595L196.881 25.057L196.895 25.054L196.908 25.0515L196.923 25.0484L196.936 25.0453L196.95 25.0428L196.963 25.0397L196.977 25.0366L196.991 25.0335L197.004 25.0305L197.018 25.0274L197.031 25.0243L197.045 25.0212L197.059 25.0181L197.072 25.015L197.086 25.0119L197.099 25.0088L197.113 25.0057L197.127 25.002L197.138 24.9995L197.147 24.9971L197.157 24.9946L197.166 24.9921L197.175 24.9896L197.185 24.9872L197.203 24.9822L197.214 24.9797L197.223 24.9773L197.233 24.9748L197.242 24.9723L197.252 24.9698L197.261 24.9674L197.27 24.9649L197.279 24.9624L197.289 24.9599L197.298 24.9575L197.307 24.955L197.316 24.9525L197.326 24.95L197.335 24.9476L197.344 24.9451L197.354 24.942L197.363 24.9395L197.372 24.9364L197.381 24.9333L197.391 24.9309L197.4 24.9278L197.409 24.9247L197.419 24.9216L197.429 24.9185L197.439 24.9148L197.448 24.9117L197.457 24.9086L197.466 24.9055L197.475 24.9024L197.485 24.8993L197.493 24.8962L197.503 24.8931L197.511 24.89L197.521 24.8869L197.529 24.8839L197.538 24.8808L197.547 24.8777L197.556 24.8746L197.564 24.8715L197.574 24.8684L197.582 24.8653L197.592 24.8622L197.6 24.8591L197.609 24.856L197.618 24.8529L197.627 24.8498L197.636 24.8461L197.644 24.843L197.653 24.8393L197.661 24.8362L197.67 24.8325L197.679 24.8288L197.688 24.8251L197.697 24.8214L197.705 24.8177L197.716 24.8133L197.894 24.7323L197.903 24.7274L197.911 24.723L197.919 24.7187L197.927 24.7144L197.934 24.71L197.942 24.7057L197.95 24.7014L197.958 24.6971L197.966 24.6927L197.973 24.6884L197.981 24.6841L197.989 24.6797L197.997 24.6754L198.004 24.6711L198.011 24.6668L198.019 24.6624L198.026 24.6581L198.034 24.6538L198.041 24.6494L198.049 24.6451L198.056 24.6408L198.063 24.6364L198.071 24.6321L198.078 24.6278L198.086 24.6234L198.093 24.6191L198.101 24.6148L198.108 24.6105L198.115 24.6061L198.123 24.6018L198.13 24.5975L198.139 24.5919L198.356 24.4459L198.56 24.2882L198.752 24.1187L198.949 23.9319L199.115 23.7396L199.267 23.5361L199.405 23.3227L199.529 23.0987L199.639 22.8649L199.734 22.6219L199.815 22.3695L199.882 22.1078L199.934 21.8375L199.971 21.5592L199.993 21.2734L199.994 21.2586L199.994 21.245L199.995 21.2314L199.996 21.2178L199.996 21.2042L199.997 21.1905L199.998 21.1769L199.998 21.1633L199.999 21.1497L199.999 21.1361V21.1225L200 21.1089V21.0953L200.001 21.0817V21.0681V21.0545V21.0409V21.0273V21.0136V21V20.9864V20.9728V20.9592V20.9456V20.932V20.9184V20.9048V20.8912V20.8776V20.864V20.8504V20.8361L200 20.8225L199.999 20.8095L199.999 20.7965L199.998 20.7835L199.998 20.7706L199.997 20.7576L199.996 20.7446L199.996 20.7322L199.995 20.7192L199.994 20.7062L199.994 20.6932L199.993 20.6803L199.993 20.6679L199.992 20.6549L199.991 20.6419L199.991 20.6289L199.99 20.6165L199.99 20.6036L199.988 20.5918L199.987 20.5788L199.986 20.5664L199.986 20.5535L199.985 20.5405L199.985 20.5281L199.984 20.5151L199.983 20.5021L199.983 20.4891L199.982 20.4761L199.982 20.4638L199.981 20.4508L199.98 20.4378L199.98 20.4242L199.978 20.4112L199.977 20.3988L199.976 20.3864L199.975 20.3741L199.973 20.3617L199.972 20.3493L199.971 20.337L199.97 20.3246L199.969 20.3122L199.967 20.2998L199.966 20.2875L199.965 20.2751L199.964 20.2627L199.962 20.2504L199.961 20.238L199.96 20.2256L199.959 20.2133L199.957 20.2009L199.956 20.1885L199.954 20.1761L199.952 20.1638L199.951 20.1514L199.949 20.139L199.947 20.1267L199.946 20.1143L199.944 20.1019L199.942 20.0895L199.94 20.0772L199.938 20.0648L199.936 20.0524L199.934 20.0401L199.933 20.0271L199.93 20.0147L199.928 20.003L199.926 19.9912L199.924 19.9794L199.922 19.9677L199.92 19.9559L199.917 19.9442L199.915 19.9324L199.913 19.9207L199.91 19.9089L199.908 19.8972L199.905 19.8854L199.903 19.8737L199.9 19.8619L199.898 19.8502L199.896 19.839L199.893 19.8273L199.891 19.8155L199.888 19.8038L199.886 19.792L199.883 19.7803L199.881 19.7691L199.878 19.7574L199.876 19.7456L199.873 19.7339L199.871 19.7221L199.868 19.711L199.866 19.6992L199.863 19.6875L199.861 19.6757L199.858 19.6646L199.856 19.6522L199.853 19.6399L199.85 19.6287L199.847 19.6176L199.844 19.6065L199.84 19.5953L199.837 19.5842L199.834 19.5731L199.831 19.5619L199.828 19.5508L199.825 19.5397L199.822 19.5285L199.819 19.5174L199.816 19.5063L199.813 19.4951L199.81 19.484L199.807 19.4729L199.803 19.4617L199.8 19.4506L199.797 19.4395L199.794 19.4283L199.791 19.4172L199.788 19.4061L199.785 19.3949L199.782 19.3838L199.779 19.3727L199.775 19.3615L199.772 19.3504L199.768 19.3393L199.764 19.3281L199.761 19.317L199.758 19.3059L199.753 19.2935L199.67 19.0708L199.665 19.0591L199.661 19.0485L199.656 19.0386L199.652 19.0288L199.648 19.0189L199.643 19.009L199.639 18.9991L199.635 18.9892L199.63 18.9793L199.623 18.9836L199.619 18.9737L199.615 18.9638L199.61 18.9539L199.606 18.944L199.602 18.9341L199.598 18.9242L199.593 18.9143L199.588 18.9044L199.584 18.8945L199.579 18.8846L199.574 18.8747L199.57 18.8648L199.565 18.8549L199.56 18.845L199.555 18.8351L199.55 18.8252L199.545 18.8154L199.54 18.8055L199.535 18.7956L199.53 18.7857L199.525 18.7758L199.52 18.7646L199.404 18.5648L199.276 18.3737L199.135 18.1925L198.982 18.0205L198.816 17.8591L198.638 17.7075L198.447 17.5653L198.233 17.4255L198.015 17.3018L197.793 17.1942L197.781 17.1892L197.77 17.1849L197.76 17.1805L197.749 17.1762L197.739 17.1719L197.728 17.1676L197.718 17.1632L197.707 17.1589L197.697 17.1546L197.686 17.1502L197.676 17.1459L197.665 17.1416L197.655 17.1373L197.644 17.1329L197.634 17.1286L197.623 17.1243L197.613 17.1199L197.602 17.1156L197.592 17.1113L197.581 17.1069L197.571 17.1026L197.559 17.0983L197.549 17.094L197.538 17.0896L197.527 17.0859L197.517 17.0816L197.506 17.0773L197.495 17.0729L197.484 17.0692L197.474 17.0649L197.462 17.0612L197.451 17.0568L197.439 17.0531L197.428 17.0494L197.417 17.0457L197.406 17.042L197.394 17.0383L197.383 17.0346L197.372 17.0309L197.361 17.0272L197.35 17.0234L197.339 17.0203L197.328 17.0166L197.316 17.0135L197.305 17.0105L197.294 17.0074L197.283 17.0043L197.272 17.0012L197.261 16.9981L197.25 16.995L197.239 16.9919L197.227 16.9888L197.216 16.9857L197.205 16.9826L197.194 16.9795L197.183 16.9764L197.172 16.9733L197.161 16.9702L197.15 16.9672L197.138 16.9641L197.127 16.961L197.116 16.9579L197.105 16.9548L197.093 16.9517L197.081 16.9486L197.07 16.9461L197.059 16.9436L197.048 16.9412L197.036 16.9387L197.025 16.9362L197.014 16.9338L197.003 16.9313L196.992 16.9288L196.981 16.9263L196.97 16.9239L196.958 16.9214L196.947 16.9189L196.936 16.9164L196.925 16.914L196.914 16.9115L196.903 16.909L196.892 16.9065L196.881 16.9041L196.869 16.9016L196.858 16.8991L196.847 16.8966L196.836 16.8942L196.825 16.8917L196.814 16.8892L196.803 16.8867L196.792 16.8843L196.78 16.8818L196.769 16.8793L196.758 16.8768L196.747 16.8744L196.735 16.8719L196.719 16.8694L196.703 16.8669L196.688 16.8645L196.672 16.862L196.657 16.8595L196.641 16.8571L196.626 16.8546L196.61 16.8521L196.595 16.8496L196.579 16.8472L196.564 16.8447L196.549 16.8422L196.533 16.8397L196.518 16.8373L196.502 16.8348L196.487 16.8323L196.471 16.8298L196.456 16.8274L196.44 16.8255L196.425 16.823L196.409 16.8206L196.394 16.8187L196.378 16.8162L196.363 16.8144L196.348 16.8125L196.332 16.8107L196.317 16.8088L196.301 16.8069L196.286 16.8051L196.27 16.8032L196.255 16.8014L196.239 16.7995L196.226 16.7983L196.214 16.7971L196.202 16.7958L196.19 16.7946L196.178 16.7933L196.165 16.7921L196.153 16.7909L196.141 16.7896L196.129 16.7884L196.117 16.7872L196.105 16.7859L196.092 16.7847L196.08 16.7834L196.068 16.7822L196.056 16.781L196.032 16.7791L196.019 16.7779L196.007 16.7766L195.994 16.776L195.983 16.7748L195.97 16.7742L195.958 16.7729L195.946 16.7723L195.934 16.7711L195.922 16.7705L195.909 16.7698L195.897 16.7692L195.885 16.7686L195.873 16.768L195.86 16.7674L195.847 16.7667L195.803 16.7643L195.76 16.7618L195.717 16.7593L195.674 16.7568L195.63 16.755L195.587 16.7531L195.544 16.7513L195.5 16.7494L195.457 16.7476L195.414 16.7463L195.371 16.7451L195.327 16.7439L195.284 16.7426L195.241 16.7414L195.197 16.7401L195.154 16.7395L195.111 16.7389L195.068 16.7383L195.024 16.7377L194.981 16.7371L194.938 16.7364L194.894 16.7358L194.851 16.7352L194.808 16.7346L194.765 16.734L194.721 16.7333H194.678H194.635H194.591H194.548H194.505H194.462H191.554V12.4462H188.401V25.2432L194.517 25.2426L194.549 25.242H194.582L194.612 25.2408ZM180.502 15.1307V25.242H183.742V15.1307H187.784V12.4623H176.475V15.1307H180.502ZM162.647 13.0883L162.387 13.2225L162.139 13.3703L161.903 13.5318L161.679 13.7068L161.467 13.8955L161.268 14.0971L161.082 14.3124L160.909 14.5412L160.748 14.7825L160.6 15.0367L160.465 15.3039L160.342 15.5841L160.231 15.8767L160.133 16.1816L160.046 16.4995L159.972 16.8298L159.91 17.1725L159.859 17.5282L159.82 17.8968L159.792 18.2778L159.775 18.6719L159.769 19.0789L159.777 19.4976L159.8 19.9021L159.837 20.2937L159.891 20.671L159.959 21.0353L160.043 21.386L160.144 21.7231L160.26 22.046L160.392 22.3553L160.541 22.6503L160.706 22.9317L160.888 23.199L161.086 23.4513L161.3 23.6888L161.531 23.9115L161.777 24.1181L162.016 24.2962L162.255 24.4552L162.494 24.5962L162.734 24.7199L162.746 24.7261L162.757 24.7311L162.768 24.736L162.779 24.741L162.791 24.7459L162.802 24.7509L162.813 24.7558L162.824 24.7608L162.835 24.7657L162.846 24.7707L162.857 24.7756L162.869 24.7806L162.88 24.7855L162.891 24.7905L162.902 24.7954L162.913 24.8004L162.924 24.8053L162.935 24.8102L162.946 24.8152L162.958 24.8201L162.969 24.8251L162.98 24.8294L162.991 24.8344L163.002 24.8393L163.013 24.8437L163.024 24.8486L163.035 24.8529L163.047 24.8573L163.058 24.8616L163.069 24.8659L163.081 24.8702L163.093 24.8752L163.105 24.8795L163.116 24.8839L163.128 24.8882L163.139 24.8925L163.15 24.8968L163.161 24.9012L163.172 24.9055L163.183 24.9092L163.194 24.9135L163.206 24.9173L163.217 24.9216L163.228 24.9253L163.239 24.929L163.25 24.9327L163.261 24.9364L163.272 24.9401L163.283 24.9439L163.295 24.9476L163.306 24.9513L163.317 24.955L163.329 24.9587L163.34 24.9624L163.351 24.9661L163.363 24.9698L163.374 24.9735L163.385 24.9773L163.397 24.981L163.408 24.9847L163.42 24.9884L163.432 24.9921L163.444 24.9958L163.456 24.9995L163.468 25.0032L163.48 25.0063L163.492 25.0094L163.504 25.0125L163.515 25.0156L163.527 25.0187L163.538 25.0218L163.55 25.0249L163.562 25.028L163.573 25.0311L163.585 25.0342L163.597 25.0373L163.609 25.0403L163.62 25.0434L163.632 25.0465L163.644 25.0496L163.656 25.0527L163.667 25.0552L163.679 25.0583L163.691 25.0608L163.703 25.0639L163.714 25.0663L163.726 25.0688L163.738 25.0713L163.75 25.0737L163.761 25.0762L163.773 25.0787L163.785 25.0812L163.797 25.0836L163.808 25.0861L163.82 25.0886L163.833 25.0911L163.845 25.0935L163.857 25.096L163.868 25.0985L163.88 25.101L163.892 25.1034L163.904 25.1059L163.915 25.1084L163.927 25.1109L163.939 25.1133L163.951 25.1158L163.962 25.1183L163.974 25.1201L163.986 25.1226L163.998 25.1251L164.009 25.1269L164.021 25.1294L164.033 25.1313L164.045 25.1331L164.056 25.135L164.068 25.1375L164.08 25.1393L164.092 25.1412L164.103 25.143L164.115 25.1449L164.127 25.1467L164.139 25.1486L164.15 25.1504L164.162 25.1523L164.174 25.1542L164.186 25.156L164.197 25.1579L164.21 25.1597L164.223 25.1616L164.235 25.1634L164.247 25.1653L164.259 25.1665L164.271 25.1684L164.283 25.1702L164.295 25.1715L164.307 25.1727L164.319 25.174L164.331 25.1758L164.343 25.177L164.355 25.1783L164.367 25.1795L164.379 25.1808L164.391 25.182L164.403 25.1832L164.416 25.1845L164.427 25.1857L164.44 25.1869L164.451 25.1882L164.463 25.1894L164.476 25.1907L164.487 25.1919L164.5 25.1931L164.512 25.1944L164.524 25.1956L164.536 25.1968L164.549 25.1981L164.56 25.1993L164.573 25.2006L164.584 25.2018L164.597 25.203L164.623 25.2055L164.648 25.2074L164.673 25.2092L164.698 25.2111L164.724 25.2129L164.748 25.2148L164.774 25.2166L164.798 25.2185L164.824 25.2203L164.848 25.2222L164.873 25.2234L164.898 25.2247L164.923 25.2259L164.948 25.2271L164.973 25.2284L164.998 25.2296L165.023 25.2309L165.048 25.2321L165.073 25.2333L165.098 25.2346L165.123 25.2358L165.148 25.2364L165.172 25.237L165.198 25.2383L165.223 25.2389L165.248 25.2395L165.273 25.2401L165.298 25.2408L165.323 25.2414L165.348 25.242L165.373 25.2426L165.399 25.2432L165.436 25.2438L165.474 25.2445L165.511 25.2451L165.548 25.2457L165.585 25.2463L165.622 25.2469L165.659 25.2476H165.696H165.733H165.77H165.807H165.845H165.882H165.919H165.956H165.993H166.03H166.067H166.104H166.141H166.178H166.216H166.253H166.29H166.327H166.4H166.439H166.475H166.512H166.514V25.7127H169.665V25.2476H169.684H169.729H169.775H169.82H169.865H169.91H169.956H170.001H170.046H170.092H170.137H170.183H170.228H170.274H170.319H170.365L170.41 25.2469H170.455L170.501 25.2463L170.547 25.2457L170.593 25.2451L170.638 25.2445L170.684 25.2438L170.729 25.2432L170.775 25.2426L170.821 25.242L170.867 25.2408L170.912 25.2395L170.958 25.2383L171.004 25.237L171.05 25.2358L171.071 25.2346L171.091 25.234L171.112 25.2333L171.133 25.2321L171.153 25.2309L171.173 25.2296L171.194 25.2284L171.215 25.2271L171.235 25.2259L171.256 25.2247L171.276 25.2234L171.296 25.2222L171.317 25.221L171.337 25.2197L171.358 25.2185L171.378 25.2173L171.398 25.216L171.419 25.2148L171.439 25.2135L171.46 25.2117L171.48 25.2104L171.5 25.2086L171.521 25.2067L171.541 25.2049L171.562 25.203L171.582 25.2012L171.602 25.1993L171.623 25.1975L171.643 25.1956L171.664 25.1937L171.685 25.1919L171.706 25.19L171.719 25.1888L171.73 25.1876L171.743 25.1863L171.755 25.1851L171.766 25.1839L171.778 25.1826L171.79 25.1814L171.802 25.1801L171.813 25.1789L171.826 25.177L171.837 25.1758L171.849 25.174L171.861 25.1727L171.873 25.1709L171.892 25.169L171.904 25.1671L171.916 25.1659L171.928 25.1641L171.939 25.1622L171.951 25.1603L171.963 25.1585L171.975 25.1566L171.986 25.1548L171.998 25.1529L172.01 25.1511L172.022 25.1492L172.033 25.1474L172.045 25.1455L172.057 25.1436L172.069 25.1418L172.08 25.1399L172.093 25.1381L172.106 25.1356L172.118 25.1331L172.13 25.1313L172.142 25.1288L172.153 25.1263L172.165 25.1239L172.177 25.1214L172.189 25.1189L172.2 25.1164L172.212 25.114L172.224 25.1115L172.236 25.109L172.247 25.1065L172.259 25.1041L172.271 25.1016L172.283 25.0991L172.294 25.0966L172.306 25.0942L172.318 25.0917L172.33 25.0892L172.341 25.0867L172.353 25.0843L172.365 25.0818L172.377 25.0793L172.388 25.0768L172.4 25.0744L172.412 25.0719L172.424 25.0694L172.435 25.0669L172.447 25.0645L172.459 25.062L172.471 25.0595L172.484 25.0564L172.495 25.0533L172.507 25.0502L172.519 25.0472L172.531 25.0441L172.542 25.041L172.554 25.0379L172.566 25.0348L172.578 25.0317L172.589 25.0286L172.601 25.0255L172.613 25.0224L172.625 25.0193L172.636 25.0162L172.647 25.0131L172.659 25.01L172.67 25.0069L172.682 25.0039L172.694 25.0008L172.705 24.9977L172.716 24.9946L172.728 24.9915L172.74 24.9884L172.751 24.9847L172.762 24.9816L172.774 24.9785L172.785 24.9754L172.796 24.9717L172.808 24.968L172.819 24.9649L172.831 24.9612L172.843 24.9575L172.856 24.9531L172.868 24.9494L172.879 24.9457L172.89 24.942L172.902 24.9377L172.913 24.934L172.924 24.9302L172.936 24.9259L172.947 24.9216L172.958 24.9173L172.97 24.9129L172.981 24.9086L172.992 24.9043L173.003 24.8999L173.014 24.8956L173.025 24.8913L173.036 24.8869L173.048 24.8826L173.059 24.8783L173.07 24.874L173.081 24.8696L173.092 24.8653L173.103 24.861L173.114 24.8566L173.125 24.8523L173.137 24.848L173.148 24.8437L173.159 24.8393L173.17 24.835L173.181 24.8307L173.192 24.8263L173.205 24.8214L173.446 24.7138L173.687 24.5894L173.926 24.4484L174.165 24.2894L174.404 24.1113L174.65 23.9047L174.88 23.682L175.095 23.4445L175.293 23.1921L175.474 22.9249L175.64 22.6435L175.789 22.3485L175.921 22.0392L176.037 21.7163L176.137 21.3792L176.222 21.0285L176.291 20.6642L176.344 20.2869L176.382 19.8953L176.404 19.4908L176.412 19.072L176.406 18.665L176.39 18.271L176.362 17.89L176.322 17.5214L176.272 17.1657L176.209 16.823L176.135 16.4927L176.049 16.1748L175.951 15.8699L175.84 15.5773L175.717 15.2971L175.581 15.0299L175.434 14.7757L175.273 14.5344L175.1 14.3056L174.914 14.0903L174.715 13.8887L174.504 13.7L174.28 13.525L174.044 13.3635L173.795 13.2157L173.535 13.0815L173.263 12.9609L172.979 12.8532L172.683 12.7586L172.376 12.6776L172.057 12.6095L171.726 12.5539L171.384 12.5106L171.029 12.4803L170.663 12.4623L170.287 12.4561H169.664V11.9062H166.513V12.4561H165.89L165.514 12.4623L165.148 12.4803L164.793 12.5106L164.451 12.5539L164.12 12.6095L163.801 12.6776L163.494 12.7586L163.203 12.86L162.919 12.9677L162.647 13.0883ZM170.718 15.153L170.865 15.1709L171.007 15.1938L171.143 15.2216L171.273 15.2544L171.397 15.2915L171.516 15.3336L171.628 15.38L171.735 15.4313L171.837 15.487L171.934 15.5476L172.025 15.6125L172.113 15.6824L172.195 15.7573L172.272 15.8371L172.345 15.9218L172.414 16.0121L172.479 16.1074L172.54 16.2088L172.596 16.3158L172.648 16.429L172.696 16.5478L172.739 16.6733L172.778 16.8051L172.813 16.943L172.843 17.0871L172.868 17.2375L172.906 17.5591L172.917 17.7242L172.934 19.8452L172.921 20.2275L172.908 20.405L172.889 20.5745L172.866 20.7353L172.837 20.8875L172.804 21.0316L172.766 21.1677L172.724 21.2951L172.677 21.4151L172.625 21.527L172.569 21.6322L172.508 21.7299L172.443 21.8208L172.374 21.9056L172.299 21.9848L172.219 22.0584L172.134 22.1264L172.043 22.1895L171.946 22.2476L171.842 22.3014L171.732 22.3503L171.615 22.3948L171.492 22.4344L171.361 22.4697L171.222 22.5L171.076 22.526L170.924 22.547L170.594 22.5748L170.564 22.5761L170.533 22.5773L170.502 22.5786L170.471 22.5792L170.44 22.5798L170.408 22.5804L170.378 22.581L170.346 22.5816L170.315 22.5823L170.284 22.5829L170.253 22.5835L170.221 22.5841L170.19 22.5847H170.158H170.127H170.096H170.064H170.033H170.001H169.969H169.938H169.906H169.875H169.843H169.812H169.78H169.749H169.717H169.686H169.663V15.1301L170.398 15.1326L170.718 15.153ZM166.463 22.5835H166.431H166.4H166.369H166.337H166.306H166.274H166.243H166.212H166.18H166.149H166.117H166.086H166.054H166.023H165.992L165.96 22.5829L165.929 22.5823L165.898 22.5816L165.866 22.581L165.835 22.5804L165.804 22.5798L165.773 22.5792L165.741 22.5786L165.71 22.5779L165.679 22.5773L165.648 22.5761L165.617 22.5748L165.587 22.5736L165.257 22.5458L165.104 22.5247L164.958 22.4988L164.82 22.4685L164.689 22.4332L164.565 22.3936L164.448 22.3491L164.338 22.3002L164.235 22.2464L164.138 22.1883L164.047 22.1252L163.962 22.0571L163.882 21.9835L163.807 21.9043L163.737 21.8196L163.672 21.7287L163.612 21.6309L163.555 21.5258L163.504 21.4138L163.457 21.2938L163.415 21.1664L163.377 21.0303L163.343 20.8862L163.315 20.7341L163.291 20.5732L163.273 20.4044L163.25 20.0388L163.246 19.8446L163.263 17.7242L163.291 17.3939L163.312 17.2375L163.338 17.0865L163.368 16.9424L163.403 16.8045L163.442 16.6727L163.485 16.5472L163.533 16.4284L163.585 16.3152L163.641 16.2082L163.701 16.1068L163.766 16.0115L163.835 15.9212L163.908 15.8365L163.986 15.7567L164.068 15.6818L164.155 15.6119L164.246 15.547L164.343 15.4864L164.445 15.4307L164.552 15.3794L164.665 15.333L164.783 15.2909L164.908 15.2538L165.038 15.221L165.174 15.1932L165.316 15.1703L165.464 15.1524L165.779 15.1319L165.947 15.1295H166.514V22.5835H166.491H166.463ZM150.165 13.353L149.929 13.5145L149.705 13.6895L149.494 13.8782L149.295 14.0804L149.109 14.2957L148.936 14.5245L148.775 14.7664L148.627 15.0212L148.492 15.2884L148.369 15.5686L148.258 15.8612L148.16 16.1661L148.074 16.4841L147.999 16.8144L147.937 17.1577L147.886 17.5133L147.847 17.882L147.819 18.2636L147.802 18.6576L147.797 19.0646L147.804 19.484L147.827 19.8891L147.865 20.2807L147.918 20.6586L147.986 21.0229L148.071 21.3736L148.171 21.7107L148.287 22.0342L148.419 22.3441L148.568 22.6398L148.733 22.9212L148.915 23.1884L149.113 23.4408L149.328 23.6783L149.558 23.901L149.804 24.1076L150.043 24.2857L150.282 24.4447L150.521 24.5857L150.761 24.7094L150.774 24.7156L150.785 24.7206L150.796 24.7255L150.807 24.7305L150.818 24.7354L150.83 24.7404L150.841 24.7453L150.852 24.7503L150.863 24.7552L150.874 24.7601L150.885 24.7651L150.896 24.77L150.907 24.775L150.919 24.7799L150.93 24.7849L150.941 24.7898L150.952 24.7948L150.963 24.7997L150.974 24.8047L150.985 24.8096L150.997 24.814L151.008 24.8189L151.019 24.8239L151.03 24.8282L151.041 24.8331L151.052 24.8375L151.063 24.8424L151.075 24.8467L151.086 24.8511L151.097 24.8554L151.109 24.8597L151.121 24.8647L151.134 24.869L151.145 24.8733L151.156 24.8777L151.167 24.882L151.178 24.8863L151.189 24.8907L151.201 24.895L151.212 24.8987L151.223 24.903L151.234 24.9067L151.245 24.9111L151.256 24.9148L151.267 24.9185L151.278 24.9222L151.29 24.9259L151.301 24.9296L151.312 24.9333L151.324 24.9371L151.335 24.9408L151.346 24.9445L151.358 24.9482L151.369 24.9519L151.381 24.9556L151.392 24.9593L151.403 24.963L151.415 24.9667L151.426 24.9705L151.438 24.9742L151.449 24.9779L151.461 24.9816L151.473 24.9853L151.485 24.989L151.497 24.9921L151.509 24.9952L151.521 24.9983L151.533 25.0014L151.544 25.0045L151.556 25.0076L151.568 25.0107L151.58 25.0138L151.591 25.0168L151.602 25.0199L151.614 25.023L151.626 25.0261L151.637 25.0292L151.649 25.0323L151.661 25.0354L151.672 25.0385L151.684 25.0416L151.695 25.0441L151.707 25.0472L151.719 25.0496L151.73 25.0527L151.742 25.0552L151.754 25.0577L151.766 25.0601L151.777 25.0626L151.789 25.0651L151.801 25.0676L151.813 25.07L151.824 25.0725L151.836 25.075L151.848 25.0775L151.86 25.0799L151.873 25.0824L151.885 25.0849L151.897 25.0874L151.909 25.0898L151.92 25.0923L151.932 25.0948L151.944 25.0973L151.956 25.0997L151.967 25.1022L151.979 25.1047L151.991 25.1072L152.003 25.1096L152.014 25.1115L152.026 25.114L152.038 25.1158L152.05 25.1183L152.061 25.1201L152.073 25.122L152.085 25.1245L152.097 25.1263L152.108 25.1282L152.12 25.13L152.132 25.1319L152.144 25.1337L152.155 25.1356L152.167 25.1375L152.179 25.1393L152.191 25.1412L152.202 25.143L152.214 25.1449L152.226 25.1467L152.239 25.1486L152.251 25.1504L152.263 25.1517L152.275 25.1535L152.288 25.1554L152.299 25.1566L152.312 25.1585L152.323 25.1597L152.336 25.1616L152.348 25.1628L152.36 25.1641L152.372 25.1653L152.384 25.1665L152.396 25.1678L152.408 25.169L152.42 25.1702L152.432 25.1715L152.445 25.1727L152.456 25.174L152.468 25.1752L152.481 25.1764L152.493 25.1777L152.505 25.1789L152.517 25.1801L152.529 25.1814L152.541 25.1826L152.553 25.1839L152.565 25.1851L152.578 25.1863L152.59 25.1876L152.602 25.1888L152.614 25.19L152.626 25.1913L152.652 25.1937L152.678 25.1956L152.703 25.1975L152.728 25.1993L152.753 25.2012L152.779 25.203L152.803 25.2049L152.828 25.2067L152.853 25.2086L152.879 25.2104L152.903 25.2117L152.928 25.2129L152.954 25.2142L152.978 25.2154L153.004 25.2166L153.028 25.2179L153.054 25.2191L153.078 25.2203L153.104 25.2216L153.129 25.2228L153.153 25.2241L153.179 25.2253L153.203 25.2259L153.229 25.2265L153.254 25.2271L153.279 25.2278L153.304 25.2284L153.329 25.229L153.354 25.2296L153.38 25.2302L153.405 25.2309L153.43 25.2315H153.444H153.457L153.483 25.2321H153.496H153.509H153.522H153.535H153.548H153.561H153.574H153.587H153.6H153.613H153.626H153.639L153.665 25.2327H153.678H153.691H153.704H153.717H153.73H153.743H153.756H153.769H153.781H153.794H153.807H153.82H153.847H158.538V22.5643L153.786 22.5619L153.441 22.5433L153.281 22.5272L153.127 22.5062L152.981 22.4802L152.843 22.4499L152.712 22.4146L152.588 22.3751L152.471 22.3305L152.361 22.281L152.258 22.2272L152.161 22.1685L152.07 22.1054L151.985 22.0367L151.905 21.9631L151.83 21.8839L151.76 21.7986L151.695 21.7076L151.635 21.6099L151.578 21.5048L151.527 21.3922L151.48 21.2722L151.437 21.1448L151.4 21.0087L151.366 20.8646L151.338 20.7118L151.314 20.551L151.312 20.5355L151.311 20.5188L151.309 20.5021L151.307 20.4854L151.305 20.4687L151.303 20.452L151.301 20.4353L151.299 20.4186L151.298 20.4019L151.296 20.3852L151.294 20.3685L151.293 20.3518L151.291 20.3351L151.29 20.3184L151.288 20.3017L151.287 20.285L151.286 20.2683L151.285 20.2516L151.283 20.2349L151.282 20.2182L151.281 20.2015L151.28 20.1848L151.279 20.1681L151.278 20.1514L151.277 20.1347L151.277 20.118L151.276 20.1013L151.275 20.0914H158.538V17.4224H151.31L151.335 17.2127L151.361 17.0624L151.391 16.9183L151.426 16.7804L151.465 16.6486L151.508 16.523L151.556 16.4037L151.608 16.2905L151.664 16.1835L151.725 16.082L151.79 15.9861L151.858 15.8958L151.932 15.8111L152.01 15.7313L152.092 15.6565L152.179 15.5866L152.27 15.5216L152.367 15.461L152.469 15.4053L152.576 15.354L152.69 15.307L152.808 15.2649L152.933 15.2278L153.063 15.195L153.199 15.1672L153.341 15.1443L153.488 15.1264L153.803 15.106L158.538 15.1035V12.4351H153.915L153.539 12.4413L153.173 12.4592L152.819 12.4902L152.476 12.5335L152.145 12.5891L151.826 12.6578L151.519 12.7388L151.223 12.8334L150.938 12.9411L150.666 13.0617L150.406 13.1959L150.165 13.353ZM139.228 12.445H136.074V25.242H139.228V20.118H143.5V25.242H146.653V12.445H143.5V17.415H139.228V12.445ZM130.198 15.0794H134.765V12.445H130.142L129.767 12.4499L129.402 12.4654L129.049 12.4914L128.709 12.5279L128.38 12.5755L128.063 12.6343L127.757 12.7048L127.463 12.7871L127.18 12.8817L126.909 12.9887L126.65 13.1093L126.402 13.2429L126.167 13.3895L125.944 13.5497L125.732 13.7235L125.533 13.9116L125.347 14.1132L125.173 14.3285L125.012 14.5573L124.865 14.7998L124.73 15.0559L124.607 15.3255L124.497 15.6088L124.4 15.9057L124.314 16.2169L124.24 16.5416L124.178 16.8806L124.128 17.2337L124.089 17.6018L124.061 17.984L124.045 18.3818L124.039 18.7943L124.043 19.1735L124.058 19.5421L124.081 19.9003L124.114 20.2479L124.158 20.585L124.213 20.9116L124.278 21.227L124.355 21.532L124.443 21.8264L124.543 22.1097L124.655 22.3825L124.779 22.6435L124.916 22.8934L125.066 23.1321L125.229 23.3585L125.406 23.5732L125.595 23.7754L125.799 23.9647L126.015 24.141L126.245 24.3049L126.489 24.4552L126.746 24.5925L127.017 24.7168L127.301 24.8276L127.599 24.9247L127.91 25.0088L128.236 25.0799L128.575 25.1381L128.928 25.1832L129.295 25.2154L129.678 25.2346L130.073 25.2408H134.766V22.5724H130.199L130.003 22.5693L129.819 22.5594L129.644 22.5433L129.477 22.5204L129.32 22.4913L129.171 22.4561L129.03 22.4146L128.897 22.3664L128.772 22.3126L128.654 22.252L128.544 22.1852L128.44 22.1122L128.342 22.033L128.25 21.947L128.163 21.8536L128.082 21.7528L128.006 21.6439L127.935 21.527L127.869 21.4015L127.808 21.2672L127.752 21.1237L127.7 20.971L127.654 20.8089L127.612 20.6376L127.576 20.457L127.544 20.2664L127.518 20.0667L127.497 19.8576L127.468 19.4092L127.459 18.9224L127.468 18.3848L127.497 17.8943L127.518 17.6673L127.545 17.4509L127.577 17.2461L127.613 17.0525L127.654 16.87L127.701 16.6981L127.752 16.5373L127.808 16.387L127.87 16.2472L127.936 16.1173L128.007 15.9973L128.082 15.8866L128.163 15.7845L128.249 15.6905L128.34 15.6045L128.437 15.526L128.541 15.4542L128.651 15.3893L128.768 15.3305L128.893 15.2779L129.026 15.2315L129.167 15.1913L129.317 15.1573L129.475 15.1295L129.642 15.1078L129.818 15.0924L130.003 15.0831L130.198 15.0794ZM112.326 12.445L117.415 20.0549L114.81 25.242H118.284L125.155 12.445H121.511L118.969 17.329L115.925 12.445H112.326ZM107.28 15.1653H107.293H107.308H107.322H107.336H107.35H107.364H107.379H107.393H107.407L107.421 15.166H107.436L107.45 15.1666L107.464 15.1672H107.478L107.492 15.1678L107.507 15.1684L107.521 15.1691L107.535 15.1697L107.549 15.1703L107.564 15.1709L107.578 15.1715L107.592 15.1721L107.606 15.1728L107.62 15.1734L107.635 15.174L107.649 15.1746L107.663 15.1752L107.677 15.1759L107.692 15.1765L107.706 15.1771L107.72 15.1777L107.733 15.1783L108.001 15.1994L108.011 15.2006L108.022 15.2018L108.033 15.2031L108.045 15.2043L108.056 15.2055L108.067 15.2068L108.078 15.208L108.089 15.2093L108.1 15.2105L108.111 15.2124L108.123 15.2136L108.134 15.2148L108.145 15.2167L108.156 15.2185L108.167 15.2198L108.178 15.2216L108.189 15.2235L108.2 15.2253L108.212 15.2272L108.223 15.2291L108.234 15.2309L108.245 15.2328L108.256 15.2346L108.267 15.2365L108.278 15.2383L108.289 15.2402L108.301 15.242L108.312 15.2439L108.323 15.2458L108.334 15.2476L108.345 15.2495L108.354 15.2513L108.56 15.3002L108.741 15.3602L108.899 15.4307L109.033 15.5111L109.146 15.602L109.242 15.7041L109.323 15.8204L109.391 15.954L109.445 16.108L109.484 16.2843L109.508 16.4847L109.516 16.7092L109.508 16.9102L109.485 17.0933L109.446 17.2585L109.394 17.4069L109.327 17.5405L109.247 17.6599L109.151 17.7675L109.041 17.8647L108.912 17.9519L108.764 18.0292L108.596 18.096L108.407 18.1517L108.197 18.1956L107.965 18.2277L107.954 18.2284L107.942 18.2296L107.93 18.2302L107.917 18.2315L107.905 18.2321L107.893 18.2333L107.88 18.2339L107.868 18.2345L107.855 18.2352L107.843 18.2358L107.831 18.2364L107.818 18.237L107.806 18.2376L107.794 18.2383L107.781 18.2389L107.769 18.2395L107.756 18.2401L107.744 18.2407L107.732 18.2413L107.72 18.242L107.708 18.2426L107.696 18.2432L107.684 18.2438L107.671 18.2444L107.659 18.2451L107.646 18.2457L107.634 18.2463L107.622 18.2469L107.609 18.2475L107.597 18.2482L107.585 18.2488L107.573 18.2494L104.509 18.2512V15.1641H107.28V15.1653ZM101.358 12.445V25.242H104.511V20.9549H107.565H107.6H107.635H107.669H107.704L107.739 20.9543L107.773 20.9536H107.808L107.842 20.953L107.877 20.9524L107.912 20.9518L107.946 20.9512L107.981 20.9506L108.016 20.9499L108.05 20.9493L108.085 20.9487L108.119 20.9481L108.154 20.9475L108.189 20.9468L108.223 20.9462L108.258 20.9456L108.293 20.945L108.327 20.9438L108.362 20.9425L108.396 20.9413L108.431 20.94L108.466 20.9388L108.5 20.9376L108.535 20.9363L108.57 20.9345L108.604 20.9332L108.639 20.9314L108.674 20.9295L108.691 20.9283L108.707 20.9277L108.723 20.9264L108.739 20.9252L108.755 20.924L108.771 20.9227L108.787 20.9215L108.803 20.9202L108.819 20.919L108.835 20.9178L108.852 20.9165L108.868 20.9153L108.884 20.9141L108.9 20.9128L108.916 20.9116L108.932 20.9104L108.948 20.9091L108.964 20.9079L108.98 20.9066L108.996 20.9054L109.012 20.9042L109.028 20.9029L109.044 20.9017L109.061 20.9005L109.077 20.8992L109.093 20.898L109.109 20.8961L109.125 20.8949L109.141 20.893L109.157 20.8912L109.173 20.8893L109.19 20.8875L109.206 20.8856L109.221 20.8838L109.237 20.8819L109.252 20.88L109.268 20.8782L109.283 20.8763L109.299 20.8745L109.314 20.8726L109.33 20.8708L109.345 20.8683L109.36 20.8664L109.376 20.864L109.391 20.8615L109.407 20.859L109.422 20.8565L109.438 20.8541L109.453 20.8516L109.469 20.8491L109.484 20.8466L109.5 20.8442L109.515 20.8417L109.53 20.8392L109.546 20.8367L109.561 20.8343L109.577 20.8318L109.592 20.8293L109.608 20.8268L109.623 20.8244L109.639 20.8219L109.654 20.8194L109.67 20.817L109.686 20.8139L109.698 20.8114L109.709 20.8089L109.72 20.8064L109.731 20.804L109.743 20.8015L109.754 20.799L109.765 20.7965L109.776 20.7941L109.787 20.7916L109.798 20.7891L109.809 20.7866L109.82 20.7842L109.832 20.7817L109.843 20.7792L109.854 20.7767L109.865 20.7743L109.876 20.7718L109.887 20.7693L109.898 20.7668L109.91 20.7644L109.921 20.7619L109.932 20.7594L109.943 20.757L109.954 20.7545L109.965 20.752L109.976 20.7495L109.987 20.7471L109.999 20.7446L110.01 20.7421L110.021 20.7396L110.032 20.7372L110.044 20.7341L110.056 20.731L110.067 20.7279L110.078 20.7248L110.089 20.7217L110.101 20.7186L110.112 20.7155L110.123 20.7124L110.134 20.7093L110.145 20.7062L110.156 20.7031L110.167 20.7L110.178 20.697L110.19 20.6939L110.201 20.6908L110.212 20.6877L110.223 20.6846L110.234 20.6815L110.245 20.6784L110.256 20.6753L110.268 20.6722L110.279 20.6691L110.29 20.6654L110.301 20.6623L110.312 20.6586L110.323 20.6549L110.334 20.6518L110.345 20.6481L110.357 20.6444L110.368 20.6407L110.379 20.637L110.39 20.6332L110.402 20.6295L110.413 20.6252L110.425 20.6209L110.436 20.6172L110.447 20.6128L110.457 20.6091L110.468 20.6048L110.479 20.6005L110.49 20.5961L110.501 20.5918L110.511 20.5875L110.522 20.5831L110.532 20.5788L110.543 20.5745L110.553 20.5702L110.564 20.5658L110.574 20.5615L110.585 20.5572L110.595 20.5528L110.606 20.5485L110.616 20.5442L110.627 20.5398L110.637 20.5355L110.648 20.5312L110.658 20.5269L110.669 20.5225L110.679 20.5182L110.69 20.5139L110.7 20.5095L110.711 20.5052L110.721 20.5009L110.732 20.4965L110.744 20.4916L110.967 20.384L111.186 20.2609L111.401 20.1211L111.591 19.9788L111.601 19.9708L111.609 19.964L111.617 19.9572L111.625 19.9498L111.634 19.943L111.642 19.9361L111.65 19.9293L111.658 19.9219L111.666 19.9151L111.674 19.9077L111.682 19.9009L111.69 19.8935L111.698 19.886L111.706 19.8792L111.714 19.8718L111.722 19.8644L111.731 19.857L111.739 19.8496L111.747 19.8421L111.755 19.8347L111.763 19.8273L111.771 19.8199L111.779 19.8124L111.787 19.805L111.795 19.7976L111.803 19.7902L111.811 19.7828L111.819 19.7753L111.827 19.7679L111.835 19.7605L111.843 19.7531L111.852 19.7444L112.012 19.578L112.159 19.4017L112.293 19.2155L112.415 19.0201L112.524 18.8154L112.529 18.8036L112.534 18.7937L112.539 18.7838L112.543 18.7739L112.547 18.764L112.552 18.7541L112.556 18.7442L112.56 18.7343L112.565 18.7244L112.569 18.7145L112.573 18.7046L112.578 18.6947L112.582 18.6848L112.586 18.6749L112.591 18.665L112.595 18.6552L112.599 18.6453L112.604 18.6354L112.608 18.6255L112.612 18.6156L112.617 18.6057L112.621 18.5958L112.625 18.5859L112.63 18.576L112.634 18.5661L112.638 18.5556L112.643 18.5457L112.647 18.5352L112.651 18.5246L112.656 18.5147L112.66 18.5042L112.664 18.4931L112.669 18.4813L112.672 18.4702L112.676 18.4597L112.68 18.4492L112.683 18.4387L112.687 18.4281L112.691 18.4176L112.694 18.4071L112.698 18.3966L112.702 18.3861L112.706 18.3756L112.709 18.3651L112.713 18.3539L112.717 18.3434L112.72 18.3329L112.724 18.3218L112.728 18.3112L112.731 18.3007L112.735 18.2896L112.738 18.2791L112.741 18.2686L112.745 18.2574L112.748 18.2469L112.751 18.2358L112.754 18.2246L112.757 18.2141L112.76 18.203L112.763 18.1919L112.766 18.1807L112.769 18.1696L112.772 18.1585L112.776 18.1467L112.779 18.1343L112.782 18.1232L112.785 18.1121L112.788 18.1009L112.791 18.0898L112.794 18.0787L112.797 18.0675L112.799 18.0564L112.801 18.0453L112.804 18.0341L112.806 18.023L112.809 18.0119L112.811 18.0007L112.814 17.9896L112.816 17.9785L112.819 17.9673L112.821 17.9562L112.824 17.9451L112.826 17.9339L112.829 17.9228L112.831 17.9117L112.834 17.9005L112.836 17.8894L112.839 17.8783L112.841 17.8671L112.844 17.856L112.846 17.8449L112.848 17.8337L112.851 17.8226L112.853 17.8115L112.865 17.7929L112.867 17.7805L112.869 17.7675L112.871 17.7558L112.873 17.744L112.875 17.7323L112.877 17.7205L112.879 17.7088L112.881 17.6964L112.882 17.6847L112.884 17.6729L112.886 17.6612L112.888 17.6494L112.89 17.6377L112.892 17.6259L112.894 17.6141L112.895 17.6024L112.897 17.5906L112.899 17.5789L112.901 17.5671L112.903 17.5548L112.905 17.543L112.907 17.5313L112.908 17.5195L112.91 17.5078L112.912 17.496L112.914 17.4836L112.915 17.4719L112.917 17.4601L112.918 17.4478L112.92 17.436L112.921 17.4236L112.923 17.4113L112.925 17.3983L112.926 17.3847L112.927 17.3723L112.928 17.3599L112.929 17.3476L112.931 17.3352L112.932 17.3228L112.933 17.3104L112.934 17.2981L112.936 17.2857L112.936 17.2733L112.937 17.261L112.939 17.2486L112.939 17.2362L112.94 17.2238L112.941 17.2115L112.942 17.1991L112.942 17.1867L112.943 17.1744L112.944 17.162L112.944 17.1496L112.945 17.1373L112.946 17.1249L112.946 17.1125L112.947 17.1001L112.947 17.0878L112.948 17.0754L112.949 17.063L112.949 17.0507L112.95 17.0383L112.95 17.0259L112.951 17.0129L112.952 16.9993L112.952 16.9851L112.953 16.9715L112.954 16.9579L112.954 16.9443L112.955 16.9307L112.955 16.9171V16.9041L112.956 16.8905V16.8768V16.8632L112.957 16.8502V16.8366V16.8237V16.81V16.7964V16.7828V16.7692V16.7562V16.7426V16.729V16.716V16.695V16.6814V16.6678V16.6548V16.6412V16.6276V16.6146V16.601V16.5874V16.5738V16.5589L112.942 16.2688L112.912 15.9861L112.868 15.7121L112.808 15.4462L112.735 15.1895L112.646 14.9414L112.544 14.7027L112.427 14.4738L112.296 14.2555L112.15 14.047L111.991 13.8491L111.82 13.6623L111.635 13.4866L111.437 13.3227L111.227 13.1705L111.036 13.0499L111.027 13.0444L111.019 13.04L111.011 13.0357L111.003 13.0314L110.995 13.027L110.987 13.0227L110.979 13.0184L110.971 13.0141L110.963 13.0097L110.955 13.0054L110.947 13.0011L110.939 12.9967L110.931 12.9924L110.923 12.9881L110.915 12.9837L110.907 12.9794L110.899 12.9751L110.891 12.9708L110.883 12.9664L110.875 12.9621L110.867 12.9578L110.859 12.9541L110.851 12.9497L110.843 12.946L110.835 12.9417L110.827 12.938L110.818 12.9343L110.81 12.9299L110.802 12.9262L110.794 12.9225L110.786 12.9188L110.777 12.9145L110.768 12.9101L110.759 12.9064L110.75 12.9027L110.742 12.899L110.733 12.8953L110.724 12.8916L110.716 12.8879L110.707 12.8842L110.699 12.8805L110.69 12.8767L110.681 12.873L110.673 12.8693L110.664 12.8656L110.655 12.8619L110.647 12.8582L110.638 12.8545L110.629 12.8508L110.621 12.8471L110.612 12.844L110.603 12.8402L110.595 12.8372L110.586 12.8341L110.577 12.8303L110.569 12.8273L110.56 12.8242L110.551 12.8211L110.543 12.818L110.534 12.8149L110.525 12.8118L110.517 12.8087L110.508 12.8056L110.498 12.8019L110.488 12.7982L110.479 12.7951L110.472 12.7982L110.463 12.7951L110.454 12.792L110.444 12.7889L110.435 12.7858L110.426 12.7827L110.417 12.7796L110.407 12.7765L110.398 12.7734L110.389 12.7704L110.379 12.7673L110.37 12.7642L110.361 12.7617L110.352 12.7586L110.342 12.7555L110.333 12.7524L110.324 12.7499L110.315 12.7468L110.305 12.7444L110.296 12.7419L110.287 12.7388L110.277 12.7363L110.268 12.7339L110.259 12.7314L110.25 12.7289L110.24 12.7264L110.231 12.724L110.222 12.7215L110.213 12.719L110.202 12.7159L110.188 12.7122L110.174 12.7085L110.161 12.7048L110.147 12.7011L110.133 12.698L110.12 12.6949L110.106 12.6918L110.093 12.6887L110.079 12.6856L110.065 12.6825L110.052 12.6794L110.038 12.6763L110.025 12.6732L110.011 12.6701L109.997 12.6671L109.984 12.664L109.97 12.6609L109.957 12.6578L109.943 12.6547L109.929 12.6516L109.916 12.6485L109.902 12.6454L109.888 12.6423L109.875 12.6392L109.861 12.6367L109.848 12.6337L109.834 12.6312L109.82 12.6287L109.807 12.6262L109.793 12.6238L109.78 12.6213L109.765 12.6182L109.75 12.6157L109.735 12.6132L109.721 12.6108L109.706 12.6083L109.691 12.6058L109.676 12.6033L109.662 12.6009L109.647 12.5984L109.632 12.5959L109.617 12.5934L109.602 12.591L109.587 12.5885L109.573 12.586L109.558 12.5836L109.543 12.5811L109.529 12.5786L109.514 12.5761L109.499 12.5737L109.484 12.5712L109.469 12.5687L109.454 12.5662L109.44 12.5638L109.425 12.5619L109.41 12.5594L109.395 12.5576L109.38 12.5551L109.365 12.5532L109.351 12.5514L109.336 12.5495L109.321 12.5477L109.306 12.5458L109.291 12.544L109.278 12.5427L109.266 12.5415L109.255 12.5403L109.231 12.5378L109.219 12.5365L109.208 12.5353L109.184 12.5328L109.172 12.5316L109.161 12.5304L109.137 12.5279L109.125 12.5266L109.114 12.5254L109.102 12.5242L109.09 12.5229L109.078 12.5217L109.067 12.5205L109.055 12.5192L109.043 12.518L109.031 12.5167L109.02 12.5155L109.008 12.5143L108.996 12.513L108.984 12.5118L108.973 12.5106L108.961 12.5093L108.949 12.5081L108.938 12.5069L108.926 12.5056L108.913 12.5044L108.873 12.5013L108.832 12.4982L108.792 12.4951L108.752 12.492L108.712 12.4895L108.672 12.4871L108.631 12.4846L108.591 12.4821L108.551 12.4796L108.511 12.4772L108.471 12.4753L108.43 12.4728L108.39 12.471L108.35 12.4691L108.31 12.4673L108.27 12.4654L108.23 12.4636L108.189 12.4623L108.149 12.4611L108.109 12.4598L108.069 12.4586L108.029 12.4574L107.988 12.4561L107.948 12.4549L107.908 12.4543L107.868 12.453L107.828 12.4524L107.787 12.4518L107.747 12.4512L107.707 12.4506L107.667 12.4499L107.627 12.4493L107.311 12.4475H101.358V12.445ZM94.3733 22.7029L94.3702 22.7035L94.3665 22.7041L94.3628 22.7047L94.3591 22.7054L94.3553 22.706L94.3516 22.7066L94.3479 22.7072L94.3442 22.7078L94.3405 22.7084H94.3368L94.3331 22.7091L94.3294 22.7097H94.3257L94.322 22.7103H94.3182L94.3102 22.7109H94.3065H94.3022L94.2978 22.7115H94.2935H94.2892H94.2849H94.2805L94.2762 22.7122H94.2719H94.2675L94.2632 22.7128H94.2595L94.2218 22.7146L94.1834 22.7165L94.1451 22.7183L94.1068 22.7202L94.0684 22.7214L94.0301 22.7227L93.9918 22.7239L93.9534 22.7251L93.9151 22.7264L93.8768 22.727L93.8384 22.7282L93.8001 22.7289L93.7611 22.7295L93.7228 22.7301L93.6845 22.7307L93.6455 22.7313L93.6072 22.732L93.5682 22.7326L93.5293 22.7332L93.4909 22.7338L93.452 22.7344L93.413 22.735H93.3747L93.3357 22.7357H93.2968H93.2578H93.2195H93.1805H93.1416H93.1026H93.0637H93.0253H92.9888H92.9517H92.9146H92.8775H92.8404H92.8033H92.7662H92.7291H92.692H92.6549H92.6178H92.5807L92.5436 22.735H92.5071L92.47 22.7344L92.4329 22.7338L92.3959 22.7332L92.3588 22.7326L92.3223 22.732L92.2852 22.7313L92.2487 22.7307L92.2116 22.7301L92.1745 22.7295L92.138 22.7289L92.1009 22.7282L92.0644 22.727L92.0279 22.7264L91.9908 22.7251L91.9544 22.7239L91.9173 22.7227L91.8808 22.7214L91.8443 22.7202L91.8381 22.7196L91.8313 22.719H91.8251L91.8183 22.7183H91.8115L91.8047 22.7177H91.7985L91.7917 22.7171H91.7849L91.7788 22.7165H91.7719L91.7651 22.7159H91.759L91.7528 22.7153L91.7466 22.7146L91.7404 22.714L91.7342 22.7134L91.7281 22.7128L91.7219 22.7122L91.7157 22.7115L91.7095 22.7109L91.7033 22.7103L91.6971 22.7097L91.691 22.7091L91.6848 22.7084L91.6786 22.7078L91.673 22.7072L91.6668 22.7066L91.6613 22.706L91.6557 22.7054L91.6501 22.7047L91.6477 22.7041L91.4857 22.6577L91.323 22.6052L91.1672 22.5482L91.0176 22.4864L90.8741 22.4208L90.7369 22.3509L90.6058 22.2761L90.4803 22.1969L90.3609 22.1134L90.2471 22.025L90.1389 21.9322L90.0363 21.8345L89.9392 21.7318L89.8471 21.6241L89.7599 21.5116L89.6783 21.3934L89.601 21.2697L89.5293 21.1404L89.4619 21.0056L89.3994 20.8646L89.3419 20.718L89.2893 20.5652L89.2417 20.4056L89.1991 20.2399L89.1614 20.0679L89.1286 19.8891L89.1007 19.7042L89.0779 19.5124L89.0599 19.3145L89.0395 18.897V18.477L89.0606 18.0898L89.0785 17.9055L89.102 17.7261L89.1304 17.5523L89.1638 17.384L89.2022 17.2214L89.2454 17.0643L89.2937 16.9127L89.3469 16.7667L89.405 16.6263L89.468 16.4915L89.5361 16.3616L89.609 16.2373L89.6869 16.1185L89.7698 16.0047L89.857 15.8958L89.9497 15.7925L90.0468 15.6942L90.1494 15.6008L90.257 15.5123L90.3702 15.4288L90.4889 15.3497L90.6132 15.2754L90.7424 15.2062L90.8778 15.1418L91.0188 15.0825L91.1654 15.028L91.1814 15.0225L91.1988 15.0169L91.2161 15.0113L91.234 15.0058L91.2519 15.0002L91.2692 14.9946L91.2866 14.9891L91.3045 14.9835L91.3218 14.9779L91.3397 14.9724L91.357 14.9668L91.375 14.9618L91.3923 14.9569L91.4102 14.9519L91.4275 14.947L91.4455 14.942L91.4628 14.9371L91.4807 14.9328L91.4986 14.9284L91.516 14.9241L91.5339 14.9198L91.5512 14.9155L91.5691 14.9111L91.5871 14.9068L91.605 14.9031L91.6223 14.8994L91.6402 14.8957L91.6582 14.8919L91.6761 14.8889L91.694 14.8858L91.712 14.8827L91.7287 14.8802L91.7534 14.8771L91.7794 14.874L91.8053 14.8709L91.8313 14.8684L91.8573 14.866L91.8839 14.8635L91.9098 14.861L91.9358 14.8585L91.9624 14.8567L91.989 14.8542L92.0156 14.8524L92.0422 14.8505L92.0687 14.8486L92.0953 14.8468L92.1219 14.8456L92.1485 14.8443L92.1751 14.8431L92.2017 14.8418L92.2283 14.8406L92.2549 14.8394L92.2815 14.8381L92.308 14.8369L92.3346 14.8363L92.3612 14.8357L92.3878 14.835L92.4144 14.8344L92.441 14.8338L92.4676 14.8332L92.4942 14.8326L92.5208 14.8319L92.5473 14.8313L92.5739 14.8307L92.6191 14.8301L92.6642 14.8295L92.7093 14.8289L92.7545 14.8282L92.8002 14.8276L92.8454 14.827L92.8905 14.8264L92.9357 14.8258H92.9808H93.0259H93.0711H93.1162H93.1613L93.2065 14.8264L93.2516 14.827L93.2968 14.8276L93.3419 14.8282L93.387 14.8289L93.4322 14.8295L93.4773 14.8307L93.5224 14.8319L93.5676 14.8332L93.6127 14.8344L93.6579 14.8363L93.703 14.8381L93.7481 14.84L93.7933 14.8418L93.8384 14.8437L93.8836 14.8462L93.9287 14.8486L93.9738 14.8511L94.019 14.8536L94.0301 14.8542L94.0419 14.8548L94.0536 14.8555L94.0653 14.8561L94.0771 14.8567L94.0888 14.8573L94.1006 14.8579L94.1123 14.8585L94.1241 14.8592L94.1358 14.8604L94.1476 14.861L94.1593 14.8616L94.1711 14.8629L94.1828 14.8641L94.1946 14.8653L94.2057 14.8666L94.2175 14.8678L94.2286 14.8691L94.2397 14.8703L94.2515 14.8715L94.2626 14.8728L94.2737 14.874L94.2849 14.8752L94.296 14.8765L94.3071 14.8777L94.3182 14.8796L94.3294 14.8814L94.3405 14.8833L94.3516 14.8851L94.3628 14.887L94.3739 14.8889L94.3838 14.8907L94.5514 14.9284L94.7134 14.9717L94.8686 15.02L95.0182 15.0738L95.161 15.1326L95.2977 15.1969L95.4288 15.2662L95.5537 15.3404L95.673 15.4202L95.7868 15.5049L95.895 15.5946L95.9983 15.6899L96.096 15.7901L96.1887 15.8958L96.2765 16.0066L96.3587 16.1228L96.436 16.2453L96.509 16.3734L96.577 16.507L96.6401 16.6461L96.6982 16.7915L96.7514 16.9424L96.7996 17.0995L96.8429 17.2622L96.8806 17.4317L96.9134 17.6067L96.9412 17.788L96.9641 17.9748L96.982 18.1671L97.0024 18.571V18.9916L96.9944 19.1951L96.9814 19.3925L96.9629 19.5836L96.9394 19.7685L96.9109 19.9467L96.8769 20.1192L96.838 20.2856L96.794 20.4458L96.7452 20.5998L96.6914 20.7483L96.6327 20.8906L96.569 21.0273L96.5003 21.1584L96.4268 21.2839L96.3482 21.4046L96.2648 21.5202L96.1763 21.6309L96.083 21.7367L95.984 21.8375L95.8802 21.934L95.7707 22.0256L95.6563 22.1128L95.5364 22.1957L95.4108 22.2742L95.2791 22.3485L95.1419 22.4184L94.9984 22.4845L94.8494 22.5464L94.6942 22.6039L94.5334 22.6571L94.3745 22.7035L94.3708 22.7041L94.3733 22.7029ZM85.784 19.4017L85.8106 19.7562L85.8477 20.1001L85.8959 20.4335L85.9553 20.7563L86.0258 21.0693L86.1074 21.3718L86.2008 21.6637L86.3059 21.9458L86.4228 22.2167L86.5514 22.4771L86.6923 22.727L86.8451 22.9658L87.0102 23.194L87.187 23.4111L87.3762 23.6165L87.5778 23.8107L87.7911 23.9932L88.0162 24.1639L88.253 24.3235L88.5022 24.4713L88.7625 24.6074L89.0352 24.7317L89.319 24.8443L89.6146 24.9457L89.9219 25.036L90.2403 25.1146L90.5705 25.182L90.9125 25.2383L91.2662 25.2834L91.2841 25.2853L91.3008 25.2871L91.3175 25.2884L91.3342 25.2902L91.3509 25.2915L91.3676 25.2933L91.3843 25.2946L91.4009 25.2964L91.4176 25.2977L91.4343 25.2995L91.451 25.3008L91.4677 25.302L91.4844 25.3038L91.5011 25.3051L91.5178 25.3063L91.5345 25.3076L91.5512 25.3088L91.5679 25.31L91.5846 25.3113L91.6013 25.3125L91.618 25.3137L91.6347 25.315L91.6514 25.3162L91.6681 25.3175L91.6848 25.3187L91.7015 25.3199L91.7182 25.3212L91.7349 25.3224L91.7515 25.3236L91.7682 25.3249L91.7849 25.3261L91.8016 25.3273L91.8424 25.3298L91.8826 25.3323L91.9234 25.3348L91.9636 25.3372L92.0038 25.3397L92.0446 25.3416L92.0848 25.344L92.1256 25.3459L92.1658 25.3478L92.206 25.3496L92.2468 25.3515L92.287 25.3533L92.3272 25.3546L92.368 25.3558L92.4082 25.357L92.449 25.3583L92.4892 25.3595L92.5294 25.3608L92.5702 25.362L92.6104 25.3626L92.6512 25.3632L92.6914 25.3638L92.7322 25.3645L92.7724 25.3651L92.8132 25.3657L92.854 25.3663L92.8942 25.3669L92.935 25.3676H92.9758H93.016H93.0569H93.0977L93.1329 25.3669L93.1681 25.3663L93.2034 25.3657L93.2386 25.3651L93.2739 25.3645L93.3091 25.3638L93.3444 25.3632L93.3796 25.3626L93.4149 25.362L93.4501 25.3614L93.4854 25.3601L93.5206 25.3595L93.5558 25.3583L93.5911 25.357L93.6263 25.3558L93.6616 25.3546L93.6968 25.3533L93.7321 25.3521L93.7673 25.3509L93.8026 25.3496L93.8378 25.3478L93.873 25.3459L93.9077 25.344L93.9429 25.3422L93.9782 25.3403L94.0134 25.3385L94.0487 25.3366L94.0839 25.3348L94.1191 25.3329L94.1544 25.3304L94.1896 25.328L94.2249 25.3255L94.2416 25.3243L94.2583 25.323L94.275 25.3218L94.2917 25.3205L94.3084 25.3193L94.325 25.3181L94.3417 25.3168L94.3584 25.3156L94.3751 25.3144L94.3918 25.3131L94.4085 25.3119L94.4252 25.3106L94.4419 25.3094L94.4586 25.3082L94.4753 25.3069L94.492 25.3057L94.5087 25.3045L94.5254 25.3032L94.5421 25.3014L94.5588 25.3001L94.5922 25.297L94.6089 25.2958L94.6256 25.294L94.6423 25.2927L94.659 25.2909L94.6756 25.289L94.6923 25.2878L94.709 25.2859L94.7418 25.2828L94.7597 25.281L95.1103 25.2358L95.4498 25.1795L95.7775 25.1127L96.0941 25.0342L96.3996 24.9445L96.6939 24.8443L96.9765 24.7323L97.2479 24.6092L97.5082 24.475L97.7568 24.329L97.9936 24.1713L98.2193 24.0024L98.4333 23.8224L98.6355 23.6313L98.8253 23.429L99.0034 23.2157L99.1697 22.9917L99.3237 22.7567L99.4659 22.5111L99.5963 22.2551L99.7144 21.9891L99.8214 21.7132L99.916 21.4268L99.9995 21.1306L100.071 20.8244L100.132 20.5083L100.181 20.1823L100.22 19.8465L100.247 19.5013L100.263 19.1457L100.268 18.7801L100.263 18.4145L100.247 18.057L100.22 17.7082L100.183 17.368L100.134 17.0364L100.074 16.7142L100.003 16.4012L99.9197 16.0975L99.8257 15.8031L99.72 15.5185L99.6025 15.2445L99.4733 14.9804L99.3317 14.7268L99.1783 14.4837L99.0126 14.2518L98.8346 14.0316L98.6447 13.8231L98.4425 13.6264L98.228 13.4421L98.0017 13.2708L97.7636 13.1124L97.5132 12.9664L97.2516 12.8341L96.9783 12.7153L96.6933 12.6101L96.3971 12.5186L96.0891 12.4413L95.7701 12.3776L95.4393 12.3281L95.0974 12.2928L94.7437 12.2718L94.3813 12.265L91.6532 12.2662L91.2946 12.2737L90.9446 12.2953L90.6052 12.3312L90.2768 12.3807L89.9596 12.4438L89.6535 12.5211L89.3586 12.612L89.0748 12.7165L88.8021 12.8341L88.5412 12.9652L88.2914 13.1093L88.0533 13.2658L87.827 13.4353L87.6124 13.6165L87.4096 13.8101L87.2185 14.0155L87.0398 14.2326L86.8729 14.4602L86.7183 14.699L86.5755 14.9482L86.4444 15.2074L86.3257 15.4765L86.2181 15.7554L86.1222 16.0437L86.0382 16.3412L85.9658 16.6474L85.9046 16.9622L85.8545 17.2857L85.8162 17.6179L85.7883 17.9581L85.7716 18.3063L85.7661 18.6626L85.7716 19.038L85.784 19.4017ZM78.8636 12.4425L78.8333 12.4431L78.803 12.4438L78.7727 12.4444L78.7424 12.445L78.7121 12.4456L78.6818 12.4462L78.6515 12.4469L78.6212 12.4475L78.5909 12.4487L78.5606 12.4499L78.5304 12.4512L78.5 12.4524L78.4691 12.4537L78.45 12.4549L78.4314 12.4555L78.4129 12.4568L78.3943 12.458L78.3758 12.4592L78.3572 12.4605L78.3387 12.4617L78.3201 12.4629L78.3016 12.4642L78.283 12.4654L78.2645 12.4666L78.2459 12.4679L78.2274 12.4691L78.2088 12.4704L78.1903 12.4716L78.1717 12.4728L78.1532 12.4741L78.1346 12.4753L78.1161 12.4765L78.0975 12.4784L78.079 12.4796L78.0604 12.4815L78.0419 12.4827L78.0233 12.4846L78.0048 12.4864L77.9862 12.4883L77.9677 12.4902L77.9491 12.492L77.9306 12.4939L77.912 12.4957L77.8935 12.4976L77.8743 12.4994L77.8607 12.5013L77.8477 12.5031L77.8347 12.505L77.8217 12.5069L77.8088 12.5087L77.7958 12.5106L77.7828 12.5124L77.7698 12.5143L77.7568 12.5161L77.7438 12.518L77.7308 12.5198L77.7179 12.5217L77.7049 12.5236L77.6919 12.5254L77.6789 12.5273L77.6659 12.5291L77.6529 12.531L77.6399 12.5328L77.627 12.5347L77.614 12.5365L77.601 12.5384L77.588 12.5403L77.575 12.5421L77.562 12.544L77.5491 12.5458L77.5361 12.5483L77.5231 12.5502L77.5101 12.552L77.4971 12.5545L77.4841 12.5563L77.4711 12.5588L77.4569 12.5613L77.1861 12.617L77.1725 12.6207L77.1601 12.6238L77.1478 12.6269L77.1354 12.6299L77.123 12.633L77.1107 12.6361L77.0983 12.6392L77.0859 12.6423L77.0736 12.6454L77.0612 12.6485L77.0488 12.6516L77.0365 12.6547L77.0241 12.6578L77.0117 12.6609L76.9993 12.6646L76.987 12.6677L76.9746 12.6714L76.9623 12.6751L76.9499 12.6788L76.9375 12.6825L76.9252 12.6862L76.9128 12.6899L76.9004 12.6937L76.8881 12.6974L76.8757 12.7011L76.8633 12.7048L76.851 12.7085L76.8386 12.7122L76.8262 12.7159L76.8139 12.7196L76.8015 12.7233L76.7879 12.7277L76.5338 12.8217L76.2852 12.9336L76.0422 13.0648L75.8053 13.2163L75.5741 13.3889L75.3478 13.5837L75.1264 13.8015L74.9459 14L74.7826 14.2029L74.6367 14.4101L74.5069 14.6223L74.3931 14.8394L74.2941 15.0614L74.2892 15.0738L74.2849 15.0843L74.2805 15.0948L74.2762 15.106L74.2719 15.1165L74.2682 15.127L74.2638 15.1375L74.2595 15.1486L74.2558 15.1592L74.2521 15.1697L74.2478 15.1808L74.2441 15.1913L74.2404 15.2018L74.2366 15.213L74.2329 15.2235L74.2292 15.234L74.2255 15.2445L74.2218 15.255L74.2181 15.2662L74.2144 15.2767L74.2107 15.2872L74.207 15.2983L74.2033 15.3088L74.1995 15.32L74.1958 15.3305L74.1921 15.3416L74.1884 15.3521L74.1847 15.3633L74.181 15.3744L74.1773 15.3855L74.1736 15.3967L74.1699 15.4084L74.1661 15.4202L74.1631 15.4313L74.16 15.4425L74.1569 15.4536L74.1538 15.4647L74.1507 15.4758L74.1476 15.487L74.1445 15.4981L74.1414 15.5093L74.1383 15.5204L74.1352 15.5315L74.1321 15.5427L74.129 15.5538L74.126 15.5649L74.1229 15.5761L74.1198 15.5872L74.1167 15.5983L74.1142 15.6095L74.1111 15.6206L74.1087 15.6317L74.1062 15.6429L74.1037 15.654L74.1012 15.6651L74.0988 15.6763L74.0963 15.6874L74.0938 15.6985L74.0913 15.7097L74.0889 15.7208L74.0864 15.7319L74.0839 15.7431L74.0814 15.7542L74.0783 15.7666L74.0759 15.7789L74.0734 15.7907L74.0709 15.8024L74.0685 15.8142L74.066 15.8259L74.0635 15.8377L74.061 15.8494L74.0586 15.8612L74.0561 15.873L74.0536 15.8847L74.0511 15.8965L74.0493 15.9082L74.0468 15.92L74.0443 15.9317L74.0425 15.9435L74.04 15.9552L74.0382 15.967L74.0357 15.9787L74.0338 15.9905L74.032 16.0022L74.0301 16.014L74.0283 16.0257L74.0264 16.0375L74.0246 16.0492L74.0227 16.061L74.0208 16.0727L74.019 16.0845L74.0171 16.0962L74.0153 16.108L74.0134 16.1198L74.0116 16.1315L74.0097 16.1439L74.0079 16.1569L74.006 16.1692L74.0041 16.1816L74.0029 16.194L74.0011 16.2063L73.9992 16.2187L73.998 16.2311L73.9961 16.2435L73.9949 16.2558L73.9936 16.2682L73.9918 16.2806L73.9905 16.2929L73.9893 16.3053L73.9881 16.3177L73.9868 16.3301L73.9856 16.3424L73.9844 16.3548L73.9831 16.3672L73.9819 16.3795L73.9807 16.3919L73.9794 16.4043L73.9782 16.4166L73.9769 16.429L73.9745 16.4531L73.9732 16.4655L73.972 16.4779L73.9708 16.4903L73.9695 16.5026L73.9683 16.515L73.967 16.5274L73.9658 16.5404L73.9633 16.567L73.9615 16.5936L73.9596 16.6195L73.9578 16.6461L73.9559 16.6721L73.9541 16.6987L73.9522 16.7247L73.9503 16.7507L73.9485 16.7773L73.9473 16.8032L73.9454 16.8292L73.9442 16.8558L73.9429 16.8818L73.9417 16.9078L73.9405 16.9338L73.9392 16.9603L73.938 16.9863L73.9368 17.0123L73.9355 17.0383L73.9343 17.0649L73.933 17.0909L73.9324 17.1168L73.9318 17.1434L73.9312 17.1694L73.9306 17.1954L73.93 17.222L73.9293 17.248L73.9287 17.2746L73.9281 17.3005L73.9275 17.3271L73.9269 17.3537L73.9262 17.3803L73.9238 17.6816V25.2426L76.3006 25.2408L76.402 25.2315L76.4231 25.2278L76.433 25.2259L76.4429 25.2241L76.4528 25.2222L76.4626 25.2203L76.4719 25.2185L76.4818 25.2166L76.4911 25.2142L76.501 25.2117L76.5102 25.2092L76.5195 25.2067L76.5288 25.2043L76.5381 25.2018L76.5474 25.1993L76.5566 25.1968L76.5659 25.1944L76.5752 25.1913L76.5845 25.1882L76.5937 25.1851L76.603 25.182L76.6123 25.1789L76.6216 25.1752L76.6308 25.1715L76.6401 25.1678L76.6494 25.1641L76.6587 25.1603L76.6679 25.156L76.6772 25.1517L76.6865 25.1474L76.7069 25.1381L76.723 25.1288L76.7298 25.1245L76.7366 25.1201L76.7434 25.1158L76.7502 25.1115L76.757 25.1072L76.7632 25.1028L76.77 25.0985L76.7761 25.0942L76.7829 25.0898L76.7891 25.0855L76.7953 25.0812L76.8021 25.0762L76.8176 25.0651L76.833 25.0515L76.838 25.0472L76.8429 25.0428L76.8479 25.0385L76.8522 25.0342L76.8565 25.0298L76.8608 25.0255L76.8652 25.0212L76.8695 25.0168L76.8738 25.0125L76.8782 25.0082L76.8825 25.0039L76.8868 24.9995L76.8911 24.9952L76.8955 24.9902L76.8998 24.9859L76.9041 24.981L76.9085 24.976L76.9128 24.9711L76.9171 24.9661L76.9214 24.9612L76.9252 24.9562L76.9295 24.9513L76.9338 24.9463L76.9375 24.9414L76.9412 24.9364L76.9462 24.9296L76.9585 24.9123L76.9981 24.8437L77.008 24.8214L77.0123 24.8109L77.0167 24.8004L77.021 24.7898L77.0253 24.7793L77.029 24.7688L77.0327 24.7583L77.0365 24.7478L77.0402 24.7373L77.0433 24.7268L77.0463 24.7162L77.0494 24.7057L77.0525 24.6952L77.055 24.6847L77.0575 24.6742L77.06 24.6637L77.0624 24.6531L77.0643 24.642L77.0661 24.6315L77.068 24.621L77.0698 24.6098L77.0717 24.5987L77.0729 24.5876L77.0742 24.5764L77.0754 24.5653L77.0766 24.5542L77.0773 24.543L77.0779 24.5319L77.0785 24.5208L77.0791 24.5096L77.0797 24.4973L77.0804 24.4367V17.6729V17.6339V17.595V17.556V17.517L77.081 17.4781V17.4391L77.0816 17.4001L77.0822 17.3612L77.0828 17.3222L77.0834 17.2832L77.0841 17.2443L77.0847 17.2053L77.0859 17.1663L77.0872 17.1274L77.0884 17.0884L77.0896 17.0494L77.0915 17.0105L77.0933 16.9715L77.0958 16.9325L77.0983 16.8942L77.1008 16.8552L77.1032 16.8168L77.1063 16.7785L77.11 16.7401L77.1137 16.7018L77.1181 16.6634L77.1224 16.6251L77.1267 16.5867L77.1317 16.5484L77.1372 16.5107L77.1428 16.4723L77.149 16.4352L77.1508 16.4265L77.1527 16.4173L77.1546 16.408L77.1564 16.3987L77.1583 16.3894L77.1601 16.3802L77.162 16.3709L77.1638 16.3616L77.1657 16.3523L77.1675 16.343L77.1694 16.3338L77.1712 16.3245L77.1731 16.3158L77.175 16.3066L77.1774 16.2979L77.1793 16.2886L77.1818 16.2793L77.1842 16.2707L77.1861 16.2614L77.1886 16.2527L77.191 16.2441L77.1935 16.2354L77.196 16.2261L77.1985 16.2175L77.2009 16.2088L77.2034 16.2002L77.2059 16.1915L77.2084 16.1828L77.2108 16.1742L77.2133 16.1649L77.2158 16.1562L77.2182 16.1488L77.2201 16.1433L77.2226 16.1371L77.2244 16.1309L77.2269 16.1247L77.2294 16.1185L77.2318 16.1123L77.2343 16.1061L77.2368 16.1L77.2393 16.0938L77.2417 16.0876L77.2442 16.0814L77.2467 16.0752L77.2492 16.069L77.2516 16.0628L77.2541 16.0567L77.2566 16.0505L77.2591 16.0443L77.2615 16.0381L77.264 16.0319L77.2665 16.0257L77.2689 16.0195L77.2714 16.0134L77.2739 16.0072L77.2764 16.001L77.2788 15.9948L77.2813 15.9886L77.2838 15.9824L77.2863 15.9763L77.2887 15.9701L77.2912 15.9639L77.2937 15.9577L77.2962 15.9527L77.2974 15.9497L77.2992 15.9453L77.3017 15.941L77.3042 15.9367L77.3067 15.9323L77.3085 15.928L77.311 15.9237L77.3135 15.9193L77.3159 15.915L77.3184 15.9107L77.3209 15.9064L77.3234 15.9026L77.3258 15.8983L77.3283 15.894L77.3308 15.8897L77.3277 15.8909L77.3302 15.8872L77.3326 15.8828L77.3351 15.8785L77.3376 15.8748L77.3401 15.8705L77.3425 15.8668L77.345 15.8624L77.3475 15.8581L77.3499 15.8544L77.3524 15.8507L77.3549 15.8464L77.3574 15.8426L77.3598 15.8383L77.3623 15.8346L77.3648 15.8309L77.3666 15.8284L77.3747 15.8173L77.3833 15.8049L77.392 15.7925L77.4013 15.7802L77.4105 15.7684L77.4198 15.7567L77.4291 15.7449L77.4384 15.7332L77.4476 15.722L77.4569 15.7109L77.4668 15.6998L77.4767 15.6886L77.4866 15.6775L77.4965 15.6664L77.5064 15.6552L77.5169 15.6441L77.5274 15.633L77.5379 15.6224L77.5484 15.6119L77.5589 15.6014L77.5701 15.5909L77.5812 15.5804L77.5923 15.5699L77.6035 15.5594L77.6146 15.5488L77.6257 15.5389L77.6369 15.5284L77.648 15.5185L77.6597 15.5086L77.6715 15.4987L77.6832 15.4888L77.6944 15.4796L77.6981 15.4765L77.703 15.4728L77.708 15.469L77.7129 15.4653L77.7179 15.4616L77.7228 15.4579L77.7278 15.4542L77.7376 15.4468L77.7426 15.4431L77.7475 15.4394L77.7525 15.4356L77.7574 15.4319L77.7624 15.4282L77.7673 15.4245L77.7723 15.4208L77.7772 15.4171L77.7822 15.4134L77.7871 15.4097L77.7921 15.406L77.797 15.4022L77.8019 15.3985L77.8069 15.3948L77.8118 15.3911L77.8168 15.3874L77.8217 15.3837L77.8267 15.3806L77.8316 15.3769L77.8366 15.3738L77.8415 15.3701L77.8465 15.3664L77.8508 15.3639L77.857 15.3602L77.8638 15.3559L77.8706 15.3515L77.8774 15.3472L77.8842 15.3429L77.891 15.3385L77.8978 15.3342L77.9052 15.3299L77.912 15.3255L77.9188 15.3212L77.9256 15.3175L77.9324 15.3138L77.9398 15.3095L77.9466 15.3058L77.9534 15.302L77.9609 15.2983L77.9683 15.2946L77.9751 15.2909L77.9825 15.2872L77.9899 15.2835L77.9973 15.2798L78.0048 15.2761L78.0122 15.2724L78.0196 15.2686L78.027 15.2649L78.0344 15.2612L78.0419 15.2575L78.0493 15.2538L78.0567 15.2501L78.0641 15.2464L78.0715 15.2427L78.0777 15.2396L78.0845 15.2365L78.0926 15.2334L78.1 15.2303L78.108 15.2272L78.1161 15.2241L78.1235 15.221L78.1315 15.2179L78.1396 15.2148L78.1476 15.2117L78.155 15.2086L78.1631 15.2055L78.1711 15.2025L78.1791 15.1994L78.1866 15.1963L78.1946 15.1932L78.2026 15.1901L78.2107 15.187L78.2187 15.1839L78.2267 15.1814L78.2348 15.1783L78.2428 15.1759L78.2509 15.1734L78.2589 15.1709L78.2669 15.1678L78.275 15.1653L78.283 15.1629L78.291 15.1604L78.2991 15.1579L78.3071 15.1554L78.3152 15.153L78.3232 15.1505L78.3306 15.148L78.3387 15.1455L78.3473 15.1431L78.356 15.1406L78.3652 15.1381L78.3739 15.1357L78.3826 15.1332L78.3918 15.1307L78.4005 15.1282L78.4091 15.1258L78.4178 15.1233L78.4265 15.1208L78.4351 15.1183L78.4438 15.1159L78.4524 15.1134L78.4611 15.1109L78.4697 15.1091L78.479 15.1066L78.4877 15.1047L78.4963 15.1023L78.5056 15.1004L78.5143 15.0985L78.5229 15.0967L78.5322 15.0948L78.5415 15.093L78.5501 15.0911L78.5594 15.0893L78.5681 15.0874L78.5773 15.0856L78.5866 15.0837L78.5953 15.0818L78.6045 15.08L78.6126 15.0781L78.7672 15.0528L78.7944 15.0491L78.8228 15.0453L78.8506 15.0416L78.8785 15.0385L78.9063 15.0354L78.9341 15.0324L78.9619 15.0299L78.9898 15.0274L79.0182 15.0249L79.046 15.0225L79.0739 15.02L79.1017 15.0181L79.1301 15.0163L79.158 15.0144L79.1864 15.0126L79.2142 15.0113L79.2427 15.0101L79.2711 15.0089L79.2995 15.0076L79.328 15.0064L79.3564 15.0051L79.3849 15.0045L79.4133 15.0039L79.4418 15.0033L79.4702 15.0027L79.4987 15.002L79.5271 15.0014L79.5555 15.0008L79.584 15.0002H79.6124H79.6409H79.6693H81.4446V25.2296H84.5634V12.437H83.0287V12.4363H79.4418H79.4115H79.3812H79.3509H79.3206H79.2903H79.26H79.2297L79.1994 12.437H79.1691L79.1388 12.4376L79.1085 12.4382L79.0782 12.4388L79.0479 12.4394L79.0176 12.4401L78.9873 12.4407L78.957 12.4413L78.9267 12.4419L78.8964 12.4425H78.8636ZM64.9029 12.8427L64.6185 12.9503L64.3458 13.071L64.0855 13.2052L63.8369 13.353L63.6007 13.5145L63.3769 13.6895L63.1654 13.8782L62.9663 14.0804L62.7802 14.2957L62.6064 14.5245L62.4457 14.7664L62.2972 15.0212L62.1618 15.2884L62.0388 15.5686L61.9281 15.8612L61.8298 16.1661L61.7432 16.4841L61.669 16.8144L61.6066 17.1577L61.5559 17.5133L61.5163 17.882L61.4885 18.2636L61.4718 18.6576L61.4662 19.0646L61.4736 19.484L61.4965 19.8891L61.5342 20.2807L61.5874 20.6586L61.656 21.0229L61.7408 21.3736L61.8409 21.7107L61.9572 22.0342L62.0901 22.3441L62.2391 22.6398L62.4048 22.9212L62.5866 23.1884L62.7851 23.4408L62.9997 23.6783L63.2303 23.901L63.4764 24.1076L63.7151 24.2857L63.9538 24.4447L64.1931 24.5857L64.433 24.7094L64.4453 24.7156L64.4565 24.7206L64.4676 24.7255L64.4787 24.7305L64.4899 24.7354L64.501 24.7404L64.5121 24.7453L64.5232 24.7503L64.5344 24.7552L64.5455 24.7601L64.5566 24.7651L64.5678 24.77L64.5789 24.775L64.59 24.7799L64.6012 24.7849L64.6123 24.7898L64.6234 24.7948L64.6345 24.7997L64.6457 24.8047L64.6568 24.8096L64.6679 24.8146L64.6791 24.8189L64.6902 24.8239L64.7013 24.8282L64.7125 24.8331L64.7236 24.8375L64.7347 24.8424L64.7458 24.8467L64.757 24.8511L64.7687 24.8554L64.7805 24.8597L64.7928 24.8647L64.8052 24.869L64.8163 24.8733L64.8275 24.8777L64.8386 24.882L64.8497 24.8863L64.8609 24.8907L64.872 24.895L64.8831 24.8987L64.8942 24.903L64.9054 24.9067L64.9165 24.9111L64.9276 24.9148L64.9388 24.9185L64.9499 24.9222L64.961 24.9259L64.9728 24.9296L64.9839 24.9333L64.995 24.9371L65.0062 24.9408L65.0173 24.9445L65.029 24.9482L65.0402 24.9519L65.0513 24.9556L65.063 24.9593L65.0748 24.963L65.0859 24.9667L65.0977 24.9705L65.1094 24.9742L65.1206 24.9779L65.1323 24.9816L65.1441 24.9853L65.1564 24.989L65.1688 24.9921L65.1805 24.9952L65.1923 24.9983L65.204 25.0014L65.2152 25.0045L65.2269 25.0076L65.2387 25.0107L65.2504 25.0138L65.2622 25.0168L65.2733 25.0199L65.285 25.023L65.2968 25.0261L65.3085 25.0292L65.3203 25.0323L65.332 25.0354L65.3438 25.0385L65.3555 25.0416L65.3673 25.0441L65.379 25.0472L65.3908 25.0496L65.4025 25.0527L65.4143 25.0552L65.426 25.0577L65.4378 25.0601L65.4495 25.0626L65.4613 25.0651L65.473 25.0676L65.4848 25.07L65.4965 25.0725L65.5082 25.075L65.52 25.0775L65.5324 25.0799L65.5447 25.0824L65.5565 25.0849L65.5682 25.0874L65.58 25.0898L65.5917 25.0923L65.6035 25.0948L65.6152 25.0973L65.627 25.0997L65.6387 25.1022L65.6505 25.1047L65.6622 25.1072L65.674 25.1096L65.6857 25.1115L65.6975 25.114L65.7092 25.1158L65.721 25.1183L65.7327 25.1201L65.7445 25.122L65.7562 25.1245L65.7679 25.1263L65.7797 25.1282L65.7914 25.13L65.8032 25.1319L65.8149 25.1337L65.8267 25.1356L65.8384 25.1375L65.8502 25.1393L65.8619 25.1412L65.8737 25.143L65.8854 25.1449L65.8972 25.1467L65.9095 25.1486L65.9225 25.1504L65.9343 25.1517L65.9466 25.1535L65.959 25.1554L65.9708 25.1566L65.9831 25.1585L65.9949 25.1597L66.0066 25.1616L66.019 25.1628L66.0314 25.1641L66.0431 25.1653L66.0555 25.1665L66.0672 25.1678L66.0796 25.169L66.0913 25.1702L66.1037 25.1715L66.1155 25.1727L66.1278 25.174L66.1396 25.1752L66.1519 25.1764L66.1637 25.1777L66.176 25.1789L66.1878 25.1801L66.2002 25.1814L66.2125 25.1826L66.2243 25.1839L66.2366 25.1851L66.249 25.1863L66.2614 25.1876L66.2731 25.1888L66.2855 25.19L66.2985 25.1913L66.3245 25.1931L66.3498 25.195L66.3745 25.1968L66.3999 25.1987L66.4252 25.2006L66.45 25.2024L66.4753 25.2043L66.5001 25.2061L66.5254 25.208L66.5501 25.2098L66.5755 25.2111L66.6002 25.2123L66.6256 25.2135L66.6503 25.2148L66.6757 25.216L66.7004 25.2173L66.7251 25.2185L66.7505 25.2197L66.7752 25.221L66.8006 25.2222L66.8253 25.2234L66.8507 25.2247L66.8754 25.2253L66.9007 25.2259L66.9255 25.2265L66.9508 25.2271L66.9762 25.2278L67.0009 25.2284L67.0263 25.229L67.0516 25.2296L67.077 25.2302L67.1023 25.2309H67.1159H67.1289L67.1549 25.2315H67.1679H67.1808H67.1938H67.2068H67.2198H67.2328H67.2458H67.2588H67.2717H67.2847H67.2977H67.3107L67.3367 25.2321H67.3496H67.3626H67.3756H67.3886H67.4016H67.4146H67.4276H67.4405H67.4535H67.4665H67.4795H67.4925H67.5191H72.2104V22.5637L67.4665 22.5711L67.1221 22.5526L66.962 22.5365L66.8086 22.5155L66.6627 22.4895L66.5242 22.4592L66.3931 22.4239L66.2688 22.3843L66.1519 22.3398L66.0419 22.2903L65.9386 22.2365L65.8415 22.1777L65.7506 22.1146L65.6653 22.046L65.5855 21.9724L65.5107 21.8932L65.4409 21.8079L65.3759 21.7169L65.3153 21.6192L65.2591 21.514L65.2077 21.4021L65.1607 21.2821L65.1181 21.1547L65.0804 21.0186L65.047 20.8745L65.0185 20.7217L64.995 20.5609L64.9932 20.5454L64.9913 20.5287L64.9895 20.512L64.9876 20.4953L64.9858 20.4786L64.9839 20.4619L64.982 20.4452L64.9802 20.4285L64.9783 20.4118L64.9765 20.3951L64.9746 20.3784L64.9734 20.3617L64.9715 20.345L64.9703 20.3283L64.9691 20.3116L64.9678 20.2949L64.9666 20.2782L64.9654 20.2615L64.9641 20.2448L64.9629 20.2281L64.9616 20.2114L64.9604 20.1947L64.9592 20.178L64.9586 20.1613L64.9579 20.1446L64.9573 20.1279L64.9567 20.1112L64.9561 20.1013H72.219V17.4323H64.9907L65.0154 17.2226L65.0408 17.0723L65.0711 16.9282L65.1057 16.7902L65.1447 16.6585L65.188 16.5329L65.2356 16.4136L65.2875 16.3004L65.3438 16.1934L65.4044 16.0919L65.4693 15.996L65.5379 15.9057L65.6115 15.821L65.6894 15.7412L65.7717 15.6664L65.8588 15.5965L65.9504 15.5315L66.0474 15.4709L66.1495 15.4152L66.257 15.3639L66.3702 15.3169L66.4889 15.2748L66.6132 15.2377L66.7437 15.2049L66.8797 15.1771L67.0219 15.1542L67.1697 15.1363L67.4844 15.1159L72.2196 15.1134V12.445H67.5957L67.2198 12.4512L66.8537 12.4691L66.4994 12.5001L66.1569 12.5433L65.8261 12.599L65.507 12.6677L65.1997 12.7487L64.9029 12.8427ZM54.8828 22.5148H52.1152V19.4277L55.1796 19.4289L55.4436 19.4419L55.4535 19.4426L55.4647 19.4438L55.4758 19.445L55.4869 19.4463L55.4981 19.4475L55.5092 19.4487L55.5203 19.45L55.5314 19.4512L55.5426 19.4524L55.5537 19.4537L55.5648 19.4549L55.576 19.4562L55.5871 19.4574L55.5982 19.4586L55.6094 19.4599L55.6205 19.4611L55.6316 19.4623L55.6427 19.4636L55.6539 19.4648L55.665 19.4661L55.6761 19.4673L55.6873 19.4685L55.6984 19.4698L55.7095 19.471L55.7207 19.4729L55.7318 19.4741L55.7429 19.476L55.754 19.4778L55.7652 19.4797L55.7763 19.4815L55.7874 19.4834L55.7967 19.4846L56.0094 19.5291L56.2005 19.5854L56.3711 19.6522L56.5214 19.7296L56.6531 19.8174L56.7669 19.9145L56.864 20.0227L56.9462 20.1427L57.0142 20.2757L57.068 20.4242L57.1076 20.5887L57.1317 20.7712L57.1403 20.9716L57.1317 21.1955L57.107 21.3953L57.0668 21.571L57.0117 21.7243L56.9425 21.8586L56.9035 21.918L56.8609 21.973L56.7613 22.0769L56.6444 22.1685L56.5072 22.2495L56.3476 22.32L56.164 22.38L55.9556 22.4295L55.9463 22.4313L55.9352 22.4332L55.9241 22.4351L55.913 22.4369L55.9018 22.4388L55.8907 22.4406L55.8796 22.4425L55.8684 22.4443L55.8573 22.4462L55.8462 22.448L55.835 22.4499L55.8239 22.4518L55.8128 22.4536L55.8017 22.4555L55.7905 22.4573L55.7794 22.4592L55.7683 22.461L55.7571 22.4629L55.746 22.4641L55.7349 22.466L55.7237 22.4672L55.7126 22.4691L55.7015 22.4703L55.6904 22.4715L55.6792 22.4728L55.6681 22.474L55.657 22.4753L55.6458 22.4765L55.6347 22.4777L55.6236 22.479L55.6124 22.4802L55.6019 22.4814L55.5902 22.4827L55.5772 22.4839L55.5642 22.4852L55.5512 22.4864L55.5382 22.4876L55.5253 22.4889L55.5123 22.4901L55.4993 22.4907L55.4863 22.492L55.4733 22.4926L55.4603 22.4932L55.4474 22.4938L55.4344 22.4944L55.4214 22.4951L55.4084 22.4957L55.3954 22.4963L55.3824 22.4969L55.3694 22.4975L55.3565 22.4981L55.3435 22.4988L55.3305 22.4994L55.3175 22.5L55.3045 22.5006L55.2915 22.5012L55.2785 22.5019L55.2656 22.5025L55.2526 22.5031L55.2396 22.5037L55.2266 22.5043L55.2136 22.5049L55.2006 22.5056L55.1889 22.5062L54.8828 22.5148ZM55.1431 25.234L55.1753 25.2333L55.2081 25.2327L55.2402 25.2321L55.273 25.2315L55.3051 25.2309L55.3379 25.2302L55.3701 25.2296L55.4022 25.229L55.435 25.2284L55.4671 25.2278L55.4993 25.2271L55.5321 25.2265L55.5642 25.2259L55.597 25.2253L55.6291 25.2247L55.6613 25.2241L55.6934 25.2234L55.7262 25.2222L55.7584 25.221L55.7911 25.2197L55.8233 25.2185L55.8555 25.2173L55.8882 25.216L55.9204 25.2148L55.9531 25.2135L55.9853 25.2123L56.0181 25.2111L56.0502 25.2098L56.083 25.208L56.1158 25.2061L56.1368 25.2049L56.1572 25.2036L56.1776 25.2024L56.1986 25.2012L56.219 25.1999L56.2394 25.1987L56.2605 25.1975L56.2809 25.1962L56.3013 25.195L56.3223 25.1937L56.3427 25.1925L56.3631 25.1913L56.3835 25.1894L56.4039 25.1876L56.4243 25.1863L56.4453 25.1845L56.4657 25.1826L56.4862 25.1808L56.5066 25.1789L56.527 25.177L56.5474 25.1752L56.5678 25.1733L56.5888 25.1715L56.6092 25.1696L56.6296 25.1678L56.65 25.1659L56.6704 25.1641L56.6908 25.1622L56.7118 25.1603L56.7322 25.1585L56.7527 25.1566L56.7737 25.1542L56.7891 25.1523L56.804 25.1504L56.8188 25.1486L56.8337 25.1467L56.8485 25.1449L56.8633 25.143L56.8782 25.1412L56.893 25.1393L56.9079 25.1375L56.9227 25.1356L56.9375 25.1337L56.9524 25.1319L56.9672 25.13L56.9821 25.1282L56.9969 25.1263L57.0117 25.1239L57.0266 25.122L57.0414 25.1201L57.0563 25.1177L57.0711 25.1152L57.0859 25.1127L57.1008 25.1102L57.1156 25.1078L57.1305 25.1053L57.1453 25.1028L57.1601 25.1003L57.175 25.0979L57.1898 25.0954L57.2047 25.0929L57.2195 25.0905L57.2343 25.088L57.2498 25.0855L57.264 25.083L57.2782 25.0806L57.2918 25.0781L57.3061 25.0756L57.3197 25.0731L57.3339 25.0707L57.3475 25.0682L57.3611 25.0657L57.3747 25.0632L57.3883 25.0608L57.4025 25.0583L57.4161 25.0558L57.4297 25.0533L57.4433 25.0502L57.4569 25.0478L57.4712 25.0453L57.4848 25.0422L57.499 25.0391L57.5126 25.036L57.5262 25.0329L57.5398 25.0298L57.5534 25.0267L57.567 25.0236L57.5806 25.0206L57.5942 25.0175L57.6078 25.0144L57.6214 25.0113L57.635 25.0082L57.6486 25.0051L57.6622 25.002L57.6758 24.9989L57.69 24.9952L57.7036 24.9915L57.7166 24.9884L57.7296 24.9847L57.742 24.9816L57.755 24.9779L57.7673 24.9742L57.7797 24.9705L57.7927 24.9667L57.8051 24.963L57.8174 24.9593L57.8304 24.9556L57.8428 24.9519L57.8551 24.9482L57.8681 24.9445L57.8805 24.9408L57.8935 24.9371L57.9058 24.9333L57.9182 24.9296L57.9306 24.9259L57.9429 24.9222L57.9553 24.9185L57.9677 24.9148L57.98 24.9111L57.9924 24.9067L58.0048 24.9024L58.0171 24.8981L58.0295 24.8938L58.0419 24.8894L58.0542 24.8851L58.0672 24.8808L58.0796 24.8764L58.0932 24.8721L58.1025 24.8684L58.1111 24.8653L58.1198 24.8622L58.1284 24.8591L58.1371 24.856L58.1458 24.8529L58.1544 24.8498L58.1631 24.8461L58.1717 24.843L58.1804 24.8399L58.189 24.8362L58.1977 24.8331L58.2064 24.83L58.215 24.8263L58.2237 24.8226L58.2323 24.8189L58.241 24.8158L58.2496 24.8121L58.2583 24.8084L58.267 24.8047L58.2756 24.801L58.2843 24.7973L58.2929 24.7935L58.3016 24.7898L58.3102 24.7861L58.3189 24.7824L58.3275 24.7787L58.3362 24.775L58.3449 24.7713L58.3535 24.7676L58.3622 24.7639L58.3715 24.7595L58.3807 24.7552L58.3888 24.7515L58.3968 24.7472L58.4048 24.7434L58.4129 24.7397L58.4209 24.736L58.429 24.7317L58.437 24.728L58.445 24.7237L58.4531 24.7199L58.4611 24.7156L58.4691 24.7113L58.4772 24.707L58.4852 24.7026L58.4933 24.6983L58.5013 24.694L58.5093 24.6896L58.5174 24.6853L58.5254 24.681L58.5335 24.6766L58.5415 24.6723L58.5495 24.668L58.5576 24.6637L58.5656 24.6593L58.5736 24.655L58.5817 24.6507L58.5891 24.6463L58.5971 24.642L58.6052 24.6377L58.6132 24.6333L58.6213 24.629L58.6305 24.6241L58.641 24.6179L58.6509 24.6117L58.6602 24.6055L58.6695 24.5999L58.6788 24.5938L58.688 24.5882L58.6973 24.582L58.7066 24.5758L58.7159 24.5696L58.7251 24.5635L58.7344 24.5573L58.7437 24.5511L58.753 24.5449L58.7622 24.5387L58.7715 24.5325L58.7808 24.5263L58.7901 24.5202L58.7993 24.514L58.8086 24.5078L58.8179 24.5016L58.8272 24.4954L58.8364 24.4892L58.8457 24.483L58.855 24.4769L58.8643 24.4707L58.8735 24.4645L58.8828 24.4583L58.8921 24.4521L58.9014 24.4459L58.9106 24.4397L58.9199 24.4336L58.9304 24.4261L59.1345 24.2672L59.3262 24.0952L59.5049 23.9115L59.6706 23.7154L59.8227 23.5082L59.9606 23.2893L60.0842 23.0592L60.1937 22.8185L60.2889 22.568L60.3699 22.307L60.4361 22.0361L60.4874 21.7559L60.5245 21.4664L60.5467 21.1677L60.5474 21.1522L60.548 21.138L60.5486 21.1237L60.5492 21.1095L60.5498 21.0953L60.5505 21.0811L60.5511 21.0668L60.5517 21.0526L60.5523 21.0384L60.5529 21.0242V21.0099L60.5535 20.9957V20.9815L60.5542 20.9673V20.953V20.9388V20.9246V20.9104V20.8961V20.8819V20.8677V20.8534V20.8392V20.825V20.8108V20.7965V20.7823V20.7681V20.7539V20.7396V20.7254V20.7106L60.5535 20.697L60.5529 20.6846L60.5523 20.6722L60.5517 20.6592L60.5511 20.6469L60.5505 20.6345L60.5498 20.6221L60.5492 20.6091L60.5486 20.5968L60.548 20.5844L60.5474 20.572L60.5467 20.5596L60.5461 20.5473L60.5455 20.5349L60.5449 20.5225L60.5443 20.5102L60.5437 20.4978L60.543 20.4854L60.5424 20.4724L60.5418 20.4601L60.5412 20.4477L60.5406 20.4347L60.5399 20.4223L60.5393 20.41L60.5387 20.3976L60.5381 20.3852L60.5375 20.3728L60.5369 20.3605L60.5362 20.3475L60.5356 20.3351L60.535 20.3227L60.5338 20.3091L60.5325 20.2961L60.5313 20.2838L60.53 20.272L60.5288 20.2603L60.5276 20.2485L60.5263 20.2361L60.5251 20.2244L60.5239 20.2126L60.5226 20.2009L60.5214 20.1891L60.5202 20.1774L60.5189 20.1656L60.5177 20.1539L60.5164 20.1421L60.5152 20.1304L60.514 20.1186L60.5121 20.1069L60.5109 20.0951L60.5096 20.0834L60.5078 20.0716L60.5066 20.0599L60.5047 20.0481L60.5028 20.0364L60.501 20.0246L60.4991 20.0128L60.4973 20.0011L60.4954 19.9893L60.4936 19.9776L60.4917 19.9652L60.4899 19.9535L60.488 19.9417L60.4861 19.9287L60.4837 19.9164L60.4818 19.9052L60.4793 19.8941L60.4775 19.883L60.4756 19.8718L60.4732 19.8607L60.4707 19.8496L60.4682 19.8384L60.4657 19.8273L60.4633 19.8162L60.4608 19.805L60.4583 19.7939L60.4559 19.7828L60.4534 19.7716L60.4509 19.7605L60.4484 19.7493L60.446 19.7382L60.4435 19.7271L60.441 19.7159L60.4385 19.7048L60.4361 19.6937L60.4336 19.6825L60.4311 19.6714L60.4286 19.6603L60.4262 19.6491L60.4237 19.638L60.4212 19.6269L60.4188 19.6157L60.4163 19.6046L60.4138 19.5935L60.4113 19.5823L60.4082 19.57L60.4051 19.5582L60.4027 19.5477L60.3996 19.5372L60.3965 19.5267L60.3934 19.5162L60.3903 19.5056L60.3872 19.4951L60.3841 19.4846L60.381 19.4741L60.3779 19.4636L60.3748 19.4531L60.3718 19.4426L60.3687 19.432L60.3656 19.4215L60.3625 19.411L60.3594 19.4005L60.3563 19.39L60.3532 19.3795L60.3501 19.3689L60.347 19.3584L60.3439 19.3479L60.3408 19.3374L60.3377 19.3269L60.3347 19.3164L60.3309 19.3059L60.3279 19.2953L60.3241 19.2848L60.3204 19.2743L60.3167 19.2638L60.313 19.2533L60.3093 19.2428L60.305 19.2304L60.2209 19.0164L60.1238 18.8116L60.0137 18.6162L59.8913 18.43L59.8839 18.4201L59.8777 18.4114L59.8715 18.4028L59.8653 18.3947L59.8592 18.3867L59.853 18.3787L59.8468 18.37L59.8406 18.362L59.8344 18.3539L59.8282 18.3459L59.8221 18.3378L59.8159 18.3298L59.8097 18.3218L59.8035 18.3137L59.7973 18.3057L59.7911 18.2976L59.785 18.2896L59.7788 18.2816L59.7726 18.2735L59.7658 18.2655L59.7596 18.2574L59.7534 18.2494L59.7466 18.2413L59.7398 18.2333L59.7336 18.2253L59.7268 18.2172L59.72 18.2092L59.7132 18.2011L59.7064 18.1931L59.6996 18.1851L59.6928 18.177L59.6854 18.1677L59.6774 18.1591L59.6706 18.1517L59.6631 18.1442L59.6563 18.1368L59.6489 18.1294L59.6415 18.122L59.6341 18.1145L59.6273 18.1071L59.6199 18.0997L59.6124 18.0923L59.605 18.0849L59.5976 18.0774L59.5902 18.07L59.5828 18.0626L59.5753 18.0552L59.5679 18.0477L59.5605 18.0403L59.5531 18.0329L59.5457 18.0255L59.5382 18.0181L59.5308 18.0106L59.5234 18.0032L59.516 17.9958L59.5086 17.9884L59.5011 17.9809L59.4937 17.9735L59.4863 17.9661L59.4789 17.9587L59.4715 17.9513L59.464 17.9438L59.4566 17.9364L59.4486 17.9284L59.4399 17.9203L59.4319 17.9129L59.4239 17.9055L59.4158 17.8981L59.4078 17.8906L59.3997 17.8832L59.3917 17.8758L59.3837 17.869L59.3756 17.8622L59.3676 17.8548L59.3595 17.848L59.3515 17.8412L59.3435 17.8343L59.3354 17.8275L59.3274 17.8207L59.3194 17.8139L59.3113 17.8071L59.3033 17.8003L59.2952 17.7935L59.2872 17.7867L59.2792 17.7799L59.2711 17.7731L59.2631 17.7663L59.255 17.7595L59.247 17.7527L59.239 17.7459L59.2309 17.7391L59.2229 17.7323L59.2149 17.7255L59.2068 17.7187L59.1988 17.7119L59.1895 17.7045L59.0009 17.564L58.7864 17.4249L58.5681 17.3024L58.5563 17.2962L58.5458 17.2906L58.5353 17.2857L58.5248 17.2808L58.5143 17.2758L58.5038 17.2709L58.4933 17.2659L58.4827 17.261L58.4722 17.256L58.4617 17.2511L58.4512 17.2461L58.4407 17.2412L58.4302 17.2362L58.4197 17.2313L58.4092 17.2263L58.3987 17.2214L58.3881 17.2164L58.3776 17.2115L58.3671 17.2065L58.3566 17.2016L58.3461 17.1966L58.3356 17.1917L58.3251 17.1874L58.3146 17.1824L58.3041 17.1781L58.2935 17.1731L58.283 17.1688L58.2725 17.1645L58.262 17.1601L58.2515 17.1552L58.241 17.1509L58.2292 17.1459L58.2175 17.1416L58.207 17.1373L58.1958 17.1329L58.1853 17.1286L58.1748 17.1243L58.1643 17.1199L58.1538 17.1156L58.1427 17.1113L58.1322 17.1069L58.1216 17.1032L58.1111 17.0989L58.1 17.0946L58.0895 17.0909L58.079 17.0871L58.0678 17.0828L58.0573 17.0791L58.0462 17.0754L58.0357 17.0717L58.0246 17.068L58.0141 17.0643L58.0029 17.0606L57.9924 17.0568L57.9813 17.0531L57.9702 17.0494L57.959 17.0457L57.9479 17.042L57.9368 17.0383L57.9256 17.0346L57.9145 17.0309L57.9034 17.0272L57.8922 17.0234L57.8805 17.0191L57.8687 17.0154L57.8576 17.0123L57.8465 17.0092L57.8354 17.0061L57.8242 17.003L57.8131 16.9999L57.802 16.9968L57.7908 16.9938L57.7797 16.9907L57.7686 16.9876L57.771 16.9795L57.7599 16.9764L57.7488 16.9733L57.7377 16.9702L57.7265 16.9672L57.7154 16.9641L57.7043 16.961L57.6931 16.9579L57.682 16.9548L57.6709 16.9517L57.6597 16.9486L57.6486 16.9455L57.6375 16.9424L57.6264 16.9399L57.6152 16.9368L57.6041 16.9344L57.593 16.9313L57.5818 16.9288L57.5707 16.9263L57.5596 16.9232L57.5484 16.9208L57.5367 16.9177L57.5243 16.9152L57.5132 16.9127L57.5021 16.9102L57.4909 16.9078L57.4798 16.9053L57.4687 16.9028L57.4576 16.9004L57.4464 16.8979L57.4353 16.8954L57.4242 16.8929L57.413 16.8905L57.4019 16.888L57.3908 16.8855L57.3796 16.883L57.3685 16.8806L57.3574 16.8781L57.3463 16.8756L57.3351 16.8731L57.324 16.8707L57.3129 16.8682L57.3017 16.8657L57.2906 16.8639L57.2795 16.8614L57.2683 16.8589L57.2572 16.8571L57.2461 16.8546L57.2343 16.8527L57.2232 16.8509L57.2121 16.8484L57.2009 16.8465L57.1898 16.8447L57.1774 16.8422L57.1614 16.8397L57.1453 16.8373L57.1298 16.8348L57.1138 16.8323L57.0983 16.8298L57.0828 16.8274L57.0668 16.8249L57.0513 16.8224L57.0352 16.8199L57.0198 16.8175L57.0043 16.8156L56.9882 16.8131L56.9728 16.8113L56.9573 16.8088L56.9412 16.8069L56.9258 16.8051L56.9103 16.8032L56.8943 16.8014L56.8788 16.7995L56.8633 16.7977L56.8473 16.7958L56.8312 16.794L56.8157 16.7921L56.7996 16.7902L56.7842 16.7884L56.7681 16.7865L56.7527 16.7847L56.7366 16.7828L56.7205 16.781L56.7044 16.7791L56.6883 16.7773L56.6723 16.7754L56.6593 16.7742L56.6469 16.7729L56.6345 16.7717L56.6222 16.7705L56.6098 16.7698L56.5975 16.7686L56.5845 16.7674L56.561 16.7655L56.5486 16.7649L56.5362 16.7637L56.5239 16.763L56.5115 16.7624L56.4991 16.7618L56.4868 16.7612L56.4744 16.7606L56.462 16.7599L56.4497 16.7593L56.4373 16.7587L56.4249 16.7581L56.4126 16.7575L56.4002 16.7568L56.3878 16.7562L56.3755 16.7556L56.3631 16.755L56.3507 16.7544L56.3384 16.7538L56.3149 16.7525L56.3019 16.7519L56.2895 16.7513L56.2772 16.7507L56.2376 16.7488L56.198 16.747L56.1584 16.7451L56.1195 16.7432L56.0799 16.742L56.0409 16.7408L56.0014 16.7395L55.9624 16.7383L55.9229 16.7371L55.8839 16.7358L55.8443 16.7346L55.8054 16.734L55.7664 16.7327L55.7268 16.7321L55.6879 16.7315L55.6489 16.7309L55.6094 16.7303L55.5704 16.7296L55.5314 16.729L55.4925 16.7284L55.4529 16.7278L55.414 16.7272L55.375 16.7265L55.3361 16.7259H55.2977H55.2581H55.2192H55.1802H55.1413H55.1017H55.0627H55.0238H52.1158V15.135H59.6854V12.4159L48.9629 12.4388V25.2352L55.0794 25.2346L55.1122 25.234H55.1431Z" fill="#009E47"/>
<path fill-rule="evenodd" clip-rule="evenodd" d="M19.3003 37.1511C29.1615 37.1511 37.2035 29.1058 37.2035 19.2413C37.2035 9.37677 29.1609 1.33203 19.3003 1.33203C9.43976 1.33203 1.39648 9.37739 1.39648 19.2419C1.39648 29.1064 9.43915 37.1511 19.3003 37.1511Z" fill="white"/>
<path fill-rule="evenodd" clip-rule="evenodd" d="M19.3011 36.1011C28.5847 36.1011 36.1562 28.5265 36.1562 19.2403C36.1562 9.95417 28.5841 2.37891 19.3011 2.37891C10.018 2.37891 2.44531 9.95356 2.44531 19.2403C2.44531 28.5271 10.0174 36.1011 19.3011 36.1011Z" fill="#009E47"/>
<path fill-rule="evenodd" clip-rule="evenodd" d="M28.798 14.8495L28.7325 14.8483H28.6657H28.5977L28.5272 14.8489L28.4549 14.8514L28.3794 14.8557L28.3015 14.8619L28.2205 14.8712L28.1376 14.8841L28.0517 14.9008L27.9639 14.9219L27.8755 14.9479L27.7864 14.9788L27.6974 15.014L27.609 15.0549L27.5224 15.1006L27.4377 15.1501L27.3548 15.2039L27.2738 15.2615L27.1941 15.3233L27.1168 15.3883L27.0401 15.4563L27.0148 15.481V10.5977H20.5272L20.4542 10.5989L20.3739 10.6032L20.2941 10.61L20.2149 10.6199L20.1364 10.6317L20.0585 10.6465L19.9818 10.6638L19.9058 10.6836L19.8316 10.7059L19.7574 10.7306L19.685 10.7579L19.6133 10.7869L19.5434 10.8185L19.4748 10.8525L19.4068 10.8878L19.3406 10.9261L19.2986 10.9521L19.2726 10.936L19.2077 10.8983L19.1415 10.8624L19.0741 10.829L19.0049 10.7974L18.935 10.7684L18.8639 10.7412L18.7915 10.7164L18.7186 10.6935L18.6438 10.6737L18.5689 10.6558L18.4929 10.6403L18.4267 10.6292L18.2295 10.5977H11.5861V15.4817L11.5601 15.4563L11.4835 15.3883L11.4062 15.3233L11.327 15.2615L11.2454 15.2039L11.1625 15.1501L11.0778 15.1006L10.9913 15.0549L10.9028 15.014L10.8138 14.9788L10.7248 14.9479L10.6363 14.9219L10.5485 14.9008L10.4632 14.8841L10.3797 14.8712L10.2987 14.8619L10.2208 14.8557L10.1454 14.8514L10.073 14.8489L10.0026 14.8483H9.93454L9.86776 14.8489L9.80221 14.8495L9.73729 14.8507L9.67298 14.8514L9.60868 14.852L9.54128 14.8526H4.66016L19.3004 32.5305L33.9401 14.8526H29.059L28.9916 14.852L28.9273 14.8514L28.863 14.8507L28.798 14.8495Z" fill="white"/>
<path fill-rule="evenodd" clip-rule="evenodd" d="M19.2994 26.1781L11.4898 16.6415C11.4466 16.5883 11.4027 16.5351 11.3594 16.4819C10.6229 15.5825 10.3237 15.6963 9.54271 15.6963H9.36401H6.46094L19.2994 31.1988L32.1378 15.6963H29.2354H29.0567C28.2757 15.6963 27.9765 15.5832 27.24 16.4819C27.1967 16.5351 27.1528 16.5883 27.1096 16.6415L19.2994 26.1781ZM18.4343 11.4915L18.482 11.5045L18.5289 11.5187L18.5747 11.5348L18.6198 11.5521L18.6644 11.5707L18.7083 11.5905L18.7515 11.6121L18.7936 11.635L18.835 11.6591L18.8758 11.6845L18.9154 11.7111L18.9544 11.7389L18.9921 11.768L19.0292 11.7983L19.065 11.8298L19.0997 11.862L19.1337 11.8954L19.1664 11.9301L19.198 11.9653L19.2283 12.0018L19.258 12.0395L19.2864 12.0779L19.2994 12.0964L19.3136 12.076L19.3421 12.0371L19.3717 11.9987L19.4027 11.9616L19.4348 11.9257L19.4682 11.8905L19.5028 11.8564L19.5381 11.8237L19.5745 11.7921L19.6123 11.7618L19.6506 11.7327L19.6902 11.7049L19.7304 11.6783L19.7718 11.6529L19.8138 11.6288L19.8571 11.6059L19.901 11.5843L19.9455 11.5645L19.9913 11.5459L20.0377 11.5286L20.0847 11.5132L20.1323 11.4989L20.1805 11.4866L20.2294 11.4754L20.2788 11.4661L20.3289 11.4581L20.3796 11.4519L20.4303 11.4476L20.4816 11.4451L20.533 11.4445H23.1535V14.2941H24.5936V11.4445H26.166V16.3656L24.5936 18.2862V15.8677H23.1535V20.0447L21.581 21.9653V13.015H20.46V13.0119L20.0859 13.015V22.5962H21.0616L19.2994 24.7481L17.5371 22.5962H18.5135V13.0131L18.1617 13.0144V13.015H14.0046V14.291H17.0728V21.9999L12.4322 16.3304V11.4414H18.161V11.4482L18.1895 11.4501L18.2396 11.455L18.289 11.4618L18.3379 11.4699L18.3861 11.4798L18.4343 11.4915ZM15.5004 17.6157V15.8646H14.0782L15.5004 17.6157Z" fill="#E63312"/>
<path fill-rule="evenodd" clip-rule="evenodd" d="M19.1499 37.3121C29.1465 37.3121 37.2999 29.156 37.2999 19.156C37.2999 9.15608 29.1465 1 19.1499 1C9.15334 1 1 9.15608 1 19.156C1 29.156 9.15334 37.3121 19.1499 37.3121Z" stroke="#009640" stroke-width="1.0001" stroke-miterlimit="2.4142"/>
</svg>
