<svg width="200" height="72" viewBox="0 0 200 72" fill="none" xmlns="http://www.w3.org/2000/svg">
<path d="M1 39.0677H7.42743C7.42743 39.0677 7.71959 40.3679 9.43079 40.2461H21.3257C21.3257 40.2461 22.4109 40.3273 22.4109 39.2303C22.4109 38.0519 21.3675 38.1738 21.3675 38.1738H7.3857C5.09018 38.1738 1.58431 36.7111 1.58431 32.2822C1.58431 32.2822 1.95994 27.0406 6.75965 27.0406H22.4109C22.4109 27.0406 28.087 26.9594 28.5879 32.7698H22.3691C22.3691 32.7698 22.077 31.7133 21.1588 31.7133H8.88821C8.88821 31.7133 7.71959 31.754 7.71959 32.7291C7.71959 32.7291 7.59438 33.7449 8.80474 33.7449H22.2857C22.2857 33.7449 28.5044 33.5824 28.6714 39.3521C28.6714 39.3521 29.0052 44.9594 22.2857 44.9594H7.17701C7.17701 44.9594 1 45 1 39.0677Z" fill="#005A96"/>
<path d="M29.9652 27.0406V31.754H40.5663V44.9594H46.9937V31.754H57.3444V27.0406H29.9652Z" fill="#005A96"/>
<path d="M117.278 27V44.9594H140.025V40.246H123.664V27H117.278Z" fill="#005A96"/>
<path d="M142.821 27V45H143.948L168.948 44.9594V40.246H149.29V38.0926H167.487V33.7856H149.207V31.754H168.948V27.0406L142.821 27Z" fill="#005A96"/>
<path d="M199.499 42.0339C199.583 40.8962 199.416 39.3115 198.748 38.377C197.788 36.9955 196.578 36.5485 196.578 36.5485C201.002 34.7201 199.165 30.3318 199.165 30.3318C198.205 27.3251 193.781 27.0406 192.905 27.0406H172.704V44.9594H179.173V39.4334C179.173 39.4334 188.898 39.4334 191.027 39.4334C193.28 39.4334 193.28 41.6682 193.28 41.6682C193.239 44.8781 193.656 44.9594 193.656 44.9594H200C199.499 44.4312 199.416 43.1716 199.499 42.0339ZM192.154 34.8014L179.173 34.7607V31.9977L192.028 32.0384C192.028 32.0384 193.447 32.079 193.364 33.4199C193.322 33.4605 193.406 34.8014 192.154 34.8014Z" fill="#005A96"/>
<path d="M107.178 27.0406H86.0174V44.9594H107.053C109.473 44.9594 115.233 43.3341 115.233 35.9797C115.233 28.3815 109.265 27.0406 107.178 27.0406ZM105.008 40.2461H92.4031V31.7133H105.216C105.216 31.7133 108.597 31.7133 108.597 36.1828C108.597 40.3273 105.008 40.2461 105.008 40.2461Z" fill="#005A96"/>
<path d="M72.9538 27.0406H64.7735L52.5864 44.9594H59.932L61.9771 42.2777H75.6667L77.5866 44.9594H84.8905L72.9538 27.0406ZM65.1074 37.8081L68.8637 32.1603L72.7034 37.8081H65.1074Z" fill="#005A96"/>
</svg>
