<svg width="88" height="74" viewBox="0 0 88 74" fill="none" xmlns="http://www.w3.org/2000/svg">
<path fill-rule="evenodd" clip-rule="evenodd" d="M68.0076 43.3674V38.3828H70.2221V43.3674H72.9902V38.3828H75.7584V43.3674H78.5265V38.3828H87.0155V35.6135H78.5265V30.6289H75.7584V35.6135H72.9902V30.6289H70.2221V35.6135H68.0076V34.7828L67.9153 33.952L67.7307 33.2135L67.3617 32.4751L66.808 31.8289L66.1621 31.3674L65.5162 30.9981L64.6858 30.7212L63.8553 30.6289L63.0249 30.7212L62.2867 30.9981L61.5486 31.3674L60.9949 31.8289L60.4413 32.4751L60.0722 33.2135L59.7954 33.952L59.7031 34.7828V43.3674H62.4713V38.3828H64.1322H65.2394V43.3674H68.0076ZM65.2394 34.7828V35.6135H62.4713V34.7828L62.5635 34.5058L62.6558 34.2289L62.7481 33.952L62.9326 33.7674L63.394 33.4904L63.8553 33.3981L64.409 33.4904L64.8703 33.7674L65.0549 33.952L65.1471 34.2289L65.2394 34.5058V34.7828Z" fill="#6465A3" stroke="black" stroke-width="0.25" stroke-miterlimit="10" stroke-linecap="square"/>
<path fill-rule="evenodd" clip-rule="evenodd" d="M57.4892 34.7828V43.3674H54.721V34.7828V34.5058L54.6288 34.2289L54.4442 33.952L54.2597 33.7674L53.8906 33.4904L53.3369 33.3981L52.8756 33.4904L52.4142 33.7674L52.2297 33.952L52.1374 34.1366L52.0451 34.4135L51.9529 34.6904V43.3674H49.1847V34.7828V34.5058L49.0925 34.2289L48.9079 33.952L48.7234 33.7674L48.3543 33.4904L47.8007 33.3981L47.3393 33.4904L46.8779 33.7674L46.6934 33.952L46.5089 34.2289V34.5058L46.4166 34.7828V43.3674H43.6484V34.7828V30.6289H47.8007H53.3369L54.1674 30.7212L54.9978 30.9981L55.6437 31.3674L56.2896 31.9212L56.8433 32.4751L57.2124 33.2135L57.3969 33.952L57.4892 34.7828Z" fill="#6465A3" stroke="black" stroke-width="0.25" stroke-miterlimit="10" stroke-linecap="square"/>
<path fill-rule="evenodd" clip-rule="evenodd" d="M35.6206 30.6289L36.2665 30.7212L36.9124 30.8135L37.5583 30.9058L38.112 31.1828L38.6656 31.4597L39.2192 31.7366L39.6806 32.1058L40.1419 32.5674L40.6033 33.0289L40.9724 33.4904L41.2492 34.0443L41.526 34.5981L41.7106 35.152L41.8951 35.7981L41.9874 36.352V36.9981V37.7366L41.8951 38.2904L41.7106 38.9366L41.526 39.4904L41.2492 40.0443L40.9724 40.5981L40.6033 41.0597L40.1419 41.5212L39.6806 41.9827L39.2192 42.352L38.6656 42.6289L38.112 42.9058L37.5583 43.0904L36.9124 43.2751L36.2665 43.3674L35.6206 43.4597L34.9747 43.3674L34.3288 43.2751L33.7752 43.0904L33.1293 42.9058L32.5757 42.6289L32.1143 42.352L31.5607 41.9827L31.0993 41.5212L30.7303 41.0597L30.3612 40.5981L30.0843 40.0443L29.8075 39.4904L29.5307 38.9366L29.4384 38.2904L29.3462 37.7366L29.2539 36.9981L29.3462 36.352L29.4384 35.7981L29.5307 35.152L29.8075 34.5981L30.0843 34.0443L30.3612 33.4904L30.7303 33.0289L31.0993 32.5674L31.5607 32.1058L32.1143 31.7366L32.5757 31.4597L33.1293 31.1828L33.7752 30.9058L34.3288 30.8135L34.9747 30.7212L35.6206 30.6289ZM34.2366 40.4135L33.7752 40.1366L33.3139 39.8597L32.9448 39.4904L32.668 39.0289L32.3911 38.5674L32.2066 38.1058L32.1143 37.552L32.0221 37.0904L32.1143 36.5366L32.2066 35.9828L32.3911 35.5212L32.668 35.0597L32.9448 34.5981L33.4061 34.2289L33.7752 33.952L34.3288 33.7674L34.2366 40.4135ZM37.0047 33.7674L37.5583 33.952L37.9274 34.3212L38.2965 34.6904L38.6656 35.0597L38.8501 35.5212L39.127 35.9828L39.2192 36.5366V37.0904V37.552L39.127 38.1058L38.8501 38.5674L38.6656 39.0289L38.2965 39.4904L37.9274 39.8597L37.5583 40.1366L37.0047 40.4135V33.7674ZM34.3288 33.6751V40.4135V33.6751ZM37.0047 33.6751V40.4135V33.6751Z" fill="#6465A3"/>
<path d="M35.6206 30.6289L36.2665 30.7212L36.9124 30.8135L37.5583 30.9058L38.112 31.1828L38.6656 31.4597L39.2192 31.7366L39.6806 32.1058L40.1419 32.5674L40.6033 33.0289L40.9724 33.4904L41.2492 34.0443L41.526 34.5981L41.7106 35.152L41.8951 35.7981L41.9874 36.352V36.9981V37.7366L41.8951 38.2904L41.7106 38.9366L41.526 39.4904L41.2492 40.0443L40.9724 40.5981L40.6033 41.0597L40.1419 41.5212L39.6806 41.9827L39.2192 42.352L38.6656 42.6289L38.112 42.9058L37.5583 43.0904L36.9124 43.2751L36.2665 43.3674L35.6206 43.4597L34.9747 43.3674L34.3288 43.2751L33.7752 43.0904L33.1293 42.9058L32.5757 42.6289L32.1143 42.352L31.5607 41.9827L31.0993 41.5212L30.7303 41.0597L30.3612 40.5981L30.0843 40.0443L29.8075 39.4904L29.5307 38.9366L29.4384 38.2904L29.3462 37.7366L29.2539 36.9981L29.3462 36.352L29.4384 35.7981L29.5307 35.152L29.8075 34.5981L30.0843 34.0443L30.3612 33.4904L30.7303 33.0289L31.0993 32.5674L31.5607 32.1058L32.1143 31.7366L32.5757 31.4597L33.1293 31.1828L33.7752 30.9058L34.3288 30.8135L34.9747 30.7212L35.6206 30.6289Z" stroke="#6465A3" stroke-width="0.25" stroke-miterlimit="10" stroke-linecap="square"/>
<path d="M34.236 40.4157L33.7746 40.1388L33.3133 39.8618L32.9442 39.4926L32.6674 39.0311L32.3906 38.5695L32.206 38.108L32.1138 37.5541L32.0215 37.0926L32.1138 36.5388L32.206 35.9849L32.3906 35.5234L32.6674 35.0618L32.9442 34.6003L33.4056 34.2311L33.7746 33.9541L34.3283 33.7695" stroke="#6465A3" stroke-width="0.25" stroke-miterlimit="10" stroke-linecap="square"/>
<path d="M37.0039 33.7695L37.5575 33.9541L37.9266 34.3234L38.2957 34.6926L38.6648 35.0618L38.8493 35.5234L39.1261 35.9849L39.2184 36.5388V37.0926V37.5541L39.1261 38.108L38.8493 38.5695L38.6648 39.0311L38.2957 39.4926L37.9266 39.8618L37.5575 40.1388L37.0039 40.4157" stroke="#6465A3" stroke-width="0.25" stroke-miterlimit="10" stroke-linecap="square"/>
<path d="M34.3281 33.6758V40.4142" stroke="#6465A3" stroke-width="0.25" stroke-miterlimit="10" stroke-linecap="square"/>
<path d="M37.0039 33.6758V40.4142" stroke="#6465A3" stroke-width="0.25" stroke-miterlimit="10" stroke-linecap="square"/>
<path fill-rule="evenodd" clip-rule="evenodd" d="M19.2887 43.3674V38.3828H17.0742V43.3674H14.306V38.3828H11.5379V43.3674H8.76976V38.3828H0.373047V35.6135H8.76976V30.6289H11.5379V35.6135H14.306V30.6289H17.0742V35.6135H19.2887V34.7828L19.381 33.952L19.6578 33.2135L20.0269 32.4751L20.4882 31.8289L21.1341 31.3674L21.8723 30.9981L22.6105 30.7212L23.4409 30.6289L24.2714 30.7212L25.1018 30.9981L25.7477 31.3674L26.3936 31.8289L26.9472 32.4751L27.3163 33.2135L27.5009 33.952L27.5931 34.7828V43.3674H24.825V38.3828H23.2564H22.0569V43.3674H19.2887ZM22.0569 34.7828V35.6135H24.825V34.7828V34.5058L24.7327 34.2289L24.6405 33.952L24.4559 33.7674L23.9946 33.4904L23.4409 33.3981L22.9796 33.4904L22.5182 33.7674L22.3337 33.952L22.2414 34.2289L22.1491 34.5058L22.0569 34.7828Z" fill="#6465A3" stroke="black" stroke-width="0.25" stroke-miterlimit="10" stroke-linecap="square"/>
<path fill-rule="evenodd" clip-rule="evenodd" d="M57.6734 6.90769L56.1048 6.26154L54.4439 5.61538L52.6908 5.06154L50.9376 4.6L49.1845 4.23077L47.4313 4.04615L45.5859 3.86154L43.6482 3.76923L42.2641 3.86154L40.7878 3.95385L39.4037 4.04615L38.0196 4.32308L36.7278 4.6L35.3437 4.87692L34.0519 5.24615L32.7601 5.70769L31.4683 6.16923L30.1765 6.63077L27.7775 7.83077L25.4707 9.21538L23.3484 10.7846L21.2262 12.5385L19.3808 14.4769L17.6276 16.5077L16.059 18.6308L14.6749 20.9385L13.4754 23.3385L12.9218 24.5385L12.3681 25.8308L11.999 27.1231L11.6299 28.4154H8.76953L9.13862 27.0308L9.59997 25.5538L10.0613 24.1692L10.615 22.7846L11.2609 21.4L11.9068 20.1077L12.6449 18.8154L13.4754 17.5231L14.3058 16.3231L15.1363 15.1231L16.059 14.0154L17.074 12.9077L18.089 11.8L19.1039 10.7846L20.2112 9.76923L21.3185 8.84615L22.518 7.92308L23.7175 7.09231L24.917 6.35385L26.2089 5.61538L27.5007 4.87692L28.8847 4.23077L30.2688 3.67692L31.6529 3.12308L33.0369 2.66154L34.5133 2.2L35.9896 1.83077L37.466 1.55385L39.0346 1.36923L40.5109 1.18462L42.0796 1.09231L43.6482 1L45.6781 1.09231L47.7081 1.27692L49.6458 1.55385L51.5835 1.92308L53.429 2.38462L55.2744 2.93846L57.1198 3.67692L58.873 4.41538L57.6734 6.90769ZM78.6191 45.6769L78.25 47.0615L77.7886 48.5385L77.235 49.9231L76.6814 51.3077L76.0355 52.6923L75.3896 53.9846L74.6514 55.2769L73.9132 56.5692L73.0828 57.7692L72.1601 58.9692L71.2374 60.0769L70.3146 61.1846L69.2997 62.2923L68.2847 63.3077L67.1774 64.3231L65.9779 65.2462L64.8706 66.0769L63.6711 67L62.3793 67.7385L61.0875 68.4769L59.7957 69.2154L58.5039 69.8615L57.1198 70.4154L55.7357 70.9692L54.2594 71.4308L52.8753 71.8923L51.399 72.2615L49.8304 72.5385L48.354 72.7231L46.7854 72.9077L45.2168 73H43.6482H42.0796L40.5109 72.9077L39.0346 72.7231L37.466 72.5385L35.9896 72.2615L34.5133 71.8923L33.0369 71.4308L31.6529 70.9692L30.2688 70.4154L28.8847 69.8615L27.5007 69.2154L26.2089 68.4769L24.917 67.7385L23.7175 67L22.518 66.0769L21.3185 65.2462L20.2112 64.3231L19.1039 63.3077L18.089 62.2923L17.074 61.1846L16.059 60.0769L15.1363 58.9692L14.3058 57.7692L13.4754 56.5692L12.6449 55.2769L11.9068 53.9846L11.2609 52.6923L10.615 51.3077L10.0613 49.9231L9.59997 48.5385L9.13862 47.0615L8.76953 45.6769H11.6299L11.999 46.9692L12.3681 48.2615L12.9218 49.5538L13.4754 50.7538L14.6749 53.1538L16.059 55.4615L17.6276 57.5846L19.3808 59.6154L21.2262 61.5538L23.3484 63.3077L25.4707 64.7846L27.7775 66.1692L30.1765 67.3692L31.4683 67.9231L32.7601 68.3846L34.0519 68.8462L35.3437 69.2154L36.7278 69.4923L38.0196 69.7692L39.4037 70.0462L40.7878 70.1385L42.2641 70.2308H43.6482H45.1245L46.5086 70.1385L47.8927 70.0462L49.2767 69.7692L50.6608 69.4923L52.0449 69.2154L53.3367 68.8462L54.6285 68.3846L55.9203 67.9231L57.1198 67.3692L59.5189 66.1692L61.8257 64.7846L64.0402 63.3077L66.0702 61.5538L68.0079 59.6154L69.761 57.5846L71.3296 55.4615L72.7137 53.1538L73.9132 50.7538L74.4669 49.5538L74.9282 48.2615L75.3896 46.9692L75.7587 45.6769H78.6191Z" fill="#6465A3" stroke="black" stroke-width="0.25" stroke-miterlimit="10" stroke-linecap="square"/>
<path fill-rule="evenodd" clip-rule="evenodd" d="M55.3675 11.7992L54.0757 11.2453L52.6916 10.6915L51.2152 10.2299L49.7389 9.8607L48.2626 9.58377L46.7862 9.39916L45.2176 9.21454H43.649L41.3422 9.30685L39.1277 9.58377L37.0054 10.0453L34.8832 10.6915L32.8532 11.4299L30.8232 12.353L28.9778 13.4607L27.2247 14.6607L25.4715 15.953L23.9029 17.4299L22.5188 19.0915L21.1347 20.753L19.9352 22.5069L18.9202 24.4453L17.9975 26.3838L17.2593 28.4145H14.3066L15.1371 26.1069L16.0598 23.8915L17.2593 21.6761L18.5511 19.6453L20.0275 17.7069L21.5961 15.953L23.3492 14.1992L25.1947 12.7222L27.2247 11.3376L29.2546 10.0453L31.4691 9.02993L33.7759 8.10685L36.175 7.36839L38.574 6.90685L41.0654 6.53762L43.649 6.44531H45.4021L47.063 6.62993L48.7239 6.90685L50.3848 7.18377L51.9534 7.553L53.522 8.10685L55.0906 8.6607L56.567 9.30685L55.3675 11.7992ZM72.9913 45.6761L72.2532 47.9838L71.2382 50.1992L70.1309 52.4145L68.8391 54.4453L67.3628 56.3838L65.7941 58.1376L64.041 59.8915L62.1956 61.3684L60.1656 62.753L58.0433 64.0453L55.9211 65.0607L53.6143 65.9838L51.2152 66.7222L48.7239 67.1838L46.2326 67.553L43.649 67.6453L41.0654 67.553L38.574 67.1838L36.175 66.7222L33.7759 65.9838L31.4691 65.0607L29.2546 64.0453L27.2247 62.753L25.1947 61.3684L23.3492 59.8915L21.5961 58.1376L20.0275 56.3838L18.5511 54.4453L17.2593 52.4145L16.0598 50.1992L15.1371 47.9838L14.3066 45.6761H17.2593L17.9975 47.7069L18.9202 49.6453L19.9352 51.5838L21.1347 53.3376L22.5188 54.9992L23.9029 56.6607L25.4715 58.0453L27.2247 59.4299L28.9778 60.6299L30.8232 61.7376L32.8532 62.6607L34.8832 63.3992L37.0054 64.0453L39.1277 64.5069L41.3422 64.7838L43.649 64.8761L45.9558 64.7838L48.1703 64.5069L50.3848 64.0453L52.507 63.3992L54.537 62.6607L56.4747 61.7376L58.4124 60.6299L60.1656 59.4299L61.8265 58.0453L63.3951 56.6607L64.8714 54.9992L66.1632 53.3376L67.3628 51.5838L68.47 49.6453L69.3927 47.7069L70.1309 45.6761H72.9913Z" fill="#6465A3" stroke="black" stroke-width="0.25" stroke-miterlimit="10" stroke-linecap="square"/>
<path fill-rule="evenodd" clip-rule="evenodd" d="M59.5194 18.6293L59.9808 17.8908L60.719 16.4139V16.3216L60.8112 16.2293V16.137L60.9035 16.0447V15.9523V15.86H60.9958V15.6754L61.088 15.4908L61.1803 15.3062V15.1216L61.5494 13.6447V13.5523L61.6417 13.46V13.3677V13.1831V12.9985L61.7339 12.8139V12.6293V12.4447V12.26V12.1677L61.8262 12.0754V11.9831V11.7985V11.2447V10.7831V10.5985V10.5062V10.3216V10.2293L61.7339 10.137V10.0447V9.95234V9.76773V9.58311V9.49081V9.3985V9.30619L61.6417 9.12157V9.02927V8.93696V8.75234L61.5494 8.56773V8.47542V8.29081L61.4571 8.1985V8.01388V7.92157L61.3649 7.82927V7.73696V7.64465V7.46004L61.2726 7.36773V7.27542V7.18311L61.1803 6.9985V6.90619L61.088 6.81388V6.72157V6.62927L60.9958 6.44465V6.35234L60.9035 6.26004V6.07542L60.8112 5.98311V5.89081L60.719 5.7985V5.61388L60.6267 5.52157V5.42927L60.5344 5.15234L60.719 5.33696L60.9958 5.42927L61.2726 5.52157L61.3649 5.61388L61.5494 5.70619L61.7339 5.7985L62.0108 5.98311H62.103L62.5644 6.26004L62.7489 6.44465H62.8412L63.0257 6.53696L63.118 6.62927L63.2103 6.72157H63.3026L63.4871 6.81388L63.5794 6.90619L63.7639 6.9985L63.8562 7.09081L64.0407 7.18311L64.133 7.27542L64.3175 7.36773L64.4098 7.46004L64.5944 7.55234L64.6866 7.64465L64.8712 7.82927H64.9634L65.148 8.01388H65.2403L65.4248 8.1985L65.5171 8.29081L65.7016 8.47542L66.8089 9.30619L67.8239 10.2293L68.7466 11.2447L69.6693 12.26L70.1306 12.8139L70.9611 14.0139L71.6993 15.1216L72.5297 16.6908L73.1756 18.26L73.4524 19.6447L73.7292 20.937V21.6754V22.4139L73.637 23.1523L73.4524 23.7985L73.1756 24.4447L72.8988 25.0908L72.5297 25.6446L72.1606 26.1985L71.607 26.7523L71.1456 27.2139L70.4997 27.5831L69.9461 27.9523L69.3002 28.2293L68.6543 28.5062L67.9161 28.6908L67.178 28.7831H66.4398H65.7016L64.8712 28.6908L64.133 28.5062L63.4871 28.2293L62.8412 27.9523L62.1953 27.5831L61.6417 27.2139L61.088 26.7523L60.6267 26.1985L60.1653 25.737L59.7962 25.0908L59.4272 24.537L59.1503 23.8908L58.9658 23.2446L58.8735 22.5062L58.7812 21.7677L58.8735 21.1216L58.9658 20.4754L59.0581 19.8293L59.2426 19.1831L59.5194 18.6293Z" fill="#6465A3" stroke="black" stroke-width="0.25" stroke-miterlimit="10" stroke-linecap="square"/>
</svg>
