<svg width="200" height="72" viewBox="0 0 200 72" fill="none" xmlns="http://www.w3.org/2000/svg">
<path d="M155.111 10.0795C155.108 10.0682 155.105 10.0572 155.103 10.0459L154.594 9.06386C154.558 8.99529 154.456 9.00932 154.441 9.08492L154.251 10.0005C154.236 10.0696 154.147 10.0895 154.105 10.0331L153.535 9.27653C153.488 9.21416 153.389 9.24627 153.387 9.32426L153.37 10.2716C153.369 10.3415 153.286 10.3779 153.234 10.3316L152.501 9.68489C152.443 9.63393 152.353 9.68333 152.365 9.7593L152.517 10.7046C152.528 10.7744 152.452 10.8247 152.392 10.7868L151.579 10.2711C151.514 10.2296 151.433 10.2932 151.458 10.3664L151.81 11.4119C151.816 11.4219 151.822 11.4317 151.828 11.4417L154.194 13.9665C154.216 13.9896 154.252 13.9909 154.276 13.9705C154.537 13.7485 154.867 13.606 155.229 13.579C155.261 13.5766 155.286 13.5498 155.284 13.5177L155.111 10.0795Z" fill="#49559F"/>
<path d="M151.535 11.7509C151.525 11.7451 151.515 11.7394 151.505 11.7336L150.45 11.3986C150.376 11.3752 150.314 11.4572 150.356 11.5218L150.871 12.3032C150.909 12.3622 150.86 12.4394 150.79 12.4294L149.852 12.2963C149.775 12.2853 149.727 12.3782 149.782 12.4343L150.44 13.1164C150.489 13.1668 150.456 13.2508 150.386 13.2552L149.41 13.3154C149.333 13.3202 149.305 13.4186 149.367 13.4637L150.144 14.0249C150.201 14.0664 150.182 14.156 150.113 14.1714L149.174 14.3805C149.098 14.3973 149.086 14.4996 149.155 14.534L150.144 15.0244C150.156 15.0273 150.167 15.03 150.178 15.0329L153.639 15.1469C153.671 15.148 153.697 15.1238 153.7 15.0923C153.727 14.7509 153.86 14.4171 154.097 14.1422C154.118 14.1178 154.116 14.0815 154.092 14.06L151.535 11.7509Z" fill="#49559F"/>
<path d="M150.19 15.4599C150.179 15.463 150.168 15.4659 150.157 15.469L149.173 15.9773C149.105 16.0128 149.119 16.1148 149.194 16.1304L150.111 16.32C150.18 16.3343 150.2 16.4235 150.144 16.4659L149.386 17.0341C149.324 17.081 149.356 17.1802 149.434 17.1816L150.383 17.1989C150.453 17.2002 150.489 17.2828 150.443 17.3352L149.795 18.0671C149.744 18.1248 149.794 18.2145 149.87 18.2024L150.816 18.0508C150.886 18.0396 150.936 18.1161 150.899 18.1757L150.382 18.9872C150.341 19.0524 150.404 19.1335 150.478 19.1089L151.524 18.757C151.534 18.751 151.544 18.7452 151.554 18.7391L154.083 16.3756C154.106 16.354 154.107 16.3184 154.087 16.2943C153.865 16.0333 153.722 15.7039 153.695 15.3422C153.693 15.3102 153.666 15.2856 153.633 15.2872L150.19 15.4599Z" fill="#49559F"/>
<path d="M151.867 19.0333C151.861 19.0435 151.855 19.0533 151.849 19.0635L151.514 20.1174C151.49 20.1909 151.573 20.2531 151.637 20.2107L152.42 19.6974C152.479 19.6586 152.556 19.7076 152.546 19.7774L152.413 20.7142C152.402 20.7915 152.495 20.8389 152.551 20.7848L153.234 20.1272C153.284 20.0786 153.369 20.1113 153.373 20.1811L153.433 21.1559C153.437 21.2327 153.536 21.2613 153.582 21.1989L154.144 20.4233C154.185 20.366 154.275 20.3845 154.29 20.4535L154.5 21.392C154.516 21.4675 154.619 21.4799 154.653 21.4106L155.144 20.4226C155.148 20.4112 155.15 20.4002 155.153 20.3888L155.267 16.9322C155.268 16.9006 155.244 16.8746 155.212 16.872C154.871 16.8444 154.536 16.7123 154.261 16.4756C154.237 16.4546 154.2 16.4562 154.179 16.48L151.867 19.0333Z" fill="#49559F"/>
<path d="M155.581 20.378C155.584 20.3893 155.587 20.4003 155.589 20.4116L156.098 21.3937C156.134 21.4622 156.236 21.4482 156.252 21.3726L156.442 20.457C156.456 20.3879 156.545 20.368 156.588 20.4244L157.157 21.181C157.203 21.2434 157.303 21.2112 157.304 21.1333L157.322 20.1859C157.323 20.116 157.406 20.0797 157.458 20.126L158.191 20.7726C158.249 20.8236 158.339 20.7742 158.326 20.6982L158.175 19.7529C158.163 19.6831 158.24 19.6328 158.3 19.6707L159.112 20.1865C159.177 20.2279 159.259 20.1644 159.234 20.0911L158.882 19.0457C158.875 19.0356 158.87 19.0259 158.864 19.0158L156.497 16.491C156.476 16.4679 156.44 16.4666 156.416 16.4871C156.154 16.709 155.825 16.8515 155.462 16.8786C155.43 16.8809 155.406 16.9077 155.407 16.9398L155.581 20.378Z" fill="#49559F"/>
<path d="M159.157 18.7047C159.168 18.7105 159.177 18.7161 159.187 18.722L160.242 19.0569C160.316 19.0803 160.378 18.9983 160.336 18.9338L159.822 18.1523C159.783 18.0933 159.832 18.0162 159.902 18.0261L160.84 18.1593C160.917 18.1703 160.965 18.0774 160.911 18.0212L160.252 17.3391C160.204 17.2888 160.236 17.2047 160.306 17.2004L161.282 17.1401C161.359 17.1354 161.388 17.037 161.325 16.9919L160.549 16.4306C160.491 16.3892 160.51 16.2995 160.579 16.2842L161.519 16.0751C161.594 16.0583 161.607 15.956 161.537 15.9216L160.548 15.4312C160.537 15.4283 160.526 15.4255 160.514 15.4226L157.053 15.3086C157.021 15.3076 156.995 15.3318 156.993 15.3632C156.965 15.7047 156.833 16.0385 156.596 16.3134C156.575 16.3377 156.576 16.3741 156.6 16.3956L159.157 18.7047Z" fill="#49559F"/>
<path d="M160.502 14.9953C160.514 14.9922 160.525 14.9893 160.536 14.9862L161.519 14.4779C161.588 14.4424 161.574 14.3404 161.498 14.3247L160.581 14.1352C160.512 14.1208 160.492 14.0317 160.549 13.9893L161.306 13.4211C161.369 13.3742 161.337 13.275 161.259 13.2735L160.31 13.2562C160.24 13.255 160.204 13.1724 160.25 13.12L160.898 12.3881C160.949 12.3304 160.899 12.2406 160.823 12.2528L159.876 12.4044C159.807 12.4156 159.756 12.3391 159.794 12.2795L160.311 11.468C160.352 11.4028 160.288 11.3217 160.215 11.3463L159.168 11.6982C159.159 11.7042 159.148 11.71 159.138 11.716L156.61 14.0796C156.587 14.1012 156.586 14.1368 156.606 14.1609C156.828 14.4219 156.971 14.7513 156.998 15.113C157 15.145 157.027 15.1696 157.059 15.168L160.502 14.9953Z" fill="#49559F"/>
<path d="M158.827 11.4229C158.833 11.4127 158.839 11.4029 158.845 11.3927L159.18 10.3388C159.204 10.2652 159.121 10.2031 159.057 10.2455L158.274 10.7588C158.215 10.7976 158.138 10.7486 158.148 10.6788L158.281 9.74195C158.292 9.66472 158.199 9.61726 158.143 9.67139L157.46 10.329C157.41 10.3776 157.325 10.3449 157.321 10.2751L157.261 9.30027C157.256 9.22347 157.158 9.19492 157.112 9.25726L156.55 10.0329C156.509 10.0902 156.419 10.0717 156.404 10.0027L156.194 9.06418C156.177 8.98875 156.075 8.97633 156.041 9.04556L155.55 10.0336C155.546 10.045 155.544 10.056 155.541 10.0674L155.427 13.524C155.426 13.5556 155.45 13.5816 155.481 13.5842C155.823 13.6118 156.158 13.7439 156.433 13.9806C156.457 14.0016 156.494 14 156.515 13.9762L158.827 11.4229Z" fill="#49559F"/>
<path d="M155.348 16.6854C156.152 16.6854 156.805 16.0331 156.805 15.2284C156.805 14.4238 156.152 13.7715 155.348 13.7715C154.543 13.7715 153.891 14.4238 153.891 15.2284C153.891 16.0331 154.543 16.6854 155.348 16.6854Z" fill="#49559F"/>
<path d="M40.2424 44.7843C40.2424 50.3409 35.9031 54.5507 27.1668 54.5507H9V17.3926H26.1828C35.209 17.3926 38.2753 22.7251 38.2753 27.2153C38.2753 31.9863 35.8454 34.4 33.1258 35.5786C36.3659 36.5891 40.2424 39.2272 40.2424 44.7843ZM13.3386 34.0073H26.1828C30.1755 34.0073 33.936 32.0989 33.936 27.552C33.936 24.465 31.9112 21.3779 26.6464 21.3779H13.3386V34.0073ZM35.9031 44.4472C35.9031 40.9671 33.2418 37.8241 27.1668 37.8241H13.3386V50.5654H27.6295C32.8944 50.5654 35.9031 48.3203 35.9031 44.4472Z" fill="#49559F"/>
<path d="M67.666 46.4686H72.4104C70.3857 51.52 66.104 55.0001 59.2187 55.0001C50.3671 55.0001 44.5811 48.5452 44.5811 40.5186C44.5811 32.492 50.0773 26.0371 58.9297 26.0371C67.7821 26.0371 73.2783 32.492 73.2783 40.5186V42.2025H49.0357C49.6722 47.198 53.4334 51.1833 59.2764 51.1833C63.3267 51.1833 66.104 49.2749 67.666 46.4686ZM49.0941 38.2735H68.7652C67.955 33.5025 64.4836 29.8539 58.9297 29.8539C53.375 29.8539 49.9036 33.5025 49.0941 38.2735Z" fill="#49559F"/>
<path d="M82.938 54.5508H78.5986V15.2598H82.938V54.5508Z" fill="#49559F"/>
<path d="M113.022 31.0326V26.4861H117.361V54.5512H113.022V50.0609C110.881 53.0917 107.467 55.0001 102.665 55.0001C94.2187 55.0001 88.6641 48.5452 88.6641 40.5186C88.6641 32.492 94.2187 26.0371 102.665 26.0371C107.467 26.0371 110.881 28.0018 113.022 31.0326ZM113.253 40.5186C113.253 34.7371 109.666 29.8539 103.244 29.8539C96.8215 29.8539 93.0034 34.7371 93.0034 40.5186C93.0034 46.3001 96.8215 51.1833 103.244 51.1833C109.666 51.1833 113.253 46.3001 113.253 40.5186Z" fill="#49559F"/>
<path d="M149.123 26.4863L137.841 54.5514H132.749L121.409 26.4863H126.154L135.295 50.0612L144.379 26.4863H149.123Z" fill="#49559F"/>
<path d="M153.173 26.4863H157.512V54.5514H153.173V26.4863Z" fill="#49559F"/>
<path d="M187.596 31.0326V26.4861H191.936V54.5512H187.596V50.0609C185.455 53.0917 182.042 55.0001 177.239 55.0001C168.793 55.0001 163.238 48.5452 163.238 40.5186C163.238 32.492 168.793 26.0371 177.239 26.0371C182.042 26.0371 185.455 28.0018 187.596 31.0326ZM187.828 40.5186C187.828 34.7371 184.24 29.8539 177.818 29.8539C171.396 29.8539 167.578 34.7371 167.578 40.5186C167.578 46.3001 171.396 51.1833 177.818 51.1833C184.24 51.1833 187.828 46.3001 187.828 40.5186Z" fill="#49559F"/>
</svg>
