<svg width="130" height="32" viewBox="0 0 130 32" fill="none" xmlns="http://www.w3.org/2000/svg">
<path d="M103.83 0.750741C103.828 0.742867 103.826 0.735254 103.824 0.72738L103.462 0.0442027C103.437 -0.00349425 103.365 0.00626245 103.353 0.0588563L103.219 0.695773C103.208 0.74385 103.145 0.757722 103.115 0.718464L102.71 0.192146C102.677 0.148758 102.606 0.171099 102.605 0.225353L102.593 0.88438C102.592 0.933015 102.533 0.958289 102.496 0.926079L101.975 0.476221C101.934 0.440774 101.87 0.475135 101.879 0.527989L101.987 1.1856C101.995 1.23416 101.94 1.26915 101.898 1.24277L101.32 0.883986C101.274 0.855147 101.216 0.899361 101.234 0.950311L101.484 1.67758C101.489 1.68459 101.492 1.69136 101.497 1.69837L103.179 3.45474C103.194 3.47078 103.219 3.47171 103.236 3.45748C103.422 3.3031 103.657 3.20394 103.914 3.18514C103.937 3.18347 103.954 3.16484 103.953 3.14253L103.83 0.750741Z" fill="#49559F"/>
<path d="M101.29 1.91417C101.283 1.9101 101.276 1.90618 101.269 1.90211L100.519 1.6691C100.467 1.65283 100.423 1.70987 100.453 1.75476L100.818 2.2984C100.846 2.33944 100.81 2.39309 100.761 2.38618L100.094 2.29354C100.039 2.28591 100.006 2.35053 100.044 2.38959L100.512 2.8641C100.547 2.89911 100.523 2.95761 100.474 2.96061L99.7801 3.00254C99.7254 3.00584 99.7051 3.07429 99.7495 3.10566L100.301 3.4961C100.342 3.52492 100.329 3.58728 100.28 3.59798L99.6121 3.74344C99.5584 3.75513 99.5496 3.8263 99.5988 3.8502L100.302 4.19138C100.31 4.19337 100.318 4.1953 100.326 4.1973L102.786 4.27661C102.808 4.27734 102.827 4.26051 102.828 4.23864C102.848 4.00108 102.942 3.76889 103.11 3.57764C103.125 3.56072 103.124 3.53545 103.107 3.52047L101.29 1.91417Z" fill="#49559F"/>
<path d="M100.334 4.49422C100.326 4.49635 100.318 4.4984 100.31 4.50053L99.6116 4.85419C99.5628 4.87888 99.5728 4.94979 99.6266 4.96068L100.278 5.09257C100.327 5.10253 100.341 5.16454 100.301 5.19403L99.7629 5.58933C99.7185 5.62192 99.7414 5.69097 99.7969 5.69196L100.471 5.70399C100.521 5.70488 100.547 5.76233 100.514 5.79878L100.053 6.30794C100.017 6.34805 100.053 6.41049 100.106 6.40202L100.779 6.29657C100.829 6.28878 100.865 6.34198 100.838 6.38348L100.471 6.94798C100.441 6.99335 100.486 7.04978 100.539 7.03262L101.282 6.78785C101.289 6.78366 101.297 6.77962 101.304 6.77543L103.1 5.13123C103.117 5.11622 103.118 5.09143 103.103 5.07469C102.945 4.89313 102.844 4.66397 102.825 4.41234C102.823 4.39007 102.804 4.37296 102.781 4.37408L100.334 4.49422Z" fill="#49559F"/>
<path d="M101.525 6.97989C101.521 6.98697 101.517 6.9938 101.513 7.00087L101.274 7.73402C101.258 7.78521 101.316 7.82846 101.362 7.79897L101.918 7.44186C101.96 7.4149 102.015 7.44894 102.008 7.49755L101.913 8.14924C101.905 8.20296 101.971 8.23598 102.011 8.19832L102.497 7.74083C102.533 7.70707 102.592 7.72982 102.595 7.77837L102.638 8.45649C102.641 8.50992 102.712 8.52978 102.744 8.48641L103.143 7.94685C103.173 7.90701 103.236 7.91988 103.247 7.96788L103.396 8.62074C103.408 8.67321 103.481 8.68185 103.505 8.63369L103.854 7.94635C103.857 7.93844 103.858 7.93079 103.86 7.92287L103.942 5.51824C103.942 5.49631 103.925 5.47817 103.903 5.47641C103.66 5.4572 103.422 5.36527 103.227 5.20062C103.209 5.18605 103.183 5.18713 103.168 5.2037L101.525 6.97989Z" fill="#49559F"/>
<path d="M104.164 7.91489C104.167 7.92276 104.169 7.93037 104.17 7.93825L104.532 8.62143C104.557 8.66913 104.63 8.65937 104.641 8.60678L104.776 7.96985C104.786 7.92178 104.85 7.9079 104.88 7.94716L105.284 8.47347C105.317 8.51686 105.388 8.49452 105.389 8.44027L105.401 7.78124C105.402 7.7326 105.461 7.70733 105.498 7.73954L106.019 8.1894C106.06 8.22484 106.124 8.19051 106.115 8.13763L106.008 7.48002C106 7.43146 106.054 7.39647 106.096 7.42285L106.674 7.78163C106.72 7.81047 106.778 7.76626 106.76 7.71531L106.51 6.98804C106.506 6.98103 106.502 6.97426 106.497 6.96725L104.816 5.21088C104.8 5.19484 104.775 5.19391 104.758 5.20814C104.572 5.36252 104.338 5.46168 104.08 5.48048C104.057 5.48215 104.04 5.50078 104.041 5.52309L104.164 7.91489Z" fill="#49559F"/>
<path d="M106.705 6.75132C106.713 6.75539 106.72 6.75932 106.727 6.76338L107.477 6.99639C107.529 7.01266 107.573 6.95562 107.543 6.91072L107.178 6.36709C107.15 6.32605 107.186 6.2724 107.235 6.27931L107.901 6.37195C107.956 6.37959 107.99 6.31497 107.952 6.2759L107.484 5.8014C107.449 5.76638 107.473 5.70788 107.522 5.70489L108.216 5.66296C108.27 5.65965 108.291 5.59121 108.246 5.55983L107.695 5.16939C107.654 5.14057 107.667 5.07821 107.716 5.06751L108.384 4.92205C108.438 4.91036 108.446 4.8392 108.397 4.81529L107.694 4.47411C107.686 4.47212 107.678 4.47019 107.67 4.4682L105.21 4.38888C105.188 4.38816 105.169 4.40498 105.168 4.42685C105.148 4.66441 105.054 4.8966 104.885 5.08785C104.871 5.10477 104.872 5.13004 104.888 5.14503L106.705 6.75132Z" fill="#49559F"/>
<path d="M107.662 4.17101C107.67 4.16889 107.678 4.16683 107.686 4.1647L108.384 3.81105C108.433 3.78636 108.423 3.71544 108.37 3.70455L107.718 3.57266C107.669 3.5627 107.655 3.50069 107.695 3.4712L108.233 3.0759C108.278 3.04331 108.255 2.97426 108.199 2.97327L107.525 2.96124C107.475 2.96035 107.45 2.9029 107.482 2.86644L107.943 2.35729C107.979 2.31717 107.943 2.25473 107.89 2.26321L107.217 2.36866C107.167 2.37644 107.132 2.32325 107.158 2.28175L107.525 1.71725C107.555 1.67188 107.51 1.61545 107.458 1.6326L106.714 1.87738C106.707 1.88157 106.7 1.88561 106.692 1.8898L104.896 3.534C104.879 3.54901 104.879 3.5738 104.893 3.59054C105.051 3.7721 105.152 4.00126 105.171 4.25289C105.173 4.27516 105.192 4.29227 105.215 4.29115L107.662 4.17101Z" fill="#49559F"/>
<path d="M106.471 1.68549C106.475 1.67841 106.479 1.67158 106.484 1.66451L106.722 0.931354C106.739 0.880167 106.68 0.836921 106.634 0.866407L106.078 1.22352C106.036 1.25048 105.981 1.21643 105.988 1.16782L106.083 0.51614C106.091 0.462415 106.025 0.429394 105.985 0.467052L105.5 0.924545C105.464 0.958303 105.404 0.935552 105.401 0.887007L105.358 0.208882C105.355 0.155455 105.285 0.135599 105.252 0.178965L104.853 0.718538C104.824 0.758376 104.76 0.745501 104.749 0.697506L104.6 0.0446484C104.588 -0.00782641 104.515 -0.0164668 104.491 0.0316916L104.142 0.719029C104.14 0.726948 104.138 0.734591 104.136 0.742509L104.055 3.14714C104.054 3.16907 104.071 3.18721 104.094 3.18898C104.337 3.20819 104.574 3.30011 104.77 3.46476C104.787 3.47933 104.813 3.47826 104.828 3.46169L106.471 1.68549Z" fill="#49559F"/>
<path d="M103.998 5.34622C104.57 5.34622 105.034 4.89245 105.034 4.33269C105.034 3.77293 104.57 3.31915 103.998 3.31915C103.426 3.31915 102.963 3.77293 102.963 4.33269C102.963 4.89245 103.426 5.34622 103.998 5.34622Z" fill="#49559F"/>
<path d="M22.2019 24.8936C22.2019 28.7591 19.1182 31.6876 12.9099 31.6876H0V5.83856H12.2107C18.6249 5.83856 20.804 9.54814 20.804 12.6718C20.804 15.9907 19.0772 17.6697 17.1446 18.4897C19.4471 19.1926 22.2019 21.0278 22.2019 24.8936ZM3.08312 17.3966H12.2107C15.048 17.3966 17.7203 16.069 17.7203 12.906C17.7203 10.7585 16.2815 8.61095 12.5401 8.61095H3.08312V17.3966ZM19.1182 24.6591C19.1182 22.2382 17.227 20.0517 12.9099 20.0517H3.08312V28.9152H13.2387C16.9801 28.9152 19.1182 27.3534 19.1182 24.6591Z" fill="#49559F"/>
<path d="M41.6901 26.0648H45.0616C43.6228 29.5788 40.5801 31.9997 35.6872 31.9997C29.3969 31.9997 25.2852 27.5094 25.2852 21.9257C25.2852 16.342 29.191 11.8516 35.4818 11.8516C41.7725 11.8516 45.6784 16.342 45.6784 21.9257V23.0971H28.4508C28.9031 26.5722 31.576 29.3446 35.7281 29.3446C38.6064 29.3446 40.5801 28.017 41.6901 26.0648ZM28.4923 20.3639H42.4712C41.8955 17.0449 39.4285 14.5068 35.4818 14.5068C31.5344 14.5068 29.0675 17.0449 28.4923 20.3639Z" fill="#49559F"/>
<path d="M52.5427 31.6876H49.459V4.35486H52.5427V31.6876Z" fill="#49559F"/>
<path d="M73.9209 15.3267V12.1639H77.0045V31.6874H73.9209V28.5638C72.3995 30.6721 69.9735 31.9997 66.561 31.9997C60.5586 31.9997 56.6113 27.5094 56.6113 21.9257C56.6113 16.342 60.5586 11.8516 66.561 11.8516C69.9735 11.8516 72.3995 13.2184 73.9209 15.3267ZM74.0853 21.9257C74.0853 17.9038 71.5359 14.5068 66.9724 14.5068C62.4083 14.5068 59.695 17.9038 59.695 21.9257C59.695 25.9476 62.4083 29.3446 66.9724 29.3446C71.5359 29.3446 74.0853 25.9476 74.0853 21.9257Z" fill="#49559F"/>
<path d="M99.5773 12.1642L91.5598 31.6877H87.9413L79.8828 12.1642H83.2544L89.7506 28.5641L96.2058 12.1642H99.5773Z" fill="#49559F"/>
<path d="M102.453 12.1642H105.537V31.6877H102.453V12.1642Z" fill="#49559F"/>
<path d="M126.915 15.3267V12.1639H129.999V31.6874H126.915V28.5638C125.394 30.6721 122.968 31.9997 119.555 31.9997C113.553 31.9997 109.605 27.5094 109.605 21.9257C109.605 16.342 113.553 11.8516 119.555 11.8516C122.968 11.8516 125.394 13.2184 126.915 15.3267ZM127.079 21.9257C127.079 17.9038 124.53 14.5068 119.966 14.5068C115.402 14.5068 112.689 17.9038 112.689 21.9257C112.689 25.9476 115.402 29.3446 119.966 29.3446C124.53 29.3446 127.079 25.9476 127.079 21.9257Z" fill="#49559F"/>
</svg>
