<svg width="47" height="38" viewBox="0 0 47 38" fill="none" xmlns="http://www.w3.org/2000/svg">
<path fill-rule="evenodd" clip-rule="evenodd" d="M11.7817 2.63285C11.2994 2.21892 10.6825 1.99387 10.0458 2.00013L10.0359 2.00022L3 2.00018C2.44771 2.00018 2 2.44789 2 3.00017V4.88649C2.58404 10.2973 4.43283 15.496 7.39797 20.0641L7.40275 20.0714C10.104 24.314 13.7082 27.9112 17.9596 30.6073L17.9674 30.6123C22.5239 33.5613 27.708 35.4062 33.1058 36H34.9989C35.5512 36 35.9989 35.5523 35.9989 35V27.9515L35.9992 27.939C36.0151 27.2985 35.7946 26.6742 35.3792 26.1849C35.0022 25.7408 34.4196 25.4588 33.643 25.2657L28.9208 24.0917C28.9208 24.0917 28.918 24.0912 28.9153 24.0915L23.6073 26.7869C23.0123 27.0891 22.2927 27.08 21.701 26.7295C17.3865 24.1743 13.7834 20.5787 11.2225 16.2727C10.8696 15.6794 10.8605 14.957 11.1647 14.3605L13.8632 9.06805L13.8643 9.066C13.8628 9.06883 13.8632 9.06805 13.8632 9.06805C13.8635 9.06535 13.8632 9.06163 13.8632 9.06163L12.6747 4.30031L12.6674 4.24882C12.5785 3.62115 12.2639 3.04674 11.7817 2.63285ZM13.0843 1.1152C13.9208 1.83313 14.4722 2.82587 14.6396 3.91379L15.8036 8.57728C15.9194 9.04094 15.8674 9.54041 15.646 9.97449L12.9492 15.2635C15.3358 19.2713 18.6906 22.6192 22.7071 25.0009L28.0108 22.3074C28.4437 22.0875 28.9414 22.0359 29.4034 22.1508L34.1256 23.3248C35.0731 23.5604 36.1323 23.9818 36.9039 24.8905C37.6341 25.7507 38.0237 26.8481 37.9989 27.9756V35C37.9989 36.6569 36.6557 38 34.9989 38H32.9973L32.9435 37.9942C27.2177 37.3733 21.7175 35.4209 16.8846 32.2939C12.3885 29.4417 8.57609 25.6369 5.71806 21.1494C2.57352 16.3037 0.616501 10.7869 0.00561333 5.04572L0 4.99297V3.00017C0 1.34332 1.34315 0.000175271 3 0.000175271H10.0313C11.1504 -0.00955888 12.2353 0.38646 13.0843 1.1152ZM33.7071 1.87868C34.2697 1.31607 35.0328 1 35.8284 1H46C46.5523 1 47 1.44772 47 2C47 2.55228 46.5523 3 46 3H35.8284C35.5632 3 35.3089 3.10536 35.1213 3.29289L26.4142 12H30C30.5523 12 31 12.4477 31 13C31 13.5523 30.5523 14 30 14H23V7C23 6.44772 23.4477 6 24 6C24.5523 6 25 6.44772 25 7V10.5858L33.7071 1.87868Z" fill="#2A4455"/>
</svg>
