<svg width="40" height="46" viewBox="0 0 40 46" fill="none" xmlns="http://www.w3.org/2000/svg">
<path d="M10 0H19H36C37.1046 0 38 0.895431 38 2V42C38 43.1046 37.1046 44 36 44H2C0.89543 44 0 43.1046 0 42V22V12L10 0Z" fill="#BC0000"/>
<path d="M12 5H32C33.1046 5 34 5.89543 34 7V21C34 22.1046 33.1046 23 32 23H6C4.89543 23 4 22.1046 4 21V14H12V5Z" fill="#F5F5F5"/>
<path d="M10 12V0L0 12H10Z" fill="#DF908A"/>
<circle cx="5" cy="28" r="1" fill="#F5F5F5"/>
<circle cx="5" cy="33" r="1" fill="#F5F5F5"/>
<rect x="9" y="27" width="25" height="2" rx="1" fill="#F5F5F5"/>
<rect x="9" y="32" width="25" height="2" rx="1" fill="#F5F5F5"/>
<circle cx="5" cy="38" r="1" fill="#F5F5F5"/>
<rect x="9" y="37" width="18" height="2" rx="1" fill="#F5F5F5"/>
</svg>
