<svg width="22" height="15" viewBox="0 0 22 15" fill="none" xmlns="http://www.w3.org/2000/svg">
<path fill-rule="evenodd" clip-rule="evenodd" d="M2.56811 2.50384e-06H11.4319C11.6843 -2.74171e-05 11.9301 -5.65592e-05 12.1382 0.0169504C12.3668 0.0356272 12.6366 0.0796947 12.908 0.217992C13.2843 0.409739 13.5903 0.7157 13.782 1.09202C13.9203 1.36345 13.9644 1.63318 13.9831 1.86178C13.9869 1.909 13.9899 1.95817 13.9922 2.00891C14.1695 2.00027 14.3667 2.0003 14.5681 2.00032L17.1239 2.00032L17.1911 2.00017C17.438 1.99932 17.7486 1.99826 18.0446 2.09C18.3007 2.16937 18.5382 2.29941 18.743 2.4724C18.9797 2.67233 19.1461 2.9346 19.2784 3.14309L19.3145 3.1998L21.3703 6.41529C21.5268 6.65972 21.6649 6.87541 21.7653 7.11407C21.8536 7.32403 21.9177 7.54337 21.9564 7.76785C22.0004 8.02301 22.0002 8.27913 22 8.56938L22 10.4322C22 10.6846 22.0001 10.9304 21.9831 11.1386C21.9644 11.3671 21.9203 11.6369 21.782 11.9083C21.5903 12.2846 21.2843 12.5906 20.908 12.7823C20.6366 12.9206 20.3668 12.9647 20.1382 12.9834C20.0425 12.9912 19.9388 12.9954 19.8301 12.9977C19.4189 14.1641 18.3071 15 17 15C15.6939 15 14.5827 14.1653 14.1708 13.0003L8.82929 13C8.41745 14.1652 7.30622 15 6 15C4.69378 15 3.58255 14.1652 3.17071 13L2.56812 13C2.31574 13 2.06994 13.0001 1.86178 12.9831C1.63318 12.9644 1.36345 12.9203 1.09202 12.782C0.7157 12.5903 0.409739 12.2843 0.217992 11.908C0.0796947 11.6366 0.0356272 11.3668 0.0169504 11.1382C-5.65574e-05 10.9301 -2.74171e-05 10.6843 2.50384e-06 10.4319L2.50545e-06 2.56811C-2.74155e-05 2.31573 -5.65555e-05 2.06993 0.0169504 1.86178C0.0356272 1.63318 0.0796947 1.36345 0.217992 1.09202C0.409739 0.7157 0.7157 0.409739 1.09202 0.217992C1.36345 0.0796947 1.63318 0.0356272 1.86178 0.0169504C2.06993 -5.65592e-05 2.31573 -2.74171e-05 2.56811 2.50384e-06ZM5 11.9977C5 11.9985 5.00001 11.9992 5.00001 12C5.00001 12.0008 5 12.0015 5 12.0023C5.00125 12.5535 5.44849 13 6 13C6.55228 13 7 12.5523 7 12C7 11.4477 6.55228 11 6 11C5.44849 11 5.00125 11.4465 5 11.9977ZM3.1707 11H2.60001C2.30348 11 2.14122 10.9992 2.02464 10.9897L2.01145 10.9886L2.01031 10.9754C2.00078 10.8588 2.00001 10.6965 2.00001 10.4V2.60001C2.00001 2.30348 2.00078 2.14122 2.01031 2.02464L2.01145 2.01145L2.02464 2.01031C2.14122 2.00078 2.30348 2.00001 2.60001 2.00001H11.4C11.6965 2.00001 11.8588 2.00078 11.9754 2.01031L11.9886 2.01145L11.9897 2.02464C11.9992 2.14122 12 2.30348 12 2.60001V11H8.8293C8.41746 9.83481 7.30622 9 6 9C4.69378 9 3.58254 9.83481 3.1707 11ZM14 4.58669C14 4.2988 14.0009 4.13974 14.0103 4.02496L14.0115 4.01177L14.0246 4.01063C14.1412 4.0011 14.3035 4.00032 14.6 4.00032H17.1239C17.2949 4.00032 17.3819 4.0007 17.4449 4.0043L17.4501 4.00461L17.4531 4.00881C17.4901 4.05997 17.5373 4.13305 17.6294 4.27713L19.6536 7.4431C19.8589 7.76421 19.8962 7.82885 19.9218 7.88958C19.9512 7.95957 19.9726 8.03268 19.9855 8.1075C19.9967 8.17243 20 8.24702 20 8.62815V10.4003C20 10.6969 19.9992 10.8591 19.9897 10.9757L19.9886 10.9889L19.9754 10.99C19.9336 10.9934 19.8859 10.9957 19.8283 10.9973C19.4157 9.8335 18.3052 9 17 9C15.6937 9 14.5823 9.83496 14.1706 11.0003H14L14 4.58669ZM16 12C16 11.4477 16.4477 11 17 11C17.5523 11 18 11.4477 18 12C18 12.5523 17.5523 13 17 13C16.4477 13 16 12.5523 16 12Z" fill="#BC0000"/>
</svg>
