<svg width="18" height="16" viewBox="0 0 18 16" fill="none" xmlns="http://www.w3.org/2000/svg">
<path fill-rule="evenodd" clip-rule="evenodd" d="M4.21395 5.50023H3.2C2.60695 5.50023 2.28244 5.50179 2.04927 5.52084C2.03998 5.5216 2.0312 5.52236 2.0229 5.52313C2.02213 5.53143 2.02136 5.54022 2.02061 5.5495C2.00156 5.78267 2 6.10718 2 6.70023V9.30023C2 9.89329 2.00156 10.2178 2.02061 10.451C2.02136 10.4603 2.02213 10.469 2.0229 10.4773C2.0312 10.4781 2.03998 10.4789 2.04927 10.4796C2.28244 10.4987 2.60695 10.5002 3.2 10.5002H4.2139L7 12.7797V3.22065L4.21395 5.50023ZM6.38684 14.8621C7.22177 15.5452 7.63923 15.8867 7.99124 15.8898C8.29731 15.8925 8.58775 15.7549 8.77949 15.5163C9 15.2419 9 14.7025 9 13.6238V2.37653C9 1.29772 9 0.758322 8.77948 0.483923C8.58774 0.245336 8.29729 0.107701 7.99121 0.11039C7.6392 0.113483 7.22173 0.455061 6.3868 1.13822L3.5 3.50023H3.2C2.0799 3.50023 1.51984 3.50023 1.09202 3.71822C0.715695 3.90997 0.409734 4.21593 0.217987 4.59225C0 5.02008 0 5.58013 0 6.70023V9.30023C0 10.4203 0 10.9804 0.217987 11.4082C0.409734 11.7845 0.715695 12.0905 1.09202 12.2822C1.51984 12.5002 2.0799 12.5002 3.2 12.5002H3.5L6.38684 14.8621Z" fill="#BC0000"/>
<path fill-rule="evenodd" clip-rule="evenodd" d="M14.2929 1.29295C14.6834 0.902426 15.3166 0.902426 15.7071 1.29295L15 2.00006C15.7071 1.29295 15.7075 1.2933 15.7078 1.29366L15.7086 1.29443L15.7102 1.29609L15.7141 1.3L15.724 1.31012C15.7315 1.31789 15.7409 1.3277 15.752 1.33955C15.7742 1.36326 15.8034 1.39518 15.8385 1.4353C15.9087 1.51553 16.0028 1.62876 16.1125 1.77506C16.3318 2.06752 16.6147 2.49334 16.8944 3.05284C17.4556 4.17513 18 5.82729 18 8.00006C18 10.1728 17.4556 11.825 16.8944 12.9473C16.6147 13.5068 16.3318 13.9326 16.1125 14.2251C16.0028 14.3714 15.9087 14.4846 15.8385 14.5648C15.8034 14.6049 15.7742 14.6369 15.752 14.6606C15.7409 14.6724 15.7315 14.6822 15.724 14.69L15.7141 14.7001L15.7102 14.704L15.7086 14.7057L15.7078 14.7064C15.7075 14.7068 15.7071 14.7072 15 14.0001L15.7071 14.7072C15.3166 15.0977 14.6834 15.0977 14.2929 14.7072C13.904 14.3183 13.9024 13.6889 14.2879 13.298L14.2929 13.2927C14.3 13.2851 14.3138 13.2702 14.3334 13.2478C14.3725 13.203 14.4347 13.1288 14.5125 13.0251C14.6682 12.8175 14.8853 12.4933 15.1056 12.0528C15.5444 11.1751 16 9.82729 16 8.00006C16 6.17282 15.5444 4.82498 15.1056 3.94727C14.8853 3.50678 14.6682 3.1826 14.5125 2.97506C14.4347 2.87136 14.3725 2.79709 14.3334 2.75231C14.3138 2.72994 14.3 2.71498 14.2929 2.70744L14.2879 2.70212C13.9024 2.3112 13.904 1.6818 14.2929 1.29295Z" fill="#BC0000"/>
<path fill-rule="evenodd" clip-rule="evenodd" d="M12 5.00006L12.7062 4.29205C12.3152 3.90202 11.682 3.90283 11.292 4.29385C10.9053 4.68152 10.9028 5.3072 11.2838 5.69798C11.2852 5.6995 11.2877 5.7023 11.2913 5.70638C11.3032 5.71991 11.3264 5.74731 11.3574 5.78851C11.4194 5.87105 11.5118 6.00771 11.6073 6.19813C11.7965 6.5757 12.0025 7.17321 12.0025 8.00002C12.0025 8.82683 11.7965 9.42437 11.6073 9.80196C11.5118 9.9924 11.4194 10.1291 11.3573 10.2116C11.3264 10.2528 11.3032 10.2802 11.2913 10.2938C11.2877 10.2978 11.2852 10.3006 11.2838 10.3022C10.9028 10.693 10.9053 11.3186 11.292 11.7063C11.6821 12.0973 12.3152 12.0981 12.7062 11.708L12 11.0001C12.7062 11.708 12.7059 11.7084 12.7062 11.708L12.7077 11.7066L12.7092 11.7051L12.7125 11.7017L12.7203 11.6938L12.74 11.6732C12.7549 11.6573 12.7734 11.6371 12.7948 11.6126C12.8378 11.5636 12.8929 11.4973 12.9559 11.4135C13.0818 11.2461 13.2401 11.0077 13.3952 10.6981C13.7072 10.0757 14.0025 9.17325 14.0025 8.00002C14.0025 6.82679 13.7072 5.92432 13.3952 5.30192C13.24 4.99236 13.0818 4.75402 12.9559 4.58658C12.8929 4.50278 12.8378 4.43644 12.7948 4.38748C12.7733 4.36299 12.7549 4.3428 12.7399 4.32691L12.7202 4.30628L12.7125 4.29837L12.7092 4.29501L12.7076 4.29348L12.7062 4.29205C12.7059 4.2917 12.7062 4.29205 12 5.00006Z" fill="#BC0000"/>
</svg>
