<svg width="24" height="25" viewBox="0 0 24 25" fill="none" xmlns="http://www.w3.org/2000/svg">
<path fill-rule="evenodd" clip-rule="evenodd" d="M7.21395 10.0002H6.2C5.60695 10.0002 5.28244 10.0018 5.04927 10.0208C5.03998 10.0216 5.0312 10.0224 5.0229 10.0231C5.02213 10.0314 5.02136 10.0402 5.02061 10.0495C5.00156 10.2827 5 10.6072 5 11.2002V13.8002C5 14.3933 5.00156 14.7178 5.02061 14.951C5.02136 14.9603 5.02213 14.969 5.0229 14.9773C5.0312 14.9781 5.03998 14.9789 5.04927 14.9796C5.28244 14.9987 5.60695 15.0002 6.2 15.0002H7.2139L10 17.2797V7.72065L7.21395 10.0002ZM9.38684 19.3621C10.2218 20.0452 10.6392 20.3867 10.9912 20.3898C11.2973 20.3925 11.5878 20.2549 11.7795 20.0163C12 19.7419 12 19.2025 12 18.1238V6.87653C12 5.79772 12 5.25832 11.7795 4.98392C11.5877 4.74534 11.2973 4.6077 10.9912 4.61039C10.6392 4.61348 10.2217 4.95506 9.3868 5.63822L6.5 8.00023H6.2C5.0799 8.00023 4.51984 8.00023 4.09202 8.21822C3.71569 8.40997 3.40973 8.71593 3.21799 9.09225C3 9.52008 3 10.0801 3 11.2002V13.8002C3 14.9203 3 15.4804 3.21799 15.9082C3.40973 16.2845 3.71569 16.5905 4.09202 16.7822C4.51984 17.0002 5.0799 17.0002 6.2 17.0002H6.5L9.38684 19.3621Z" fill="#808080"/>
<path fill-rule="evenodd" clip-rule="evenodd" d="M17.2929 5.79295C17.6834 5.40243 18.3166 5.40243 18.7071 5.79295L18 6.50006C18.7071 5.79295 18.7075 5.7933 18.7078 5.79366L18.7086 5.79443L18.7102 5.79609L18.7141 5.8L18.724 5.81012C18.7315 5.81789 18.7409 5.8277 18.752 5.83955C18.7742 5.86326 18.8034 5.89518 18.8385 5.9353C18.9087 6.01553 19.0028 6.12876 19.1125 6.27506C19.3318 6.56752 19.6147 6.99334 19.8944 7.55284C20.4556 8.67513 21 10.3273 21 12.5001C21 14.6728 20.4556 16.325 19.8944 17.4473C19.6147 18.0068 19.3318 18.4326 19.1125 18.7251C19.0028 18.8714 18.9087 18.9846 18.8385 19.0648C18.8034 19.1049 18.7742 19.1369 18.752 19.1606C18.7409 19.1724 18.7315 19.1822 18.724 19.19L18.7141 19.2001L18.7102 19.204L18.7086 19.2057L18.7078 19.2064C18.7075 19.2068 18.7071 19.2072 18 18.5001L18.7071 19.2072C18.3166 19.5977 17.6834 19.5977 17.2929 19.2072C16.904 18.8183 16.9024 18.1889 17.2879 17.798L17.2929 17.7927C17.3 17.7851 17.3138 17.7702 17.3334 17.7478C17.3725 17.703 17.4347 17.6288 17.5125 17.5251C17.6682 17.3175 17.8853 16.9933 18.1056 16.5528C18.5444 15.6751 19 14.3273 19 12.5001C19 10.6728 18.5444 9.32498 18.1056 8.44727C17.8853 8.00678 17.6682 7.6826 17.5125 7.47506C17.4347 7.37136 17.3725 7.29709 17.3334 7.25231C17.3138 7.22994 17.3 7.21498 17.2929 7.20744L17.2879 7.20212C16.9024 6.8112 16.904 6.1818 17.2929 5.79295Z" fill="#808080"/>
<path fill-rule="evenodd" clip-rule="evenodd" d="M15 9.50006L15.7062 8.79205C15.3152 8.40202 14.682 8.40283 14.292 8.79385C13.9053 9.18152 13.9028 9.8072 14.2838 10.198C14.2852 10.1995 14.2877 10.2023 14.2913 10.2064C14.3032 10.2199 14.3264 10.2473 14.3574 10.2885C14.4194 10.3711 14.5118 10.5077 14.6073 10.6981C14.7965 11.0757 15.0025 11.6732 15.0025 12.5C15.0025 13.3268 14.7965 13.9244 14.6073 14.302C14.5118 14.4924 14.4194 14.6291 14.3573 14.7116C14.3264 14.7528 14.3032 14.7802 14.2913 14.7938C14.2877 14.7978 14.2852 14.8006 14.2838 14.8022C13.9028 15.193 13.9053 15.8186 14.292 16.2063C14.6821 16.5973 15.3152 16.5981 15.7062 16.208L15 15.5001C15.7062 16.208 15.7059 16.2084 15.7062 16.208L15.7077 16.2066L15.7092 16.2051L15.7125 16.2017L15.7203 16.1938L15.74 16.1732C15.7549 16.1573 15.7734 16.1371 15.7948 16.1126C15.8378 16.0636 15.8929 15.9973 15.9559 15.9135C16.0818 15.7461 16.2401 15.5077 16.3952 15.1981C16.7072 14.5757 17.0025 13.6732 17.0025 12.5C17.0025 11.3268 16.7072 10.4243 16.3952 9.80192C16.24 9.49236 16.0818 9.25402 15.9559 9.08658C15.8929 9.00278 15.8378 8.93644 15.7948 8.88748C15.7733 8.86299 15.7549 8.8428 15.7399 8.82691L15.7202 8.80628L15.7125 8.79837L15.7092 8.79501L15.7076 8.79348L15.7062 8.79205C15.7059 8.7917 15.7062 8.79205 15 9.50006Z" fill="#808080"/>
</svg>
