<svg width="48" height="40" viewBox="0 0 48 40" fill="none" xmlns="http://www.w3.org/2000/svg">
<mask id="mask0_620_13967" style="mask-type:alpha" maskUnits="userSpaceOnUse" x="0" y="0" width="44" height="32">
<path d="M0 2C0 0.895431 0.895431 0 2 0H42C43.1046 0 44 0.895431 44 2V30C44 31.1046 43.1046 32 42 32H2C0.895431 32 0 31.1046 0 30V2Z" fill="#991C12"/>
</mask>
<g mask="url(#mask0_620_13967)">
<path fill-rule="evenodd" clip-rule="evenodd" d="M44 30V0L23.2721 17.0848C22.5333 17.6937 21.4667 17.6937 20.7279 17.0848L0 0V30C0 31.1046 0.895431 32 2 32H42C43.1046 32 44 31.1046 44 30Z" fill="#BC0000"/>
<path d="M0 0H44L23.2721 17.0848C22.5333 17.6937 21.4667 17.6937 20.7279 17.0848L0 0Z" fill="#DF908A"/>
</g>
<path fill-rule="evenodd" clip-rule="evenodd" d="M46 23H32C31.4477 23 31 23.4477 31 24V38C31 38.5523 31.4477 39 32 39H46C46.5523 39 47 38.5523 47 38V24C47 23.4477 46.5523 23 46 23ZM32 22C30.8954 22 30 22.8954 30 24V38C30 39.1046 30.8954 40 32 40H46C47.1046 40 48 39.1046 48 38V24C48 22.8954 47.1046 22 46 22H32Z" fill="#92A7B3"/>
<path fill-rule="evenodd" clip-rule="evenodd" d="M46 23H32C31.4477 23 31 23.4477 31 24V38C31 38.5523 31.4477 39 32 39H46C46.5523 39 47 38.5523 47 38V24C47 23.4477 46.5523 23 46 23ZM39.9157 36V28.8149H38.0783V36H39.9157ZM39.7048 26.2057C39.508 26.0686 39.2731 26 39 26C38.7229 26 38.4859 26.0686 38.2892 26.2057C38.0964 26.3385 38 26.5891 38 26.9576C38 27.3218 38.0964 27.5746 38.2892 27.7159C38.4859 27.853 38.7229 27.9216 39 27.9216C39.2731 27.9216 39.508 27.853 39.7048 27.7159C39.9016 27.5746 40 27.3218 40 26.9576C40 26.5891 39.9016 26.3385 39.7048 26.2057Z" fill="#F5F5F5"/>
<path d="M39.9157 28.8149V36H38.0783V28.8149H39.9157ZM39 26C39.2731 26 39.508 26.0686 39.7048 26.2057C39.9016 26.3385 40 26.5891 40 26.9576C40 27.3218 39.9016 27.5746 39.7048 27.7159C39.508 27.853 39.2731 27.9216 39 27.9216C38.7229 27.9216 38.4859 27.853 38.2892 27.7159C38.0964 27.5746 38 27.3218 38 26.9576C38 26.5891 38.0964 26.3385 38.2892 26.2057C38.4859 26.0686 38.7229 26 39 26Z" fill="#92A7B3"/>
</svg>
