<svg width="48" height="41" viewBox="0 0 48 41" fill="none" xmlns="http://www.w3.org/2000/svg">
<path fill-rule="evenodd" clip-rule="evenodd" d="M39 10.6C39 8.90334 38.9992 7.69099 38.9216 6.74064C38.8449 5.80197 38.6982 5.20732 38.455 4.73005C37.9757 3.78924 37.2108 3.02434 36.27 2.54497C35.7927 2.30179 35.198 2.15512 34.2594 2.07842C33.309 2.00078 32.0967 2 30.4 2L17.6 2C15.9033 2 14.691 2.00078 13.7406 2.07842C12.802 2.15512 12.2073 2.30179 11.73 2.54497C10.7892 3.02433 10.0243 3.78924 9.54497 4.73005C9.30179 5.20731 9.15512 5.80197 9.07843 6.74064C9.00078 7.69099 9 8.90334 9 10.6L9.00001 30.4319C9.00004 30.6843 9.00006 30.9301 8.98306 31.1382C8.96438 31.3668 8.92031 31.6366 8.78202 31.908C8.59027 32.2843 8.28431 32.5903 7.90798 32.782C7.63656 32.9203 7.36683 32.9644 7.13823 32.9831C6.93007 33.0001 6.68427 33 6.43189 33L4.16148 33C3.63432 33 3.17955 33 2.80498 32.9694C2.40963 32.9371 2.01641 32.8658 1.63803 32.673C1.07355 32.3854 0.614604 31.9265 0.326984 31.362C0.13419 30.9836 0.0628738 30.5904 0.0305728 30.195C-2.94745e-05 29.8205 -1.54804e-05 29.3657 7.43433e-07 28.8386V22.1615C-1.54804e-05 21.6343 -2.94745e-05 21.1795 0.0305728 20.805C0.0628738 20.4096 0.13419 20.0164 0.326984 19.638C0.614604 19.0735 1.07355 18.6146 1.63803 18.327C2.01641 18.1342 2.40963 18.0629 2.80498 18.0306C3.17951 18 3.63422 18 4.1613 18L7 18L7 10.5556C6.99999 8.91303 6.99999 7.61909 7.08507 6.57778C7.17186 5.51543 7.35217 4.62827 7.76296 3.82207C8.43407 2.50493 9.50493 1.43407 10.8221 0.762955C11.6283 0.352174 12.5154 0.171864 13.5778 0.0850665C14.6191 -1.16527e-05 15.913 -6.46723e-06 17.5556 1.15479e-07H30.4444C32.0869 -5.76029e-06 33.3809 -1.03936e-05 34.4222 0.0850675C35.4846 0.171865 36.3717 0.352175 37.1779 0.762956C38.4951 1.43407 39.5659 2.50493 40.237 3.82207C40.6478 4.62827 40.8281 5.51543 40.9149 6.57778C41 7.61909 41 8.91305 41 10.5556V18L43.8385 18C44.3657 18 44.8205 18 45.195 18.0306C45.5904 18.0629 45.9836 18.1342 46.362 18.327C46.9265 18.6146 47.3854 19.0735 47.673 19.638C47.8658 20.0164 47.9371 20.4096 47.9694 20.805C48 21.1796 48 21.6343 48 22.1615V28.8385C48 29.3657 48 29.8205 47.9694 30.195C47.9371 30.5904 47.8658 30.9836 47.673 31.362C47.3854 31.9265 46.9265 32.3854 46.362 32.673C45.9836 32.8658 45.5904 32.9371 45.195 32.9694C44.8204 33 44.3657 33 43.8385 33H40.3704L33.9321 38.5185C33.5697 38.8292 33.108 39 32.6306 39H30.8293C30.4175 40.1652 29.3062 41 28 41H24C22.3431 41 21 39.6569 21 38C21 36.3431 22.3431 35 24 35H28C29.3062 35 30.4174 35.8348 30.8293 37H32.6306L39 31.5405V10.6ZM2.54601 20.109C2.59546 20.0838 2.69618 20.0461 2.96784 20.0239C3.25118 20.0008 3.62345 20 4.2 20H7V30.4C7 30.6965 6.99923 30.8588 6.9897 30.9754L6.98856 30.9886L6.97537 30.9897C6.85878 30.9992 6.69653 31 6.4 31H4.2C3.62345 31 3.25118 30.9992 2.96784 30.9761C2.69618 30.9539 2.59546 30.9162 2.54601 30.891C2.35785 30.7951 2.20487 30.6422 2.109 30.454C2.0838 30.4046 2.04613 30.3038 2.02393 30.0322C2.00078 29.7488 2 29.3766 2 28.8V22.2C2 21.6235 2.00078 21.2512 2.02393 20.9678C2.04613 20.6962 2.0838 20.5955 2.109 20.546C2.20487 20.3579 2.35785 20.2049 2.54601 20.109ZM43.8 20C44.3766 20 44.7488 20.0008 45.0322 20.0239C45.3038 20.0461 45.4045 20.0838 45.454 20.109C45.6422 20.2049 45.7951 20.3579 45.891 20.546C45.9162 20.5955 45.9539 20.6962 45.9761 20.9678C45.9992 21.2512 46 21.6235 46 22.2V28.8C46 29.3766 45.9992 29.7488 45.9761 30.0322C45.9539 30.3038 45.9162 30.4046 45.891 30.454C45.7951 30.6422 45.6422 30.7951 45.454 30.891C45.4045 30.9162 45.3038 30.9539 45.0322 30.9761C44.7488 30.9992 44.3766 31 43.8 31H41V20H43.8ZM29 38C29 37.4477 28.5523 37 28 37H24C23.4477 37 23 37.4477 23 38C23 38.5523 23.4477 39 24 39H28C28.5523 39 29 38.5523 29 38Z" fill="#2A4455"/>
<path d="M23 15C23 14.4477 23.4477 14 24 14C24.5523 14 25 14.4477 25 15V20C25 20.5523 24.5523 21 24 21C23.4477 21 23 20.5523 23 20V15Z" fill="#2A4455"/>
<path d="M24 13C24.5523 13 25 12.5523 25 12C25 11.4477 24.5523 11 24 11C23.4477 11 23 11.4477 23 12C23 12.5523 23.4477 13 24 13Z" fill="#2A4455"/>
<path fill-rule="evenodd" clip-rule="evenodd" d="M12.436 8.18405C12.8195 7.4314 13.4314 6.81948 14.1841 6.43599C14.7269 6.15939 15.2664 6.07126 15.7236 6.0339C16.1399 5.99989 16.6315 5.99995 17.1362 6.00001H30.8638C31.3686 5.99995 31.8602 5.99989 32.2765 6.0339C32.7337 6.07126 33.2731 6.15939 33.816 6.43599C34.5686 6.81948 35.1805 7.4314 35.564 8.18405C35.8406 8.7269 35.9288 9.26637 35.9661 9.72355C36.0001 10.1399 36.0001 10.6315 36 11.1362V20.9098C36.0001 21.417 36.0001 21.9107 35.9659 22.3287C35.9284 22.7875 35.8397 23.3291 35.5612 23.8736C35.1752 24.6282 34.5596 25.2407 33.803 25.6227C33.257 25.8984 32.7149 25.9842 32.256 26.0194C31.8379 26.0514 31.3442 26.0488 30.837 26.0461L22.697 26.0037L15 32.1613V25.9286C14.8276 25.8877 14.6497 25.8328 14.4693 25.758C13.4892 25.3521 12.7105 24.5734 12.3045 23.5932C12.1106 23.1252 12.0497 22.6737 12.0237 22.293C11.9999 21.9448 12 21.5355 12 21.1155L12 11.1362C11.9999 10.6315 11.9999 10.1398 12.0339 9.72355C12.0713 9.26637 12.1594 8.7269 12.436 8.18405ZM22 24L30.7833 24.0458C31.9087 24.0516 32.4714 24.0545 32.9015 23.8374C33.2798 23.6464 33.5876 23.3401 33.7806 22.9628C34 22.5339 34 21.9712 34 20.8458V11.2C34 10.0799 34 9.51985 33.782 9.09203C33.5903 8.71571 33.2843 8.40975 32.908 8.218C32.4802 8.00001 31.9201 8.00001 30.8 8.00001H17.2C16.0799 8.00001 15.5199 8.00001 15.092 8.218C14.7157 8.40975 14.4097 8.71571 14.218 9.09203C14 9.51985 14 10.0799 14 11.2V21.0625C14 21.9944 14 22.4603 14.1523 22.8279C14.3552 23.3179 14.7446 23.7073 15.2346 23.9103C15.6022 24.0625 16.0681 24.0625 17 24.0625V28L22 24Z" fill="#2A4455"/>
</svg>
