<svg width="48" height="48" viewBox="0 0 48 48" fill="none" xmlns="http://www.w3.org/2000/svg">
<path d="M15.5 31V30.5H15C13.6193 30.5 12.5 29.3807 12.5 28V14C12.5 12.6193 13.6193 11.5 15 11.5H33C34.3807 11.5 35.5 12.6193 35.5 14V28C35.5 29.3807 34.3807 30.5 33 30.5H23H22.8333L22.7 30.6L15.5 36V31Z" stroke="#92A7B3"/>
<path d="M24.9157 18.8149V26H23.0783V18.8149H24.9157ZM24 16C24.2731 16 24.508 16.0686 24.7048 16.2057C24.9016 16.3385 25 16.5891 25 16.9576C25 17.3218 24.9016 17.5746 24.7048 17.7159C24.508 17.853 24.2731 17.9216 24 17.9216C23.7229 17.9216 23.4859 17.853 23.2892 17.7159C23.0964 17.5746 23 17.3218 23 16.9576C23 16.5891 23.0964 16.3385 23.2892 16.2057C23.4859 16.0686 23.7229 16 24 16Z" fill="#92A7B3"/>
<path d="M0 24C0 22.8954 0.895431 22 2 22H9V35C9 36.1046 8.10457 37 7 37H2C0.89543 37 0 36.1046 0 35V24Z" fill="#BC0000"/>
<path d="M48 24C48 22.8954 47.1046 22 46 22H39V35C39 36.1046 39.8954 37 41 37H46C47.1046 37 48 36.1046 48 35V24Z" fill="#BC0000"/>
<path d="M38.9988 35.5405L32.6294 41H30.8281C30.9387 41.3128 30.9988 41.6494 30.9988 42C30.9988 42.3506 30.9387 42.6872 30.8281 43H32.6294C33.1068 43 33.5685 42.8292 33.931 42.5186L40.3692 37H41.0002C39.8956 37 39.0002 36.1046 39.0002 35L38.9988 35.5405Z" fill="#92A7B3"/>
<rect x="21" y="39" width="10" height="6" rx="3" fill="#BC0000"/>
<path d="M38.9216 10.7406C38.9992 11.691 39 12.9033 39 14.6L39.0013 22H41V14.5555C41 12.9131 41 11.6191 40.9149 10.5778C40.8281 9.51538 40.6478 8.6283 40.237 7.82202C39.5659 6.50488 38.4951 5.43408 37.1779 4.76294C36.3717 4.35217 35.4846 4.17188 34.4222 4.08508C33.3809 4 32.0869 4 30.4444 4H17.5556C15.913 4 14.6191 4 13.5778 4.08508C12.5154 4.17188 11.6283 4.35217 10.8221 4.76294C9.50493 5.43408 8.43407 6.50488 7.76295 7.82202C7.35217 8.6283 7.17186 9.51538 7.08507 10.5778C7 11.619 7 12.9126 7 14.5547V22H9V14.6C9 12.9033 9.00078 11.691 9.07843 10.7406C9.15512 9.802 9.30179 9.20728 9.54497 8.7301C10.0243 7.78918 10.7892 7.02429 11.7301 6.54492C12.2073 6.30176 12.802 6.15515 13.7406 6.07837C14.691 6.00073 15.9034 6 17.6 6H30.4C32.0967 6 33.309 6.00073 34.2594 6.07837C35.198 6.15515 35.7927 6.30176 36.27 6.54492C37.2108 7.02429 37.9757 7.78918 38.455 8.7301C38.6982 9.20728 38.8449 9.802 38.9216 10.7406Z" fill="#BC0000"/>
</svg>
