<svg width="18" height="18" viewBox="0 0 18 18" fill="none" xmlns="http://www.w3.org/2000/svg">
<path fill-rule="evenodd" clip-rule="evenodd" d="M0 2C0 0.895431 0.895431 0 2 0H16C17.1046 0 18 0.895431 18 2C18 3.10457 17.1046 4 16 4H2C0.89543 4 0 3.10457 0 2ZM0 9C0 7.89543 0.895431 7 2 7H16C17.1046 7 18 7.89543 18 9C18 10.1046 17.1046 11 16 11H2C0.89543 11 0 10.1046 0 9ZM2 14C0.895431 14 0 14.8954 0 16C0 17.1046 0.89543 18 2 18H16C17.1046 18 18 17.1046 18 16C18 14.8954 17.1046 14 16 14H2Z" fill="#D3D3D3"/>
</svg>
