<svg width="24" height="18" viewBox="0 0 24 18" fill="none" xmlns="http://www.w3.org/2000/svg">
<path fill-rule="evenodd" clip-rule="evenodd" d="M6 1.00137e-06C6.55228 1.00137e-06 7 0.447716 7 1V14.5858L10.2929 11.2929C10.6834 10.9024 11.3166 10.9024 11.7071 11.2929C12.0976 11.6834 12.0976 12.3166 11.7071 12.7071L6.70711 17.7071C6.31658 18.0976 5.68342 18.0976 5.29289 17.7071L0.292893 12.7071C-0.0976311 12.3166 -0.0976311 11.6834 0.292893 11.2929C0.683417 10.9024 1.31658 10.9024 1.70711 11.2929L5 14.5858V1C5 0.447716 5.44772 1.00137e-06 6 1.00137e-06Z" fill="black" fill-opacity="0.7"/>
<path fill-rule="evenodd" clip-rule="evenodd" d="M18 18C17.4477 18 17 17.5523 17 17L17 3.41421L13.7071 6.70711C13.3166 7.09763 12.6834 7.09763 12.2929 6.70711C11.9024 6.31658 11.9024 5.68342 12.2929 5.29289L17.2929 0.292893C17.6834 -0.097631 18.3166 -0.0976309 18.7071 0.292893L23.7071 5.29289C24.0976 5.68342 24.0976 6.31658 23.7071 6.70711C23.3166 7.09763 22.6834 7.09763 22.2929 6.70711L19 3.41421L19 17C19 17.5523 18.5523 18 18 18Z" fill="black" fill-opacity="0.7"/>
</svg>
