<svg width="140" height="48" viewBox="0 0 140 48" fill="none" xmlns="http://www.w3.org/2000/svg">
<path d="M1 36.9035C1.63882 35.4179 2.30735 33.9472 2.89417 32.4467C3.10216 31.9267 3.36214 31.7781 3.91182 31.7781C22.2964 31.793 40.681 31.7856 59.0656 31.7856C71.8717 31.7856 84.6777 31.7781 97.4912 31.7707C107.608 31.7633 117.733 31.7633 127.85 31.7559C128.251 31.7559 128.645 31.7559 129.046 31.845C128.073 31.8896 127.1 31.9341 126.119 31.9713C118.795 32.2684 111.471 32.5655 104.147 32.8552C98.7392 33.0706 93.3389 33.2786 87.9313 33.494C80.8894 33.7763 73.855 34.0734 66.8131 34.3557C61.4277 34.5711 56.0349 34.7791 50.6495 34.9945C44.4248 35.2471 38.2074 35.5071 31.9827 35.7596C27.2435 35.9527 22.5044 36.131 17.7653 36.3167C12.1793 36.5396 6.59337 36.7698 1 37.0001C1 36.9704 1 36.9333 1 36.9035Z" fill="#2F64A8"/>
<path d="M112.227 11.0462C112.94 11.1502 113.275 11.2319 113.787 11.3731C116.892 12.1976 118.623 14.8197 118.177 17.9989C117.36 23.7929 112.584 28.3834 106.76 28.9926C105.178 29.156 103.626 29.0743 102.133 28.4949C99.659 27.5292 98.2625 25.3231 98.5745 22.6861C99.1836 17.4938 102.125 14.0323 106.82 11.997C107.845 11.5513 108.87 11.2468 109.271 11.1874C109.68 11.1279 110.422 11.0462 110.422 11.0462C110.422 11.0462 111.514 10.9422 112.227 11.0462ZM104.985 21.3936C104.97 22.6935 105.75 23.518 107.065 23.5775C109.42 23.6814 111.685 21.505 111.737 19.0909C111.767 17.5681 110.786 16.6544 109.271 16.7807C107.013 16.9813 105.015 19.128 104.985 21.3936Z" fill="#D93831"/>
<path d="M18.739 11.0461C19.504 11.217 20.2617 11.3729 21.0194 11.5512C21.2274 11.5958 21.4205 11.6924 21.6582 11.7815C21.0045 13.9728 20.3583 16.1195 19.6898 18.3479C19.5263 18.1697 19.4001 18.0285 19.2738 17.8874C18.1596 16.6543 16.7259 16.3126 15.1883 16.944C13.8141 17.5086 12.8113 18.4817 12.2691 19.8707C11.4074 22.0694 12.8485 23.867 15.1735 23.4139C16.0648 23.2356 16.9042 22.7677 17.7584 22.4111C17.9961 22.3146 18.1967 22.1289 18.5161 21.9209C18.2413 22.6934 18.0036 23.3619 17.7659 24.0305C17.2905 25.3675 16.8225 26.7046 16.3322 28.0268C16.2654 28.2051 16.0945 28.4205 15.9311 28.4576C13.8364 29.0073 11.712 29.349 9.56523 28.7696C7.17337 28.1233 5.62089 26.1178 5.5169 23.6442C5.40548 21.0221 6.32657 18.7268 7.8419 16.6618C9.94406 13.8019 12.6776 11.8632 16.2134 11.1798C16.4585 11.1352 16.6962 11.0758 16.9339 11.0312C17.5356 11.0461 18.1373 11.0461 18.739 11.0461Z" fill="#D93831"/>
<path d="M51.3627 28.0192C51.4444 27.8633 51.5336 27.7073 51.6078 27.5513C54.1408 22.3144 56.6812 17.0776 59.1994 11.8259C59.3777 11.4471 59.5931 11.3357 59.9868 11.3431C61.7101 11.3654 63.426 11.3505 65.1493 11.3505C65.3276 11.3505 65.5058 11.3505 65.7287 11.3505C65.5058 14.4332 65.283 17.449 65.0602 20.4648C65.1047 20.4797 65.1493 20.502 65.1939 20.5168C65.2756 20.3757 65.3647 20.2346 65.4464 20.086C67.1103 17.2485 68.7668 14.4109 70.4381 11.5882C70.505 11.4768 70.6907 11.3654 70.8244 11.358C72.7483 11.3431 74.6647 11.3505 76.5886 11.358C76.6332 11.358 76.6852 11.3877 76.7817 11.4174C75.8086 17.1965 74.8281 22.9755 73.8551 28.7695C71.8717 28.7695 69.9404 28.7695 67.9646 28.7695C68.7297 25.6051 69.4799 22.4704 70.2376 19.3358C70.2079 19.3209 70.1781 19.2986 70.1484 19.2838C70.0816 19.3729 70.0147 19.4621 69.9553 19.5586C68.076 22.5521 66.1967 25.5531 64.3099 28.5466C64.2356 28.6655 64.0574 28.7843 63.9237 28.7843C62.8392 28.8066 61.7547 28.7918 60.5884 28.7918C60.7741 25.5977 60.5959 22.4184 60.9821 19.2318C60.9078 19.3655 60.8261 19.4918 60.7741 19.6255C59.5559 22.5299 58.3303 25.4343 57.1195 28.3461C57.0007 28.6283 56.8967 28.8066 56.5253 28.8066C52.7666 28.7918 49.008 28.7992 45.2568 28.7918C45.1305 28.7918 44.9968 28.7695 44.8408 28.7621C44.8854 28.0564 44.9225 27.3804 44.9671 26.6228C44.6328 26.6228 44.3431 26.6228 44.046 26.6228C42.9467 26.6228 41.8399 26.6302 40.7405 26.6153C40.4285 26.6079 40.2502 26.7119 40.1165 26.9867C39.864 27.4918 39.5891 27.997 39.2846 28.4724C39.188 28.6209 38.9652 28.7843 38.8018 28.7843C35.0431 28.7992 31.2845 28.7992 27.5333 28.7918C27.4665 28.7918 27.407 28.7769 27.2956 28.7621C27.9419 26.7713 28.5881 24.7954 29.2566 22.7453C28.0087 22.7453 26.8425 22.7304 25.6837 22.7601C25.5649 22.7601 25.4014 23.0053 25.3494 23.1613C24.77 24.8846 24.1981 26.6079 23.6558 28.3387C23.5444 28.6803 23.3958 28.8066 23.0244 28.7992C21.2565 28.7769 19.4887 28.7918 17.6465 28.7918C17.7059 28.5764 17.743 28.4055 17.795 28.2421C19.5852 22.775 21.3828 17.3153 23.1581 11.8408C23.2844 11.4471 23.4553 11.3357 23.8564 11.3431C25.6094 11.3654 27.3625 11.3505 29.1972 11.3505C28.5584 13.3116 27.9344 15.228 27.2808 17.241C28.0087 17.241 28.6475 17.241 29.2938 17.241C29.7469 17.241 30.2 17.2262 30.6457 17.2485C30.9725 17.2633 31.1062 17.137 31.2102 16.8325C31.7376 15.1612 32.3022 13.5047 32.8296 11.8334C32.941 11.4843 33.0895 11.3357 33.4832 11.3431C35.2511 11.3654 37.019 11.3505 38.8686 11.3505C37.1602 16.5725 35.4665 21.7425 33.7729 26.9125C33.8026 26.9273 33.8398 26.9422 33.8695 26.9644C33.9883 26.7936 34.0998 26.6228 34.2186 26.4519C37.4647 21.5568 40.7108 16.6616 43.9494 11.7591C44.15 11.462 44.3506 11.3431 44.7145 11.3431C46.787 11.358 48.852 11.3505 50.9913 11.3505C51.0879 16.9216 51.177 22.463 51.2661 28.0044C51.281 28.0118 51.3256 28.0118 51.3627 28.0192ZM42.7461 22.4853C43.4889 22.4853 44.1277 22.4556 44.774 22.4927C45.1825 22.515 45.2717 22.3442 45.3088 21.9802C45.4276 20.6728 45.5762 19.3581 45.7173 18.0507C45.7471 17.7536 45.7991 17.4565 45.8436 17.1593C45.7768 17.137 45.7173 17.1148 45.6505 17.0925C44.6923 18.8678 43.7415 20.6357 42.7461 22.4853Z" fill="#D93831"/>
<path d="M129.751 21.0147C129.885 20.2867 129.959 19.5365 130.16 18.8308C130.858 16.4167 131.608 14.0174 132.344 11.6107C132.373 11.5067 132.537 11.3655 132.641 11.3581C134.49 11.3433 136.333 11.3507 138.249 11.3507C137.841 12.5986 137.454 13.7871 137.068 14.9682C135.612 19.4176 134.149 23.8671 132.708 28.3165C132.589 28.6879 132.425 28.7919 132.047 28.7919C130.279 28.7696 128.511 28.7845 126.706 28.7845C125.904 25.7167 125.116 22.6711 124.321 19.6256C124.262 19.6256 124.21 19.633 124.15 19.633C124.106 19.8485 124.047 20.0564 124.009 20.2719C123.645 22.6786 122.717 24.9219 121.996 27.2246C121.833 27.7445 121.759 28.4279 121.387 28.7028C121.038 28.9628 120.362 28.7771 119.827 28.7771C118.461 28.7771 117.094 28.7771 115.66 28.7771C115.935 27.9451 116.18 27.1726 116.433 26.4001C118.015 21.5569 119.604 16.7064 121.179 11.8558C121.306 11.4621 121.476 11.321 121.907 11.3284C123.66 11.3581 125.413 11.3433 127.233 11.3433C128.013 14.5745 128.793 17.7909 129.566 21.0147C129.632 21.0221 129.692 21.0221 129.751 21.0147Z" fill="#D93831"/>
<path d="M74.3594 28.7327C74.8719 27.1579 75.3845 25.5906 75.897 24.0307C77.2266 19.975 78.5563 15.9266 79.871 11.8709C80.0047 11.4623 80.1904 11.3435 80.6064 11.3509C83.028 11.3732 85.4496 11.3286 87.8637 11.3806C88.7328 11.4029 89.6316 11.5292 90.4635 11.7966C92.0829 12.3091 92.9371 13.5719 92.9742 15.273C93.0485 18.5488 90.6715 22.0548 87.574 23.1022C86.7643 23.377 85.8804 23.4662 85.0262 23.533C84.1645 23.6073 83.288 23.5702 82.4263 23.5405C82.0326 23.5256 81.8766 23.6816 81.7652 24.0307C81.3047 25.494 80.8218 26.95 80.3464 28.4059C80.2796 28.6064 80.2499 28.807 79.9379 28.807C78.1329 28.7921 76.3353 28.7996 74.5302 28.7921C74.4856 28.7773 74.4411 28.755 74.3594 28.7327ZM83.3474 19.2321C84.0679 19.1504 84.6696 19.1281 85.2416 19.0019C86.1255 18.8013 86.6306 18.1848 86.8238 17.3157C86.95 16.7586 86.7643 16.3723 86.2072 16.246C85.6798 16.1272 85.1153 16.1272 84.573 16.0975C84.4913 16.09 84.3502 16.194 84.3205 16.2758C84.0085 17.2043 83.7039 18.1328 83.3474 19.2321Z" fill="#D93831"/>
<path d="M101.435 11.3504C100.938 12.8658 100.47 14.2994 99.9942 15.7405C98.6275 19.9225 97.2458 24.0971 95.8939 28.2865C95.7676 28.6654 95.6191 28.8065 95.2031 28.7991C93.5318 28.7694 91.8679 28.7917 90.1966 28.7917C90.0331 28.7917 89.8697 28.7917 89.6543 28.7917C89.7137 28.5762 89.7434 28.4128 89.7954 28.2568C91.593 22.76 93.3906 17.2632 95.2031 11.7738C95.2551 11.6104 95.4482 11.3727 95.5819 11.3727C97.5058 11.343 99.4223 11.3504 101.435 11.3504Z" fill="#D93831"/>
</svg>
