<svg width="24" height="24" viewBox="0 0 24 24" fill="none" xmlns="http://www.w3.org/2000/svg">
<path fill-rule="evenodd" clip-rule="evenodd" d="M22.7068 3.29254C23.0975 3.68287 23.0978 4.31603 22.7075 4.70675L12.7075 14.7168C12.52 14.9044 12.2656 15.0099 12.0002 15.01C11.7349 15.0101 11.4805 14.9047 11.2929 14.7171L8.29289 11.7171C7.90237 11.3266 7.90237 10.6934 8.29289 10.3029C8.68342 9.91237 9.31658 9.91237 9.70711 10.3029L11.9996 12.5954L21.2925 3.29325C21.6829 2.90253 22.316 2.90221 22.7068 3.29254Z" fill="white"/>
<path d="M12 23C18.0751 23 23 18.0751 23 12C23 10.2074 22.5712 8.51486 21.8105 7.0195L13.4149 15.4235C13.0399 15.7989 12.5311 16.0099 12.0005 16.01C11.4699 16.0101 10.961 15.7994 10.5858 15.4242L7.58579 12.4242C6.80474 11.6432 6.80474 10.3768 7.58579 9.59579C8.36684 8.81474 9.63317 8.81474 10.4142 9.59579L11.9993 11.1809L19.3536 3.81916C17.4051 2.06652 14.8271 1 12 1C5.92487 1 1 5.92487 1 12C1 18.0751 5.92487 23 12 23Z" fill="white"/>
</svg>
