<svg width="12" height="13" viewBox="0 0 12 13" fill="none" xmlns="http://www.w3.org/2000/svg">
<path d="M2.71119 12.704C2.71119 12.56 2.69519 12.496 2.63119 12.496L2.26319 12.672C2.26319 12.592 2.21519 12.544 2.13519 12.512L2.00719 12.496C1.89519 12.496 1.84719 12.512 1.68719 12.608C1.63919 12.512 1.57519 12.4 1.52719 12.304C1.11119 11.504 0.679188 10.304 0.487188 9.776C0.391188 9.504 0.295188 8.944 0.183188 8.096C0.311188 8.176 0.407188 8.208 0.455188 8.208C0.519188 8.208 0.599188 8.096 0.663188 7.872C0.695188 7.92 0.759188 7.936 0.839188 7.936C0.887188 7.936 0.951188 7.92 0.983188 7.872L1.23919 7.488L1.52719 7.584H1.54319C1.57519 7.584 1.62319 7.536 1.70319 7.488C1.78319 7.44 1.84719 7.408 1.89519 7.408L1.94319 7.424C2.19919 7.552 2.37519 7.776 2.45519 8.128C2.64719 8.944 2.82319 9.344 3.03119 9.344C3.20719 9.344 3.44719 9.136 3.70319 8.736C3.95919 8.336 4.21519 7.792 4.50319 7.136C4.51919 7.264 4.53519 7.328 4.56719 7.328C4.66319 7.328 4.90319 6.768 5.49519 5.824C6.37519 4.4 8.55119 1.664 9.11119 1.28C9.52719 0.992 9.84719 0.719999 10.0712 0.48C10.0392 0.639999 10.0072 0.752 10.0072 0.799999C10.0072 0.848 10.0392 0.863999 10.0712 0.863999L10.5192 0.639999V0.704C10.5192 0.783999 10.5352 0.832 10.5832 0.832C10.6472 0.832 10.9032 0.575999 10.9352 0.48L10.9032 0.704L11.4472 0.384L11.3192 0.672C11.4792 0.559999 11.6072 0.495999 11.6872 0.495999C11.7672 0.495999 11.8152 0.624 11.8152 0.704C11.8152 0.832 11.7032 1.008 11.5272 1.232C11.3352 1.488 10.8552 1.984 9.41519 3.632C8.79119 4.336 6.02319 8.096 5.49519 8.992L4.50319 10.672C4.07119 11.392 3.79919 11.856 3.65519 12.032C3.51119 12.208 3.33519 12.384 3.12719 12.544L2.98319 12.464L2.85519 12.544L2.71119 12.704Z" fill="#071C28"/>
</svg>
