<svg width="16" height="16" viewBox="0 0 16 16" fill="none" xmlns="http://www.w3.org/2000/svg">
<path fill-rule="evenodd" clip-rule="evenodd" d="M6.62535 0.648589C6.76285 0.344126 7.06594 0.148438 7.40002 0.148438C8.18703 0.148438 8.94451 0.455989 9.5051 1.00768C10.0661 1.55982 10.3839 2.31161 10.3839 3.09842V5.04841H13.5555C13.8811 5.04552 14.2038 5.11192 14.5018 5.24352C14.8014 5.37585 15.0693 5.57118 15.2863 5.81684C15.5034 6.06255 15.6644 6.35269 15.7573 6.66747C15.8502 6.98228 15.8724 7.31352 15.8224 7.63796L14.8408 13.9378C14.8408 13.9381 14.8409 13.9376 14.8408 13.9378C14.7575 14.4776 14.4791 14.9674 14.061 15.3171C13.6444 15.6656 13.1164 15.8531 12.5741 15.8483H2.42101C1.82264 15.8483 1.24608 15.6145 0.818886 15.1941C0.391228 14.7733 0.148438 14.1995 0.148438 13.5984V8.69839C0.148438 8.09722 0.391228 7.52348 0.818886 7.10262C1.24608 6.6822 1.82264 6.4484 2.42101 6.4484H4.00608L6.62535 0.648589ZM3.70487 8.1484H2.42101C2.26481 8.1484 2.11768 8.20959 2.01131 8.31428C1.9054 8.4185 1.84844 8.55695 1.84844 8.69839V13.5984C1.84844 13.7398 1.9054 13.8782 2.01131 13.9825C2.11768 14.0872 2.26481 14.1483 2.42101 14.1483H3.70487V8.1484ZM5.40487 14.1483H12.5876C12.7296 14.1499 12.8654 14.1009 12.9702 14.0132C13.0747 13.9258 13.141 13.8065 13.1607 13.6789L14.1423 7.37883C14.1422 7.379 14.1423 7.37866 14.1423 7.37883C14.154 7.30214 14.1488 7.2233 14.1268 7.14848C14.1046 7.07346 14.0659 7.00307 14.0124 6.94248C13.9588 6.88186 13.8916 6.83247 13.8149 6.79859C13.7382 6.7647 13.6543 6.74741 13.5692 6.74835L13.5598 6.74846L9.53387 6.74841C9.06443 6.74841 8.68388 6.36785 8.68388 5.89841V3.09842C8.68388 2.77134 8.55197 2.45484 8.31267 2.21934C8.1948 2.10334 8.0556 2.01176 7.90356 1.94862L5.40487 7.48143V14.1483Z" fill="#808080"/>
</svg>
