<svg width="16" height="16" viewBox="0 0 16 16" fill="none" xmlns="http://www.w3.org/2000/svg">
<path fill-rule="evenodd" clip-rule="evenodd" d="M2.56 3.20156H13.44C13.6692 3.20156 13.8483 3.20185 13.9932 3.20387L8.53149 8.05876C8.22838 8.32819 7.77162 8.32819 7.46851 8.05876L2.00676 3.20387C2.15168 3.20185 2.33076 3.20156 2.56 3.20156ZM1.6 4.98304V11.8416C1.6 12.316 1.60124 12.5756 1.61648 12.7621L1.61832 12.7832L1.63941 12.7851C1.82595 12.8003 2.08556 12.8016 2.56 12.8016H13.44C13.9144 12.8016 14.174 12.8003 14.3606 12.7851L14.3817 12.7832L14.3835 12.7621C14.3988 12.5756 14.4 12.316 14.4 11.8416V4.98304L9.59447 9.25462C8.68515 10.0629 7.31485 10.0629 6.40553 9.25462L1.6 4.98304ZM0 4.16156C0 3.26548 0 2.81744 0.17439 2.47518C0.327787 2.17412 0.572556 1.92935 0.873615 1.77595C1.21587 1.60156 1.66392 1.60156 2.56 1.60156H13.44C14.3361 1.60156 14.7841 1.60156 15.1264 1.77595C15.4274 1.92935 15.6722 2.17412 15.8256 2.47518C16 2.81744 16 3.26548 16 4.16156V11.8416C16 12.7376 16 13.1857 15.8256 13.5279C15.6722 13.829 15.4274 14.0738 15.1264 14.2272C14.7841 14.4016 14.3361 14.4016 13.44 14.4016H2.56C1.66392 14.4016 1.21587 14.4016 0.873615 14.2272C0.572556 14.0738 0.327787 13.829 0.17439 13.5279C0 13.1857 0 12.7376 0 11.8416V4.16156Z" fill="#808080"/>
</svg>
