<svg width="24" height="26" viewBox="0 0 24 26" fill="none" xmlns="http://www.w3.org/2000/svg">
<path fill-rule="evenodd" clip-rule="evenodd" d="M9.02031 11C9.57259 11 10.0203 11.4477 10.0203 12V19.125C10.0203 19.6773 9.57259 20.125 9.02031 20.125C8.46803 20.125 8.02031 19.6773 8.02031 19.125V12C8.02031 11.4477 8.46803 11 9.02031 11ZM14.9412 11C15.4935 11 15.9412 11.4477 15.9412 12V19.125C15.9412 19.6773 15.4935 20.125 14.9412 20.125C14.3889 20.125 13.9412 19.6773 13.9412 19.125V12C13.9412 11.4477 14.3889 11 14.9412 11ZM20 23V7H4V23C4 23.5523 4.44771 24 5 24H19C19.5523 24 20 23.5523 20 23ZM22 23C22 24.6569 20.6569 26 19 26H5C3.34315 26 2 24.6569 2 23V7H22V23Z" fill="white" fill-opacity="0.5"/>
<path fill-rule="evenodd" clip-rule="evenodd" d="M8.26772 2.2494C8.42472 2.07242 8.61016 2 8.77419 2H15.2258C15.3898 2 15.5753 2.07242 15.7323 2.2494C15.8927 2.43028 16 2.69868 16 3V5H8V3C8 2.69868 8.10727 2.43028 8.26772 2.2494ZM6 5V3C6 2.24045 6.26658 1.49144 6.77157 0.922172C7.28003 0.349009 7.99714 0 8.77419 0H15.2258C16.0029 0 16.72 0.349009 17.2284 0.922172C17.7334 1.49144 18 2.24045 18 3V5H23C23.5523 5 24 5.44772 24 6C24 6.55228 23.5523 7 23 7H22H2H1C0.447715 7 0 6.55228 0 6C0 5.44772 0.447715 5 1 5H6Z" fill="white" fill-opacity="0.5"/>
</svg>
