<svg width="16" height="16" viewBox="0 0 16 16" fill="none" xmlns="http://www.w3.org/2000/svg">
<path fill-rule="evenodd" clip-rule="evenodd" d="M2.56 3.2001H13.44C13.6692 3.2001 13.8483 3.20039 13.9932 3.20241L8.53149 8.0573C8.22838 8.32673 7.77162 8.32673 7.46851 8.0573L2.00676 3.20241C2.15168 3.20039 2.33076 3.2001 2.56 3.2001ZM1.6 4.98157V11.8401C1.6 12.3145 1.60124 12.5741 1.61648 12.7607L1.61832 12.7818L1.63941 12.7836C1.82595 12.7989 2.08556 12.8001 2.56 12.8001H13.44C13.9144 12.8001 14.174 12.7989 14.3606 12.7836L14.3817 12.7818L14.3835 12.7607C14.3988 12.5741 14.4 12.3145 14.4 11.8401V4.98157L9.59447 9.25315C8.68515 10.0614 7.31485 10.0614 6.40553 9.25315L1.6 4.98157ZM0 4.1601C0 3.26401 0 2.81597 0.17439 2.47371C0.327787 2.17265 0.572556 1.92788 0.873615 1.77449C1.21587 1.6001 1.66392 1.6001 2.56 1.6001H13.44C14.3361 1.6001 14.7841 1.6001 15.1264 1.77449C15.4274 1.92788 15.6722 2.17265 15.8256 2.47371C16 2.81597 16 3.26401 16 4.1601V11.8401C16 12.7362 16 13.1842 15.8256 13.5265C15.6722 13.8275 15.4274 14.0723 15.1264 14.2257C14.7841 14.4001 14.3361 14.4001 13.44 14.4001H2.56C1.66392 14.4001 1.21587 14.4001 0.873615 14.2257C0.572556 14.0723 0.327787 13.8275 0.17439 13.5265C0 13.1842 0 12.7362 0 11.8401V4.1601Z" fill="#808080"/>
</svg>
