<svg width="16" height="16" viewBox="0 0 16 16" fill="none" xmlns="http://www.w3.org/2000/svg">
<path d="M4 5H8.5M4 8H10.5M4 11H10.5" stroke="#808080" stroke-width="1.5" stroke-linecap="round"/>
<mask id="path-2-inside-1_1401_92014" fill="white">
<path d="M10.9925 0H4.00833C1.475 0 0 1.424 0 3.864V12.128C0 14.608 1.475 16 4.00833 16H10.9925C13.5667 16 15 14.608 15 12.128V3.864C15 1.424 13.5667 0 10.9925 0Z"/>
</mask>
<path d="M10.9925 -1.5H4.00833V1.5H10.9925V-1.5ZM4.00833 -1.5C2.46674 -1.5 1.05014 -1.063 0.0129122 -0.0627172C-1.03173 0.944707 -1.5 2.3387 -1.5 3.864H1.5C1.5 2.9493 1.76923 2.41129 2.09542 2.09672C2.42903 1.775 3.01659 1.5 4.00833 1.5V-1.5ZM-1.5 3.864V12.128H1.5V3.864H-1.5ZM-1.5 12.128C-1.5 13.6674 -1.03505 15.0677 0.0153688 16.0761C1.05675 17.0758 2.47555 17.5 4.00833 17.5V14.5C3.00778 14.5 2.42242 14.2282 2.09296 13.9119C1.77255 13.6043 1.5 13.0686 1.5 12.128H-1.5ZM4.00833 17.5H10.9925V14.5H4.00833V17.5ZM10.9925 17.5C12.5401 17.5 13.9642 17.0786 15.0046 16.072C16.0524 15.0583 16.5 13.6556 16.5 12.128H13.5C13.5 13.0804 13.231 13.6137 12.9186 13.916C12.5988 14.2254 12.019 14.5 10.9925 14.5V17.5ZM16.5 12.128V3.864H13.5V12.128H16.5ZM16.5 3.864C16.5 2.35052 16.0491 0.954173 15.007 -0.0586602C13.9707 -1.06585 12.549 -1.5 10.9925 -1.5V1.5C12.0102 1.5 12.5922 1.77785 12.9161 2.09266C13.2342 2.40183 13.5 2.93748 13.5 3.864H16.5Z" fill="#808080" mask="url(#path-2-inside-1_1401_92014)"/>
</svg>
