<svg width="83" height="66" viewBox="0 0 83 66" fill="none" xmlns="http://www.w3.org/2000/svg">
<path d="M0 49.2558L54.0465 18L83 34.7442L28.9535 66L0 49.2558Z" fill="#1F323F"/>
<path d="M0 40.2558L54.0465 9L83 25.7442L28.9535 57L0 40.2558Z" fill="#2A4455"/>
<path d="M0 31.2558L54.0465 0L83 16.7442L28.9535 48L0 31.2558Z" fill="#3F5766"/>
<path d="M13 28.5322L49.7325 7C52.4022 8.56494 56.7312 8.56534 59.401 7.00043L71 13.7996C68.3305 15.3646 68.3305 17.9017 71 19.4666L34.2655 41C31.5959 39.4355 27.2684 39.4355 24.5989 41L13 34.2008L13.0012 34.2001C15.671 32.6352 15.671 30.0979 13.0012 28.5329L13 28.5322Z" fill="white"/>
<rect width="11.13" height="2.226" transform="matrix(0.866041 -0.499972 0.866041 0.499972 20.6602 35.0537)" fill="#3F5766"/>
<rect width="11.13" height="2.226" transform="matrix(0.866041 -0.499972 0.866041 0.499972 51.5 17.2471)" fill="#3F5766"/>
<path fill-rule="evenodd" clip-rule="evenodd" d="M53.5447 33.9787L24.9998 17.1039L32.0883 13.0003L61.9998 29.3302V47.1625L53.5447 52.0003V33.9787Z" fill="#6E828E"/>
</svg>
