<svg width="54" height="65" viewBox="0 0 54 65" fill="none" xmlns="http://www.w3.org/2000/svg">
<path d="M0 51C0 41.0589 8.05888 33 18 33H36C45.9411 33 54 41.0589 54 51V65H0V51Z" fill="#2A4455"/>
<path d="M12 46V55.5V65H42V46H12Z" fill="#92A7B3"/>
<path d="M22 46L22 56.7098L27 53.8973L32 56.7098V46L30 46V53.2902L27 51.6027L24 53.2902V46L22 46Z" fill="white"/>
<path d="M24 46V53.2902L27 51.6027L30 53.2902V46H24Z" fill="#3F5766"/>
<rect x="19" y="27" width="16" height="9" fill="#EDCB9C"/>
<path d="M19.0017 30.9988L27.0017 35.9988L24.0017 40.9988L18.1608 35.1589C17.4866 34.4849 17.3819 33.4286 17.9108 32.6353L19.0017 30.9988Z" fill="#92A7B3"/>
<path d="M35.0033 31.0001L27.0023 36.0002L30.0023 41.0002L35.843 35.159C36.5169 34.4851 36.6216 33.4292 36.0932 32.636L35.0033 31.0001Z" fill="#92A7B3"/>
<path d="M18 16.4286C18 18.3221 16.6569 21 15 21C13.3431 21 12 18.3221 12 16.4286C12 14.535 13.3431 13 15 13C16.6569 13 18 14.535 18 16.4286Z" fill="#EDCB9C"/>
<path d="M42 16.4286C42 18.3221 40.6569 21 39 21C37.3431 21 36 18.3221 36 16.4286C36 14.535 37.3431 13 39 13C40.6569 13 42 14.535 42 16.4286Z" fill="#EDCB9C"/>
<path d="M15 10C15 4.47715 19.4772 0 25 0H29C34.5228 0 39 4.47715 39 10V19C39 25.6274 33.6274 31 27 31C20.3726 31 15 25.6274 15 19V10Z" fill="#F7D6AC"/>
<path d="M15 10C15 4.47715 19.4772 0 25 0H29C34.5228 0 39 4.47715 39 10V14H15V10Z" fill="#92A7B3"/>
<path fill-rule="evenodd" clip-rule="evenodd" d="M20.3503 17C18.2483 17 16.2915 16.0433 15 14.4511V12.0192C16.5172 11.3741 19.9213 10.4551 27.0018 10.4551C34.0779 10.4551 37.4821 11.373 39.0007 12.018V14.4546C37.7092 16.0447 35.7538 17 33.6532 17H20.3503Z" fill="#2A4455"/>
</svg>
