<svg width="40" height="40" viewBox="0 0 40 40" fill="none" xmlns="http://www.w3.org/2000/svg">
<path d="M27.8749 24.0447C26.9491 23.2647 26.5216 23.0289 25.2433 22.2614C24.7108 21.9422 23.8991 21.6664 23.4733 21.6664C23.1824 21.6664 22.8341 21.8889 22.6208 22.1022C22.0741 22.6489 21.8949 23.333 20.9366 23.333C19.9991 23.333 18.3616 22.3789 17.1866 21.1455C15.9533 19.9705 14.9991 18.333 14.9991 17.3955C14.9991 16.4372 15.6708 16.2455 16.2174 15.698C16.4308 15.4855 16.6658 15.1372 16.6658 14.8464C16.6658 14.4205 16.3899 13.6214 16.0708 13.0889C15.3033 11.8097 15.0683 11.3822 14.2874 10.4572C14.0233 10.1439 13.7224 10.0005 13.4074 9.99969C12.8749 9.99886 12.1758 10.263 11.7024 10.6155C10.9908 11.1464 10.2466 11.8689 10.0474 12.7689C10.0208 12.8914 10.0049 13.0147 9.99993 13.138C9.9616 14.0755 10.3299 15.0272 10.7274 15.833C11.6633 17.7322 12.9016 19.5705 14.2491 21.2122C14.6799 21.7372 15.1491 22.2255 15.6349 22.6972C16.1066 23.1822 16.5949 23.6514 17.1199 24.083C18.7616 25.4305 20.5999 26.6689 22.4991 27.6047C23.2974 27.998 24.2374 28.3597 25.1658 28.333C25.2983 28.3289 25.4308 28.3139 25.5633 28.2847C26.4633 28.0864 27.1858 27.3414 27.7166 26.6297C28.0691 26.1564 28.3333 25.458 28.3324 24.9247C28.3316 24.6097 28.1883 24.3089 27.8749 24.0447ZM28.3324 19.9997C27.8724 19.9997 27.4991 19.6264 27.4991 19.1664V18.333C27.4991 14.198 24.1341 10.833 19.9991 10.833C19.5391 10.833 19.1658 10.4597 19.1658 9.99969C19.1658 9.53969 19.5391 9.16636 19.9991 9.16636C25.0533 9.16636 29.1658 13.2789 29.1658 18.333V19.1664C29.1658 19.6264 28.7924 19.9997 28.3324 19.9997ZM23.2141 18.333C22.8441 18.333 22.5058 18.0847 22.4083 17.7097C22.1799 16.8339 21.4966 16.1497 20.6241 15.9247C20.1783 15.8089 19.9108 15.3547 20.0258 14.9089C20.1408 14.4639 20.5941 14.1964 21.0416 14.3105C22.4983 14.688 23.6399 15.8289 24.0208 17.2889C24.1366 17.7347 23.8699 18.1889 23.4249 18.3055C23.3541 18.3239 23.2833 18.333 23.2141 18.333Z" fill="#7E57C2"/>
<path d="M25.8324 19.1663C25.3724 19.1663 24.9991 18.793 24.9991 18.333C24.9991 15.6763 22.9208 13.4847 20.2674 13.3447C19.8074 13.3205 19.4549 12.928 19.4791 12.4688C19.5033 12.0088 19.9024 11.6555 20.3549 11.6805C23.8941 11.8672 26.6658 14.7897 26.6658 18.333C26.6658 18.793 26.2924 19.1663 25.8324 19.1663Z" fill="#7E57C2"/>
<path d="M19.9991 3.33301C16.2491 3.33301 10.4058 3.67801 6.84578 6.92967C4.32911 9.43551 3.33245 12.9505 3.33245 17.4997C3.33245 17.8763 3.33078 18.2963 3.33411 18.7497C3.33078 19.2022 3.33245 19.6222 3.33245 19.9988C3.33245 24.548 4.32911 28.063 6.84578 30.5688C8.20078 31.8063 9.89078 32.6205 11.6658 33.1572V36.9788C11.6658 38.3088 12.5399 38.333 12.6999 38.333H12.7074C13.1191 38.3313 13.4749 38.1297 13.8316 37.813C13.9658 37.6938 15.5149 35.9672 17.1999 34.0788C18.2033 34.143 19.1566 34.1663 19.9983 34.1663C23.7483 34.1663 29.5908 33.8205 33.1516 30.5688C35.6674 28.0638 36.665 24.548 36.665 19.9988C36.665 19.6222 36.6666 19.2022 36.6633 18.7488C36.6666 18.2955 36.665 17.8763 36.665 17.4988C36.665 12.9497 35.6683 9.43467 33.1516 6.92884C29.5916 3.67801 23.7491 3.33301 19.9991 3.33301ZM34.1658 19.7088V19.9988C34.1658 24.0872 33.295 26.873 31.4275 28.7588C28.1924 31.6663 22.0299 31.6663 19.9983 31.6663C19.3799 31.6663 18.3766 31.6655 17.1924 31.583C16.8633 31.953 13.3324 35.9022 13.3324 35.9022V31.0163C11.5791 30.5955 9.84661 29.9055 8.57078 28.7597C6.70328 26.873 5.83245 24.0872 5.83245 19.9988V19.7088C5.83245 19.4163 5.83161 19.1005 5.83411 18.7313C5.83161 18.398 5.83161 18.083 5.83245 17.7897V17.4997C5.83245 13.4113 6.70328 10.6255 8.57078 8.73967C11.8049 5.83217 17.9683 5.83217 19.9991 5.83217C22.0299 5.83217 28.1924 5.83217 31.4266 8.73967C33.295 10.6255 34.1649 13.4113 34.1649 17.4997V17.7897C34.1649 18.0822 34.1658 18.398 34.1633 18.7672C34.1658 19.1013 34.1658 19.4163 34.1658 19.7088Z" fill="#7E57C2"/>
</svg>
