<svg width="98" height="19" viewBox="0 0 98 19" fill="none" xmlns="http://www.w3.org/2000/svg">
<path fill-rule="evenodd" clip-rule="evenodd" d="M1.53938 2.36516C2.50678 1.19992 4.20898 0 6.55562 0C7.69412 0 8.55189 0.300911 8.55189 0.300911L8.55576 0.29926C10.1754 0.825015 11.5617 1.92873 12.4002 3.55634L12.399 3.55778C12.4128 3.58156 13.1395 4.84071 13.1395 6.64858C13.1395 8.59984 12.3884 9.99701 12.3884 9.99701C11.8647 11.0869 10.7931 12.4264 10.365 12.9616C10.2935 13.051 10.2399 13.1179 10.2099 13.1575C9.43435 14.1352 8.6451 15.1524 8.00992 16.2971C7.68622 16.89 7.48104 17.5176 7.21956 18.3398C7.09364 18.7175 6.93068 18.9617 6.57142 18.9617C6.2418 18.9617 6.08847 18.8182 5.91884 18.3371C5.64218 17.4665 5.4844 16.9765 5.10589 16.2539C4.66256 15.4856 4.16668 14.7492 3.62183 14.0502L3.62228 14.0476C3.3751 13.7117 3.09624 13.3632 2.80696 13.0017C2.02181 12.0206 1.15983 10.9434 0.646112 9.762L0.646421 9.76024C0.618458 9.70418 0 8.44403 0 6.63673C0 4.88983 0.674211 3.36273 1.53957 2.36675L1.53938 2.36516ZM4.63458 4.98658L4.63698 4.98862L4.59861 5.03452C4.47162 5.19983 4.05866 5.80017 4.05866 6.61679C4.05866 8.02403 5.18013 9.14005 6.56826 9.14005C7.52 9.14005 8.14559 8.6125 8.38813 8.36315L8.5014 8.23331L8.54659 8.17634C8.68114 7.99613 9.07946 7.39533 9.07946 6.59826C9.07946 5.15821 7.87503 4.08246 6.57393 4.08246C5.34358 4.08246 4.63692 4.98557 4.63692 4.98557V4.98378L4.63458 4.98658Z" fill="#D3D3D3"/>
<path d="M67.2674 15.3795V5.4136H68.5393L71.9818 11.4822H72.0374L75.4799 5.4136H76.7517V15.3795H75.4799V9.46379L75.5355 7.7933H75.4799L72.3837 13.2634H71.6374L68.5411 7.7933H68.4855L68.5411 9.46379V15.3791L67.2674 15.3795Z" fill="#D3D3D3"/>
<path fill-rule="evenodd" clip-rule="evenodd" d="M80.4702 15.5883C79.7517 15.5883 79.1499 15.3795 78.6665 14.9619C78.1832 14.5442 77.9406 13.9924 77.9406 13.3055C77.9406 12.5598 78.2258 11.9811 78.7976 11.5586C79.3695 11.1361 80.0739 10.9255 80.9087 10.9255C81.6554 10.9255 82.268 11.0645 82.7476 11.3431V11.1481C82.7476 10.6469 82.5772 10.2457 82.2365 9.94443C81.8958 9.64314 81.4761 9.49213 80.978 9.49213C80.6095 9.49213 80.2758 9.58012 79.9762 9.75314C79.6765 9.92615 79.4717 10.1708 79.3613 10.4765L78.1999 9.97575C78.3565 9.56745 78.6654 9.19271 79.1258 8.84146C79.5862 8.49021 80.1947 8.31943 80.9506 8.31943C81.8172 8.31943 82.5358 8.57485 83.1072 9.08494C83.6787 9.59504 83.9642 10.3147 83.9642 11.2428V15.3664H82.748V14.4193H82.6924C82.185 15.2024 81.4432 15.5883 80.4702 15.5883ZM80.6776 14.4193C81.2028 14.4193 81.6795 14.2217 82.1083 13.8279C82.5372 13.4342 82.7513 12.9703 82.7513 12.4296C82.392 12.1325 81.8528 11.9841 81.1339 11.9841C80.5161 11.9841 80.0506 12.1183 79.7376 12.3879C79.4247 12.6575 79.2673 12.9726 79.2673 13.3342C79.2673 13.6683 79.4102 13.9327 79.6958 14.1277C79.9813 14.3227 80.3091 14.4193 80.6776 14.4193Z" fill="#D3D3D3"/>
<path fill-rule="evenodd" clip-rule="evenodd" d="M88.7301 15.5883C88.2142 15.5883 87.7509 15.4764 87.3412 15.2542C86.9316 15.032 86.6246 14.753 86.4227 14.4189H86.3672L86.4227 15.3653V18.3718H85.1509V8.54576H86.3679V9.49213H86.4235C86.6261 9.15803 86.9324 8.87986 87.342 8.65688C87.7516 8.4339 88.2153 8.32278 88.7309 8.32278C89.6064 8.32278 90.3623 8.67068 90.9982 9.36684C91.6342 10.063 91.9523 10.9255 91.9523 11.9557C91.9523 12.986 91.6338 13.8488 90.9982 14.5446C90.3627 15.2404 89.6057 15.5883 88.7301 15.5883ZM88.5227 14.4193C89.1127 14.4193 89.619 14.1941 90.0434 13.7481C90.4679 13.3022 90.6794 12.7018 90.6794 11.9595C90.6794 11.2171 90.4675 10.6171 90.0434 10.1708C89.6194 9.72443 89.1123 9.49958 88.5227 9.49958C87.9238 9.49958 87.4142 9.72219 86.9949 10.1678C86.5757 10.6134 86.3664 11.2118 86.3664 11.9632C86.3664 12.7145 86.5761 13.313 86.9949 13.7586C87.4138 14.2042 87.9235 14.4268 88.5227 14.4268V14.4193Z" fill="#D3D3D3"/>
<path d="M95.3319 15.5883C94.5763 15.5883 93.9519 15.4026 93.4586 15.0316C92.9652 14.6606 92.6067 14.1963 92.3734 13.6396L93.5067 13.1661C93.866 14.0237 94.4793 14.4462 95.346 14.4462C95.7423 14.4462 96.0674 14.3582 96.3208 14.1852C96.5741 14.0121 96.7011 13.7769 96.7011 13.4894C96.7011 13.0441 96.3922 12.7421 95.7745 12.5848L94.406 12.251C93.9726 12.1399 93.5626 11.9285 93.1756 11.6179C92.7886 11.3073 92.5949 10.8871 92.5949 10.3587C92.5949 9.75575 92.8597 9.26616 93.3897 8.88956C93.9197 8.51295 94.5489 8.32577 95.2767 8.32577C95.8756 8.32577 96.41 8.46261 96.8804 8.73593C97.3413 8.99918 97.6978 9.41461 97.8896 9.91198L96.7833 10.3714C96.5352 9.76843 96.0185 9.46677 95.2352 9.46677C94.8574 9.46677 94.5389 9.54582 94.2815 9.70317C94.0241 9.86053 93.8945 10.0746 93.8945 10.3438C93.8945 10.7334 94.1908 10.9978 94.793 11.1373L96.1337 11.4572C96.7696 11.6056 97.2396 11.861 97.5437 12.2227C97.8478 12.5844 98 12.9931 98 13.448C98 14.0602 97.7511 14.5666 97.2533 14.979C96.7556 15.3914 96.1152 15.5913 95.3274 15.5913L95.3319 15.5883Z" fill="#D3D3D3"/>
<path d="M29.5775 9.43769H24.3605V10.9963H28.0642C27.8816 13.1814 26.0753 14.1136 24.3705 14.1136C23.8303 14.116 23.295 14.0101 22.796 13.802C22.2969 13.5939 21.8439 13.2878 21.4637 12.9015C21.0834 12.5152 20.7834 12.0565 20.5811 11.5522C20.3789 11.0478 20.2785 10.508 20.2858 9.96419C20.2858 7.605 22.0998 5.78797 24.3746 5.78797C26.1301 5.78797 27.1635 6.9148 27.1635 6.9148L28.2475 5.78499C28.2475 5.78499 26.8561 4.22636 24.3191 4.22636C21.0884 4.22636 18.5884 6.97185 18.5884 9.93734C18.5884 12.8428 20.9402 15.677 24.4016 15.677C27.4461 15.677 29.6757 13.577 29.6757 10.4717C29.6757 9.8169 29.5812 9.43806 29.5812 9.43806L29.5775 9.43769Z" fill="#D3D3D3"/>
<path fill-rule="evenodd" clip-rule="evenodd" d="M30.1856 11.9788C30.1856 10.0137 31.7196 8.32906 33.8603 8.32906L33.864 8.32832C35.6236 8.32832 37.5321 9.58379 37.5321 12.0213C37.5321 14.1482 35.8918 15.6889 33.8892 15.6889C31.6737 15.6889 30.1856 13.9729 30.1856 11.9788ZM35.9318 12.012C35.9318 10.6316 34.9344 9.7747 33.8814 9.7747C32.6989 9.7747 31.7892 10.7274 31.7892 12.0019C31.7892 13.3047 32.7096 14.2455 33.8763 14.2455C34.9381 14.2455 35.9318 13.3633 35.9318 12.012Z" fill="#D3D3D3"/>
<path fill-rule="evenodd" clip-rule="evenodd" d="M41.8142 8.32906C39.6735 8.32906 38.1394 10.0137 38.1394 11.9788C38.1394 13.9729 39.6275 15.6889 41.8431 15.6889C43.8456 15.6889 45.486 14.1482 45.486 12.0213C45.486 9.58379 43.5775 8.32832 41.8179 8.32832L41.8142 8.32906ZM41.8353 9.7747C42.8882 9.7747 43.8856 10.6316 43.8856 12.012C43.8856 13.3633 42.8919 14.2455 41.8301 14.2455C40.6635 14.2455 39.7431 13.3047 39.7431 12.0019C39.7431 10.7274 40.6527 9.7747 41.8353 9.7747Z" fill="#D3D3D3"/>
<path fill-rule="evenodd" clip-rule="evenodd" d="M46.1366 12.0063C46.1366 10.0618 47.6814 8.32902 49.6462 8.32902L49.6432 8.32716C50.4981 8.32716 51.1425 8.66088 51.6136 9.17173V8.54828H53.1462V15.1594C53.1462 17.7613 51.6569 19 49.7033 19C47.9166 19 46.9137 17.8933 46.4151 16.8325L47.8199 16.2411C48.0148 16.7154 48.5744 17.5514 49.691 17.5514C50.851 17.5514 51.6169 16.7907 51.6169 15.5211V14.7954C51.2073 15.2738 50.6536 15.6904 49.6118 15.6904C47.927 15.6904 46.1366 14.2212 46.1366 12.0063ZM51.741 12.0142C51.741 10.5998 50.7521 9.77206 49.7884 9.77206C48.7566 9.77206 47.7448 10.6107 47.7448 12.0276C47.7448 13.3878 48.7196 14.244 49.767 14.244C50.754 14.244 51.741 13.452 51.741 12.0142Z" fill="#D3D3D3"/>
<path fill-rule="evenodd" clip-rule="evenodd" d="M56.5761 12.0045C56.5761 9.81307 58.1328 8.32902 59.9861 8.32902L59.9935 8.3294C61.452 8.3294 62.5564 9.31081 63.0305 10.4861L63.2849 11.0827L58.3835 13.1335C58.6761 13.6824 59.1483 14.2492 60.1761 14.2492C61.0905 14.2492 61.639 13.748 61.9668 13.2357L63.226 14.0821C62.6601 14.8454 61.7105 15.6974 60.1639 15.6974C58.3106 15.6974 56.5761 14.3223 56.5761 12.0045ZM61.4027 10.5305C61.198 10.1025 60.7181 9.74459 60.0502 9.74446C58.9916 9.74446 57.9887 10.8415 58.1294 11.9079L61.4027 10.5305Z" fill="#D3D3D3"/>
<path d="M55.8447 15.4782H54.235V4.62748H55.8447V15.4782Z" fill="#D3D3D3"/>
</svg>
