<svg width="99" height="24" viewBox="0 0 99 24" fill="none" xmlns="http://www.w3.org/2000/svg">
<path fill-rule="evenodd" clip-rule="evenodd" d="M7.08488 0.669419C8.29539 0.197144 9.5907 -0.0294377 10.8927 0.0033322C12.1947 -0.0306219 13.4902 0.195208 14.7008 0.667165C15.9114 1.13912 17.012 1.8474 17.936 2.74917C18.86 3.65093 19.5882 4.72745 20.0767 5.91361C20.5651 7.09977 20.8036 8.37094 20.7777 9.65023C20.7777 12.3192 19.8203 14.5541 17.4063 16.7648C16.7994 17.3191 16.1584 17.8176 15.5303 18.306C14.4731 19.1281 13.4527 19.9216 12.693 20.905C12.1446 21.6448 11.765 22.4921 11.5801 23.389C11.4819 23.799 11.2937 24 10.8846 24C10.4754 24 10.3036 23.799 10.1972 23.389C10.0147 22.4938 9.6348 21.6486 9.08433 20.913C8.32504 19.9235 7.2984 19.1261 6.23285 18.2986C5.61032 17.8151 4.97452 17.3213 4.37098 16.7729C1.9734 14.5621 0.999634 12.3272 0.999634 9.65023C0.976008 8.37086 1.21631 7.10004 1.70607 5.91436C2.19582 4.72869 2.92488 3.65271 3.8493 2.7513C4.77373 1.84988 5.87436 1.14169 7.08488 0.669419ZM7.66394 11.0543C7.49186 10.6394 7.40724 10.1946 7.41518 9.74671C7.40517 9.29602 7.488 8.848 7.65871 8.42956C7.82943 8.01112 8.08449 7.6309 8.40857 7.31177C8.73265 6.99263 9.11906 6.74116 9.54458 6.57246C9.9701 6.40376 10.4259 6.32133 10.8847 6.3301C11.3439 6.32136 11.8001 6.40376 12.226 6.57237C12.652 6.74098 13.0389 6.99232 13.3637 7.31134C13.6884 7.63036 13.9442 8.01049 14.1158 8.42896C14.2875 8.84743 14.3713 9.29564 14.3625 9.74671C14.3704 10.1953 14.2856 10.6408 14.113 11.0562C13.9404 11.4716 13.6837 11.8483 13.3585 12.1633C13.0333 12.4782 12.6463 12.725 12.2211 12.8887C11.7958 13.0523 11.3412 13.1293 10.8847 13.1151C10.4289 13.1282 9.97518 13.0503 9.55089 12.8862C9.12661 12.7221 8.74063 12.4751 8.4163 12.1603C8.09196 11.8454 7.83601 11.4691 7.66394 11.0543Z" fill="white"/>
<path d="M33.0521 12.0621H32.3402C31.1864 12.0621 30.2372 11.4511 30.2372 9.56193C30.2372 7.67275 31.2764 6.94119 32.3402 6.94119H33.0521V12.0621ZM33.0521 13.1152V17.6251H34.3777V5.87199H32.3893C31.8985 5.85519 31.4096 5.94118 30.9552 6.12426C30.5009 6.30734 30.0914 6.58331 29.7539 6.93385C29.4165 7.28438 29.1588 7.70145 28.998 8.15734C28.8373 8.61323 28.7771 9.09751 28.8215 9.57801C28.8215 11.3386 29.5498 12.2952 30.6381 12.7936L28.3224 17.6171H29.8607L31.9719 13.1072L33.0521 13.1152Z" fill="white"/>
<path d="M51.079 10.2852C51.8564 10.2852 52.0937 11.3223 52.0937 12.7372H49.868C49.9498 11.258 50.2444 10.2852 51.079 10.2852ZM45.621 16.5879H43.3053C43.9291 14.631 44.2059 12.5834 44.1236 10.5344V10.3817H45.6292L45.621 16.5879ZM63.1324 17.7616C63.7934 17.7793 64.4376 17.5559 64.9408 17.1345L64.6299 16.1779C64.2205 16.5169 63.7005 16.6995 63.1652 16.6924C62.0768 16.6924 61.5286 15.5026 61.5286 13.4285C61.5286 11.3544 62.2159 10.3013 63.1652 10.3013C63.6981 10.3285 64.2058 10.5326 64.6054 10.8801L64.8263 9.65014C64.3386 9.34552 63.7669 9.19668 63.1897 9.22407C61.144 9.22407 60.0966 10.8882 60.0966 13.4848C60.1457 16.3306 61.2667 17.7616 63.1324 17.7616ZM58.5009 17.641H59.9738L57.519 13.2517L59.6792 9.34466H58.28L56.1852 13.1793V9.34466H54.8595V17.641H56.2015V13.5089L58.5009 17.641ZM39.3857 9.34466V12.8658H37.3809V9.34466H36.0307V17.641H37.3809V13.9269H39.3857V17.641H40.7113V9.34466H39.3857ZM53.493 17.0863L53.182 16.0814C52.6817 16.4311 52.0857 16.6244 51.4718 16.6361C50.3998 16.6361 49.8352 15.6553 49.8352 13.7742H53.4603V13.0668C53.4603 10.2531 52.511 9.21603 51.0627 9.21603C49.2133 9.21603 48.436 11.1615 48.436 13.8224C48.436 16.4834 49.5406 17.7455 51.3327 17.7455C52.1073 17.7672 52.8672 17.5353 53.493 17.0863ZM47.6422 16.5879H46.9467V9.3527H42.9043V10.0601C42.9043 12.2709 42.8225 14.8354 42.0288 16.5959H41.4887V19.297H42.7325V17.6892H46.4639V19.297H47.6422V16.5879Z" fill="white"/>
<path d="M73.5984 17.6411H74.564L70.6935 11.3063L74.253 5.87188H73.4266L69.8179 11.3706V5.87188H68.9505V17.6411H69.8179V11.4349L73.5984 17.6411Z" fill="white"/>
<path d="M79.1054 17.6411H79.8418C79.7138 17.1418 79.6506 16.6285 79.6536 16.1136V11.5876C79.6536 9.93963 78.8353 9.17591 77.4115 9.17591C77.0302 9.15465 76.6488 9.21559 76.294 9.35446C75.9392 9.49334 75.6196 9.70678 75.3576 9.97982L75.5785 10.7194C75.7883 10.436 76.0643 10.2063 76.3833 10.0497C76.7023 9.89296 77.0549 9.81387 77.4115 9.81904C78.3607 9.81904 78.8599 10.3577 78.8599 11.6278V12.7051H77.9189C76.0368 12.7051 75.0139 13.6296 75.0139 15.4062C75.0139 16.9176 75.8322 17.8179 77.0024 17.8179C77.4122 17.8095 77.8105 17.6832 78.148 17.4546C78.4854 17.2259 78.7472 16.905 78.9008 16.5317C78.9232 16.9082 78.9919 17.2807 79.1054 17.6411ZM77.166 17.1828C76.3477 17.1828 75.7995 16.5076 75.7995 15.3419C75.7995 13.8868 76.495 13.2678 77.927 13.2678H78.8599V15.5509C78.5489 16.4433 77.9761 17.1828 77.166 17.1828Z" fill="white"/>
<path d="M83.8106 17.7939C85.4471 17.7939 86.5027 16.2906 86.5027 13.2519C86.5027 10.8401 85.6845 9.18407 84.2034 9.18407C83.7577 9.22438 83.3332 9.38982 82.9806 9.66066C82.628 9.9315 82.3622 10.2963 82.2149 10.7115L82.1495 9.34486H81.4375V20.2137H82.2558V17.0704C82.4433 17.2977 82.6803 17.4807 82.9494 17.6059C83.2185 17.7311 83.5128 17.7954 83.8106 17.7939ZM83.8597 17.183C83.5137 17.2075 83.1687 17.1234 82.8746 16.9427C82.5804 16.7621 82.3523 16.4944 82.2231 16.1781V11.5395C82.5995 10.6472 83.2542 9.85936 84.0315 9.85936C85.038 9.85936 85.6681 11.1376 85.6681 13.3162C85.6926 15.9289 84.9644 17.183 83.8597 17.183Z" fill="white"/>
<path d="M91.8543 9.98799V9.34487H87.0264V9.98799H89.0394V17.6412H89.8577V9.98799H91.8543Z" fill="white"/>
<path d="M94.5057 13.0348C94.7778 12.9999 95.0544 13.028 95.3135 13.1169C95.5725 13.2058 95.8069 13.353 95.9977 13.5467C96.1885 13.7404 96.3306 13.9753 96.4125 14.2326C96.4944 14.4899 96.514 14.7625 96.4695 15.0285C96.5043 15.3013 96.4751 15.5783 96.384 15.8383C96.293 16.0982 96.1426 16.3343 95.9443 16.5283C95.746 16.7223 95.5052 16.8691 95.2402 16.9575C94.9752 17.0459 94.6932 17.0735 94.4156 17.0383H93.9001V13.0187L94.5057 13.0348ZM98.998 9.34487H98.1798V17.6412H98.998V9.34487ZM93.09 17.6412H94.4893C94.8557 17.6825 95.2268 17.6437 95.5762 17.5278C95.9255 17.4118 96.2445 17.2214 96.5103 16.9703C96.7761 16.7191 96.9822 16.4134 97.1137 16.075C97.2453 15.7365 97.2992 15.3737 97.2715 15.0124C97.2715 13.284 96.1995 12.4238 94.5384 12.4238H93.9001V9.34487H93.0818L93.09 17.6412Z" fill="white"/>
</svg>
