<svg width="18" height="18" viewBox="0 0 18 18" fill="none" xmlns="http://www.w3.org/2000/svg">
<path fill-rule="evenodd" clip-rule="evenodd" d="M14.5858 4H3.41421L8.29289 8.87868C8.68342 9.2692 9.31658 9.2692 9.70711 8.87868L14.5858 4ZM2 5.41421V12.8C2 13.3931 2.00156 13.7176 2.02061 13.9507L2.0229 13.9771L2.04927 13.9794C2.28244 13.9984 2.60695 14 3.2 14H14.8C15.3931 14 15.7176 13.9984 15.9507 13.9794L15.9771 13.9771L15.9794 13.9507C15.9984 13.7176 16 13.3931 16 12.8V5.41421L11.1213 10.2929C9.94975 11.4645 8.05025 11.4645 6.87868 10.2929L2 5.41421ZM0 5.2C0 4.0799 0 3.51984 0.217987 3.09202C0.409734 2.71569 0.715695 2.40973 1.09202 2.21799C1.51984 2 2.0799 2 3.2 2H14.8C15.9201 2 16.4802 2 16.908 2.21799C17.2843 2.40973 17.5903 2.71569 17.782 3.09202C18 3.51984 18 4.0799 18 5.2V12.8C18 13.9201 18 14.4802 17.782 14.908C17.5903 15.2843 17.2843 15.5903 16.908 15.782C16.4802 16 15.9201 16 14.8 16H3.2C2.0799 16 1.51984 16 1.09202 15.782C0.715695 15.5903 0.409734 15.2843 0.217987 14.908C0 14.4802 0 13.9201 0 12.8V5.2Z" fill="#D3D3D3"/>
</svg>
