<svg width="192" height="40" viewBox="0 0 192 40" fill="none" xmlns="http://www.w3.org/2000/svg">
<path d="M9.30903 0.436523H0V9.74556H9.30903V0.436523Z" fill="#BC0000"/>
<path d="M29.0907 15.5637C29.0907 21.8589 25.2508 27.2465 19.7817 29.5273C17.9897 30.272 16.0232 30.6909 13.9636 30.6909H9.30903V39.9999L0 30.6909V12.0728H9.30903V21.3819H13.9636C17.1752 21.3819 19.7817 18.7753 19.7817 15.5637C19.7817 12.3521 17.1752 9.74556 13.9636 9.74556H11.6363V0.436523H13.9636C16.9657 0.436523 19.7584 1.30925 22.109 2.82196C26.3097 5.50995 29.0907 10.211 29.0907 15.5637Z" fill="#071C28"/>
<path d="M144.775 2.99572C144.099 2.67805 143.274 2.53027 142.31 2.53027H140.873H140.766C140.294 2.53027 138.385 2.53027 138.385 2.53027V14.6146H140.883V10.2184H142.32C143.274 10.2184 144.111 10.0706 144.786 9.75292C145.462 9.43525 145.987 9.00122 146.34 8.41824C146.705 7.83526 146.887 7.15803 146.887 6.36327C146.887 5.57898 146.705 4.8808 146.34 4.3083C145.976 3.74743 145.451 3.30292 144.775 2.99572ZM143.885 7.67701C143.499 7.9842 142.985 8.13199 142.32 8.13199H140.883V4.60619H142.32C142.985 4.60619 143.511 4.75397 143.885 5.05069C144.272 5.34742 144.465 5.78145 144.465 6.36443C144.465 6.94741 144.272 7.38028 143.885 7.67701Z" fill="#071C28"/>
<path d="M154.18 7.01073C153.558 6.67211 152.808 6.5127 151.928 6.5127C151.124 6.5127 150.427 6.65 149.816 6.92578C149.205 7.19109 148.722 7.58207 148.369 8.0801C148.004 8.57814 147.768 9.14948 147.651 9.80693C147.63 9.93377 147.618 10.0722 147.597 10.22C147.576 10.3573 147.576 10.4958 147.576 10.6541C147.576 11.4488 147.747 12.1691 148.09 12.794C148.444 13.4188 148.927 13.9169 149.581 14.2764C150.235 14.636 151.008 14.8164 151.897 14.8164C152.647 14.8164 153.269 14.7209 153.795 14.5406C154.321 14.3602 154.749 14.0961 155.113 13.7563C155.477 13.4072 155.777 13.0255 156.046 12.5705L154.073 11.9666C153.933 12.1889 153.762 12.4007 153.547 12.5705C153.333 12.7404 153.096 12.8777 152.829 12.9732C152.561 13.0686 152.249 13.1105 151.907 13.1105C151.5 13.1105 151.157 13.036 150.836 12.8673C150.525 12.6974 150.278 12.4332 150.095 12.0725C149.978 11.8293 149.913 11.5221 149.87 11.194H156.057C156.078 11.0671 156.089 10.9613 156.089 10.8449C156.089 10.739 156.089 10.6541 156.089 10.5912C156.089 9.75457 155.929 9.02381 155.596 8.43036C155.272 7.79385 154.801 7.3284 154.18 7.01073ZM149.891 9.76388C149.934 9.5102 149.998 9.26584 150.105 9.06453C150.276 8.73639 150.534 8.49319 150.823 8.33377C151.112 8.17436 151.466 8.09058 151.841 8.09058C152.217 8.09058 152.527 8.15458 152.762 8.29188C153.009 8.41872 153.202 8.6305 153.342 8.87486C153.482 9.11806 153.578 9.42526 153.621 9.77551H149.889L149.891 9.76388Z" fill="#071C28"/>
<path d="M161.696 6.49121C160.86 6.49121 160.088 6.6611 159.412 7.01019C158.736 7.35928 158.201 7.82589 157.815 8.46124C157.418 9.0861 157.225 9.80639 157.225 10.643C157.225 11.4587 157.428 12.1895 157.815 12.8144C158.201 13.4392 158.736 13.9268 159.412 14.2759C160.088 14.625 160.849 14.7949 161.696 14.7949C162.286 14.7949 162.811 14.7204 163.251 14.5831C163.701 14.4458 164.055 14.234 164.345 13.9896V11.6915C164.205 11.9451 164.012 12.1686 163.744 12.3582C163.487 12.5491 163.187 12.7073 162.865 12.8132C162.544 12.9191 162.2 12.9726 161.857 12.9726C161.417 12.9726 161.042 12.8772 160.677 12.6759C160.313 12.4851 160.034 12.2104 159.83 11.8707C159.626 11.5216 159.519 11.1294 159.519 10.6523C159.519 10.2078 159.626 9.8157 159.83 9.46661C160.044 9.11752 160.323 8.85221 160.677 8.65091C161.041 8.4496 161.417 8.34371 161.857 8.34371C162.178 8.34371 162.511 8.3856 162.833 8.49149C163.144 8.59738 163.455 8.73469 163.723 8.936C163.991 9.12683 164.206 9.35956 164.345 9.60276V7.30575C164.066 7.06255 163.701 6.86124 163.251 6.72277C162.811 6.56452 162.286 6.49121 161.696 6.49121Z" fill="#071C28"/>
<path d="M169.62 11.6175L167.615 6.6709H165.105L168.44 13.8202L166.415 18.4166H168.73L173.963 6.68137H171.604L169.62 11.6175Z" fill="#071C28"/>
<path d="M181.812 6.9358C181.223 6.60766 180.591 6.44824 179.915 6.44824C179.228 6.44824 178.628 6.61813 178.124 6.96722C177.737 7.23253 177.427 7.61303 177.18 8.05754V6.6705H174.918V18.4162H177.18V13.2473C177.437 13.6918 177.737 14.0735 178.124 14.3493C178.628 14.6984 179.228 14.8683 179.915 14.8683C180.591 14.8683 181.223 14.7088 181.812 14.3807C182.392 14.0526 182.874 13.5859 183.227 12.9401C183.592 12.3048 183.764 11.5426 183.774 10.6629C183.774 9.74131 183.592 8.97914 183.227 8.35427C182.874 7.73056 182.402 7.25347 181.812 6.9358ZM181.136 11.8708C180.943 12.2094 180.665 12.4537 180.343 12.6225C180.022 12.7923 179.646 12.8761 179.249 12.8761C178.916 12.8761 178.585 12.7912 178.273 12.6329C177.962 12.463 177.693 12.2094 177.49 11.8812C177.286 11.5426 177.189 11.14 177.189 10.6524C177.189 10.1649 177.286 9.75179 177.49 9.42364C177.693 9.08503 177.961 8.83019 178.273 8.67194C178.583 8.51252 178.916 8.42874 179.249 8.42874C179.646 8.42874 180 8.51368 180.343 8.68241C180.676 8.8523 180.943 9.10597 181.136 9.43411C181.33 9.77273 181.426 10.1858 181.426 10.6629C181.437 11.14 181.33 11.5426 181.136 11.8708Z" fill="#071C28"/>
<path d="M188.332 8.63015C188.696 8.42884 189.072 8.32295 189.512 8.32295C189.833 8.32295 190.166 8.36484 190.488 8.47073C190.799 8.57662 191.11 8.71393 191.378 8.91524C191.646 9.10607 191.861 9.3388 192 9.582V7.28499C191.721 7.04179 191.356 6.84049 190.906 6.70201C190.456 6.56471 189.941 6.49023 189.351 6.49023C188.515 6.49023 187.743 6.66012 187.067 7.00921C186.391 7.3583 185.856 7.82492 185.459 8.44979C185.062 9.07466 184.869 9.79494 184.869 10.6316C184.869 11.4473 185.073 12.1781 185.459 12.8029C185.845 13.4278 186.381 13.9154 187.057 14.2644C187.733 14.6135 188.494 14.7834 189.341 14.7834C189.931 14.7834 190.456 14.7089 190.896 14.5716C191.346 14.4343 191.7 14.2226 191.989 13.9782V11.68C191.85 11.9337 191.657 12.1571 191.389 12.3468C191.132 12.5376 190.832 12.6959 190.509 12.8018C190.188 12.9077 189.845 12.9612 189.502 12.9612C189.062 12.9612 188.687 12.8658 188.322 12.6645C187.957 12.4736 187.678 12.199 187.475 11.8592C187.271 11.5101 187.164 11.118 187.164 10.6409C187.164 10.1964 187.271 9.80425 187.475 9.45516C187.699 9.10724 187.967 8.83146 188.332 8.63015Z" fill="#071C28"/>
<path d="M40.7466 2.70798H38.3984V14.9296L46.8801 7.27173V14.3466H49.2283V2.125L40.7466 9.79215V2.70798Z" fill="#071C28"/>
<path d="M57.5489 9.47429H53.7846V6.7002H51.6621V14.3464H53.7846V11.1592H57.5489V14.3464H59.6714V6.7002H57.5489V9.47429Z" fill="#071C28"/>
<path d="M65.6018 6.53027C64.7873 6.53027 64.0251 6.70016 63.3711 7.02831C62.7067 7.35645 62.1912 7.82307 61.8061 8.42583C61.4197 9.02975 61.2266 9.72793 61.2266 10.5227C61.2266 11.3174 61.4302 12.0051 61.8061 12.6091C62.1819 13.213 62.7067 13.6784 63.3711 14.0182C64.0356 14.3464 64.7756 14.5163 65.6018 14.5163C66.1813 14.5163 66.6851 14.4418 67.1238 14.3045C67.5637 14.1672 67.907 13.9763 68.1851 13.7331V11.5188C68.0454 11.7724 67.8523 11.9737 67.6056 12.1541C67.3484 12.3449 67.0587 12.4822 66.748 12.5881C66.4268 12.694 66.094 12.7475 65.7612 12.7475C65.3318 12.7475 64.9676 12.6521 64.6139 12.4613C64.2601 12.2705 63.9809 12.0168 63.7877 11.677C63.5736 11.3489 63.477 10.9567 63.4665 10.5122C63.4665 10.0887 63.5736 9.69651 63.7772 9.36837C63.9913 9.04022 64.2601 8.77491 64.6034 8.57361C64.9572 8.3723 65.3214 8.28735 65.7508 8.28735C66.0719 8.28735 66.3942 8.32924 66.7049 8.43513C67.0156 8.54102 67.3158 8.67833 67.573 8.8587C67.8406 9.04953 68.0443 9.26131 68.1839 9.50451V7.29245C67.9046 7.04925 67.5509 6.86889 67.1227 6.73158C66.6851 6.60475 66.1697 6.53027 65.6018 6.53027Z" fill="#071C28"/>
<path d="M84.4847 6.94397C83.9052 6.63677 83.2943 6.47852 82.6299 6.47852C81.9655 6.47852 81.3755 6.64841 80.8821 6.97655C80.4958 7.24186 80.2061 7.60142 79.9605 8.02498V6.6903H77.752V18.0008H79.9605V13.0228C80.2072 13.4568 80.5074 13.8175 80.8821 14.0817C81.3755 14.4098 81.9538 14.5797 82.6299 14.5797C83.2943 14.5797 83.9064 14.4203 84.4847 14.1143C85.0526 13.8071 85.5145 13.3416 85.8683 12.7272C86.222 12.1128 86.4047 11.3716 86.4047 10.5349C86.4047 9.65639 86.222 8.91399 85.8683 8.31123C85.525 7.71778 85.0642 7.26164 84.4847 6.94397ZM83.8308 11.7102C83.6376 12.0279 83.37 12.2711 83.0593 12.441C82.7381 12.6108 82.3832 12.6946 81.998 12.6946C81.6652 12.6946 81.3441 12.6097 81.0439 12.4514C80.7332 12.2815 80.476 12.0488 80.2829 11.7207C80.0792 11.403 79.9826 11.0004 79.9826 10.5349C79.9826 10.0695 80.0792 9.67733 80.2829 9.34919C80.4865 9.03152 80.7436 8.77785 81.0439 8.61843C81.3546 8.45901 81.6769 8.37523 81.998 8.37523C82.3844 8.37523 82.7276 8.46018 83.0593 8.6289C83.3921 8.79879 83.6492 9.03152 83.8308 9.35966C84.0134 9.68781 84.1205 10.0904 84.1205 10.5454C84.1205 11.0004 84.0239 11.3925 83.8308 11.7102Z" fill="#071C28"/>
<path d="M92.955 6.71067L91.0141 11.4548L89.0522 6.7002H86.6074L89.8563 13.5842L87.8828 18.0107H90.1449L95.2497 6.71067H92.955Z" fill="#071C28"/>
<path d="M100.579 11.5932L97.5022 6.11719L95.2285 14.3464H97.1264L98.1341 10.6612L100.579 14.8758L103.077 10.6507L104.086 14.3464H105.972L103.71 6.11719L100.579 11.5932Z" fill="#071C28"/>
<path d="M113.082 7.02885C112.471 6.71117 111.741 6.55176 110.884 6.55176C110.1 6.55176 109.415 6.68907 108.825 6.9439C108.225 7.20921 107.764 7.57924 107.41 8.05633C107.056 8.53342 106.82 9.08382 106.713 9.71916C106.692 9.84599 106.681 9.98446 106.66 10.1113C106.639 10.2486 106.639 10.3871 106.639 10.5244C106.639 11.297 106.81 11.9754 107.143 12.5794C107.486 13.1833 107.957 13.6592 108.601 13.999C109.244 14.3376 109.995 14.518 110.863 14.518C111.592 14.518 112.203 14.4225 112.717 14.2422C113.232 14.0618 113.651 13.8186 114.004 13.48C114.358 13.1519 114.658 12.7702 114.916 12.3362L112.985 11.7532C112.845 11.9754 112.674 12.1663 112.471 12.3362C112.257 12.506 112.031 12.6224 111.774 12.7178C111.506 12.8132 111.206 12.8551 110.873 12.8551C110.476 12.8551 110.144 12.7807 109.833 12.6119C109.522 12.442 109.286 12.1989 109.115 11.8393C108.997 11.6066 108.932 11.3098 108.889 10.9922H114.926C114.947 10.8653 114.959 10.7594 114.959 10.664C114.959 10.5581 114.959 10.4732 114.959 10.4104C114.959 9.59465 114.798 8.90694 114.476 8.33444C114.143 7.79102 113.682 7.34652 113.082 7.02885ZM108.9 9.6761C108.943 9.4329 108.996 9.19901 109.114 8.99887C109.285 8.69167 109.531 8.44847 109.811 8.28906C110.1 8.12964 110.444 8.04586 110.808 8.04586C111.172 8.04586 111.472 8.10986 111.709 8.24717C111.955 8.374 112.138 8.56484 112.276 8.80803C112.415 9.05123 112.513 9.33749 112.556 9.66563H108.9V9.6761Z" fill="#071C28"/>
<path d="M122.518 9.47429H118.754V6.7002H116.621V14.3464H118.754V11.1592H122.518V14.3464H124.641V6.7002H122.518V9.47429Z" fill="#071C28"/>
<path d="M132.758 6.69043H126.25V8.50104H128.436V14.4635H130.571V8.50104H132.758V6.69043Z" fill="#071C28"/>
<path d="M69.623 8.50104H71.8211V14.4635H73.9448V8.50104H76.1429V6.69043H69.623V8.50104Z" fill="#071C28"/>
</svg>
