<svg width="140" height="48" viewBox="0 0 140 48" fill="none" xmlns="http://www.w3.org/2000/svg">
<path fill-rule="evenodd" clip-rule="evenodd" d="M56.5041 26.8996C56.2409 29.2387 55.4382 31.0961 54.0846 32.4675C52.7354 33.8403 51.0449 34.5285 49.0071 34.5285C46.5235 34.5285 44.5452 33.5461 43.0828 31.5866C41.6204 29.6277 40.8914 26.9806 40.8914 23.6409C40.8914 20.2961 41.6204 17.6388 43.0828 15.6756C44.5452 13.7116 46.5235 12.73 49.0071 12.73C51.0546 12.73 52.7503 13.3942 54.0987 14.7181C55.4523 16.0412 56.2506 17.8366 56.5041 20.1042H52.8301C52.7056 18.9678 52.3001 18.068 51.6107 17.4038C50.9212 16.7448 50.0536 16.4127 49.0078 16.4127C47.6542 16.4127 46.5734 17.0623 45.7699 18.3672C44.9671 19.6663 44.5654 21.4281 44.5654 23.6424C44.5654 25.8523 44.9671 27.6039 45.7654 28.903C46.5637 30.1984 47.6445 30.8487 49.0078 30.8487C50.0439 30.8487 50.907 30.4925 51.5957 29.7839C52.2852 29.0723 52.6967 28.1148 52.8301 26.9018H56.5041V26.8996ZM63.8922 34.4037C61.8596 34.4037 60.2429 33.6768 59.0488 32.223C57.8539 30.775 57.2539 28.8103 57.2539 26.3376C57.2539 23.8533 57.8539 21.885 59.0488 20.4268C60.2436 18.9686 61.8596 18.2417 63.8922 18.2417C65.9353 18.2417 67.5513 18.9686 68.7461 20.4268C69.9358 21.8857 70.5313 23.8533 70.5313 26.3376C70.5313 28.811 69.9358 30.775 68.7461 32.223C67.5513 33.6768 65.9353 34.4037 63.8922 34.4037ZM63.8922 31.0195C64.9089 31.0195 65.6826 30.6203 66.2081 29.8262C66.7381 29.0322 67.0012 27.8659 67.0012 26.3369C67.0012 24.7962 66.7381 23.622 66.2081 22.8228C65.6826 22.0236 64.9089 21.6244 63.8922 21.6244C62.8763 21.6244 62.1026 22.0236 61.5771 22.8228C61.0471 23.622 60.784 24.7962 60.784 26.3369C60.784 27.8666 61.0471 29.0322 61.5771 29.8262C62.1026 30.6203 62.8763 31.0195 63.8922 31.0195ZM71.8775 33.9943V18.6496H75.1139V21.2004C75.2883 20.7771 75.491 20.3874 75.7236 20.0312C76.507 18.8372 77.558 18.2402 78.8825 18.2402C80.1012 18.2402 81.0732 18.6445 81.8029 19.4532C82.1337 19.8287 82.3934 20.259 82.5699 20.7238L82.9612 20.0305C83.7252 18.8365 84.7561 18.2395 86.0463 18.2395C87.3947 18.2395 88.4748 18.6825 89.2783 19.5729C90.0863 20.4582 90.488 21.6521 90.488 23.1483V33.9928H87.0772V24.0212C87.0772 23.2512 86.9184 22.6593 86.6009 22.2455C86.2893 21.8317 85.8324 21.6244 85.2383 21.6244C84.4795 21.6244 83.8989 21.8981 83.4927 22.4425C83.0909 22.987 82.8874 23.7759 82.8874 24.8108V33.9943H79.4766V24.2912C79.4766 23.4242 79.3036 22.7651 78.957 22.3083C78.609 21.8514 78.1036 21.6251 77.4492 21.6251C76.75 21.6251 76.2208 21.8988 75.8481 22.4433C75.4769 22.9877 75.289 23.7767 75.289 24.8116V33.995H71.8775V33.9943ZM92.5378 18.6496H95.7757V20.907L96.0627 20.4545C97.0049 18.9773 98.2787 18.2402 99.8857 18.2402C101.502 18.2402 102.782 18.9671 103.723 20.4253C104.659 21.8842 105.131 23.8518 105.131 26.3362C105.131 28.8096 104.659 30.7691 103.713 32.2215C102.771 33.6753 101.488 34.4022 99.8701 34.4022C98.2742 34.4022 97.0049 33.6855 96.0635 32.2456L95.9501 32.0631V40H92.5393V18.6496H92.5378ZM98.7252 31.1151C99.6815 31.1151 100.411 30.7159 100.902 29.9174C101.398 29.1175 101.646 27.9535 101.646 26.4179C101.646 24.878 101.398 23.7037 100.902 22.8994C100.411 22.0959 99.686 21.6967 98.7401 21.6967C97.7883 21.6967 97.069 22.0959 96.5785 22.895C96.088 23.6942 95.8451 24.8634 95.8451 26.4041C95.8451 27.9491 96.088 29.1183 96.5785 29.9174C97.0682 30.7159 97.783 31.1151 98.7252 31.1151ZM105.172 33.9943L111.404 13.2642H115.604L121.821 33.9943H117.9L116.75 29.7919H110.176L108.985 33.9943H105.172ZM113.512 17.9329L111.206 26.1099H115.777L113.506 17.9322H113.512V17.9329ZM122.82 33.9943V18.6496H126.231V33.9943H122.82ZM122.835 13.0672H126.206V16.8163H122.835V13.0672ZM128.449 33.9943V18.6496H131.731V21.3449L132.177 20.4114C132.889 18.9211 134.007 18.2402 135.276 18.2402C135.534 18.2402 135.777 18.2599 136 18.2986V22.4039C135.684 22.3536 135.364 22.3292 135.044 22.3309C133.968 22.3309 133.167 22.6381 132.643 23.2556C132.122 23.8701 131.859 24.8057 131.859 26.0669V33.9935H128.449V33.9943ZM21.8299 8.67655L21.8194 23.0388C21.8835 24.3934 22.7944 25.3954 24.2784 26.1712L36.2708 32.8338L36.276 34.3789L35.0432 35.1342L22.5998 28.1337C21.1792 27.4397 19.7585 27.5462 18.337 28.533C14.3373 30.7553 10.3369 32.9761 6.33646 35.197L5 34.3789L5.00522 32.901L17.737 25.7479C18.779 24.9247 19.2822 23.7942 19.2434 22.2287V8.75756L20.5128 8L21.8299 8.67655ZM25.1967 10.4099L25.3182 21.4733C25.4189 22.5812 26.1449 23.5008 27.5245 24.235L36.2566 28.9636L36.2686 32.2222L25.0499 25.8253C24.4312 25.4363 23.5919 25.0407 23.1976 24.5094C22.6028 23.7066 22.6028 22.6294 22.5902 21.077V9.06774L25.1967 10.4099ZM28.5062 12.114L28.5889 19.6247C28.6896 20.7318 29.4156 21.6521 30.7953 22.3864L36.2447 25.3363L36.2559 28.5016L28.3206 23.9766C27.7019 23.5876 26.8627 23.1921 26.4683 22.6608C25.8735 21.8587 25.8735 20.7807 25.8609 19.2291V10.7522L28.5062 12.114ZM15.9414 10.7303L15.8206 21.6806C15.7193 22.7878 14.994 23.7081 13.6136 24.4415L5.02087 29.0935L5.00894 32.3492L16.0882 26.0318C16.7069 25.6443 17.5469 25.248 17.9405 24.716C18.536 23.9139 18.5353 22.8359 18.548 21.2843V9.17283L15.9414 10.7303ZM12.5604 12.7483L12.4828 19.794C12.3822 20.9012 11.6562 21.8215 10.2765 22.5557L5.03429 25.3932L5.02311 28.5519L12.7519 24.1452C13.3706 23.7562 14.2099 23.3607 14.6042 22.8294C15.1997 22.0265 15.199 20.9486 15.2117 19.397V11.1645L12.5604 12.7483ZM6.98792 35.5626L9.49686 37.0909L19.4484 31.6041C20.4778 31.1348 21.6547 31.2902 22.9934 32.0945L31.6003 37.1705L33.1656 36.2852L34.426 35.5123L23.1633 29.2008C22.5096 28.8701 21.7404 28.3571 21.0733 28.287C20.0656 28.1841 19.113 28.7234 17.734 29.4883L6.98792 35.5626ZM12.7035 39.0957L19.4484 35.3765C20.4778 34.9087 21.6547 35.0642 22.9934 35.867L28.5219 39.1271L31.2082 37.4821L23.1633 32.9732C22.5104 32.6426 21.7404 32.1295 21.0733 32.0595C20.0656 31.9566 19.113 32.4959 17.734 33.2608L10.1647 37.5398L12.7035 39.0957Z" fill="black"/>
</svg>
