<svg width="140" height="48" viewBox="0 0 140 48" fill="none" xmlns="http://www.w3.org/2000/svg">
<path d="M134.754 33.6482L135.055 32.2792C134.694 32.7918 134.292 33.1757 133.848 33.4331C133.4 33.6894 132.911 33.816 132.376 33.816C131.498 33.816 130.89 33.4869 130.553 32.8276C130.214 32.1684 130.166 31.2982 130.402 30.2171C130.654 29.0759 131.131 28.1255 131.836 27.364C132.543 26.6035 133.379 26.2227 134.344 26.2227C134.605 26.2227 134.838 26.2502 135.043 26.3061C135.246 26.362 135.439 26.4464 135.613 26.5624C135.788 26.6774 135.978 26.8662 136.187 27.1257L137.049 23.2051H138.999L136.705 33.6483H134.754V33.6482ZM135.931 28.2911C135.733 27.981 135.526 27.7743 135.314 27.6635C135.101 27.5528 134.872 27.4969 134.626 27.4969C134.111 27.4969 133.667 27.7532 133.3 28.2616C132.931 28.7689 132.673 29.367 132.522 30.0547C132.372 30.7318 132.375 31.2729 132.524 31.6758C132.675 32.0777 132.975 32.2792 133.43 32.2792C133.715 32.2792 134.023 32.1769 134.35 31.9722C134.677 31.7666 134.994 31.4976 135.3 31.1632L135.93 28.2911H135.931ZM122.166 33.6482L123.76 26.3915H125.709L125.41 27.7532C125.885 27.1963 126.364 26.7997 126.842 26.5698C127.321 26.3388 127.779 26.2227 128.22 26.2227C128.794 26.2227 129.245 26.4084 129.578 26.7754C129.91 27.1435 129.987 27.7247 129.812 28.5158L128.684 33.6482H126.735L127.756 28.9968C127.846 28.6012 127.867 28.3323 127.826 28.1909C127.783 28.0506 127.707 27.942 127.597 27.8703C127.487 27.7975 127.354 27.7595 127.2 27.7595C126.931 27.7595 126.629 27.8502 126.299 28.0285C125.967 28.2078 125.574 28.5569 125.119 29.0759L124.115 33.6482H122.166ZM118.873 32.8791C118.532 33.1502 118.244 33.3443 118.012 33.4624C117.779 33.5805 117.543 33.6691 117.305 33.7282C117.069 33.7873 116.825 33.8157 116.575 33.8157C115.927 33.8157 115.452 33.6153 115.152 33.2135C114.851 32.8084 114.764 32.3127 114.893 31.7284C115.049 31.0143 115.472 30.4184 116.159 29.9395C116.845 29.4617 117.842 29.2223 119.148 29.2223H119.668L119.815 28.5652C119.91 28.1232 119.853 27.8258 119.64 27.6718C119.427 27.5178 119.132 27.4418 118.754 27.4418C118.006 27.4418 117.197 27.657 116.325 28.0852L116.622 26.7288C117.578 26.3913 118.496 26.2225 119.372 26.2225C119.909 26.2225 120.37 26.2964 120.763 26.4409C121.151 26.5875 121.438 26.8143 121.626 27.1212C121.811 27.426 121.837 27.8838 121.703 28.4924L120.996 31.7062C120.911 32.0986 120.92 32.3401 121.023 32.4298C121.128 32.5173 121.241 32.5595 121.362 32.5595C121.435 32.5595 121.524 32.5528 121.636 32.5395L121.435 33.6333C120.994 33.7546 120.613 33.8158 120.293 33.8158C119.929 33.8158 119.632 33.7577 119.398 33.6354C119.161 33.5162 119.014 33.2641 118.958 32.8792H118.873L118.873 32.8791ZM119.095 31.8317L119.422 30.3477H118.96C118.324 30.3477 117.824 30.4627 117.463 30.6905C117.101 30.9204 116.883 31.2042 116.806 31.5459C116.743 31.8254 116.79 32.0553 116.937 32.2357C117.087 32.414 117.291 32.5047 117.544 32.5047C117.773 32.5047 118.017 32.4477 118.278 32.3338C118.537 32.222 118.811 32.0532 119.095 31.8317ZM106.834 33.6482L108.984 23.8611H112.642C113.389 23.8611 113.939 23.9561 114.29 24.1428C114.64 24.3295 114.888 24.6142 115.029 24.995C115.173 25.3758 115.192 25.8082 115.086 26.2892C114.961 26.863 114.675 27.4051 114.233 27.9135C113.791 28.4251 113.238 28.8132 112.577 29.0822L114.779 33.6482H112.297L110.742 29.6549H109.625L108.745 33.6482H106.834ZM109.92 28.3027H110.39C111.227 28.3027 111.849 28.1224 112.253 27.7574C112.656 27.3925 112.908 26.9779 113.009 26.517C113.097 26.1173 113.036 25.7998 112.828 25.5635C112.616 25.3283 112.111 25.2102 111.31 25.2102H110.599L109.92 28.3027ZM100.028 33.6482L102.321 23.2051H104.273L101.977 33.6482H100.028ZM96.4971 33.6482L98.7901 23.2051H100.742L98.4463 33.6482H96.4971ZM91.8611 33.8162C91.0774 33.8162 90.4372 33.6632 89.9446 33.3573C89.4489 33.0504 89.1209 32.6 88.9563 32.0041C88.7918 31.4081 88.7907 30.7479 88.9504 30.019C89.1097 29.2976 89.3987 28.6373 89.8206 28.0456C90.2393 27.4539 90.7678 27.0014 91.3996 26.6902C92.0303 26.3801 92.7412 26.223 93.5291 26.223C94.3202 26.223 94.9646 26.3801 95.4583 26.6902C95.9498 27.0014 96.2778 27.4539 96.4402 28.0456C96.6016 28.6373 96.6037 29.2976 96.4445 30.019C96.2863 30.7479 95.9941 31.4081 95.568 32.0041C95.1418 32.6 94.6134 33.0504 93.9858 33.3573C93.3561 33.6632 92.6494 33.8162 91.8615 33.8162H91.8611ZM92.1284 32.599C92.6821 32.599 93.1515 32.3543 93.5375 31.8659C93.9225 31.3776 94.1978 30.7626 94.3613 30.019C94.5238 29.2818 94.5185 28.6679 94.3476 28.1764C94.1768 27.687 93.8139 27.4423 93.2612 27.4423C92.7117 27.4423 92.2466 27.687 91.8574 28.1764C91.4692 28.6679 91.1981 29.2818 91.0336 30.019C90.8733 30.7626 90.8743 31.3776 91.0473 31.8659C91.2192 32.3543 91.5799 32.599 92.1284 32.599ZM82.0948 33.4241L82.4112 31.9801C83.2909 32.3915 84.0735 32.5982 84.7612 32.5982C85.1283 32.5982 85.4373 32.5212 85.6884 32.3651C85.9425 32.2111 86.0934 32.0149 86.1461 31.7766C86.1925 31.5698 86.147 31.3947 86.0185 31.2545C85.8824 31.1173 85.6651 30.9823 85.3593 30.8505L84.757 30.5857C84.1368 30.3126 83.697 30.0109 83.4438 29.6797C83.1907 29.3527 83.1211 28.9256 83.2371 28.4013C83.3763 27.7695 83.7349 27.2495 84.3161 26.8392C84.8952 26.4279 85.6884 26.2222 86.6956 26.2222C87.2853 26.2222 87.9666 26.3119 88.744 26.4848L88.4423 27.855C87.7198 27.5797 87.1028 27.4415 86.5891 27.4415C86.1851 27.4415 85.8677 27.5122 85.6346 27.6504C85.4015 27.7906 85.2612 27.9699 85.2137 28.1904C85.1757 28.3623 85.2086 28.5142 85.3118 28.646C85.4078 28.7789 85.6135 28.9087 85.9225 29.0374L86.4414 29.2557C87.2979 29.6133 87.8358 29.9603 88.051 30.2946C88.262 30.6353 88.3158 31.0414 88.2113 31.5139C88.0763 32.1267 87.6956 32.6636 87.068 33.1246C86.4414 33.5855 85.6261 33.8165 84.623 33.8165C83.7687 33.8165 82.9249 33.6846 82.0948 33.4241ZM77.1957 33.6482L78.7905 26.3915H80.7397L80.4402 27.7595C80.7756 27.2923 81.1775 26.9178 81.6426 26.6415C82.1099 26.363 82.5908 26.2227 83.0897 26.2227C83.2079 26.2227 83.3302 26.2303 83.4484 26.2417L83.0623 28.0042C82.8102 27.904 82.5645 27.8545 82.3229 27.8545C81.9327 27.8545 81.5603 27.9525 81.2017 28.1477C80.8399 28.3449 80.4929 28.6413 80.1596 29.0347L79.146 33.6482H77.1957ZM76.1398 33.4044C75.1557 33.6786 74.2486 33.8157 73.4228 33.8157C72.6391 33.8157 71.9841 33.6691 71.4599 33.377C70.9356 33.0837 70.5844 32.6249 70.403 32.0016C70.2226 31.3771 70.2142 30.6989 70.3724 29.9669C70.5233 29.2877 70.7954 28.6601 71.1909 28.0852C71.5865 27.5114 72.079 27.0558 72.6655 26.7225C73.254 26.3902 73.9228 26.2225 74.6769 26.2225C75.5998 26.2225 76.2728 26.52 76.6936 27.1127C77.1145 27.7055 77.1472 28.8088 76.7938 30.4226H72.3385C72.2752 30.912 72.2995 31.3012 72.4145 31.5828C72.5284 31.8655 72.7172 32.0902 72.983 32.2558C73.2467 32.4213 73.6317 32.5047 74.1379 32.5047C74.7866 32.5047 75.5545 32.3475 76.4405 32.0364L76.1399 33.4044H76.1398ZM72.5431 29.3172H75.1051C75.2528 28.6464 75.2496 28.1654 75.0924 27.8764C74.9385 27.5853 74.6864 27.4418 74.3415 27.4418C73.9639 27.4418 73.6179 27.6 73.3067 27.9186C72.9935 28.2371 72.7403 28.7033 72.5431 29.3172ZM61.7274 35.8792L62.1936 34.4542C62.9108 34.8286 63.6302 35.0164 64.3495 35.0164C65.0288 35.0164 65.5688 34.8729 65.9739 34.5892C66.3768 34.3034 66.6594 33.7939 66.8187 33.0608L67.0371 32.0725C66.7248 32.5387 66.3356 32.9163 65.8705 33.2085C65.4043 33.5017 64.8969 33.6483 64.3464 33.6483C63.7852 33.6483 63.3243 33.507 62.9604 33.2243C62.5986 32.9427 62.3645 32.5187 62.2611 31.9523C62.1598 31.3848 62.183 30.7551 62.3349 30.0579C62.5765 28.9684 63.049 28.0581 63.7578 27.324C64.4666 26.5899 65.3072 26.2228 66.2787 26.2228C66.536 26.2228 66.7691 26.2503 66.9716 26.3019C67.1742 26.3535 67.363 26.4338 67.5338 26.5445C67.7079 26.6563 67.9051 26.843 68.1266 27.1067L68.4884 26.3916H70.2351L69.02 31.9217C68.6993 33.3825 68.3418 34.3677 67.9484 34.8729C67.557 35.3781 67.0423 35.7599 66.4063 36.0173C65.7734 36.2747 65.0773 36.4044 64.3253 36.4044C63.4867 36.4044 62.6197 36.2293 61.7274 35.8791V35.8792ZM67.287 30.9323L67.8787 28.2458C67.6699 27.9262 67.4568 27.7132 67.2438 27.6045C67.0307 27.497 66.8124 27.4421 66.5898 27.4421C66.1078 27.4421 65.6701 27.6668 65.2809 28.1193C64.8917 28.5696 64.6132 29.1803 64.4445 29.9503C64.2989 30.6095 64.3021 31.1274 64.452 31.5061C64.6018 31.8837 64.895 32.0725 65.3307 32.0725C65.6439 32.0725 65.9635 31.9786 66.2894 31.7877C66.6132 31.5968 66.9487 31.312 67.2872 30.9323H67.287ZM54.0641 33.6482L55.6589 26.3915H57.6102L57.3107 27.7532C57.7843 27.1962 58.2631 26.7997 58.7409 26.5697C59.2188 26.3387 59.6786 26.2227 60.1206 26.2227C60.6933 26.2227 61.1437 26.4083 61.4759 26.7754C61.8071 27.1435 61.8873 27.7247 61.7122 28.5157L60.5836 33.6482H58.6334L59.6554 28.9967C59.744 28.6012 59.7662 28.3322 59.7229 28.1909C59.6818 28.0506 59.6059 27.942 59.4972 27.8702C59.3854 27.7974 59.2536 27.7595 59.0996 27.7595C58.8295 27.7595 58.5289 27.8502 58.1977 28.0284C57.8676 28.2078 57.4742 28.5569 57.0196 29.0758L56.0155 33.6482H54.0641ZM50.5078 33.6482L52.6564 23.8611H54.6836L52.5329 33.6482H50.5078Z" fill="#D52B1E"/>
<path d="M49.6149 17.3389C48.0898 9.82688 36.0085 6.8398 22.6247 10.6665C19.856 11.4586 17.2507 12.4838 14.8701 13.6725H16.5082C18.4194 12.6695 20.5078 11.8193 22.7291 11.1844C33.84 8.00636 44.0332 11.2888 45.5014 18.516C46.3431 22.658 44.1281 27.1966 39.9934 30.9168L39.6042 32.7679C46.5424 28.3231 50.6507 22.445 49.6149 17.3389ZM34.2614 34.8644C32.3513 35.8675 30.2639 36.7166 28.0405 37.3515C16.9328 40.5295 6.73751 37.2482 5.2714 30.0231C4.4297 25.8715 6.65102 21.3255 10.7994 17.6033L11.1875 15.7575C4.23879 20.2054 0.122067 26.0909 1.15889 31.1991C2.68302 38.7111 14.7674 41.6971 28.147 37.8705C30.9158 37.0784 33.52 36.0531 35.9027 34.8644H34.2614ZM29.0643 22.3356L29.9208 18.2674C32.12 18.2896 33.8688 18.1989 33.4711 20.0816C32.9596 22.5159 32.1042 22.2902 29.0643 22.3356ZM19.0241 33.6521H26.6827L28.2047 26.4143C31.1053 26.3205 32.0894 26.6495 31.7803 28.1188L30.6159 33.6521H38.2418L39.5191 27.5746C39.69 26.7666 40.1077 24.7816 36.7672 23.8829C40.1625 22.9589 40.8987 21.0161 41.1825 19.6681C41.8438 16.5196 39.266 14.8858 35.2948 14.8858H22.972L19.0241 33.6521ZM12.5478 14.8854H20.6757L16.7278 33.6517H8.5998L12.5478 14.8854Z" fill="#D52B1E"/>
</svg>
