<svg width="48" height="48" viewBox="0 0 48 48" fill="none" xmlns="http://www.w3.org/2000/svg">
<rect width="48" height="48" rx="6" fill="white"/>
<g clip-path="url(#clip0_1056_3090)">
<path d="M32.4733 17.0535C32.4733 16.1905 31.7738 15.4937 30.914 15.4937C30.0541 15.4937 29.3541 16.1905 29.3541 17.0535C29.3541 17.9134 30.0541 18.6102 30.914 18.6102C31.7738 18.6102 32.4733 17.9134 32.4733 17.0535Z" fill="url(#paint0_linear_1056_3090)"/>
<path d="M34.551 29.2297C34.4932 30.4957 34.2815 31.1836 34.1057 31.6404C33.8695 32.2462 33.5879 32.6793 33.131 33.1336C32.6793 33.5879 32.2461 33.8689 31.6404 34.1025C31.1835 34.2809 30.4931 34.4933 29.2271 34.5536C27.8585 34.6139 27.4529 34.6268 23.9822 34.6268C20.5146 34.6268 20.1058 34.6139 18.7372 34.5536C17.4712 34.4933 16.784 34.2809 16.3271 34.1025C15.7182 33.8689 15.2883 33.5879 14.834 33.1336C14.3764 32.6793 14.0948 32.2462 13.8618 31.6404C13.686 31.1836 13.4711 30.4957 13.4165 29.2297C13.3498 27.861 13.3376 27.4491 13.3376 23.9854C13.3376 20.5146 13.3498 20.1059 13.4165 18.7372C13.4711 17.4712 13.686 16.784 13.8618 16.3232C14.0948 15.7182 14.3764 15.2876 14.834 14.8333C15.2883 14.3797 15.7182 14.0979 16.3271 13.8618C16.784 13.6828 17.4712 13.4736 18.7372 13.4133C20.1058 13.353 20.5146 13.3376 23.9822 13.3376C27.4529 13.3376 27.8585 13.353 29.2271 13.4133C30.4931 13.4736 31.1835 13.6828 31.6404 13.8618C32.2461 14.0979 32.6793 14.3797 33.131 14.8333C33.5879 15.2876 33.8695 15.7182 34.1057 16.3232C34.2815 16.784 34.4932 17.4712 34.551 18.7372C34.6145 20.1059 34.6299 20.5146 34.6299 23.9854C34.6299 27.4491 34.6145 27.861 34.551 29.2297ZM36.8886 18.6307C36.8251 17.2472 36.6069 16.3021 36.2829 15.4788C35.9531 14.6248 35.5109 13.901 34.7871 13.1772C34.0666 12.4566 33.3428 12.0145 32.4887 11.6808C31.6623 11.36 30.7203 11.1392 29.3362 11.0789C27.9521 11.0122 27.51 11 23.9822 11C20.4575 11 20.0122 11.0122 18.6281 11.0789C17.2473 11.1392 16.3059 11.36 15.4756 11.6808C14.6248 12.0145 13.901 12.4566 13.1804 13.1772C12.4566 13.901 12.0145 14.6248 11.6814 15.4788C11.3606 16.3021 11.1424 17.2472 11.0757 18.6307C11.0154 20.0148 11 20.4575 11 23.9854C11 27.5101 11.0154 27.9521 11.0757 29.3362C11.1424 30.7171 11.3606 31.6616 11.6814 32.4887C12.0145 33.3396 12.4566 34.0666 13.1804 34.7871C13.901 35.5077 14.6248 35.9531 15.4756 36.2861C16.3059 36.6069 17.2473 36.8251 18.6281 36.8886C20.0122 36.9522 20.4575 36.9675 23.9822 36.9675C27.51 36.9675 27.9521 36.9522 29.3362 36.8886C30.7203 36.8251 31.6623 36.6069 32.4887 36.2861C33.3428 35.9531 34.0666 35.5077 34.7871 34.7871C35.5109 34.0666 35.9531 33.3396 36.2829 32.4887C36.6069 31.6616 36.8251 30.7171 36.8886 29.3362C36.9521 27.9521 36.9675 27.5101 36.9675 23.9854C36.9675 20.4575 36.9521 20.0148 36.8886 18.6307Z" fill="url(#paint1_linear_1056_3090)"/>
<path d="M23.9822 28.3095C21.5933 28.3095 19.6548 26.3742 19.6548 23.9853C19.6548 21.5925 21.5933 19.6547 23.9822 19.6547C26.3718 19.6547 28.3128 21.5925 28.3128 23.9853C28.3128 26.3742 26.3718 28.3095 23.9822 28.3095ZM23.9822 17.314C20.2997 17.314 17.3172 20.3028 17.3172 23.9853C17.3172 27.6646 20.2997 30.6503 23.9822 30.6503C27.6647 30.6503 30.6504 27.6646 30.6504 23.9853C30.6504 20.3028 27.6647 17.314 23.9822 17.314Z" fill="url(#paint2_linear_1056_3090)"/>
</g>
<defs>
<linearGradient id="paint0_linear_1056_3090" x1="11.2342" y1="36.6991" x2="34.8046" y2="13.1287" gradientUnits="userSpaceOnUse">
<stop stop-color="#FFD521"/>
<stop offset="0.05" stop-color="#FFD521"/>
<stop offset="0.501119" stop-color="#F50000"/>
<stop offset="0.95" stop-color="#B900B4"/>
<stop offset="0.950079" stop-color="#B900B4"/>
<stop offset="1" stop-color="#B900B4"/>
</linearGradient>
<linearGradient id="paint1_linear_1056_3090" x1="11.2342" y1="36.7314" x2="34.8241" y2="13.1416" gradientUnits="userSpaceOnUse">
<stop stop-color="#FFD521"/>
<stop offset="0.05" stop-color="#FFD521"/>
<stop offset="0.501119" stop-color="#F50000"/>
<stop offset="0.95" stop-color="#B900B4"/>
<stop offset="0.950079" stop-color="#B900B4"/>
<stop offset="1" stop-color="#B900B4"/>
</linearGradient>
<linearGradient id="paint2_linear_1056_3090" x1="11.2404" y1="36.732" x2="34.8245" y2="13.1478" gradientUnits="userSpaceOnUse">
<stop stop-color="#FFD521"/>
<stop offset="0.05" stop-color="#FFD521"/>
<stop offset="0.501119" stop-color="#F50000"/>
<stop offset="0.95" stop-color="#B900B4"/>
<stop offset="0.950079" stop-color="#B900B4"/>
<stop offset="1" stop-color="#B900B4"/>
</linearGradient>
<clipPath id="clip0_1056_3090">
<rect width="26" height="26" fill="white" transform="translate(11 11)"/>
</clipPath>
</defs>
</svg>
