<svg width="192" height="40" viewBox="0 0 192 40" fill="none" xmlns="http://www.w3.org/2000/svg">
<path d="M9.30903 0.436523H0V9.74556H9.30903V0.436523Z" fill="#BC0000"/>
<path d="M29.0907 15.5637C29.0907 21.8589 25.2508 27.2465 19.7817 29.5273C17.9897 30.272 16.0232 30.6909 13.9636 30.6909H9.30903V39.9999L0 30.6909V12.0728H9.30903V21.3819H13.9636C17.1752 21.3819 19.7817 18.7753 19.7817 15.5637C19.7817 12.3521 17.1752 9.74556 13.9636 9.74556H11.6363V0.436523H13.9636C16.9657 0.436523 19.7584 1.30925 22.109 2.82196C26.3097 5.50995 29.0907 10.211 29.0907 15.5637Z" fill="#071C28"/>
<path d="M144.775 2.99572C144.099 2.67805 143.274 2.53027 142.31 2.53027H140.873H140.766C140.294 2.53027 138.385 2.53027 138.385 2.53027V14.6146H140.883V10.2184H142.32C143.274 10.2184 144.111 10.0706 144.786 9.75292C145.462 9.43525 145.987 9.00122 146.34 8.41824C146.705 7.83526 146.887 7.15803 146.887 6.36327C146.887 5.57898 146.705 4.8808 146.34 4.3083C145.976 3.74743 145.451 3.30292 144.775 2.99572ZM143.885 7.67701C143.499 7.9842 142.985 8.13199 142.32 8.13199H140.883V4.60619H142.32C142.985 4.60619 143.511 4.75397 143.885 5.05069C144.272 5.34742 144.465 5.78145 144.465 6.36443C144.465 6.94741 144.272 7.38028 143.885 7.67701Z" fill="#071C28"/>
<path d="M154.18 7.01073C153.558 6.67211 152.808 6.5127 151.928 6.5127C151.124 6.5127 150.427 6.65 149.816 6.92578C149.205 7.19109 148.722 7.58207 148.369 8.0801C148.004 8.57814 147.768 9.14948 147.651 9.80693C147.63 9.93377 147.618 10.0722 147.597 10.22C147.576 10.3573 147.576 10.4958 147.576 10.6541C147.576 11.4488 147.747 12.1691 148.09 12.794C148.444 13.4188 148.927 13.9169 149.581 14.2764C150.235 14.636 151.008 14.8164 151.897 14.8164C152.647 14.8164 153.269 14.7209 153.795 14.5406C154.321 14.3602 154.749 14.0961 155.113 13.7563C155.477 13.4072 155.777 13.0255 156.046 12.5705L154.073 11.9666C153.933 12.1889 153.762 12.4007 153.547 12.5705C153.333 12.7404 153.096 12.8777 152.829 12.9732C152.561 13.0686 152.249 13.1105 151.907 13.1105C151.5 13.1105 151.157 13.036 150.836 12.8673C150.525 12.6974 150.278 12.4332 150.095 12.0725C149.978 11.8293 149.913 11.5221 149.87 11.194H156.057C156.078 11.0671 156.089 10.9613 156.089 10.8449C156.089 10.739 156.089 10.6541 156.089 10.5912C156.089 9.75457 155.929 9.02381 155.596 8.43036C155.272 7.79385 154.801 7.3284 154.18 7.01073ZM149.891 9.76388C149.934 9.5102 149.998 9.26584 150.105 9.06453C150.276 8.73639 150.534 8.49319 150.823 8.33377C151.112 8.17436 151.466 8.09058 151.841 8.09058C152.217 8.09058 152.527 8.15458 152.762 8.29188C153.009 8.41872 153.202 8.6305 153.342 8.87486C153.482 9.11806 153.578 9.42526 153.621 9.77551H149.889L149.891 9.76388Z" fill="#071C28"/>
<path d="M161.696 6.49121C160.86 6.49121 160.088 6.6611 159.412 7.01019C158.736 7.35928 158.201 7.82589 157.815 8.46124C157.418 9.0861 157.225 9.80639 157.225 10.643C157.225 11.4587 157.428 12.1895 157.815 12.8144C158.201 13.4392 158.736 13.9268 159.412 14.2759C160.088 14.625 160.849 14.7949 161.696 14.7949C162.286 14.7949 162.811 14.7204 163.251 14.5831C163.701 14.4458 164.055 14.234 164.345 13.9896V11.6915C164.205 11.9451 164.012 12.1686 163.744 12.3582C163.487 12.5491 163.187 12.7073 162.865 12.8132C162.544 12.9191 162.2 12.9726 161.857 12.9726C161.417 12.9726 161.042 12.8772 160.677 12.6759C160.313 12.4851 160.034 12.2104 159.83 11.8707C159.626 11.5216 159.519 11.1294 159.519 10.6523C159.519 10.2078 159.626 9.8157 159.83 9.46661C160.044 9.11752 160.323 8.85221 160.677 8.65091C161.041 8.4496 161.417 8.34371 161.857 8.34371C162.178 8.34371 162.511 8.3856 162.833 8.49149C163.144 8.59738 163.455 8.73469 163.723 8.936C163.991 9.12683 164.206 9.35956 164.345 9.60276V7.30575C164.066 7.06255 163.701 6.86124 163.251 6.72277C162.811 6.56452 162.286 6.49121 161.696 6.49121Z" fill="#071C28"/>
<path d="M169.62 11.6175L167.615 6.6709H165.105L168.44 13.8202L166.415 18.4166H168.73L173.963 6.68137H171.604L169.62 11.6175Z" fill="#071C28"/>
<path d="M181.812 6.9358C181.223 6.60766 180.591 6.44824 179.915 6.44824C179.228 6.44824 178.628 6.61813 178.124 6.96722C177.737 7.23253 177.427 7.61303 177.18 8.05754V6.6705H174.918V18.4162H177.18V13.2473C177.437 13.6918 177.737 14.0735 178.124 14.3493C178.628 14.6984 179.228 14.8683 179.915 14.8683C180.591 14.8683 181.223 14.7088 181.812 14.3807C182.392 14.0526 182.874 13.5859 183.227 12.9401C183.592 12.3048 183.764 11.5426 183.774 10.6629C183.774 9.74131 183.592 8.97914 183.227 8.35427C182.874 7.73056 182.402 7.25347 181.812 6.9358ZM181.136 11.8708C180.943 12.2094 180.665 12.4537 180.343 12.6225C180.022 12.7923 179.646 12.8761 179.249 12.8761C178.916 12.8761 178.585 12.7912 178.273 12.6329C177.962 12.463 177.693 12.2094 177.49 11.8812C177.286 11.5426 177.189 11.14 177.189 10.6524C177.189 10.1649 177.286 9.75179 177.49 9.42364C177.693 9.08503 177.961 8.83019 178.273 8.67194C178.583 8.51252 178.916 8.42874 179.249 8.42874C179.646 8.42874 180 8.51368 180.343 8.68241C180.676 8.8523 180.943 9.10597 181.136 9.43411C181.33 9.77273 181.426 10.1858 181.426 10.6629C181.437 11.14 181.33 11.5426 181.136 11.8708Z" fill="#071C28"/>
<path d="M188.332 8.63015C188.696 8.42884 189.072 8.32295 189.512 8.32295C189.833 8.32295 190.166 8.36484 190.488 8.47073C190.799 8.57662 191.11 8.71393 191.378 8.91524C191.646 9.10607 191.861 9.3388 192 9.582V7.28499C191.721 7.04179 191.356 6.84049 190.906 6.70201C190.456 6.56471 189.941 6.49023 189.351 6.49023C188.515 6.49023 187.743 6.66012 187.067 7.00921C186.391 7.3583 185.856 7.82492 185.459 8.44979C185.062 9.07466 184.869 9.79494 184.869 10.6316C184.869 11.4473 185.073 12.1781 185.459 12.8029C185.845 13.4278 186.381 13.9154 187.057 14.2644C187.733 14.6135 188.494 14.7834 189.341 14.7834C189.931 14.7834 190.456 14.7089 190.896 14.5716C191.346 14.4343 191.7 14.2226 191.989 13.9782V11.68C191.85 11.9337 191.657 12.1571 191.389 12.3468C191.132 12.5376 190.832 12.6959 190.509 12.8018C190.188 12.9077 189.845 12.9612 189.502 12.9612C189.062 12.9612 188.687 12.8658 188.322 12.6645C187.957 12.4736 187.678 12.199 187.475 11.8592C187.271 11.5101 187.164 11.118 187.164 10.6409C187.164 10.1964 187.271 9.80425 187.475 9.45516C187.699 9.10724 187.967 8.83146 188.332 8.63015Z" fill="#071C28"/>
<path d="M40.7466 2.70798H38.3984V14.9296L46.8801 7.27173V14.3466H49.2283V2.125L40.7466 9.79215V2.70798Z" fill="#071C28"/>
<path d="M57.5489 9.47429H53.7846V6.7002H51.6621V14.3464H53.7846V11.1592H57.5489V14.3464H59.6714V6.7002H57.5489V9.47429Z" fill="#071C28"/>
<path d="M65.6018 6.53027C64.7873 6.53027 64.0251 6.70016 63.3711 7.02831C62.7067 7.35645 62.1912 7.82307 61.8061 8.42583C61.4197 9.02975 61.2266 9.72793 61.2266 10.5227C61.2266 11.3174 61.4302 12.0051 61.8061 12.6091C62.1819 13.213 62.7067 13.6784 63.3711 14.0182C64.0356 14.3464 64.7756 14.5163 65.6018 14.5163C66.1813 14.5163 66.6851 14.4418 67.1238 14.3045C67.5637 14.1672 67.907 13.9763 68.1851 13.7331V11.5188C68.0454 11.7724 67.8523 11.9737 67.6056 12.1541C67.3484 12.3449 67.0587 12.4822 66.748 12.5881C66.4268 12.694 66.094 12.7475 65.7612 12.7475C65.3318 12.7475 64.9676 12.6521 64.6139 12.4613C64.2601 12.2705 63.9809 12.0168 63.7877 11.677C63.5736 11.3489 63.477 10.9567 63.4665 10.5122C63.4665 10.0887 63.5736 9.69651 63.7772 9.36837C63.9913 9.04022 64.2601 8.77491 64.6034 8.57361C64.9572 8.3723 65.3214 8.28735 65.7508 8.28735C66.0719 8.28735 66.3942 8.32924 66.7049 8.43513C67.0156 8.54102 67.3158 8.67833 67.573 8.8587C67.8406 9.04953 68.0443 9.26131 68.1839 9.50451V7.29245C67.9046 7.04925 67.5509 6.86889 67.1227 6.73158C66.6851 6.60475 66.1697 6.53027 65.6018 6.53027Z" fill="#071C28"/>
<path d="M84.4847 6.94397C83.9052 6.63677 83.2943 6.47852 82.6299 6.47852C81.9655 6.47852 81.3755 6.64841 80.8821 6.97655C80.4958 7.24186 80.2061 7.60142 79.9605 8.02498V6.6903H77.752V18.0008H79.9605V13.0228C80.2072 13.4568 80.5074 13.8175 80.8821 14.0817C81.3755 14.4098 81.9538 14.5797 82.6299 14.5797C83.2943 14.5797 83.9064 14.4203 84.4847 14.1143C85.0526 13.8071 85.5145 13.3416 85.8683 12.7272C86.222 12.1128 86.4047 11.3716 86.4047 10.5349C86.4047 9.65639 86.222 8.91399 85.8683 8.31123C85.525 7.71778 85.0642 7.26164 84.4847 6.94397ZM83.8308 11.7102C83.6376 12.0279 83.37 12.2711 83.0593 12.441C82.7381 12.6108 82.3832 12.6946 81.998 12.6946C81.6652 12.6946 81.3441 12.6097 81.0439 12.4514C80.7332 12.2815 80.476 12.0488 80.2829 11.7207C80.0792 11.403 79.9826 11.0004 79.9826 10.5349C79.9826 10.0695 80.0792 9.67733 80.2829 9.34919C80.4865 9.03152 80.7436 8.77785 81.0439 8.61843C81.3546 8.45901 81.6769 8.37523 81.998 8.37523C82.3844 8.37523 82.7276 8.46018 83.0593 8.6289C83.3921 8.79879 83.6492 9.03152 83.8308 9.35966C84.0134 9.68781 84.1205 10.0904 84.1205 10.5454C84.1205 11.0004 84.0239 11.3925 83.8308 11.7102Z" fill="#071C28"/>
<path d="M92.955 6.71067L91.0141 11.4548L89.0522 6.7002H86.6074L89.8563 13.5842L87.8828 18.0107H90.1449L95.2497 6.71067H92.955Z" fill="#071C28"/>
<path d="M100.579 11.5932L97.5022 6.11719L95.2285 14.3464H97.1264L98.1341 10.6612L100.579 14.8758L103.077 10.6507L104.086 14.3464H105.972L103.71 6.11719L100.579 11.5932Z" fill="#071C28"/>
<path d="M113.082 7.02885C112.471 6.71117 111.741 6.55176 110.884 6.55176C110.1 6.55176 109.415 6.68907 108.825 6.9439C108.225 7.20921 107.764 7.57924 107.41 8.05633C107.056 8.53342 106.82 9.08382 106.713 9.71916C106.692 9.84599 106.681 9.98446 106.66 10.1113C106.639 10.2486 106.639 10.3871 106.639 10.5244C106.639 11.297 106.81 11.9754 107.143 12.5794C107.486 13.1833 107.957 13.6592 108.601 13.999C109.244 14.3376 109.995 14.518 110.863 14.518C111.592 14.518 112.203 14.4225 112.717 14.2422C113.232 14.0618 113.651 13.8186 114.004 13.48C114.358 13.1519 114.658 12.7702 114.916 12.3362L112.985 11.7532C112.845 11.9754 112.674 12.1663 112.471 12.3362C112.257 12.506 112.031 12.6224 111.774 12.7178C111.506 12.8132 111.206 12.8551 110.873 12.8551C110.476 12.8551 110.144 12.7807 109.833 12.6119C109.522 12.442 109.286 12.1989 109.115 11.8393C108.997 11.6066 108.932 11.3098 108.889 10.9922H114.926C114.947 10.8653 114.959 10.7594 114.959 10.664C114.959 10.5581 114.959 10.4732 114.959 10.4104C114.959 9.59465 114.798 8.90694 114.476 8.33444C114.143 7.79102 113.682 7.34652 113.082 7.02885ZM108.9 9.6761C108.943 9.4329 108.996 9.19901 109.114 8.99887C109.285 8.69167 109.531 8.44847 109.811 8.28906C110.1 8.12964 110.444 8.04586 110.808 8.04586C111.172 8.04586 111.472 8.10986 111.709 8.24717C111.955 8.374 112.138 8.56484 112.276 8.80803C112.415 9.05123 112.513 9.33749 112.556 9.66563H108.9V9.6761Z" fill="#071C28"/>
<path d="M122.518 9.47429H118.754V6.7002H116.621V14.3464H118.754V11.1592H122.518V14.3464H124.641V6.7002H122.518V9.47429Z" fill="#071C28"/>
<path d="M132.758 6.69043H126.25V8.50104H128.436V14.4635H130.571V8.50104H132.758V6.69043Z" fill="#071C28"/>
<path d="M69.623 8.50104H71.8211V14.4635H73.9448V8.50104H76.1429V6.69043H69.623V8.50104Z" fill="#071C28"/>
<path d="M40.6275 30.249C40.9533 30.8017 41.3792 31.2346 41.9063 31.5464C42.4323 31.8594 43.0036 32.0154 43.6192 32.0154C44.0648 32.0154 44.4733 31.9572 44.8433 31.8408C45.2133 31.7256 45.5496 31.5627 45.8533 31.3533C46.157 31.1438 46.4154 30.9006 46.6295 30.6237V32.1224C46.2373 32.4704 45.8091 32.7287 45.3448 32.8986C44.8817 33.0685 44.3057 33.1534 43.6192 33.1534C42.9675 33.1534 42.3589 33.0347 41.7923 32.7985C41.2256 32.5623 40.7287 32.2283 40.3005 31.7954C39.8723 31.3626 39.5383 30.8517 39.2974 30.2629C39.0566 29.6742 38.9355 29.0318 38.9355 28.336C38.9355 27.6401 39.0566 26.9978 39.2974 26.409C39.5383 25.8202 39.8734 25.3094 40.3005 24.8777C40.7287 24.4448 41.2256 24.1097 41.7923 23.8735C42.3589 23.6372 42.9675 23.5186 43.6192 23.5186C44.3057 23.5186 44.8817 23.6035 45.3448 23.7734C45.8091 23.9433 46.2373 24.2016 46.6295 24.5495V26.0483C46.4154 25.7725 46.157 25.5293 45.8533 25.3199C45.5496 25.1104 45.2133 24.9475 44.8433 24.8311C44.4733 24.7148 44.0648 24.6577 43.6192 24.6577C43.0036 24.6577 42.4323 24.8137 41.9063 25.1255C41.3792 25.4385 40.9533 25.8679 40.6275 26.4172C40.3017 26.9664 40.1399 27.6064 40.1399 28.3371C40.1387 29.0574 40.3017 29.6951 40.6275 30.249Z" fill="#071C28"/>
<path d="M53.6545 26.8633V33.0189H52.584V26.8633H53.6545ZM53.2123 29.272H57.7621V30.2762H53.2123V29.272ZM58.1368 26.8633V33.0189H57.0663V26.8633H58.1368Z" fill="#071C28"/>
<path d="M60.8009 31.754C60.9172 31.9007 61.0731 32.0135 61.2698 32.0892C61.4653 32.1648 61.684 32.2032 61.9249 32.2032C62.2822 32.2032 62.5987 32.1497 62.8744 32.0426C63.1514 31.9356 63.3667 31.7657 63.5237 31.5341C63.6808 31.3026 63.7576 30.9942 63.7576 30.6114L63.9717 31.2804C63.9717 31.6726 63.867 32.01 63.6576 32.2905C63.4481 32.5721 63.1688 32.7862 62.8209 32.9328C62.473 33.0794 62.0843 33.1539 61.6573 33.1539C61.2733 33.1539 60.9207 33.0817 60.5995 32.9398C60.2784 32.7978 60.0212 32.5849 59.8304 32.3044C59.6384 32.0228 59.543 31.6738 59.543 31.2537C59.543 30.8173 59.65 30.4461 59.8641 30.1424C60.0782 29.8399 60.3808 29.606 60.7741 29.4396C61.1674 29.2732 61.6305 29.1917 62.1658 29.1917C62.5579 29.1917 62.8942 29.2429 63.1758 29.3453C63.4574 29.4477 63.682 29.5641 63.8519 29.6933C64.0218 29.8224 64.1381 29.9271 64.1998 30.0086V30.6381C63.8961 30.424 63.5889 30.2658 63.2771 30.1634C62.964 30.061 62.6126 30.0098 62.2193 30.0098C61.8621 30.0098 61.5654 30.0586 61.3291 30.1564C61.0929 30.2541 60.9161 30.3926 60.7997 30.5706C60.6833 30.7487 60.6263 30.9628 60.6263 31.213C60.6263 31.4259 60.6845 31.6074 60.8009 31.754ZM60.105 27.4917C60.3366 27.3218 60.6484 27.1519 61.0417 26.9832C61.435 26.8144 61.9075 26.7295 62.4602 26.7295C62.9326 26.7295 63.3457 26.8028 63.6971 26.9494C64.0497 27.096 64.3266 27.309 64.5268 27.5848C64.7269 27.8617 64.8282 28.2003 64.8282 28.6018V33.0189H63.7576V28.6029C63.7576 28.2899 63.6261 28.056 63.3632 27.9001C63.099 27.7442 62.7988 27.6662 62.4602 27.6662C62.1658 27.6662 61.8982 27.7046 61.6573 27.7802C61.4164 27.8559 61.2093 27.9455 61.0347 28.0479C60.8602 28.1503 60.7241 28.2376 60.6263 28.3097L60.105 27.4917Z" fill="#071C28"/>
<path d="M67.3031 26.3947L67.9058 28.1343L66.9016 33.0181H65.6973L67.3031 26.3947ZM67.1693 28.5346L67.3031 26.3936L70.0725 32.0942L69.6711 33.4324L67.1693 28.5346ZM72.0809 26.3947L72.2148 28.5358L69.6722 33.4335L69.2708 32.0953L72.0809 26.3947ZM71.4782 28.1343L72.0809 26.3947L73.6867 33.0181H72.4824L71.4782 28.1343Z" fill="#071C28"/>
<path d="M74.8223 33.4859L74.8898 31.9476L79.9748 26.3947L79.9073 27.933L74.8223 33.4859ZM75.8928 32.015L74.8223 33.487V26.8625H75.8928V32.015ZM79.9748 33.0181H78.9043V27.8655L79.9748 26.3936V33.0181Z" fill="#071C28"/>
<path d="M87.135 26.8633V33.0189H86.0645V26.8633H87.135ZM86.6928 29.4465H88.3394C88.4999 29.4465 88.6454 29.4256 88.7745 29.386C88.9037 29.3453 89.0131 29.286 89.1027 29.2057C89.1911 29.1254 89.2609 29.0346 89.3098 28.9311C89.3587 28.8287 89.3831 28.7193 89.3831 28.6029C89.3831 28.362 89.2889 28.1677 89.1027 28.0211C88.9153 27.8745 88.6605 27.8012 88.3394 27.8012H86.6928V26.8633H88.3394C88.7233 26.8633 89.0736 26.9191 89.3901 27.0308C89.7066 27.1426 89.9638 27.3218 90.1593 27.5661C90.3548 27.8105 90.4537 28.1351 90.4537 28.5354C90.4537 28.8833 90.3559 29.1708 90.1593 29.3988C89.9638 29.6269 89.7066 29.7956 89.3901 29.9073C89.0736 30.019 88.7233 30.0749 88.3394 30.0749H86.6928V29.4465ZM88.4732 29.8073C88.9014 29.8073 89.2842 29.8515 89.624 29.9411C89.9638 30.0307 90.2302 30.1866 90.4269 30.4089C90.6236 30.6323 90.7213 30.9441 90.7213 31.3456C90.7213 31.8099 90.5677 32.2043 90.2605 32.5302C89.9521 32.856 89.446 33.0189 88.742 33.0189H86.694V32.0822H88.4743C88.8758 32.0822 89.1725 31.9972 89.3645 31.8285C89.5565 31.6586 89.6519 31.4538 89.6519 31.2129C89.6519 31.0884 89.6275 30.9767 89.5786 30.879C89.5297 30.7812 89.4576 30.6916 89.3645 30.6113C89.2703 30.531 89.1504 30.4705 89.0026 30.431C88.856 30.3902 88.6791 30.3705 88.4743 30.3705H86.694V29.8073H88.4732Z" fill="#071C28"/>
<path d="M92.7813 31.754C92.8977 31.9007 93.0536 32.0135 93.2503 32.0892C93.4458 32.1648 93.6645 32.2032 93.9054 32.2032C94.2626 32.2032 94.5791 32.1497 94.8549 32.0426C95.1319 31.9356 95.3471 31.7657 95.5042 31.5341C95.6613 31.3026 95.7381 30.9942 95.7381 30.6114L95.9522 31.2804C95.9522 31.6726 95.8475 32.01 95.638 32.2905C95.4286 32.5721 95.1493 32.7862 94.8014 32.9328C94.4535 33.0794 94.0648 33.1539 93.6378 33.1539C93.2538 33.1539 92.9012 33.0817 92.58 32.9398C92.2588 32.7978 92.0017 32.5849 91.8109 32.3044C91.6189 32.0228 91.5234 31.6738 91.5234 31.2537C91.5234 30.8173 91.6305 30.4461 91.8446 30.1424C92.0587 29.8399 92.3612 29.606 92.7546 29.4396C93.1479 29.2732 93.611 29.1917 94.1463 29.1917C94.5384 29.1917 94.8747 29.2429 95.1563 29.3453C95.4379 29.4477 95.6625 29.5641 95.8324 29.6933C96.0023 29.8224 96.1186 29.9271 96.1803 30.0086V30.6381C95.8766 30.424 95.5694 30.2658 95.2575 30.1634C94.9445 30.061 94.5931 30.0098 94.1998 30.0098C93.8426 30.0098 93.5458 30.0586 93.3096 30.1564C93.0734 30.2541 92.8965 30.3926 92.7802 30.5706C92.6638 30.7487 92.6068 30.9628 92.6068 31.213C92.6068 31.4259 92.665 31.6074 92.7813 31.754ZM92.0855 27.4917C92.317 27.3218 92.6289 27.1519 93.0222 26.9832C93.4155 26.8144 93.8879 26.7295 94.4407 26.7295C94.9131 26.7295 95.3262 26.8028 95.6776 26.9494C96.0302 27.096 96.3071 27.309 96.5073 27.5848C96.7074 27.8617 96.8086 28.2003 96.8086 28.6018V33.0189H95.7381V28.6029C95.7381 28.2899 95.6066 28.056 95.3436 27.9001C95.0795 27.7442 94.7793 27.6662 94.4407 27.6662C94.1463 27.6662 93.8786 27.7046 93.6378 27.7802C93.3969 27.8559 93.1898 27.9455 93.0152 28.0479C92.8407 28.1503 92.7045 28.2376 92.6068 28.3097L92.0855 27.4917Z" fill="#071C28"/>
<path d="M105.975 32.0158V26.8633H107.046V33.0189H98.6152V26.8633H99.6858V32.0158H102.295V26.8633H103.365V32.0158H105.975Z" fill="#071C28"/>
<path d="M113 35.9629V26.8633H114.071V35.9629H113ZM118.808 31.654C118.531 32.1357 118.163 32.5057 117.703 32.7652C117.244 33.0236 116.734 33.1527 116.171 33.1527C115.662 33.1527 115.214 33.0236 114.826 32.7652C114.438 32.5057 114.135 32.1357 113.916 31.654C113.697 31.1722 113.588 30.6009 113.588 29.9411C113.588 29.272 113.697 28.6995 113.916 28.2213C114.135 27.743 114.437 27.3753 114.826 27.117C115.213 26.8575 115.662 26.7295 116.171 26.7295C116.733 26.7295 117.244 26.8587 117.703 27.117C118.163 27.3753 118.531 27.7442 118.808 28.2213C119.085 28.6984 119.222 29.2709 119.222 29.9411C119.223 30.6009 119.085 31.1722 118.808 31.654ZM117.851 28.7368C117.659 28.4074 117.406 28.1573 117.089 27.9874C116.772 27.8175 116.422 27.7337 116.038 27.7337C115.725 27.7337 115.418 27.8187 115.115 27.9874C114.812 28.1573 114.562 28.4074 114.366 28.7368C114.169 29.0672 114.072 29.4687 114.072 29.9411C114.072 30.4135 114.169 30.815 114.366 31.1455C114.562 31.4759 114.812 31.7261 115.115 31.8948C115.418 32.0647 115.726 32.1485 116.038 32.1485C116.422 32.1485 116.771 32.0636 117.089 31.8948C117.406 31.725 117.659 31.4759 117.851 31.1455C118.043 30.815 118.14 30.4135 118.14 29.9411C118.14 29.4687 118.043 29.0672 117.851 28.7368Z" fill="#071C28"/>
<path d="M120.842 29.2988H124.951C124.915 28.9776 124.829 28.6937 124.69 28.4493C124.552 28.2038 124.36 28.013 124.114 27.8733C123.869 27.7349 123.567 27.6662 123.211 27.6662C122.855 27.6662 122.529 27.7419 122.235 27.8943C121.941 28.0467 121.707 28.262 121.532 28.5436C121.359 28.824 121.271 29.1568 121.271 29.5397L121.245 29.9411C121.245 30.4135 121.325 30.815 121.486 31.1455C121.646 31.4759 121.873 31.7261 122.167 31.8948C122.462 32.0636 122.81 32.1485 123.211 32.1485C123.515 32.1485 123.785 32.102 124.021 32.0077C124.257 31.9135 124.469 31.7855 124.656 31.6202C124.844 31.455 125.004 31.2607 125.138 31.0384L126.009 31.5876C125.803 31.9007 125.576 32.1741 125.326 32.4103C125.076 32.6477 124.773 32.8304 124.416 32.9596C124.058 33.0887 123.613 33.1539 123.077 33.1539C122.523 33.1539 122.027 33.0154 121.586 32.7385C121.143 32.4627 120.796 32.081 120.542 31.5946C120.287 31.1082 120.16 30.5567 120.16 29.9423C120.16 29.8259 120.165 29.7154 120.174 29.6071C120.182 29.5001 120.196 29.393 120.215 29.286C120.303 28.7775 120.482 28.3318 120.75 27.9478C121.018 27.5638 121.363 27.2659 121.787 27.0507C122.21 26.8365 122.685 26.7295 123.212 26.7295C123.793 26.7295 124.302 26.8587 124.738 27.117C125.174 27.3753 125.514 27.7395 125.755 28.2073C125.996 28.6751 126.117 29.236 126.117 29.8864C126.117 29.9399 126.117 29.9935 126.117 30.047C126.117 30.1005 126.112 30.1541 126.103 30.2076H120.843L120.842 29.2988Z" fill="#071C28"/>
<path d="M128.343 31.0788C128.526 31.4092 128.776 31.6699 129.093 31.8619C129.409 32.0539 129.769 32.1493 130.17 32.1493C130.501 32.1493 130.81 32.0981 131.1 31.9957C131.39 31.8933 131.642 31.7548 131.855 31.5815C132.069 31.4081 132.221 31.2219 132.31 31.0264V32.3646C132.096 32.6148 131.79 32.8079 131.393 32.9464C130.997 33.0849 130.588 33.1547 130.169 33.1547C129.571 33.1547 129.031 33.0162 128.549 32.7393C128.068 32.4635 127.686 32.0818 127.406 31.5954C127.125 31.109 126.984 30.5575 126.984 29.9431C126.984 29.3182 127.125 28.7655 127.406 28.2837C127.687 27.802 128.068 27.4226 128.549 27.1457C129.031 26.8688 129.571 26.7314 130.169 26.7314C130.588 26.7314 130.997 26.8001 131.393 26.9386C131.79 27.077 132.096 27.2714 132.31 27.5204V28.8586C132.221 28.6538 132.069 28.4664 131.855 28.2965C131.641 28.1266 131.39 27.9905 131.1 27.8881C130.809 27.7857 130.5 27.7345 130.17 27.7345C129.769 27.7345 129.409 27.8287 129.093 28.0161C128.776 28.2034 128.526 28.4641 128.343 28.798C128.161 29.1332 128.069 29.5137 128.069 29.9419C128.069 30.3701 128.161 30.7483 128.343 31.0788Z" fill="#071C28"/>
<path d="M134.854 35.9627H133.65L135.336 32.1495L132.98 26.8643H134.251L136.205 31.6817L135.764 31.6282L137.664 26.8643H138.868L134.854 35.9627Z" fill="#071C28"/>
<path d="M139.805 35.9629V26.8633H140.875V35.9629H139.805ZM145.611 31.654C145.334 32.1357 144.967 32.5057 144.507 32.7652C144.047 33.0236 143.538 33.1527 142.974 33.1527C142.466 33.1527 142.018 33.0236 141.629 32.7652C141.242 32.5057 140.938 32.1357 140.719 31.654C140.501 31.1722 140.391 30.6009 140.391 29.9411C140.391 29.272 140.501 28.6995 140.719 28.2213C140.938 27.743 141.241 27.3753 141.629 27.117C142.017 26.8575 142.466 26.7295 142.974 26.7295C143.536 26.7295 144.047 26.8587 144.507 27.117C144.967 27.3753 145.334 27.7442 145.611 28.2213C145.888 28.6984 146.025 29.2709 146.025 29.9411C146.027 30.6009 145.888 31.1722 145.611 31.654ZM144.655 28.7368C144.463 28.4074 144.209 28.1573 143.893 27.9874C143.576 27.8175 143.226 27.7337 142.842 27.7337C142.529 27.7337 142.222 27.8187 141.919 27.9874C141.615 28.1573 141.365 28.4074 141.17 28.7368C140.973 29.0672 140.875 29.4687 140.875 29.9411C140.875 30.4135 140.973 30.815 141.17 31.1455C141.365 31.4759 141.615 31.7261 141.919 31.8948C142.222 32.0647 142.53 32.1485 142.842 32.1485C143.226 32.1485 143.575 32.0636 143.893 31.8948C144.209 31.725 144.463 31.4759 144.655 31.1455C144.847 30.815 144.943 30.4135 144.943 29.9411C144.943 29.4687 144.847 29.0672 144.655 28.7368Z" fill="#071C28"/>
<path d="M148.256 31.0788C148.438 31.4092 148.688 31.6699 149.005 31.8619C149.321 32.0539 149.681 32.1493 150.083 32.1493C150.413 32.1493 150.722 32.0981 151.012 31.9957C151.302 31.8933 151.554 31.7548 151.767 31.5815C151.982 31.4081 152.133 31.2219 152.222 31.0264V32.3646C152.008 32.6148 151.702 32.8079 151.305 32.9464C150.909 33.0849 150.5 33.1547 150.081 33.1547C149.483 33.1547 148.943 33.0162 148.462 32.7393C147.98 32.4635 147.598 32.0818 147.318 31.5954C147.037 31.109 146.896 30.5575 146.896 29.9431C146.896 29.3182 147.037 28.7655 147.318 28.2837C147.599 27.802 147.98 27.4226 148.462 27.1457C148.943 26.8688 149.483 26.7314 150.081 26.7314C150.5 26.7314 150.909 26.8001 151.305 26.9386C151.702 27.077 152.008 27.2714 152.222 27.5204V28.8586C152.133 28.6538 151.982 28.4664 151.767 28.2965C151.553 28.1266 151.302 27.9905 151.012 27.8881C150.721 27.7857 150.412 27.7345 150.083 27.7345C149.681 27.7345 149.321 27.8287 149.005 28.0161C148.688 28.2034 148.438 28.4641 148.256 28.798C148.073 29.1332 147.981 29.5137 147.981 29.9419C147.981 30.3701 148.073 30.7483 148.256 31.0788Z" fill="#071C28"/>
<path d="M158.981 26.8633V33.0189H157.91V26.8633H158.981ZM158.539 29.4465H160.185C160.346 29.4465 160.491 29.4256 160.62 29.386C160.749 29.3453 160.859 29.286 160.948 29.2057C161.037 29.1254 161.107 29.0346 161.156 28.9311C161.204 28.8287 161.229 28.7193 161.229 28.6029C161.229 28.362 161.135 28.1677 160.948 28.0211C160.761 27.8745 160.506 27.8012 160.185 27.8012H158.539V26.8633H160.185C160.569 26.8633 160.919 26.9191 161.236 27.0308C161.552 27.1426 161.809 27.3218 162.005 27.5661C162.2 27.8105 162.299 28.1351 162.299 28.5354C162.299 28.8833 162.202 29.1708 162.005 29.3988C161.809 29.6269 161.552 29.7956 161.236 29.9073C160.919 30.019 160.569 30.0749 160.185 30.0749H158.539V29.4465ZM160.319 29.8073C160.747 29.8073 161.13 29.8515 161.47 29.9411C161.809 30.0307 162.076 30.1866 162.273 30.4089C162.469 30.6323 162.567 30.9441 162.567 31.3456C162.567 31.8099 162.413 32.2043 162.106 32.5302C161.798 32.856 161.292 33.0189 160.588 33.0189H158.54V32.0822H160.32C160.721 32.0822 161.018 31.9972 161.21 31.8285C161.402 31.6586 161.498 31.4538 161.498 31.2129C161.498 31.0884 161.473 30.9767 161.424 30.879C161.375 30.7812 161.303 30.6916 161.21 30.6113C161.116 30.531 160.996 30.4705 160.848 30.431C160.702 30.3902 160.525 30.3705 160.32 30.3705H158.54V29.8073H160.319Z" fill="#071C28"/>
<path d="M165.041 26.8633V33.0189H163.971V26.8633H165.041ZM164.6 29.1917H166.514C167.147 29.1917 167.68 29.3453 168.114 29.6537C168.547 29.9609 168.764 30.4449 168.764 31.1059C168.764 31.5434 168.666 31.9041 168.469 32.1904C168.273 32.4755 168.005 32.6849 167.666 32.8199C167.327 32.9537 166.944 33.02 166.516 33.02H164.601V32.0833H166.516C166.774 32.0833 166.99 32.0461 167.165 31.9693C167.338 31.8937 167.47 31.7819 167.559 31.6342C167.649 31.4864 167.693 31.3107 167.693 31.1059C167.693 30.794 167.595 30.5532 167.399 30.3833C167.202 30.2134 166.908 30.1296 166.516 30.1296H164.601L164.6 29.1917ZM170.595 26.8633V33.0189H169.525V26.8633H170.595Z" fill="#071C28"/>
<path d="M179.962 32.0158V26.8633H181.032V33.0189H172.602V26.8633H173.672V32.0158H176.281V26.8633H177.351V32.0158H179.962Z" fill="#071C28"/>
<path d="M183.188 29.2988H187.297C187.26 28.9776 187.174 28.6937 187.036 28.4493C186.897 28.2038 186.705 28.013 186.46 27.8733C186.214 27.7349 185.913 27.6662 185.557 27.6662C185.201 27.6662 184.875 27.7419 184.581 27.8943C184.286 28.0467 184.052 28.262 183.878 28.5436C183.704 28.824 183.617 29.1568 183.617 29.5397L183.59 29.9411C183.59 30.4135 183.671 30.815 183.831 31.1455C183.992 31.4759 184.219 31.7261 184.513 31.8948C184.808 32.0636 185.155 32.1485 185.557 32.1485C185.861 32.1485 186.131 32.102 186.367 32.0077C186.603 31.9135 186.815 31.7855 187.002 31.6202C187.189 31.455 187.35 31.2607 187.484 31.0384L188.354 31.5876C188.148 31.9007 187.921 32.1741 187.671 32.4103C187.422 32.6477 187.118 32.8304 186.761 32.9596C186.404 33.0887 185.958 33.1539 185.423 33.1539C184.869 33.1539 184.372 33.0154 183.931 32.7385C183.489 32.4627 183.141 32.081 182.888 31.5946C182.633 31.1082 182.506 30.5567 182.506 29.9423C182.506 29.8259 182.511 29.7154 182.52 29.6071C182.528 29.5001 182.542 29.393 182.561 29.286C182.649 28.7775 182.828 28.3318 183.096 27.9478C183.363 27.5638 183.709 27.2659 184.133 27.0507C184.556 26.8365 185.031 26.7295 185.558 26.7295C186.139 26.7295 186.647 26.8587 187.084 27.117C187.52 27.3753 187.86 27.7395 188.101 28.2073C188.341 28.6751 188.462 29.236 188.462 29.8864C188.462 29.9399 188.462 29.9935 188.462 30.047C188.462 30.1005 188.458 30.1541 188.449 30.2076H183.189V29.2988H183.188Z" fill="#071C28"/>
<path d="M190.42 31.9608C190.567 31.8177 190.739 31.7467 190.936 31.7467C191.141 31.7467 191.315 31.8177 191.457 31.9608C191.6 32.104 191.671 32.2774 191.671 32.4833C191.671 32.6788 191.599 32.851 191.457 32.9988C191.315 33.1466 191.141 33.2187 190.936 33.2187C190.739 33.2187 190.568 33.1454 190.42 32.9988C190.273 32.8522 190.199 32.68 190.199 32.4833C190.199 32.2785 190.273 32.104 190.42 31.9608ZM191.604 23.6514L191.336 30.3422H190.533L190.266 23.6514H191.604Z" fill="#071C28"/>
</svg>
