<svg width="20" height="20" viewBox="0 0 20 20" fill="none" xmlns="http://www.w3.org/2000/svg">
<path fill-rule="evenodd" clip-rule="evenodd" d="M15.5858 5H4.41421L9.29289 9.87868C9.68342 10.2692 10.3166 10.2692 10.7071 9.87868L15.5858 5ZM3 6.41421V13.8C3 14.3931 3.00156 14.7176 3.02061 14.9507L3.0229 14.9771L3.04927 14.9794C3.28244 14.9984 3.60695 15 4.2 15H15.8C16.3931 15 16.7176 14.9984 16.9507 14.9794L16.9771 14.9771L16.9794 14.9507C16.9984 14.7176 17 14.3931 17 13.8V6.41421L12.1213 11.2929C10.9497 12.4645 9.05025 12.4645 7.87868 11.2929L3 6.41421ZM1 6.2C1 5.0799 1 4.51984 1.21799 4.09202C1.40973 3.71569 1.71569 3.40973 2.09202 3.21799C2.51984 3 3.0799 3 4.2 3H15.8C16.9201 3 17.4802 3 17.908 3.21799C18.2843 3.40973 18.5903 3.71569 18.782 4.09202C19 4.51984 19 5.0799 19 6.2V13.8C19 14.9201 19 15.4802 18.782 15.908C18.5903 16.2843 18.2843 16.5903 17.908 16.782C17.4802 17 16.9201 17 15.8 17H4.2C3.0799 17 2.51984 17 2.09202 16.782C1.71569 16.5903 1.40973 16.2843 1.21799 15.908C1 15.4802 1 14.9201 1 13.8V6.2Z" fill="#BC0000"/>
</svg>
