<svg width="140" height="48" viewBox="0 0 140 48" fill="none" xmlns="http://www.w3.org/2000/svg">
<path d="M60.3459 20.4385C60.5344 20.1855 60.6695 19.9866 60.8223 19.8022C62.1175 18.2395 64.1068 17.7496 65.8734 18.4161C66.83 18.7772 67.4092 19.5111 67.675 20.4686C67.8292 21.0241 67.9394 21.6105 67.9467 22.1844C67.9777 24.6109 67.9629 27.0379 67.9624 29.4648C67.9624 29.5327 67.9353 29.6007 67.9132 29.7048C66.9987 29.7048 66.0927 29.7048 65.1249 29.7048C65.1249 29.4313 65.1249 29.1938 65.1249 28.9561C65.1249 27.0389 65.1276 25.1217 65.1222 23.2046C65.1212 22.8169 65.1206 22.4247 65.065 22.0426C64.9259 21.087 64.2693 20.5996 63.3159 20.7316C62.5883 20.8324 61.9917 21.1655 61.5522 21.772C60.9433 22.6126 60.7267 23.572 60.7128 24.581C60.6921 26.0612 60.7061 27.5417 60.7055 29.0221C60.7053 29.2356 60.7055 29.4491 60.7055 29.7029C59.7716 29.7029 58.8854 29.7029 57.9442 29.7029C57.9285 29.528 57.8982 29.3456 57.8979 29.1629C57.8946 27.1972 57.9027 25.2314 57.8909 23.2657C57.8881 22.8068 57.8549 22.3424 57.7766 21.8908C57.6417 21.1135 57.1424 20.7161 56.3491 20.7209C55.3638 20.7268 54.6437 21.2074 54.1373 22.0253C53.6527 22.808 53.4476 23.6751 53.4425 24.5882C53.4344 26.0443 53.4402 27.5004 53.4401 28.9564C53.4401 29.1938 53.4401 29.431 53.4401 29.7058C52.4992 29.7058 51.6129 29.7058 50.6797 29.7058C50.6797 25.9587 50.6797 22.2138 50.6797 18.4319C51.5319 18.4319 52.3704 18.4319 53.2666 18.4319C53.2666 19.0707 53.2666 19.7076 53.2666 20.3444C54.2122 19.0802 55.3548 18.1916 56.9499 18.1376C58.263 18.093 59.5801 18.4582 60.3459 20.4385Z" fill="#454F58"/>
<path d="M14.3685 23.6891C14.3686 26.2122 14.3756 28.7355 14.3657 31.2587C14.3606 32.5593 13.6068 33.6172 12.4154 34.0513C10.6718 34.6865 8.78289 33.405 8.6208 31.4755C8.61061 31.355 8.6144 31.2331 8.6144 31.1118C8.6141 26.1138 8.61119 21.116 8.61614 16.118C8.6176 14.6958 9.34065 13.6259 10.5721 13.1776C12.3734 12.5221 14.3372 13.9136 14.3622 15.901C14.3899 18.1085 14.3685 20.3166 14.3685 22.5243C14.3683 22.9127 14.3683 23.3008 14.3685 23.6891Z" fill="#D24A3A"/>
<path d="M5.79075 23.608C5.79119 26.1562 5.79687 28.7046 5.78871 31.2528C5.78478 32.4492 5.25411 33.3489 4.18243 33.8971C3.09109 34.4553 1.84349 34.2629 0.961713 33.4041C0.344685 32.8031 0.00857479 32.0566 0.00697288 31.1958C-0.00205608 26.1479 -0.00263853 21.0998 0.00711857 16.0519C0.00901174 15.078 0.402063 14.2479 1.17229 13.6518C2.06281 12.9626 3.05163 12.7817 4.1035 13.2943C5.18377 13.8207 5.77313 14.692 5.78347 15.8904C5.80575 18.4628 5.79031 21.0355 5.79075 23.608Z" fill="#454F58"/>
<path d="M40.0453 23.6946C40.0453 26.2163 40.052 28.7381 40.0425 31.2598C40.0376 32.5786 39.348 33.5178 38.1802 34.026C36.6323 34.6997 34.5095 33.5242 34.3521 31.6112C34.3401 31.4665 34.3417 31.3206 34.3417 31.1751C34.3413 26.1315 34.3436 21.088 34.3398 16.0444C34.3388 14.7159 34.9425 13.8071 36.1433 13.2377C37.7033 12.4981 39.8332 13.6723 40.0253 15.5481C40.0499 15.7886 40.0444 16.0325 40.0445 16.2747C40.0459 18.748 40.0453 21.2212 40.0453 23.6946Z" fill="#454F58"/>
<path d="M31.4679 23.6214C31.4679 26.1913 31.4708 28.7612 31.4666 31.3311C31.4645 32.5436 30.8811 33.4062 29.8127 33.9355C27.9351 34.8657 25.9036 33.3647 25.7712 31.5363C25.7625 31.4156 25.7645 31.294 25.7645 31.1728C25.7642 26.13 25.7623 21.0872 25.7655 16.0443C25.7664 14.7229 26.383 13.799 27.5803 13.2372C29.2648 12.4467 31.4047 13.8256 31.4635 15.6937C31.4696 15.8875 31.4676 16.0815 31.4676 16.2755C31.468 18.7241 31.468 21.1727 31.4679 23.6214Z" fill="#D24A3A"/>
<path d="M109.928 28.5761C109.928 30.5604 109.928 32.35 109.928 34.1831C109.007 34.1831 108.126 34.1831 107.209 34.1831C107.209 28.9333 107.209 23.707 107.209 18.4377C108.037 18.4377 108.85 18.4377 109.715 18.4377C109.715 18.8882 109.715 19.3491 109.715 19.8953C109.88 19.7545 110.015 19.667 110.115 19.5496C111.779 17.5902 115.383 17.6119 117.159 19.9C118.887 22.1253 118.847 26.0837 117.065 28.2642C115.795 29.8174 113.576 30.4442 111.746 29.7215C111.306 29.5473 110.921 29.2304 110.513 28.975C110.36 28.8796 110.215 28.7727 109.928 28.5761ZM115.589 24.2945C115.593 23.4155 115.462 22.7027 115.119 22.0503C114.633 21.1266 113.879 20.5748 112.805 20.5668C111.717 20.5588 110.856 21.0311 110.39 22.0068C109.692 23.4672 109.68 24.9684 110.533 26.378C111.537 28.036 113.793 28.0667 114.911 26.4815C115.405 25.7809 115.559 24.9859 115.589 24.2945Z" fill="#454F58"/>
<path d="M77.4658 29.7235C76.4515 29.7235 75.5591 29.7235 74.6211 29.7235C74.6211 24.479 74.6211 19.2547 74.6211 14C75.5442 14 76.4358 14 77.4 14C77.4 16.7747 77.4 19.5506 77.4 22.3726C77.8966 22.3726 78.3224 22.3726 78.8331 22.3726C79.7147 21.0876 80.6302 19.7531 81.5479 18.4156C82.5648 18.4156 83.5558 18.4156 84.6769 18.4156C83.4623 20.1483 82.2906 21.8195 81.112 23.5009C82.4412 25.5635 83.7488 27.5925 85.1062 29.6986C83.9841 29.6986 82.9588 29.6986 81.8615 29.6986C80.8967 28.1105 79.9059 26.4799 78.9001 24.8244C78.4454 24.8244 77.9931 24.8244 77.466 24.8244C77.4658 26.4275 77.4658 28.038 77.4658 29.7235Z" fill="#454F58"/>
<path d="M125.714 29.9942C124.056 30.0081 122.558 29.5441 121.317 28.4111C118.107 25.4789 119.08 20.1841 123.137 18.6185C125.539 17.6912 127.839 17.978 129.827 19.6349C131.693 21.1903 132.262 23.2745 131.664 25.604C131.058 27.9669 129.415 29.312 127.083 29.8674C126.848 29.9234 126.608 29.9671 126.368 29.9899C126.152 30.0104 125.932 29.9942 125.714 29.9942ZM125.65 27.5896C127.588 27.5873 129.019 26.0949 129.017 24.0787C129.015 22.0742 127.566 20.5523 125.656 20.5492C123.738 20.546 122.299 22.055 122.297 24.0733C122.295 26.0995 123.718 27.5919 125.65 27.5896Z" fill="#454F58"/>
<path d="M106.026 24.1043C106.095 27.0494 103.864 29.717 100.392 29.993C98.2714 30.1615 96.3926 29.5372 94.9812 27.892C92.3426 24.8162 93.5851 20.0164 97.3739 18.575C98.9991 17.9566 100.649 17.9625 102.272 18.5898C104.764 19.5526 106.1 21.8353 106.026 24.1043ZM96.486 24.0139C96.4681 25.6158 97.2845 26.9041 98.6292 27.3942C100.192 27.9641 101.92 27.3494 102.718 25.94C103.603 24.3759 103.253 22.3124 101.899 21.2711C100.803 20.4291 99.5853 20.2762 98.3515 20.8906C97.0908 21.5186 96.5008 22.6105 96.486 24.0139Z" fill="#454F58"/>
<path d="M17.1868 20.7786C17.1872 19.8331 17.1519 18.8859 17.1961 17.9425C17.2519 16.7549 17.8317 15.8676 18.933 15.388C19.9784 14.9329 20.9749 15.0905 21.8682 15.7919C22.6039 16.3696 22.9279 17.1692 22.9374 18.0817C22.9563 19.8999 22.9611 21.7185 22.9378 23.5367C22.9166 25.1993 21.6371 26.4947 20.0657 26.4958C18.4651 26.4972 17.2015 25.1727 17.1875 23.4698C17.1803 22.5728 17.1864 21.6757 17.1868 20.7786Z" fill="#D24A3A"/>
<path d="M135.771 29.7231C134.862 29.7231 133.97 29.7231 133.029 29.7231C133.029 25.9628 133.029 22.2187 133.029 18.4338C133.901 18.4338 134.762 18.4338 135.671 18.4338C135.671 19.2502 135.671 20.064 135.671 20.8776C135.714 20.9004 135.756 20.9231 135.798 20.9458C136.133 20.0813 136.657 19.3681 137.405 18.8549C138.175 18.3274 139.024 18.1205 140 18.3083C140 19.2073 140 20.0923 140 21.041C139.841 21.041 139.659 21.0534 139.479 21.0391C138.012 20.9223 136.774 21.6385 136.27 23.0258C136.027 23.6958 135.89 24.4327 135.86 25.146C135.796 26.6228 135.835 28.1042 135.83 29.5836C135.83 29.6046 135.813 29.6257 135.771 29.7231Z" fill="#454F58"/>
<path d="M88.9904 29.7245C88.0915 29.7245 87.1988 29.7245 86.2598 29.7245C86.2598 25.9616 86.2598 22.2175 86.2598 18.4334C87.1332 18.4334 87.9943 18.4334 88.9022 18.4334C88.9022 19.2319 88.9022 20.0258 88.9022 20.8198C89.8408 19.2597 90.9867 18.0983 93.0255 18.2733C93.0255 19.2129 93.0255 20.1007 93.0255 21.0292C92.8875 21.0292 92.7525 21.034 92.6179 21.0285C91.1071 20.9664 89.9012 21.722 89.4216 23.1586C89.2035 23.812 89.1116 24.5289 89.087 25.2214C89.0353 26.6748 89.0662 28.1311 89.0617 29.5862C89.0615 29.6067 89.0414 29.6272 88.9904 29.7245Z" fill="#454F58"/>
<path d="M69.8867 18.4287C70.8049 18.4287 71.6906 18.4287 72.6157 18.4287C72.6157 22.1795 72.6157 25.9054 72.6157 29.6874C71.7352 29.6874 70.8314 29.6874 69.8867 29.6874C69.8867 25.9463 69.8867 22.2043 69.8867 18.4287Z" fill="#454F58"/>
<path d="M72.6324 14.0107C72.6324 14.8314 72.6324 15.6016 72.6324 16.4234C71.727 16.4234 70.8231 16.4234 69.8828 16.4234C69.8828 15.6234 69.8828 14.8373 69.8828 14.0107C70.7904 14.0107 71.6761 14.0107 72.6324 14.0107Z" fill="#454F58"/>
</svg>
