<svg width="72" height="72" viewBox="0 0 72 72" fill="none" xmlns="http://www.w3.org/2000/svg">
<rect x="10" y="9" width="36" height="10" rx="2" fill="#991C12"/>
<rect x="8" y="14" width="40" height="18" rx="2" fill="#A6180C"/>
<rect x="5" y="22" width="46" height="24" rx="2" fill="#BC0000"/>
<rect x="1" y="30" width="54" height="28" rx="2" fill="#991C12"/>
<path fill-rule="evenodd" clip-rule="evenodd" d="M11 33H45C45 35.2091 46.7909 37 49 37V51.126C48.6804 51.0438 48.3453 51 48 51C45.7909 51 44 52.7909 44 55H11C11 52.7909 9.20914 51 7 51V37C9.20914 37 11 35.2091 11 33Z" fill="#BC0000"/>
<mask id="mask0_1706_193755" style="mask-type:alpha" maskUnits="userSpaceOnUse" x="38" y="33" width="33" height="33">
<path d="M71 49.5C71 58.6127 63.6127 66 54.5 66C45.3873 66 38 58.6127 38 49.5C38 40.3873 45.3873 33 54.5 33C63.6127 33 71 40.3873 71 49.5Z" fill="#F5F5F5"/>
</mask>
<g mask="url(#mask0_1706_193755)">
<path fill-rule="evenodd" clip-rule="evenodd" d="M54.5 66C63.6127 66 71 58.6127 71 49.5C71 40.3873 63.6127 33 54.5 33C45.3873 33 38 40.3873 38 49.5C38 58.6127 45.3873 66 54.5 66ZM55.5 42C55.5 41.4477 55.0523 41 54.5 41C53.9477 41 53.5 41.4477 53.5 42V53.5776L49.7088 49.7683C49.3192 49.3768 48.686 49.3753 48.2946 49.7649C47.9031 50.1545 47.9016 50.7876 48.2912 51.1791L53.7912 56.7054C53.9789 56.894 54.234 57 54.5 57C54.766 57 55.0211 56.894 55.2088 56.7054L60.7088 51.1791C61.0984 50.7876 61.0969 50.1545 60.7054 49.7649C60.314 49.3753 59.6808 49.3768 59.2912 49.7683L55.5 53.5776V42Z" fill="white"/>
<path fill-rule="evenodd" clip-rule="evenodd" d="M54.5 65C63.0604 65 70 58.0604 70 49.5C70 40.9396 63.0604 34 54.5 34C45.9396 34 39 40.9396 39 49.5C39 58.0604 45.9396 65 54.5 65ZM54.5 66C63.6127 66 71 58.6127 71 49.5C71 40.3873 63.6127 33 54.5 33C45.3873 33 38 40.3873 38 49.5C38 58.6127 45.3873 66 54.5 66Z" fill="#991C12"/>
<path d="M54.5 42V56M54.5 56L60 50.4737M54.5 56L49 50.4737" stroke="#991C12" stroke-width="3" stroke-linecap="square" stroke-linejoin="round"/>
</g>
<path d="M27.4096 51V49.2762C26.7221 49.265 26.0873 49.2036 25.5052 49.0921C24.9286 48.9749 24.4297 48.8243 24.0083 48.6402V46.8577C24.4352 47.0586 24.9619 47.2399 25.5884 47.4017C26.2148 47.5635 26.8219 47.6555 27.4096 47.6778V44.5397C26.6057 44.2664 25.9515 43.9819 25.447 43.6862C24.948 43.3905 24.5821 43.0474 24.3493 42.6569C24.1164 42.2608 24 41.7866 24 41.2343C24 40.6653 24.1414 40.1771 24.4241 39.7699C24.7124 39.357 25.1116 39.0307 25.6216 38.7908C26.1372 38.5509 26.7332 38.4086 27.4096 38.364V37H28.4906V38.3389C29.106 38.3556 29.6743 38.4254 30.1954 38.5481C30.7221 38.6653 31.2238 38.8298 31.7006 39.0418L31.0936 40.5983C30.6778 40.431 30.2453 40.2943 29.7963 40.1883C29.3472 40.0823 28.912 40.0098 28.4906 39.9707V43.0335C29.167 43.2566 29.7685 43.4965 30.2952 43.7531C30.8274 44.0098 31.2432 44.3333 31.5426 44.7238C31.8475 45.1088 32 45.6137 32 46.2385C32 47.0586 31.7006 47.7364 31.1019 48.272C30.5031 48.802 29.6327 49.1199 28.4906 49.2259V51H27.4096ZM28.4906 47.6109C29.0229 47.5439 29.4193 47.4045 29.6798 47.1925C29.9404 46.9749 30.0707 46.6932 30.0707 46.3473C30.0707 46.113 30.0152 45.9149 29.9044 45.7531C29.799 45.5914 29.6299 45.4463 29.3971 45.318C29.1698 45.1897 28.8676 45.0642 28.4906 44.9414V47.6109ZM27.4096 42.6234V40.0042C27.088 40.0377 26.8164 40.1046 26.5946 40.205C26.3728 40.3054 26.2065 40.4365 26.0956 40.5983C25.9848 40.7601 25.9293 40.9526 25.9293 41.1757C25.9293 41.4212 25.9792 41.6304 26.079 41.8033C26.1788 41.9763 26.3368 42.1269 26.553 42.2552C26.7748 42.3835 27.0603 42.5063 27.4096 42.6234Z" fill="white"/>
</svg>
