<svg width="72" height="72" viewBox="0 0 72 72" fill="none" xmlns="http://www.w3.org/2000/svg">
<path d="M17 9H29H48C49.1046 9 50 9.89543 50 11V62C50 63.1046 49.1046 64 48 64H7C5.89543 64 5 63.1046 5 62V37V24L17 9Z" fill="#991C12"/>
<rect x="10" y="38" width="35" height="2" fill="white"/>
<rect x="10" y="43" width="35" height="2" fill="white"/>
<rect x="10" y="48" width="35" height="2" fill="white"/>
<rect x="10" y="53" width="35" height="2" fill="white"/>
<rect x="10" y="58" width="24" height="2" fill="white"/>
<path d="M28.262 33V30.9068C27.4026 30.8932 26.6091 30.8187 25.8815 30.6832C25.1608 30.5409 24.5371 30.358 24.0104 30.1345V27.9701C24.544 28.214 25.2024 28.4342 25.9854 28.6306C26.7685 28.8271 27.5274 28.9388 28.262 28.9659V25.1554C27.2571 24.8235 26.4394 24.478 25.8087 24.1189C25.185 23.7599 24.7277 23.3433 24.4366 22.8691C24.1455 22.3881 24 21.8123 24 21.1417C24 20.4507 24.1767 19.8579 24.5301 19.3634C24.8905 18.8621 25.3895 18.4658 26.027 18.1745C26.6715 17.8832 27.4165 17.7105 28.262 17.6563V16H29.6133V17.6258C30.3825 17.6461 31.0929 17.7308 31.7443 17.8799C32.4026 18.0221 33.0298 18.222 33.6258 18.4794L32.8669 20.3694C32.3472 20.1662 31.8067 20.0002 31.2453 19.8715C30.684 19.7428 30.14 19.6547 29.6133 19.6073V23.3264C30.4588 23.5973 31.2107 23.8886 31.869 24.2002C32.5343 24.5119 33.0541 24.9048 33.4283 25.379C33.8094 25.8464 34 26.4595 34 27.2182C34 28.214 33.6258 29.0371 32.8773 29.6874C32.1289 30.3309 31.0409 30.7171 29.6133 30.8458V33H28.262ZM29.6133 28.8846C30.2786 28.8033 30.7741 28.634 31.0998 28.3766C31.4255 28.1124 31.5884 27.7703 31.5884 27.3503C31.5884 27.0658 31.5191 26.8253 31.3805 26.6288C31.2488 26.4324 31.0374 26.2562 30.7464 26.1004C30.4622 25.9446 30.0845 25.7922 29.6133 25.6432V28.8846ZM28.262 22.8285V19.6479C27.86 19.6886 27.5204 19.7699 27.2432 19.8918C26.966 20.0137 26.7581 20.1729 26.6195 20.3694C26.4809 20.5658 26.4116 20.7996 26.4116 21.0705C26.4116 21.3686 26.474 21.6226 26.5988 21.8326C26.7235 22.0426 26.921 22.2255 27.1913 22.3814C27.4685 22.5372 27.8254 22.6862 28.262 22.8285Z" fill="white"/>
<path d="M17 9L5 24H15C16.1046 24 17 23.1046 17 22V9Z" fill="#BC0000"/>
<mask id="mask0_1706_193731" style="mask-type:alpha" maskUnits="userSpaceOnUse" x="37" y="33" width="33" height="33">
<path d="M70 49.5C70 58.6127 62.6127 66 53.5 66C44.3873 66 37 58.6127 37 49.5C37 40.3873 44.3873 33 53.5 33C62.6127 33 70 40.3873 70 49.5Z" fill="#F5F5F5"/>
</mask>
<g mask="url(#mask0_1706_193731)">
<path fill-rule="evenodd" clip-rule="evenodd" d="M53.5 66C62.6127 66 70 58.6127 70 49.5C70 40.3873 62.6127 33 53.5 33C44.3873 33 37 40.3873 37 49.5C37 58.6127 44.3873 66 53.5 66ZM46 49.5C46 45.3579 49.3579 42 53.5 42C57.6421 42 61 45.3579 61 49.5C61 53.6421 57.6421 57 53.5 57C49.3579 57 46 53.6421 46 49.5ZM53.5 40C48.2533 40 44 44.2533 44 49.5C44 54.7467 48.2533 59 53.5 59C58.7467 59 63 54.7467 63 49.5C63 44.2533 58.7467 40 53.5 40ZM54.5 44.4C54.5 43.8477 54.0523 43.4 53.5 43.4C52.9477 43.4 52.5 43.8477 52.5 44.4V49.5C52.5 49.8788 52.714 50.225 53.0528 50.3944L56.4528 52.0944C56.9468 52.3414 57.5474 52.1412 57.7944 51.6472C58.0414 51.1532 57.8412 50.5526 57.3472 50.3056L54.5 48.882V44.4Z" fill="white"/>
<path fill-rule="evenodd" clip-rule="evenodd" d="M53.5 65C62.0604 65 69 58.0604 69 49.5C69 40.9396 62.0604 34 53.5 34C44.9396 34 38 40.9396 38 49.5C38 58.0604 44.9396 65 53.5 65ZM53.5 66C62.6127 66 70 58.6127 70 49.5C70 40.3873 62.6127 33 53.5 33C44.3873 33 37 40.3873 37 49.5C37 58.6127 44.3873 66 53.5 66Z" fill="#BC0000"/>
<path d="M53.5 59C58.7467 59 63 54.7467 63 49.5C63 44.2533 58.7467 40 53.5 40C48.2533 40 44 44.2533 44 49.5C44 54.7467 48.2533 59 53.5 59Z" fill="#991C12"/>
<path d="M53.5 44.3984V49.4984L56.9 51.1984" stroke="white" stroke-width="2" stroke-linecap="round" stroke-linejoin="round"/>
</g>
</svg>
