<svg width="72" height="72" viewBox="0 0 72 72" fill="none" xmlns="http://www.w3.org/2000/svg">
<path d="M4 6H28V11H4V6Z" fill="#D3D3D3"/>
<path d="M7 11H25V14H7V11Z" fill="#808080"/>
<path d="M35 11H53V14H35V11Z" fill="#808080"/>
<path d="M32 6H56V11H32V6Z" fill="#D3D3D3"/>
<path d="M3 60H11V66H3V60Z" fill="#991C12"/>
<path d="M57 60L57 62L3 62L3 60L57 60Z" fill="white"/>
<path d="M29 14H31V60H29V14Z" fill="white"/>
<path fill-rule="evenodd" clip-rule="evenodd" d="M4.88247 14C3.84281 14 3 14.8428 3 15.8825V59.717C3 59.8132 3.00721 59.9077 3.02112 60L29 60V14H4.88247ZM31 14V60H40.7715C38.4155 57.1472 37 53.4889 37 49.5C37 44.5035 39.2208 40.0258 42.7292 37H39V33.9897H43.4326V36.4262C43.7566 36.1763 44.0902 35.9382 44.4326 35.7126V33.9897H47.8582C49.6184 33.3493 51.5184 33 53.5 33C54.7007 33 55.8715 33.1283 56.9994 33.3718V15.8825C56.9994 14.8428 56.1566 14 55.1169 14H31ZM8.88247 22H10V24.9966H7V23.8825C7 22.8428 7.84281 22 8.88247 22ZM7 28.9932V25.9966H10V28.9932H7ZM7 32.9897V29.9932H10V32.9897H7ZM7 35.1175V33.9897H10V37H8.88247C7.84281 37 7 36.1572 7 35.1175ZM15.4326 37H11V33.9897H15.4326V37ZM21 37H16.4326V33.9897H21V37ZM23.1175 37H22V33.9897H25V35.1175C25 36.1572 24.1572 37 23.1175 37ZM25 29.9932V32.9897H22V29.9932H25ZM25 25.9966V28.9932H22V25.9966H25ZM25 23.8825V24.9966H22V22H23.1175C24.1572 22 25 22.8428 25 23.8825ZM16.4326 22H21V24.9966H16.4326V22ZM15.4326 24.9966V22H11V24.9966H15.4326ZM21 32.9897V29.9932H16.4326V32.9897H21ZM15.4326 32.9897V29.9932H11V32.9897H15.4326ZM21 25.9966V28.9932H16.4326V25.9966H21ZM15.4326 28.9932V25.9966H11V28.9932L15.4326 28.9932ZM38 22H36.8825C35.8428 22 35 22.8428 35 23.8825V24.9966H38V22ZM35 25.9966V28.9932H38V25.9966H35ZM35 29.9932V32.9897H38V29.9932H35ZM35 33.9897V35.1175C35 36.1572 35.8428 37 36.8825 37H38V33.9897H35ZM53 32.9897V29.9932H50V32.9897H53ZM53 28.9932V25.9966H50V28.9932H53ZM53 24.9966V23.8825C53 22.8428 52.1572 22 51.1175 22H50V24.9966H53ZM49 22H44.4326V24.9966H49V22ZM43.4326 22V24.9966H39V22H43.4326ZM49 29.9932V32.9897H44.4326V29.9932H49ZM43.4326 29.9932V32.9897H39V29.9932H43.4326ZM49 28.9932V25.9966H44.4326V28.9932H49ZM43.4326 25.9966V28.9932L39 28.9932V25.9966H43.4326Z" fill="#BC0000"/>
<mask id="mask0_1706_193780" style="mask-type:alpha" maskUnits="userSpaceOnUse" x="37" y="33" width="33" height="33">
<path d="M70 49.5C70 58.6127 62.6127 66 53.5 66C44.3873 66 37 58.6127 37 49.5C37 40.3873 44.3873 33 53.5 33C62.6127 33 70 40.3873 70 49.5Z" fill="#F5F5F5"/>
</mask>
<g mask="url(#mask0_1706_193780)">
<path fill-rule="evenodd" clip-rule="evenodd" d="M53.5 66C62.6127 66 70 58.6127 70 49.5C70 40.3873 62.6127 33 53.5 33C44.3873 33 37 40.3873 37 49.5C37 58.6127 44.3873 66 53.5 66ZM51.8471 42.1844C53.4247 41.828 55.0752 41.991 56.5525 42.6493C57.057 42.8741 57.6482 42.6473 57.8729 42.1429C58.0977 41.6384 57.871 41.0472 57.3665 40.8224C55.4953 39.9887 53.4046 39.7821 51.4064 40.2336C49.4081 40.6851 47.6094 41.7704 46.2784 43.3277C44.9473 44.8849 44.1554 46.8308 44.0206 48.8749C43.8858 50.9191 44.4154 52.9521 45.5304 54.6706C46.6454 56.3892 48.2861 57.7013 50.2077 58.4113C52.1294 59.1212 54.2291 59.191 56.1936 58.6101C58.1581 58.0293 59.8823 56.829 61.1089 55.1882C62.3355 53.5474 62.9988 51.554 63 49.5054V49.5049V48.7229C63 48.1706 62.5523 47.7229 62 47.7229C61.4477 47.7229 61 48.1706 61 48.7229V49.5043C60.9991 51.1216 60.4754 52.6953 59.507 53.9907C58.5386 55.286 57.1775 56.2336 55.6265 56.6922C54.0756 57.1508 52.4179 57.0957 50.9009 56.5352C49.3838 55.9747 48.0885 54.9389 47.2082 53.5821C46.328 52.2253 45.9098 50.6203 46.0163 49.0065C46.1227 47.3927 46.7479 45.8565 47.7987 44.6271C48.8495 43.3977 50.2696 42.5408 51.8471 42.1844ZM62.7075 43.4116C63.0978 43.0209 63.0975 42.3877 62.7068 41.9974C62.316 41.6071 61.6829 41.6074 61.2925 41.9981L53.4996 49.7988L51.6571 47.9563C51.2666 47.5657 50.6334 47.5657 50.2429 47.9563C49.8524 48.3468 49.8524 48.9799 50.2429 49.3705L52.7929 51.9205C52.9805 52.1081 53.2349 52.2134 53.5003 52.2134C53.7656 52.2133 54.02 52.1078 54.2075 51.9201L62.7075 43.4116Z" fill="white"/>
<path fill-rule="evenodd" clip-rule="evenodd" d="M53.5 65C62.0604 65 69 58.0604 69 49.5C69 40.9396 62.0604 34 53.5 34C44.9396 34 38 40.9396 38 49.5C38 58.0604 44.9396 65 53.5 65ZM53.5 66C62.6127 66 70 58.6127 70 49.5C70 40.3873 62.6127 33 53.5 33C44.3873 33 37 40.3873 37 49.5C37 58.6127 44.3873 66 53.5 66Z" fill="#991C12"/>
</g>
<path d="M62.1335 42.5898L53.4972 51.2348L50.9062 48.6439" stroke="#991C12" stroke-width="2" stroke-linecap="round" stroke-linejoin="round"/>
<path fill-rule="evenodd" clip-rule="evenodd" d="M53.5 59C58.7467 59 63 54.7467 63 49.5C63 48.0544 62.6771 46.6842 62.0995 45.4576L54.916 52.6484C54.541 53.0237 54.0322 53.2347 53.5016 53.2348C52.971 53.235 52.462 53.0243 52.0869 52.6491L49.4959 50.0581C48.7149 49.2771 48.7149 48.0108 49.4959 47.2297C50.277 46.4487 51.5433 46.4487 52.3244 47.2297L53.5004 48.4057L59.6451 42.2549C57.9885 40.8484 55.8433 40 53.5 40C48.2533 40 44 44.2533 44 49.5C44 54.7467 48.2533 59 53.5 59Z" fill="#991C12"/>
</svg>
