<svg width="22" height="21" viewBox="0 0 22 21" fill="none" xmlns="http://www.w3.org/2000/svg">
<path fill-rule="evenodd" clip-rule="evenodd" d="M18.4773 1.24006L13.2634 6.45396L14.6078 7.79838L19.8216 2.58455L20.4252 3.87884C21.6256 6.45297 21.1181 9.63288 18.9676 11.7834C17.1106 13.6403 14.4872 14.2716 12.1489 13.6377L6.43353 19.3531C5.12887 20.6577 3.01361 20.6577 1.70896 19.3531C0.404306 18.0484 0.404304 15.9331 1.70896 14.6285L7.4236 8.91384C6.78886 6.575 7.42004 3.95068 9.27747 2.09325C11.4284 -0.057642 14.6091 -0.565003 17.1835 0.636317L18.4773 1.24006ZM14.8567 2.03219C13.3955 1.86461 11.8461 2.35306 10.6917 3.50746C9.22445 4.9747 8.83231 7.08131 9.4978 8.83368L9.72746 9.43841L3.12317 16.0427C2.59957 16.5663 2.59957 17.4152 3.12317 17.9388C3.64678 18.4625 4.49571 18.4625 5.01932 17.9388L11.624 11.3342L12.2286 11.5636C13.9807 12.2283 16.0865 11.836 17.5534 10.3691C18.7073 9.21519 19.1958 7.66656 19.0288 6.20577L16.022 9.21259C15.241 9.99364 13.9746 9.99364 13.1936 9.21259L11.8492 7.86817C11.0681 7.08712 11.0681 5.82079 11.8492 5.03975L14.8567 2.03219Z" fill="#2A4455"/>
</svg>
