<svg width="35" height="29" viewBox="0 0 35 29" fill="none" xmlns="http://www.w3.org/2000/svg">
<path d="M30 7C30.5523 7 31 7.44772 31 8C31 8.55228 30.5523 9 30 9H28V11C28 11.5523 27.5523 12 27 12C26.4477 12 26 11.5523 26 11V9H24C23.4477 9 23 8.55228 23 8C23 7.44771 23.4477 7 24 7H26V5C26 4.44772 26.4477 4 27 4C27.5523 4 28 4.44772 28 5V7H30Z" fill="white"/>
<path fill-rule="evenodd" clip-rule="evenodd" d="M24.1362 5.01088e-06C23.6315 -5.48311e-05 23.1399 -0.000113115 22.7236 0.0339009C22.2664 0.0712544 21.7269 0.159389 21.184 0.435984C20.4314 0.819478 19.8195 1.4314 19.436 2.18405C19.1594 2.7269 19.0713 3.26636 19.0339 3.72355C18.9999 4.13987 18.9999 4.63145 19 5.13621L19 7H12C11.4477 7 11 7.44772 11 8C11 8.55229 11.4477 9 12 9H19L19 10.8638C18.9999 11.3686 18.9999 11.8602 19.0339 12.2765C19.0713 12.7337 19.1594 13.2731 19.436 13.816C19.8195 14.5686 20.4314 15.1805 21.184 15.564C21.7269 15.8406 22.2664 15.9288 22.7236 15.9661C23.1399 16.0001 23.6315 16.0001 24.1362 16L25.8195 16L25.4593 18.1617C25.3776 18.6515 25.3248 18.9642 25.2667 19.201C25.2116 19.4257 25.1677 19.5098 25.1384 19.5537C25.034 19.7108 24.8872 19.8352 24.715 19.9124C24.6669 19.934 24.5767 19.9635 24.3461 19.981C24.1029 19.9993 23.7858 20 23.2892 20H11.8558C11.3518 20 11.0295 19.9993 10.7826 19.9805C10.5482 19.9626 10.457 19.9324 10.4086 19.9104C10.2349 19.8314 10.0873 19.7044 9.98343 19.5442C9.95453 19.4997 9.91108 19.4139 9.85863 19.1848C9.80338 18.9434 9.75491 18.6248 9.68014 18.1264L7.58907 4.18585C7.55654 3.9688 7.5244 3.75435 7.48287 3.57294C7.43674 3.37138 7.36459 3.13955 7.21669 2.91156C7.00894 2.59129 6.71386 2.33718 6.36632 2.17923C6.11891 2.06679 5.87894 2.02983 5.67277 2.0141C5.4872 1.99995 5.27035 1.99998 5.05087 2L1 2C0.447715 2 0 2.44772 0 3C0 3.55229 0.447715 4 1 4H5.0221C5.28172 4 5.42061 4.00068 5.52067 4.00831L5.53095 4.00914L5.53329 4.01918C5.55568 4.11699 5.57696 4.2543 5.61546 4.511L7.70747 18.4577C7.77553 18.9116 7.83473 19.3063 7.90905 19.631C7.98804 19.9761 8.09872 20.3138 8.30555 20.6327C8.61719 21.1131 9.05981 21.4942 9.58112 21.7312C9.92711 21.8884 10.2775 21.9478 10.6305 21.9747C10.9626 22 11.3618 22 11.8208 22H23.3238C23.7758 22 24.1692 22 24.4969 21.9753C24.8454 21.9489 25.1913 21.8908 25.5337 21.7372C26.0501 21.5055 26.4904 21.1325 26.8038 20.6612C27.0116 20.3487 27.1258 20.0171 27.2091 19.6777C27.2874 19.3586 27.3521 18.9705 27.4263 18.5247L27.8471 16L29.8638 16C30.3686 16.0001 30.8602 16.0001 31.2765 15.9661C31.7337 15.9288 32.2731 15.8406 32.816 15.564C33.5686 15.1805 34.1805 14.5686 34.564 13.816C34.8406 13.2731 34.9288 12.7337 34.9661 12.2765C35.0001 11.8602 35.0001 11.3686 35 10.8638V5.13622C35.0001 4.63145 35.0001 4.13987 34.9661 3.72355C34.9288 3.26636 34.8406 2.7269 34.564 2.18405C34.1805 1.4314 33.5686 0.819478 32.816 0.435984C32.2731 0.159389 31.7337 0.0712544 31.2765 0.0339009C30.8602 -0.000113115 30.3686 -5.48343e-05 29.8638 5.00766e-06L24.1362 5.01088e-06ZM27.0168 14H29.8C30.9201 14 31.4802 14 31.908 13.782C32.2843 13.5903 32.5903 13.2843 32.782 12.908C33 12.4802 33 11.9201 33 10.8V5.20001C33 4.07991 33 3.51985 32.782 3.09203C32.5903 2.71571 32.2843 2.40974 31.908 2.218C31.4802 2.00001 30.9201 2.00001 29.8 2.00001H24.2C23.0799 2.00001 22.5199 2.00001 22.092 2.218C21.7157 2.40974 21.4097 2.71571 21.218 3.09203C21 3.51985 21 4.07991 21 5.20001V10.8C21 11.9201 21 12.4802 21.218 12.908C21.4097 13.2843 21.7157 13.5903 22.092 13.782C22.5199 14 23.0799 14 24.2 14H26.9808C26.9928 13.9998 27.0047 13.9998 27.0168 14Z" fill="white"/>
<path fill-rule="evenodd" clip-rule="evenodd" d="M14.668 26C14.668 27.6569 13.3248 29 11.668 29C10.0111 29 8.66797 27.6569 8.66797 26C8.66797 24.3431 10.0111 23 11.668 23C13.3248 23 14.668 24.3431 14.668 26ZM12.668 26C12.668 26.5523 12.2203 27 11.668 27C11.1157 27 10.668 26.5523 10.668 26C10.668 25.4477 11.1157 25 11.668 25C12.2203 25 12.668 25.4477 12.668 26Z" fill="white"/>
<path fill-rule="evenodd" clip-rule="evenodd" d="M23.668 29C25.3248 29 26.668 27.6569 26.668 26C26.668 24.3431 25.3248 23 23.668 23C22.0111 23 20.668 24.3431 20.668 26C20.668 27.6569 22.0111 29 23.668 29ZM23.668 27C24.2203 27 24.668 26.5523 24.668 26C24.668 25.4477 24.2203 25 23.668 25C23.1157 25 22.668 25.4477 22.668 26C22.668 26.5523 23.1157 27 23.668 27Z" fill="white"/>
</svg>
