<svg width="69" height="64" viewBox="0 0 69 64" fill="none" xmlns="http://www.w3.org/2000/svg">
<path d="M0 4C0 1.79086 1.79086 0 4 0H52C54.2091 0 56 1.79086 56 4V60C56 61.1046 55.1046 62 54 62H2C0.89543 62 0 61.1046 0 60L0 4Z" fill="#2A4455"/>
<path d="M50 28C50 40.1503 40.1503 50 28 50C15.8497 50 6 40.1503 6 28C6 15.8497 15.8497 6 28 6C40.1503 6 50 15.8497 50 28Z" fill="#92A7B3"/>
<path fill-rule="evenodd" clip-rule="evenodd" d="M28 48C39.0457 48 48 39.0457 48 28C48 16.9543 39.0457 8 28 8C16.9543 8 8 16.9543 8 28C8 39.0457 16.9543 48 28 48ZM28 50C40.1503 50 50 40.1503 50 28C50 15.8497 40.1503 6 28 6C15.8497 6 6 15.8497 6 28C6 40.1503 15.8497 50 28 50Z" fill="white"/>
<path d="M12 28.0001C12 24.9953 14.8786 22.8277 17.7664 23.6579L25.1526 25.7814C27.0132 26.3164 28.9868 26.3164 30.8474 25.7814L38.2336 23.6579C41.1214 22.8277 44 24.9953 44 28.0001C44 31.0049 41.1214 33.1725 38.2336 32.3422L30.8474 30.2187C28.9868 29.6838 27.0132 29.6838 25.1526 30.2187L17.7664 32.3422C14.8786 33.1725 12 31.0049 12 28.0001Z" fill="white"/>
<path d="M28.0007 12C31.0055 12 33.1731 14.8786 32.3428 17.7664L30.2193 25.1526C29.6844 27.0132 29.6844 28.9868 30.2193 30.8474L32.3428 38.2336C33.1731 41.1214 31.0055 44 28.0007 44C24.9959 44 22.8283 41.1214 23.6585 38.2336L25.782 30.8474C26.317 28.9868 26.317 27.0132 25.782 25.1526L23.6585 17.7664C22.8283 14.8786 24.9959 12 28.0007 12Z" fill="white"/>
<path d="M32 28C32 30.2091 30.2091 32 28 32C25.7909 32 24 30.2091 24 28C24 25.7909 25.7909 24 28 24C30.2091 24 32 25.7909 32 28Z" fill="#2A4455"/>
<path d="M5 60C5 58.8954 5.89543 58 7 58H19C20.1046 58 21 58.8954 21 60V62H5V60Z" fill="#92A7B3"/>
<path d="M33 60C33 58.8954 33.8954 58 35 58H47C48.1046 58 49 58.8954 49 60V62H33V60Z" fill="#92A7B3"/>
<mask id="mask0_1401_123690" style="mask-type:alpha" maskUnits="userSpaceOnUse" x="36" y="31" width="33" height="33">
<path d="M69 47.5C69 56.6127 61.6127 64 52.5 64C43.3873 64 36 56.6127 36 47.5C36 38.3873 43.3873 31 52.5 31C61.6127 31 69 38.3873 69 47.5Z" fill="#F5F5F5"/>
</mask>
<g mask="url(#mask0_1401_123690)">
<path fill-rule="evenodd" clip-rule="evenodd" d="M56 63.628C63.4315 62.0229 69 55.4117 69 47.5C69 38.3873 61.6127 31 52.5 31C43.3873 31 36 38.3873 36 47.5C36 55.4117 41.5685 62.0229 49 63.628V52.2618C46.0515 50.9517 44 48.0375 44 44.6527C44 41.2298 46.098 38.2881 49.1 37V43.3985C49.1 43.6668 49.2079 43.9239 49.3993 44.1119L51.7993 46.4688C52.1883 46.8508 52.8117 46.8508 53.2007 46.4688L55.6007 44.1119C55.7921 43.9239 55.9 43.6668 55.9 43.3985V37C58.902 38.2881 61 41.2298 61 44.6527C61 48.0375 58.9485 50.9517 56 52.2618V63.628Z" fill="white"/>
<path fill-rule="evenodd" clip-rule="evenodd" d="M52.5 63C61.0604 63 68 56.0604 68 47.5C68 38.9396 61.0604 32 52.5 32C43.9396 32 37 38.9396 37 47.5C37 56.0604 43.9396 63 52.5 63ZM52.5 64C61.6127 64 69 56.6127 69 47.5C69 38.3873 61.6127 31 52.5 31C43.3873 31 36 38.3873 36 47.5C36 56.6127 43.3873 64 52.5 64Z" fill="#D3D3D3"/>
<path fill-rule="evenodd" clip-rule="evenodd" d="M56 52.2618C58.9485 50.9517 61 48.0375 61 44.6527C61 41.2298 58.902 38.2881 55.9 37V43.3985C55.9 43.6668 55.7921 43.9239 55.6007 44.1119L53.2007 46.4688C52.8117 46.8508 52.1883 46.8508 51.7993 46.4688L49.3993 44.1119C49.2079 43.9239 49.1 43.6668 49.1 43.3985V37C46.098 38.2881 44 41.2298 44 44.6527C44 48.0375 46.0515 50.9517 49 52.2618V64H56V52.2618Z" fill="#2A4455"/>
</g>
</svg>
