<svg width="72" height="60" viewBox="0 0 72 60" fill="none" xmlns="http://www.w3.org/2000/svg">
<path d="M5 8C5 3.58172 8.58172 0 13 0H57C61.4183 0 65 3.58172 65 8V39C65 41.2091 63.2091 43 61 43H9C6.79086 43 5 41.2091 5 39V8Z" fill="#2A4455"/>
<path d="M5 8C5 3.58172 8.58172 0 13 0H57C61.4183 0 65 3.58172 65 8V18H32.4367C31.8432 18 31.2803 18.2636 30.9003 18.7196L27.0997 23.2804C26.7197 23.7364 26.1568 24 25.5632 24H5V8Z" fill="#92A7B3"/>
<path d="M50 49C50 46.8988 49.5861 44.8183 48.7821 42.8771C47.978 40.9359 46.7994 39.172 45.3137 37.6863C43.828 36.2006 42.0641 35.022 40.1229 34.2179C38.1817 33.4139 36.1011 33 34 33C31.8988 33 29.8183 33.4139 27.8771 34.2179C25.9359 35.022 24.172 36.2006 22.6863 37.6863C21.2006 39.172 20.022 40.9359 19.2179 42.8771C18.4139 44.8183 18 46.8989 18 49L50 49Z" fill="#92A7B3"/>
<path d="M45 49C45 55.0751 40.0751 60 34 60C27.9249 60 23 55.0751 23 49C23 42.9249 27.9249 38 34 38C40.0751 38 45 42.9249 45 49Z" fill="#2A4455"/>
<path d="M39 49C39 51.7614 36.7614 54 34 54C31.2386 54 29 51.7614 29 49C29 46.2386 31.2386 44 34 44C36.7614 44 39 46.2386 39 49Z" fill="white"/>
<path fill-rule="evenodd" clip-rule="evenodd" d="M34 52C35.6569 52 37 50.6569 37 49C37 47.3431 35.6569 46 34 46C32.3431 46 31 47.3431 31 49C31 50.6569 32.3431 52 34 52ZM34 54C36.7614 54 39 51.7614 39 49C39 46.2386 36.7614 44 34 44C31.2386 44 29 46.2386 29 49C29 51.7614 31.2386 54 34 54Z" fill="#D3D3D3"/>
<path d="M24 6C24.5523 6 25 6.44772 25 7C25 7.55229 24.5523 8 24 8L10 8C9.44771 8 9 7.55228 9 7C9 6.44771 9.44772 6 10 6L24 6Z" fill="#2A4455"/>
<path d="M24 10C24.5523 10 25 10.4477 25 11C25 11.5523 24.5523 12 24 12L10 12C9.44771 12 9 11.5523 9 11C9 10.4477 9.44772 10 10 10L24 10Z" fill="#2A4455"/>
<path d="M24 14C24.5523 14 25 14.4477 25 15C25 15.5523 24.5523 16 24 16L10 16C9.44771 16 9 15.5523 9 15C9 14.4477 9.44772 14 10 14L24 14Z" fill="#2A4455"/>
<path d="M9 24H11V43H9V24Z" fill="#92A7B3"/>
<path d="M13 24H15V43H13V24Z" fill="#92A7B3"/>
<mask id="mask0_1401_123644" style="mask-type:alpha" maskUnits="userSpaceOnUse" x="39" y="27" width="33" height="33">
<path d="M72 43.5C72 52.6127 64.6127 60 55.5 60C46.3873 60 39 52.6127 39 43.5C39 34.3873 46.3873 27 55.5 27C64.6127 27 72 34.3873 72 43.5Z" fill="#F5F5F5"/>
</mask>
<g mask="url(#mask0_1401_123644)">
<path fill-rule="evenodd" clip-rule="evenodd" d="M59 59.628C66.4315 58.0229 72 51.4117 72 43.5C72 34.3873 64.6127 27 55.5 27C46.3873 27 39 34.3873 39 43.5C39 51.4117 44.5685 58.0229 52 59.628V48.2618C49.0515 46.9517 47 44.0375 47 40.6527C47 37.2298 49.098 34.2881 52.1 33V39.3985C52.1 39.6668 52.2079 39.9239 52.3993 40.1119L54.7993 42.4688C55.1883 42.8508 55.8117 42.8508 56.2007 42.4688L58.6007 40.1119C58.7921 39.9239 58.9 39.6668 58.9 39.3985V33C61.902 34.2881 64 37.2298 64 40.6527C64 44.0375 61.9485 46.9517 59 48.2618V59.628Z" fill="white"/>
<path fill-rule="evenodd" clip-rule="evenodd" d="M55.5 59C64.0604 59 71 52.0604 71 43.5C71 34.9396 64.0604 28 55.5 28C46.9396 28 40 34.9396 40 43.5C40 52.0604 46.9396 59 55.5 59ZM55.5 60C64.6127 60 72 52.6127 72 43.5C72 34.3873 64.6127 27 55.5 27C46.3873 27 39 34.3873 39 43.5C39 52.6127 46.3873 60 55.5 60Z" fill="#D3D3D3"/>
<path fill-rule="evenodd" clip-rule="evenodd" d="M59 48.2618C61.9485 46.9517 64 44.0375 64 40.6527C64 37.2298 61.902 34.2881 58.9 33V39.3985C58.9 39.6668 58.7921 39.9239 58.6007 40.1119L56.2007 42.4688C55.8117 42.8508 55.1883 42.8508 54.7993 42.4688L52.3993 40.1119C52.2079 39.9239 52.1 39.6668 52.1 39.3985V33C49.098 34.2881 47 37.2298 47 40.6527C47 44.0375 49.0515 46.9517 52 48.2618V60H59V48.2618Z" fill="#2A4455"/>
</g>
<path fill-rule="evenodd" clip-rule="evenodd" d="M9 38C9 41.866 5.86599 45 2 45H0V41H2C3.65685 41 5 39.6569 5 38H9Z" fill="#2A4455"/>
</svg>
