<svg width="260" height="80" viewBox="0 0 260 80" fill="none" xmlns="http://www.w3.org/2000/svg">
<path d="M58.5148 70.8892C59.6401 70.8892 60.5877 70.5365 61.2984 69.8899C62.0091 69.2433 62.3644 68.4204 62.3644 67.3624C62.3644 66.3043 62.0091 65.4814 61.2984 64.8348C60.5877 64.1882 59.6993 63.8356 58.5148 63.8356H50.8154V70.8304H58.5148V70.8892ZM57.3895 50.081H50.8154V56.5468H57.3895C58.4555 56.5468 59.2847 56.2529 59.9362 55.6063C60.5877 54.9597 60.943 54.2544 60.943 53.2551C60.943 52.3146 60.5877 51.5505 59.9362 50.9039C59.2847 50.3749 58.4555 50.081 57.3895 50.081ZM66.6287 59.7797C69.9454 61.6607 71.6037 64.4234 71.6037 68.009C71.6037 71.1831 70.3599 73.7106 67.8724 75.7092C65.385 77.7077 62.3052 78.707 58.574 78.707H41.5762V42.2632H57.3895C61.0023 42.2632 64.0228 43.2624 66.5103 45.2022C68.9385 47.1419 70.1823 49.6695 70.1823 52.7849C70.123 55.6063 68.9977 57.9575 66.6287 59.7797Z" fill="#6E6259"/>
<path d="M84.456 50.081V59.4858H91.3855C92.6292 59.4858 93.7545 59.0156 94.7021 58.1339C95.6497 57.1934 96.0643 56.1353 96.0643 54.8422C96.0643 53.549 95.5905 52.4322 94.7021 51.5505C93.7545 50.61 92.6884 50.1985 91.3855 50.1985C91.3855 50.081 84.456 50.081 84.456 50.081ZM96.4197 78.7657L88.8387 66.7158H84.456V78.707H75.2168V42.2632H91.3855C95.2351 42.2632 98.4925 43.4388 101.217 45.9076C103.941 48.3176 105.244 51.3153 105.244 54.7834C105.244 57.017 104.534 59.0743 103.171 60.9553C101.809 62.8363 99.9732 64.3058 97.7226 65.3638L106.31 78.7657H96.4197Z" fill="#6E6259"/>
<path d="M120.05 70.7128H136.16V78.7657H110.752V42.2632H135.923V50.2573H120.05V56.3117H134.442V64.247H120.05V70.7128Z" fill="#6E6259"/>
<path d="M181.881 42.2632V78.7657H172.642V57.4873L162.218 73.0053H161.152L150.669 57.4873V78.7657H141.43V42.2632H150.669L161.685 58.4865L172.642 42.2632H181.881Z" fill="#6E6259"/>
<path d="M198.051 68.0676C200.006 70.0073 202.493 71.0066 205.455 71.0066C208.416 71.0066 210.903 70.0073 212.858 68.0676C214.812 66.1278 215.878 63.6003 215.878 60.4849C215.878 57.3695 214.872 54.9008 212.858 52.9022C210.903 50.9625 208.416 49.9632 205.455 49.9632C202.493 49.9632 200.006 50.9625 198.051 52.9022C196.097 54.842 195.031 57.3695 195.031 60.4849C195.031 63.5415 195.978 66.1278 198.051 68.0676ZM219.373 74.4158C215.582 78.1778 210.903 80 205.395 80C199.887 80 195.268 78.119 191.418 74.4158C187.628 70.6539 185.732 66.0103 185.732 60.4849C185.732 54.9596 187.628 50.3747 191.418 46.554C195.209 42.792 199.887 40.9698 205.395 40.9698C210.903 40.9698 215.523 42.8508 219.373 46.554C223.163 50.3159 225.058 54.9596 225.058 60.4849C225.058 66.0103 223.163 70.6539 219.373 74.4158Z" fill="#6E6259"/>
<path d="M238.145 50.081V59.4859H245.075C246.319 59.4859 247.444 59.0156 248.392 58.1339C249.339 57.1934 249.754 56.1354 249.754 54.8422C249.754 53.5491 249.28 52.4322 248.392 51.5505C247.444 50.61 246.378 50.1986 245.075 50.1986C245.075 50.081 238.145 50.081 238.145 50.081ZM250.168 78.7658L242.528 66.7746H238.145V78.7658H228.906V42.322H245.075C248.925 42.322 252.182 43.4976 254.906 45.9664C257.631 48.3764 258.934 51.3742 258.934 54.8422C258.934 57.0759 258.223 59.1332 256.861 61.0142C255.499 62.8951 253.663 64.3646 251.412 65.4227L260 78.8246L250.168 78.7658Z" fill="#6E6259"/>
<path d="M30.1465 23.5124L39.8595 31.5653C41.5771 28.4499 42.6431 24.9819 42.6431 21.22L30.1465 23.5124Z" fill="#C00D1E"/>
<path d="M14.8054 14.8711L10.4226 2.99744C7.16523 4.87841 4.55929 7.5823 2.66406 10.7564L14.8054 14.8711Z" fill="#C00D1E"/>
<path d="M18.8925 12.579L21.3208 0.0587804L23.6306 12.2851L31.8037 2.76267C28.6648 0.999265 25.1112 0 21.3208 0C17.3526 0 13.6214 1.11683 10.4824 2.99779L18.8925 12.579Z" fill="#C00D1E"/>
<path d="M29.9102 18.8096L42.5253 21.1608C42.5253 17.2226 41.4 13.5194 39.5047 10.4041L29.9102 18.8096Z" fill="#C00D1E"/>
<path d="M27.6602 14.7539L39.6238 10.4041C37.7285 7.17122 35.0042 4.58488 31.806 2.7627L27.6602 14.7539Z" fill="#C00D1E"/>
<path d="M12.3782 18.8689L2.78361 10.7572C0.947613 13.8726 0 17.3406 0 21.1613L12.3782 18.8689Z" fill="#C00D1E"/>
<path d="M27.7773 27.4507L32.1601 39.3831C35.4175 37.5021 38.0234 34.7982 39.8594 31.6241L27.7773 27.4507Z" fill="#C00D1E"/>
<path d="M23.6903 29.7433L21.3213 42.2047L19.0115 29.9784L10.8383 39.5596L14.9249 27.5684L3.02052 31.977L12.6743 23.5126L0 21.1614C0 32.8587 9.53536 42.2635 21.2621 42.2635C25.2302 42.2635 28.9614 41.1467 32.1004 39.2657L23.6903 29.7433Z" fill="#C00D1E"/>
</svg>
