<svg width="24" height="24" viewBox="0 0 24 24" fill="none" xmlns="http://www.w3.org/2000/svg">
<path fill-rule="evenodd" clip-rule="evenodd" d="M14.6291 16.3571C13.3155 17.3184 11.6955 17.886 9.94299 17.886C5.5562 17.886 2 14.3298 2 9.94299C2 5.5562 5.5562 2 9.94299 2C14.3298 2 17.886 5.5562 17.886 9.94299C17.886 11.6954 17.3185 13.3153 16.3572 14.6289L21.6423 19.9139C22.1195 20.3911 22.1195 21.1649 21.6423 21.6421C21.165 22.1193 20.3913 22.1193 19.9141 21.6421L14.6291 16.3571ZM15.886 9.94299C15.886 13.2252 13.2252 15.886 9.94299 15.886C6.66077 15.886 4 13.2252 4 9.94299C4 6.66077 6.66077 4 9.94299 4C13.2252 4 15.886 6.66077 15.886 9.94299Z" fill="white"/>
</svg>
