<svg width="61" height="60" viewBox="0 0 61 60" fill="none" xmlns="http://www.w3.org/2000/svg">
<path d="M23 3H25V57H23V3Z" fill="#2A4455"/>
<path d="M8 7V3C8 1.89543 8.89543 1 10 1H38C39.1046 1 40 1.89543 40 3V7H38V4C38 3.44772 37.5523 3 37 3L11 3C10.4477 3 10 3.44772 10 4L10 7H8Z" fill="#2A4455"/>
<path d="M40 53L40 57C40 58.1046 39.1046 59 38 59L10 59C8.89543 59 8 58.1046 8 57L8 53L10 53L10 56C10 56.5523 10.4477 57 11 57L37 57C37.5523 57 38 56.5523 38 56L38 53L40 53Z" fill="#2A4455"/>
<path d="M30 13L30 23L18 23L18 13L30 13Z" fill="#92A7B3"/>
<path fill-rule="evenodd" clip-rule="evenodd" d="M2 7C0.895431 7 0 7.89543 0 9V51C0 52.1046 0.89543 53 2 53H16C17.1046 53 18 52.1046 18 51V9C18 7.89543 17.1046 7 16 7H2ZM9 22C11.2091 22 13 20.2091 13 18C13 15.7909 11.2091 14 9 14C6.79086 14 5 15.7909 5 18C5 20.2091 6.79086 22 9 22Z" fill="#2A4455"/>
<path fill-rule="evenodd" clip-rule="evenodd" d="M32 7C30.8954 7 30 7.89543 30 9V51C30 52.1046 30.8954 53 32 53H46C47.1046 53 48 52.1046 48 51V9C48 7.89543 47.1046 7 46 7H32ZM39 22C41.2091 22 43 20.2091 43 18C43 15.7909 41.2091 14 39 14C36.7909 14 35 15.7909 35 18C35 20.2091 36.7909 22 39 22Z" fill="#2A4455"/>
<path d="M20 15H28V21H20V15Z" fill="white"/>
<path d="M19 1C19 0.447715 19.4477 0 20 0H28C28.5523 0 29 0.447715 29 1V3C29 3.55228 28.5523 4 28 4H20C19.4477 4 19 3.55228 19 3V1Z" fill="#92A7B3"/>
<path d="M29 59C29 59.5523 28.5523 60 28 60L20 60C19.4477 60 19 59.5523 19 59L19 57C19 56.4477 19.4477 56 20 56L28 56C28.5523 56 29 56.4477 29 57L29 59Z" fill="#92A7B3"/>
<mask id="mask0_1401_122270" style="mask-type:alpha" maskUnits="userSpaceOnUse" x="28" y="27" width="33" height="33">
<path d="M61 43.5C61 52.6127 53.6127 60 44.5 60C35.3873 60 28 52.6127 28 43.5C28 34.3873 35.3873 27 44.5 27C53.6127 27 61 34.3873 61 43.5Z" fill="#F5F5F5"/>
</mask>
<g mask="url(#mask0_1401_122270)">
<path fill-rule="evenodd" clip-rule="evenodd" d="M48 59.628C55.4315 58.0229 61 51.4117 61 43.5C61 34.3873 53.6127 27 44.5 27C35.3873 27 28 34.3873 28 43.5C28 51.4117 33.5685 58.0229 41 59.628V48.2618C38.0515 46.9517 36 44.0375 36 40.6527C36 37.2298 38.098 34.2881 41.1 33V39.3985C41.1 39.6668 41.2079 39.9239 41.3993 40.1119L43.7993 42.4688C44.1883 42.8508 44.8117 42.8508 45.2007 42.4688L47.6007 40.1119C47.7921 39.9239 47.9 39.6668 47.9 39.3985V33C50.902 34.2881 53 37.2298 53 40.6527C53 44.0375 50.9485 46.9517 48 48.2618V59.628Z" fill="white"/>
<path fill-rule="evenodd" clip-rule="evenodd" d="M44.5 59C53.0604 59 60 52.0604 60 43.5C60 34.9396 53.0604 28 44.5 28C35.9396 28 29 34.9396 29 43.5C29 52.0604 35.9396 59 44.5 59ZM44.5 60C53.6127 60 61 52.6127 61 43.5C61 34.3873 53.6127 27 44.5 27C35.3873 27 28 34.3873 28 43.5C28 52.6127 35.3873 60 44.5 60Z" fill="#92A7B3"/>
<path fill-rule="evenodd" clip-rule="evenodd" d="M48 48.2618C50.9485 46.9517 53 44.0375 53 40.6527C53 37.2298 50.902 34.2881 47.9 33V39.3985C47.9 39.6668 47.7921 39.9239 47.6007 40.1119L45.2007 42.4688C44.8117 42.8508 44.1883 42.8508 43.7993 42.4688L41.3993 40.1119C41.2079 39.9239 41.1 39.6668 41.1 39.3985V33C38.098 34.2881 36 37.2298 36 40.6527C36 44.0375 38.0515 46.9517 41 48.2618V60H48V48.2618Z" fill="#2A4455"/>
</g>
</svg>
