<svg width="70" height="60" viewBox="0 0 70 60" fill="none" xmlns="http://www.w3.org/2000/svg">
<path fill-rule="evenodd" clip-rule="evenodd" d="M56.7016 8H69C69.5523 8 70 8.44772 70 9C70 9.55228 69.5523 10 69 10H57.2984L27.9704 29.2149L16.6748 21H1C0.447715 21 0 20.5523 0 20C0 19.4477 0.447715 19 1 19H17.3252L28.0296 26.7851L56.7016 8Z" fill="#D3D3D3"/>
<path d="M20 20C20 21.6569 18.6569 23 17 23C15.3431 23 14 21.6569 14 20C14 18.3431 15.3431 17 17 17C18.6569 17 20 18.3431 20 20Z" fill="#92A7B3"/>
<path d="M32 28C32 30.2091 30.2091 32 28 32C25.7909 32 24 30.2091 24 28C24 25.7909 25.7909 24 28 24C30.2091 24 32 25.7909 32 28Z" fill="#92A7B3"/>
<path d="M42 20C42 21.6569 40.6569 23 39 23C37.3431 23 36 21.6569 36 20C36 18.3431 37.3431 17 39 17C40.6569 17 42 18.3431 42 20Z" fill="#92A7B3"/>
<path d="M61 9C61 11.2091 59.2091 13 57 13C54.7909 13 53 11.2091 53 9C53 6.79086 54.7909 5 57 5C59.2091 5 61 6.79086 61 9Z" fill="#92A7B3"/>
<path fill-rule="evenodd" clip-rule="evenodd" d="M29 42C38.9411 42 47 33.9411 47 24C47 14.0589 38.9411 6 29 6C19.0589 6 11 14.0589 11 24C11 33.9411 19.0589 42 29 42ZM29 48C42.2548 48 53 37.2548 53 24C53 10.7452 42.2548 0 29 0C15.7452 0 5 10.7452 5 24C5 37.2548 15.7452 48 29 48Z" fill="#2A4455"/>
<path d="M41 40.2422L45.2426 35.9995L65.0002 55.7571L60.7576 59.9998L41 40.2422Z" fill="#2A4455"/>
</svg>
