<svg width="58" height="58" viewBox="0 0 58 58" fill="none" xmlns="http://www.w3.org/2000/svg">
<path d="M9 4.27598C9 1.91449 10.9144 0.00012207 13.2759 0.00012207H44.7241C47.0856 0.00012207 49 1.91449 49 4.27598V19.7243C49 22.0858 47.0856 24.0001 44.7241 24.0001H13.2759C10.9144 24.0001 9 22.0858 9 19.7243V4.27598Z" fill="#F5F5F5"/>
<path fill-rule="evenodd" clip-rule="evenodd" d="M44.7241 2.00012H13.2759C12.0189 2.00012 11 3.01906 11 4.27598V19.7243C11 20.9812 12.0189 22.0001 13.2759 22.0001H44.7241C45.9811 22.0001 47 20.9812 47 19.7243V4.27598C47 3.01906 45.9811 2.00012 44.7241 2.00012ZM13.2759 0.00012207C10.9144 0.00012207 9 1.91449 9 4.27598V19.7243C9 22.0858 10.9144 24.0001 13.2759 24.0001H44.7241C47.0856 24.0001 49 22.0858 49 19.7243V4.27598C49 1.91449 47.0856 0.00012207 44.7241 0.00012207H13.2759Z" fill="#BC0000"/>
<path d="M16 8.00012C16 7.44784 16.4477 7.00012 17 7.00012H41C41.5523 7.00012 42 7.44784 42 8.00012C42 8.55241 41.5523 9.00012 41 9.00012H17C16.4477 9.00012 16 8.55241 16 8.00012Z" fill="#2A4455"/>
<path d="M16 12.0001C16 11.4478 16.4477 11.0001 17 11.0001H41C41.5523 11.0001 42 11.4478 42 12.0001C42 12.5524 41.5523 13.0001 41 13.0001H17C16.4477 13.0001 16 12.5524 16 12.0001Z" fill="#2A4455"/>
<path d="M16 16.0001C16 15.4478 16.4477 15.0001 17 15.0001H35C35.5523 15.0001 36 15.4478 36 16.0001C36 16.5524 35.5523 17.0001 35 17.0001H17C16.4477 17.0001 16 16.5524 16 16.0001Z" fill="#2A4455"/>
<path fill-rule="evenodd" clip-rule="evenodd" d="M2.13793 40.0001C0.957184 40.0001 0 40.9573 0 42.1381V55.8622C0 57.0429 0.957184 58.0001 2.13793 58.0001H15.8621C17.0428 58.0001 18 57.0429 18 55.8622V42.1381C18 40.9573 17.0428 40.0001 15.8621 40.0001H2.13793ZM10.6468 50.7877L11.4923 53.0002H13.0001L9.78945 45.0002H8.21665L5.0001 53.0002H6.49603L7.34156 50.7877H10.6468ZM9.45834 47.4852L10.2802 49.6651H7.73772L8.56551 47.4852C8.5931 47.398 8.63252 47.2745 8.68376 47.1147C8.73895 46.9548 8.79414 46.7841 8.84932 46.6024C8.90845 46.4171 8.95772 46.25 8.99714 46.101C9.03656 46.2246 9.08583 46.3772 9.14496 46.5588C9.20409 46.7368 9.26322 46.913 9.32234 47.0874C9.38147 47.2582 9.4268 47.3908 9.45834 47.4852Z" fill="#BC0000"/>
<path fill-rule="evenodd" clip-rule="evenodd" d="M22.1379 40.0001C20.9572 40.0001 20 40.9573 20 42.1381V55.8622C20 57.0429 20.9572 58.0001 22.1379 58.0001H35.8621C37.0428 58.0001 38 57.0429 38 55.8622V42.1381C38 40.9573 37.0428 40.0001 35.8621 40.0001H22.1379ZM28.4903 45.0002H25.9999V53.0002H29.0056C29.6201 53.0002 30.1506 52.9108 30.5972 52.7321C31.0476 52.5533 31.393 52.2925 31.6334 51.9496C31.8777 51.6067 31.9999 51.1908 31.9999 50.702C31.9999 50.2898 31.9254 49.9542 31.7766 49.6952C31.6315 49.4362 31.4312 49.2373 31.1754 49.0987C30.9235 48.9601 30.6354 48.8634 30.3109 48.8087V48.754C30.6239 48.6993 30.8873 48.5935 31.101 48.4366C31.3147 48.2761 31.477 48.0736 31.5876 47.8292C31.7021 47.5812 31.7594 47.3039 31.7594 46.9975C31.7594 46.2642 31.4846 45.7481 30.935 45.4489C30.3854 45.1498 29.5705 45.0002 28.4903 45.0002ZM28.6907 48.2998H27.3739V46.0891H28.5647C29.1831 46.0891 29.6334 46.173 29.9159 46.3408C30.2021 46.5087 30.3453 46.7823 30.3453 47.1616C30.3453 47.5337 30.225 47.8165 29.9846 48.0098C29.7441 48.2031 29.3128 48.2998 28.6907 48.2998ZM27.3739 51.9004V49.3614H28.7537C29.2002 49.3614 29.5552 49.4124 29.8186 49.5146C30.0819 49.6131 30.2708 49.7535 30.3854 49.9359C30.5037 50.1183 30.5628 50.3336 30.5628 50.5816C30.5628 50.9865 30.4331 51.3076 30.1735 51.5447C29.914 51.7818 29.4636 51.9004 28.8224 51.9004H27.3739Z" fill="#92A7B3"/>
<path fill-rule="evenodd" clip-rule="evenodd" d="M42.1379 40.0001C40.9572 40.0001 40 40.9573 40 42.1381V55.8622C40 57.0429 40.9572 58.0001 42.1379 58.0001H55.8621C57.0428 58.0001 58 57.0429 58 55.8622V42.1381C58 40.9573 57.0428 40.0001 55.8621 40.0001H42.1379ZM48.7345 46.2883C49.0342 46.1535 49.3735 46.086 49.7526 46.086C50.0739 46.086 50.3843 46.1322 50.684 46.2244C50.9836 46.3167 51.2706 46.4267 51.545 46.5544L51.9999 45.5006C51.6713 45.3409 51.3139 45.2185 50.9277 45.1333C50.545 45.0446 50.1551 45.0002 49.758 45.0002C49.1551 45.0002 48.619 45.0978 48.1497 45.293C47.684 45.4846 47.2923 45.7596 46.9746 46.118C46.6569 46.4728 46.415 46.8951 46.249 47.3848C46.0829 47.8745 45.9999 48.4138 45.9999 49.0029C45.9999 49.8084 46.1298 50.511 46.3897 51.1107C46.6533 51.7104 47.0504 52.1752 47.5811 52.5052C48.1154 52.8352 48.7869 53.0002 49.5955 53.0002C50.0251 53.0002 50.4042 52.9718 50.7327 52.9151C51.0612 52.8583 51.3861 52.7678 51.7074 52.6436V51.5578C51.3681 51.6678 51.0396 51.7547 50.7219 51.8186C50.4042 51.8825 50.0775 51.9144 49.7417 51.9144C49.2002 51.9144 48.7526 51.7991 48.3988 51.5684C48.045 51.3342 47.7814 51.0007 47.6082 50.5678C47.4349 50.1313 47.3482 49.6114 47.3482 49.0082C47.3482 48.5575 47.4024 48.153 47.5107 47.7946C47.619 47.4327 47.776 47.1257 47.9818 46.8738C48.1876 46.6183 48.4385 46.4232 48.7345 46.2883Z" fill="#92A7B3"/>
<path d="M28 33.0001H30V40.0001H28V33.0001Z" fill="#D3D3D3"/>
<path fill-rule="evenodd" clip-rule="evenodd" d="M28 33.0001H46C47.1046 33.0001 48 33.8956 48 35.0001V40.0001H50V35.0001C50 32.791 48.2091 31.0001 46 31.0001H28V33.0001Z" fill="#D9D9D9"/>
<path d="M30 24.0001H28V30.0001C28 30.5524 27.5523 31.0001 27 31.0001H12C9.79086 31.0001 8 32.791 8 35.0001V40.0001H10V35.0001C10 33.8956 10.8954 33.0001 12 33.0001H28C29.1046 33.0001 30 32.1047 30 31.0001V24.0001Z" fill="#BC0000"/>
</svg>
