<svg width="64" height="67" viewBox="0 0 64 67" fill="none" xmlns="http://www.w3.org/2000/svg">
<path d="M12 8H32V36C32 36 30 38 22 38C14 38 12 36 12 36V8Z" fill="#2A4455"/>
<path d="M32 8C32 9.10457 27.5228 10 22 10C16.4772 10 12 9.10457 12 8C12 6.89543 16.4772 6 22 6C27.5228 6 32 6.89543 32 8Z" fill="#D3D3D3"/>
<path d="M19 3C19 1.34315 20.3431 0 22 0C23.6569 0 25 1.34315 25 3V8C25 8 24.5 9 22 9C19.5 9 19 8 19 8V3Z" fill="#2A4455"/>
<path fill-rule="evenodd" clip-rule="evenodd" d="M37.9499 12C37.5357 12 37.1999 12.3358 37.1999 12.75V13.3208C37.1999 13.9587 36.7694 14.5117 36.18 14.7555C35.5918 14.9989 34.9072 14.9071 34.4571 14.457L33.9598 13.9598C33.6669 13.6669 33.192 13.6669 32.8992 13.9598L30 16.8589C29.7071 17.1518 29.7071 17.6267 30 17.9196L30.4623 18.3818C30.9257 18.8452 31.0179 19.5507 30.7658 20.1556C30.5144 20.7587 29.948 21.2001 29.2945 21.2001H28.75C28.3358 21.2001 28 21.5359 28 21.9501L28 26.0501C28 26.4643 28.3358 26.8001 28.75 26.8001H29.3209C29.9588 26.8001 30.5119 27.2306 30.7557 27.82C30.999 28.4082 30.9073 29.0928 30.4572 29.5429L29.9599 30.0402C29.667 30.3331 29.667 30.808 29.9599 31.1008L32.8591 34C33.152 34.2929 33.6268 34.2929 33.9197 34L34.3821 33.5377C34.8454 33.0743 35.5508 32.9821 36.1556 33.2342C36.7587 33.4856 37.1999 34.0519 37.1999 34.7053V35.25C37.1999 35.6642 37.5357 36 37.9499 36H42.0499C42.4641 36 42.7999 35.6642 42.7999 35.25V34.7056C42.7999 34.0521 43.2413 33.4857 43.8445 33.2343C44.4494 32.9822 45.1549 33.0744 45.6183 33.5378L45.9099 33.8295C46.2028 34.1224 46.6777 34.1223 46.9706 33.8295L49.8697 30.9303C50.1626 30.6374 50.1626 30.1626 49.8697 29.8697L49.543 29.543C49.0929 29.0929 49.0012 28.4083 49.2445 27.8201C49.4884 27.2306 50.0414 26.8001 50.6793 26.8001H51.25C51.6642 26.8001 52 26.4643 52 26.0501V21.9501C52 21.5359 51.6642 21.2001 51.25 21.2001H50.7057C50.0523 21.2001 49.4859 20.7587 49.2344 20.1555C48.9823 19.5507 49.0746 18.8452 49.5379 18.3818L49.8296 18.0901C50.1225 17.7972 50.1225 17.3223 49.8296 17.0294L46.9305 14.1303C46.6376 13.8374 46.1627 13.8374 45.8698 14.1303L45.5432 14.4569C45.093 14.9071 44.4084 14.9988 43.8201 14.7555C43.2305 14.5116 42.7999 13.9584 42.7999 13.3204V12.75C42.7999 12.3358 42.4641 12 42.0499 12H37.9499ZM40 30C43.3137 30 46 27.3137 46 24C46 20.6863 43.3137 18 40 18C36.6863 18 34 20.6863 34 24C34 27.3137 36.6863 30 40 30Z" fill="#D3D3D3"/>
<path d="M6 27L32 28V67L6 64.5V27Z" fill="#2A4455"/>
<path d="M58 27L32 28V67L58 64.5V27Z" fill="#071C28"/>
<path d="M6 27L32 28L27 42L0 40L6 27Z" fill="#697F8C"/>
<path d="M58 27L32 28L37 42L64 40L58 27Z" fill="#2A4455"/>
<path d="M15.9717 44.1973L12.3204 44.1324L12.2555 47.7838L15.9069 47.8486L15.9717 44.1973Z" fill="white"/>
<path d="M24.0795 50.4074C24.0339 52.9754 22.4284 55.1453 20.1809 56.0361C19.4445 56.3269 18.6393 56.4835 17.7991 56.4686L15.9004 56.4349L15.833 60.2323L12.103 56.3674L12.2379 48.7726L16.0353 48.8401L15.9679 52.6375L17.8666 52.6712C19.1767 52.6945 20.2588 51.6501 20.2821 50.34C20.3054 49.0299 19.261 47.9477 17.9509 47.9245L17.0015 47.9076L17.069 44.1102L18.0184 44.1271C19.243 44.1488 20.3759 44.5251 21.3238 45.1592C23.0179 46.2861 24.1183 48.2239 24.0795 50.4074Z" fill="white"/>
</svg>
