<svg width="140" height="48" viewBox="0 0 140 48" fill="none" xmlns="http://www.w3.org/2000/svg">
<path fill-rule="evenodd" clip-rule="evenodd" d="M69.9996 43.8838C68.4975 43.8838 67.7254 42.9043 67.7254 42.9043C66.4909 42.8506 56.8427 42.8774 56.8427 42.8774L55.9034 34.9489C55.9034 34.9489 49.9609 30.7602 49.4778 30.2771C46.6253 17.3366 56.9357 5 70 5C83.0643 5 93.3747 17.3366 90.5222 30.2771C90.0391 30.7602 84.0966 34.9489 84.0966 34.9489L83.1573 42.8774C83.1573 42.8774 73.5091 42.8506 72.2746 42.9043C72.2746 42.9043 71.5025 43.8838 69.9996 43.8838Z" fill="#ED1C24"/>
<path fill-rule="evenodd" clip-rule="evenodd" d="M70.0139 31.8264L69.1023 8.93992C68.0028 8.71554 65.1981 8.98479 63.6948 10.1067L68.0701 31.9162L62.1017 11.0042C60.6709 10.9866 57.7837 13.4059 57.5693 14.123L66.2751 32.679L56.4923 15.7161C55.5274 16.0751 53.4183 19.9568 53.7549 20.4079L64.6596 33.7561L53.4407 22.3577C53.4407 22.3577 51.9823 24.579 52.9334 28.3416L59.2703 32.9178L60.0637 39.1699H67.833C67.833 39.1699 69.1041 40.3748 70.006 40.3748C70.9078 40.3748 72.1789 39.1699 72.1789 39.1699H79.9482L80.7416 32.9178L87.0785 28.3416C88.0296 24.579 86.5712 22.3577 86.5712 22.3577L75.3523 33.7561L86.257 20.4079C86.5936 19.9568 84.4845 16.0751 83.5196 15.7161L73.7368 32.679L82.4426 14.123C82.2282 13.4059 79.341 10.9866 77.9102 11.0042L71.9418 31.9162L76.3171 10.1067C74.8138 8.98479 72.0091 8.71554 70.9096 8.93992L70.0139 31.8264Z" fill="#FFD500"/>
</svg>
