<svg width="40" height="40" viewBox="0 0 40 40" fill="none" xmlns="http://www.w3.org/2000/svg">
<path d="M29.9951 25.9501L27.0593 25.9891C27.0593 25.9891 26.426 26.1076 25.5978 25.5616C24.4992 24.8416 23.4636 22.9681 22.6558 23.2111C21.837 23.4601 21.8621 25.1461 21.8621 25.1461C21.8621 25.1461 21.8684 25.4431 21.6814 25.6366C21.4786 25.8451 21.081 25.8241 21.081 25.8241H19.7656C19.7656 25.8241 16.8645 26.0536 14.3075 23.5096C11.5227 20.736 9.06156 15.2623 9.06156 15.2623C9.06156 15.2623 8.91697 14.9173 9.07098 14.7403C9.24543 14.5453 9.71533 14.5393 9.71533 14.5393L12.8585 14.5243C12.8585 14.5243 13.154 14.5738 13.3677 14.7238C13.5421 14.8468 13.6412 15.0778 13.6412 15.0778C13.6412 15.0778 14.1488 16.3064 14.823 17.4194C16.1368 19.5885 16.7466 20.064 17.1929 19.8315C17.8436 19.4925 17.6487 16.7654 17.6487 16.7654C17.6487 16.7654 17.6613 15.7754 17.3218 15.3343C17.0578 14.9908 16.5612 14.8888 16.3443 14.8633C16.1667 14.8408 16.4559 14.4478 16.833 14.2708C17.3988 14.0068 18.3983 13.9918 19.5786 14.0023C20.498 14.0113 20.7636 14.0653 21.1219 14.1493C22.2063 14.3998 21.8385 15.3658 21.8385 17.6834C21.8385 18.4259 21.6987 19.47 22.2581 19.8135C22.5002 19.962 23.0895 19.836 24.5589 17.4449C25.2583 16.3109 25.7816 14.9788 25.7816 14.9788C25.7816 14.9788 25.8964 14.7418 26.074 14.6398C26.2563 14.5348 26.5014 14.5678 26.5014 14.5678L29.8096 14.5483C29.8096 14.5483 30.8029 14.4343 30.9647 14.8648C31.1345 15.3148 30.5938 16.3664 29.2423 18.0869C27.0232 20.913 26.7765 20.6505 28.6199 22.2855C30.3801 23.8471 30.7431 24.6061 30.8044 24.7021C31.5321 25.8586 29.9951 25.9501 29.9951 25.9501Z" fill="white"/>
<rect x="0.5" y="0.5" width="39" height="39" rx="4.5" stroke="#D3D3D3"/>
</svg>
