<svg width="40" height="40" viewBox="0 0 40 40" fill="none" xmlns="http://www.w3.org/2000/svg">
<g opacity="0.5">
<path d="M19.9982 10C23.0342 10 25.5023 12.3659 25.5023 15.2734C25.5023 18.1808 23.0329 20.5419 19.9982 20.5419C16.9636 20.5419 14.4967 18.1772 14.4967 15.2709C14.4967 12.3635 16.9636 9.99875 19.9982 10ZM19.9982 13.1494C18.7784 13.1494 17.7864 14.1009 17.7864 15.2709C17.7864 16.4397 18.7784 17.3901 19.9982 17.3901C21.2194 17.3901 22.2126 16.4397 22.2126 15.2709C22.2126 14.1009 21.2194 13.1494 19.9982 13.1494ZM15.8192 20.5858C16.0202 20.6171 16.2169 20.6876 16.4002 20.7982C18.5881 22.1182 21.4108 22.1182 23.6014 20.7982C24.3333 20.3557 25.2991 20.5669 25.7597 21.2694C26.2189 21.9719 26.0011 22.9009 25.2679 23.3421C24.3011 23.9234 23.2497 24.3351 22.1616 24.5726L25.1532 27.4388C25.7651 28.0238 25.7651 28.9741 25.1532 29.5603C24.5413 30.1466 23.5507 30.1466 22.9388 29.5603L20.0008 26.7454L17.0627 29.5603C16.7561 29.8541 16.3548 29.9998 15.9543 29.9998C15.5538 29.9998 15.155 29.8541 14.8484 29.5603C14.2365 28.9753 14.2353 28.0226 14.8458 27.4363L17.8374 24.5726C16.748 24.3351 15.6979 23.9209 14.7312 23.3397C13.9993 22.8984 13.7801 21.9719 14.2419 21.2694C14.5873 20.7425 15.2164 20.4918 15.8192 20.5858Z" fill="#D3D3D3"/>
<path d="M2.73005 39.455L3.18404 38.564L2.73005 39.455ZM0.544967 37.27L1.43597 36.816H1.43597L0.544967 37.27ZM39.455 37.27L38.564 36.816L39.455 37.27ZM37.27 39.455L37.7239 40.346L37.27 39.455ZM37.27 0.544967L36.816 1.43597L37.27 0.544967ZM39.455 2.73005L38.564 3.18404L39.455 2.73005ZM2.73005 0.544967L3.18404 1.43597L2.73005 0.544967ZM8 1H32V-1H8V1ZM39 8V32H41V8H39ZM32 39H8V41H32V39ZM1 32V8H-1V32H1ZM8 39C6.58337 39 5.58104 38.9992 4.79744 38.9352C4.02552 38.8721 3.55435 38.7527 3.18404 38.564L2.27606 40.346C2.9753 40.7023 3.73898 40.8554 4.63458 40.9286C5.51851 41.0008 6.61637 41 8 41V39ZM-1 32C-1 33.3836 -1.00078 34.4815 -0.928558 35.3654C-0.855384 36.261 -0.702323 37.0247 -0.346039 37.7239L1.43597 36.816C1.24729 36.4457 1.12787 35.9745 1.0648 35.2026C1.00078 34.419 1 33.4166 1 32H-1ZM3.18404 38.564C2.43139 38.1805 1.81947 37.5686 1.43597 36.816L-0.346039 37.7239C0.229201 38.8529 1.14708 39.7708 2.27606 40.346L3.18404 38.564ZM39 32C39 33.4166 38.9992 34.419 38.9352 35.2026C38.8721 35.9745 38.7527 36.4457 38.564 36.816L40.346 37.7239C40.7023 37.0247 40.8554 36.261 40.9286 35.3654C41.0008 34.4815 41 33.3836 41 32H39ZM32 41C33.3836 41 34.4815 41.0008 35.3654 40.9286C36.261 40.8554 37.0247 40.7023 37.7239 40.346L36.816 38.564C36.4457 38.7527 35.9745 38.8721 35.2026 38.9352C34.419 38.9992 33.4166 39 32 39V41ZM38.564 36.816C38.1805 37.5686 37.5686 38.1805 36.816 38.564L37.7239 40.346C38.8529 39.7708 39.7708 38.8529 40.346 37.7239L38.564 36.816ZM32 1C33.4166 1 34.419 1.00078 35.2026 1.0648C35.9745 1.12787 36.4457 1.24729 36.816 1.43597L37.7239 -0.346039C37.0247 -0.702323 36.261 -0.855384 35.3654 -0.928558C34.4815 -1.00078 33.3836 -1 32 -1V1ZM41 8C41 6.61637 41.0008 5.51851 40.9286 4.63458C40.8554 3.73898 40.7023 2.9753 40.346 2.27606L38.564 3.18404C38.7527 3.55435 38.8721 4.02552 38.9352 4.79744C38.9992 5.58104 39 6.58337 39 8H41ZM36.816 1.43597C37.5686 1.81947 38.1805 2.43139 38.564 3.18404L40.346 2.27606C39.7708 1.14708 38.8529 0.229201 37.7239 -0.346039L36.816 1.43597ZM8 -1C6.61637 -1 5.51851 -1.00078 4.63458 -0.928558C3.73898 -0.855384 2.9753 -0.702323 2.27606 -0.346039L3.18404 1.43597C3.55435 1.24729 4.02552 1.12787 4.79744 1.0648C5.58104 1.00078 6.58337 1 8 1V-1ZM1 8C1 6.58337 1.00078 5.58104 1.0648 4.79744C1.12787 4.02552 1.24729 3.55435 1.43597 3.18404L-0.346039 2.27606C-0.702323 2.9753 -0.855384 3.73898 -0.928558 4.63458C-1.00078 5.51851 -1 6.61637 -1 8H1ZM2.27606 -0.346039C1.14708 0.229201 0.229201 1.14708 -0.346039 2.27606L1.43597 3.18404C1.81947 2.43139 2.43139 1.81947 3.18404 1.43597L2.27606 -0.346039Z" fill="#D3D3D3"/>
</g>
</svg>
