<svg width="140" height="48" viewBox="0 0 140 48" fill="none" xmlns="http://www.w3.org/2000/svg">
<path d="M97.3984 16.5737C98.2942 16.5737 98.9034 16.5304 99.5047 16.5818C101.135 16.7213 101.82 17.4359 101.846 19.0511C101.874 20.8088 101.852 22.5676 102.169 24.3855C102.529 23.4897 102.899 22.5975 103.246 21.6969C103.578 20.8354 103.875 19.9607 104.21 19.1003C105.097 16.8222 106.034 16.3321 108.832 16.7827C108.908 19.161 108.985 21.5811 109.063 24.0012C109.196 24.0186 109.33 24.0364 109.463 24.0538C110 22.6049 110.553 21.162 111.069 19.7058C112.121 16.7368 113.059 16.2042 116.518 16.7719C115.632 18.8958 114.763 20.9908 113.884 23.0821C113.145 24.8416 112.333 26.5737 111.67 28.361C111.061 30.0033 109.911 30.6432 108.251 30.5769C107.648 30.5529 107.046 30.5181 106.338 30.483C106.182 28.0902 106.032 25.8033 105.883 23.5159C105.807 23.5071 105.731 23.4982 105.656 23.4893C105.035 25.0831 104.418 26.6784 103.793 28.2707C103.082 30.0828 102.43 30.5433 100.479 30.5718C99.8773 30.5806 99.2751 30.5211 98.4775 30.4834C98.1202 25.878 97.7706 21.3688 97.3984 16.5737Z" fill="#54A854"/>
<path d="M131.556 23.765C131.796 22.2932 131.995 21.171 132.161 20.0436C132.622 16.9129 133.533 16.2568 136.999 16.7735C136.861 17.8273 136.757 18.8981 136.575 19.9556C136.117 22.6198 135.63 25.2789 135.143 27.9379C134.759 30.0396 132.685 31.2587 130.696 30.499C130.354 30.3684 130.063 29.939 129.884 29.5798C129.143 28.0929 128.462 26.5772 127.745 25.078C127.487 24.5376 127.191 24.0146 126.814 23.2956C126.513 25.0377 126.16 26.5283 126.02 28.0386C125.865 29.7123 124.751 30.5452 122.974 30.5708C122.433 30.5785 121.891 30.519 121.215 30.4831C121.591 28.1972 121.931 26.0301 122.308 23.8693C122.593 22.2355 122.895 20.6036 123.244 18.9824C123.653 17.0883 125.922 15.8843 127.671 16.6533C128.01 16.802 128.272 17.2477 128.451 17.6142C129.236 19.2166 129.971 20.8437 130.742 22.453C130.913 22.8088 131.158 23.1295 131.556 23.765Z" fill="#54A854"/>
<path d="M78.9015 22.9089C81.2229 25.3919 80.5027 28.7397 77.6798 29.8981C77.0003 30.177 76.269 30.4811 75.555 30.4984C72.7329 30.5672 69.9082 30.5266 66.9121 30.5266C67.0128 29.8168 67.0806 29.2335 67.1798 28.6557C67.7101 25.5642 68.2219 22.4691 68.7929 19.3847C69.1832 17.2763 69.9127 16.6157 72.019 16.6083C74.1082 16.6009 76.2293 16.5584 78.2794 16.8872C81.1751 17.3518 81.9257 19.7919 80.0146 22.0434C79.7409 22.3655 79.3366 22.5767 78.9015 22.9089ZM71.9882 27.1969C73.3291 27.232 74.0812 27.2934 75.0159 27.1669C75.7802 27.0634 76.1938 26.3517 76.1001 25.7011C76.0001 25.0054 75.4384 24.8419 74.8985 24.7942C73.9905 24.7942 73.3495 24.7768 72.5219 24.7768C72.3337 25.6301 72.1812 26.3214 71.9882 27.1969ZM72.8585 22.232C74.6144 22.2579 75.2958 22.0959 75.2958 22.0959C76.2808 21.8325 76.3938 21.2932 76.3908 20.8945C76.389 20.4444 76.1697 19.928 75.3951 19.928C74.4064 19.928 74.1182 19.928 73.291 19.928C72.8585 22.232 73.291 19.928 72.8585 22.232Z" fill="#3063A9"/>
<path d="M61.1192 30.479C61.2777 29.3075 61.4325 28.3444 61.5332 27.376C61.6754 26.0086 61.4643 25.7874 60.0561 25.7452C59.5121 25.729 58.9674 25.7426 58.2919 25.7426C58.0986 26.6196 57.9216 27.3831 57.7631 28.1502C57.4543 29.643 56.653 30.3987 55.1669 30.5585C54.8622 30.5914 54.5515 30.584 54.2445 30.5729C53.8842 30.5596 53.6953 30.5551 53.3113 30.5259C52.6992 30.483 52.6992 30.483 52.6992 30.483C53.0621 27.8728 54.3023 21.661 54.7877 19.0682C55.0744 17.538 55.8439 16.6614 57.3195 16.6184C59.588 16.5526 61.8669 16.6236 64.1328 16.7694C65.5299 16.8592 66.8575 17.3453 67.2363 18.9239C67.6247 20.5421 67.0882 21.9554 65.9462 23.1354C65.6536 23.4376 65.2892 23.6709 64.8315 24.0368C66.8541 25.5581 66.5668 27.558 65.6532 29.3316C64.7712 31.0419 62.9378 30.594 61.1192 30.479ZM58.7793 22.4918C59.8968 22.4918 60.6882 22.5561 61.464 22.4751C62.3742 22.3797 62.9674 21.7616 62.8852 21.0844C62.7874 20.2777 62.2016 19.9474 61.4721 19.8956C60.7574 19.8449 60.0364 19.8845 59.2421 19.8845C59.0814 20.7907 58.9566 21.4924 58.7793 22.4918Z" fill="#3063A9"/>
<path d="M31.1255 8.15544C21.3291 5.95946 11.6027 11.528 8.79172 21.1364C8.21404 23.1108 8.0774 25.12 8.13517 27.1621C8.19219 29.1716 7.28161 30.4229 5.77781 30.5006C4.16957 30.5835 3.07569 29.3488 3.01052 27.2549C2.65465 15.8382 11.3827 7.07983 21.1862 6.10741C24.8444 5.74456 28.2868 6.31047 31.6492 7.66202C31.8843 7.7567 32.676 8.17911 32.7375 8.21832C33.103 8.45282 33.5459 8.75057 33.6173 8.819C33.6173 8.819 32.9771 8.50978 31.1255 8.15544Z" fill="#3063A9"/>
<path d="M87.636 30.9585C84.2021 30.9312 81.8992 28.9649 81.5593 25.7706C81.1323 21.757 84.034 17.5308 88.0196 16.5835C89.2409 16.2932 90.5869 16.2325 91.833 16.3953C95.3428 16.8528 96.6722 19.5943 96.5244 22.4439C96.2163 28.3919 91.3638 31.1231 87.636 30.9585ZM91.7952 23.4426C92.0156 22.6584 92.0145 21.8166 91.7201 21.0569C91.4642 20.3974 91.0661 20.0205 90.434 19.8255C89.2179 19.4505 87.8885 20.0341 87.1935 21.3098C86.5106 22.5626 86.1603 23.9086 86.261 25.3304C86.361 26.7475 87.5801 27.7513 88.9654 27.4306C89.456 27.3171 89.8859 27.0556 90.2392 26.7426C90.7488 26.291 91.1013 25.6903 91.3179 25.0453C91.4946 24.5182 91.6442 23.98 91.7952 23.4426Z" fill="#3063A9"/>
<path d="M44.8303 16.5682C44.3482 19.2724 43.9264 21.6263 43.5109 23.9814C43.4361 24.4045 43.358 24.8302 43.3291 25.2578C43.2325 26.6963 43.482 27.1516 44.4789 27.4331C45.4835 27.7168 46.6556 27.2404 47.1384 26.2794C47.3843 25.7904 47.5672 25.2497 47.6672 24.7115C47.9812 23.0189 48.2538 21.3186 48.5215 19.6179C48.8896 17.2769 49.6917 16.5767 52.1013 16.5701C52.5771 16.569 53.0529 16.6481 53.7236 16.7077C53.1015 19.9012 52.6004 22.9867 51.8783 26.0194C51.2877 28.4983 49.5884 30.0233 47.0884 30.6436C45.3173 31.083 43.5576 31.1112 41.7916 30.641C39.4605 30.0208 38.3507 28.2879 38.6411 25.7124C38.8884 23.5172 39.3543 21.3434 39.7853 19.1725C40.1649 17.261 40.8662 16.684 42.78 16.5734C43.3787 16.539 43.982 16.5682 44.8303 16.5682Z" fill="#3063A9"/>
<path d="M20.4878 10.0137C18.8606 11.3246 17.4546 12.6949 16.1741 14.2318C11.612 19.7093 11.4072 28.062 15.6612 33.7707C16.5689 34.9883 17.756 35.9992 18.8262 37.0944C19.0829 37.3574 19.4102 37.5523 19.6628 37.8183C20.5193 38.72 20.5811 39.9011 19.8442 40.8228C19.1473 41.6943 18.0597 41.9447 17.034 41.3259C16.2504 40.8535 15.5102 40.2758 14.8466 39.6444C8.02333 33.1522 7.37011 22.563 13.2668 15.2027C15.1958 12.7952 17.5794 11.0763 20.4878 10.0137Z" fill="#3063A9"/>
<path d="M39.0512 16.7977C38.8971 19.7187 38.5927 19.9706 34.5438 20.3741C34.2716 21.7982 33.9835 23.2851 33.7036 24.7735C33.4766 25.9811 33.2977 27.1988 33.0285 28.3968C32.7115 29.8075 32.0368 30.3979 30.6534 30.5499C30.1657 30.6035 29.6676 30.5854 29.1755 30.5676C28.8811 30.5573 28.5889 30.4848 28.202 30.4256C28.4142 27.1318 29.4521 24.0259 29.6369 20.6301C26.1679 20.6312 23.0795 21.6295 19.8379 22.5046C23.3765 18.3668 34.1979 16.0151 39.0512 16.7977Z" fill="#3063A9"/>
<path d="M16.5943 31.5276C21.4412 37.4353 30.2541 37.6576 35.3321 33.2727C35.7983 32.8699 36.2616 32.4637 36.7352 32.0698C37.7228 31.248 38.5767 31.2291 39.344 32.001C40.1035 32.7652 40.2157 33.8075 39.311 34.6257C38.0427 35.7727 36.7008 36.943 35.1877 37.6983C27.6175 41.4766 18.4692 38.5768 15.0142 30.9772C14.1296 29.1415 14.1296 28.5837 13.7285 27.2207C14.7935 29.379 15.5119 30.209 16.5943 31.5276Z" fill="#3063A9"/>
<path d="M22.9199 19.1392C27.4795 14.684 33.15 12.5476 39.1015 11.0092C40.4676 10.6564 41.8669 10.42 43.2622 10.1981C44.0977 10.0653 44.8675 10.2746 45.3308 11.0843C45.7526 11.8211 45.5907 12.883 44.9712 13.6698C44.1743 14.6821 43.0682 14.971 41.8581 15.0087C38.0924 15.126 34.3686 15.6128 30.7245 16.5378C28.5271 17.0956 26.3986 17.923 24.2415 18.638C23.7946 18.786 23.3602 18.9713 22.9199 19.1392Z" fill="#60B357"/>
<path d="M121.82 16.7854C121.412 19.1268 121.024 21.3605 120.634 23.5938C120.402 24.9261 120.158 26.2562 119.935 27.59C119.542 29.9376 118.763 30.5908 116.324 30.576C115.903 30.5734 115.482 30.529 114.914 30.4954C114.97 29.9983 114.994 29.5973 115.061 29.2041C115.581 26.1741 116.113 23.1462 116.632 20.1158C117.195 16.8294 118.106 16.2054 121.82 16.7854Z" fill="#54A854"/>
<path d="M42.7383 35.6231H44.3989C44.7276 35.6231 44.9722 35.6399 45.1328 35.6735C45.2953 35.7049 45.4398 35.7722 45.5664 35.8753C45.6948 35.9783 45.8016 36.1162 45.8866 36.2888C45.9716 36.4591 46.0141 36.6507 46.0141 36.8636C46.0141 37.0945 45.9612 37.3063 45.8554 37.499C45.7515 37.6918 45.6098 37.8363 45.4303 37.9327C45.6835 38.0201 45.8781 38.1692 46.0141 38.3798C46.1501 38.5905 46.2181 38.8382 46.2181 39.1228C46.2181 39.3469 46.1737 39.5655 46.0849 39.7784C45.998 39.9891 45.8781 40.1583 45.7251 40.286C45.5739 40.4115 45.3869 40.4889 45.164 40.518C45.0242 40.5359 44.687 40.5471 44.1523 40.5516H42.7383V35.6231ZM43.5771 36.4434V37.5831H44.1268C44.4536 37.5831 44.6567 37.5775 44.7361 37.5663C44.8797 37.5461 44.9921 37.4878 45.0733 37.3915C45.1564 37.2928 45.198 37.164 45.198 37.0048C45.198 36.8524 45.1621 36.7292 45.0903 36.635C45.0204 36.5387 44.9155 36.4804 44.7757 36.4602C44.6926 36.449 44.4536 36.4434 44.0588 36.4434H43.5771ZM43.5771 38.4034V39.7212H44.3535C44.6558 39.7212 44.8475 39.7112 44.9288 39.691C45.0535 39.6641 45.1545 39.5991 45.232 39.496C45.3113 39.3907 45.351 39.2506 45.351 39.0758C45.351 38.9278 45.3208 38.8023 45.2603 38.6992C45.1999 38.5961 45.112 38.521 44.9968 38.474C44.8834 38.4269 44.636 38.4034 44.2543 38.4034H43.5771Z" fill="#6D6E71"/>
<path d="M46.9237 40.5516V35.6231H47.72V40.5516H46.9237Z" fill="#6D6E71"/>
<path d="M48.3548 38.716C48.3548 38.4023 48.42 38.0986 48.5503 37.805C48.6807 37.5114 48.8649 37.2872 49.1029 37.1326C49.3428 36.9779 49.6101 36.9006 49.9048 36.9006C50.3601 36.9006 50.7332 37.0766 51.0242 37.4284C51.3151 37.7781 51.4606 38.2207 51.4606 38.7564C51.4606 39.2965 51.3132 39.7448 51.0185 40.1011C50.7257 40.4552 50.3564 40.6323 49.9105 40.6323C49.6347 40.6323 49.3712 40.5583 49.1199 40.4104C48.8705 40.2625 48.6807 40.0462 48.5503 39.7616C48.42 39.4747 48.3548 39.1262 48.3548 38.716ZM49.1709 38.7665C49.1709 39.1206 49.2417 39.3918 49.3834 39.58C49.5251 39.7683 49.6999 39.8624 49.9077 39.8624C50.1155 39.8624 50.2893 39.7683 50.4291 39.58C50.5708 39.3918 50.6416 39.1183 50.6416 38.7597C50.6416 38.4101 50.5708 38.1412 50.4291 37.9529C50.2893 37.7646 50.1155 37.6705 49.9077 37.6705C49.6999 37.6705 49.5251 37.7646 49.3834 37.9529C49.2417 38.1412 49.1709 38.4123 49.1709 38.7665Z" fill="#6D6E71"/>
<path d="M52.6479 40.5516L51.6958 36.9813H52.4694L53.0333 39.3212L53.5519 36.9813H54.3198L54.8214 39.3212L55.3967 36.9813H56.1816L55.2153 40.5516H54.4502L53.9316 38.2555L53.4215 40.5516H52.6479Z" fill="#6D6E71"/>
<path d="M58.3466 39.4153L59.14 39.5733C59.038 39.9185 58.8765 40.1818 58.6555 40.3634C58.4363 40.5427 58.1615 40.6323 57.8308 40.6323C57.3075 40.6323 56.9203 40.4295 56.669 40.0238C56.4706 39.6988 56.3715 39.2887 56.3715 38.7934C56.3715 38.2017 56.5018 37.7389 56.7625 37.4049C57.0232 37.0687 57.3529 36.9006 57.7515 36.9006C58.1992 36.9006 58.5525 37.0766 58.8113 37.4284C59.0701 37.7781 59.1939 38.3149 59.1825 39.0388H57.1876C57.1933 39.3189 57.2575 39.5375 57.3803 39.6943C57.5031 39.849 57.6561 39.9263 57.8393 39.9263C57.964 39.9263 58.0689 39.886 58.1539 39.8053C58.2389 39.7246 58.3031 39.5946 58.3466 39.4153ZM58.3919 38.4605C58.3863 38.1871 58.3268 37.9798 58.2134 37.8386C58.1001 37.6951 57.9621 37.6234 57.7997 37.6234C57.6259 37.6234 57.4823 37.6985 57.3689 37.8487C57.2556 37.9988 57.1999 38.2028 57.2018 38.4605H58.3919Z" fill="#6D6E71"/>
<path d="M60.5966 40.5516H59.8003V36.9813H60.5399V37.489C60.6665 37.2491 60.7798 37.0911 60.88 37.0149C60.982 36.9387 61.0972 36.9006 61.2257 36.9006C61.407 36.9006 61.5818 36.96 61.7499 37.0788L61.5034 37.9025C61.3693 37.7994 61.2446 37.7478 61.1293 37.7478C61.0179 37.7478 60.9234 37.7848 60.846 37.8588C60.7685 37.9305 60.7071 38.0616 60.6618 38.2521C60.6183 38.4426 60.5966 38.8415 60.5966 39.4489V40.5516Z" fill="#6D6E71"/>
<path d="M67.3919 39.9498L66.9102 40.6794C66.674 40.5427 66.4473 40.3544 66.2301 40.1146C66.062 40.2939 65.8834 40.4261 65.6945 40.5113C65.5056 40.5964 65.2808 40.639 65.0201 40.639C64.5024 40.639 64.1133 40.4665 63.8526 40.1213C63.6504 39.8546 63.5494 39.5475 63.5494 39.2001C63.5494 38.8841 63.6287 38.6006 63.7874 38.3496C63.9461 38.0963 64.1832 37.8767 64.4987 37.6907C64.357 37.4912 64.2502 37.3018 64.1785 37.1225C64.1067 36.941 64.0708 36.7695 64.0708 36.6081C64.0708 36.3101 64.1709 36.0579 64.3711 35.8517C64.5733 35.6433 64.8604 35.5391 65.2326 35.5391C65.5916 35.5391 65.8721 35.6478 66.0742 35.8652C66.2764 36.0826 66.3774 36.3482 66.3774 36.6619C66.3774 36.8614 66.3274 37.0508 66.2273 37.2301C66.1271 37.4094 65.925 37.6122 65.6208 37.8386L66.1989 38.7429C66.2669 38.5995 66.3255 38.4123 66.3746 38.1815L67.0944 38.3765C67.0226 38.6791 66.9603 38.9009 66.9074 39.0421C66.8545 39.1811 66.7978 39.2976 66.7373 39.3918C66.8261 39.4904 66.9404 39.5991 67.0802 39.7179C67.2219 39.8344 67.3258 39.9117 67.3919 39.9498ZM65.2241 37.2704L65.4395 37.0754C65.5982 36.9298 65.6775 36.7852 65.6775 36.6418C65.6775 36.5207 65.6388 36.4176 65.5613 36.3325C65.4858 36.2473 65.3828 36.2047 65.2524 36.2047C65.1259 36.2047 65.0267 36.2428 64.9549 36.319C64.8831 36.393 64.8472 36.4793 64.8472 36.5779C64.8472 36.6944 64.9077 36.8356 65.0286 37.0015L65.2241 37.2704ZM64.9124 38.2958C64.7291 38.4056 64.5922 38.5379 64.5015 38.6925C64.4108 38.8472 64.3655 39.0052 64.3655 39.1665C64.3655 39.3705 64.4212 39.5375 64.5327 39.6674C64.646 39.7952 64.7972 39.8591 64.9861 39.8591C65.1108 39.8591 65.2307 39.8299 65.346 39.7717C65.4612 39.7134 65.5868 39.617 65.7228 39.4825L64.9124 38.2958Z" fill="#6D6E71"/>
<path d="M72.1838 38.7396L72.9971 39.0455C72.8724 39.5834 72.6646 39.9835 72.3737 40.2457C72.0846 40.5057 71.7172 40.6357 71.2713 40.6357C70.7197 40.6357 70.2663 40.4127 69.9111 39.9667C69.556 39.5184 69.3784 38.9065 69.3784 38.1311C69.3784 37.3108 69.5569 36.6743 69.914 36.2215C70.271 35.7665 70.7405 35.5391 71.3223 35.5391C71.8305 35.5391 72.2433 35.7172 72.5607 36.0736C72.7496 36.2843 72.8913 36.5868 72.9858 36.9813L72.1555 37.2166C72.1063 36.9611 72.0034 36.7594 71.8466 36.6115C71.6917 36.4636 71.5028 36.3896 71.2798 36.3896C70.9719 36.3896 70.7216 36.5207 70.5289 36.783C70.3381 37.0452 70.2427 37.4699 70.2427 38.0571C70.2427 38.6802 70.3371 39.1239 70.5261 39.3884C70.715 39.6529 70.9606 39.7851 71.2628 39.7851C71.4858 39.7851 71.6775 39.7011 71.8381 39.533C71.9987 39.3649 72.1139 39.1004 72.1838 38.7396Z" fill="#6D6E71"/>
<path d="M73.5298 38.716C73.5298 38.4023 73.595 38.0986 73.7254 37.805C73.8557 37.5114 74.0399 37.2872 74.2779 37.1326C74.5179 36.9779 74.7852 36.9006 75.0799 36.9006C75.5352 36.9006 75.9083 37.0766 76.1992 37.4284C76.4902 37.7781 76.6356 38.2207 76.6356 38.7564C76.6356 39.2965 76.4883 39.7448 76.1936 40.1011C75.9007 40.4552 75.5314 40.6323 75.0856 40.6323C74.8097 40.6323 74.5462 40.5583 74.2949 40.4104C74.0456 40.2625 73.8557 40.0462 73.7254 39.7616C73.595 39.4747 73.5298 39.1262 73.5298 38.716ZM74.346 38.7665C74.346 39.1206 74.4168 39.3918 74.5585 39.58C74.7002 39.7683 74.8749 39.8624 75.0827 39.8624C75.2905 39.8624 75.4643 39.7683 75.6041 39.58C75.7458 39.3918 75.8167 39.1183 75.8167 38.7597C75.8167 38.4101 75.7458 38.1412 75.6041 37.9529C75.4643 37.7646 75.2905 37.6705 75.0827 37.6705C74.8749 37.6705 74.7002 37.7646 74.5585 37.9529C74.4168 38.1412 74.346 38.4123 74.346 38.7665Z" fill="#6D6E71"/>
<path d="M77.2024 36.9813H77.9363V37.4688C78.1989 37.09 78.5116 36.9006 78.8743 36.9006C79.067 36.9006 79.2342 36.9477 79.3759 37.0418C79.5176 37.136 79.6337 37.2783 79.7244 37.4688C79.8567 37.2783 79.9993 37.136 80.1523 37.0418C80.3053 36.9477 80.4687 36.9006 80.6426 36.9006C80.8636 36.9006 81.0506 36.9544 81.2036 37.062C81.3567 37.1673 81.471 37.3231 81.5465 37.5293C81.6013 37.6817 81.6287 37.9282 81.6287 38.2689V40.5516H80.8324V38.511C80.8324 38.1568 80.805 37.9282 80.7502 37.8251C80.6766 37.6907 80.5632 37.6234 80.4102 37.6234C80.2987 37.6234 80.1939 37.6638 80.0956 37.7445C79.9974 37.8251 79.9266 37.9439 79.8831 38.1008C79.8397 38.2555 79.8179 38.5009 79.8179 38.8371V40.5516H79.0216V38.595C79.0216 38.2476 79.0075 38.0235 78.9791 37.9226C78.9508 37.8218 78.9064 37.7467 78.846 37.6974C78.7874 37.6481 78.7071 37.6234 78.6051 37.6234C78.4823 37.6234 78.3718 37.6626 78.2735 37.7411C78.1753 37.8195 78.1045 37.9327 78.061 38.0806C78.0194 38.2286 77.9987 38.474 77.9987 38.8169V40.5516H77.2024V36.9813Z" fill="#6D6E71"/>
<path d="M82.4023 36.9813H83.1448V37.5058C83.2411 37.3265 83.3715 37.1808 83.5358 37.0687C83.7002 36.9567 83.8825 36.9006 84.0827 36.9006C84.4322 36.9006 84.7288 37.0631 84.9725 37.3881C85.2162 37.7131 85.3381 38.1658 85.3381 38.7463C85.3381 39.3425 85.2153 39.8064 84.9697 40.1381C84.7241 40.4676 84.4266 40.6323 84.0771 40.6323C83.9108 40.6323 83.7597 40.5931 83.6237 40.5146C83.4895 40.4362 83.3478 40.3017 83.1986 40.1112V41.9098H82.4023V36.9813ZM83.1901 38.706C83.1901 39.1071 83.2572 39.4041 83.3913 39.5968C83.5254 39.7874 83.6888 39.8826 83.8815 39.8826C84.0667 39.8826 84.2206 39.7952 84.3434 39.6204C84.4662 39.4433 84.5276 39.1542 84.5276 38.753C84.5276 38.3787 84.4643 38.1008 84.3378 37.9193C84.2112 37.7377 84.0544 37.647 83.8674 37.647C83.6728 37.647 83.5113 37.7366 83.3828 37.9159C83.2543 38.093 83.1901 38.3563 83.1901 38.706Z" fill="#6D6E71"/>
<path d="M86.7351 40.5516H85.9388V36.9813H86.6784V37.489C86.805 37.2491 86.9184 37.0911 87.0185 37.0149C87.1205 36.9387 87.2357 36.9006 87.3642 36.9006C87.5456 36.9006 87.7203 36.96 87.8885 37.0788L87.6419 37.9025C87.5078 37.7994 87.3831 37.7478 87.2679 37.7478C87.1564 37.7478 87.0619 37.7848 86.9845 37.8588C86.907 37.9305 86.8456 38.0616 86.8003 38.2521C86.7568 38.4426 86.7351 38.8415 86.7351 39.4489V40.5516Z" fill="#6D6E71"/>
<path d="M89.9769 39.4153L90.7704 39.5733C90.6684 39.9185 90.5068 40.1818 90.2858 40.3634C90.0667 40.5427 89.7918 40.6323 89.4612 40.6323C88.9379 40.6323 88.5506 40.4295 88.2994 40.0238C88.101 39.6988 88.0018 39.2887 88.0018 38.7934C88.0018 38.2017 88.1322 37.7389 88.3929 37.4049C88.6536 37.0687 88.9832 36.9006 89.3818 36.9006C89.8296 36.9006 90.1828 37.0766 90.4417 37.4284C90.7005 37.7781 90.8242 38.3149 90.8129 39.0388H88.8179C88.8236 39.3189 88.8878 39.5375 89.0106 39.6943C89.1334 39.849 89.2864 39.9263 89.4697 39.9263C89.5944 39.9263 89.6992 39.886 89.7842 39.8053C89.8693 39.7246 89.9335 39.5946 89.9769 39.4153ZM90.0223 38.4605C90.0166 38.1871 89.9571 37.9798 89.8437 37.8386C89.7304 37.6951 89.5925 37.6234 89.43 37.6234C89.2562 37.6234 89.1126 37.6985 88.9993 37.8487C88.8859 37.9988 88.8302 38.2028 88.8321 38.4605H90.0223Z" fill="#6D6E71"/>
<path d="M91.1841 39.533L91.9832 39.3884C92.0172 39.5722 92.0862 39.7123 92.1901 39.8086C92.294 39.9028 92.4395 39.9498 92.6265 39.9498C92.8324 39.9498 92.9873 39.905 93.0912 39.8154C93.1611 39.7526 93.1961 39.6686 93.1961 39.5632C93.1961 39.4915 93.1772 39.4321 93.1394 39.3851C93.0997 39.3402 93.0109 39.2988 92.873 39.2607C92.2307 39.0926 91.8236 38.939 91.6517 38.8001C91.4136 38.6073 91.2946 38.3395 91.2946 37.9966C91.2946 37.6873 91.3976 37.4273 91.6035 37.2166C91.8094 37.006 92.1287 36.9006 92.5613 36.9006C92.9732 36.9006 93.2792 36.9802 93.4795 37.1393C93.6797 37.2984 93.8176 37.5338 93.8932 37.8453L93.1422 38.01C93.1101 37.8711 93.0487 37.7646 92.958 37.6907C92.8692 37.6167 92.7417 37.5797 92.5755 37.5797C92.3658 37.5797 92.2156 37.6145 92.1249 37.6839C92.0645 37.7332 92.0342 37.7971 92.0342 37.8756C92.0342 37.9428 92.0607 38 92.1136 38.047C92.1854 38.1098 92.4328 38.1983 92.856 38.3126C93.2811 38.4269 93.5777 38.567 93.7458 38.7328C93.9121 38.9009 93.9952 39.1352 93.9952 39.4355C93.9952 39.7627 93.88 40.044 93.6495 40.2793C93.419 40.5146 93.078 40.6323 92.6265 40.6323C92.2165 40.6323 91.8916 40.5337 91.6517 40.3365C91.4136 40.1392 91.2578 39.8714 91.1841 39.533Z" fill="#6D6E71"/>
<path d="M94.4146 39.533L95.2137 39.3884C95.2477 39.5722 95.3167 39.7123 95.4206 39.8086C95.5245 39.9028 95.6699 39.9498 95.857 39.9498C96.0629 39.9498 96.2178 39.905 96.3217 39.8154C96.3916 39.7526 96.4266 39.6686 96.4266 39.5632C96.4266 39.4915 96.4077 39.4321 96.3699 39.3851C96.3302 39.3402 96.2414 39.2988 96.1035 39.2607C95.4612 39.0926 95.0541 38.939 94.8822 38.8001C94.6441 38.6073 94.5251 38.3395 94.5251 37.9966C94.5251 37.6873 94.6281 37.4273 94.834 37.2166C95.0399 37.006 95.3592 36.9006 95.7918 36.9006C96.2036 36.9006 96.5097 36.9802 96.7099 37.1393C96.9102 37.2984 97.0481 37.5338 97.1237 37.8453L96.3727 38.01C96.3406 37.8711 96.2792 37.7646 96.1885 37.6907C96.0997 37.6167 95.9722 37.5797 95.806 37.5797C95.5963 37.5797 95.4461 37.6145 95.3554 37.6839C95.2949 37.7332 95.2647 37.7971 95.2647 37.8756C95.2647 37.9428 95.2912 38 95.3441 38.047C95.4159 38.1098 95.6633 38.1983 96.0865 38.3126C96.5116 38.4269 96.8082 38.567 96.9763 38.7328C97.1426 38.9009 97.2257 39.1352 97.2257 39.4355C97.2257 39.7627 97.1104 40.044 96.88 40.2793C96.6495 40.5146 96.3085 40.6323 95.857 40.6323C95.447 40.6323 95.1221 40.5337 94.8822 40.3365C94.6441 40.1392 94.4883 39.8714 94.4146 39.533Z" fill="#6D6E71"/>
<path d="M97.7414 38.716C97.7414 38.4023 97.8066 38.0986 97.9369 37.805C98.0673 37.5114 98.2515 37.2872 98.4895 37.1326C98.7295 36.9779 98.9968 36.9006 99.2915 36.9006C99.7468 36.9006 100.12 37.0766 100.411 37.4284C100.702 37.7781 100.847 38.2207 100.847 38.7564C100.847 39.2965 100.7 39.7448 100.405 40.1011C100.112 40.4552 99.743 40.6323 99.2971 40.6323C99.0213 40.6323 98.7578 40.5583 98.5065 40.4104C98.2572 40.2625 98.0673 40.0462 97.9369 39.7616C97.8066 39.4747 97.7414 39.1262 97.7414 38.716ZM98.5575 38.7665C98.5575 39.1206 98.6284 39.3918 98.7701 39.58C98.9118 39.7683 99.0865 39.8624 99.2943 39.8624C99.5021 39.8624 99.6759 39.7683 99.8157 39.58C99.9574 39.3918 100.028 39.1183 100.028 38.7597C100.028 38.4101 99.9574 38.1412 99.8157 37.9529C99.6759 37.7646 99.5021 37.6705 99.2943 37.6705C99.0865 37.6705 98.9118 37.7646 98.7701 37.9529C98.6284 38.1412 98.5575 38.4123 98.5575 38.7665Z" fill="#6D6E71"/>
<path d="M102.236 40.5516H101.439V36.9813H102.179V37.489C102.306 37.2491 102.419 37.0911 102.519 37.0149C102.621 36.9387 102.736 36.9006 102.865 36.9006C103.046 36.9006 103.221 36.96 103.389 37.0788L103.143 37.9025C103.008 37.7994 102.884 37.7478 102.768 37.7478C102.657 37.7478 102.563 37.7848 102.485 37.8588C102.408 37.9305 102.346 38.0616 102.301 38.2521C102.257 38.4426 102.236 38.8415 102.236 39.4489V40.5516Z" fill="#6D6E71"/>
<path d="M106.291 40.5516V36.4569H105.058V35.6231H108.359V36.4569H107.13V40.5516H106.291Z" fill="#6D6E71"/>
<path d="M110.21 39.4153L111.003 39.5733C110.901 39.9185 110.74 40.1818 110.519 40.3634C110.3 40.5427 110.025 40.6323 109.694 40.6323C109.171 40.6323 108.784 40.4295 108.532 40.0238C108.334 39.6988 108.235 39.2887 108.235 38.7934C108.235 38.2017 108.365 37.7389 108.626 37.4049C108.887 37.0687 109.216 36.9006 109.615 36.9006C110.063 36.9006 110.416 37.0766 110.675 37.4284C110.933 37.7781 111.057 38.3149 111.046 39.0388H109.051C109.057 39.3189 109.121 39.5375 109.244 39.6943C109.366 39.849 109.519 39.9263 109.703 39.9263C109.827 39.9263 109.932 39.886 110.017 39.8053C110.102 39.7246 110.166 39.5946 110.21 39.4153ZM110.255 38.4605C110.25 38.1871 110.19 37.9798 110.077 37.8386C109.963 37.6951 109.825 37.6234 109.663 37.6234C109.489 37.6234 109.346 37.6985 109.232 37.8487C109.119 37.9988 109.063 38.2028 109.065 38.4605H110.255Z" fill="#6D6E71"/>
<path d="M114.322 38.0369L113.537 38.205C113.51 38.019 113.45 37.8789 113.355 37.7848C113.263 37.6907 113.142 37.6436 112.993 37.6436C112.794 37.6436 112.636 37.7254 112.517 37.889C112.399 38.0504 112.341 38.3216 112.341 38.7026C112.341 39.1262 112.4 39.4254 112.519 39.6002C112.64 39.775 112.802 39.8624 113.004 39.8624C113.155 39.8624 113.279 39.812 113.375 39.7112C113.472 39.6081 113.54 39.4321 113.579 39.1833L114.361 39.3413C114.28 39.7672 114.124 40.0888 113.894 40.3062C113.663 40.5236 113.354 40.6323 112.967 40.6323C112.527 40.6323 112.176 40.4676 111.913 40.1381C111.652 39.8086 111.522 39.3526 111.522 38.7698C111.522 38.1804 111.653 37.722 111.916 37.3948C112.178 37.0654 112.534 36.9006 112.981 36.9006C113.348 36.9006 113.639 36.9948 113.854 37.183C114.071 37.369 114.227 37.6537 114.322 38.0369Z" fill="#6D6E71"/>
<path d="M115.722 35.6231V37.4352C115.979 37.0788 116.285 36.9006 116.643 36.9006C116.826 36.9006 116.991 36.941 117.138 37.0217C117.286 37.1023 117.396 37.2054 117.47 37.3309C117.546 37.4565 117.597 37.5954 117.623 37.7478C117.651 37.9002 117.666 38.1367 117.666 38.4572V40.5516H116.869V38.6656C116.869 38.2913 116.854 38.0537 116.824 37.9529C116.794 37.852 116.74 37.7725 116.662 37.7142C116.587 37.6537 116.491 37.6234 116.376 37.6234C116.244 37.6234 116.126 37.6615 116.022 37.7377C115.918 37.8139 115.842 37.9294 115.792 38.084C115.745 38.2364 115.722 38.4628 115.722 38.7631V40.5516H114.925V35.6231H115.722Z" fill="#6D6E71"/>
<path d="M121.213 40.5516H120.417V38.7295C120.417 38.344 120.4 38.0952 120.366 37.9831C120.332 37.8688 120.276 37.7803 120.199 37.7176C120.123 37.6548 120.032 37.6234 119.924 37.6234C119.786 37.6234 119.662 37.6683 119.553 37.7579C119.443 37.8476 119.368 37.9663 119.326 38.1143C119.286 38.2622 119.267 38.5356 119.267 38.9346V40.5516H118.47V36.9813H119.21V37.5058C119.473 37.1023 119.803 36.9006 120.202 36.9006C120.377 36.9006 120.538 36.9387 120.683 37.0149C120.829 37.0889 120.939 37.1841 121.012 37.3007C121.088 37.4172 121.14 37.5495 121.168 37.6974C121.198 37.8453 121.213 38.0571 121.213 38.3328V40.5516Z" fill="#6D6E71"/>
<path d="M121.84 38.716C121.84 38.4023 121.905 38.0986 122.035 37.805C122.166 37.5114 122.35 37.2872 122.588 37.1326C122.828 36.9779 123.095 36.9006 123.39 36.9006C123.845 36.9006 124.218 37.0766 124.509 37.4284C124.8 37.7781 124.945 38.2207 124.945 38.7564C124.945 39.2965 124.798 39.7448 124.503 40.1011C124.211 40.4552 123.841 40.6323 123.395 40.6323C123.12 40.6323 122.856 40.5583 122.605 40.4104C122.355 40.2625 122.166 40.0462 122.035 39.7616C121.905 39.4747 121.84 39.1262 121.84 38.716ZM122.656 38.7665C122.656 39.1206 122.727 39.3918 122.868 39.58C123.01 39.7683 123.185 39.8624 123.393 39.8624C123.6 39.8624 123.774 39.7683 123.914 39.58C124.056 39.3918 124.126 39.1183 124.126 38.7597C124.126 38.4101 124.056 38.1412 123.914 37.9529C123.774 37.7646 123.6 37.6705 123.393 37.6705C123.185 37.6705 123.01 37.7646 122.868 37.9529C122.727 38.1412 122.656 38.4123 122.656 38.7665Z" fill="#6D6E71"/>
<path d="M125.572 40.5516V35.6231H126.368V40.5516H125.572Z" fill="#6D6E71"/>
<path d="M127.003 38.716C127.003 38.4023 127.068 38.0986 127.198 37.805C127.329 37.5114 127.513 37.2872 127.751 37.1326C127.991 36.9779 128.258 36.9006 128.553 36.9006C129.008 36.9006 129.381 37.0766 129.672 37.4284C129.963 37.7781 130.109 38.2207 130.109 38.7564C130.109 39.2965 129.961 39.7448 129.666 40.1011C129.374 40.4552 129.004 40.6323 128.558 40.6323C128.283 40.6323 128.019 40.5583 127.768 40.4104C127.518 40.2625 127.329 40.0462 127.198 39.7616C127.068 39.4747 127.003 39.1262 127.003 38.716ZM127.819 38.7665C127.819 39.1206 127.89 39.3918 128.031 39.58C128.173 39.7683 128.348 39.8624 128.556 39.8624C128.763 39.8624 128.937 39.7683 129.077 39.58C129.219 39.3918 129.29 39.1183 129.29 38.7597C129.29 38.4101 129.219 38.1412 129.077 37.9529C128.937 37.7646 128.763 37.6705 128.556 37.6705C128.348 37.6705 128.173 37.7646 128.031 37.9529C127.89 38.1412 127.819 38.4123 127.819 38.7665Z" fill="#6D6E71"/>
<path d="M130.661 40.787L131.571 40.9181C131.586 41.0436 131.621 41.1299 131.676 41.1769C131.751 41.2442 131.87 41.2778 132.033 41.2778C132.24 41.2778 132.396 41.2408 132.5 41.1668C132.57 41.1175 132.623 41.038 132.659 40.9282C132.683 40.8497 132.696 40.7051 132.696 40.4945V39.9734C132.458 40.3589 132.157 40.5516 131.795 40.5516C131.39 40.5516 131.07 40.3488 130.834 39.9431C130.649 39.6226 130.556 39.2237 130.556 38.7463C130.556 38.1479 130.677 37.6907 130.919 37.3746C131.163 37.0586 131.465 36.9006 131.826 36.9006C132.198 36.9006 132.505 37.0945 132.747 37.4822V36.9813H133.492V40.1852C133.492 40.6065 133.463 40.9214 133.404 41.1299C133.346 41.3383 133.263 41.5019 133.158 41.6207C133.052 41.7395 132.91 41.8325 132.733 41.8997C132.557 41.967 132.334 42.0006 132.064 42.0006C131.554 42.0006 131.192 41.8964 130.978 41.6879C130.765 41.4817 130.658 41.2195 130.658 40.9013C130.658 40.8699 130.659 40.8318 130.661 40.787ZM131.372 38.6925C131.372 39.0713 131.434 39.3492 131.557 39.5263C131.681 39.7011 131.834 39.7885 132.016 39.7885C132.21 39.7885 132.375 39.6988 132.509 39.5195C132.643 39.338 132.71 39.0702 132.71 38.716C132.71 38.3462 132.646 38.0717 132.517 37.8924C132.389 37.7131 132.226 37.6234 132.03 37.6234C131.839 37.6234 131.681 37.712 131.557 37.889C131.434 38.0638 131.372 38.3317 131.372 38.6925Z" fill="#6D6E71"/>
<path d="M133.906 36.9813H134.753L135.473 39.5162L136.176 36.9813H137L135.938 40.4171L135.748 41.0391C135.678 41.2475 135.611 41.4067 135.547 41.5165C135.484 41.6263 135.411 41.7148 135.328 41.7821C135.247 41.8515 135.146 41.9053 135.025 41.9434C134.906 41.9815 134.771 42.0006 134.62 42.0006C134.467 42.0006 134.317 41.9815 134.169 41.9434L134.098 41.2038C134.223 41.233 134.336 41.2475 134.436 41.2475C134.621 41.2475 134.758 41.1825 134.847 41.0525C134.935 40.9248 135.003 40.7612 135.051 40.5617L133.906 36.9813Z" fill="#6D6E71"/>
</svg>
