<svg width="523" height="216" viewBox="0 0 523 216" fill="none" xmlns="http://www.w3.org/2000/svg">
<path fill-rule="evenodd" clip-rule="evenodd" d="M225.882 64.9206C225.882 69.2767 222.339 72.8081 217.967 72.8081C213.596 72.8081 210.052 69.2767 210.052 64.9206C210.052 60.5644 213.596 57.0331 217.967 57.0331C222.339 57.0331 225.882 60.5644 225.882 64.9206ZM224.664 64.9206C224.664 68.6066 221.666 71.5946 217.967 71.5946C214.268 71.5946 211.27 68.6066 211.27 64.9206C211.27 61.2346 214.268 58.2465 217.967 58.2465C221.666 58.2465 224.664 61.2346 224.664 64.9206Z" fill="#2A4455"/>
<path fill-rule="evenodd" clip-rule="evenodd" d="M48.708 74.3047H119.943V202.162H48.708V74.3047ZM49.9257 75.5224H118.725V200.945H49.9257V75.5224Z" fill="#2A4455"/>
<path fill-rule="evenodd" clip-rule="evenodd" d="M17.0479 87.0898V99.2668H32.8779V87.0898H17.0479ZM31.6602 88.3075H18.2655V98.0491H31.6602V88.3075Z" fill="#2A4455"/>
<path fill-rule="evenodd" clip-rule="evenodd" d="M29.225 109.617C29.225 111.971 27.3169 113.879 24.9631 113.879C22.6093 113.879 20.7012 111.971 20.7012 109.617C20.7012 107.264 22.6093 105.355 24.9631 105.355C27.3169 105.355 29.225 107.264 29.225 109.617ZM28.0073 109.617C28.0073 111.299 26.6444 112.662 24.9631 112.662C23.2818 112.662 21.9189 111.299 21.9189 109.617C21.9189 107.936 23.2818 106.573 24.9631 106.573C26.6444 106.573 28.0073 107.936 28.0073 109.617Z" fill="#2A4455"/>
<path fill-rule="evenodd" clip-rule="evenodd" d="M12.7852 82.832H37.139V118.145H12.7852V82.832ZM14.0028 84.0497H35.9213V116.927H14.0028V84.0497Z" fill="#2A4455"/>
<path fill-rule="evenodd" clip-rule="evenodd" d="M7.30664 74.3047V202.162H42.6197V74.3047H7.30664ZM41.402 75.5224H8.52433V200.945H41.402V75.5224Z" fill="#2A4455"/>
<path fill-rule="evenodd" clip-rule="evenodd" d="M17.0479 203.988H32.8779V212.512H17.0479V203.988ZM18.2655 205.206H31.6602V211.294H18.2655V205.206Z" fill="#2A4455"/>
<path fill-rule="evenodd" clip-rule="evenodd" d="M94.9795 203.988V212.512H110.81V203.988H94.9795ZM109.592 205.206H96.1972V211.294H109.592V205.206Z" fill="#2A4455"/>
<path fill-rule="evenodd" clip-rule="evenodd" d="M336.253 132.945H352.083V140.86H336.253V132.945ZM337.471 134.163H350.865V139.643H337.471V134.163Z" fill="#2A4455"/>
<path fill-rule="evenodd" clip-rule="evenodd" d="M332.602 123.812V144.513H355.738V123.812H332.602ZM354.52 125.03H333.819V143.296H354.52V125.03Z" fill="#2A4455"/>
<path fill-rule="evenodd" clip-rule="evenodd" d="M377.654 164.605H332.6V198.092H377.654V164.605ZM376.437 165.823H333.817V196.874H338.079V192.612H333.817V191.395H338.079V187.132H333.817V185.914H338.079V181.655H333.817V180.438H338.079V176.78H333.817V175.562H338.079V171.304H333.818V170.086H338.079V165.824H339.297V170.086H343.559V165.824H344.776V170.086H349.039V165.824H350.257V170.086H354.519V165.824H355.736V170.086H359.998V165.824H361.216V170.086H365.477V165.824H366.694V170.086H370.957V165.824H372.175V170.086H376.437V165.823ZM370.957 171.304H366.694V175.562H370.957V171.304ZM372.175 175.562V171.304H376.437V175.562H372.175ZM370.957 176.78H366.694V180.438H370.957V176.78ZM372.175 180.438V176.78H376.437V180.438H372.175ZM370.957 181.655H366.694V185.914H370.957V181.655ZM372.175 185.914V181.655H376.437V185.914H372.175ZM370.957 187.132H366.694V191.395H370.957V187.132ZM372.175 191.395V187.132H376.437V191.395H372.175ZM370.957 192.612H366.694V196.874H370.957V192.612ZM372.175 196.874V192.612H376.437V196.874H372.175ZM361.216 171.304H365.477V175.562H361.216V171.304ZM361.216 176.78H365.477V180.438H361.216V176.78ZM361.216 181.655H365.477V185.914H361.216V181.655ZM361.216 187.132H365.477V191.395H361.216V187.132ZM361.216 192.612H365.477V196.874H361.216V192.612ZM359.998 171.304H355.736V175.562H359.998V171.304ZM359.998 176.78H355.736V180.438H359.998V176.78ZM359.998 181.655H355.736V185.914H359.998V181.655ZM359.998 187.132H355.736V191.395H359.998V187.132ZM359.998 192.612H355.736V196.874H359.998V192.612ZM350.257 171.304H354.519V175.562H350.257V171.304ZM350.257 176.78H354.519V180.438H350.257V176.78ZM350.257 181.655H354.519V185.914H350.257V181.655ZM350.257 187.132H354.519V191.395H350.257V187.132ZM350.257 192.612H354.519V196.874H350.257V192.612ZM349.039 171.304H344.776V175.562H349.039V171.304ZM349.039 176.78H344.776V180.438H349.039V176.78ZM349.039 181.655H344.776V185.914H349.039V181.655ZM349.039 187.132H344.776V191.395H349.039V187.132ZM349.039 192.612H344.776V196.874H349.039V192.612ZM339.297 171.304H343.559V175.562H339.297V171.304ZM339.297 176.78H343.559V180.438H339.297V176.78ZM339.297 181.655H343.559V185.914H339.297V181.655ZM339.297 187.132H343.559V191.395H339.297V187.132ZM339.297 192.612H343.559V196.874H339.297V192.612Z" fill="#2A4455"/>
<path fill-rule="evenodd" clip-rule="evenodd" d="M211.879 0H224.056V3.89858C238.967 5.18327 250.237 11.0984 250.237 18.2014V80.5859H263.021V79.3718H259.978V75.7188H270.937V79.3718H267.892V80.5859H296.679V77.543H314.335V80.5859H352.692V79.3718H349.648V75.7188H360.608V79.3718H357.563V80.5859H395.921V77.543H413.577V80.5859H498.645V79.3718H495.601V75.7188H506.56V79.3718H503.515V80.5859H523V86.6744H506.56V86.6783H495.601V86.6744H413.578L413.577 89.7199H411.751V94.5885H410.533V111.032C410.533 114.058 408.08 116.511 405.054 116.511C402.028 116.511 399.574 114.058 399.574 111.032V94.5927L399.574 94.5885H398.356V89.7199H395.921V86.6744H377.656V97.0273H378.871L378.871 93.9805H382.524V104.94H378.871V101.898H377.656V112.246L386.18 112.246V204.791H324.077V112.246L332.602 112.246V104.938H332.599V101.891H331.382L331.382 104.938H327.729V93.9783H331.382V97.0199H332.599V93.9783H332.602V86.6744H314.336L314.335 89.7199H312.509V94.5885H311.291V111.032C311.291 114.058 308.838 116.511 305.812 116.511C302.785 116.511 300.332 114.058 300.332 111.032V94.5927L300.332 94.5885H299.114V89.7199H296.679V86.6744H270.937V86.6783H259.978V86.6744H250.237L250.237 190.514C250.236 193.007 248.847 195.353 246.4 197.405L250 215.997H242.81L239.94 201.177C235.16 203.183 229.028 204.543 222.229 204.948L222.23 216H213.706L213.706 204.948C206.803 204.537 200.589 203.141 195.777 201.084L192.89 215.997H185.699L189.333 197.232C187.012 195.222 185.7 192.937 185.699 190.514V86.6744H175.957V86.6783H164.998V86.6744H155.256V89.7199H153.43V94.5885H152.212V111.032C152.212 114.058 149.759 116.511 146.733 116.511C143.706 116.511 141.253 114.058 141.253 111.032V94.5927L141.253 94.5885H140.035V89.7199H137.6V86.6744H127.858L127.858 215.558H0V67H127.858V80.5859H137.6V77.543H155.256V80.5859H168.042V79.3718H164.998V75.7188H175.957V79.3718H172.913V80.5859H185.699V18.2014C185.699 11.0985 196.969 5.1835 211.879 3.89865V0ZM376.439 93.9805V85.4567H395.921V81.8036H360.608V85.4567H372.785V93.9805H376.439ZM372.785 103.722V95.1982H376.436V103.722H372.785ZM372.785 104.94H376.439V112.246H372.785V104.94ZM371.568 93.9805H371.565V104.94H371.568V112.246H338.69V86.6744H349.648V86.6783H360.608V86.6744H371.568V93.9805ZM377.656 100.68H378.871V98.245H377.656V100.68ZM499.862 80.5859H502.298V79.3718H499.862V80.5859ZM413.578 81.8036H495.601V85.4567H413.578V81.8036ZM496.818 85.4567H505.342V81.8075H496.818V85.4567ZM521.783 85.4567H506.56V81.8036H521.783V85.4567ZM349.648 81.8036H314.336V85.4567H333.82V93.9783H337.473V85.4567H349.648V81.8036ZM359.39 85.4567H350.866V81.8075H359.39V85.4567ZM356.345 80.5859V79.3718H353.91V80.5859H356.345ZM333.82 112.246V104.938H337.473V112.246H333.82ZM333.82 95.196V103.72H337.47V95.196H333.82ZM269.719 85.4567H261.195V81.8075H269.719V85.4567ZM270.937 85.4567H296.602V81.8036H270.937V85.4567ZM259.978 81.8036V85.4567H250.237V81.8036H259.978ZM266.675 80.5859V79.3718H264.239V80.5859H266.675ZM185.698 85.4567H175.957V81.8036H185.698V85.4567ZM155.256 81.8036H164.998V85.4567H155.256V81.8036ZM166.216 85.4567H174.74V81.8075H166.216V85.4567ZM169.26 80.5859H171.695V79.3718H169.26V80.5859ZM214.923 205.01V214.786H221.013L221.013 205.01C220.01 205.052 218.995 205.074 217.968 205.074C216.941 205.074 215.926 205.052 214.923 205.01ZM222.838 1.21346V3.80457C221.25 3.69606 219.624 3.6398 217.968 3.6398C216.312 3.6398 214.686 3.69608 213.097 3.80463V1.21346H222.838ZM249.019 18.2014C249.019 17.9994 249.008 17.7971 248.985 17.5946H186.951C186.928 17.7971 186.917 17.9994 186.917 18.2014V189.905H249.019V18.2014ZM195.655 199.704C190.251 197.266 187.297 194.175 186.951 191.118H248.985C248.639 194.175 245.685 197.266 240.282 199.704C234.633 202.252 226.746 203.86 217.968 203.86C209.19 203.86 201.303 202.252 195.655 199.704ZM248.711 16.3811C247.814 13.7321 244.97 11.1252 240.283 9.01019C234.635 6.46137 226.747 4.85326 217.968 4.85326C209.19 4.85326 201.301 6.46137 195.653 9.01019C190.966 11.1252 188.122 13.7321 187.225 16.3811H248.711ZM187.174 214.783L190.407 198.089C191.619 198.985 193.039 199.817 194.636 200.571L191.884 214.783H187.174ZM243.815 214.783L241.083 200.673C242.678 199.934 244.101 199.119 245.322 198.241L248.525 214.783H243.815ZM1.21769 68.2177H126.64V214.341H1.21769V68.2177ZM137.6 81.8036V85.4567H127.858V81.8036H137.6ZM138.817 88.5022H140.035V88.5H143.079V78.7617H144.297V88.5H148.559V78.7617H149.776V88.5H153.43V88.5022H154.038V78.7607H138.817V88.5022ZM397.139 88.5022H398.356V88.5H401.4V78.7617H402.618V88.5H406.88V78.7617H408.098V88.5H411.751V88.5022H412.36V78.7607H397.139V88.5022ZM141.253 89.7199V93.3708H152.212V89.7199H141.253ZM150.994 94.5927H142.471V111.032C142.471 113.385 144.379 115.293 146.733 115.293C149.086 115.293 150.994 113.385 150.994 111.032V94.5927ZM313.118 78.7607H297.896V88.5022H299.114V88.5H302.158V78.7617H303.376V88.5H307.638V78.7617H308.855V88.5H312.509V88.5022H313.118V78.7607ZM300.332 93.3708V89.7199H311.291V93.3708H300.332ZM301.55 94.5927H310.074V111.032C310.074 113.385 308.165 115.293 305.812 115.293C303.458 115.293 301.55 113.385 301.55 111.032V94.5927ZM399.574 89.7199V93.3708H410.533V89.7199H399.574ZM409.316 94.5927H400.792V111.032C400.792 113.385 402.7 115.293 405.054 115.293C407.408 115.293 409.316 113.385 409.316 111.032V94.5927ZM384.962 113.464H325.295V203.573H384.962V113.464ZM166.216 76.9364H174.74V78.1541H172.913V78.1523H168.042V78.1541H166.216V76.9364ZM269.719 76.9364H261.195V78.1541H263.021V78.1523H267.892V78.1541H269.719V76.9364ZM328.946 103.72V95.196H330.164V103.72H328.946ZM331.382 98.2375V100.673H332.599V98.2375H331.382ZM359.39 76.9364H350.866V78.1541H352.692V78.1523H357.563V78.1541H359.39V76.9364ZM496.818 76.9364H505.342V78.1541H503.515V78.1523H498.645V78.1541H496.818V76.9364ZM381.307 103.722V95.1982H380.089V103.722H381.307Z" fill="#2A4455"/>
<rect x="87" y="169" width="24" height="24" rx="8" fill="#1A66AE"/>
<path d="M100.283 186H98.1709V180.217C98.1709 180.057 98.1732 179.861 98.1777 179.629C98.1823 179.392 98.1891 179.15 98.1982 178.904C98.2074 178.654 98.2165 178.428 98.2256 178.228C98.1755 178.287 98.0729 178.389 97.918 178.535C97.7676 178.676 97.6263 178.804 97.4941 178.918L96.3457 179.841L95.3271 178.569L98.5469 176.006H100.283V186Z" fill="white"/>
<rect x="134" y="49" width="24" height="24" rx="8" fill="#1A66AE"/>
<path d="M149.047 66H142.061V64.5303L144.569 61.9941C145.075 61.4746 145.481 61.0417 145.786 60.6953C146.096 60.3444 146.319 60.0254 146.456 59.7383C146.597 59.4512 146.668 59.1436 146.668 58.8154C146.668 58.4189 146.556 58.1227 146.333 57.9268C146.114 57.7262 145.82 57.626 145.451 57.626C145.064 57.626 144.688 57.7148 144.323 57.8926C143.959 58.0703 143.578 58.3232 143.182 58.6514L142.033 57.291C142.32 57.0449 142.623 56.8125 142.942 56.5938C143.266 56.375 143.64 56.1995 144.063 56.0674C144.492 55.9307 145.005 55.8623 145.602 55.8623C146.258 55.8623 146.821 55.9808 147.29 56.2178C147.764 56.4548 148.129 56.7783 148.384 57.1885C148.639 57.5941 148.767 58.0544 148.767 58.5693C148.767 59.1208 148.657 59.6243 148.438 60.0801C148.22 60.5358 147.901 60.987 147.481 61.4336C147.067 61.8802 146.565 62.3747 145.978 62.917L144.692 64.127V64.2227H149.047V66Z" fill="white"/>
<rect x="217" y="158" width="24" height="24" rx="8" fill="#1A66AE"/>
<path d="M231.657 167.241C231.657 167.701 231.562 168.1 231.37 168.438C231.179 168.775 230.919 169.05 230.591 169.265C230.267 169.479 229.903 169.636 229.497 169.736V169.777C230.299 169.878 230.908 170.124 231.322 170.516C231.742 170.908 231.951 171.432 231.951 172.088C231.951 172.671 231.808 173.193 231.521 173.653C231.238 174.114 230.8 174.476 230.208 174.74C229.616 175.005 228.852 175.137 227.918 175.137C227.367 175.137 226.852 175.091 226.373 175C225.899 174.913 225.452 174.779 225.033 174.597V172.799C225.462 173.018 225.91 173.184 226.38 173.298C226.849 173.407 227.287 173.462 227.692 173.462C228.449 173.462 228.978 173.332 229.278 173.072C229.584 172.808 229.736 172.439 229.736 171.965C229.736 171.687 229.666 171.452 229.524 171.261C229.383 171.069 229.137 170.924 228.786 170.823C228.44 170.723 227.954 170.673 227.33 170.673H226.571V169.053H227.344C227.959 169.053 228.426 168.996 228.745 168.882C229.069 168.763 229.287 168.604 229.401 168.403C229.52 168.198 229.579 167.966 229.579 167.706C229.579 167.351 229.47 167.073 229.251 166.872C229.032 166.672 228.668 166.571 228.157 166.571C227.838 166.571 227.547 166.612 227.282 166.694C227.022 166.772 226.788 166.868 226.578 166.981C226.368 167.091 226.184 167.198 226.024 167.303L225.047 165.847C225.439 165.564 225.897 165.329 226.421 165.143C226.95 164.956 227.578 164.862 228.308 164.862C229.338 164.862 230.153 165.07 230.755 165.484C231.356 165.899 231.657 166.485 231.657 167.241Z" fill="white"/>
<rect x="277" y="49" width="24" height="24" rx="8" fill="#1A66AE"/>
<path d="M292.272 63.9287H291.069V66H289.005V63.9287H284.739V62.459L289.121 56.0059H291.069V62.2881H292.272V63.9287ZM289.005 62.2881V60.5928C289.005 60.4333 289.007 60.2441 289.012 60.0254C289.021 59.8066 289.03 59.5879 289.039 59.3691C289.048 59.1504 289.057 58.9567 289.066 58.7881C289.08 58.6149 289.089 58.4941 289.094 58.4258H289.039C288.952 58.6126 288.861 58.7949 288.766 58.9727C288.67 59.1458 288.558 59.3281 288.431 59.5195L286.599 62.2881H289.005Z" fill="white"/>
<rect x="358" y="116" width="24" height="24" rx="8" fill="#1A66AE"/>
<path d="M369.697 126.615C370.308 126.615 370.85 126.731 371.324 126.964C371.803 127.196 372.179 127.538 372.452 127.989C372.726 128.44 372.862 128.996 372.862 129.657C372.862 130.377 372.712 130.999 372.411 131.523C372.115 132.043 371.671 132.442 371.078 132.72C370.49 132.998 369.757 133.137 368.877 133.137C368.353 133.137 367.858 133.091 367.394 133C366.933 132.913 366.53 132.779 366.184 132.597V130.771C366.53 130.954 366.945 131.109 367.428 131.236C367.915 131.359 368.373 131.421 368.802 131.421C369.221 131.421 369.574 131.366 369.861 131.257C370.148 131.143 370.365 130.97 370.511 130.737C370.661 130.5 370.736 130.2 370.736 129.835C370.736 129.347 370.572 128.974 370.244 128.714C369.916 128.454 369.412 128.324 368.733 128.324C368.474 128.324 368.202 128.349 367.92 128.399C367.642 128.45 367.41 128.5 367.223 128.55L366.382 128.099L366.758 123.006H372.179V124.797H368.61L368.426 126.759C368.581 126.727 368.749 126.695 368.932 126.663C369.114 126.631 369.369 126.615 369.697 126.615Z" fill="white"/>
<rect x="393" y="49" width="24" height="24" rx="8" fill="#1A66AE"/>
<path d="M404.506 55.876C405.08 55.876 405.609 55.9648 406.092 56.1426C406.579 56.3203 406.969 56.5892 407.261 56.9492C407.552 57.3047 407.698 57.7513 407.698 58.2891C407.698 58.6901 407.618 59.041 407.459 59.3418C407.304 59.6426 407.092 59.9069 406.823 60.1348C406.554 60.3581 406.249 60.554 405.907 60.7227C406.263 60.9095 406.6 61.1283 406.919 61.3789C407.238 61.625 407.498 61.9144 407.698 62.2471C407.903 62.5798 408.006 62.9671 408.006 63.4092C408.006 63.9652 407.858 64.4482 407.562 64.8584C407.265 65.264 406.855 65.5785 406.331 65.8018C405.807 66.0251 405.199 66.1367 404.506 66.1367C403.758 66.1367 403.123 66.0296 402.599 65.8154C402.075 65.6012 401.676 65.2959 401.402 64.8994C401.129 64.4984 400.992 64.0199 400.992 63.4639C400.992 63.0081 401.076 62.6117 401.245 62.2744C401.418 61.9372 401.651 61.6478 401.942 61.4062C402.234 61.1602 402.555 60.9505 402.906 60.7773C402.61 60.5905 402.339 60.3786 402.093 60.1416C401.851 59.9046 401.658 59.6335 401.512 59.3281C401.37 59.0228 401.3 58.6719 401.3 58.2754C401.3 57.7467 401.448 57.3047 401.744 56.9492C402.045 56.5938 402.439 56.3271 402.927 56.1494C403.414 55.9671 403.941 55.876 404.506 55.876ZM402.947 63.3408C402.947 63.7008 403.075 63.9993 403.33 64.2363C403.59 64.4688 403.973 64.585 404.479 64.585C405.003 64.585 405.395 64.4733 405.654 64.25C405.914 64.0221 406.044 63.7236 406.044 63.3545C406.044 63.0993 405.969 62.876 405.818 62.6846C405.673 62.4932 405.488 62.3223 405.265 62.1719C405.041 62.0169 404.816 61.8734 404.588 61.7412L404.403 61.6455C404.112 61.7777 403.856 61.9258 403.638 62.0898C403.424 62.2539 403.255 62.4385 403.132 62.6436C403.009 62.8486 402.947 63.0811 402.947 63.3408ZM404.492 57.4209C404.146 57.4209 403.859 57.5098 403.631 57.6875C403.403 57.8652 403.289 58.1159 403.289 58.4395C403.289 58.6673 403.344 58.8678 403.453 59.041C403.567 59.2096 403.715 59.3577 403.897 59.4854C404.084 59.613 404.287 59.7314 404.506 59.8408C404.715 59.7406 404.911 59.6289 405.094 59.5059C405.276 59.3828 405.424 59.2347 405.538 59.0615C405.652 58.8883 405.709 58.681 405.709 58.4395C405.709 58.1159 405.593 57.8652 405.36 57.6875C405.132 57.5098 404.843 57.4209 404.492 57.4209Z" fill="white"/>
</svg>
