<svg width="648" height="216" viewBox="0 0 648 216" fill="none" xmlns="http://www.w3.org/2000/svg">
<path fill-rule="evenodd" clip-rule="evenodd" d="M218.031 72.8099C222.403 72.8099 225.948 69.2785 225.948 64.9224C225.948 60.5662 222.403 57.0348 218.031 57.0348C213.658 57.0348 210.113 60.5662 210.113 64.9224C210.113 69.2785 213.658 72.8099 218.031 72.8099ZM218.031 71.5919C221.735 71.5919 224.73 68.6015 224.73 64.9224C224.73 61.2432 221.735 58.2528 218.031 58.2528C214.326 58.2528 211.331 61.2432 211.331 64.9224C211.331 68.6015 214.326 71.5919 218.031 71.5919Z" fill="#2A4455"/>
<path fill-rule="evenodd" clip-rule="evenodd" d="M48.7217 74.5195H119.977V202.414H48.7217V74.5195ZM49.9397 75.7376H118.759V201.196H49.9397V75.7376Z" fill="#2A4455"/>
<path fill-rule="evenodd" clip-rule="evenodd" d="M17.0527 87.3086V99.489H32.8873V87.3086H17.0527ZM31.6693 88.5266H18.2708V98.271H31.6693V88.5266Z" fill="#2A4455"/>
<path fill-rule="evenodd" clip-rule="evenodd" d="M29.2333 109.841C29.2333 112.196 27.3247 114.104 24.9702 114.104C22.6157 114.104 20.707 112.196 20.707 109.841C20.707 107.487 22.6157 105.578 24.9702 105.578C27.3247 105.578 29.2333 107.487 29.2333 109.841ZM28.0153 109.841C28.0153 111.523 26.652 112.886 24.9702 112.886C23.2884 112.886 21.9251 111.523 21.9251 109.841C21.9251 108.16 23.2884 106.796 24.9702 106.796C26.652 106.796 28.0153 108.16 28.0153 109.841Z" fill="#2A4455"/>
<path fill-rule="evenodd" clip-rule="evenodd" d="M12.7891 83.0469H37.15V118.37H12.7891V83.0469ZM14.0071 84.2649H35.9319V117.152H14.0071V84.2649Z" fill="#2A4455"/>
<path fill-rule="evenodd" clip-rule="evenodd" d="M7.30859 74.5195V202.414H42.6319V74.5195H7.30859ZM41.4139 75.7376H8.52664V201.196H41.4139V75.7376Z" fill="#2A4455"/>
<path fill-rule="evenodd" clip-rule="evenodd" d="M17.0527 204.242H32.8873V212.768H17.0527V204.242ZM18.2708 205.46H31.6693V211.55H18.2708V205.46Z" fill="#2A4455"/>
<path fill-rule="evenodd" clip-rule="evenodd" d="M95.0078 204.242V212.768H110.842V204.242H95.0078ZM109.624 205.46H96.2259V211.55H109.624V205.46Z" fill="#2A4455"/>
<path fill-rule="evenodd" clip-rule="evenodd" d="M401.405 101.223H419.786V119.603H401.405V101.223ZM402.623 102.441H418.568V118.385H402.623V102.441Z" fill="#2A4455"/>
<path fill-rule="evenodd" clip-rule="evenodd" d="M424.582 104.82V109.615H429.377V104.82H424.582ZM428.159 106.038H425.8V108.397H428.159V106.038Z" fill="#2A4455"/>
<path fill-rule="evenodd" clip-rule="evenodd" d="M424.582 111.215H429.377V116.01H424.582V111.215ZM425.8 112.433H428.159V114.792H425.8V112.433Z" fill="#2A4455"/>
<path fill-rule="evenodd" clip-rule="evenodd" d="M430.976 104.82V109.615H435.771V104.82H430.976ZM434.552 106.038H432.194V108.397H434.552V106.038Z" fill="#2A4455"/>
<path fill-rule="evenodd" clip-rule="evenodd" d="M430.976 111.215H435.771V116.01H430.976V111.215ZM432.194 112.433H434.552V114.792H432.194V112.433Z" fill="#2A4455"/>
<path fill-rule="evenodd" clip-rule="evenodd" d="M211.941 0V3.8991C197.026 5.1839 185.753 11.099 185.753 18.2019V80.6055H172.962V79.3924H176.007V75.7383H165.045V79.3924H168.09V80.6055H155.301L155.3 77.5625H137.639V80.6055H127.895L127.895 67.2109H0V215.812H127.895V86.6957H137.639V89.7429H140.075V94.6137H141.293V111.06C141.293 114.087 143.747 116.541 146.774 116.541C149.801 116.541 152.255 114.087 152.255 111.06V94.6137H153.474V89.7429H155.3V86.6957H165.045V86.6996H176.007V86.6957H185.752L185.753 190.514C185.753 192.937 187.065 195.223 189.386 197.233L185.753 215.992H192.945L195.833 201.086C200.645 203.143 206.862 204.539 213.768 204.95L213.768 216.003H222.295L222.294 204.95C229.095 204.545 235.229 203.185 240.011 201.178L242.881 215.992H250.073L246.473 197.406C248.92 195.354 250.309 193.008 250.309 190.515V86.6957H260.053V86.6996H271.015V86.6957H280.759L280.76 89.7429H283.196V94.6137H284.414V111.06C284.414 114.087 286.868 116.541 289.895 116.541C292.922 116.541 295.376 114.087 295.376 111.06V94.6137H296.595V89.7429H298.421V86.6957H308.165V89.7429H310.602V94.6137H311.819V111.06C311.819 114.087 314.273 116.541 317.301 116.541C320.328 116.541 322.782 114.087 322.782 111.06V94.6137H324V89.7429H325.827V86.6957H335.571V86.6996H346.534V86.6957H362.368V134.203H353.843V206.07H347.752V215.815H489.045V206.07H482.955V134.203H474.429L474.428 86.6957H484.173V86.6996H495.135V86.6957H504.88V89.7429H507.316V94.6137H508.534V111.06C508.534 114.087 510.988 116.541 514.015 116.541C517.043 116.541 519.497 114.087 519.497 111.06V94.6137H520.715V89.7429H522.542V86.6957H620.594V86.6996H631.556V86.6957H648V80.6055H628.511V79.3924H631.556V75.7383H620.594V79.3924H623.639V80.6055H522.542V77.5625H504.88V80.6055H492.09V79.3924H495.135V75.7383H484.173V79.3924H487.218V80.6055H474.429L474.428 59.2927C474.428 49.1039 467.069 40.6338 457.377 38.9075V26.4098H434.613C433.802 23.2562 430.94 20.9258 427.534 20.9258H409.263C405.857 20.9258 402.995 23.2562 402.185 26.4098H379.422V38.9072C369.728 40.6327 362.368 49.1032 362.368 59.2927V80.6055H343.488V79.3924H346.534V75.7383H335.571V79.3924H338.616V80.6055H325.827L325.827 77.5625H308.165V80.6055H298.421V77.5625H280.76V80.6055H267.97V79.3924H271.015V75.7383H260.053V79.3924H263.098V80.6055H250.309V18.2026C250.309 11.0996 239.036 5.18383 224.121 3.89908V0H211.941ZM363.586 59.2927C363.586 48.5294 372.312 39.804 383.075 39.804C393.838 39.804 402.564 48.5294 402.564 59.2927V94.6172H396.474V126.286H402.564V161.608C402.564 172.372 393.838 181.097 383.075 181.097C372.367 181.097 363.677 172.462 363.587 161.776L363.586 59.2927ZM362.368 81.8235H346.534V85.4776H362.368V81.8235ZM336.789 85.4776H345.316V81.8274H343.488V81.8299H338.616V81.8274H336.789V85.4776ZM335.571 81.8235H325.827V85.4776H335.571V81.8235ZM342.27 79.3938V80.6055H339.834V79.3938H342.27ZM266.752 80.6055H264.316V79.3938H266.752V80.6055ZM260.053 81.8235H250.309V85.4776H260.053V81.8235ZM269.797 85.4776H261.271V81.8274H263.098V81.8299H267.97V81.8274H269.797V85.4776ZM271.015 85.4776H280.759V81.8235H271.015V85.4776ZM155.301 81.8235H165.045V85.4776H155.301V81.8235ZM166.263 85.4776H174.789V81.8274H172.962V81.8299H168.09V81.8274H166.263V85.4776ZM176.007 85.4776H185.752V81.8235H176.007V85.4776ZM171.744 79.3938V80.6055H169.308V79.3938H171.744ZM249.091 80.6055V18.2026C249.091 18.0012 249.08 17.7988 249.057 17.597H187.005C186.982 17.7988 186.971 18.0006 186.971 18.2019V189.91H249.091V86.6957H249.09V80.6055H249.091ZM214.986 214.789V205.012C215.988 205.054 217.004 205.076 218.031 205.076C219.058 205.076 220.074 205.054 221.077 205.012L221.077 214.789H214.986ZM222.903 3.80506V1.21804H213.159V3.80508C214.748 3.69654 216.375 3.64027 218.031 3.64027C219.687 3.64027 221.314 3.69654 222.903 3.80506ZM187.006 191.128C187.356 194.177 190.307 197.264 195.708 199.701C201.359 202.25 209.25 203.858 218.031 203.858C226.812 203.858 234.704 202.25 240.354 199.701C245.755 197.265 248.706 194.177 249.056 191.128H187.006ZM240.354 9.01556C245.041 11.13 247.883 13.7346 248.781 16.3789H187.281C188.179 13.7346 191.021 11.13 195.708 9.01556C201.358 6.46654 209.25 4.85832 218.031 4.85832C226.813 4.85832 234.704 6.46654 240.354 9.01556ZM190.461 198.091L187.23 214.774H191.941L194.691 200.573C193.093 199.818 191.673 198.987 190.461 198.091ZM241.155 200.674L243.886 214.774H248.597L245.394 198.242C244.173 199.12 242.75 199.935 241.155 200.674ZM1.21804 68.429H126.677V214.594H1.21804V68.429ZM137.639 81.8235V85.4776H127.895V81.8235H137.639ZM138.857 88.5249H140.075V88.5234H143.12V78.7812H144.338V88.5234H148.602V78.7812H149.82V88.5234H153.474V88.5249H154.082V78.7805H138.857V88.5249ZM495.135 81.8235H504.88V85.4776H495.135V81.8235ZM490.872 80.6055H488.436V79.3938H490.872V80.6055ZM484.173 85.4776H474.429V81.8235H484.173V85.4776ZM493.917 85.4776H485.391V81.8274H487.218V81.8299H492.09V81.8274H493.917V85.4776ZM624.857 80.6055H627.293V79.3938H624.857V80.6055ZM522.548 81.8235H620.594V85.4776H522.548V81.8235ZM621.812 85.4776H630.338V81.8274H628.511V81.8299H623.639V81.8274H621.812V85.4776ZM646.782 85.4776H631.556V81.8235H646.782V85.4776ZM506.098 88.5249V78.7805H521.323V88.5249H520.715V88.5234H517.06V78.7812H515.842V88.5234H511.579V78.7812H510.361V88.5234H507.316V88.5249H506.098ZM308.165 81.8235V85.4776H298.421V81.8235H308.165ZM309.383 88.5249H310.602V88.5234H313.646V78.7812H314.865V88.5234H319.128V78.7812H320.346V88.5234H324V88.5249H324.609V78.7805H309.383V88.5249ZM297.203 78.7805V88.5249H296.595V88.5234H292.941V78.7812H291.723V88.5234H287.459V78.7812H286.241V88.5234H283.196V88.5249H281.978V78.7805H297.203ZM141.293 89.7429V93.3956H152.256V89.7429H141.293ZM151.037 94.6165H142.511V111.06C142.511 113.415 144.42 115.323 146.774 115.323C149.129 115.323 151.037 113.415 151.037 111.06V94.6165ZM284.414 93.3956V89.7429H295.377V93.3956H284.414ZM285.632 94.6165H294.158V111.06C294.158 113.415 292.25 115.323 289.895 115.323C287.541 115.323 285.632 113.415 285.632 111.06V94.6165ZM311.82 89.7429V93.3956H322.782V89.7429H311.82ZM321.564 94.6165H313.037V111.06C313.037 113.415 314.946 115.323 317.301 115.323C319.655 115.323 321.564 113.415 321.564 111.06V94.6165ZM508.534 93.3956V89.7429H519.497V93.3956H508.534ZM509.752 94.6165H518.279V111.06C518.279 113.415 516.37 115.323 514.015 115.323C511.661 115.323 509.752 113.415 509.752 111.06V94.6165ZM166.263 76.9563H174.789V78.1744H166.263V76.9563ZM269.797 76.9563H261.271V78.1744H269.797V76.9563ZM621.812 76.9563H630.338V78.1744H621.812V76.9563ZM493.917 76.9563H485.391V78.1744H493.917V76.9563ZM336.789 76.9563H345.316V78.1744H336.789V76.9563ZM409.263 22.1438H427.534C430.898 22.1438 433.624 24.8705 433.624 28.234V31.8882C433.624 35.2517 430.898 37.9784 427.534 37.9784H409.263C405.9 37.9784 403.173 35.2517 403.173 31.8882V28.2341C403.173 24.8705 405.9 22.1438 409.263 22.1438ZM401.955 28.2341C401.955 28.0299 401.963 27.8277 401.98 27.6278H380.64V38.7276C381.438 38.634 382.251 38.5859 383.075 38.5859C383.899 38.5859 384.713 38.6341 385.512 38.7278V32.5H401.98C401.964 32.2983 401.955 32.0942 401.955 31.8882V28.2341ZM434.842 28.234C434.842 27.6219 434.767 27.0274 434.625 26.4592C434.72 26.8379 434.785 27.2283 434.818 27.6278H456.159V38.7278C455.359 38.6341 454.546 38.5859 453.721 38.5859C452.898 38.5859 452.085 38.634 451.286 38.7276V32.5H434.818C434.784 32.9169 434.715 33.3239 434.613 33.718H450.068V38.9072C440.375 40.6326 433.015 49.1032 433.015 59.2927V94.6172H403.782V59.2927C403.782 49.1039 396.423 40.6338 386.73 38.9075V33.718H402.186L402.183 33.7069C402.992 36.8632 405.855 39.1964 409.263 39.1964H427.534C431.57 39.1964 434.842 35.9244 434.842 31.8882V28.234ZM363.587 168.624C366.062 175.498 372.071 180.685 379.421 181.994V194.496H457.376V181.994C464.728 180.684 470.737 175.496 473.211 168.621V206.07H363.587V168.624ZM380.639 193.278V182.173C381.438 182.267 382.251 182.315 383.075 182.315C383.899 182.315 384.712 182.267 385.511 182.173V188.406H451.286V182.173C452.085 182.267 452.897 182.315 453.721 182.315C454.546 182.315 455.359 182.267 456.158 182.173V193.278H380.639ZM386.73 187.188V181.994C396.423 180.268 403.782 171.797 403.782 161.608V126.286H433.015V161.608C433.015 171.798 440.374 180.268 450.068 181.994V187.188H386.73ZM434.233 161.608V126.286H440.323V94.6172H434.233V59.2927C434.233 48.5294 442.958 39.804 453.721 39.804C464.485 39.804 473.21 48.5294 473.21 59.2927V161.608C473.21 172.372 464.485 181.097 453.721 181.097C442.958 181.097 434.233 172.372 434.233 161.608ZM362.368 135.421V161.608L362.368 161.668L362.368 161.713L362.369 161.781V206.068H355.061V135.421H362.368ZM439.105 95.8352H397.692V125.068H439.105V95.8352ZM481.737 206.068V135.421H474.429V206.068H481.737ZM348.97 207.288H487.827V214.597H348.97V207.288Z" fill="#2A4455"/>
<rect x="87" y="169" width="24" height="24" rx="8" fill="#1A66AE"/>
<path d="M100.283 186H98.1709V180.217C98.1709 180.057 98.1732 179.861 98.1777 179.629C98.1823 179.392 98.1891 179.15 98.1982 178.904C98.2074 178.654 98.2165 178.428 98.2256 178.228C98.1755 178.287 98.0729 178.389 97.918 178.535C97.7676 178.676 97.6263 178.804 97.4941 178.918L96.3457 179.841L95.3271 178.569L98.5469 176.006H100.283V186Z" fill="white"/>
<rect x="134" y="49" width="24" height="24" rx="8" fill="#1A66AE"/>
<path d="M149.047 66H142.061V64.5303L144.569 61.9941C145.075 61.4746 145.481 61.0417 145.786 60.6953C146.096 60.3444 146.319 60.0254 146.456 59.7383C146.597 59.4512 146.668 59.1436 146.668 58.8154C146.668 58.4189 146.556 58.1227 146.333 57.9268C146.114 57.7262 145.82 57.626 145.451 57.626C145.064 57.626 144.688 57.7148 144.323 57.8926C143.959 58.0703 143.578 58.3232 143.182 58.6514L142.033 57.291C142.32 57.0449 142.623 56.8125 142.942 56.5938C143.266 56.375 143.64 56.1995 144.063 56.0674C144.492 55.9307 145.005 55.8623 145.602 55.8623C146.258 55.8623 146.821 55.9808 147.29 56.2178C147.764 56.4548 148.129 56.7783 148.384 57.1885C148.639 57.5941 148.767 58.0544 148.767 58.5693C148.767 59.1208 148.657 59.6243 148.438 60.0801C148.22 60.5358 147.901 60.987 147.481 61.4336C147.067 61.8802 146.565 62.3747 145.978 62.917L144.692 64.127V64.2227H149.047V66Z" fill="white"/>
<rect x="217" y="158" width="24" height="24" rx="8" fill="#1A66AE"/>
<path d="M231.657 167.241C231.657 167.701 231.562 168.1 231.37 168.438C231.179 168.775 230.919 169.05 230.591 169.265C230.267 169.479 229.903 169.636 229.497 169.736V169.777C230.299 169.878 230.908 170.124 231.322 170.516C231.742 170.908 231.951 171.432 231.951 172.088C231.951 172.671 231.808 173.193 231.521 173.653C231.238 174.114 230.8 174.476 230.208 174.74C229.616 175.005 228.852 175.137 227.918 175.137C227.367 175.137 226.852 175.091 226.373 175C225.899 174.913 225.452 174.779 225.033 174.597V172.799C225.462 173.018 225.91 173.184 226.38 173.298C226.849 173.407 227.287 173.462 227.692 173.462C228.449 173.462 228.978 173.332 229.278 173.072C229.584 172.808 229.736 172.439 229.736 171.965C229.736 171.687 229.666 171.452 229.524 171.261C229.383 171.069 229.137 170.924 228.786 170.823C228.44 170.723 227.954 170.673 227.33 170.673H226.571V169.053H227.344C227.959 169.053 228.426 168.996 228.745 168.882C229.069 168.763 229.287 168.604 229.401 168.403C229.52 168.198 229.579 167.966 229.579 167.706C229.579 167.351 229.47 167.073 229.251 166.872C229.032 166.672 228.668 166.571 228.157 166.571C227.838 166.571 227.547 166.612 227.282 166.694C227.022 166.772 226.788 166.868 226.578 166.981C226.368 167.091 226.184 167.198 226.024 167.303L225.047 165.847C225.439 165.564 225.897 165.329 226.421 165.143C226.95 164.956 227.578 164.862 228.308 164.862C229.338 164.862 230.153 165.07 230.755 165.484C231.356 165.899 231.657 166.485 231.657 167.241Z" fill="white"/>
<rect x="277" y="49" width="24" height="24" rx="8" fill="#1A66AE"/>
<path d="M292.272 63.9287H291.069V66H289.005V63.9287H284.739V62.459L289.121 56.0059H291.069V62.2881H292.272V63.9287ZM289.005 62.2881V60.5928C289.005 60.4333 289.007 60.2441 289.012 60.0254C289.021 59.8066 289.03 59.5879 289.039 59.3691C289.048 59.1504 289.057 58.9567 289.066 58.7881C289.08 58.6149 289.089 58.4941 289.094 58.4258H289.039C288.952 58.6126 288.861 58.7949 288.766 58.9727C288.67 59.1458 288.558 59.3281 288.431 59.5195L286.599 62.2881H289.005Z" fill="white"/>
<rect x="305" y="49" width="24" height="24" rx="8" fill="#1A66AE"/>
<path d="M312.992 61.7549C312.992 61.1807 313.033 60.6133 313.115 60.0527C313.202 59.4876 313.35 58.9567 313.56 58.46C313.769 57.9587 314.063 57.5166 314.441 57.1338C314.82 56.7464 315.3 56.4434 315.884 56.2246C316.467 56.0013 317.174 55.8896 318.003 55.8896C318.199 55.8896 318.427 55.8988 318.687 55.917C318.951 55.9307 319.17 55.9557 319.343 55.9922V57.6807C319.16 57.6396 318.965 57.6077 318.755 57.585C318.55 57.5576 318.345 57.5439 318.14 57.5439C317.31 57.5439 316.668 57.6761 316.212 57.9404C315.761 58.2048 315.442 58.5716 315.255 59.041C315.073 59.5059 314.965 60.0482 314.934 60.668H315.022C315.15 60.4447 315.31 60.2464 315.501 60.0732C315.697 59.9001 315.934 59.7633 316.212 59.6631C316.49 59.5583 316.816 59.5059 317.189 59.5059C317.773 59.5059 318.279 59.6312 318.707 59.8818C319.135 60.1279 319.466 60.4857 319.698 60.9551C319.931 61.4245 320.047 61.9964 320.047 62.6709C320.047 63.391 319.908 64.0107 319.63 64.5303C319.352 65.0498 318.958 65.4486 318.447 65.7266C317.941 66 317.34 66.1367 316.643 66.1367C316.132 66.1367 315.656 66.0501 315.214 65.877C314.772 65.6992 314.384 65.4303 314.052 65.0703C313.719 64.7103 313.459 64.2568 313.272 63.71C313.086 63.1585 312.992 62.5068 312.992 61.7549ZM316.602 64.4482C317.016 64.4482 317.354 64.307 317.613 64.0244C317.873 63.7419 318.003 63.2998 318.003 62.6982C318.003 62.2106 317.889 61.8278 317.661 61.5498C317.438 61.2673 317.098 61.126 316.643 61.126C316.333 61.126 316.059 61.1966 315.822 61.3379C315.59 61.4746 315.41 61.6501 315.282 61.8643C315.155 62.0739 315.091 62.2904 315.091 62.5137C315.091 62.7461 315.123 62.9762 315.187 63.2041C315.25 63.432 315.346 63.6393 315.474 63.8262C315.601 64.013 315.758 64.1634 315.945 64.2773C316.137 64.3913 316.355 64.4482 316.602 64.4482Z" fill="white"/>
<rect x="442" y="144" width="24" height="24" rx="8" fill="#1A66AE"/>
<path d="M451.052 161L454.805 152.783H449.876V151.006H457.047V152.332L453.267 161H451.052Z" fill="white"/>
<rect x="502" y="49" width="24" height="24" rx="8" fill="#1A66AE"/>
<path d="M513.506 55.876C514.08 55.876 514.609 55.9648 515.092 56.1426C515.579 56.3203 515.969 56.5892 516.261 56.9492C516.552 57.3047 516.698 57.7513 516.698 58.2891C516.698 58.6901 516.618 59.041 516.459 59.3418C516.304 59.6426 516.092 59.9069 515.823 60.1348C515.554 60.3581 515.249 60.554 514.907 60.7227C515.263 60.9095 515.6 61.1283 515.919 61.3789C516.238 61.625 516.498 61.9144 516.698 62.2471C516.903 62.5798 517.006 62.9671 517.006 63.4092C517.006 63.9652 516.858 64.4482 516.562 64.8584C516.265 65.264 515.855 65.5785 515.331 65.8018C514.807 66.0251 514.199 66.1367 513.506 66.1367C512.758 66.1367 512.123 66.0296 511.599 65.8154C511.075 65.6012 510.676 65.2959 510.402 64.8994C510.129 64.4984 509.992 64.0199 509.992 63.4639C509.992 63.0081 510.076 62.6117 510.245 62.2744C510.418 61.9372 510.651 61.6478 510.942 61.4062C511.234 61.1602 511.555 60.9505 511.906 60.7773C511.61 60.5905 511.339 60.3786 511.093 60.1416C510.851 59.9046 510.658 59.6335 510.512 59.3281C510.37 59.0228 510.3 58.6719 510.3 58.2754C510.3 57.7467 510.448 57.3047 510.744 56.9492C511.045 56.5938 511.439 56.3271 511.927 56.1494C512.414 55.9671 512.941 55.876 513.506 55.876ZM511.947 63.3408C511.947 63.7008 512.075 63.9993 512.33 64.2363C512.59 64.4688 512.973 64.585 513.479 64.585C514.003 64.585 514.395 64.4733 514.654 64.25C514.914 64.0221 515.044 63.7236 515.044 63.3545C515.044 63.0993 514.969 62.876 514.818 62.6846C514.673 62.4932 514.488 62.3223 514.265 62.1719C514.041 62.0169 513.816 61.8734 513.588 61.7412L513.403 61.6455C513.112 61.7777 512.856 61.9258 512.638 62.0898C512.424 62.2539 512.255 62.4385 512.132 62.6436C512.009 62.8486 511.947 63.0811 511.947 63.3408ZM513.492 57.4209C513.146 57.4209 512.859 57.5098 512.631 57.6875C512.403 57.8652 512.289 58.1159 512.289 58.4395C512.289 58.6673 512.344 58.8678 512.453 59.041C512.567 59.2096 512.715 59.3577 512.897 59.4854C513.084 59.613 513.287 59.7314 513.506 59.8408C513.715 59.7406 513.911 59.6289 514.094 59.5059C514.276 59.3828 514.424 59.2347 514.538 59.0615C514.652 58.8883 514.709 58.681 514.709 58.4395C514.709 58.1159 514.593 57.8652 514.36 57.6875C514.132 57.5098 513.843 57.4209 513.492 57.4209Z" fill="white"/>
</svg>
