<svg width="544" height="229" viewBox="0 0 544 229" fill="none" xmlns="http://www.w3.org/2000/svg">
<path d="M346.39 162.81C349.23 148.71 350.65 132.682 350.65 114.728C350.65 101.478 349.81 89.2978 348.13 78.1868H301.785C301.688 77.4425 301.587 76.7083 301.482 75.9844H347.783C346.429 67.6961 344.596 60.0184 342.282 52.9512C337.665 38.7612 330.998 27.3513 322.281 18.7213H221.725C213.196 27.4267 206.828 38.8874 202.623 53.1034C200.565 60.1597 198.934 67.8161 197.728 76.0725L197.741 75.9844H244.062C244.235 74.7167 244.418 73.4803 244.612 72.2754C245.501 67.0356 246.659 62.3999 248.087 58.3684H201.195C201.646 56.5791 202.122 54.8254 202.623 53.1073C202.978 51.9047 203.35 50.7218 203.736 49.5586H252.213C252.844 48.5417 253.505 47.5931 254.197 46.7127C258.659 40.9307 264.846 38.0397 272.757 38.0397C280.566 38.0397 286.703 40.9307 291.165 46.7127C291.873 47.5931 292.548 48.5417 293.192 49.5586H341.119C341.52 50.6725 341.908 51.8047 342.282 52.9551C342.86 54.7214 343.408 56.5259 343.927 58.3684H297.394C298.844 62.3999 300.013 67.0356 300.902 72.2754C302.829 83.6365 303.792 97.7873 303.792 114.728C303.792 116.149 303.786 117.551 303.772 118.934H350.623C350.614 119.671 350.602 120.405 350.588 121.136H303.745C303.596 130.979 303.096 139.788 302.246 147.562H348.817C348.546 149.806 348.245 152.008 347.914 154.17H301.402C301.348 154.54 301.292 154.908 301.236 155.273H347.743C347.626 156.012 347.505 156.747 347.38 157.476H300.877C298.947 168.664 295.71 177.086 291.165 182.743C286.703 188.322 280.566 191.111 272.757 191.111C264.846 191.111 258.659 188.271 254.197 182.59C249.734 176.91 246.539 168.44 244.612 157.18C244.454 156.197 244.303 155.194 244.159 154.17H198.151C197.999 153.258 197.853 152.339 197.712 151.413C197.909 152.714 198.118 154.001 198.338 155.273H244.318C244.413 155.917 244.511 156.553 244.612 157.18C244.629 157.279 244.646 157.377 244.663 157.476H198.733C199.964 164.107 201.514 170.348 203.384 176.2C205.171 181.76 207.276 186.899 209.7 191.617H336.985C341.144 183.28 344.279 173.678 346.39 162.81Z" fill="#991C12"/>
<path d="M197.196 147.779C196.091 139.45 195.438 130.569 195.236 121.136H241.919C241.909 120.408 241.9 119.673 241.893 118.934H195.197C195.178 117.543 195.168 116.141 195.168 114.728C195.168 101.486 195.922 89.3054 197.43 78.1868H243.776C242.508 88.4297 241.874 100.61 241.874 114.728C241.874 127.18 242.367 138.125 243.353 147.562H197.168C197.177 147.635 197.187 147.707 197.196 147.779Z" fill="#991C12"/>
<path d="M228.79 215.457C227.204 214.193 225.675 212.854 224.204 211.439H322.736C318.653 215.319 314.062 218.586 308.965 221.239C299.025 226.412 286.956 228.999 272.757 228.999C254.907 228.999 240.251 224.485 228.79 215.457Z" fill="#991C12"/>
<path d="M210.872 193.82C212.597 196.953 214.47 199.889 216.493 202.629H330.395C331.3 201.369 332.169 200.066 333.002 198.719C333.995 197.141 334.943 195.508 335.846 193.82H210.872Z" fill="#991C12"/>
<path d="M316.572 13.6943C316.919 13.9658 317.264 14.2409 317.607 14.5197L317.521 14.4502C317.466 14.4055 317.411 14.3609 317.356 14.3164H226.507C226.759 14.107 227.013 13.8996 227.269 13.6943C238.628 4.56476 253.791 0 272.757 0C290.506 0 305.111 4.56476 316.572 13.6943Z" fill="#991C12"/>
<path d="M176.461 179.852H149.685V225.956H103.74V211.439H149.684V202.629H103.74V193.82H149.684V191.617H103.74V179.852H8.80863V157.476H176.46V155.273H8.80863V154.17H176.46V147.562H8.80863V147.138L26.4616 121.136H64.8756L50.1892 143.334H103.74L103.74 121.136H149.685V118.934H103.74L103.74 105.598C103.74 102.048 103.791 97.8384 103.893 92.9693L104.501 78.362C104.704 73.493 104.907 69.1818 105.11 65.4286C105.356 62.3132 105.535 59.9598 105.649 58.3684H149.685V49.5586H75.0591L69.078 58.3684H104.033C102.246 62.177 100.374 65.8998 98.4157 69.5368C97.2611 71.6264 96.0023 73.7756 94.6391 75.9844H57.1159L95.9926 18.7213H149.685V14.3164H98.9832L106.327 3.5H149.685L149.685 75.9844H104.602C104.571 76.7053 104.54 77.4395 104.508 78.1868H149.685L149.685 143.334H176.461V179.852Z" fill="#991C12"/>
<path d="M66.3328 118.934L90.9612 81.7095C91.7544 80.5195 92.52 79.3452 93.2578 78.1868H55.6206L27.9569 118.934H66.3328Z" fill="#991C12"/>
<path d="M535.189 179.852H508.414V225.956H462.469V211.439H508.412V202.629H462.469V193.82H508.412V191.617H462.469V179.852H367.537V157.476H535.189V155.273H367.537V154.17H535.189V147.562H367.537V147.138L385.19 121.136H423.604L408.918 143.334H462.469L462.469 121.136H508.414L508.414 143.334H535.189V179.852Z" fill="#991C12"/>
<path d="M508.414 118.934L508.414 78.1868H463.237C463.268 77.4395 463.3 76.7053 463.331 75.9844H508.414L508.414 3.5H465.055L457.712 14.3164H508.414V18.7213H454.721L415.845 75.9844H453.368C454.731 73.7756 455.99 71.6264 457.144 69.5368C459.103 65.8998 460.975 62.177 462.762 58.3684H427.807L433.788 49.5586H508.413V58.3684H464.377C464.264 59.9598 464.084 62.3132 463.838 65.4286C463.635 69.1818 463.433 73.493 463.23 78.362L462.621 92.9693C462.52 97.8384 462.469 102.048 462.469 105.598L462.469 118.934H508.414Z" fill="#991C12"/>
<path d="M425.062 118.934L449.69 81.7095C450.483 80.5195 451.249 79.3452 451.987 78.1868H414.349L386.686 118.934H425.062Z" fill="#991C12"/>
<path d="M239.341 18.7213H339.897C338.322 17.1623 336.681 15.694 334.972 14.3164H244.124C242.46 15.6966 240.866 17.165 239.341 18.7213Z" fill="#991C12"/>
<path d="M116.6 14.3164H167.301V18.7213H113.609L116.6 14.3164Z" fill="#991C12"/>
<path d="M475.329 14.3164L472.338 18.7213H526.03V14.3164H475.329Z" fill="#991C12"/>
<path d="M215.046 78.1868H261.391C261.483 77.4425 261.579 76.7083 261.678 75.9844H215.356C215.249 76.7138 215.146 77.448 215.046 78.1868Z" fill="#991C12"/>
<path d="M73.2363 78.1868L74.7316 75.9844H112.255C111.806 76.7121 111.345 77.4462 110.874 78.1868H73.2363Z" fill="#991C12"/>
<path d="M122.124 78.1868H167.301V75.9844H122.218C122.187 76.7053 122.155 77.4395 122.124 78.1868Z" fill="#991C12"/>
<path d="M365.399 75.9844H319.098C319.202 76.7083 319.303 77.4425 319.4 78.1868H365.745C365.633 77.448 365.518 76.7138 365.399 75.9844Z" fill="#991C12"/>
<path d="M526.029 75.9844V78.1868H480.853C480.884 77.4395 480.915 76.7053 480.946 75.9844H526.029Z" fill="#991C12"/>
<path d="M433.46 75.9844L431.965 78.1868H469.602C470.074 77.4462 470.534 76.7121 470.983 75.9844H433.46Z" fill="#991C12"/>
<path d="M345.796 191.617H218.507C218.89 192.362 219.28 193.096 219.678 193.82H344.657C345.045 193.096 345.424 192.361 345.796 191.617Z" fill="#991C12"/>
<path d="M517.223 193.82H471.278V191.617H517.223V193.82Z" fill="#991C12"/>
<path d="M158.494 193.82V191.617H112.549V193.82H158.494Z" fill="#991C12"/>
<path d="M186.428 121.136H233.111C233.1 120.408 233.092 119.673 233.085 118.934H186.389C186.399 119.671 186.412 120.405 186.428 121.136Z" fill="#991C12"/>
<path d="M17.6535 121.136L19.1487 118.934H57.5247L56.0675 121.136H17.6535Z" fill="#991C12"/>
<path d="M94.9323 121.136H140.877V118.934H94.9323V121.136Z" fill="#991C12"/>
<path d="M341.815 118.934H294.964C294.957 119.673 294.948 120.408 294.937 121.136H341.78C341.794 120.405 341.806 119.671 341.815 118.934Z" fill="#991C12"/>
<path d="M499.606 118.934V121.136H453.661V118.934H499.606Z" fill="#991C12"/>
<path d="M377.877 118.934L376.382 121.136H414.796L416.253 118.934H377.877Z" fill="#991C12"/>
<path d="M198.733 157.476H244.663C244.646 157.377 244.629 157.279 244.612 157.18C244.511 156.553 244.413 155.917 244.318 155.273H198.338C198.466 156.012 198.597 156.746 198.733 157.476Z" fill="#991C12"/>
<path d="M8.80863 155.273H176.46V157.476H8.80863V155.273Z" fill="#991C12"/>
<path d="M347.743 155.273H301.236C301.128 155.97 301.015 156.656 300.901 157.332C300.893 157.38 300.885 157.428 300.877 157.476H347.38C347.505 156.747 347.626 156.012 347.743 155.273Z" fill="#991C12"/>
<path d="M535.189 157.476H367.537V155.273H535.189V157.476Z" fill="#991C12"/>
<path d="M183.579 58.3684H230.472C231.66 55.0133 233.036 52.0767 234.598 49.5586H186.12C185.733 50.7218 185.362 51.9047 185.006 53.1073C184.505 54.8254 184.029 56.5791 183.579 58.3684Z" fill="#991C12"/>
<path d="M57.4424 49.5586H132.068V58.3684H88.0319C88.0587 57.9924 88.0817 57.6589 88.1011 57.3681H86.8841C86.7293 57.7022 86.5738 58.0356 86.4177 58.3684H51.4612L57.4424 49.5586Z" fill="#991C12"/>
<path d="M323.502 49.5586H275.573C277.168 52.0767 278.569 55.0133 279.776 58.3684H326.31C325.792 56.5259 325.243 54.7214 324.665 52.9551C324.291 51.8047 323.903 50.6725 323.502 49.5586Z" fill="#991C12"/>
<path d="M490.797 49.5586V58.3684H446.761C446.787 57.9924 446.81 57.6589 446.83 57.3681H445.613C445.458 57.7022 445.303 58.0356 445.146 58.3684H410.19L416.171 49.5586H490.797Z" fill="#991C12"/>
<path d="M321.589 202.629H207.682C210.048 205.835 212.618 208.771 215.391 211.439H313.932C316.721 208.788 319.273 205.852 321.589 202.629Z" fill="#991C12"/>
<path d="M499.605 211.439H453.661V202.629H499.605V211.439Z" fill="#991C12"/>
<path d="M140.877 211.439V202.629H94.9321V211.439H140.877Z" fill="#991C12"/>
<path d="M189.343 154.17H235.351C235.053 152.056 234.785 149.854 234.545 147.562H188.36C188.655 149.805 188.982 152.007 189.343 154.17Z" fill="#991C12"/>
<path d="M0 147.562H167.652V154.17H0V147.562Z" fill="#991C12"/>
<path d="M340.009 147.562H293.437C293.186 149.855 292.905 152.057 292.593 154.17H339.106C339.437 152.008 339.738 149.806 340.009 147.562Z" fill="#991C12"/>
<path d="M526.381 154.17H358.729V147.562H526.381V154.17Z" fill="#991C12"/>
<path fill-rule="evenodd" clip-rule="evenodd" d="M359.43 118.934C359.448 117.544 359.457 116.142 359.457 114.728C359.457 101.478 358.617 89.2978 356.936 78.1868H310.592C310.495 77.4425 310.394 76.7083 310.29 75.9844H356.59C355.236 67.6961 353.402 60.0184 351.089 52.9512C346.472 38.7613 339.805 27.3513 331.088 18.7213H230.532C232.057 17.1649 233.651 15.6966 235.314 14.3164H326.163C325.903 14.1069 325.641 13.8996 325.379 13.6943C313.918 4.56476 299.313 0 281.564 0C262.598 0 247.435 4.56476 236.076 13.6943C224.716 22.8238 216.501 35.9602 211.43 53.1034C206.46 70.1451 203.975 90.6866 203.975 114.728C203.975 138.566 206.714 159.057 212.191 176.2C213.978 181.76 216.083 186.899 218.507 191.617H345.792C349.951 183.28 353.086 173.678 355.197 162.81C355.549 161.061 355.879 159.283 356.188 157.476H309.686L309.711 157.332C309.825 156.656 309.937 155.97 310.044 155.273H356.55C356.609 154.907 356.666 154.539 356.722 154.17H310.211C310.522 152.057 310.804 149.855 311.054 147.562H357.625C358.622 139.306 359.211 130.497 359.395 121.136H312.553C312.564 120.408 312.573 119.673 312.581 118.934H359.43ZM250.7 118.934C250.687 117.551 250.681 116.149 250.681 114.728C250.681 100.61 251.315 88.4297 252.582 78.1868H206.238C206.338 77.448 206.441 76.7138 206.548 75.9844H252.869C253.042 74.7167 253.225 73.4803 253.419 72.2754C254.308 67.0356 255.466 62.3999 256.894 58.3684H210.003C210.453 56.5791 210.929 54.8254 211.43 53.1073C211.786 51.9047 212.157 50.7218 212.544 49.5586H261.02C261.651 48.5417 262.312 47.5931 263.003 46.7127C267.466 40.9307 273.653 38.0397 281.564 38.0397C289.373 38.0397 295.509 40.9307 299.972 46.7127C300.679 47.5931 301.355 48.5417 301.999 49.5586H349.926C350.327 50.6725 350.715 51.8047 351.089 52.9551C351.668 54.7214 352.216 56.5259 352.734 58.3684H306.201C307.651 62.3999 308.82 67.0356 309.709 72.2754C311.636 83.6365 312.599 97.7873 312.599 114.728C312.599 131.769 311.636 145.971 309.709 157.332C307.782 168.592 304.536 177.062 299.972 182.743C295.509 188.322 289.373 191.111 281.564 191.111C273.653 191.111 267.466 188.271 263.003 182.59C258.58 176.96 255.402 168.588 253.47 157.476H207.542C207.406 156.746 207.275 156.012 207.147 155.273H253.125C253.071 154.908 253.018 154.54 252.966 154.17H206.96C206.6 152.007 206.272 149.805 205.977 147.562H252.16C251.347 139.779 250.869 130.97 250.726 121.136H204.044C204.029 120.405 204.016 119.671 204.006 118.934H250.7Z" fill="#BC0000"/>
<path d="M237.597 215.457C236.011 214.193 234.482 212.854 233.01 211.439H331.543C327.459 215.319 322.869 218.586 317.772 221.239C307.832 226.412 295.763 228.999 281.564 228.999C263.713 228.999 249.058 224.485 237.597 215.457Z" fill="#BC0000"/>
<path d="M219.679 193.82C221.404 196.953 223.277 199.889 225.3 202.629H339.202C340.107 201.369 340.976 200.066 341.809 198.719C342.801 197.141 343.749 195.508 344.653 193.82H219.679Z" fill="#BC0000"/>
<path d="M185.268 179.852H158.492V191.617H112.548V193.82H158.492V202.629H112.548V211.439H158.492V225.956H112.547V179.852H17.6155V147.138L115.134 3.5H158.492V14.3164H107.791L104.8 18.7213H158.492V49.5586H83.8665L77.8853 58.3684H112.84C111.053 62.177 109.181 65.8998 107.223 69.5368C106.068 71.6264 104.809 73.7756 103.446 75.9844H65.9233L64.428 78.1868H102.065C101.327 79.3452 100.561 80.5195 99.7681 81.7095L75.1398 118.934H36.7652L35.2699 121.136H73.6826L58.996 143.334H112.547V105.598C112.547 102.048 112.598 97.8384 112.699 92.9693L113.308 78.362C113.511 73.493 113.714 69.1818 113.917 65.4286C114.221 61.5772 114.423 58.8903 114.525 57.3681C114.505 57.6589 114.483 57.9924 114.456 58.3684H158.492V75.9844H113.41C113.378 76.7053 113.347 77.4395 113.316 78.1868H158.492V118.934H112.549V121.136H158.492V143.334H185.268V147.562H17.6174V154.17H185.268V155.273H17.6174V157.476H185.268V179.852Z" fill="#BC0000"/>
<path d="M543.996 179.852H517.221V191.617H471.276V193.82H517.221V202.629H471.276V211.439H517.221V225.956H471.276V179.852H376.344V147.138L423.157 78.1868H460.793C460.056 79.3452 459.29 80.5195 458.497 81.7095L433.868 118.934H395.494L393.999 121.136H432.411L417.725 143.334H471.276V105.598C471.276 102.048 471.327 97.8384 471.428 92.9693L472.037 78.362C472.24 73.493 472.442 69.1818 472.645 65.4286C472.949 61.5772 473.152 58.8903 473.253 57.3681C473.244 57.5168 473.233 57.6766 473.221 57.8476C473.21 58.011 473.198 58.1846 473.185 58.3684H517.221L517.221 75.9844H472.138C472.107 76.7053 472.076 77.4395 472.045 78.1868H517.221V118.934H471.277V121.136H517.221V143.334H543.996V147.562H376.346V154.17H543.996V155.273H376.346V157.476H543.996V179.852Z" fill="#BC0000"/>
<path d="M517.221 49.5586L517.221 18.7213H463.529L424.652 75.9844H462.175C463.538 73.7756 464.797 71.6264 465.951 69.5368C467.909 65.8998 469.782 62.177 471.568 58.3684H436.614L442.595 49.5586H517.221Z" fill="#BC0000"/>
<path d="M517.221 14.3164H466.519L473.862 3.5H517.221V14.3164Z" fill="#BC0000"/>
<path d="M248.147 18.7213H348.703C347.128 17.1623 345.487 15.694 343.778 14.3164H252.929C251.266 15.6966 249.672 17.165 248.147 18.7213Z" fill="#BC0000"/>
<path d="M125.406 14.3164H176.107V18.7213H122.415L125.406 14.3164Z" fill="#BC0000"/>
<path d="M484.134 14.3164L481.144 18.7213H534.836V14.3164H484.134Z" fill="#BC0000"/>
<path d="M223.852 78.1868H270.197C270.289 77.4425 270.385 76.7083 270.484 75.9844H224.162C224.055 76.7138 223.952 77.448 223.852 78.1868Z" fill="#BC0000"/>
<path d="M82.0422 78.1868L83.5375 75.9844H121.061C120.612 76.7121 120.151 77.4462 119.679 78.1868H82.0422Z" fill="#BC0000"/>
<path d="M130.93 78.1868H176.107V75.9844H131.024C130.992 76.7053 130.961 77.4395 130.93 78.1868Z" fill="#BC0000"/>
<path d="M374.205 75.9844H327.904C328.008 76.7083 328.109 77.4425 328.206 78.1868H374.551C374.439 77.448 374.324 76.7138 374.205 75.9844Z" fill="#BC0000"/>
<path d="M534.835 75.9844V78.1868H489.659C489.69 77.4395 489.721 76.7053 489.752 75.9844H534.835Z" fill="#BC0000"/>
<path d="M442.266 75.9844L440.771 78.1868H478.408C478.88 77.4462 479.34 76.7121 479.789 75.9844H442.266Z" fill="#BC0000"/>
<path d="M354.6 191.617H227.311C227.694 192.362 228.084 193.096 228.483 193.82H353.461C353.849 193.096 354.229 192.361 354.6 191.617Z" fill="#BC0000"/>
<path d="M526.027 193.82H480.082V191.617H526.027V193.82Z" fill="#BC0000"/>
<path d="M167.298 193.82V191.617H121.354V193.82H167.298Z" fill="#BC0000"/>
<path d="M195.233 121.136H241.916C241.905 120.408 241.896 119.673 241.889 118.934H195.194C195.204 119.671 195.217 120.405 195.233 121.136Z" fill="#BC0000"/>
<path d="M26.4581 121.136L27.9534 118.934H66.3294L64.8722 121.136H26.4581Z" fill="#BC0000"/>
<path d="M103.737 121.136H149.682V118.934H103.737V121.136Z" fill="#BC0000"/>
<path d="M350.62 118.934H303.769C303.762 119.673 303.752 120.408 303.741 121.136H350.584C350.599 120.405 350.61 119.671 350.62 118.934Z" fill="#BC0000"/>
<path d="M508.41 118.934V121.136H462.466V118.934H508.41Z" fill="#BC0000"/>
<path d="M386.682 118.934L385.187 121.136H423.601L425.058 118.934H386.682Z" fill="#BC0000"/>
<path d="M207.539 157.476H253.47C253.453 157.377 253.436 157.279 253.419 157.18C253.318 156.553 253.22 155.917 253.125 155.273H207.145C207.272 156.012 207.404 156.746 207.539 157.476Z" fill="#BC0000"/>
<path d="M17.6153 155.273H185.268V157.476H17.6153V155.273Z" fill="#BC0000"/>
<path d="M356.55 155.273H310.042C309.934 155.97 309.823 156.656 309.709 157.332C309.7 157.38 309.692 157.428 309.684 157.476H356.188C356.312 156.747 356.433 156.012 356.55 155.273Z" fill="#BC0000"/>
<path d="M543.996 157.476H376.344V155.273H543.996V157.476Z" fill="#BC0000"/>
<path d="M192.383 58.3684H239.276C240.465 55.0133 241.841 52.0767 243.403 49.5586H194.924C194.538 50.7218 194.166 51.9047 193.811 53.1073C193.31 54.8254 192.834 56.5791 192.383 58.3684Z" fill="#BC0000"/>
<path d="M66.247 49.5586H140.873V58.3684H96.8365C96.8633 57.9924 96.8864 57.6589 96.9058 57.3681H95.6887C95.5339 57.7022 95.3784 58.0356 95.2223 58.3684H60.2659L66.247 49.5586Z" fill="#BC0000"/>
<path d="M332.306 49.5586H284.377C285.973 52.0767 287.374 55.0133 288.58 58.3684H335.115C334.596 56.5259 334.048 54.7214 333.47 52.9551C333.096 51.8047 332.708 50.6725 332.306 49.5586Z" fill="#BC0000"/>
<path d="M499.601 49.5586V58.3684H455.565C455.592 57.9924 455.615 57.6589 455.634 57.3681H454.417C454.263 57.7022 454.107 58.0356 453.951 58.3684H418.995L424.976 49.5586H499.601Z" fill="#BC0000"/>
<path d="M330.393 202.629H216.485C218.852 205.835 221.421 208.771 224.195 211.439H322.736C325.524 208.788 328.077 205.852 330.393 202.629Z" fill="#BC0000"/>
<path d="M508.409 211.439H462.464V202.629H508.409V211.439Z" fill="#BC0000"/>
<path d="M149.68 211.439V202.629H103.736V211.439H149.68Z" fill="#BC0000"/>
<path d="M198.147 154.17H244.156C243.858 152.056 243.589 149.854 243.35 147.562H197.164C197.459 149.805 197.787 152.007 198.147 154.17Z" fill="#BC0000"/>
<path d="M8.80469 147.562H176.457V154.17H8.80469V147.562Z" fill="#BC0000"/>
<path d="M348.814 147.562H302.242C301.991 149.855 301.71 152.057 301.398 154.17H347.911C348.242 152.008 348.543 149.806 348.814 147.562Z" fill="#BC0000"/>
<path d="M535.185 154.17H367.533V147.562H535.185V154.17Z" fill="#BC0000"/>
</svg>
