<svg width="46" height="38" viewBox="0 0 46 38" fill="none" xmlns="http://www.w3.org/2000/svg">
<path d="M35.2857 10.2069C35.9169 10.2069 36.4286 10.7318 36.4286 11.3793C36.4286 12.0268 35.9169 12.5517 35.2857 12.5517H33V14.8966C33 15.5441 32.4883 16.069 31.8571 16.069C31.2259 16.069 30.7143 15.5441 30.7143 14.8966V12.5517H28.4286C27.7974 12.5517 27.2857 12.0268 27.2857 11.3793C27.2857 10.7318 27.7974 10.2069 28.4286 10.2069H30.7143V7.86207C30.7143 7.21456 31.2259 6.68966 31.8571 6.68966C32.4883 6.68966 33 7.21456 33 7.86207V10.2069H35.2857Z" fill="white"/>
<path fill-rule="evenodd" clip-rule="evenodd" d="M28.5842 2.00001C28.0074 1.99994 27.4455 1.99987 26.9698 2.03975C26.4473 2.08354 25.8307 2.18687 25.2103 2.51115C24.3502 2.96077 23.6508 3.67819 23.2125 4.56061C22.8964 5.19705 22.7957 5.82953 22.753 6.36554C22.7141 6.85364 22.7142 7.42998 22.7143 8.02177L22.7143 10.2069H14.7143C14.0831 10.2069 13.5714 10.7318 13.5714 11.3793C13.5714 12.0268 14.0831 12.5517 14.7143 12.5517H22.7143L22.7143 14.7369C22.7142 15.3287 22.7141 15.905 22.753 16.3931C22.7957 16.9291 22.8964 17.5616 23.2125 18.198C23.6508 19.0805 24.3502 19.7979 25.2103 20.2475C25.8307 20.5718 26.4473 20.6751 26.9698 20.7189C27.4455 20.7588 28.0074 20.7587 28.5842 20.7586L30.508 20.7586L30.0963 23.293C30.003 23.8673 29.9427 24.2339 29.8762 24.5116C29.8132 24.7749 29.763 24.8735 29.7296 24.9251C29.6102 25.1093 29.4425 25.255 29.2458 25.3456C29.1907 25.3709 29.0876 25.4055 28.8241 25.4259C28.5461 25.4475 28.1837 25.4483 27.6162 25.4483H14.5495C13.9734 25.4483 13.6052 25.4475 13.323 25.4254C13.0551 25.4044 12.9508 25.369 12.8956 25.3432C12.697 25.2506 12.5284 25.1017 12.4096 24.9139C12.3766 24.8617 12.3269 24.7612 12.267 24.4925C12.2039 24.2095 12.1485 23.836 12.063 23.2516L9.67321 6.90755C9.63604 6.65308 9.5993 6.40165 9.55185 6.18897C9.49912 5.95266 9.41667 5.68085 9.24765 5.41355C9.01021 5.03807 8.67298 4.74014 8.27579 4.55495C7.99304 4.42313 7.71878 4.3798 7.48316 4.36136C7.27108 4.34477 7.02325 4.3448 6.77242 4.34483L2.14286 4.34483C1.51167 4.34483 1 4.86974 1 5.51725C1 6.16475 1.51167 6.68966 2.14286 6.68966H6.73954C7.03624 6.68966 7.19498 6.69045 7.30933 6.6994L7.32108 6.70037L7.32376 6.71214C7.34934 6.82681 7.37366 6.9878 7.41767 7.28876L9.80853 23.6401C9.88632 24.1722 9.95397 24.635 10.0389 25.0157C10.1292 25.4203 10.2557 25.8162 10.4921 26.19C10.8482 26.7533 11.3541 27.2002 11.9498 27.4779C12.3453 27.6623 12.7457 27.7319 13.1492 27.7634C13.5287 27.7931 13.985 27.7931 14.5095 27.7931H27.6558C28.1723 27.7931 28.622 27.7931 28.9964 27.7641C29.3947 27.7332 29.79 27.6651 30.1813 27.485C30.7715 27.2134 31.2747 26.776 31.6329 26.2235C31.8704 25.8571 32.0009 25.4684 32.0961 25.0704C32.1856 24.6962 32.2595 24.2412 32.3444 23.7186L32.8253 20.7586L35.13 20.7586C35.7069 20.7587 36.2687 20.7588 36.7445 20.7189C37.267 20.6751 37.8835 20.5718 38.5039 20.2475C39.3641 19.7979 40.0635 19.0805 40.5017 18.198C40.8178 17.5616 40.9186 16.9291 40.9613 16.3931C41.0001 15.905 41.0001 15.3287 41 14.7369V8.02177C41.0001 7.42998 41.0001 6.85364 40.9613 6.36554C40.9186 5.82953 40.8178 5.19705 40.5017 4.56061C40.0635 3.67819 39.3641 2.96077 38.5039 2.51115C37.8835 2.18687 37.267 2.08354 36.7445 2.03975C36.2687 1.99987 35.7069 1.99994 35.1301 2.00001L28.5842 2.00001ZM31.8763 18.4138H35.0571C36.3373 18.4138 36.9773 18.4138 37.4663 18.1582C37.8963 17.9334 38.246 17.5747 38.4651 17.1335C38.7143 16.6319 38.7143 15.9753 38.7143 14.6621V8.09656C38.7143 6.78334 38.7143 6.12672 38.4651 5.62514C38.246 5.18393 37.8963 4.82522 37.4663 4.60041C36.9773 4.34484 36.3373 4.34484 35.0571 4.34484H28.6571C27.377 4.34484 26.737 4.34484 26.248 4.60041C25.8179 4.82522 25.4683 5.18393 25.2491 5.62514C25 6.12672 25 6.78334 25 8.09656V14.6621C25 15.9753 25 16.6319 25.2491 17.1335C25.4683 17.5747 25.8179 17.9334 26.248 18.1582C26.737 18.4138 27.377 18.4138 28.6571 18.4138H31.8352C31.8489 18.4136 31.8626 18.4136 31.8763 18.4138Z" fill="white"/>
<path fill-rule="evenodd" clip-rule="evenodd" d="M17.7634 32.4828C17.7634 34.4253 16.2284 36 14.3348 36C12.4413 36 10.9062 34.4253 10.9062 32.4828C10.9062 30.5402 12.4413 28.9655 14.3348 28.9655C16.2284 28.9655 17.7634 30.5402 17.7634 32.4828ZM15.4777 32.4828C15.4777 33.1303 14.966 33.6552 14.3348 33.6552C13.7036 33.6552 13.192 33.1303 13.192 32.4828C13.192 31.8353 13.7036 31.3103 14.3348 31.3103C14.966 31.3103 15.4777 31.8353 15.4777 32.4828Z" fill="white"/>
<path fill-rule="evenodd" clip-rule="evenodd" d="M28.0491 36C29.9426 36 31.4777 34.4253 31.4777 32.4828C31.4777 30.5402 29.9426 28.9655 28.0491 28.9655C26.1555 28.9655 24.6205 30.5402 24.6205 32.4828C24.6205 34.4253 26.1555 36 28.0491 36ZM28.0491 33.6552C28.6803 33.6552 29.1919 33.1303 29.1919 32.4828C29.1919 31.8353 28.6803 31.3103 28.0491 31.3103C27.4179 31.3103 26.9062 31.8353 26.9062 32.4828C26.9062 33.1303 27.4179 33.6552 28.0491 33.6552Z" fill="white"/>
</svg>
