<svg width="88" height="88" viewBox="0 0 88 88" fill="none" xmlns="http://www.w3.org/2000/svg">
<path d="M14 15H74V63H14V15Z" fill="#F5F5F5"/>
<path d="M14 15H74V23H14V15Z" fill="#BC0000"/>
<path d="M35 51.5C35 55.0899 32.0899 58 28.5 58C24.9101 58 22 55.0899 22 51.5C22 47.9101 24.9101 45 28.5 45C32.0899 45 35 47.9101 35 51.5Z" fill="#2A4455"/>
<path d="M23.3172 60H33.6835H34C38.4183 60 42 63.5817 42 68V70C42 71.1046 41.1046 72 40 72H17C15.8954 72 15 71.1046 15 70V68C15 63.5817 18.5817 60 23 60H23.3172Z" fill="#2A4455"/>
<path d="M63 42C63 47.5228 58.5228 52 53 52C47.4772 52 43 47.5228 43 42C43 36.4772 47.4772 32 53 32C58.5228 32 63 36.4772 63 42Z" fill="#92A7B3"/>
<path d="M45 54C38.3726 54 33 59.3726 33 66V70C33 71.1046 33.8954 72 35 72H71C72.1046 72 73 71.1046 73 70V66C73 59.3726 67.6274 54 61 54H60.7942H45.2058H45Z" fill="#92A7B3"/>
<path d="M21 19C21 20.1046 20.1046 21 19 21C17.8954 21 17 20.1046 17 19C17 17.8954 17.8954 17 19 17C20.1046 17 21 17.8954 21 19Z" fill="#D3D3D3"/>
<path d="M27 19C27 20.1046 26.1046 21 25 21C23.8954 21 23 20.1046 23 19C23 17.8954 23.8954 17 25 17C26.1046 17 27 17.8954 27 19Z" fill="#D3D3D3"/>
<path d="M33 19C33 20.1046 32.1046 21 31 21C29.8954 21 29 20.1046 29 19C29 17.8954 29.8954 17 31 17C32.1046 17 33 17.8954 33 19Z" fill="#D3D3D3"/>
</svg>
