<svg width="88" height="88" viewBox="0 0 88 88" fill="none" xmlns="http://www.w3.org/2000/svg">
<path d="M4.12944 61.5812C3.65667 60.9194 4.1298 60 4.94317 60H17C18.1045 60 19 60.8954 19 62V72C19 73.1046 18.1045 74 17 74H4.94317C4.1298 74 3.65667 73.0806 4.12944 72.4188L7.16964 68.1625C7.66635 67.4671 7.66635 66.5329 7.16964 65.8375L4.12944 61.5812Z" fill="#92A7B3"/>
<path d="M79.8706 72.4188C80.3433 73.0806 79.8702 74 79.0568 74L67 74C65.8955 74 65 73.1046 65 72L65 62C65 60.8954 65.8955 60 67 60L79.0568 60C79.8702 60 80.3433 60.9194 79.8706 61.5812L76.8304 65.8375C76.3337 66.5329 76.3337 67.4671 76.8304 68.1625L79.8706 72.4188Z" fill="#92A7B3"/>
<path d="M15 57C15 55.8954 15.8954 55 17 55H67C68.1046 55 69 55.8954 69 57V69C69 70.1046 68.1046 71 67 71H17C15.8954 71 15 70.1046 15 69V57Z" fill="#D3D3D3"/>
<path d="M38.4788 66.356H36.7768V61.3951H35.2087C35.1306 62.3103 35.0376 63.0897 34.9297 63.7333C34.8218 64.3769 34.6842 64.9014 34.5167 65.3069C34.3493 65.7087 34.141 66.0026 33.8917 66.1886C33.6425 66.3746 33.3356 66.4676 32.971 66.4676C32.7701 66.4676 32.5897 66.4528 32.4297 66.423C32.2734 66.3932 32.1302 66.3486 32 66.2891V64.9275C32.0818 64.9609 32.1693 64.9888 32.2623 65.0112C32.3553 65.0298 32.4501 65.0391 32.5469 65.0391C32.6548 65.0391 32.7571 64.9963 32.8538 64.9107C32.9505 64.8251 33.0417 64.6782 33.1272 64.4699C33.2128 64.2578 33.2928 63.9658 33.3672 63.5938C33.4453 63.2217 33.516 62.7511 33.5792 62.1819C33.6425 61.6127 33.702 60.9245 33.7578 60.1172H38.4788V66.356Z" fill="#2A4455"/>
<path d="M42.8426 60C43.4193 60 43.9159 60.1116 44.3326 60.3348C44.7493 60.5543 45.0711 60.8743 45.298 61.2946C45.5249 61.715 45.6384 62.2284 45.6384 62.8348V63.6607H41.615C41.6336 64.1406 41.7768 64.5182 42.0446 64.7935C42.3162 65.0651 42.692 65.2009 43.1719 65.2009C43.5699 65.2009 43.9345 65.16 44.2656 65.0781C44.5967 64.9963 44.9371 64.8735 45.2868 64.7098V66.0268C44.9781 66.1793 44.6544 66.2909 44.3158 66.3616C43.981 66.4323 43.5737 66.4676 43.0938 66.4676C42.4688 66.4676 41.9144 66.3523 41.4308 66.1217C40.9509 65.891 40.5733 65.5394 40.298 65.067C40.0264 64.5945 39.8906 63.9993 39.8906 63.2812C39.8906 62.5521 40.0134 61.9457 40.2589 61.4621C40.5082 60.9747 40.8542 60.6101 41.2969 60.3683C41.7396 60.1228 42.2548 60 42.8426 60ZM42.8538 61.2109C42.5227 61.2109 42.2474 61.317 42.0279 61.529C41.8121 61.7411 41.6875 62.074 41.654 62.5279H44.0424C44.0387 62.2749 43.9922 62.0499 43.9029 61.8527C43.8173 61.6555 43.6871 61.4993 43.5123 61.3839C43.3411 61.2686 43.1217 61.2109 42.8538 61.2109Z" fill="#2A4455"/>
<path d="M52.1842 61.3951H50.1417V66.356H48.4397V61.3951H46.3917V60.1172H52.1842V61.3951Z" fill="#2A4455"/>
<path d="M29.6141 47H22.5331V27.9042C22.5331 27.3776 22.5407 26.7305 22.556 25.9631C22.5712 25.1806 22.5942 24.383 22.6247 23.5705C22.6553 22.7428 22.6858 21.9979 22.7164 21.3358C22.5483 21.5315 22.2046 21.87 21.6852 22.3516C21.181 22.8181 20.7074 23.2394 20.2644 23.6156L16.4145 26.6628L13 22.4644L23.7934 14H29.6141V47Z" fill="#BC0000"/>
<path d="M34 33.461C34 31.5557 34.1395 29.6731 34.4186 27.8132C34.7132 25.9382 35.2171 24.1766 35.9302 22.5284C36.6434 20.865 37.6434 19.3983 38.9302 18.1281C40.2171 16.8428 41.8527 15.8372 43.8372 15.1114C45.8217 14.3705 48.2248 14 51.0465 14C51.7132 14 52.4884 14.0302 53.3721 14.0907C54.2713 14.1361 55.0155 14.2193 55.6047 14.3402V19.9426C54.9845 19.8065 54.3178 19.7007 53.6047 19.6251C52.907 19.5344 52.2093 19.489 51.5116 19.489C48.6899 19.489 46.5039 19.9275 44.9535 20.8045C43.4186 21.6816 42.3333 22.8988 41.6977 24.4563C41.0775 25.9987 40.7132 27.7981 40.6047 29.8546H40.907C41.3411 29.1136 41.8837 28.4559 42.5349 27.8813C43.2016 27.3067 44.0078 26.853 44.9535 26.5203C45.8992 26.1726 47.0078 25.9987 48.2791 25.9987C50.2636 25.9987 51.9845 26.4145 53.4419 27.2462C54.8992 28.0627 56.0233 29.2497 56.814 30.8072C57.6047 32.3647 58 34.2624 58 36.5003C58 38.8895 57.5271 40.946 56.5814 42.6698C55.6357 44.3936 54.2946 45.7167 52.5581 46.6391C50.8372 47.5464 48.7907 48 46.4186 48C44.6822 48 43.062 47.7127 41.5581 47.1381C40.0543 46.5484 38.7364 45.6562 37.6047 44.4616C36.4729 43.2671 35.5891 41.7625 34.9535 39.948C34.3178 38.1183 34 35.956 34 33.461ZM46.2791 42.3976C47.6899 42.3976 48.8372 41.9288 49.7209 40.9913C50.6047 40.0538 51.0465 38.5871 51.0465 36.5911C51.0465 34.9731 50.6589 33.7029 49.8837 32.7805C49.124 31.843 47.969 31.3743 46.4186 31.3743C45.3643 31.3743 44.4341 31.6086 43.6279 32.0774C42.8372 32.531 42.2248 33.1132 41.7907 33.8239C41.3566 34.5195 41.1395 35.2377 41.1395 35.9787C41.1395 36.7498 41.2481 37.5135 41.4651 38.2695C41.6822 39.0256 42.0078 39.7136 42.4419 40.3336C42.876 40.9535 43.4109 41.4525 44.0465 41.8306C44.6977 42.2086 45.4419 42.3976 46.2791 42.3976Z" fill="#BC0000"/>
<path d="M69.5438 29.1006H75V31.9648H69.5438V37H66.4562V31.9648H61V29.1006H66.4562V24H69.5438V29.1006Z" fill="#BC0000"/>
</svg>
