<svg width="88" height="88" viewBox="0 0 88 88" fill="none" xmlns="http://www.w3.org/2000/svg">
<path d="M14 30.2C14 29.0799 14 28.5198 14.218 28.092C14.4097 27.7157 14.7157 27.4097 15.092 27.218C15.5198 27 16.0799 27 17.2 27H64.3705C64.9675 27 65.266 27 65.5393 27.0793C65.7812 27.1496 66.0077 27.2649 66.2068 27.4193C66.4317 27.5936 66.6073 27.835 66.9584 28.3179L80.6312 47.1179C81.1231 47.7942 81.369 48.1324 81.4641 48.5023C81.548 48.8288 81.548 49.1712 81.4641 49.4977C81.369 49.8676 81.1231 50.2058 80.6312 50.8821L66.9584 69.6821C66.6073 70.165 66.4317 70.4064 66.2068 70.5807C66.0077 70.7351 65.7812 70.8504 65.5393 70.9207C65.266 71 64.9675 71 64.3705 71H17.2C16.0799 71 15.5198 71 15.092 70.782C14.7157 70.5903 14.4097 70.2843 14.218 69.908C14 69.4802 14 68.9201 14 67.8V30.2Z" fill="#92A7B3"/>
<path fill-rule="evenodd" clip-rule="evenodd" d="M6.21799 16.092C6 16.5198 6 17.0799 6 18.2V55.8C6 56.9201 6 57.4802 6.21799 57.908C6.40973 58.2843 6.7157 58.5903 7.09202 58.782C7.51984 59 8.0799 59 9.2 59H56.3705C56.9676 59 57.2661 59 57.5393 58.9207C57.7813 58.8504 58.0078 58.7351 58.2069 58.5807C58.4318 58.4064 58.6073 58.165 58.9585 57.6821L72.6312 38.8821C73.1232 38.2058 73.3691 37.8676 73.4642 37.4977C73.5481 37.1712 73.5481 36.8288 73.4642 36.5023C73.3691 36.1324 73.1232 35.7942 72.6312 35.1179L58.9585 16.3179C58.6073 15.835 58.4318 15.5936 58.2069 15.4193C58.0078 15.2649 57.7813 15.1496 57.5393 15.0793C57.2661 15 56.9676 15 56.3705 15H9.2C8.0799 15 7.51984 15 7.09202 15.218C6.7157 15.4097 6.40973 15.7157 6.21799 16.092ZM61.0001 41C63.2092 41 65.0001 39.2091 65.0001 37C65.0001 34.7909 63.2092 33 61.0001 33C58.7909 33 57.0001 34.7909 57.0001 37C57.0001 39.2091 58.7909 41 61.0001 41Z" fill="#F5F5F5"/>
<path d="M14 30.2C14 29.0799 14 28.5198 14.218 28.092C14.4097 27.7157 14.7157 27.4097 15.092 27.218C15.5198 27 16.0799 27 17.2 27H49.8C50.9201 27 51.4802 27 51.908 27.218C52.2843 27.4097 52.5903 27.7157 52.782 28.092C53 28.5198 53 29.0799 53 30.2V42.8C53 43.9201 53 44.4802 52.782 44.908C52.5903 45.2843 52.2843 45.5903 51.908 45.782C51.4802 46 50.9201 46 49.8 46H17.2C16.0799 46 15.5198 46 15.092 45.782C14.7157 45.5903 14.4097 45.2843 14.218 44.908C14 44.4802 14 43.9201 14 42.8V30.2Z" fill="#BC0000"/>
<path d="M44.5 32L46.0296 34.4546L49 35.0557L46.975 37.1739L47.2812 40L44.5 38.8546L41.7188 40L42.025 37.1739L40 35.0557L42.9704 34.4546L44.5 32Z" fill="#F5F5F5"/>
<path d="M33.5 32L35.0296 34.4546L38 35.0557L35.975 37.1739L36.2812 40L33.5 38.8546L30.7188 40L31.025 37.1739L29 35.0557L31.9704 34.4546L33.5 32Z" fill="#F5F5F5"/>
<path d="M22.5 32L24.0296 34.4546L27 35.0557L24.975 37.1739L25.2812 40L22.5 38.8546L19.7188 40L20.025 37.1739L18 35.0557L20.9704 34.4546L22.5 32Z" fill="#F5F5F5"/>
</svg>
