<svg width="140" height="48" viewBox="0 0 140 48" fill="none" xmlns="http://www.w3.org/2000/svg">
<path d="M20 4H120V33.4118H20V4Z" fill="white"/>
<rect x="20" y="29.9805" width="100" height="1.22549" fill="#C5372F"/>
<path fill-rule="evenodd" clip-rule="evenodd" d="M119.51 4.4902H20.4902V44.1961H119.51V4.4902ZM20 4V44.6863H120V4H20Z" fill="#A9AAAE"/>
<path d="M102.904 17.7039C102.904 20.8748 102.904 24.0457 102.904 27.3046C100.608 27.3046 98.4225 27.3046 96.1523 27.3046C96.1523 20.7803 96.1523 14.3239 96.1523 7.73326C98.4476 7.73326 100.749 7.73326 103.177 7.73326C105.148 10.9583 107.158 14.2462 109.168 17.5342C109.25 17.4899 109.333 17.4461 109.415 17.4019C109.415 14.1926 109.415 10.9833 109.415 7.68652C111.659 7.68652 113.848 7.68652 116.129 7.68652C116.129 14.2349 116.129 20.7262 116.129 27.3056C113.839 27.3056 111.602 27.3056 109.134 27.3056C107.215 24.1564 105.222 20.8871 103.23 17.6173C103.121 17.6459 103.013 17.6749 102.904 17.7039Z" fill="#293D93"/>
<path d="M62.877 7.68414C65.1644 7.68414 67.3918 7.68414 69.7741 7.68414C69.7741 10.3764 69.7741 13.0077 69.7741 15.6389C69.8745 15.665 69.9748 15.6906 70.0752 15.7166C71.5396 13.0573 73.0045 10.398 74.5039 7.67578C77.1056 7.67578 79.7054 7.67578 82.5802 7.67578C80.5062 10.98 78.5238 14.1381 76.5119 17.3429C78.8136 20.6486 81.0754 23.8977 83.44 27.2939C80.4752 27.2939 77.6871 27.2939 74.7916 27.2939C73.2416 24.6941 71.6665 22.0535 70.0919 19.4129C69.9719 19.4458 69.8513 19.4788 69.7313 19.5113C69.7313 22.0933 69.7313 24.6754 69.7313 27.315C67.345 27.315 65.155 27.315 62.8774 27.315C62.877 20.7499 62.877 14.2601 62.877 7.68414Z" fill="#293D93"/>
<path d="M44.6681 27.3254C41.9896 27.3254 39.5831 27.3254 37.0763 27.3254C36.8284 26.5388 36.5878 25.7743 36.3301 24.9573C34.446 24.9573 32.6215 24.9573 30.7247 24.9573C30.4871 25.7729 30.2613 26.5457 30.0375 27.3145C27.5243 27.3145 25.0869 27.3145 22.4512 27.3145C24.8502 20.6978 27.2031 14.2089 29.5717 7.67578C32.2605 7.67578 34.8632 7.67578 37.6312 7.67578C39.9511 14.1548 42.2768 20.6491 44.6681 27.3254ZM31.9766 20.169C33.079 20.169 34.0038 20.169 35.0398 20.169C34.5385 18.0586 34.0771 16.1156 33.6157 14.1725C33.539 14.175 33.4627 14.1774 33.386 14.1799C32.9295 16.121 32.4725 18.0626 31.9766 20.169Z" fill="#293D93"/>
<path d="M46.1016 27.3021C46.1016 20.7089 46.1016 14.254 46.1016 7.69531C48.4406 7.69531 50.7074 7.69531 53.1625 7.69531C53.1625 12.1132 53.1625 16.5045 53.1625 21.0794C55.6039 21.0794 57.8657 21.0794 60.2122 21.0794C60.2122 23.2487 60.2122 25.2301 60.2122 27.3016C55.5085 27.3021 50.8697 27.3021 46.1016 27.3021Z" fill="#293D93"/>
<path d="M91.8664 27.3257C89.4988 27.3257 87.2227 27.3257 84.832 27.3257C84.832 20.8034 84.832 14.2924 84.832 7.68945C87.148 7.68945 89.4546 7.68945 91.8664 7.68945C91.8664 14.2132 91.8664 20.6913 91.8664 27.3257Z" fill="#293D93"/>
<rect x="20" y="33.4121" width="100" height="11.2745" fill="#A9AAAE"/>
<path d="M27.9634 36.1373V37.3355C27.3788 36.8464 26.7739 36.6019 26.1488 36.6019C25.46 36.6019 24.8797 36.8493 24.4079 37.3442C23.9333 37.8362 23.696 38.4382 23.696 39.1502C23.696 39.8535 23.9333 40.4468 24.4079 40.9301C24.8826 41.4134 25.4643 41.6551 26.1531 41.6551C26.5091 41.6551 26.8115 41.5972 27.0604 41.4814C27.1994 41.4235 27.3426 41.3454 27.4902 41.247C27.6407 41.1486 27.7985 41.0299 27.9634 40.891V42.1109C27.3846 42.438 26.7768 42.6015 26.1401 42.6015C25.1821 42.6015 24.3645 42.2672 23.6873 41.5986C23.013 40.9243 22.6758 40.111 22.6758 39.1589C22.6758 38.3051 22.958 37.5439 23.5223 36.8754C24.2169 36.0563 25.1156 35.6468 26.2182 35.6468C26.8202 35.6468 27.402 35.8103 27.9634 36.1373Z" fill="white"/>
<path d="M31.667 39.0981C31.667 38.1546 32.0129 37.3442 32.7046 36.667C33.3934 35.9897 34.2211 35.6511 35.1878 35.6511C36.1429 35.6511 36.9619 35.9926 37.6449 36.6757C38.3309 37.3587 38.6738 38.1792 38.6738 39.1372C38.6738 40.1009 38.3294 40.9185 37.6406 41.59C36.9489 42.2643 36.1139 42.6015 35.1357 42.6015C34.2703 42.6015 33.4933 42.3019 32.8044 41.7028C32.0462 41.0401 31.667 40.1718 31.667 39.0981ZM32.6872 39.1111C32.6872 39.852 32.9361 40.4612 33.4339 40.9388C33.9288 41.4163 34.5004 41.6551 35.1487 41.6551C35.852 41.6551 36.4453 41.412 36.9286 40.9257C37.412 40.4337 37.6536 39.8346 37.6536 39.1285C37.6536 38.4136 37.4149 37.8145 36.9373 37.3312C36.4627 36.845 35.8752 36.6019 35.1748 36.6019C34.4773 36.6019 33.8883 36.845 33.4079 37.3312C32.9274 37.8116 32.6872 38.4049 32.6872 39.1111Z" fill="white"/>
<path d="M42.512 42.4799L43.9229 35.2734L46.2238 40.4829L48.6071 35.2734L49.8748 42.4799H48.8372L48.1904 38.4339L46.2064 42.7881L44.2789 38.4295L43.5582 42.4799H42.512Z" fill="white"/>
<path d="M55.1108 39.758V42.4799H54.0993V35.777H55.2454C55.8069 35.777 56.2309 35.8161 56.5174 35.8942C56.8068 35.9724 57.0615 36.12 57.2815 36.337C57.6664 36.7133 57.8588 37.1879 57.8588 37.761C57.8588 38.3745 57.6534 38.8608 57.2424 39.2196C56.8314 39.5785 56.2772 39.758 55.5797 39.758H55.1108ZM55.1108 38.8202H55.4885C56.4176 38.8202 56.8821 38.4628 56.8821 37.748C56.8821 37.0562 56.4031 36.7104 55.4451 36.7104H55.1108V38.8202Z" fill="white"/>
<path d="M63.9719 39.6234L66.047 42.4799H64.8097L62.8952 39.7362H62.7129V42.4799H61.7014V35.777H62.8865C63.7722 35.777 64.4118 35.9434 64.8054 36.2763C65.2395 36.6467 65.4566 37.1358 65.4566 37.7436C65.4566 38.2183 65.3205 38.6263 65.0485 38.9678C64.7764 39.3094 64.4176 39.5279 63.9719 39.6234ZM62.7129 38.855H63.0341C63.9921 38.855 64.4711 38.4889 64.4711 37.7566C64.4711 37.0707 64.0051 36.7278 63.0732 36.7278H62.7129V38.855Z" fill="white"/>
<path d="M73.5579 36.7278H70.8706V38.3384H73.4797V39.2891H70.8706V41.5292H73.5579V42.4799H69.8591V35.777H73.5579V36.7278Z" fill="white"/>
<path d="M81.4768 36.7755L80.6563 37.2617C80.5029 36.9955 80.3568 36.8218 80.2179 36.7408C80.0732 36.6482 79.8865 36.6019 79.6578 36.6019C79.3771 36.6019 79.1441 36.6815 78.9589 36.8406C78.7737 36.9969 78.6811 37.1937 78.6811 37.431C78.6811 37.7581 78.9242 38.0215 79.4104 38.2211L80.0789 38.4946C80.623 38.7146 81.021 38.9838 81.2728 39.3021C81.5246 39.6176 81.6505 40.0054 81.6505 40.4656C81.6505 41.082 81.445 41.5914 81.034 41.9937C80.6201 42.3989 80.1064 42.6015 79.4929 42.6015C78.9111 42.6015 78.4307 42.4293 78.0516 42.0849C77.6782 41.7405 77.4452 41.2557 77.3526 40.6305L78.3772 40.4048C78.4235 40.7984 78.5045 41.0705 78.6203 41.221C78.8287 41.5104 79.1325 41.6551 79.5319 41.6551C79.8474 41.6551 80.1093 41.5494 80.3177 41.3382C80.5261 41.1269 80.6303 40.8592 80.6303 40.535C80.6303 40.4048 80.6115 40.2861 80.5738 40.1791C80.5391 40.0691 80.4827 39.9692 80.4045 39.8795C80.3293 39.7869 80.2309 39.7015 80.1093 39.6234C79.9878 39.5423 79.8431 39.4656 79.6752 39.3933L79.0284 39.1241C78.1109 38.7363 77.6522 38.1691 77.6522 37.4224C77.6522 36.9188 77.8446 36.4977 78.2296 36.1591C78.6145 35.8175 79.0935 35.6468 79.6665 35.6468C80.4393 35.6468 81.0427 36.023 81.4768 36.7755Z" fill="white"/>
<path d="M89.4609 36.7755L88.6404 37.2617C88.487 36.9955 88.3409 36.8218 88.2019 36.7408C88.0572 36.6482 87.8706 36.6019 87.6419 36.6019C87.3612 36.6019 87.1282 36.6815 86.943 36.8406C86.7578 36.9969 86.6651 37.1937 86.6651 37.431C86.6651 37.7581 86.9082 38.0215 87.3945 38.2211L88.063 38.4946C88.6071 38.7146 89.0051 38.9838 89.2569 39.3021C89.5087 39.6176 89.6346 40.0054 89.6346 40.4656C89.6346 41.082 89.4291 41.5914 89.0181 41.9937C88.6042 42.3989 88.0905 42.6015 87.477 42.6015C86.8952 42.6015 86.4148 42.4293 86.0357 42.0849C85.6623 41.7405 85.4293 41.2557 85.3367 40.6305L86.3613 40.4048C86.4076 40.7984 86.4886 41.0705 86.6044 41.221C86.8127 41.5104 87.1166 41.6551 87.516 41.6551C87.8315 41.6551 88.0934 41.5494 88.3018 41.3382C88.5102 41.1269 88.6144 40.8592 88.6144 40.535C88.6144 40.4048 88.5956 40.2861 88.5579 40.1791C88.5232 40.0691 88.4668 39.9692 88.3886 39.8795C88.3134 39.7869 88.215 39.7015 88.0934 39.6234C87.9719 39.5423 87.8271 39.4656 87.6593 39.3933L87.0124 39.1241C86.095 38.7363 85.6363 38.1691 85.6363 37.4224C85.6363 36.9188 85.8287 36.4977 86.2136 36.1591C86.5986 35.8175 87.0776 35.6468 87.6506 35.6468C88.4233 35.6468 89.0268 36.023 89.4609 36.7755Z" fill="white"/>
<path d="M93.3208 39.0981C93.3208 38.1546 93.6667 37.3442 94.3584 36.667C95.0472 35.9897 95.8749 35.6511 96.8416 35.6511C97.7966 35.6511 98.6157 35.9926 99.2987 36.6757C99.9846 37.3587 100.328 38.1792 100.328 39.1372C100.328 40.1009 99.9832 40.9185 99.2944 41.59C98.6027 42.2643 97.7677 42.6015 96.7895 42.6015C95.9241 42.6015 95.147 42.3019 94.4582 41.7028C93.6999 41.0401 93.3208 40.1718 93.3208 39.0981ZM94.341 39.1111C94.341 39.852 94.5899 40.4612 95.0877 40.9388C95.5826 41.4163 96.1542 41.6551 96.8025 41.6551C97.5058 41.6551 98.0991 41.412 98.5824 40.9257C99.0657 40.4337 99.3074 39.8346 99.3074 39.1285C99.3074 38.4136 99.0686 37.8145 98.5911 37.3312C98.1164 36.845 97.5289 36.6019 96.8285 36.6019C96.131 36.6019 95.5421 36.845 95.0616 37.3312C94.5812 37.8116 94.341 38.4049 94.341 39.1111Z" fill="white"/>
<path d="M106.671 39.6234L108.746 42.4799H107.509L105.594 39.7362H105.412V42.4799H104.4V35.777H105.585C106.471 35.777 107.111 35.9434 107.504 36.2763C107.938 36.6467 108.155 37.1358 108.155 37.7436C108.155 38.2183 108.019 38.6263 107.747 38.9678C107.475 39.3094 107.116 39.5279 106.671 39.6234ZM105.412 38.855H105.733C106.691 38.855 107.17 38.4889 107.17 37.7566C107.17 37.0707 106.704 36.7278 105.772 36.7278H105.412V38.855Z" fill="white"/>
<path d="M116.348 36.7755L115.527 37.2617C115.374 36.9955 115.228 36.8218 115.089 36.7408C114.944 36.6482 114.757 36.6019 114.529 36.6019C114.248 36.6019 114.015 36.6815 113.83 36.8406C113.645 36.9969 113.552 37.1937 113.552 37.431C113.552 37.7581 113.795 38.0215 114.281 38.2211L114.95 38.4946C115.494 38.7146 115.892 38.9838 116.144 39.3021C116.396 39.6176 116.521 40.0054 116.521 40.4656C116.521 41.082 116.316 41.5914 115.905 41.9937C115.491 42.3989 114.977 42.6015 114.364 42.6015C113.782 42.6015 113.302 42.4293 112.923 42.0849C112.549 41.7405 112.316 41.2557 112.224 40.6305L113.248 40.4048C113.294 40.7984 113.376 41.0705 113.491 41.221C113.7 41.5104 114.004 41.6551 114.403 41.6551C114.718 41.6551 114.98 41.5494 115.189 41.3382C115.397 41.1269 115.501 40.8592 115.501 40.535C115.501 40.4048 115.482 40.2861 115.445 40.1791C115.41 40.0691 115.354 39.9692 115.276 39.8795C115.2 39.7869 115.102 39.7015 114.98 39.6234C114.859 39.5423 114.714 39.4656 114.546 39.3933L113.899 39.1241C112.982 38.7363 112.523 38.1691 112.523 37.4224C112.523 36.9188 112.716 36.4977 113.101 36.1591C113.486 35.8175 113.965 35.6468 114.538 35.6468C115.31 35.6468 115.914 36.023 116.348 36.7755Z" fill="white"/>
</svg>
