<svg width="199" height="33" viewBox="0 0 199 33" fill="none" xmlns="http://www.w3.org/2000/svg">
<path d="M199 0.0231154C198.92 0.323011 198.885 0.521194 198.817 0.706794C197.609 4.02557 196.398 7.34329 195.158 10.7428C189.687 10.7428 184.253 10.7428 178.731 10.7428C176.109 18.0001 173.51 25.1934 170.887 32.4538C166.571 32.4538 162.28 32.4538 157.879 32.4538C160.505 25.2636 163.111 18.127 165.768 10.8508C160.18 10.8508 154.765 10.8508 149.265 10.8508C149.117 11.2073 148.945 11.5817 148.803 11.9676C146.688 17.7516 144.576 23.5366 142.465 29.3217C141.54 31.855 140.581 32.5387 137.911 32.5398C130.456 32.5429 123.001 32.5408 115.547 32.5408C115.175 32.5408 114.804 32.5408 114.59 32.5408C118.057 29.092 121.563 25.6044 125.384 21.8022C126.596 21.8022 128.352 21.8075 130.107 21.8012C131.848 21.7949 132.431 21.4027 133.021 19.8173C134.006 17.1644 134.98 14.5083 135.95 11.8501C136.061 11.546 136.118 11.222 136.221 10.8204C134.811 10.8204 133.477 10.7428 132.156 10.8445C131.069 10.9284 130.271 11.6509 129.515 12.4059C123.127 18.7781 116.724 25.1378 110.333 31.5069C110.009 31.8299 109.74 32.2084 109.461 32.5429C108.868 32.5429 108.411 32.5429 107.956 32.5429C98.2398 32.5429 88.5232 32.5429 78.8066 32.5419C78.3883 32.5419 77.9668 32.5524 77.5516 32.5083C75.7127 32.3133 74.4158 30.5286 74.8457 28.7313C75.0543 27.8599 75.3793 27.0158 75.7431 25.8708C75.1948 26.35 74.896 26.632 74.5773 26.8879C67.2489 32.783 59.1584 34.2909 50.3948 30.667C45.83 28.7795 42.755 25.3412 41.6406 20.4129C41.4036 19.3653 41.3523 18.2759 41.1866 16.9777C40.7903 17.3405 40.4706 17.6121 40.1739 17.9067C36.0547 21.9994 31.9156 26.0731 27.8341 30.2025C26.2385 31.8173 24.4132 32.6279 22.1224 32.5586C19.6534 32.4831 17.1813 32.5534 14.7102 32.5366C12.6501 32.523 11.5199 31.7533 10.8143 29.8323C7.29795 20.2629 3.79628 10.6883 0.293554 1.11365C0.182423 0.809556 0.114276 0.489736 0 0.084982C0.46025 0.0608646 0.828241 0.025212 1.19623 0.0241634C3.83507 0.0199691 6.47391 0.0136776 9.11169 0.0241634C11.761 0.0346493 13.3127 1.11574 14.2321 3.60928C15.9148 8.17797 17.5807 12.753 19.255 17.3248C19.3693 17.6373 19.4657 17.9623 19.6241 18.2517C20.3066 19.4996 21.7911 19.8372 22.9486 18.9994C23.284 18.7561 23.5692 18.4415 23.8649 18.1469C28.5449 13.4932 33.2418 8.85431 37.8967 4.17552C40.6981 1.35901 44.0278 -0.0377025 48.0243 0.0084353C52.9655 0.0650589 57.9087 0.014727 62.8509 0.0262615C66.6618 0.0356987 70.2275 0.966842 73.4565 3.00215C77.0127 5.24298 79.6033 9.18776 80.4106 13.3664C82.065 8.87213 83.6879 4.3758 85.27 0.077642C89.5726 0.077642 93.8344 0.077642 98.201 0.077642C98.0878 0.467716 98.0102 0.813749 97.8886 1.1451C95.8746 6.65647 93.8554 12.1647 91.8382 17.674C91.7523 17.9088 91.6653 18.1427 91.5835 18.3786C90.8811 20.4118 91.8173 21.7855 93.955 21.797C97.1379 21.8148 100.321 21.7991 103.504 21.7939C103.628 21.7939 103.999 21.8022 103.999 21.8022C104.561 21.1479 115.936 9.87563 121.401 4.35378C124.329 1.39572 127.773 -0.00939006 131.961 4.72162e-05C153.823 0.0482822 175.686 0.0220674 197.548 0.0220674C198.003 0.023116 198.459 0.0231154 199 0.0231154ZM59.8524 21.7949C62.528 21.8159 64.7768 20.8176 66.1481 19.186C68.4053 16.5006 67.6526 12.9878 64.4927 11.4653C61.533 10.0403 57.5491 10.9337 55.5036 13.4807C53.5305 15.9386 53.995 19.0864 56.5825 20.739C57.7032 21.4552 58.9456 21.7687 59.8524 21.7949Z" fill="#B42526"/>
</svg>
