<svg width="168" height="56" viewBox="0 0 168 56" fill="none" xmlns="http://www.w3.org/2000/svg">
<path fill-rule="evenodd" clip-rule="evenodd" d="M140.84 0H166.682V37.0079H140.84V0Z" fill="#1E4487"/>
<path fill-rule="evenodd" clip-rule="evenodd" d="M112.803 0H138.645V37.0079H112.803V0Z" fill="#1E4487"/>
<path fill-rule="evenodd" clip-rule="evenodd" d="M84.6055 0H110.448V37.0079H84.6055V0Z" fill="#1E4487"/>
<path fill-rule="evenodd" clip-rule="evenodd" d="M56.4102 0H82.4115V37.0079H56.4102V0Z" fill="#1E4487"/>
<path fill-rule="evenodd" clip-rule="evenodd" d="M28.1973 0H54.2163V37.0079H28.1973V0Z" fill="#1E4487"/>
<path fill-rule="evenodd" clip-rule="evenodd" d="M0 0H26.0013V37.0079H0V0Z" fill="#1E4487"/>
<path fill-rule="evenodd" clip-rule="evenodd" d="M16.0355 6.76562H9.6281C8.4422 8.62577 7.2563 10.9819 6.24739 13.8519C5.06149 16.5624 4.05259 19.4323 3.37999 22.3022C2.53039 25.3493 1.85779 27.8827 1.52148 30.2565H8.1059C8.6192 27.5461 9.2918 24.6761 10.1237 21.9656C10.9733 19.2729 11.8229 16.7395 13.0088 14.3656C14.0177 16.7395 15.0266 19.0957 15.5399 21.2924H11.4866C10.9733 23.1526 10.637 24.6761 10.3007 26.1997H16.8851C17.2391 27.9889 17.363 28.9987 17.5577 30.2565H24.3191C23.8058 27.2095 23.1332 24.3395 22.4606 21.629C21.788 19.0957 20.9384 16.7395 20.0888 14.8794C19.4162 13.0192 18.5666 11.3185 17.894 9.97215C17.2214 8.62577 16.5488 7.59826 16.0355 6.76562Z" fill="#FEFEFE"/>
<path fill-rule="evenodd" clip-rule="evenodd" d="M100.642 6.76562H94.2348C93.0489 8.62577 91.863 10.9819 90.6771 13.8519C89.6682 16.5624 88.6593 19.4323 87.9867 22.3022C87.1371 25.3493 86.4645 27.8827 85.9512 30.2565H92.7126C93.2259 27.5461 93.7215 24.6761 94.5711 21.9656C95.4207 19.2729 96.4296 16.7395 97.4385 14.3656C98.6244 16.7395 99.6333 19.0957 100.147 21.2924H95.9163C95.58 23.1526 95.0667 24.6761 94.9074 26.1997H101.492C101.864 28.2015 101.952 28.9279 102.164 30.2565H108.926C108.253 27.2095 107.74 24.3395 106.89 21.629C106.218 19.0957 105.545 16.7395 104.696 14.8794C103.864 13.0192 103.173 11.3185 102.501 9.97215C101.828 8.62577 101.156 7.59826 100.642 6.76562Z" fill="#FEFEFE"/>
<path fill-rule="evenodd" clip-rule="evenodd" d="M32.0898 6.76562V11.9917H37.8247V30.2565H44.4091V11.9917H50.1616V6.76562H32.0898Z" fill="#FEFEFE"/>
<path fill-rule="evenodd" clip-rule="evenodd" d="M144.715 6.76562V11.9917H150.29V30.2565H157.052V11.9917H162.627V6.76562H144.715Z" fill="#FEFEFE"/>
<path fill-rule="evenodd" clip-rule="evenodd" d="M114.324 6.76562V30.2565H121.086V14.5428C121.918 15.0388 122.944 15.8892 124.112 16.7395C125.298 17.5722 126.484 18.5819 127.493 19.6095C128.52 20.6192 129.529 21.629 130.201 22.6388V30.2565H136.963V6.76562H130.201V13.3558C129.352 12.5055 128.52 11.6551 127.334 10.8225C126.325 9.97215 125.139 9.1218 124.112 8.44861C122.944 7.59826 121.918 7.10222 121.086 6.76562H114.324Z" fill="#FEFEFE"/>
<path fill-rule="evenodd" clip-rule="evenodd" d="M61.4727 6.76562V30.2565H77.3496V25.0127H68.2164V6.76562H61.4727Z" fill="#FEFEFE"/>
<path d="M3.50473 55.8205V47.1398H0.265625V45.9883H8.05364V47.1398H4.81453V55.8205H3.50473ZM7.85894 55.8205L11.629 45.9883H13.045L17.0453 55.8205H15.5762L14.4433 52.8442H10.3015L9.23954 55.8205H7.85894ZM10.6732 51.7813H14.0362L13.0096 49.0531C12.691 48.2382 12.4609 47.5473 12.3016 47.0158C12.16 47.6536 11.983 48.2736 11.7529 48.8936L10.6732 51.7813ZM19.1162 45.9883H25.2404V55.8205H23.9306V47.1398H20.4083V52.2065C20.4083 53.234 20.3729 53.9957 20.2667 54.4741C20.1782 54.9524 19.9658 55.3244 19.6649 55.5902C19.3463 55.8559 18.9569 55.9799 18.479 55.9799C18.1958 55.9799 17.8595 55.9267 17.4524 55.8027L17.6825 54.6512C17.8949 54.7575 18.0719 54.8284 18.2312 54.8284C18.5144 54.8284 18.7445 54.7044 18.8861 54.4918C19.0277 54.2615 19.1162 53.7477 19.1162 52.9151V45.9883ZM26.3024 55.8205L30.0725 45.9883H31.5062L35.5064 55.8205H34.0196L32.8868 52.8442H28.745L27.683 55.8205H26.3024ZM29.1344 51.7813H32.4797L31.4531 49.0531C31.1522 48.2382 30.9044 47.5473 30.7451 47.0158C30.6212 47.6536 30.4265 48.2736 30.2141 48.8936L29.1344 51.7813ZM36.5861 55.8205V45.9883H37.8959V50.0452H42.9581V45.9883H44.2679V55.8205H42.9581V51.1967H37.8959V55.8205H36.5861ZM48.923 55.8205V47.1398H45.7016V45.9883H53.4719V47.1398H50.2328V55.8205H48.923ZM55.2419 45.9883H61.3661V55.8205H60.0563V47.1398H56.534V52.2065C56.534 53.234 56.4986 53.9957 56.3924 54.4741C56.3039 54.9524 56.0915 55.3244 55.7906 55.5902C55.472 55.8559 55.0826 55.9799 54.6047 55.9799C54.3215 55.9799 53.9852 55.9267 53.5781 55.8027L53.8082 54.6512C54.0206 54.7575 54.1976 54.8284 54.3569 54.8284C54.6578 54.8284 54.8702 54.7044 55.0118 54.4918C55.1711 54.2615 55.2419 53.7477 55.2419 52.9151V45.9883ZM63.5432 45.9883H64.7114V53.7832L69.9506 45.9883H71.2251V55.8205H70.0568V48.061L64.8353 55.8205H63.5432V45.9883ZM73.3137 55.8205V45.9883H76.9953C77.7564 45.9883 78.3582 46.0946 78.8007 46.2894C79.2609 46.4843 79.6149 46.8032 79.8627 47.2107C80.1282 47.6181 80.2521 48.061 80.2521 48.5039C80.2521 48.9291 80.1459 49.3188 79.9158 49.6908C79.6857 50.0629 79.3494 50.364 78.8892 50.5943C79.4733 50.7715 79.9335 51.055 80.2521 51.4801C80.5707 51.9053 80.73 52.4013 80.73 52.9682C80.73 53.4288 80.6415 53.854 80.4468 54.2615C80.2521 54.6512 80.0043 54.9524 79.7211 55.165C79.4379 55.3776 79.0839 55.5547 78.6414 55.661C78.2166 55.7673 77.6856 55.8205 77.0661 55.8205H73.3137ZM74.6235 50.1337H76.7475C77.3139 50.1337 77.7387 50.0806 77.9865 50.0097C78.3051 49.9212 78.5529 49.744 78.7299 49.5137C78.8892 49.2834 78.9777 48.9999 78.9777 48.6633C78.9777 48.3267 78.9069 48.0433 78.7476 47.7953C78.5883 47.5473 78.3582 47.3701 78.075 47.2815C77.7741 47.1929 77.2785 47.1398 76.5882 47.1398H74.6235V50.1337ZM74.6235 54.6689H77.0661C77.4909 54.6689 77.7741 54.6512 77.9511 54.6158C78.252 54.5626 78.4998 54.4741 78.6945 54.3501C78.9069 54.226 79.0662 54.0489 79.1901 53.8009C79.3317 53.5706 79.3848 53.2871 79.3848 52.9682C79.3848 52.6139 79.2963 52.295 79.1016 52.0116C78.9246 51.7459 78.6591 51.551 78.3228 51.4447C77.9865 51.3384 77.5086 51.2853 76.8891 51.2853H74.6235V54.6689ZM80.9778 55.8205L84.7479 45.9883H86.1816L90.1818 55.8205H88.695L87.5622 52.8442H83.4204L82.3584 55.8205H80.9778ZM83.8098 51.7813H87.1551L86.1285 49.0531C85.8276 48.2382 85.5975 47.5473 85.4205 47.0158C85.2966 47.6536 85.1196 48.2736 84.8895 48.8936L83.8098 51.7813ZM98.9787 55.8205V45.9883H94.6245C93.7395 45.9883 93.0846 46.0769 92.6244 46.254C92.1642 46.4312 91.8102 46.7501 91.5447 47.1929C91.2615 47.6358 91.1199 48.1319 91.1199 48.6811C91.1199 49.372 91.35 49.9566 91.8102 50.4349C92.2527 50.9132 92.943 51.2144 93.8988 51.3561C93.5448 51.5156 93.2793 51.675 93.1023 51.8344C92.7306 52.1888 92.3766 52.6139 92.0403 53.1454L90.3411 55.8205H91.9518L93.2616 53.7832C93.6333 53.1808 93.9519 52.7379 94.182 52.4191C94.4298 52.1002 94.6599 51.8876 94.8546 51.7636C95.0493 51.6396 95.244 51.551 95.4387 51.4978C95.5803 51.4801 95.8281 51.4624 96.1644 51.4624H97.6689V55.8205H98.9787ZM97.6689 50.3286H94.8723C94.2882 50.3286 93.828 50.2755 93.4917 50.1515C93.1554 50.0274 92.9076 49.8326 92.7306 49.5491C92.5536 49.2834 92.4651 48.9999 92.4651 48.6811C92.4651 48.2027 92.6421 47.8307 92.9784 47.5295C93.3147 47.2284 93.8457 47.0867 94.5714 47.0867H97.6689V50.3286ZM107.422 55.8205V47.1398H104.183V45.9883H111.953V47.1398H108.714V55.8205H107.422ZM113.333 55.8205V45.9883H120.413V47.1398H114.626V50.1692H120.042V51.3207H114.626V54.6689H120.644V55.8205H113.333ZM121.458 55.8205L125.246 50.7184L121.9 45.9883H123.458L125.246 48.5039C125.617 49.0354 125.865 49.4251 126.024 49.7086C126.237 49.3543 126.502 48.9999 126.803 48.6102L128.768 45.9883H130.184L126.785 50.6652L130.449 55.8205H128.856L126.378 52.3128C126.237 52.1179 126.095 51.923 125.971 51.7281C125.759 52.047 125.6 52.2773 125.493 52.4191L123.015 55.8205H121.458ZM131.653 55.8205V45.9883H132.945V50.0452H138.025V45.9883H139.335V55.8205H138.025V51.1967H132.945V55.8205H131.653ZM141.53 45.9883H142.698V53.7832L147.937 45.9883H149.211V55.8205H148.043V48.061L142.822 55.8205H141.53V45.9883ZM151.388 45.9883H152.681V50.3109C153.282 50.3109 153.689 50.1869 153.937 49.9566C154.185 49.7263 154.486 49.1771 154.858 48.2913C155.141 47.6536 155.353 47.1929 155.53 46.9272C155.707 46.6615 155.955 46.4312 156.291 46.254C156.61 46.0769 156.982 45.9883 157.371 45.9883C157.867 45.9883 158.132 45.9883 158.168 45.9883V47.1221C158.115 47.1221 158.026 47.1221 157.902 47.1044C157.76 47.1044 157.672 47.1044 157.637 47.1044C157.23 47.1044 156.911 47.2107 156.716 47.4055C156.504 47.6181 156.274 48.0433 156.008 48.6988C155.672 49.5314 155.406 50.0629 155.176 50.2755C154.946 50.4881 154.663 50.6652 154.362 50.7892C154.982 50.9664 155.619 51.551 156.238 52.5431L158.256 55.8205H156.645L154.999 53.1631C154.539 52.4191 154.167 51.9053 153.867 51.6396C153.566 51.3561 153.176 51.2321 152.681 51.2321V55.8205H151.388V45.9883ZM158.274 55.8205L162.044 45.9883H163.46L167.46 55.8205H165.991L164.841 52.8442H160.716L159.654 55.8205H158.274ZM161.088 51.7813H164.433L163.425 49.0531C163.106 48.2382 162.876 47.5473 162.717 47.0158C162.575 47.6536 162.398 48.2736 162.168 48.8936L161.088 51.7813Z" fill="#1E4487"/>
</svg>
