<svg width="200" height="72" viewBox="0 0 200 72" fill="none" xmlns="http://www.w3.org/2000/svg">
<path d="M59.6992 8.03809C60.865 13.156 62.8417 17.7166 66.1996 21.9224L53.8324 21.9604C49.1187 16.5131 47.7376 10.6984 47.3701 8.08876C51.4122 8.08876 55.6698 8.03809 59.6992 8.03809Z" fill="#007ABB"/>
<path d="M44.063 8.05067C44.9247 13.346 47.0788 17.7925 50.5253 21.935H38.399C33.7993 16.3863 32.4688 10.5463 32 8C36.0294 8 40.0209 8.05067 44.063 8.05067Z" fill="#007ABB"/>
<path d="M53.4398 36.2368C59.2052 30.0675 63.0319 27.6478 69 25.1015L32.0254 25.0889V36.2368H53.4398Z" fill="#007ABB"/>
<path d="M45.2288 50.8813C46.838 46.2068 48.2952 43.4071 50.8041 39.784L32.0127 39.7207V50.9067L45.2288 50.8813Z" fill="#007ABB"/>
<path d="M72.3449 63.0692C72.611 57.9006 75.7281 51.9592 84.1544 50.8191L115.237 51.0471V39.8738L82.9253 39.7598C66.5034 41.0899 61.1308 56.1397 61.2068 63.0692H72.3449Z" fill="#007ABB"/>
<path d="M57.7859 62.9919C58.3687 55.885 60.4341 49.779 65.3252 44.775C72.5985 37.3515 81.5064 36.1227 85.3078 36.2874L115.44 36.148V25.0254H83.7619C74.005 25.5068 64.3622 29.928 57.5831 37.0095C54.3013 40.4299 51.691 44.1796 49.993 48.0434C46.952 54.9729 47.0407 60.5596 46.8506 62.9665L57.7859 62.9919Z" fill="#007ABB"/>
<path d="M116.948 25.1406H139.25V32.1461H138.527C138.287 30.854 137.881 29.8025 137.311 28.9791C136.741 28.1556 136.056 27.5982 135.271 27.2815C134.485 26.9648 133.269 26.8128 131.647 26.8128H126.92V36.8713H130.329C134.016 36.8713 136.69 37.5174 138.363 38.8096C140.035 40.1017 140.859 41.8373 140.859 43.9908C140.859 45.4604 140.441 46.7398 139.592 47.804C138.743 48.8681 137.678 49.6662 136.399 50.1856C135.119 50.705 133.256 50.971 130.811 50.971H116.948V50.2743C118.545 50.2489 119.571 50.0336 120.027 49.6282C120.471 49.2355 120.699 48.3614 120.699 47.0185V29.3338C120.699 27.8769 120.471 26.9268 120.015 26.4961C119.559 26.0654 118.532 25.85 116.948 25.85V25.1406ZM126.92 38.5435V46.3345C126.92 47.5759 127.085 48.4374 127.44 48.9314C127.782 49.4382 128.416 49.6915 129.353 49.6915C130.836 49.6915 131.964 49.1848 132.724 48.184C133.484 47.1832 133.852 45.9291 133.852 44.4342C133.852 42.9901 133.51 41.7739 132.825 40.7858C132.141 39.7977 131.368 39.1769 130.532 38.9236C129.657 38.6702 128.466 38.5435 126.92 38.5435Z" fill="#007ABB"/>
<path d="M155.544 25.1406H168V25.85C166.328 25.85 165.314 26.0147 164.959 26.3568C164.592 26.6988 164.402 27.5096 164.402 28.7891V47.0185C164.402 47.9813 164.465 48.6527 164.579 49.0328C164.706 49.4001 164.959 49.7042 165.365 49.9195C165.757 50.1476 166.353 50.2616 167.151 50.2616C167.291 50.2616 167.569 50.2742 168 50.2869V50.9837H154.556V50.2869C155.722 50.2616 156.52 50.1729 156.951 50.0209C157.369 49.8689 157.686 49.5902 157.889 49.1975C158.091 48.8047 158.193 48.2093 158.193 47.4239V39.0756C155.177 40.6338 152.44 41.4192 149.994 41.4192C148.651 41.4192 147.498 41.2038 146.548 40.7605C145.598 40.3297 144.926 39.6963 144.52 38.8729C144.128 38.0495 143.925 36.8587 143.925 35.2878V29.2451C143.925 27.8009 143.671 26.8762 143.165 26.4581C142.658 26.0527 141.72 25.85 140.377 25.85V25.1406H152.807V25.85C151.971 25.85 151.312 26.0274 150.843 26.3694C150.375 26.7241 150.134 27.4462 150.134 28.5484V35.4778C150.134 36.2633 150.197 36.8587 150.324 37.2514C150.451 37.6441 150.767 37.9988 151.262 38.3028C151.756 38.6069 152.402 38.7716 153.188 38.7716C154.784 38.7716 156.457 38.3282 158.18 37.4414V29.4985C158.18 28.3583 158.129 27.5856 158.028 27.1802C157.914 26.7748 157.673 26.4581 157.293 26.2047C156.913 25.9641 156.317 25.85 155.532 25.85V25.1406H155.544Z" fill="#007ABB"/>
</svg>
