<svg width="22" height="22" viewBox="0 0 22 22" fill="none" xmlns="http://www.w3.org/2000/svg">
<path fill-rule="evenodd" clip-rule="evenodd" d="M4.8 2H17.2C18.0731 2 18.6076 2.00156 19.0075 2.03423C19.1938 2.04945 19.3065 2.06857 19.375 2.08469C19.4076 2.09236 19.4276 2.09879 19.4384 2.10265C19.4488 2.10636 19.4532 2.10858 19.454 2.10899C19.6422 2.20487 19.7951 2.35785 19.891 2.54601C19.8914 2.54681 19.8936 2.55118 19.8973 2.56158C19.9012 2.57241 19.9076 2.59244 19.9153 2.625C19.9314 2.69345 19.9505 2.80617 19.9658 2.99247C19.9984 3.39239 20 3.92692 20 4.8V17.2C20 18.0731 19.9984 18.6076 19.9658 19.0075C19.9505 19.1938 19.9314 19.3065 19.9153 19.375C19.9076 19.4076 19.9012 19.4276 19.8973 19.4384C19.8936 19.4488 19.8914 19.4532 19.891 19.454C19.7951 19.6422 19.6422 19.7951 19.454 19.891C19.4532 19.8914 19.4488 19.8936 19.4384 19.8973C19.4276 19.9012 19.4076 19.9076 19.375 19.9153C19.3065 19.9314 19.1938 19.9505 19.0075 19.9658C18.6076 19.9984 18.0731 20 17.2 20H4.8C3.92692 20 3.39239 19.9984 2.99247 19.9658C2.80617 19.9505 2.69345 19.9314 2.625 19.9153C2.59244 19.9076 2.57241 19.9012 2.56158 19.8973C2.55118 19.8936 2.54681 19.8914 2.54601 19.891C2.35785 19.7951 2.20487 19.6422 2.10899 19.454C2.10858 19.4532 2.10636 19.4488 2.10265 19.4384C2.09879 19.4276 2.09236 19.4076 2.08469 19.375C2.06857 19.3065 2.04945 19.1938 2.03423 19.0075C2.00156 18.6076 2 18.0731 2 17.2V4.8C2 3.92692 2.00156 3.39239 2.03423 2.99247C2.04945 2.80617 2.06857 2.69345 2.08469 2.625C2.09236 2.59244 2.09879 2.57241 2.10265 2.56158C2.10636 2.55118 2.10858 2.54681 2.10899 2.54601C2.20487 2.35785 2.35785 2.20487 2.54601 2.10899C2.54681 2.10858 2.55118 2.10636 2.56158 2.10265C2.57241 2.09879 2.59244 2.09236 2.625 2.08469C2.69345 2.06857 2.80617 2.04945 2.99247 2.03423C3.39239 2.00156 3.92692 2 4.8 2ZM0 4.8C0 3.11984 0 2.27976 0.32698 1.63803C0.614601 1.07354 1.07354 0.614601 1.63803 0.32698C2.27976 0 3.11984 0 4.8 0H17.2C18.8802 0 19.7202 0 20.362 0.32698C20.9265 0.614601 21.3854 1.07354 21.673 1.63803C22 2.27976 22 3.11984 22 4.8V17.2C22 18.8802 22 19.7202 21.673 20.362C21.3854 20.9265 20.9265 21.3854 20.362 21.673C19.7202 22 18.8802 22 17.2 22H4.8C3.11984 22 2.27976 22 1.63803 21.673C1.07354 21.3854 0.614601 20.9265 0.32698 20.362C0 19.7202 0 18.8802 0 17.2V4.8ZM10 6C10 5.44771 10.4477 5 11 5C11.5523 5 12 5.44772 12 6V10H16C16.5523 10 17 10.4477 17 11C17 11.5523 16.5523 12 16 12H12V16C12 16.5523 11.5523 17 11 17C10.4477 17 10 16.5523 10 16V12H6C5.44772 12 5 11.5523 5 11C5 10.4477 5.44772 10 6 10H10V6Z" fill="#2A4455"/>
</svg>
