<svg width="18" height="19" viewBox="0 0 18 19" fill="none" xmlns="http://www.w3.org/2000/svg">
<path fill-rule="evenodd" clip-rule="evenodd" d="M5.17647 0C5.76124 0 6.23529 0.472588 6.23529 1.05556V1.68889H11.7647V1.05556C11.7647 0.472588 12.2388 0 12.8235 0C13.4083 0 13.8824 0.472588 13.8824 1.05556V1.68889H15.2941C16.8165 1.68889 18 2.94585 18 4.43333V16.2556C18 17.743 16.8165 19 15.2941 19H2.70588C1.18355 19 0 17.743 0 16.2556V4.43333C0 2.94585 1.18355 1.68889 2.70588 1.68889H4.11765V1.05556C4.11765 0.472588 4.5917 0 5.17647 0ZM4.11765 3.8H2.70588C2.40893 3.8 2.11765 4.05533 2.11765 4.43333V6.75556H2.91176C3.49654 6.75556 3.97059 7.22814 3.97059 7.81111C3.97059 8.39408 3.49654 8.86667 2.91176 8.86667H2.11765V16.2556C2.11765 16.6336 2.40893 16.8889 2.70588 16.8889H15.2941C15.5911 16.8889 15.8824 16.6336 15.8824 16.2556V8.86667H6.61765C6.03288 8.86667 5.55882 8.39408 5.55882 7.81111C5.55882 7.22814 6.03288 6.75556 6.61765 6.75556H15.8824V4.43333C15.8824 4.05532 15.5911 3.8 15.2941 3.8H13.8824V4.43333C13.8824 5.0163 13.4083 5.48889 12.8235 5.48889C12.2388 5.48889 11.7647 5.0163 11.7647 4.43333V3.8H6.23529V4.43333C6.23529 5.0163 5.76124 5.48889 5.17647 5.48889C4.5917 5.48889 4.11765 5.0163 4.11765 4.43333V3.8Z" fill="#2A4455"/>
</svg>
