<svg width="48" height="48" viewBox="0 0 48 48" fill="none" xmlns="http://www.w3.org/2000/svg">
<path d="M14.0843 7.1152C14.9208 7.83313 15.4722 8.82587 15.6396 9.91379L16.8036 14.5773C16.9194 15.0409 16.8674 15.5404 16.646 15.9745L13.9492 21.2635C16.3358 25.2713 19.6906 28.6192 23.7071 31.0009L29.0108 28.3074C29.4437 28.0875 29.9414 28.0359 30.4034 28.1508L35.1256 29.3248C36.0731 29.5604 37.1323 29.9818 37.9039 30.8905C38.6341 31.7507 39.0237 32.8481 38.9989 33.9756V41C38.9989 42.6569 37.6557 44 35.9989 44H33.9973L33.9435 43.9942C28.2177 43.3733 22.7175 41.4209 17.8846 38.2939C13.3885 35.4417 9.57609 31.6369 6.71806 27.1494C3.57352 22.3037 1.6165 16.7869 1.00561 11.0457L1 10.993V9.00017C1 7.34332 2.34315 6.00018 4 6.00018H11.0313C12.1504 5.99044 13.2353 6.38646 14.0843 7.1152Z" fill="#BC0000"/>
<path d="M14.0842 7.1152C14.9207 7.83313 15.4722 8.82587 15.6395 9.91379L16.8036 14.5773C16.9193 15.0409 16.8673 15.5404 16.6459 15.9745L15.2976 18.619L8 6.00018H11.0312C12.1503 5.99044 13.2352 6.38646 14.0842 7.1152Z" fill="#DF908A"/>
<path d="M29.0107 28.3074C29.4436 28.0875 29.9413 28.0359 30.4033 28.1508L35.1255 29.3248C36.073 29.5604 37.1323 29.9818 37.9038 30.8905C38.634 31.7507 39.0236 32.8481 38.9988 33.9756V36.5L26.3588 29.6542L29.0107 28.3074Z" fill="#DF908A"/>
<path d="M14.0842 7.1152C14.9207 7.83313 15.4722 8.82587 15.6395 9.91379L16.8036 14.5773C16.9193 15.0409 16.8673 15.5404 16.6459 15.9745L15.2976 18.619L8 6.00018H11.0312C12.1503 5.99044 13.2352 6.38646 14.0842 7.1152Z" fill="#DF908A"/>
<path d="M29.0107 28.3074C29.4436 28.0875 29.9413 28.0359 30.4033 28.1508L35.1255 29.3248C36.073 29.5604 37.1323 29.9818 37.9038 30.8905C38.634 31.7507 39.0236 32.8481 38.9988 33.9756V36.5L26.3588 29.6542L29.0107 28.3074Z" fill="#DF908A"/>
<path d="M34.7071 7.87868C35.2697 7.31607 36.0328 7 36.8284 7H47C47.5523 7 48 7.44772 48 8C48 8.55228 47.5523 9 47 9H36.8284C36.5632 9 36.3089 9.10536 36.1213 9.29289L27.4142 18H31C31.5523 18 32 18.4477 32 19C32 19.5523 31.5523 20 31 20H24V13C24 12.4477 24.4477 12 25 12C25.5523 12 26 12.4477 26 13V16.5858L34.7071 7.87868Z" fill="#92A7B3"/>
</svg>
