<svg width="39" height="45" viewBox="0 0 39 45" fill="none" xmlns="http://www.w3.org/2000/svg">
<path d="M9.5 28C8.94771 28 8.5 28.4477 8.5 29C8.5 29.5523 8.94771 30 9.5 30H33.5C34.0523 30 34.5 29.5523 34.5 29C34.5 28.4477 34.0523 28 33.5 28H9.5Z" fill="#2A4455"/>
<path d="M4.5 29C4.5 28.4477 4.94771 28 5.5 28C6.05228 28 6.5 28.4477 6.5 29C6.5 29.5523 6.05228 30 5.5 30C4.94771 30 4.5 29.5523 4.5 29Z" fill="#2A4455"/>
<path d="M5.5 33C4.94771 33 4.5 33.4477 4.5 34C4.5 34.5523 4.94771 35 5.5 35C6.05228 35 6.5 34.5523 6.5 34C6.5 33.4477 6.05228 33 5.5 33Z" fill="#2A4455"/>
<path d="M4.5 39C4.5 38.4477 4.94771 38 5.5 38C6.05228 38 6.5 38.4477 6.5 39C6.5 39.5523 6.05228 40 5.5 40C4.94771 40 4.5 39.5523 4.5 39Z" fill="#2A4455"/>
<path d="M9.5 33C8.94771 33 8.5 33.4477 8.5 34C8.5 34.5523 8.94771 35 9.5 35H33.5C34.0523 35 34.5 34.5523 34.5 34C34.5 33.4477 34.0523 33 33.5 33H9.5Z" fill="#2A4455"/>
<path d="M8.5 39C8.5 38.4477 8.94771 38 9.5 38H33.5C34.0523 38 34.5 38.4477 34.5 39C34.5 39.5523 34.0523 40 33.5 40H9.5C8.94771 40 8.5 39.5523 8.5 39Z" fill="#2A4455"/>
<path fill-rule="evenodd" clip-rule="evenodd" d="M38.173 43.362C38.3658 42.9836 38.4371 42.5904 38.4694 42.195C38.5 41.8205 38.5 41.3658 38.5 40.8386V4.16146C38.5 3.63436 38.5 3.17952 38.4694 2.80497C38.4371 2.40963 38.3658 2.01641 38.173 1.63803C37.8854 1.07354 37.4265 0.614603 36.862 0.326983C36.4836 0.134189 36.0904 0.062873 35.695 0.0305721C35.3205 -3.09404e-05 34.8657 -1.6241e-05 34.3386 8.00205e-07H14.1337L0.500002 11.5362L0.500001 40.8386C0.499982 41.3657 0.499967 41.8205 0.530572 42.195C0.562871 42.5904 0.634187 42.9836 0.826981 43.362C1.1146 43.9265 1.57354 44.3854 2.13803 44.673C2.51641 44.8658 2.90963 44.9371 3.30497 44.9694C3.67954 45 4.1343 45 4.66144 45H34.3386C34.8657 45 35.3205 45 35.695 44.9694C36.0904 44.9371 36.4836 44.8658 36.862 44.673C37.4265 44.3854 37.8854 43.9265 38.173 43.362ZM36.5 40.8C36.5 41.3766 36.4992 41.7488 36.4761 42.0322C36.4539 42.3038 36.4162 42.4045 36.391 42.454C36.2951 42.6422 36.1422 42.7951 35.954 42.891C35.9045 42.9162 35.8038 42.9539 35.5322 42.9761C35.2488 42.9992 34.8766 43 34.3 43H4.7C4.12345 43 3.75117 42.9992 3.46784 42.9761C3.19617 42.9539 3.09546 42.9162 3.04601 42.891C2.85785 42.7951 2.70487 42.6422 2.60899 42.454C2.5838 42.4045 2.54612 42.3038 2.52393 42.0322C2.50078 41.7488 2.5 41.3766 2.5 40.8L2.5 13H4.5V22C4.5 23.6569 5.84314 25 7.5 25H31.5C33.1569 25 34.5 23.6569 34.5 22V8C34.5 6.34315 33.1569 5 31.5 5H20.2368C19.6846 5 19.2368 5.44772 19.2368 6C19.2368 6.55229 19.6846 7 20.2368 7H31.5C32.0523 7 32.5 7.44772 32.5 8V22C32.5 22.5523 32.0523 23 31.5 23H7.5C6.94771 23 6.5 22.5523 6.5 22V13H11.3386C11.8657 13 12.3205 13 12.695 12.9694C13.0904 12.9371 13.4836 12.8658 13.862 12.673C14.4265 12.3854 14.8854 11.9265 15.173 11.362C15.3658 10.9836 15.4371 10.5904 15.4694 10.195C15.5 9.82047 15.5 9.36571 15.5 8.83857V2L34.3 2C34.8766 2 35.2488 2.00078 35.5322 2.02393C35.8038 2.04613 35.9045 2.0838 35.954 2.109C36.1422 2.20487 36.2951 2.35785 36.391 2.54601C36.4162 2.59546 36.4539 2.69618 36.4761 2.96784C36.4992 3.25118 36.5 3.62345 36.5 4.2L36.5 40.8ZM11.3 11C11.8765 11 12.2488 10.9992 12.5322 10.9761C12.8038 10.9539 12.9045 10.9162 12.954 10.891C13.1421 10.7951 13.2951 10.6422 13.391 10.454C13.4162 10.4045 13.4539 10.3038 13.4761 10.0322C13.4992 9.74883 13.5 9.37656 13.5 8.8V3.15611L4.22994 11H11.3Z" fill="#2A4455"/>
</svg>
