<svg width="48" height="36" viewBox="0 0 48 36" fill="none" xmlns="http://www.w3.org/2000/svg">
<path d="M38 24C37.4477 24 37 24.4477 37 25V30C37 30.5523 37.4477 31 38 31C38.5523 31 39 30.5523 39 30V25C39 24.4477 38.5523 24 38 24Z" fill="#2A4455"/>
<path d="M38 23C38.5523 23 39 22.5523 39 22C39 21.4477 38.5523 21 38 21C37.4477 21 37 21.4477 37 22C37 22.5523 37.4477 23 38 23Z" fill="#2A4455"/>
<path fill-rule="evenodd" clip-rule="evenodd" d="M34.8385 8.0428e-07H4.16146C3.63433 -1.62948e-05 3.17954 -3.10428e-05 2.80498 0.030572C2.43377 0.0609004 2.06445 0.125624 1.70752 0.293002L1.69745 0.283204L1.67077 0.310622L1.63803 0.326983C1.07355 0.614603 0.614604 1.07354 0.326984 1.63803C0.13419 2.01641 0.0628738 2.40963 0.0305728 2.80498C-2.94745e-05 3.17953 -1.54804e-05 3.63427 7.43433e-07 4.16138V25.8385C-1.54804e-05 26.3657 -2.94745e-05 26.8205 0.0305728 27.195C0.0608845 27.566 0.125554 27.9352 0.292726 28.2919L0.268424 28.318L0.337437 28.3823C0.62566 28.9375 1.08034 29.3889 1.63803 29.673C2.01641 29.8658 2.40963 29.9371 2.80498 29.9694C3.17954 30 3.6343 30 4.16144 30H28L28 30.8638C27.9999 31.3686 27.9999 31.8602 28.0339 32.2765C28.0713 32.7337 28.1594 33.2731 28.436 33.816C28.8195 34.5686 29.4314 35.1805 30.184 35.564C30.7269 35.8406 31.2664 35.9288 31.7236 35.9661C32.1399 36.0001 32.6315 36.0001 33.1362 36H42.8638C43.3685 36.0001 43.8601 36.0001 44.2765 35.9661C44.7337 35.9288 45.2731 35.8406 45.816 35.564C46.5686 35.1805 47.1805 34.5686 47.564 33.816C47.8406 33.2731 47.9288 32.7337 47.9661 32.2765C48.0001 31.8601 48.0001 31.3685 48 30.8638V21.1362C48.0001 20.6315 48.0001 20.1399 47.9661 19.7236C47.9288 19.2664 47.8406 18.7269 47.564 18.184C47.1805 17.4314 46.5686 16.8195 45.816 16.436C45.2731 16.1594 44.7337 16.0713 44.2765 16.0339C43.8602 15.9999 43.3686 15.9999 42.8638 16L39 16V4.16144C39 3.6343 39 3.17954 38.9694 2.80497C38.9371 2.40963 38.8658 2.01641 38.673 1.63803C38.3854 1.07354 37.9265 0.614603 37.362 0.326983L37.3296 0.310786L37.3027 0.283204L37.2926 0.293058C36.9356 0.125638 36.5663 0.0609038 36.195 0.030572C35.8205 -3.10447e-05 35.3657 -1.62948e-05 34.8385 8.0428e-07ZM2 4.2C2 3.86184 2.00027 3.59396 2.00516 3.37307L13.2875 14.3505L2.00236 26.4577C2.00016 26.2721 2 26.0562 2 25.8V4.2ZM3.30527 27.9932L14.7213 15.7455L18.1054 19.0381C18.8818 19.7935 20.1184 19.7935 20.8948 19.0381L24.3055 15.7196L28.0593 19.4734C28.0487 19.5591 28.0405 19.6426 28.0339 19.7236C27.9999 20.1399 27.9999 20.6314 28 21.1362L28 28H4.20001C3.82647 28 3.53868 27.9997 3.30527 27.9932ZM28.8939 17.4796L25.7391 14.3248L36.9948 3.37324C36.9997 3.59409 37 3.86193 37 4.2V16L33.1362 16C32.6315 15.9999 32.1399 15.9999 31.7236 16.0339C31.2664 16.0713 30.7269 16.1594 30.184 16.436C29.683 16.6913 29.2444 17.0478 28.8939 17.4796ZM19.5001 17.6047L35.5347 2.00342C35.3323 2.0002 35.0925 2 34.8 2H4.2C3.90763 2 3.66779 2.0002 3.46544 2.00342L19.5001 17.6047ZM30.218 19.092C30 19.5199 30 20.0799 30 21.2V30.8C30 31.9201 30 32.4802 30.218 32.908C30.4097 33.2843 30.7157 33.5903 31.092 33.782C31.5199 34 32.0799 34 33.2 34H42.8C43.9201 34 44.4802 34 44.908 33.782C45.2843 33.5903 45.5903 33.2843 45.782 32.908C46 32.4802 46 31.9201 46 30.8V21.2C46 20.0799 46 19.5199 45.782 19.092C45.5903 18.7157 45.2843 18.4097 44.908 18.218C44.4802 18 43.9201 18 42.8 18H33.2C32.0799 18 31.5199 18 31.092 18.218C30.7157 18.4097 30.4097 18.7157 30.218 19.092Z" fill="#2A4455"/>
</svg>
