<svg width="18" height="19" viewBox="0 0 18 19" fill="none" xmlns="http://www.w3.org/2000/svg">
<path d="M1 18C1 18.5523 1.44772 19 2 19C2.55228 19 3 18.5523 3 18H1ZM3 12C3 11.4477 2.55228 11 2 11C1.44772 11 1 11.4477 1 12H3ZM1 8C1 8.55228 1.44772 9 2 9C2.55228 9 3 8.55228 3 8H1ZM3 1C3 0.447715 2.55228 0 2 0C1.44772 0 1 0.447715 1 1H3ZM8 18C8 18.5523 8.44772 19 9 19C9.55229 19 10 18.5523 10 18H8ZM10 10C10 9.44771 9.55229 9 9 9C8.44772 9 8 9.44771 8 10H10ZM8 6C8 6.55228 8.44772 7 9 7C9.55229 7 10 6.55228 10 6H8ZM10 1C10 0.447715 9.55229 0 9 0C8.44772 0 8 0.447715 8 1H10ZM15 18C15 18.5523 15.4477 19 16 19C16.5523 19 17 18.5523 17 18H15ZM17 14C17 13.4477 16.5523 13 16 13C15.4477 13 15 13.4477 15 14H17ZM15 10C15 10.5523 15.4477 11 16 11C16.5523 11 17 10.5523 17 10H15ZM17 1C17 0.447715 16.5523 0 16 0C15.4477 0 15 0.447715 15 1H17ZM1 11C0.447715 11 0 11.4477 0 12C0 12.5523 0.447715 13 1 13V11ZM3 13C3.55228 13 4 12.5523 4 12C4 11.4477 3.55228 11 3 11V13ZM8 5C7.44772 5 7 5.44772 7 6C7 6.55228 7.44772 7 8 7V5ZM10 7C10.5523 7 11 6.55228 11 6C11 5.44772 10.5523 5 10 5V7ZM15 13C14.4477 13 14 13.4477 14 14C14 14.5523 14.4477 15 15 15V13ZM17 15C17.5523 15 18 14.5523 18 14C18 13.4477 17.5523 13 17 13V15ZM3 18V12H1V18H3ZM3 8V1H1V8H3ZM10 18V10H8V18H10ZM10 6V1H8V6H10ZM17 18V14H15V18H17ZM17 10V1H15V10H17ZM1 13H3V11H1V13ZM8 7H10V5H8V7ZM15 15H17V13H15V15Z" fill="black"/>
</svg>
