<svg width="44" height="44" viewBox="0 0 44 44" fill="none" xmlns="http://www.w3.org/2000/svg">
<path d="M44 21C44 18.2422 43.4568 15.5115 42.4015 12.9636C41.3461 10.4158 39.7993 8.10079 37.8492 6.15076C35.8992 4.20073 33.5842 2.65388 31.0364 1.59853C28.4885 0.543181 25.7578 0 23 0V21H44Z" fill="#BC0000"/>
<path d="M21 2C16.8466 2 12.7865 3.23163 9.33302 5.53914C5.87959 7.84665 3.18797 11.1264 1.59853 14.9636C0.00908955 18.8009 -0.406781 23.0233 0.403509 27.0969C1.2138 31.1705 3.21385 34.9123 6.15076 37.8492C9.08766 40.7861 12.8295 42.7862 16.9031 43.5965C20.9767 44.4068 25.1991 43.9909 29.0364 42.4015C32.8736 40.812 36.1534 38.1204 38.4609 34.667C40.7684 31.2135 42 27.1534 42 23H21V2Z" fill="#DF908A"/>
</svg>
