<svg width="16" height="18" viewBox="0 0 16 18" fill="none" xmlns="http://www.w3.org/2000/svg">
<path fill-rule="evenodd" clip-rule="evenodd" d="M7.5 1.89475C6.00619 1.89475 4.57479 2.49058 3.52036 3.5492C2.46614 4.60761 1.875 6.04181 1.875 7.53595C1.875 9.71507 3.29341 11.8626 4.89723 13.5623C5.67959 14.3914 6.46518 15.0709 7.05627 15.5434C7.22145 15.6755 7.37084 15.7909 7.5 15.8884C7.62916 15.7909 7.77855 15.6755 7.94373 15.5434C8.53482 15.0709 9.32041 14.3914 10.1028 13.5623C11.7066 11.8626 13.125 9.71507 13.125 7.53595C13.125 6.04181 12.5339 4.60761 11.4796 3.5492C10.4252 2.49058 8.99381 1.89475 7.5 1.89475ZM7.5 17.0528C6.98231 17.8426 6.98183 17.8423 6.98183 17.8423L6.97947 17.8407L6.97424 17.8372L6.95678 17.8253C6.94207 17.8153 6.9213 17.801 6.89487 17.7827C6.84201 17.7459 6.76647 17.6927 6.67147 17.6238C6.48157 17.4861 6.21338 17.2856 5.89295 17.0294C5.25357 16.5182 4.39853 15.7794 3.54027 14.8698C1.86284 13.0922 0 10.4813 0 7.53595C5.58794e-08 5.5353 0.79167 3.61783 2.19886 2.20505C3.60585 0.792475 5.51284 0 7.5 0C9.48716 0 11.3942 0.792475 12.8011 2.20505C14.2083 3.61783 15 5.5353 15 7.53595C15 10.4813 13.1372 13.0922 11.4597 14.8698C10.6015 15.7794 9.74643 16.5182 9.10706 17.0294C8.78662 17.2856 8.51843 17.4861 8.32853 17.6238C8.23353 17.6927 8.15799 17.7459 8.10513 17.7827C8.0787 17.801 8.05793 17.8153 8.04323 17.8253L8.02576 17.8372L8.02053 17.8407L8.01881 17.8419C8.01881 17.8419 8.01769 17.8426 7.5 17.0528ZM7.5 17.0528L8.01769 17.8426C7.70386 18.0527 7.29566 18.0523 6.98183 17.8423L7.5 17.0528ZM7.5 6.28714C6.80388 6.28714 6.25 6.85206 6.25 7.53595C6.25 8.21985 6.80388 8.78477 7.5 8.78477C8.19612 8.78477 8.75 8.21985 8.75 7.53595C8.75 6.85206 8.19612 6.28714 7.5 6.28714ZM4.375 7.53595C4.375 5.794 5.77988 4.39238 7.5 4.39238C9.22012 4.39238 10.625 5.794 10.625 7.53595C10.625 9.27791 9.22012 10.6795 7.5 10.6795C5.77988 10.6795 4.375 9.27791 4.375 7.53595Z" fill="#808080"/>
</svg>
