<svg width="16" height="16" viewBox="0 0 16 16" fill="none" xmlns="http://www.w3.org/2000/svg">
<path fill-rule="evenodd" clip-rule="evenodd" d="M8 1.77778C4.56356 1.77778 1.77778 4.56356 1.77778 8C1.77778 11.4364 4.56356 14.2222 8 14.2222C11.4364 14.2222 14.2222 11.4364 14.2222 8C14.2222 4.56356 11.4364 1.77778 8 1.77778ZM0 8C0 3.58172 3.58172 0 8 0C12.4183 0 16 3.58172 16 8C16 12.4183 12.4183 16 8 16C3.58172 16 0 12.4183 0 8ZM8 2.84444C8.49092 2.84444 8.88889 3.24241 8.88889 3.73333V7.45064L11.242 8.62718C11.6811 8.84672 11.859 9.38065 11.6395 9.81975C11.4199 10.2588 10.886 10.4368 10.4469 10.2173L7.60248 8.79505C7.30133 8.64447 7.11111 8.33669 7.11111 8V3.73333C7.11111 3.24241 7.50908 2.84444 8 2.84444Z" fill="#808080"/>
</svg>
