<svg width="16" height="16" viewBox="0 0 16 16" fill="none" xmlns="http://www.w3.org/2000/svg">
<path fill-rule="evenodd" clip-rule="evenodd" d="M4.60956 1.66884C4.49624 1.57157 4.35108 1.51856 4.20112 1.52003L4.19366 1.5201L2.12933 1.52007C1.79281 1.52007 1.52 1.79287 1.52 2.1294V2.21627C1.73794 4.20583 2.41932 6.11721 3.50997 7.79745L3.5136 7.80304C4.5101 9.36813 5.83972 10.6952 7.40816 11.6899L7.41409 11.6936C9.09008 12.7784 10.9962 13.4584 12.9812 13.68H13.0661C13.4049 13.68 13.6796 13.4053 13.6796 13.0665V11.0063L13.6796 11.0033C13.6796 10.998 13.6797 10.9927 13.6798 10.9874C13.6835 10.8374 13.6319 10.691 13.5344 10.5762C13.4661 10.4957 13.3353 10.415 13.0727 10.3497L11.4161 9.9379L11.4135 9.93782L9.70488 10.8054C9.25534 11.0337 8.70152 11.0326 8.24595 10.7512C6.69666 9.7944 5.39086 8.49148 4.43172 6.94518C4.14844 6.48848 4.14735 5.93246 4.37717 5.48174L5.2453 3.77914L4.83249 2.12532C4.82612 2.09977 4.82107 2.07391 4.81738 2.04784C4.79656 1.90083 4.72285 1.76607 4.60956 1.66884ZM2.12933 6.66216e-05H4.19033C4.70679 -0.00400798 5.2075 0.178942 5.59953 0.515423C5.98155 0.843307 6.23508 1.2953 6.31577 1.79134L6.71953 3.40895C6.80781 3.76262 6.76705 4.14086 6.59943 4.4696L5.73565 6.16366C6.56545 7.49469 7.69095 8.61778 9.02507 9.44584L10.7257 8.58213C11.0536 8.41562 11.4305 8.37519 11.7829 8.4628L13.4394 8.87465C13.8319 8.97223 14.325 9.15885 14.6931 9.59246C15.0298 9.98902 15.2099 10.4948 15.1996 11.0147V13.0665C15.1996 14.2448 14.2444 15.2 13.0661 15.2H12.9395C12.9121 15.2 12.8848 15.1985 12.8576 15.1956C10.6234 14.9533 8.47719 14.1916 6.5912 12.9717C4.83667 11.8584 3.34883 10.3735 2.23319 8.62221C1.00629 6.7311 0.242671 4.57814 0.00426613 2.33758C0.00142404 2.31087 0 2.28403 0 2.25717V2.1294C0 0.953401 0.953336 6.66216e-05 2.12933 6.66216e-05Z" fill="#808080"/>
<path fill-rule="evenodd" clip-rule="evenodd" d="M7.93315 1.51185C7.98184 1.07271 8.3773 0.756188 8.81644 0.80488C10.24 0.962719 11.5676 1.599 12.5814 2.60958C13.5952 3.62018 14.2349 4.94506 14.3949 6.36677C14.4444 6.80583 14.1285 7.20183 13.6894 7.25126C13.2504 7.30068 12.8544 6.98483 12.805 6.54577C12.6856 5.48554 12.2086 4.49707 11.4519 3.74274C10.6951 2.98839 9.70363 2.51306 8.64011 2.39514C8.20097 2.34645 7.88446 1.95099 7.93315 1.51185ZM7.94302 3.89358C8.02748 3.45989 8.44751 3.17679 8.88119 3.26124C9.6357 3.40817 10.3293 3.77651 10.8732 4.31937C11.4171 4.86224 11.7865 5.55495 11.9339 6.30891C12.0187 6.74253 11.7359 7.16277 11.3023 7.24753C10.8686 7.3323 10.4484 7.04949 10.3636 6.61587C10.2775 6.17505 10.0614 5.76972 9.74294 5.45182C9.42442 5.13391 9.01791 4.91792 8.57536 4.83174C8.14168 4.74729 7.85857 4.32726 7.94302 3.89358Z" fill="#808080"/>
</svg>
