<svg width="166" height="40" viewBox="0 0 166 40" fill="none" xmlns="http://www.w3.org/2000/svg">
<rect width="166" height="40" fill="#FDBB27"/>
<path d="M37.5733 7.69336C35.7934 15.9898 34.0338 24.192 32.2608 32.4571C24.0643 32.4571 15.8739 32.4571 7.60156 32.4571C7.63736 32.2173 7.65502 32.0232 7.69597 31.8342C8.45118 28.3488 9.22502 24.8674 9.9589 21.3775C10.2703 19.8971 10.9495 18.5773 11.6174 17.249C13.1193 14.2617 14.6349 11.2813 16.1458 8.29877C16.2461 8.10073 16.3557 7.90737 16.4709 7.69363C23.4846 7.69338 30.4774 7.69336 37.5733 7.69336Z" fill="#BD2729"/>
<path d="M110.543 21.3076C116.135 21.3076 121.676 21.3076 127.36 21.3076C126.554 25.0274 125.751 28.7331 124.953 32.422C119.268 32.422 113.709 32.422 108.117 32.422C108.934 28.6806 109.731 25.0286 110.543 21.3076Z" fill="#BD2729"/>
<path d="M135.419 32.4504C133.083 32.4504 130.791 32.4504 128.48 32.4504C130.25 24.1631 132.005 15.9442 133.768 7.68945C136.08 7.68945 138.357 7.68945 140.715 7.68945C138.949 15.9479 137.192 24.1636 135.419 32.4504Z" fill="#BD2729"/>
<path d="M144.303 32.4726C142.992 32.4726 141.799 32.4726 140.531 32.4726C142.316 24.1553 144.088 15.902 145.853 7.67676C147.134 7.67676 148.305 7.67676 149.578 7.67676C147.811 15.9818 146.063 24.2017 144.303 32.4726Z" fill="#BD2729"/>
<path d="M77.2027 18.6888C74.137 18.7381 71.867 16.595 71.8829 13.5297C71.8954 11.1391 73.0091 9.3101 75.121 8.14617C77.1615 7.02176 79.2195 7.1371 81.1831 8.29931C83.138 9.45636 83.9658 12.0814 83.2604 14.3935C82.4748 16.9685 80.2121 18.7828 77.2027 18.6888ZM75.0487 13.3371C75.0303 14.5994 76.0027 15.7751 77.178 15.8404C78.3907 15.9076 79.3063 15.3602 79.8987 14.3143C80.4828 13.2834 80.461 12.2132 79.769 11.2691C79.4718 10.8635 78.9316 10.4784 78.4479 10.3945C76.616 10.0767 75.0761 11.4622 75.0487 13.3371Z" fill="black"/>
<path d="M69.4773 28.505C69.1561 29.8508 68.8697 31.0508 68.5728 32.2942C67.5324 32.2942 66.57 32.2942 65.457 32.2942C66.2556 28.6088 67.0393 24.9487 67.8115 21.3845C67.8115 21.3845 68.2013 21.3843 68.3394 21.3845C69.7475 21.3865 71.1623 21.3165 72.5617 21.4316C73.3471 21.4962 74.2111 21.7104 74.8575 22.1347C76.4743 23.1958 76.5481 25.4432 75.2844 27.0554C74.818 27.6505 74.1736 27.9298 73.479 28.1357C73.2698 28.1977 73.0634 28.2687 72.7292 28.3761C73.1747 29.0699 73.5692 29.6984 73.9785 30.3173C74.3914 30.9416 74.8187 31.5563 75.3089 32.2768C74.0917 32.2768 73.0003 32.2988 71.9117 32.2542C71.7393 32.2471 71.5375 31.9644 71.4208 31.7671C70.9022 30.8898 70.4125 29.995 69.9047 29.1111C69.8027 28.9325 69.6673 28.772 69.4773 28.505ZM69.8741 25.9386C70.8235 25.9416 71.6312 26.0353 72.4052 25.7418C73.3683 25.3769 72.321 24.1405 71.2913 24.13C70.9886 24.1269 70.6949 24.1361 70.4415 24.1403C70.4415 24.1403 70.0656 25.3305 69.8741 25.9386Z" fill="black"/>
<path d="M110.399 7.66113C111.505 7.66113 112.474 7.66113 113.535 7.66113C113.229 8.97058 112.925 10.267 112.61 11.615C113.853 11.615 115.071 11.615 116.404 11.615C116.718 10.3485 117.043 9.0351 117.377 7.68884C118.435 7.68884 119.443 7.68884 120.48 7.68884C119.67 11.3261 118.871 14.9195 118.066 18.5355C117.039 18.5355 116.052 18.5355 114.959 18.5355C115.27 17.1455 115.561 15.8437 115.867 14.4741C114.584 14.4741 113.371 14.4741 112.061 14.4741C111.765 15.7985 111.459 17.1595 111.149 18.5436C110.145 18.5436 109.12 18.5436 108.008 18.5436C108.811 14.8884 109.595 11.3181 110.399 7.66113Z" fill="black"/>
<path d="M86.3498 21.4111C86.0776 22.3019 85.8179 23.152 85.5305 24.0933C83.8374 24.0933 82.136 24.0933 80.3804 24.0933C80.2982 24.5463 80.2315 24.9154 80.1408 25.4155C81.803 25.4155 83.3787 25.4155 85.0911 25.4155C84.8906 26.3809 84.7192 27.2048 84.5353 28.0904C82.8704 28.0904 81.2673 28.0904 79.569 28.0904C79.4459 28.5898 79.3351 29.0389 79.2051 29.5665C81.0216 29.5665 82.7039 29.5665 84.5024 29.5665C84.3227 30.5105 84.1555 31.3888 83.9802 32.309C81.138 32.309 78.3754 32.309 75.4609 32.309C76.25 28.6364 77.0209 25.0489 77.8026 21.4111C80.6288 21.4111 83.4527 21.4111 86.3498 21.4111Z" fill="black"/>
<path d="M35.9336 32.2909C36.7246 28.6065 37.4923 25.0318 38.2603 21.4541C41.1188 21.4541 43.9013 21.4541 46.7488 21.4541C46.5772 22.2507 46.4374 22.9626 46.267 23.6669C46.1689 24.0727 45.8237 24.086 45.4829 24.085C44.1566 24.0806 42.8301 24.0796 41.5035 24.0806C41.3044 24.0808 41.1053 24.098 40.8717 24.1091C40.7422 24.5226 40.6238 24.9012 40.4666 25.4035C42.2036 25.4035 43.8398 25.4035 45.5861 25.4035C45.3431 26.3417 45.132 27.1567 44.8961 28.0676C43.3295 28.0676 41.7311 28.0676 40.0672 28.0676C39.8965 28.579 39.7467 29.0274 39.5459 29.6291C41.4243 29.6291 43.1822 29.6291 45.043 29.6291C44.7956 30.5898 44.5854 31.405 44.3395 32.3601C41.5867 32.3552 38.8105 32.4116 35.9336 32.2909Z" fill="black"/>
<path d="M105.106 14.3099C104.233 14.4054 103.457 14.7129 102.7 14.3541C102.564 13.7121 102.729 13.0424 103.198 12.3374C104.87 12.3374 106.567 12.3374 108.29 12.3374C108.424 13.6464 108.095 14.7774 107.575 15.8395C106.689 17.6464 105.143 18.5242 103.182 18.6896C101.817 18.8047 100.516 18.6442 99.3343 17.811C98.3174 17.0937 97.5997 16.2142 97.3418 14.9939C96.5353 11.1774 98.583 8.04074 102.499 7.43755C104.267 7.16516 105.781 7.7789 107.155 8.83584C107.231 8.89449 107.279 8.98921 107.371 9.107C107.265 9.2373 107.183 9.37548 107.067 9.47584C106.605 9.87584 106.122 10.2518 105.669 10.6606C105.365 10.9345 105.096 10.9468 104.734 10.7519C102.293 9.43878 100.396 11.1225 100.307 13.1713C100.245 14.6091 100.844 15.5754 101.975 15.9033C103.202 16.2586 104.447 15.7791 104.975 14.7428C105.027 14.6407 105.044 14.5203 105.106 14.3099Z" fill="black"/>
<path d="M100.594 24.0361C99.7226 24.0695 100.447 25.1709 101.286 25.4064C101.457 25.4545 101.628 25.5035 101.799 25.5542C102.344 25.7161 102.907 25.8501 103.419 26.0889C105.115 26.8803 105.442 28.8099 104.622 30.1937C103.88 31.4452 102.808 32.2533 101.302 32.4253C99.184 32.6675 97.1998 32.2673 95.3223 31.2855C95.2191 31.2315 95.1372 31.1372 94.9727 31.0018C95.4562 30.2325 95.9338 29.4725 96.4728 28.615C97.941 29.3767 99.4704 30.0359 101.192 29.5564C101.424 29.4918 101.573 29.3029 101.573 29.0621C101.573 28.7941 101.389 28.5312 101.128 28.4683C100.601 28.3409 100.068 28.2083 99.5287 28.1026C98.5413 27.909 97.6414 27.5767 97.0142 26.7316C95.9402 25.2845 96.6282 22.7154 98.3238 21.8317C100.11 20.9004 101.955 21.0693 103.811 21.5475C104.534 21.734 105.271 21.9117 105.911 22.5451C105.449 23.3095 104.992 24.0641 104.517 24.8494C104.262 24.7584 104.086 24.7169 103.93 24.6361C102.878 24.0919 101.748 23.9924 100.594 24.0361Z" fill="black"/>
<path d="M86.5663 28.6084C86.9697 28.8044 87.2823 28.9401 87.5798 29.1038C88.6226 29.6776 89.7402 29.8089 90.9017 29.6788C90.9287 29.6758 90.955 29.6722 90.9807 29.6679C91.7698 29.537 91.1485 28.5076 90.3834 28.2746C89.664 28.0555 88.9284 27.8832 88.221 27.6312C87.2456 27.2837 86.6848 26.5272 86.5666 25.5316C86.3113 23.3811 87.3198 21.973 89.5234 21.4165C91.6736 20.8732 93.7804 21.2079 95.7201 22.3473C95.8158 22.4035 95.8802 22.5124 95.97 22.6081C95.4595 23.3671 94.9661 24.1006 94.4488 24.8697C94.1597 24.7424 93.9152 24.6503 93.6855 24.5303C92.7885 24.0619 91.8229 23.9453 90.8333 23.9819C90.6917 23.9871 90.5731 24.0015 90.4729 24.03C89.8279 24.2133 90.3473 25.1638 90.9848 25.3713C91.8916 25.6663 92.8366 25.8683 93.7073 26.2435C94.7952 26.7124 95.163 27.6722 95.0691 28.8101C94.9198 30.6182 93.4609 32.1249 91.5027 32.3855C89.2577 32.6844 87.1183 32.2989 85.0547 31.0977C85.3502 30.1882 86.0683 29.5303 86.5663 28.6084Z" fill="black"/>
<path d="M63.089 7.69532C62.8298 8.87814 62.5935 10.0308 62.322 11.1753C61.9653 12.6796 61.6543 14.2006 61.1899 15.6722C60.5811 17.6016 58.9576 18.5633 56.9985 18.6745C56.0459 18.7284 55.0928 18.7221 54.1593 18.3815C52.299 17.7024 51.6912 16.0953 51.9521 14.4855C52.2485 12.6568 52.6712 10.8484 53.0385 9.03126C53.1266 8.59568 53.2119 8.15987 53.3046 7.69238C54.3788 7.69238 55.4074 7.69238 56.4932 7.69238C56.4551 7.91717 56.4306 8.11323 56.3882 8.30513C55.9794 10.1547 55.567 12.0038 55.1575 13.8531C55.1267 13.9923 55.1024 14.1334 55.0879 14.275C54.9658 15.4794 55.962 16.1957 57.1162 15.755C57.9484 15.4372 58.3613 14.7837 58.5553 13.98C58.8897 12.5945 59.1813 11.1989 59.4917 9.80748C59.6459 9.1157 59.8021 8.42415 59.9657 7.69556C61.0232 7.69531 62.032 7.69532 63.089 7.69532Z" fill="black"/>
<path d="M48.8007 7.66628C49.3853 11.2233 49.9791 14.8371 50.5836 18.5151C49.579 18.5151 48.5778 18.5151 47.4455 18.5151C47.3584 17.88 47.2694 17.2309 47.1667 16.4827C46.3926 16.4827 45.6048 16.4805 44.8172 16.484C44.4908 16.4854 44.1645 16.508 43.8381 16.5046C43.4662 16.5006 43.2271 16.6778 43.0667 17.0005C42.8681 17.4008 42.6759 17.8064 42.4432 18.187C42.3493 18.3406 42.1592 18.5335 42.0077 18.5379C40.9732 18.5686 39.9375 18.5541 38.8672 18.5541C38.8839 18.4494 38.8748 18.3627 38.9103 18.3028C40.9364 14.8854 42.9713 11.4731 44.9878 8.05008C45.1784 7.7264 45.4221 7.66383 45.7445 7.66506C46.7403 7.66874 47.736 7.66628 48.8007 7.66628ZM46.5441 11.0376C46.4924 11.0324 46.4407 11.0275 46.3887 11.0226C45.8833 11.9033 45.3777 12.7843 44.8395 13.7222C45.5413 13.7222 46.1481 13.7222 46.8124 13.7222C46.7182 12.7797 46.6312 11.9085 46.5441 11.0376Z" fill="black"/>
<path d="M58.1576 21.4551C59.9007 21.4551 61.6041 21.3246 63.2795 21.486C65.7171 21.7211 66.9234 24.0203 65.9777 26.291C65.2816 27.9621 63.9546 28.6858 62.2556 28.8298C61.3883 28.9032 60.5098 28.8426 59.6437 28.8426C59.4056 29.8451 59.1678 30.7501 58.9829 31.6659C58.8932 32.1106 58.6786 32.2831 58.2375 32.29C57.4654 32.3025 56.6937 32.3518 55.9422 32.3847C55.7588 31.8434 57.6463 22.6907 58.1576 21.4551ZM60.2212 26.2038C60.9612 26.2681 61.6659 26.3501 62.3539 26.0909C62.8252 25.9133 63.0537 25.5155 63.0667 25.0426C63.0731 24.8122 63.0667 24.3764 62.7206 24.2628C62.1485 24.0751 61.4946 24.0174 60.759 24.0174L60.2212 26.2038Z" fill="black"/>
<path d="M55.2988 32.2895C54.116 32.2895 53.0759 32.2895 52.0249 32.2895C51.601 31.2694 51.2052 30.3168 50.7592 29.2434C49.9027 30.3055 49.1085 31.29 48.2967 32.2969C47.1418 32.2969 46.007 32.2969 44.7227 32.2969C45.1424 31.7312 45.4713 31.2326 45.8557 30.7808C46.9248 29.5246 48.0132 28.2844 49.1029 27.0459C49.3709 26.7413 49.2767 26.4458 49.1458 26.1374C48.6042 24.8625 48.0591 23.5894 47.5204 22.3133C47.4123 22.0569 47.3267 21.7911 47.1965 21.4365C48.2945 21.4365 49.2968 21.4365 50.3662 21.4365C50.7163 22.3968 51.0829 23.4022 51.4786 24.4873C52.0296 23.7862 52.6034 23.1825 53.0254 22.4871C53.578 21.5762 54.2769 21.4399 55.3625 21.4399C55.3625 21.4399 56.7851 21.44 57.4467 21.44C55.9458 23.2203 54.3941 25.1136 52.8527 26.9418C53.6499 28.6837 54.4495 30.4321 55.2988 32.2895Z" fill="black"/>
<path d="M124.853 18.5665C123.807 18.5665 122.82 18.5665 121.734 18.5665C122.337 15.8119 122.922 13.1397 123.519 10.4094C122.505 10.4094 121.501 10.4094 120.406 10.4094C120.634 9.47272 120.843 8.61161 121.064 7.7002C124.14 7.7002 127.187 7.7002 130.32 7.7002C130.083 8.62952 129.86 9.50461 129.621 10.4418C128.617 10.4418 127.646 10.4418 126.653 10.4418C126.049 13.1665 125.46 15.8244 124.853 18.5665Z" fill="black"/>
<path d="M63.0078 10.421C63.227 9.43006 63.4146 8.5832 63.6125 7.68945C66.6647 7.68945 69.7121 7.68945 72.8418 7.68945C72.6392 8.61117 72.4507 9.46982 72.2425 10.4183C71.2284 10.4183 70.2405 10.4183 69.2219 10.4183C68.6168 13.1638 68.0312 15.821 67.4344 18.5294C66.3896 18.5294 65.3661 18.5294 64.2897 18.5294C64.8851 15.8247 65.4694 13.1699 66.0745 10.421C65.0454 10.421 64.0828 10.421 63.0078 10.421Z" fill="black"/>
<path d="M92.0144 15.7701C91.7651 16.7608 91.5478 17.6231 91.3178 18.5367C88.6032 18.5367 85.9014 18.5367 83.1328 18.5367C83.9371 14.882 84.7259 11.2974 85.5257 7.66309C86.5931 7.66309 87.58 7.66309 88.6206 7.66309C88.0402 10.3512 87.4625 13.0273 86.8701 15.7703C88.5601 15.7701 90.2237 15.7701 92.0144 15.7701Z" fill="black"/>
<path d="M153.138 32.4313C152.457 32.4313 151.859 32.4313 151.23 32.4313C153.012 24.1749 154.788 15.945 156.572 7.67871C157.255 7.67871 157.836 7.67871 158.477 7.67871C156.698 15.9248 154.922 24.1607 153.138 32.4313Z" fill="#BD2729"/>
<path d="M94.3632 7.63965C94.6466 7.63965 94.8266 7.63965 95.0068 7.63965C95.7963 7.63965 96.5859 7.63965 97.4534 7.63965C96.6526 11.328 95.8699 14.9327 95.0838 18.5528C93.9914 18.5528 93.0423 18.5528 91.9609 18.5528C92.7703 14.8765 93.5628 11.276 94.3632 7.63965Z" fill="black"/>
</svg>
