<svg width="56" height="70" viewBox="0 0 56 70" fill="none" xmlns="http://www.w3.org/2000/svg">
<ellipse cx="28" cy="66" rx="28" ry="4" fill="#92A7B3"/>
<path fill-rule="evenodd" clip-rule="evenodd" d="M28 66C28 66 54 45.0727 54 26.0526C54 11.6642 42.3594 0 28 0C13.6406 0 2 11.6642 2 26.0526C2 45.0727 28 66 28 66ZM28 47C39.598 47 49 37.598 49 26C49 14.402 39.598 5 28 5C16.402 5 7 14.402 7 26C7 37.598 16.402 47 28 47Z" fill="#2A4455"/>
<path d="M18 17V26V35H38V17H18Z" fill="#92A7B3"/>
<path d="M23 17L23 27.7098L28 24.8973L33 27.7098V17L31 17V24.2902L28 22.6027L25 24.2902V17L23 17Z" fill="white"/>
<path d="M25 17V24.2902L28 22.6027L31 24.2902V17H25Z" fill="#2A4455"/>
</svg>
