<svg width="42" height="23" viewBox="0 0 42 23" fill="none" xmlns="http://www.w3.org/2000/svg">
<path fill-rule="evenodd" clip-rule="evenodd" d="M12.0681 2.50544e-06C11.8157 -2.74155e-05 11.5699 -5.65574e-05 11.3618 0.0169504C11.1332 0.0356272 10.8634 0.0796947 10.592 0.217992C10.2157 0.409739 9.90974 0.7157 9.71799 1.09202C9.57969 1.36345 9.53563 1.63318 9.51695 1.86178C9.49994 2.06993 9.49997 2.31572 9.5 2.56811L9.5 4H8.5C7.94772 4 7.5 4.44772 7.5 5C7.5 5.55228 7.94772 6 8.5 6H10.4967L10.5 6.00001L10.5033 6H23.5C24.0523 6 24.5 5.55228 24.5 5C24.5 4.44772 24.0523 4 23.5 4H11.5V2.60001C11.5 2.30348 11.5008 2.14122 11.5103 2.02464L11.5115 2.01145L11.5246 2.01031C11.6412 2.00078 11.8035 2.00001 12.1 2.00001H28.9C29.1965 2.00001 29.3588 2.00078 29.4754 2.01031L29.4885 2.01145L29.4897 2.02464C29.4992 2.14122 29.5 2.30348 29.5 2.60001V18H23.374C22.9299 16.2748 21.3638 15 19.5 15C17.6362 15 16.0701 16.2748 15.626 18H12.1C11.8035 18 11.6412 17.9992 11.5246 17.9897L11.5115 17.9885L11.5103 17.9754C11.5008 17.8588 11.5 17.6965 11.5 17.4V16C11.5 15.4477 11.0523 15 10.5 15C9.94772 15 9.5 15.4477 9.5 16L9.5 17.4319C9.49997 17.6843 9.49994 17.9301 9.51695 18.1382C9.53563 18.3668 9.57969 18.6366 9.71799 18.908C9.90974 19.2843 10.2157 19.5903 10.592 19.782C10.8634 19.9203 11.1332 19.9644 11.3618 19.9831C11.5698 20.0001 11.8155 20 12.0677 20L15.626 20C16.0701 21.7252 17.6362 23 19.5 23C21.3638 23 22.9299 21.7252 23.374 20L31.626 19.9999C32.07 21.7252 33.6361 23 35.5 23C37.3652 23 38.9322 21.7234 39.375 19.9962C39.4673 19.9937 39.5557 19.9897 39.6382 19.9829C39.8668 19.9643 40.1366 19.9202 40.408 19.7819C40.7843 19.5901 41.0903 19.2842 41.282 18.9079C41.4203 18.6364 41.4644 18.3667 41.4831 18.1381C41.5001 17.93 41.5 17.6844 41.5 17.4321L41.5 11.7408L38.498 6.33721L38.4632 6.27407C38.3359 6.04294 38.1758 5.75232 37.9336 5.52915C37.7242 5.3362 37.4761 5.19018 37.2057 5.10085C36.893 4.99753 36.5612 4.99874 36.2974 4.9997L36.2252 4.99988L32.0681 4.99988C31.8696 4.99985 31.6752 4.99983 31.5 5.00809V2.56809C31.5 2.31585 31.5001 2.06982 31.4831 1.86178C31.4644 1.63318 31.4203 1.36345 31.282 1.09202C31.0903 0.7157 30.7843 0.409739 30.408 0.217992C30.1366 0.0796947 29.8668 0.0356272 29.6382 0.0169504C29.4301 -5.6861e-05 29.1843 -2.74161e-05 28.9319 2.50544e-06H12.0681ZM39.3728 17.9954C39.4112 17.994 39.4448 17.9921 39.4754 17.9896L39.4886 17.9884L39.4897 17.9752C39.4992 17.8587 39.5 17.6964 39.5 17.3999V12.9999H31.5V17.9999H31.626C32.0701 16.2747 33.6362 15 35.5 15C37.3622 15 38.9272 16.2725 39.3728 17.9954ZM17.5 19L17.5 18.9977C17.5012 17.8942 18.3962 17 19.5 17C20.6046 17 21.5 17.8954 21.5 19C21.5 20.1046 20.6046 21 19.5 21C18.3954 21 17.5 20.1046 17.5 19ZM31.5 7.57146L31.5 10.9999H38.8005L36.7497 7.30849C36.6609 7.14854 36.615 7.06688 36.5785 7.00958L36.5754 7.00474L36.5697 7.00438C36.5019 7.0003 36.4082 6.99988 36.2252 6.99988H32.1C31.8035 6.99988 31.6412 7.00066 31.5246 7.01018L31.5115 7.01133L31.5103 7.02451C31.5011 7.13732 31.5001 7.29288 31.5 7.57146ZM37.5 19C37.5 20.1046 36.6046 21 35.5 21C34.3954 21 33.5 20.1046 33.5 19C33.5 17.8954 34.3954 17 35.5 17C36.6046 17 37.5 17.8954 37.5 19Z" fill="#D3D3D3"/>
<path d="M0.5 13C0.5 12.4477 0.947715 12 1.5 12H7.5C8.05228 12 8.5 12.4477 8.5 13C8.5 13.5523 8.05228 14 7.5 14H1.5C0.947715 14 0.5 13.5523 0.5 13Z" fill="#D3D3D3"/>
<path d="M4.5 9C4.5 8.44772 4.94772 8 5.5 8H17.5C18.0523 8 18.5 8.44772 18.5 9C18.5 9.55228 18.0523 10 17.5 10H5.5C4.94772 10 4.5 9.55228 4.5 9Z" fill="#D3D3D3"/>
</svg>
