<svg width="65" height="64" viewBox="0 0 65 64" fill="none" xmlns="http://www.w3.org/2000/svg">
<path d="M0 24H55V59.12C55 60.1583 54.1583 61 53.12 61H1.88C0.841706 61 0 60.1583 0 59.12V24Z" fill="#D3D3D3"/>
<path d="M0 24H54V58.12C54 59.1583 53.1583 60 52.12 60H1.88C0.841706 60 0 59.1583 0 58.12V24Z" fill="#F6F6F6"/>
<path d="M42 1C42 0.447715 42.4477 0 43 0C43.5523 0 44 0.447715 44 1V15C44 15.5523 43.5523 16 43 16C42.4477 16 42 15.5523 42 15V1Z" fill="#808080"/>
<path d="M10 1C10 0.447715 10.4477 0 11 0C11.5523 0 12 0.447715 12 1V15C12 15.5523 11.5523 16 11 16C10.4477 16 10 15.5523 10 15V1Z" fill="#808080"/>
<path d="M47 5.88C47 4.8417 47.8417 4 48.88 4H53.12C54.1583 4 55 4.8417 55 5.88V24H47V5.88Z" fill="#2A4455"/>
<path d="M40 4H14V15C14 16.6569 12.6569 18 11 18C9.34315 18 8 16.6569 8 15V4H1.88C0.841705 4 0 4.8417 0 5.88V24H54V5.88C54 4.8417 53.1583 4 52.12 4H46V15C46 16.6569 44.6569 18 43 18C41.3431 18 40 16.6569 40 15V4Z" fill="#3F5766"/>
<rect x="4" y="27" width="4" height="4" rx="1" fill="#2A4455"/>
<rect x="4" y="33" width="4" height="4" rx="1" fill="#D3D3D3"/>
<rect x="4" y="39" width="4" height="4" rx="1" fill="#D3D3D3"/>
<rect x="4" y="45" width="4" height="4" rx="1" fill="#D3D3D3"/>
<rect x="4" y="51" width="4" height="4" rx="1" fill="#D3D3D3"/>
<rect x="11" y="27" width="4" height="4" rx="1" fill="#2A4455"/>
<rect x="11" y="33" width="4" height="4" rx="1" fill="#D3D3D3"/>
<rect x="11" y="39" width="4" height="4" rx="1" fill="#D3D3D3"/>
<rect x="11" y="45" width="4" height="4" rx="1" fill="#D3D3D3"/>
<rect x="11" y="51" width="4" height="4" rx="1" fill="#D3D3D3"/>
<rect x="18" y="27" width="4" height="4" rx="1" fill="#D3D3D3"/>
<rect x="18" y="33" width="4" height="4" rx="1" fill="#D3D3D3"/>
<rect x="18" y="39" width="4" height="4" rx="1" fill="#D3D3D3"/>
<rect x="18" y="45" width="4" height="4" rx="1" fill="#D3D3D3"/>
<rect x="18" y="51" width="4" height="4" rx="1" fill="#D3D3D3"/>
<rect x="25" y="27" width="4" height="4" rx="1" fill="#D3D3D3"/>
<rect x="25" y="33" width="4" height="4" rx="1" fill="#D3D3D3"/>
<rect x="25" y="39" width="4" height="4" rx="1" fill="#D3D3D3"/>
<rect x="25" y="45" width="4" height="4" rx="1" fill="#D3D3D3"/>
<rect x="25" y="51" width="4" height="4" rx="1" fill="#D3D3D3"/>
<rect x="32" y="27" width="4" height="4" rx="1" fill="#D3D3D3"/>
<rect x="32" y="33" width="4" height="4" rx="1" fill="#D3D3D3"/>
<rect x="32" y="39" width="4" height="4" rx="1" fill="#D3D3D3"/>
<rect x="32" y="45" width="4" height="4" rx="1" fill="#D3D3D3"/>
<rect x="32" y="51" width="4" height="4" rx="1" fill="#D3D3D3"/>
<rect x="39" y="27" width="4" height="4" rx="1" fill="#D3D3D3"/>
<rect x="39" y="33" width="4" height="4" rx="1" fill="#D3D3D3"/>
<rect x="39" y="39" width="4" height="4" rx="1" fill="#D3D3D3"/>
<rect x="39" y="45" width="4" height="4" rx="1" fill="#D3D3D3"/>
<rect x="39" y="51" width="4" height="4" rx="1" fill="#D3D3D3"/>
<rect x="46" y="27" width="4" height="4" rx="1" fill="#D3D3D3"/>
<rect x="46" y="33" width="4" height="4" rx="1" fill="#D3D3D3"/>
<rect x="46" y="39" width="4" height="4" rx="1" fill="#D3D3D3"/>
<rect x="46" y="45" width="4" height="4" rx="1" fill="#D3D3D3"/>
<rect x="46" y="51" width="4" height="4" rx="1" fill="#D3D3D3"/>
<path d="M64 50C64 57.1797 58.1797 63 51 63C43.8203 63 38 57.1797 38 50C38 42.8203 43.8203 37 51 37C58.1797 37 64 42.8203 64 50Z" fill="white"/>
<circle cx="51" cy="50" r="13" stroke="#2A4455" stroke-width="2"/>
<path d="M50.4263 57V55.318C49.7198 55.3013 49.0876 55.2315 48.5299 55.1088C47.9774 54.9805 47.4728 54.8103 47.0159 54.5983V52.3891C47.4675 52.6179 48.0066 52.8271 48.6335 53.0167C49.2603 53.2008 49.8579 53.3124 50.4263 53.3515V50.7573C49.587 50.4114 48.915 50.0767 48.4104 49.7531C47.911 49.424 47.5498 49.0614 47.3267 48.6653C47.1089 48.2636 47 47.7838 47 47.2259C47 46.6569 47.1434 46.166 47.4303 45.7531C47.7224 45.3347 48.1262 45 48.6414 44.749C49.1567 44.4979 49.7517 44.3417 50.4263 44.2803V43H51.5179V44.2469C52.1341 44.2692 52.7078 44.3445 53.239 44.4728C53.7756 44.5955 54.3015 44.7768 54.8167 45.0167L54.0677 46.9749C53.6321 46.7852 53.1939 46.6374 52.753 46.5314C52.3174 46.4254 51.9057 46.3556 51.5179 46.3222V48.7908C52.1076 49.0195 52.668 49.2678 53.1992 49.5356C53.7304 49.8033 54.1633 50.1437 54.498 50.5565C54.8327 50.9693 55 51.5105 55 52.1799C55 53.0112 54.7105 53.7085 54.1315 54.272C53.5578 54.8354 52.6866 55.1729 51.5179 55.2845V57H50.4263ZM51.5179 53.2929C51.8898 53.2259 52.1633 53.1116 52.3386 52.9498C52.5139 52.7824 52.6016 52.5676 52.6016 52.3054C52.6016 52.1492 52.5618 52.0098 52.4821 51.887C52.4024 51.7643 52.2802 51.6499 52.1155 51.5439C51.9562 51.4324 51.757 51.3208 51.5179 51.2092V53.2929ZM50.4263 48.3222V46.3556C50.2085 46.3891 50.0226 46.4449 49.8685 46.523C49.7145 46.5955 49.5976 46.6904 49.5179 46.8075C49.4382 46.9247 49.3984 47.0642 49.3984 47.2259C49.3984 47.3877 49.4329 47.53 49.502 47.6527C49.5764 47.7755 49.6879 47.8898 49.8367 47.9958C49.9907 48.1018 50.1873 48.2106 50.4263 48.3222Z" fill="#2A4455"/>
</svg>
