<svg width="279" height="34" viewBox="0 0 279 34" fill="none" xmlns="http://www.w3.org/2000/svg">
<path d="M37.696 29.6103H30.6484L35.0565 3.47363H42.1037L37.696 29.6103Z" fill="#1434CB"/>
<path d="M63.2463 4.11274C61.8562 3.5839 59.6514 3 56.9252 3C49.9655 3 45.0645 6.55886 45.0344 11.6469C44.9766 15.4009 48.5434 17.486 51.211 18.7377C53.9377 20.0167 54.8645 20.8516 54.8645 21.9916C54.8368 23.7426 52.6612 24.5497 50.6322 24.5497C47.8185 24.5497 46.3108 24.1336 44.0197 23.1595L43.0917 22.7419L42.1055 28.609C43.7584 29.3311 46.8037 29.9719 49.9655 30C57.3603 30 62.1746 26.4962 62.2316 21.074C62.2597 18.0987 60.3763 15.8189 56.3159 13.956C53.8509 12.7601 52.3414 11.9537 52.3414 10.7301C52.3703 9.6177 53.6182 8.47835 56.4007 8.47835C58.6918 8.42254 60.3752 8.95064 61.6504 9.47911L62.2879 9.75665L63.2463 4.11274Z" fill="#1434CB"/>
<path d="M72.6147 20.351C73.1951 18.8495 75.4284 13.0382 75.4284 13.0382C75.3992 13.094 76.0077 11.509 76.3557 10.5359L76.8482 12.788C76.8482 12.788 78.1828 19.0443 78.4726 20.351C77.3712 20.351 74.0067 20.351 72.6147 20.351ZM81.3141 3.47363H75.8628C74.1817 3.47363 72.9045 3.94593 72.1792 5.64221L61.7109 29.61H69.1058C69.1058 29.61 70.3232 26.3841 70.5849 25.6893C71.3961 25.6893 78.5898 25.6893 79.6334 25.6893C79.8357 26.6069 80.4743 29.61 80.4743 29.61H86.9997L81.3141 3.47363Z" fill="#1434CB"/>
<path d="M24.7671 3.47363L17.8652 21.2964L17.111 17.6817C15.8349 13.5109 11.8331 8.97933 7.36719 6.72612L13.6891 29.5826H21.1417L32.2193 3.47363H24.7671Z" fill="#1434CB"/>
<path d="M11.4549 3.47363H0.116001L0 4.00173C8.84505 6.17068 14.7029 11.3988 17.1097 17.6828L14.6448 5.67066C14.2389 4.00136 12.9918 3.5287 11.4549 3.47363Z" fill="#1434CB"/>
<path d="M146.557 3.63574H131.402V30.3626H146.557V3.63574Z" fill="#FF5A00"/>
<path d="M132.409 17C132.409 11.5699 135.01 6.75049 139 3.63657C136.064 1.3699 132.359 0 128.318 0C118.745 0 111 7.60324 111 17C111 26.3968 118.745 34 128.318 34C132.359 34 136.064 32.6301 139 30.3634C135.004 27.2935 132.409 22.4301 132.409 17Z" fill="#EB001B"/>
<path d="M167 17C167 26.3968 159.255 34 149.682 34C145.641 34 141.937 32.6301 139 30.3634C143.041 27.244 145.591 22.4301 145.591 17C145.591 11.5699 142.99 6.75049 139 3.63657C141.931 1.3699 145.636 0 149.677 0C159.255 0 167 7.65275 167 17Z" fill="#F79E1B"/>
<path fill-rule="evenodd" clip-rule="evenodd" d="M199.138 5.0041C199.924 4.99939 202.26 4.78896 203.25 8.12916C203.917 10.3792 204.979 14.0647 206.436 19.1859H207.029C208.592 13.7868 209.666 10.1012 210.25 8.12916C211.25 4.75416 213.75 5.00416 214.75 5.00416L222.465 5.00417V29.0041H214.602V14.8605H214.074L209.691 29.0041H203.774L199.391 14.85H198.864V29.0041H191V5.00417L199.138 5.0041ZM233.757 5.00417V19.1582H234.384L239.717 7.51945C240.752 5.2033 242.958 5.00417 242.958 5.00417H250.567V29.0041H242.54V14.85H241.912L236.685 26.4888C235.65 28.7945 233.339 29.0041 233.339 29.0041H225.729V5.00417H233.757ZM278.315 16.4091C277.195 19.5823 273.679 21.8549 269.785 21.8549H261.367V29.0041H253.733V16.4091H278.315Z" fill="#0F754E"/>
<path fill-rule="evenodd" clip-rule="evenodd" d="M270.153 5.00391H253.332C253.732 10.3471 258.334 14.9212 263.097 14.9212H278.845C279.754 10.4804 276.626 5.00391 270.153 5.00391Z" fill="url(#paint0_linear_1117_75030)"/>
<defs>
<linearGradient id="paint0_linear_1117_75030" x1="279" y1="11.2423" x2="253.332" y2="11.2423" gradientUnits="userSpaceOnUse">
<stop stop-color="#1F5CD7"/>
<stop offset="1" stop-color="#02AEFF"/>
</linearGradient>
</defs>
</svg>
