<svg width="143" height="48" viewBox="0 0 143 48" fill="none" xmlns="http://www.w3.org/2000/svg">
<path d="M73.8323 18.1941C75.7671 20.519 76.4747 23.2492 75.9531 26.4221H61.1442C61.8515 28.7462 63.8239 30.2586 66.3916 30.2586C68.5862 30.2586 70.1496 29.3737 71.1539 27.6029L75.2836 29.4475C73.5345 32.5463 70.2608 34.5382 66.2423 34.5382C63.3029 34.5382 60.8837 33.5794 58.9121 31.6978C56.94 29.8162 55.9727 27.4551 55.9727 24.6508C55.9727 21.8473 56.9397 19.486 58.8748 17.6044C60.8092 15.7228 63.1917 14.7639 66.0566 14.7639C69.293 14.7639 71.8607 15.9069 73.8323 18.1941ZM61.2187 22.6217H70.9301C70.2228 20.4448 68.4005 19.0435 66.0563 19.0435C63.8239 19.0435 61.9255 20.4448 61.2187 22.6217Z" fill="#164781"/>
<path d="M96.3788 17.6034C98.128 19.4858 99.0205 21.8468 99.0205 24.6504C99.0205 27.4547 98.128 29.8157 96.3788 31.6968C94.6305 33.5792 92.4351 34.5381 89.7935 34.5381C87.3375 34.5381 85.2909 33.6531 83.6908 31.9187V41.5481H78.668V15.1321H83.6908V17.3823C85.2906 15.6487 87.3375 14.7629 89.7935 14.7629C92.4348 14.7629 94.6302 15.7223 96.3788 17.6034ZM88.7516 30.0002C90.203 30.0002 91.3933 29.4838 92.3611 28.4508C93.3276 27.4547 93.812 26.1636 93.812 24.6506C93.812 23.1382 93.3276 21.8471 92.3611 20.851C91.3933 19.8544 90.203 19.3378 88.7516 19.3378C87.3003 19.3378 86.1092 19.8541 85.1421 20.851C84.1751 21.8841 83.6908 23.1382 83.6908 24.6506C83.6908 26.1636 84.1751 27.455 85.1421 28.4508C86.1092 29.4835 87.3 30.0002 88.7516 30.0002Z" fill="#164781"/>
<path d="M106.574 26.9014L115.727 15.1321H120.601V34.1694H115.578V22.4004L106.425 34.1694H101.551V15.1321H106.574V26.9014Z" fill="#164781"/>
<path d="M129.641 34.1685H124.617V15.1311H142.999V34.1685H137.975V19.5218H129.641V34.1685Z" fill="#164781"/>
<mask id="mask0_1117_74989" style="mask-type:alpha" maskUnits="userSpaceOnUse" x="0" y="0" width="34" height="22">
<path d="M0 0L17.3709 21.0567L23.1736 14.0306L11.5986 0H0ZM17.3977 0L28.9681 14.0214C28.9681 14.0214 33.0323 9.10023 33.0386 9.08828C34.0558 7.84529 34.0205 6.08511 33.0225 4.87689L30.0099 1.22615C29.3708 0.451453 28.4142 0 27.4041 0H17.3977Z" fill="url(#paint0_linear_1117_74989)"/>
</mask>
<g mask="url(#mask0_1117_74989)">
<path d="M17.4485 -16.8789L44.6675 10.7898L16.6018 37.9352L-10.6172 10.2664L17.4485 -16.8789Z" fill="url(#paint1_linear_1117_74989)"/>
</g>
<mask id="mask1_1117_74989" style="mask-type:alpha" maskUnits="userSpaceOnUse" x="18" y="17" width="31" height="32">
<path d="M18.3477 48.0002H28.3524C29.3625 48.0002 30.3191 47.5506 30.9582 46.7773L47.5338 26.6957C48.5496 25.4661 48.5496 23.6953 47.5338 22.4664L43.478 17.5515L18.3477 48.0002Z" fill="url(#paint2_linear_1117_74989)"/>
</mask>
<g mask="url(#mask1_1117_74989)">
<path d="M63.3295 28.6549L37.5359 62.4147L3.56641 36.8976L29.36 3.13745L63.3295 28.6549Z" fill="url(#paint3_linear_1117_74989)"/>
</g>
<mask id="mask2_1117_74989" style="mask-type:alpha" maskUnits="userSpaceOnUse" x="0" y="4" width="40" height="44">
<path d="M33.0376 9.08834C33.0313 9.1003 28.967 14.0215 28.967 14.0215L28.9649 14.0236L0.921875 47.9994H12.5287L38.8247 16.1416C39.8405 14.9111 39.8405 13.1411 38.8247 11.9114L33.0212 4.87695C34.0197 6.08517 34.0548 7.84535 33.0376 9.08834Z" fill="url(#paint4_linear_1117_74989)"/>
</mask>
<g mask="url(#mask2_1117_74989)">
<path d="M60.7765 20.5995L25.6523 66.5722L-20.0078 32.2735L15.1164 -13.6992L60.7765 20.5995Z" fill="url(#paint5_linear_1117_74989)"/>
</g>
<defs>
<linearGradient id="paint0_linear_1117_74989" x1="4.95082" y1="10.5283" x2="33.9019" y2="10.5283" gradientUnits="userSpaceOnUse">
<stop stop-color="#FAAC65"/>
<stop offset="0.5355" stop-color="#F47E52"/>
<stop offset="1" stop-color="#F05345"/>
</linearGradient>
<linearGradient id="paint1_linear_1117_74989" x1="7.48137" y1="0.720941" x2="30.6016" y2="24.6252" gradientUnits="userSpaceOnUse">
<stop stop-color="#FAAC65"/>
<stop offset="0.5355" stop-color="#F47E52"/>
<stop offset="1" stop-color="#F05345"/>
</linearGradient>
<linearGradient id="paint2_linear_1117_74989" x1="21.4669" y1="32.7758" x2="48.2671" y2="32.7758" gradientUnits="userSpaceOnUse">
<stop stop-color="#FAAC65"/>
<stop offset="0.5355" stop-color="#F47E52"/>
<stop offset="1" stop-color="#F05345"/>
</linearGradient>
<linearGradient id="paint3_linear_1117_74989" x1="43.6885" y1="19.3743" x2="20.8541" y2="49.7723" gradientUnits="userSpaceOnUse">
<stop stop-color="#FAAC65"/>
<stop offset="0.5355" stop-color="#F47E52"/>
<stop offset="1" stop-color="#F05345"/>
</linearGradient>
<linearGradient id="paint4_linear_1117_74989" x1="3.65928" y1="26.4382" x2="39.5866" y2="26.4382" gradientUnits="userSpaceOnUse">
<stop stop-color="#FAAC65"/>
<stop offset="0.5355" stop-color="#F47E52"/>
<stop offset="1" stop-color="#F05345"/>
</linearGradient>
<linearGradient id="paint5_linear_1117_74989" x1="35.4463" y1="6.67646" x2="3.15957" y2="49.6579" gradientUnits="userSpaceOnUse">
<stop stop-color="#FAAC65"/>
<stop offset="0.5355" stop-color="#F47E52"/>
<stop offset="1" stop-color="#F05345"/>
</linearGradient>
</defs>
</svg>
