<svg width="56" height="56" viewBox="0 0 56 56" fill="none" xmlns="http://www.w3.org/2000/svg">
<path d="M39.3953 19.0121C39.1013 18.6481 38.7653 18.3541 38.4013 18.1441C38.0233 17.9341 37.5893 17.8221 37.0993 17.8221C36.6093 17.8221 36.2033 17.8921 35.8813 18.0461C35.5593 18.2001 35.3353 18.3961 35.1813 18.6481C35.0273 18.9001 34.9573 19.2081 34.9573 19.5721C34.9573 20.0761 35.1393 20.4961 35.4893 20.8041C35.8533 21.1261 36.3153 21.3921 36.9033 21.6301C37.4913 21.8681 38.1213 22.1061 38.7793 22.3581C39.3113 22.5541 39.8153 22.7921 40.3193 23.0721C40.8233 23.3521 41.2713 23.7021 41.6913 24.0941C42.0973 24.4861 42.4333 24.9621 42.6713 25.5081C42.9093 26.0541 43.0353 26.6981 43.0353 27.4541C43.0353 28.4481 42.7973 29.3161 42.3073 30.0581C41.8173 30.7861 41.1313 31.3461 40.2493 31.7381C39.3533 32.1301 38.2893 32.3261 37.0573 32.3261C36.0773 32.3261 35.1533 32.1301 34.2993 31.7381C33.4453 31.3461 32.6893 30.8281 32.0313 30.1701C31.3733 29.5261 30.8833 28.7841 30.5333 27.9721L33.0393 26.2781C33.4033 26.9781 33.7813 27.5661 34.1873 28.0421C34.5793 28.5181 35.0273 28.8821 35.5173 29.1201C36.0073 29.3581 36.5673 29.4841 37.1833 29.4841C37.6873 29.4841 38.1213 29.4141 38.4573 29.2601C38.7933 29.1061 39.0593 28.8821 39.2133 28.5881C39.3673 28.2941 39.4653 27.9301 39.4653 27.5101C39.4653 26.9781 39.2973 26.5581 38.9613 26.2081C38.6253 25.8581 38.1913 25.5641 37.6453 25.3121C37.0993 25.0601 36.5113 24.8081 35.8533 24.5701C35.4333 24.4301 34.9853 24.2341 34.4673 23.9681C33.9633 23.7161 33.4733 23.3941 33.0113 22.9881C32.5493 22.5821 32.1713 22.1061 31.8773 21.5321C31.5833 20.9581 31.4293 20.2721 31.4293 19.4881C31.4293 18.7041 31.6673 17.9621 32.1433 17.3041C32.6193 16.6461 33.2773 16.1141 34.1173 15.7221C34.9573 15.3301 35.9093 15.1201 36.9733 15.1201C38.0373 15.1201 38.9613 15.2881 39.7173 15.6381C40.4593 15.9741 41.0893 16.4221 41.5933 16.9681C42.0973 17.5141 42.4893 18.0741 42.7693 18.6621L40.1653 20.2161C39.9273 19.7541 39.6613 19.3481 39.3673 18.9701L39.3953 19.0121ZM38.3453 12.6001L38.2473 16.6741H35.8673L35.7693 12.6001H38.3453ZM38.2613 30.7441L38.3593 34.7761H35.7833L35.8813 30.7441H38.2613Z" fill="#0C1D28"/>
<path d="M23.3373 12.6001H18.7453V42.6861H23.3373V12.6001Z" fill="#0C1D28"/>
<path d="M21.0572 45.9421L23.532 43.4673L13.6721 33.6074L11.1973 36.0822L21.0572 45.9421Z" fill="#0C1D28"/>
<path d="M18.5497 43.5049L21.0245 45.9798L30.8844 36.1199L28.4096 33.645L18.5497 43.5049Z" fill="#0C1D28"/>
</svg>
