<svg width="24" height="24" viewBox="0 0 24 24" fill="none" xmlns="http://www.w3.org/2000/svg">
<path d="M11 17.7197V2C11 1.44772 11.4477 1 12 1C12.5523 1 13 1.44772 13 2V17.7197C13 18.272 12.5523 18.7197 12 18.7197C11.4477 18.7197 11 18.272 11 17.7197Z" fill="#071C28"/>
<path d="M18.9428 9.35294C19.333 8.96256 19.9662 8.96194 20.3568 9.35196C20.7476 9.74223 20.7481 10.3762 20.3578 10.767L12.0004 19.1352L3.642 10.767C3.25176 10.3762 3.25221 9.74222 3.64298 9.35196C4.03376 8.96172 4.66776 8.96217 5.05802 9.35294L11.9994 16.3041L18.9428 9.35294Z" fill="#071C28"/>
<path d="M3.3501 18.6699C3.3501 18.1176 3.79781 17.6699 4.3501 17.6699C4.90238 17.6699 5.3501 18.1176 5.3501 18.6699V21.5H18.6499V18.6699C18.6499 18.1177 19.0977 17.67 19.6499 17.6699C20.2022 17.6699 20.6499 18.1176 20.6499 18.6699V22.5C20.6499 23.0522 20.2022 23.5 19.6499 23.5H4.3501C3.79784 23.5 3.35014 23.0522 3.3501 22.5V18.6699Z" fill="#071C28"/>
</svg>
