<svg width="40" height="40" viewBox="0 0 40 40" fill="none" xmlns="http://www.w3.org/2000/svg">
<path d="M36.9087 5.24166C36.3087 4.73286 35.3663 4.66006 34.3919 5.05126H34.3903C33.3655 5.46246 5.38148 17.4657 4.24228 17.9561C4.03508 18.0281 2.22548 18.7033 2.41188 20.2073C2.57828 21.5633 4.03268 22.1249 4.21028 22.1897L11.3247 24.6257C11.7967 26.1969 13.5367 31.9937 13.9215 33.2321C14.1615 34.0041 14.5527 35.0185 15.2383 35.2273C15.8399 35.4593 16.4383 35.2473 16.8255 34.9433L21.1751 30.9089L28.1967 36.3849L28.3639 36.4849C28.8407 36.6961 29.2975 36.8017 29.7335 36.8017C30.0703 36.8017 30.3935 36.7385 30.7023 36.6121C31.7543 36.1801 32.1751 35.1777 32.2191 35.0641L37.4639 7.80246C37.7839 6.34646 37.3391 5.60566 36.9087 5.24166ZM17.5991 25.6001L15.1991 32.0001L12.7991 24.0001L31.1991 10.4001L17.5991 25.6001Z" fill="#0088CC"/>
</svg>
