<svg width="20" height="20" viewBox="0 0 20 20" fill="none" xmlns="http://www.w3.org/2000/svg">
<path opacity="0.5" fill-rule="evenodd" clip-rule="evenodd" d="M3.2 4H16.8C17.0865 4 17.3104 4.00036 17.4916 4.00289L10.6644 10.0715C10.2855 10.4083 9.71452 10.4083 9.33564 10.0715L2.50845 4.00289C2.6896 4.00036 2.91345 4 3.2 4ZM2 6.22684V14.8C2 15.3931 2.00156 15.7176 2.02061 15.9507L2.0229 15.9771L2.04927 15.9794C2.28244 15.9984 2.60695 16 3.2 16H16.8C17.3931 16 17.7176 15.9984 17.9507 15.9794L17.9771 15.9771L17.9794 15.9507C17.9984 15.7176 18 15.3931 18 14.8V6.22684L11.9931 11.5663C10.8564 12.5767 9.14357 12.5767 8.00691 11.5663L2 6.22684ZM0 5.2C0 4.0799 0 3.51984 0.217987 3.09202C0.409734 2.71569 0.715695 2.40973 1.09202 2.21799C1.51984 2 2.0799 2 3.2 2H16.8C17.9201 2 18.4802 2 18.908 2.21799C19.2843 2.40973 19.5903 2.71569 19.782 3.09202C20 3.51984 20 4.0799 20 5.2V14.8C20 15.9201 20 16.4802 19.782 16.908C19.5903 17.2843 19.2843 17.5903 18.908 17.782C18.4802 18 17.9201 18 16.8 18H3.2C2.0799 18 1.51984 18 1.09202 17.782C0.715695 17.5903 0.409734 17.2843 0.217987 16.908C0 16.4802 0 15.9201 0 14.8V5.2Z" fill="#D3D3D3"/>
</svg>
