<svg width="260" height="80" viewBox="0 0 260 80" fill="none" xmlns="http://www.w3.org/2000/svg">
<path d="M250.424 57.4054L250.985 54.8648C250.312 55.816 249.564 56.5285 248.739 57.0061C247.907 57.4817 246.997 57.7166 246.002 57.7166C244.368 57.7166 243.238 57.1059 242.611 55.8826C241.981 54.6593 241.891 53.0445 242.33 51.0383C242.799 48.9206 243.686 47.1571 244.998 45.7439C246.312 44.3327 247.868 43.6261 249.662 43.6261C250.147 43.6261 250.581 43.677 250.961 43.7808C251.34 43.8845 251.699 44.0412 252.022 44.2565C252.348 44.4698 252.701 44.8201 253.089 45.3016L254.692 38.0264H258.319L254.053 57.4054H250.424V57.4054ZM252.613 47.4644C252.244 46.8889 251.859 46.5053 251.465 46.2998C251.069 46.0943 250.643 45.9905 250.186 45.9905C249.229 45.9905 248.403 46.4661 247.721 47.4095C247.034 48.351 246.553 49.4608 246.273 50.7369C245.994 51.9935 246 52.9976 246.276 53.7452C246.558 54.491 247.116 54.8648 247.961 54.8648C248.493 54.8648 249.065 54.675 249.673 54.2952C250.282 53.9136 250.87 53.4145 251.439 52.794L252.612 47.4644H252.613ZM227.013 57.4054L229.977 43.9393H233.602L233.047 46.4661C233.93 45.4327 234.821 44.6968 235.709 44.2701C236.6 43.8414 237.453 43.6261 238.273 43.6261C239.34 43.6261 240.178 43.9706 240.798 44.6517C241.416 45.3348 241.559 46.4133 241.233 47.8812L239.136 57.4054H235.511L237.41 48.7738C237.577 48.0398 237.616 47.5407 237.539 47.2784C237.459 47.0181 237.318 46.8165 237.114 46.6834C236.91 46.5483 236.663 46.4779 236.376 46.4779C235.876 46.4779 235.313 46.6462 234.699 46.977C234.083 47.3097 233.351 47.9576 232.506 48.9206L230.638 57.4054H227.013ZM220.889 55.9781C220.255 56.4811 219.72 56.8413 219.288 57.0605C218.855 57.2797 218.415 57.4441 217.974 57.5537C217.535 57.6633 217.079 57.7162 216.615 57.7162C215.41 57.7162 214.527 57.3443 213.968 56.5986C213.409 55.847 213.247 54.9271 213.488 53.8427C213.778 52.5176 214.565 51.4118 215.842 50.5232C217.117 49.6365 218.972 49.1922 221.401 49.1922H222.368L222.641 47.9729C222.817 47.1528 222.711 46.6008 222.315 46.315C221.919 46.0293 221.371 45.8884 220.667 45.8884C219.276 45.8884 217.772 46.2876 216.15 47.0823L216.703 44.5652C218.48 43.9389 220.189 43.6257 221.817 43.6257C222.815 43.6257 223.672 43.7628 224.404 44.0309C225.126 44.303 225.66 44.7238 226.009 45.2933C226.354 45.859 226.401 46.7084 226.152 47.8378L224.838 53.8016C224.679 54.5297 224.696 54.9779 224.889 55.1443C225.083 55.3068 225.293 55.3851 225.518 55.3851C225.654 55.3851 225.82 55.3725 226.028 55.3479L225.654 57.3776C224.834 57.6027 224.125 57.7162 223.529 57.7162C222.852 57.7162 222.301 57.6085 221.866 57.3816C221.424 57.1604 221.152 56.6926 221.048 55.9782H220.889L220.889 55.9781ZM221.303 54.0345L221.911 51.2806H221.052C219.869 51.2806 218.939 51.494 218.266 51.9168C217.593 52.3434 217.187 52.87 217.044 53.5041C216.928 54.0228 217.015 54.4495 217.289 54.7842C217.568 55.115 217.947 55.2833 218.417 55.2833C218.843 55.2833 219.298 55.1776 219.783 54.9662C220.265 54.7587 220.773 54.4456 221.303 54.0345ZM198.499 57.4054L202.499 39.2438H209.302C210.691 39.2438 211.713 39.4199 212.366 39.7664C213.017 40.1128 213.478 40.6413 213.741 41.3479C214.008 42.0544 214.043 42.8569 213.847 43.7494C213.613 44.8142 213.082 45.8202 212.26 46.7636C211.438 47.7129 210.41 48.4332 209.18 48.9323L213.276 57.4054H208.66L205.767 49.9951H203.69L202.054 57.4054H198.499ZM204.239 47.4859H205.114C206.669 47.4859 207.827 47.1512 208.578 46.474C209.327 45.7968 209.796 45.0275 209.984 44.1722C210.147 43.4304 210.033 42.8413 209.647 42.4028C209.253 41.9664 208.313 41.7471 206.824 41.7471H205.502L204.239 47.4859ZM185.842 57.4054L190.107 38.0264H193.736L189.467 57.4054H185.842ZM179.275 57.4054L183.54 38.0264H187.171L182.9 57.4054H179.275ZM170.653 57.717C169.196 57.717 168.005 57.4331 167.089 56.8655C166.167 56.296 165.557 55.4602 165.251 54.3544C164.945 53.2485 164.943 52.0232 165.24 50.6708C165.536 49.332 166.074 48.1067 166.859 47.0087C167.637 45.9107 168.62 45.071 169.795 44.4936C170.968 43.9182 172.29 43.6265 173.756 43.6265C175.227 43.6265 176.425 43.9182 177.343 44.4936C178.257 45.071 178.867 45.9107 179.17 47.0087C179.47 48.1067 179.474 49.332 179.177 50.6708C178.883 52.0232 178.34 53.2485 177.547 54.3544C176.755 55.4602 175.772 56.296 174.605 56.8655C173.434 57.4331 172.12 57.717 170.654 57.717H170.653ZM171.151 55.4583C172.18 55.4583 173.053 55.0042 173.771 54.0979C174.487 53.1917 174.999 52.0506 175.303 50.6708C175.605 49.3026 175.596 48.1635 175.278 47.2514C174.96 46.3432 174.285 45.8891 173.257 45.8891C172.235 45.8891 171.37 46.3432 170.646 47.2514C169.925 48.1635 169.42 49.3026 169.114 50.6708C168.816 52.0506 168.818 53.1917 169.14 54.0979C169.46 55.0042 170.131 55.4583 171.151 55.4583ZM152.49 56.9894L153.079 54.3099C154.715 55.0733 156.17 55.4569 157.449 55.4569C158.132 55.4569 158.707 55.3139 159.174 55.0243C159.646 54.7386 159.927 54.3745 160.025 53.9322C160.111 53.5485 160.026 53.2236 159.788 52.9633C159.535 52.7089 159.13 52.4583 158.562 52.2137L157.441 51.7224C156.288 51.2155 155.47 50.6557 154.999 50.0411C154.529 49.4343 154.399 48.6416 154.615 47.6689C154.874 46.4965 155.541 45.5315 156.622 44.7702C157.698 44.0068 159.174 43.6251 161.047 43.6251C162.143 43.6251 163.411 43.7915 164.856 44.1125L164.295 46.655C162.952 46.1442 161.804 45.8878 160.849 45.8878C160.097 45.8878 159.507 46.019 159.074 46.2753C158.64 46.5356 158.379 46.8684 158.291 47.2774C158.22 47.5965 158.281 47.8783 158.473 48.123C158.652 48.3696 159.034 48.6103 159.609 48.8491L160.574 49.2543C162.167 49.9178 163.167 50.5617 163.568 51.1822C163.96 51.8144 164.06 52.5679 163.866 53.4448C163.615 54.582 162.907 55.5782 161.739 56.4336C160.574 57.2889 159.058 57.7175 157.192 57.7175C155.603 57.7175 154.034 57.4729 152.49 56.9894ZM143.379 57.4054L146.345 43.9393H149.97L149.413 46.4779C150.037 45.6108 150.784 44.916 151.649 44.4032C152.518 43.8864 153.413 43.6261 154.341 43.6261C154.56 43.6261 154.788 43.6402 155.008 43.6614L154.29 46.932C153.821 46.746 153.364 46.654 152.915 46.654C152.189 46.654 151.496 46.8361 150.829 47.1982C150.157 47.5642 149.511 48.1142 148.891 48.8442L147.006 57.4054H143.379ZM141.416 56.9528C139.585 57.4617 137.898 57.7162 136.363 57.7162C134.905 57.7162 133.687 57.4441 132.712 56.9019C131.737 56.3578 131.084 55.5064 130.746 54.3497C130.411 53.1909 130.395 51.9324 130.69 50.5741C130.97 49.3136 131.476 48.149 132.212 47.0823C132.947 46.0175 133.863 45.172 134.954 44.5535C136.049 43.9369 137.292 43.6257 138.695 43.6257C140.411 43.6257 141.663 44.1777 142.446 45.2777C143.228 46.3777 143.289 48.425 142.632 51.4196H134.346C134.228 52.3278 134.274 53.05 134.487 53.5726C134.699 54.0972 135.05 54.5141 135.545 54.8214C136.035 55.1287 136.751 55.2833 137.693 55.2833C138.899 55.2833 140.327 54.9916 141.975 54.4142L141.416 56.9528H141.416ZM134.727 49.3684H139.491C139.766 48.1236 139.76 47.231 139.468 46.6947C139.181 46.1545 138.712 45.8884 138.071 45.8884C137.369 45.8884 136.725 46.1819 136.147 46.773C135.564 47.3641 135.093 48.2293 134.727 49.3684ZM114.612 61.5452L115.479 58.9009C116.813 59.5957 118.151 59.9441 119.488 59.9441C120.752 59.9441 121.756 59.6779 122.509 59.1514C123.259 58.621 123.784 57.6756 124.081 56.3153L124.487 54.4814C123.906 55.3465 123.182 56.0472 122.317 56.5894C121.45 57.1335 120.506 57.4055 119.483 57.4055C118.439 57.4055 117.582 57.1433 116.905 56.6187C116.232 56.0961 115.797 55.3093 115.604 54.2582C115.416 53.2052 115.459 52.0367 115.742 50.743C116.191 48.7211 117.07 47.032 118.388 45.6697C119.706 44.3075 121.27 43.6263 123.076 43.6263C123.555 43.6263 123.988 43.6772 124.365 43.773C124.742 43.8689 125.093 44.0177 125.41 44.2232C125.734 44.4307 126.101 44.7771 126.513 45.2664L127.186 43.9394H130.434L128.174 54.2014C127.578 56.9122 126.913 58.7403 126.181 59.6779C125.454 60.6154 124.496 61.3239 123.314 61.8015C122.137 62.2791 120.842 62.5198 119.443 62.5198C117.884 62.5198 116.271 62.1949 114.612 61.5451V61.5452ZM124.951 52.3655L126.052 47.3803C125.664 46.7872 125.267 46.3919 124.871 46.1903C124.475 45.9906 124.069 45.8889 123.655 45.8889C122.758 45.8889 121.944 46.3058 121.22 47.1454C120.497 47.9812 119.979 49.1144 119.665 50.5433C119.394 51.7666 119.4 52.7276 119.679 53.4302C119.958 54.1309 120.503 54.4813 121.313 54.4813C121.896 54.4813 122.49 54.3071 123.096 53.9528C123.698 53.5986 124.322 53.0701 124.952 52.3655H124.951ZM100.36 57.4053L103.326 43.9392H106.955L106.398 46.4661C107.279 45.4326 108.169 44.6967 109.058 44.27C109.946 43.8414 110.802 43.6261 111.624 43.6261C112.689 43.6261 113.526 43.9705 114.144 44.6517C114.76 45.3348 114.909 46.4132 114.584 47.8812L112.485 57.4053H108.858L110.758 48.7737C110.923 48.0397 110.964 47.5406 110.884 47.2783C110.808 47.018 110.666 46.8164 110.464 46.6833C110.256 46.5482 110.011 46.4778 109.725 46.4778C109.223 46.4778 108.663 46.6461 108.048 46.9769C107.434 47.3096 106.702 47.9575 105.856 48.9205L103.989 57.4053H100.36ZM93.7461 57.4053L97.7419 39.2437H101.512L97.5124 57.4053H93.7461Z" fill="#D52B1E"/>
<path d="M92.0842 27.1409C89.2477 13.2012 66.7795 7.65815 41.8887 14.7591C36.7395 16.2291 31.8944 18.1315 27.467 20.3374H30.5134C34.0678 18.476 37.9518 16.8984 42.0829 15.7202C62.7465 9.82289 81.7034 15.9139 84.4339 29.3252C85.9993 37.0114 81.8799 45.4336 74.1904 52.3369L73.4666 55.7719C86.37 47.5239 94.0105 36.616 92.0842 27.1409ZM63.5303 59.6624C59.9779 61.5237 56.0958 63.0994 51.9608 64.2776C31.3031 70.1749 12.3423 64.0858 9.61567 50.6785C8.05031 42.9746 12.1814 34.5388 19.8964 27.6316L20.6183 24.2063C7.69526 32.4602 0.0391262 43.3818 1.96738 52.8608C4.8019 66.8006 27.276 72.3416 52.1589 65.2406C57.3081 63.7707 62.1513 61.8682 66.5826 59.6624H63.5303ZM53.8649 36.4131L55.4577 28.8639C59.5477 28.905 62.8 28.7367 62.0605 32.2304C61.1091 36.7478 59.5183 36.3289 53.8649 36.4131ZM35.1924 57.4127H49.4356L52.2662 43.9819C57.6606 43.8077 59.4908 44.4183 58.916 47.1448L56.7504 57.4127H70.9328L73.3083 46.1349C73.6261 44.6356 74.4029 40.952 68.1905 39.2844C74.5049 37.5698 75.8741 33.9645 76.4018 31.4631C77.6317 25.6206 72.8375 22.5888 65.4521 22.5888H42.5347L35.1924 57.4127ZM23.148 22.588H38.2641L30.9218 57.4119H15.8057L23.148 22.588Z" fill="#D52B1E"/>
</svg>
