<svg width="20" height="20" viewBox="0 0 20 20" fill="none" xmlns="http://www.w3.org/2000/svg">
<path fill-rule="evenodd" clip-rule="evenodd" d="M10 3C9.22232 3 8.48349 3.29824 7.94428 3.81819C7.4063 4.33696 7.11111 5.03263 7.11111 5.75V7.75H12.8889V5.75C12.8889 5.03263 12.5937 4.33696 12.0557 3.81819C11.5165 3.29824 10.7777 3 10 3ZM14.8889 7.75V5.75C14.8889 4.47824 14.3646 3.26627 13.444 2.37851C12.5246 1.49194 11.2851 1 10 1C8.71488 1 7.47541 1.49194 6.556 2.37851C5.63536 3.26627 5.11111 4.47824 5.11111 5.75V7.75H4.55556C3.17875 7.75 2 8.83532 2 10.25V15.5C2 16.9147 3.17875 18 4.55556 18H15.4444C16.8213 18 18 16.9147 18 15.5V10.25C18 8.83532 16.8213 7.75 15.4444 7.75H14.8889ZM4.55556 9.75C4.21414 9.75 4 10.0078 4 10.25V15.5C4 15.7422 4.21414 16 4.55556 16H15.4444C15.7859 16 16 15.7422 16 15.5V10.25C16 10.0078 15.7859 9.75 15.4444 9.75H4.55556Z" fill="black"/>
</svg>
