<svg width="148" height="48" viewBox="0 0 148 48" fill="none" xmlns="http://www.w3.org/2000/svg">
<path d="M10 3H0V13H10V3Z" fill="#BC0000"/>
<path d="M32 19.4412C32 26.2832 27.776 32.1388 21.76 34.6176C19.7888 35.4271 17.6256 35.8824 15.36 35.8824H10.24V46L0 35.8824V15.6471H10.24V25.7647H15.36C18.8928 25.7647 21.76 22.9318 21.76 19.4412C21.76 15.9506 18.8928 13.1176 15.36 13.1176H12.8V3H15.36C18.6624 3 21.7344 3.94853 24.32 5.59265C28.9408 8.51412 32 13.6235 32 19.4412Z" fill="white"/>
<path d="M49.1115 26.2623C48.3596 25.9177 47.4406 25.7569 46.3672 25.7569H44.6496C44.1246 25.7569 42.0013 25.7569 42.0013 25.7569V38.8745H44.7819V34.1029H46.3802C47.4419 34.1029 48.3726 33.9421 49.1244 33.5975C49.8763 33.253 50.4609 32.7818 50.855 32.1485C51.2607 31.5164 51.463 30.7805 51.463 29.9179C51.463 29.0667 51.2607 28.3079 50.855 27.6873C50.448 27.078 49.8633 26.5954 49.1115 26.2623ZM48.1211 31.3429C47.692 31.676 47.1191 31.8369 46.3789 31.8369H44.7806V28.009H46.3789C47.1191 28.009 47.7037 28.1699 48.1211 28.4916C48.5502 28.8133 48.7654 29.2845 48.7654 29.9166C48.7654 30.5499 48.5502 31.0211 48.1211 31.3429Z" fill="white"/>
<path d="M59.5752 30.6196C58.883 30.2523 58.0481 30.0787 57.0694 30.0787C56.175 30.0787 55.3985 30.2282 54.7193 30.5271C54.0387 30.8147 53.502 31.2403 53.108 31.7799C52.7022 32.3207 52.4404 32.9414 52.3081 33.6533C52.2848 33.7913 52.2718 33.9408 52.2485 34.1017C52.2252 34.2511 52.2252 34.4006 52.2252 34.5729C52.2252 35.4355 52.4157 36.217 52.7982 36.8947C53.1922 37.5723 53.7289 38.1132 54.4561 38.5046C55.1833 38.896 56.0428 39.0911 57.0331 39.0911C57.868 39.0911 58.5602 38.9872 59.1448 38.7921C59.7294 38.5971 60.2065 38.3095 60.6122 37.9409C61.018 37.5609 61.3524 37.148 61.6506 36.6527L59.4546 35.9979C59.2991 36.2398 59.1085 36.4691 58.87 36.6527C58.6315 36.8364 58.3683 36.9859 58.0702 37.0897C57.772 37.1936 57.4259 37.2392 57.0435 37.2392C56.5898 37.2392 56.2087 37.1581 55.8509 36.9745C55.5048 36.7908 55.23 36.5033 55.0278 36.1119C54.8969 35.8471 54.8256 35.514 54.7776 35.1581H61.6622C61.6856 35.02 61.6985 34.9047 61.6985 34.7781C61.6985 34.6628 61.6985 34.5716 61.6985 34.5019C61.6985 33.5937 61.5196 32.8008 61.1502 32.1573C60.7924 31.4695 60.2674 30.9641 59.5752 30.6196ZM54.8022 33.6077C54.8502 33.3315 54.9215 33.0668 55.0407 32.8489C55.2313 32.493 55.5178 32.2283 55.8406 32.056C56.1633 31.8837 56.5561 31.7913 56.9735 31.7913C57.3909 31.7913 57.737 31.8597 58.0002 32.0091C58.275 32.1472 58.4889 32.3765 58.6444 32.6412C58.8 32.9059 58.9063 33.2391 58.9543 33.6178H54.8022V33.6077Z" fill="white"/>
<path d="M67.9402 30.0559C67.0094 30.0559 66.15 30.2396 65.3981 30.6196C64.6463 30.9996 64.05 31.505 63.6209 32.1941C63.1789 32.8717 62.965 33.6545 62.965 34.5627C62.965 35.4481 63.1919 36.2411 63.6209 36.92C64.05 37.5977 64.6476 38.1271 65.3981 38.5059C66.1487 38.8846 66.9965 39.0695 67.9402 39.0695C68.5961 39.0695 69.1807 38.9885 69.6707 38.839C70.1724 38.6895 70.5652 38.459 70.888 38.1955V35.7015C70.7324 35.9776 70.5185 36.2183 70.2204 36.426C69.9339 36.6325 69.5994 36.806 69.2417 36.92C68.8839 37.0353 68.5015 37.0923 68.1204 37.0923C67.6317 37.0923 67.213 36.9884 66.8072 36.7705C66.4015 36.5641 66.0917 36.2651 65.8648 35.8965C65.638 35.5165 65.5187 35.0922 65.5187 34.5741C65.5187 34.0915 65.638 33.6659 65.8648 33.2859C66.1033 32.9059 66.4131 32.6197 66.8072 32.4005C67.213 32.1827 67.6304 32.0674 68.1204 32.0674C68.4781 32.0674 68.8476 32.113 69.2067 32.2283C69.5528 32.3435 69.8989 32.493 70.197 32.7109C70.4952 32.9173 70.7337 33.1707 70.8893 33.4354V30.9413C70.5794 30.6766 70.1737 30.4587 69.672 30.3093C69.1807 30.1357 68.5961 30.0559 67.9402 30.0559Z" fill="white"/>
<path d="M76.7576 35.6204L74.5267 30.251H71.7344L75.4444 38.0106L73.1902 43H75.7672L81.5902 30.2624H78.9652L76.7576 35.6204Z" fill="white"/>
<path d="M90.3233 30.5385C89.6674 30.1826 88.9635 30.0103 88.2117 30.0103C87.4482 30.0103 86.7793 30.194 86.2193 30.574C85.7902 30.8615 85.4441 31.2757 85.1693 31.7583V30.2523H82.6519V43H85.1693V37.3899C85.4557 37.8725 85.7902 38.2867 86.2193 38.5857C86.7806 38.9657 87.4482 39.1493 88.2117 39.1493C88.9635 39.1493 89.6674 38.9771 90.3233 38.6211C90.9676 38.2652 91.5043 37.7585 91.8983 37.0581C92.3041 36.3677 92.4946 35.5406 92.5063 34.5868C92.5063 33.5861 92.3041 32.759 91.8983 32.0801C91.5055 31.4011 90.9806 30.8831 90.3233 30.5385ZM89.5728 35.8953C89.3576 36.2626 89.0478 36.5273 88.69 36.711C88.3322 36.8947 87.9148 36.9871 87.4728 36.9871C87.1033 36.9871 86.7326 36.8947 86.3865 36.7224C86.0404 36.54 85.7422 36.2639 85.5154 35.9067C85.2885 35.5393 85.1809 35.1023 85.1809 34.5729C85.1809 34.0434 85.2885 33.5963 85.5154 33.2391C85.7422 32.8717 86.0404 32.5956 86.3865 32.4233C86.7326 32.2511 87.102 32.1586 87.4728 32.1586C87.9148 32.1586 88.3076 32.2511 88.69 32.4347C89.0594 32.6184 89.3576 32.8945 89.5728 33.2505C89.788 33.6178 89.8955 34.0662 89.8955 34.5843C89.9059 35.1023 89.7867 35.5393 89.5728 35.8953Z" fill="white"/>
<path d="M97.5787 32.3777C97.9844 32.1599 98.4019 32.0446 98.8906 32.0446C99.2483 32.0446 99.6178 32.0902 99.9768 32.2055C100.323 32.3207 100.669 32.4702 100.967 32.6881C101.265 32.8945 101.504 33.1479 101.659 33.4126V30.9185C101.35 30.6538 100.944 30.4359 100.442 30.2865C99.9406 30.137 99.3689 30.0559 98.7117 30.0559C97.7809 30.0559 96.9215 30.2396 96.1696 30.6196C95.4178 30.9996 94.8215 31.505 94.3794 32.1827C93.9374 32.8603 93.7235 33.6431 93.7235 34.5513C93.7235 35.4367 93.9504 36.2297 94.3794 36.9086C94.8085 37.5863 95.4061 38.1157 96.1567 38.4945C96.9085 38.8745 97.755 39.0581 98.6987 39.0581C99.3546 39.0581 99.9393 38.9771 100.429 38.8276C100.931 38.6781 101.324 38.4476 101.646 38.1841V35.6901C101.491 35.9662 101.277 36.2069 100.979 36.4146C100.692 36.6211 100.358 36.7946 100 36.9086C99.6424 37.0226 99.26 37.0809 98.8789 37.0809C98.3902 37.0809 97.9715 36.977 97.5657 36.7591C97.16 36.5527 96.8502 36.2537 96.6233 35.8851C96.3965 35.5051 96.2772 35.0808 96.2772 34.5627C96.2772 34.0801 96.3965 33.6545 96.6233 33.2745C96.8748 32.8958 97.173 32.5969 97.5787 32.3777Z" fill="white"/>
<path d="M44.6133 5.63207H42V18.8991L51.4383 10.5873V18.2671H54.0517V5L44.6133 13.3233V5.63207Z" fill="white"/>
<path d="M63.3098 12.9787H59.1228V9.9666H56.7596V18.2671H59.1228V14.8065H63.3098V18.2671H65.673V9.9666H63.3098V12.9787Z" fill="white"/>
<path d="M72.2711 9.78293C71.3637 9.78293 70.5172 9.9666 69.7887 10.3238C69.0498 10.6797 68.4769 11.1851 68.0478 11.84C67.6187 12.4949 67.4035 13.2536 67.4035 14.1162C67.4035 14.9788 67.6304 15.7261 68.0478 16.381C68.4652 17.0359 69.0498 17.5425 69.79 17.9099C70.5302 18.2658 71.3533 18.4507 72.2724 18.4507C72.9167 18.4507 73.478 18.3697 73.9667 18.2202C74.4554 18.0707 74.8378 17.8643 75.1476 17.5995V15.1979C74.992 15.4741 74.7781 15.6919 74.5033 15.8883C74.2169 16.0947 73.8954 16.2442 73.5493 16.3595C73.1915 16.4747 72.822 16.5317 72.4513 16.5317C71.9743 16.5317 71.5685 16.4279 71.1744 16.2214C70.7804 16.0149 70.4706 15.7388 70.2554 15.3702C70.0169 15.0143 69.9093 14.5887 69.8976 14.1061C69.8976 13.6463 70.0168 13.2207 70.2437 12.8647C70.4822 12.5088 70.7804 12.2213 71.1628 12.0021C71.5569 11.7843 71.9626 11.6918 72.4396 11.6918C72.7974 11.6918 73.1552 11.7374 73.5013 11.8527C73.8474 11.9679 74.1819 12.1174 74.4683 12.3125C74.7665 12.5189 74.9933 12.7495 75.1489 13.0142V10.6101C74.8391 10.3453 74.445 10.1503 73.968 10.0008C73.4767 9.86273 72.9037 9.78293 72.2711 9.78293Z" fill="white"/>
<path d="M93.2828 10.2313C92.6385 9.8982 91.958 9.72593 91.2191 9.72593C90.4789 9.72593 89.823 9.9096 89.2746 10.2668C88.8456 10.5543 88.5228 10.9445 88.248 11.4055V9.9552H85.7902V22.233H88.248V16.8294C88.5228 17.3006 88.8559 17.692 89.2746 17.9795C89.823 18.3355 90.4672 18.5204 91.2191 18.5204C91.9593 18.5204 92.6385 18.3481 93.2828 18.015C93.9154 17.6819 94.4287 17.1752 94.8215 16.5089C95.2156 15.8427 95.4178 15.0371 95.4178 14.1289C95.4178 13.1751 95.2156 12.3695 94.8215 11.7146C94.4404 11.0699 93.927 10.5759 93.2828 10.2313ZM92.5556 15.4044C92.3404 15.7489 92.0422 16.0137 91.6961 16.1973C91.3383 16.381 90.9443 16.4735 90.5152 16.4735C90.1457 16.4735 89.788 16.381 89.4535 16.2087C89.1074 16.0251 88.8209 15.7717 88.6057 15.4158C88.3789 15.0713 88.2713 14.6343 88.2713 14.1276C88.2713 13.6222 88.3789 13.1966 88.6057 12.8394C88.8326 12.4949 89.1191 12.2187 89.4535 12.0465C89.7996 11.8742 90.1574 11.7817 90.5152 11.7817C90.9443 11.7817 91.3267 11.8742 91.6961 12.0579C92.0656 12.2428 92.352 12.4961 92.5556 12.8521C92.7578 13.208 92.8783 13.645 92.8783 14.1403C92.877 14.6343 92.7694 15.0599 92.5556 15.4044Z" fill="white"/>
<path d="M102.709 9.978L100.55 15.1283L98.3656 9.9666H95.6459L99.2613 17.4387L97.0654 22.2444H99.5828L105.263 9.978H102.709Z" fill="white"/>
<path d="M111.192 15.2777L107.768 9.33453L105.239 18.2671H107.35L108.473 14.2669L111.192 18.8421L113.973 14.2543L115.094 18.2671H117.194L114.677 9.33453L111.192 15.2777Z" fill="white"/>
<path d="M125.106 10.3225C124.425 9.978 123.614 9.80573 122.659 9.80573C121.788 9.80573 121.025 9.9552 120.369 10.2313C119.701 10.5189 119.188 10.9217 118.794 11.4385C118.4 11.9553 118.138 12.5531 118.019 13.2435C117.995 13.3815 117.982 13.531 117.959 13.6691C117.936 13.8185 117.936 13.968 117.936 14.1175C117.936 14.9573 118.126 15.6919 118.497 16.3481C118.879 17.0029 119.404 17.521 120.12 17.8883C120.836 18.2557 121.672 18.452 122.637 18.452C123.449 18.452 124.129 18.3481 124.701 18.1531C125.274 17.958 125.739 17.6933 126.134 17.3259C126.528 16.97 126.861 16.5558 127.147 16.0846L124.998 15.45C124.842 15.6919 124.652 15.8984 124.425 16.0821C124.186 16.2657 123.936 16.3924 123.65 16.4963C123.352 16.6001 123.017 16.6457 122.648 16.6457C122.206 16.6457 121.836 16.5647 121.49 16.381C121.144 16.1973 120.882 15.9326 120.69 15.5412C120.559 15.2879 120.488 14.9661 120.44 14.6216H127.158C127.181 14.4835 127.194 14.3683 127.194 14.2657C127.194 14.1504 127.194 14.0592 127.194 13.9895C127.194 13.1041 127.015 12.3568 126.657 11.7361C126.286 11.1509 125.773 10.6683 125.106 10.3225ZM120.452 13.1966C120.5 12.9319 120.559 12.6798 120.69 12.4607C120.881 12.1275 121.156 11.8628 121.466 11.6905C121.788 11.5183 122.169 11.4258 122.575 11.4258C122.981 11.4258 123.315 11.4942 123.577 11.6437C123.852 11.7817 124.054 11.9882 124.21 12.2529C124.365 12.5177 124.472 12.828 124.52 13.1839H120.452V13.1966Z" fill="white"/>
<path d="M135.606 12.9787H131.417V9.9666H129.042V18.2671H131.417V14.8065H135.606V18.2671H137.967V9.9666H135.606V12.9787Z" fill="white"/>
<path d="M147 9.9552H139.758V11.9211H142.192V18.3937H144.566V11.9211H147V9.9552Z" fill="white"/>
<path d="M76.7459 11.9211H79.192V18.3937H81.5539V11.9211H84V9.9552H76.7459V11.9211Z" fill="white"/>
</svg>
