<svg width="24" height="24" viewBox="0 0 24 24" fill="none" xmlns="http://www.w3.org/2000/svg">
<path fill-rule="evenodd" clip-rule="evenodd" d="M12 5C8.13401 5 5 8.13401 5 12C5 15.866 8.13401 19 12 19C15.866 19 19 15.866 19 12C19 8.13401 15.866 5 12 5ZM3 12C3 7.02944 7.02944 3 12 3C16.9706 3 21 7.02944 21 12C21 16.9706 16.9706 21 12 21C7.02944 21 3 16.9706 3 12ZM12 6.2C12.5523 6.2 13 6.64772 13 7.2V11.382L15.6472 12.7056C16.1412 12.9526 16.3414 13.5532 16.0944 14.0472C15.8474 14.5412 15.2468 14.7414 14.7528 14.4944L11.5528 12.8944C11.214 12.725 11 12.3788 11 12V7.2C11 6.64772 11.4477 6.2 12 6.2Z" fill="#D3D3D3"/>
</svg>
