<svg width="32" height="32" viewBox="0 0 32 32" fill="none" xmlns="http://www.w3.org/2000/svg">
<path fill-rule="evenodd" clip-rule="evenodd" d="M24.4753 6.45685L19.2614 11.6708L20.6059 13.0152L25.8197 7.80135L26.4233 9.09564C27.6237 11.6698 27.1161 14.8497 24.9656 17.0002C23.1087 18.8571 20.4853 19.4884 18.1469 18.8545L12.4316 24.5699C11.1269 25.8745 9.01166 25.8745 7.70701 24.5699C6.40235 23.2652 6.40235 21.1499 7.70701 19.8453L13.4216 14.1306C12.7869 11.7918 13.4181 9.16747 15.2755 7.31004C17.4264 5.15915 20.6071 4.65179 23.1815 5.85311L24.4753 6.45685ZM20.8548 7.24898C19.3935 7.08141 17.8441 7.56986 16.6897 8.72426C15.2225 10.1915 14.8304 12.2981 15.4958 14.0505L15.7255 14.6552L9.12122 21.2595C8.59761 21.7831 8.59761 22.632 9.12122 23.1556C9.64483 23.6792 10.4938 23.6792 11.0174 23.1556L17.622 16.551L18.2266 16.7804C19.9787 17.4451 22.0846 17.0528 23.5514 15.5859C24.7054 14.432 25.1939 12.8834 25.0269 11.4226L22.0201 14.4294C21.239 15.2104 19.9727 15.2104 19.1916 14.4294L17.8472 13.085C17.0662 12.3039 17.0662 11.0376 17.8472 10.2565L20.8548 7.24898Z" fill="#BC0000"/>
</svg>
