<svg width="140" height="48" viewBox="0 0 140 48" fill="none" xmlns="http://www.w3.org/2000/svg">
<path d="M70.0904 0.056558C70.0995 15.4013 70.049 31.7275 70.047 47.0723C70.047 47.3562 70.0217 47.6399 70.0043 48C54.0311 48 38.0267 48 22.0002 48C22.0002 48 22.0026 47.3835 22.0026 47.0723C21.9989 31.7275 21.9981 16.3828 22.0074 1.03798C22.0076 0.691915 22 0 22 0C37.8911 0 54.1993 0.056558 70.0904 0.056558Z" fill="#86308C"/>
<path d="M70.0156 47.9717C70.0252 44.3252 70.0382 40.622 70.0436 36.9759C70.0483 33.7982 70.0447 30.6206 70.0447 27.4431C70.0447 27.0882 70.0447 26.1507 70.0447 25.7197C86.0638 25.7197 101.841 25.7197 117.931 25.7197C117.931 26.0946 117.931 27.0602 117.931 27.4431C117.931 33.8706 117.931 40.2978 117.932 46.7253C117.932 47.1218 117.95 47.5754 117.96 47.972L70.0156 47.9717ZM99.0618 32.5041C99.0618 35.6336 99.0618 38.6041 99.0618 41.5688C99.6005 41.5688 100.052 41.5688 100.636 41.5688C100.636 40.4816 100.636 39.4447 100.636 38.3623H101.599C101.992 39.4547 102.366 40.5798 102.728 41.5837C103.299 41.5837 103.756 41.5837 104.313 41.5837C103.945 40.4983 103.602 39.4863 103.334 38.6958C103.791 38.3062 104.066 38.0047 104.116 37.1334C104.217 35.9886 104.173 34.828 104.142 33.6751C104.122 32.926 103.747 32.5344 103.005 32.5141C101.713 32.4787 100.42 32.5041 99.0618 32.5041ZM93.3828 32.3318C93.3947 35.4213 93.3615 39.0386 93.4049 42.0043C94.0112 42.0043 94.681 42.0043 95.1785 42.0043C95.1785 38.9706 95.1785 35.3511 95.1785 32.3318C94.6569 32.3318 93.9843 32.3318 93.3828 32.3318Z" fill="black"/>
<path d="M70.0312 0.0283203C86.0246 0.0283203 101.937 0.0283203 117.932 0.0283203C117.932 8.21992 117.932 17.4887 117.932 25.7193C101.967 25.7193 86.032 25.7193 70.0312 25.7193C70.0312 17.5336 70.0312 8.29251 70.0312 0.0283203ZM84.0951 9.37383C84.7203 9.37383 85.236 9.37383 85.8567 9.37383C85.8567 12.0035 85.8567 14.5535 85.8567 17.132C86.4875 17.132 87.0112 17.132 87.6279 17.132C87.6862 14.4948 87.6032 11.9153 87.6767 9.35736C88.3207 9.35736 88.8126 9.35736 89.4471 9.35736C89.4471 11.9939 89.4471 14.5689 89.4471 17.1442C90.0862 17.1442 90.5798 17.1442 91.1261 17.1442C91.1493 16.924 91.1833 16.7515 91.1835 16.5792C91.1872 14.0512 91.1961 11.523 91.1822 8.99526C91.1759 7.86388 90.8078 7.48791 89.6907 7.47968C87.4518 7.46321 82.3878 7.4799 82.3878 7.4799C82.3878 10.6718 82.388 13.9368 82.388 17.1238C82.9599 17.1238 83.4736 17.1238 84.0951 17.1238C84.0951 14.5028 84.0951 11.9543 84.0951 9.37383ZM110.895 13.8185C110.895 14.9315 110.895 15.9946 110.895 17.0961C111.519 17.0961 112.03 17.0961 112.614 17.0961C112.614 14.2502 112.63 11.4814 112.604 8.71312C112.597 7.89032 112.147 7.47469 111.305 7.44132C110.405 7.40578 109.503 7.4229 108.603 7.43396C107.393 7.44869 107.017 7.8329 107.013 9.07522C107.006 11.489 107.01 13.903 107.013 16.3168C107.013 16.5615 107.035 16.8059 107.049 17.1004C107.628 17.1004 108.14 17.1004 108.765 17.1004C108.765 15.9695 108.765 14.9085 108.765 13.8187C109.515 13.8185 110.149 13.8185 110.895 13.8185ZM98.148 15.5016C97.0337 15.5016 95.9747 15.5016 94.8635 15.5016C94.8635 14.8402 94.8635 14.3156 94.8635 13.6785C95.9457 13.6785 96.7351 13.6785 97.8927 13.6785C98.5419 13.462 98.5131 12.6492 98.5131 12.6492C98.5484 11.3525 98.5545 10.0534 98.5137 8.75689C98.4862 7.881 98.0322 7.46754 97.1332 7.43872C96.233 7.4099 95.3302 7.40839 94.4301 7.43959C93.518 7.47123 93.1184 7.87385 93.0876 8.7764C93.0595 9.60461 93.0796 10.4343 93.0796 11.2634C93.0796 12.7775 93.0664 14.2916 93.0866 15.8054C93.0972 16.5983 93.4224 17.0965 94.0754 17.1266C95.428 17.1888 96.7856 17.1455 98.1477 17.1455C98.148 16.5545 98.148 16.0969 98.148 15.5016ZM80.5959 12.317C80.5942 12.317 80.5924 12.317 80.5907 12.317C80.5907 11.2699 80.6202 10.2218 80.5823 9.17599C80.5461 8.17723 80.0191 7.57351 79.0853 7.50243C78.2601 7.43959 77.4224 7.44111 76.5972 7.50417C75.6871 7.57373 75.1304 8.15794 75.1174 9.06439C75.0866 11.2305 75.0864 13.3975 75.1154 15.5634C75.1291 16.5801 75.7178 17.1353 76.7556 17.1879C77.4039 17.2209 78.0553 17.2105 78.705 17.1957C79.9891 17.1665 80.5593 16.618 80.5907 15.3499C80.6158 14.3395 80.5959 13.3279 80.5959 12.317ZM103.911 12.7686C103.911 13.6124 103.911 14.6201 103.911 15.5016C103.514 15.5016 101.862 15.5016 101.862 15.5016C101.862 13.3483 101.862 11.2112 101.862 9.04748C103.064 9.04748 104.284 9.03925 105.398 9.03925C105.398 8.42881 105.398 7.951 105.398 7.42485C104.039 7.42485 102.689 7.41077 101.43 7.44089C100.569 7.46148 100.1 7.86562 100.089 8.67498C100.056 11.0894 100.061 13.5047 100.087 15.9194C100.095 16.6501 100.513 17.1208 101.198 17.1455C102.524 17.1936 104.147 17.1593 105.398 17.1593V11.416C104.546 11.416 103.714 11.4162 102.809 11.4162C102.809 11.9007 102.808 12.3103 102.808 12.7686H103.911Z" fill="#F9DE4A"/>
<path d="M25.9691 25.3348C29.3748 26.1104 32.6274 25.8909 35.9674 24.6672C35.6471 24.2706 35.3892 23.9517 35.1318 23.6327C34.9968 23.4654 34.8657 23.2966 34.7374 23.1267C32.8738 21.2752 31.3255 18.8612 30.4416 16.6318C30.1765 16.7671 30.0184 16.8316 29.8769 16.9224C27.9443 18.1602 26.8522 19.9798 26.3104 22.1585C26.0025 23.3969 25.8519 24.3164 25.9971 25.6384C25.9895 25.5511 25.9817 25.4551 25.9691 25.3348Z" fill="#9A61A2"/>
<path d="M34.5899 7.66764C35.738 10.9664 37.6655 13.6351 40.4739 15.8181C40.6403 15.3363 40.7979 15.0057 40.932 14.6182C41.0022 14.4152 41.0759 14.2145 41.152 14.0154C41.7338 11.4536 42.9189 8.77648 44.3404 6.84506C44.0854 6.69207 43.9467 6.59217 43.7946 6.52023C41.7206 5.53794 39.5987 5.57673 37.4642 6.27254C36.2509 6.66802 35.3915 7.02795 34.3477 7.85205C34.4172 7.79983 34.4946 7.74219 34.5899 7.66764Z" fill="#9A61A2"/>
<path d="M54.7224 6.15542C52.379 8.74539 50.9623 11.717 50.3945 15.2283C50.8971 15.1432 51.2628 15.1228 51.667 15.0545C51.8789 15.0188 52.0902 14.9871 52.3013 14.9583C54.8279 14.2397 57.7456 13.9951 60.1221 14.3158C60.134 14.0187 60.155 13.849 60.1453 13.6811C60.012 11.3902 58.9599 9.54695 57.3254 8.00796C56.3962 7.13316 55.6681 6.55176 54.4444 6.03125C54.5237 6.06722 54.6115 6.10753 54.7224 6.15542Z" fill="#9A61A2"/>
<path d="M65.8797 22.825C62.4717 22.0596 59.1878 22.2888 55.8516 23.5225C56.1731 23.918 56.3706 24.2263 56.6291 24.5447C56.7645 24.7115 56.896 24.8799 57.025 25.0496C58.894 26.8954 60.5428 29.3148 61.4335 31.5416C61.6981 31.4057 61.856 31.3405 61.9973 31.2495C63.9259 30.0059 65.0129 28.183 65.5479 26.0028C65.8521 24.7633 65.9999 23.8434 65.8508 22.522C65.8584 22.6087 65.8667 22.7049 65.8797 22.825Z" fill="#9A61A2"/>
<path d="M57.0333 40.8068C56.0607 37.4007 54.2628 34.5878 51.5447 32.2158C51.3486 32.6941 51.1699 33.0198 51.0119 33.4042C50.9291 33.6057 50.8431 33.8046 50.7544 34.0018C50.0181 36.5621 48.664 39.2045 47.1133 41.0783C47.3627 41.2478 47.4975 41.357 47.6472 41.4387C49.6907 42.5525 51.8414 42.6355 54.0426 42.0539C55.294 41.7232 56.1849 41.4083 57.2892 40.6341C57.2155 40.6831 57.134 40.7368 57.0333 40.8068Z" fill="#9A61A2"/>
<path d="M37.0608 42.0752C39.4566 39.4659 40.9152 36.4631 41.5172 32.9062C41.0069 32.9888 40.6359 33.0068 40.2255 33.0731C40.0103 33.1078 39.7958 33.1383 39.5814 33.1661C37.0138 33.8762 34.0533 34.1024 31.6453 33.7596C31.631 34.0608 31.6085 34.2329 31.6172 34.4032C31.7353 36.7275 32.7886 38.6045 34.4347 40.1773C35.3706 41.0714 36.1045 41.6662 37.3417 42.2034C37.2617 42.1659 37.1731 42.1246 37.0608 42.0752Z" fill="#9A61A2"/>
<path d="M41.5218 32.9595C39.5024 33.3929 37.7131 33.5461 35.9067 33.3662C33.6427 33.1409 31.5195 32.4919 29.6409 31.1759C27.8022 29.8878 26.4962 28.2149 26.0351 25.9669C26.0013 25.8022 25.9978 25.6312 25.9668 25.3354C29.3724 26.111 32.625 25.8915 35.965 24.6678C35.6447 24.2712 35.3869 23.9523 35.1294 23.6333C33.1055 21.1244 31.8018 18.3084 31.6248 15.0577C31.477 12.3462 32.1921 9.9107 34.2028 7.968C34.4509 7.74242 34.7441 7.52074 34.8854 7.45226C35.6155 9.77873 36.9651 12.2903 38.776 14.1981C39.2894 14.7389 39.8549 15.2302 40.4747 15.8183C41.1493 13.8006 41.9682 12.043 43.1654 10.4806C44.761 8.39837 46.7011 6.77812 49.2386 5.96875C50.8263 5.46233 52.4314 5.42203 54.0404 5.86994C54.2748 5.93517 54.4939 6.05478 54.8344 6.19694C52.5263 8.7713 51.0136 11.6649 50.4631 15.1615C51.3447 15.0464 52.146 14.9136 52.9526 14.8412C56.172 14.5528 59.2177 15.0984 61.9724 16.8619C63.9679 18.1393 65.3325 19.8994 65.8545 22.251C65.8844 22.386 65.8831 22.5279 65.9111 22.8194C62.52 22.2011 59.2249 22.249 55.923 23.5657C56.1985 23.9046 56.4163 24.1763 56.6377 24.445C58.6625 26.9037 59.9842 29.6759 60.2293 32.8776C60.4652 35.9601 59.5956 38.6422 57.0161 40.8278C55.9705 37.4562 54.1552 34.7182 51.4231 32.4598C51.2547 32.8878 51.1156 33.2399 50.9774 33.5923C49.6887 36.8809 47.7169 39.6262 44.5878 41.389C42.4352 42.6019 40.1462 43.0808 37.7129 42.2892C37.5157 42.2251 37.3311 42.1217 37.0327 41.9882C38.6969 40.1868 39.9371 38.2159 40.6819 35.9647C40.9852 35.0474 41.2052 34.103 41.5218 32.9595ZM42.3628 26.1446C43.5676 26.8404 44.7475 27.5219 45.9385 28.2097C47.1273 27.5208 48.3048 26.8384 49.4856 26.1543C49.4856 24.7382 49.4856 23.3449 49.4856 21.9881C48.2513 21.2773 47.0733 20.5991 45.9296 19.9405C44.6975 20.6556 43.5223 21.3376 42.3626 22.0109C42.3628 23.4252 42.3628 24.7891 42.3628 26.1446Z" fill="white"/>
<path d="M42.3633 26.1437C42.3633 24.7885 42.3633 23.4246 42.3633 22.0098C43.523 21.3367 44.6982 20.6546 45.9303 19.9395C47.0741 20.598 48.2518 21.2763 49.4863 21.987C49.4863 23.344 49.4863 24.7371 49.4863 26.1533C48.3056 26.8374 47.1278 27.52 45.9392 28.2086C44.748 27.5208 43.5681 26.8395 42.3633 26.1437Z" fill="#86308C"/>
<path d="M100.543 34.1768C101.156 34.1768 101.886 34.1768 102.57 34.1768V36.845C101.966 36.845 101.17 36.845 100.543 36.845L100.543 34.1768Z" fill="black"/>
<path d="M108.812 9.22461C109.52 9.22461 110.15 9.22461 110.841 9.22461C110.841 10.1839 110.841 11.0915 110.841 12.0553C110.156 12.0553 109.525 12.0553 108.812 12.0553C108.812 11.127 108.812 10.2212 108.812 9.22461Z" fill="#F9DE4A"/>
<path d="M96.7871 11.9801C96.1384 11.9801 95.5472 11.9801 94.8828 11.9801C94.8828 11.0871 94.8828 10.2107 94.8828 9.25293C95.4681 9.25293 96.0571 9.25293 96.7741 9.25293L96.7871 11.9801Z" fill="#F9DE4A"/>
<path d="M78.7997 15.3983C78.1455 15.3983 77.5548 15.3983 76.8965 15.3983C76.8965 13.325 76.8965 11.3047 76.8965 9.22461C77.552 9.22461 78.1423 9.22461 78.7997 9.22461C78.7997 11.2744 78.7997 13.2684 78.7997 15.3983Z" fill="#F9DE4A"/>
<path d="M98.5134 8.76017C98.4858 7.88428 98.0319 7.47082 97.1328 7.442C96.2326 7.41318 95.3299 7.41166 94.4297 7.44287C93.5176 7.4745 93.118 7.87713 93.0873 8.77967C93.0591 9.60789 93.0792 10.4376 93.0792 11.2667C93.0792 12.7808 93.066 14.2948 93.0862 15.8087C93.0968 16.6016 93.4221 17.0998 94.075 17.1299C95.4276 17.1921 96.7852 17.1487 98.1474 17.1487C98.1476 16.5578 98.1476 16.1001 98.1476 15.5049C97.0333 15.5049 95.9743 15.5049 94.8631 15.5049C94.8631 14.8435 94.8631 14.3189 94.8631 13.6818C95.9453 13.6818 96.7347 13.6818 97.8923 13.6818C98.5415 13.4653 98.5127 12.6525 98.5127 12.6525C98.548 11.3558 98.5541 10.0567 98.5134 8.76017ZM94.8837 11.9549C94.8837 11.0619 94.8837 10.1856 94.8837 9.2278C95.469 9.2278 96.058 9.2278 96.775 9.2278L96.788 11.9549C96.1392 11.9549 95.5481 11.9549 94.8837 11.9549Z" fill="black"/>
<path d="M91.125 17.1473C91.1482 16.9272 91.1823 16.7547 91.1825 16.5824C91.1862 14.0544 91.195 11.5262 91.1812 8.99843C91.1749 7.86705 90.8067 7.49108 89.6896 7.48285C87.4507 7.46638 82.3867 7.48307 82.3867 7.48307C82.3867 10.675 82.3869 13.94 82.3869 17.127C82.9588 17.127 83.4726 17.127 84.0941 17.127C84.0941 14.506 84.0941 11.9574 84.0941 9.377C84.7192 9.377 85.235 9.377 85.8556 9.377C85.8556 12.0066 85.8556 14.5567 85.8556 17.1352C86.4864 17.1352 87.0102 17.1352 87.6269 17.1352C87.6852 14.498 87.6022 11.9184 87.6756 9.36053C88.3197 9.36053 88.8116 9.36053 89.4461 9.36053C89.4461 11.9971 89.4461 14.5721 89.4461 17.1473C90.0851 17.1473 90.5787 17.1473 91.125 17.1473Z" fill="black"/>
<path d="M80.5821 9.17889C80.5459 8.18013 80.0189 7.57642 79.0851 7.50534C78.2599 7.4425 77.4222 7.44401 76.597 7.50707C75.6869 7.57663 75.1302 8.16085 75.1172 9.06729C75.0864 11.2334 75.0862 13.4004 75.1152 15.5663C75.1289 16.583 75.7176 17.1382 76.7554 17.1908C77.4038 17.2238 78.0551 17.2134 78.7048 17.1986C79.9889 17.1694 80.5591 16.6209 80.5905 15.3528C80.6156 14.3424 80.5957 13.3308 80.5957 12.3199C80.594 12.3199 80.5922 12.3199 80.5905 12.3199C80.5905 11.2728 80.62 10.2247 80.5821 9.17889ZM78.7837 15.4126C78.1295 15.4126 77.5388 15.4126 76.8804 15.4126C76.8804 13.3393 76.8804 11.319 76.8804 9.23892C77.5359 9.23892 78.1262 9.23892 78.7837 9.23892C78.7837 11.2887 78.7837 13.2827 78.7837 15.4126Z" fill="black"/>
<path d="M105.399 9.04249C105.399 8.43205 105.399 7.95424 105.399 7.42809C104.04 7.42809 102.69 7.41401 101.43 7.44413C100.57 7.46472 100.101 7.86886 100.09 8.67822C100.056 11.0927 100.062 13.508 100.088 15.9226C100.096 16.6533 100.513 17.124 101.199 17.1487C102.525 17.1968 104.148 17.1626 105.399 17.1626V11.4192C104.547 11.4192 103.715 11.4194 102.809 11.4194C102.809 11.904 102.809 12.5302 102.809 12.9886H103.912C103.912 13.8324 103.912 14.6233 103.912 15.5048C103.515 15.5048 101.862 15.5048 101.862 15.5048C101.862 13.3515 101.863 11.2144 101.863 9.05073C103.065 9.05073 104.285 9.04249 105.399 9.04249Z" fill="black"/>
<path d="M112.614 17.0989C112.614 14.253 112.63 11.4843 112.605 8.71599C112.597 7.89319 112.148 7.47756 111.305 7.44419C110.406 7.40865 109.504 7.42577 108.603 7.43682C107.393 7.45156 107.018 7.83576 107.014 9.07809C107.006 11.4919 107.011 13.9059 107.013 16.3197C107.013 16.5643 107.035 16.8088 107.049 17.1033C107.629 17.1033 108.14 17.1033 108.766 17.1033C108.766 15.9723 108.766 14.9114 108.766 13.8216C109.515 13.8214 110.149 13.8214 110.895 13.8214C110.895 14.9343 110.895 15.9975 110.895 17.0989C111.52 17.0989 112.031 17.0989 112.614 17.0989ZM110.841 12.0297C110.156 12.0297 109.525 12.0297 108.812 12.0297C108.812 11.1012 108.812 10.1956 108.812 9.19901C109.52 9.19901 110.15 9.19901 110.841 9.19901C110.841 10.1583 110.841 11.0659 110.841 12.0297Z" fill="black"/>
<path d="M89.6242 41.9241C89.6242 39.0782 89.6402 36.3095 89.6144 33.5412C89.6068 32.7184 89.1576 32.3028 88.3147 32.2694C87.4154 32.2338 86.5135 32.251 85.6129 32.262C84.4029 32.2768 84.0275 32.661 84.0236 33.9033C84.0163 36.3171 84.0206 38.7311 84.023 41.1449C84.0232 41.3895 84.0449 41.634 84.0592 41.9285C84.6384 41.9285 85.1498 41.9285 85.7754 41.9285C85.7754 40.7975 85.7754 39.7366 85.7754 38.6468C86.5252 38.6466 87.1592 38.6466 87.9049 38.6466C87.9049 39.7595 87.9049 40.8227 87.9049 41.9241C88.5296 41.9241 89.0406 41.9241 89.6242 41.9241ZM87.8503 36.8549C87.1653 36.8549 86.5349 36.8549 85.8222 36.8549C85.8222 35.9264 85.8222 35.0208 85.8222 34.0242C86.5295 34.0242 87.1599 34.0242 87.8503 34.0242C87.8503 34.9835 87.8503 35.8911 87.8503 36.8549Z" fill="white"/>
</svg>
