<svg width="56" height="56" viewBox="0 0 56 56" fill="none" xmlns="http://www.w3.org/2000/svg">
<path d="M33.5588 17.066C33.0408 16.226 32.2988 15.582 31.3328 15.134C30.3668 14.686 29.2188 14.462 27.9028 14.462C26.3208 14.462 24.9208 14.826 23.7028 15.554C22.4848 16.282 21.4628 17.29 20.6648 18.578L16.8008 15.708C17.6968 14.518 18.6908 13.482 19.7408 12.586C20.8048 11.704 22.0368 11.018 23.4368 10.528C24.8368 10.052 26.4888 9.80005 28.3928 9.80005C29.9328 9.80005 31.3748 10.052 32.7188 10.556C34.0628 11.06 35.2528 11.76 36.2888 12.684C37.3388 13.608 38.1508 14.686 38.7528 15.946C39.3408 17.206 39.6488 18.606 39.6488 20.146C39.6488 22.008 39.1588 23.688 38.1788 25.172C37.1988 26.656 35.9248 27.8461 34.3568 28.7421C32.7888 29.6381 31.1228 30.198 29.3588 30.38L29.0648 35.448H24.9628L23.9968 26.95H25.3548C27.2868 26.95 28.9248 26.6 30.2548 25.914C31.5848 25.228 32.6068 24.346 33.2928 23.31C33.9928 22.26 34.3288 21.21 34.3288 20.146C34.3288 18.928 34.0768 17.892 33.5588 17.052V17.066ZM24.6548 39.732C25.3128 39.1021 26.1248 38.7941 27.0908 38.7941C28.0568 38.7941 28.8548 39.1021 29.5128 39.732C30.1568 40.362 30.4788 41.104 30.4788 41.972C30.4788 42.84 30.1568 43.5961 29.5128 44.24C28.8688 44.884 28.0568 45.2061 27.0908 45.2061C26.1248 45.2061 25.3128 44.884 24.6548 44.24C23.9968 43.5961 23.6608 42.84 23.6608 41.972C23.6608 41.104 23.9968 40.348 24.6548 39.732Z" fill="#0C1D28"/>
</svg>
