<svg width="140" height="48" viewBox="0 0 140 48" fill="none" xmlns="http://www.w3.org/2000/svg">
<path d="M29.3699 5C29.6089 5.17571 29.8409 5.36212 30.0883 5.52524C31.3562 6.36149 32.6277 7.19224 33.8987 8.0238C34.8082 8.6189 35.72 9.21065 36.6291 9.80662C37.9366 10.6639 39.2412 11.5257 40.5496 12.3818C41.4768 12.9885 42.4082 13.5888 43.3373 14.1927C43.4207 14.2469 43.5002 14.3072 43.592 14.3721C43.592 20.5432 43.592 26.7144 43.592 32.9123C43.0399 33.2841 42.4792 33.6624 41.9177 34.0396C41.1081 34.5835 40.2979 35.1266 39.4879 35.67C38.1057 36.5973 36.7228 37.5236 35.3414 38.4521C33.9887 39.3614 32.6375 40.2729 31.2854 41.1831C30.7803 41.5231 30.2733 41.8603 29.7707 42.2038C29.6944 42.256 29.6368 42.3357 29.5706 42.4027C25.2661 42.4027 20.9615 42.4027 16.6569 42.4027C16.6048 42.3503 16.5605 42.2851 16.4994 42.2473C16.1034 42.0023 15.7035 41.7635 15.3052 41.522C14.4806 41.0221 13.6554 40.5232 12.8321 40.0212C11.9524 39.4849 11.0767 38.9423 10.1956 38.4084C9.16276 37.7825 8.12438 37.1659 7.09162 36.5399C6.05907 35.9141 5.03066 35.2815 3.99998 34.6526C3.2625 34.2026 2.52702 33.7492 1.78485 33.307C1.53234 33.1566 1.26209 33.0358 1 32.9015C1 26.7011 1 20.5008 1 14.3005C1.29915 14.1451 1.6062 14.0031 1.89606 13.8319C2.8225 13.285 3.74191 12.7264 4.6652 12.1741C5.52118 11.6621 6.38024 11.1553 7.23481 10.6411C8.09909 10.121 8.95768 9.59143 9.82209 9.07161C10.7057 8.54014 11.5942 8.01677 12.479 7.48738C13.5835 6.82658 14.6881 6.16591 15.7887 5.49888C16.0415 5.34572 16.2788 5.16701 16.5231 5C20.8054 5 25.0876 5 29.3699 5ZM42.197 15.125C41.3878 14.5979 40.599 14.0825 39.8084 13.5698C38.8502 12.9485 37.8892 12.3314 36.9318 11.7089C35.9836 11.0926 35.04 10.4691 34.0913 9.85359C33.142 9.23775 32.1874 8.63027 31.2379 8.01483C30.2426 7.36975 29.2489 6.72206 28.2586 6.06936C28.083 5.9536 27.9037 5.91245 27.6956 5.91272C24.4956 5.917 21.2957 5.91707 18.0957 5.91272C17.8878 5.91245 17.7043 5.95173 17.5275 6.06113C16.8119 6.5042 16.0935 6.94287 15.3753 7.38173C14.4668 7.93682 13.5572 8.48989 12.6488 9.04511C11.9673 9.46169 11.2865 9.87961 10.6061 10.2982C9.75638 10.821 8.90877 11.3473 8.05774 11.868C7.35873 12.2958 6.65497 12.7157 5.95556 13.1428C5.21754 13.5935 4.4818 14.0479 3.74572 14.5018C3.2558 14.8039 2.76696 15.1077 2.28507 15.4062C2.28507 20.9486 2.28507 26.4653 2.28507 31.9987C2.69724 32.243 3.1084 32.4834 3.51622 32.7292C4.42767 33.2788 5.33764 33.8308 6.24789 34.3824C6.99701 34.8364 7.744 35.2938 8.49493 35.7448C9.3404 36.2526 10.1898 36.7539 11.0365 37.2598C11.7217 37.6692 12.4058 38.0804 13.0893 38.4925C13.8483 38.95 14.6067 39.4084 15.364 39.8686C16.0835 40.3057 16.8062 40.7376 17.5179 41.1871C17.9491 41.4593 18.3837 41.609 18.9166 41.6042C21.8598 41.5782 24.8034 41.5895 27.7469 41.5957C27.9915 41.5962 28.1971 41.542 28.4014 41.4062C29.1773 40.8907 29.9595 40.3847 30.7435 39.8815C31.443 39.4326 32.149 38.9939 32.85 38.5474C33.832 37.9219 34.8126 37.2943 35.7928 36.6658C36.7631 36.0437 37.7317 35.4188 38.702 34.7964C39.3744 34.3651 40.0486 33.9366 40.7213 33.5057C41.2148 33.1897 41.7071 32.8719 42.1971 32.5567C42.197 26.7403 42.197 20.9439 42.197 15.125Z" fill="#2C5FA7"/>
<path d="M77.1289 31.499C78.1243 25.0495 79.1137 18.6394 80.1065 12.207C81.0362 12.207 81.9446 12.207 82.885 12.207C84.1454 15.8008 85.4116 19.4109 86.697 23.0758C86.764 22.9522 86.8299 22.8596 86.8673 22.7567C87.1816 21.8939 87.4866 21.0275 87.8027 20.1652C88.05 19.4907 88.3132 18.822 88.5622 18.1481C88.796 17.5151 89.0187 16.8779 89.2494 16.2436C89.5786 15.3388 89.9107 14.435 90.2417 13.5308C90.401 13.096 90.5607 12.6613 90.7272 12.2076C91.6585 12.2076 92.5758 12.2076 93.5061 12.2076C94.4018 18.6392 95.2951 25.0534 96.192 31.4934C94.839 31.4934 93.5429 31.4934 92.2433 31.4934C91.8533 28.3224 91.4656 25.1723 91.0781 22.0222C91.0523 22.017 91.0265 22.0117 91.0008 22.0065C89.7894 25.2465 88.6105 28.4987 87.4024 31.7559C86.9165 31.7559 86.4301 31.7559 85.9225 31.7559C85.5394 30.665 85.1598 29.5804 84.7778 28.4966C84.3917 27.4016 83.9983 26.3092 83.6172 25.2125C83.2436 24.1376 82.863 23.0657 82.484 21.9932C82.457 22.0003 82.43 22.0073 82.403 22.0144C81.9609 25.1719 81.5187 28.3293 81.0749 31.4991C79.7612 31.499 78.473 31.499 77.1289 31.499Z" fill="#2C5FA7"/>
<path d="M52.7462 12.5168C52.856 12.5108 52.9533 12.5009 53.0506 12.5008C54.5336 12.4998 56.0169 12.4834 57.4996 12.5061C58.4571 12.5208 59.4043 12.6302 60.3051 13.0065C61.1604 13.3638 61.837 13.9296 62.3697 14.678C63.0324 15.6089 63.322 16.6643 63.4364 17.7881C63.5271 18.6784 63.4235 19.5517 63.193 20.3982C62.9077 21.4459 62.3514 22.3597 61.4849 23.037C61.1317 23.313 60.7056 23.4958 60.2707 23.7451C61.846 26.3092 63.4815 28.869 65.098 31.4991C63.4681 31.4991 61.9098 31.4991 60.314 31.4991C59.1054 29.3469 57.889 27.1807 56.6726 25.0145C56.6461 25.0238 56.6197 25.0332 56.5933 25.0426C56.5933 27.1874 56.5933 29.3321 56.5933 31.4954C55.298 31.4954 54.033 31.4954 52.7461 31.4954C52.7462 25.167 52.7462 18.8521 52.7462 12.5168ZM56.6239 16.3193C56.6239 17.8505 56.6239 19.3439 56.6239 20.8865C57.0619 20.847 57.4796 20.8572 57.8724 20.7635C58.6162 20.5862 59.1561 20.1546 59.3832 19.3805C59.4932 19.0058 59.4797 18.6307 59.4625 18.2562C59.4228 17.3928 58.9531 16.7128 58.1346 16.4657C57.6505 16.3195 57.1548 16.3019 56.6239 16.3193Z" fill="#2C5FA7"/>
<path d="M130.273 12.1787C131.228 12.1787 132.182 12.1787 133.189 12.1787C135.421 18.5855 137.661 25.0155 139.901 31.4453C139.676 31.5282 136.223 31.5547 135.749 31.4765C135.316 30.2626 134.879 29.0354 134.431 27.7775C132.604 27.7775 130.759 27.7775 128.872 27.7775C128.44 28.9895 127.999 30.2255 127.548 31.4876C126.169 31.4876 124.782 31.4876 123.352 31.4876C125.661 25.0443 127.963 18.6219 130.273 12.1787ZM133.197 23.925C133.173 23.8172 133.161 23.7308 133.134 23.6492C132.919 22.9992 132.698 22.351 132.485 21.7005C132.251 20.9878 132.024 20.2728 131.79 19.5602C131.774 19.5129 131.72 19.4783 131.662 19.4142C131.15 20.9375 130.651 22.419 130.144 23.9249C131.182 23.925 132.178 23.925 133.197 23.925Z" fill="#2C5FA7"/>
<path d="M109.664 16.4953C109.664 15.1409 109.664 13.8397 109.664 12.5195C113.784 12.5195 117.891 12.5195 122.03 12.5195C119.557 17.5327 117.094 22.5254 114.606 27.567C116.87 27.567 119.101 27.567 121.357 27.567C121.357 28.896 121.357 30.1809 121.357 31.4903C116.99 31.4903 112.628 31.4903 108.207 31.4903C110.673 26.4879 113.124 21.5174 115.6 16.4953C113.592 16.4953 111.647 16.4953 109.664 16.4953Z" fill="#2C5FA7"/>
<path d="M75.8374 27.5673C75.8374 28.9021 75.8374 30.1804 75.8374 31.4869C72.7159 31.4869 69.6009 31.4869 66.4609 31.4869C66.4609 25.1793 66.4609 18.8553 66.4609 12.5166C69.5844 12.5166 72.7003 12.5166 75.8341 12.5166C75.8341 13.8315 75.8341 15.1307 75.8341 16.4787C74.0037 16.4787 72.1841 16.4787 70.3253 16.4787C70.3247 17.544 70.3249 18.5601 70.3251 19.6168C72.1125 19.6168 73.8348 19.6168 75.5745 19.6168C75.5745 20.9463 75.5745 22.2348 75.5745 23.5653C73.8353 23.5653 72.1023 23.5653 70.3473 23.5653C70.3473 24.9156 70.3473 26.2241 70.3473 27.5672C72.1739 27.5673 73.9858 27.5673 75.8374 27.5673Z" fill="#2C5FA7"/>
<path d="M97.5117 31.4935C97.5117 25.1656 97.5117 18.8589 97.5117 12.5264C100.619 12.5264 103.721 12.5264 106.84 12.5264C106.84 13.8383 106.84 15.1466 106.84 16.485C105.018 16.485 103.216 16.485 101.393 16.485C101.393 17.5334 101.393 18.5519 101.393 19.6156C103.143 19.6156 104.875 19.6156 106.627 19.6156C106.627 20.9483 106.627 22.2359 106.627 23.5613C104.881 23.5613 103.147 23.5613 101.392 23.5613C101.392 24.9087 101.392 26.2186 101.392 27.5678C103.208 27.5678 105.018 27.5678 106.844 27.5678C106.844 28.8952 106.844 30.1837 106.844 31.4936C103.734 31.4935 100.632 31.4935 97.5117 31.4935Z" fill="#2C5FA7"/>
<path d="M88.2924 37.3033C88.5927 36.4402 88.893 35.5771 89.1871 34.7317H90.447V38.6303H89.5539L89.5579 35.8986H89.4989C89.1794 36.8089 88.8686 37.7198 88.5456 38.6399H87.9405C87.6223 37.7287 87.3049 36.8172 86.984 35.8986H86.9305L86.9306 38.6289H86.0625V34.7314H87.3062C87.6055 35.5943 87.902 36.4488 88.1984 37.3033C88.2455 37.3033 88.2452 37.3033 88.2924 37.3033Z" fill="#2C5FA7"/>
<path d="M130.592 34.7152C130.756 34.7152 130.898 34.7151 131.04 34.7152C131.608 34.7157 132.176 34.7042 132.744 34.7214C133.119 34.7327 133.46 34.8492 133.697 35.1725C134.083 35.7003 133.949 36.3794 133.388 36.724C133.361 36.7402 133.341 36.7657 133.321 36.7831C133.325 36.8143 133.32 36.8482 133.331 36.8551C133.695 37.0789 133.784 37.4299 133.796 37.8252C133.804 38.0887 133.835 38.3514 133.857 38.6336C133.597 38.6336 133.322 38.6336 133 38.6336C132.968 38.5188 132.917 38.3885 132.896 38.2537C132.864 38.0452 132.86 37.8322 132.826 37.6242C132.807 37.5089 132.751 37.3997 132.72 37.312C132.302 37.1673 131.94 37.1432 131.511 37.2301C131.511 37.6858 131.511 38.1492 131.511 38.6324C131.186 38.6324 130.893 38.6324 130.592 38.6324C130.592 37.3265 130.592 36.0405 130.592 34.7152ZM131.497 36.4522C131.876 36.4522 132.229 36.4668 132.579 36.4468C132.791 36.4347 132.917 36.2676 132.945 36.0394C132.973 35.8198 132.881 35.5771 132.712 35.5346C132.316 35.4355 131.914 35.4154 131.497 35.4868C131.497 35.8151 131.497 36.1108 131.497 36.4522Z" fill="#2C5FA7"/>
<path d="M81.0786 34.6301C81.1403 34.6304 81.2023 34.6276 81.264 34.6253C81.8255 34.6052 82.3409 34.8145 82.6924 35.3253C82.8631 35.5734 82.987 35.8802 83.0408 36.1769C83.1674 36.8744 83.0954 37.5517 82.6198 38.1277C82.3792 38.4192 82.0754 38.6159 81.6974 38.6791C81.1885 38.7641 80.6819 38.7889 80.1971 38.5637C79.5191 38.2489 79.2426 37.6603 79.1633 36.9669C79.1099 36.5003 79.1667 36.0386 79.3845 35.6046C79.7046 34.9668 80.2183 34.6502 80.9245 34.6307C80.9704 34.6294 81.0163 34.6298 81.0786 34.6301ZM82.0941 37.0836C82.1309 36.8664 82.1286 36.6444 82.0988 36.4262C82.0787 36.2791 82.0572 36.1324 82.0164 35.9912C81.904 35.6026 81.5848 35.38 81.1765 35.3373C80.775 35.2953 80.4026 35.5559 80.2659 35.9225C80.0842 36.4098 80.0896 36.8919 80.2414 37.3899C80.4123 37.9506 81.2373 38.2894 81.7853 37.7326C81.973 37.5419 82.0538 37.3206 82.0941 37.0836Z" fill="#2C5FA7"/>
<path d="M127.404 35.5349C127.623 35.9215 127.671 36.3591 127.648 36.7963C127.626 37.2188 127.553 37.6286 127.296 37.9912C127.069 38.3131 126.781 38.5466 126.406 38.6481C125.916 38.7811 125.407 38.7995 124.927 38.6339C124.274 38.409 123.901 37.9057 123.784 37.2379C123.673 36.6031 123.71 35.9832 124.069 35.407C124.364 34.9338 124.793 34.7128 125.32 34.638C126.485 34.5433 127.029 34.8738 127.404 35.5349ZM126.044 35.4064C125.833 35.3269 125.598 35.319 125.382 35.3876C125.018 35.5037 124.792 35.796 124.73 36.2791C124.696 36.5416 124.712 36.813 124.727 37.079C124.744 37.3661 124.861 37.6325 125.088 37.8003C125.773 38.3066 126.508 37.8896 126.646 37.1551C126.706 36.8367 126.708 36.5142 126.646 36.1961C126.565 35.7852 126.365 35.5271 126.044 35.4064Z" fill="#2C5FA7"/>
<path d="M118.482 37.4738C118.607 37.9317 119.091 38.1551 119.584 38.0567C119.792 38.0055 119.968 37.8909 119.989 37.6914C120.009 37.5063 119.918 37.3307 119.705 37.2551C119.383 37.1408 119.048 37.0627 118.72 36.9649C118.355 36.8562 118.002 36.7375 117.826 36.3458C117.555 35.7453 117.763 35.0443 118.417 34.8114C118.919 34.6326 119.443 34.6325 119.959 34.772C120.403 34.8921 120.762 35.3128 120.777 35.813H119.956C119.732 35.4034 119.36 35.405 119 35.4185C118.989 35.419 118.978 35.4195 118.967 35.4201C118.513 35.4463 118.436 36.0854 118.873 36.2138C118.897 36.2207 118.92 36.2273 118.944 36.2336C119.223 36.3082 119.705 36.3697 119.985 36.4386C120.561 36.5806 120.866 36.8788 120.899 37.3934C120.94 38.0314 120.609 38.433 120.209 38.635C119.536 38.8937 118.844 38.9041 118.186 38.5426C117.777 38.3176 117.621 37.9463 117.594 37.4739C117.891 37.4738 118.175 37.4738 118.482 37.4738Z" fill="#2C5FA7"/>
<path d="M105.996 34.7344C107.002 34.7344 108 34.7344 109.022 34.7344C109.022 34.9625 109.022 35.1879 109.022 35.4567C108.304 35.4567 107.598 35.4567 106.875 35.4567C106.875 35.7497 106.875 36 106.875 36.2816C107.503 36.2816 108.122 36.2816 108.765 36.2816C108.765 36.5275 108.765 36.7423 108.765 36.9844C108.137 36.9844 107.518 36.9844 106.878 36.9844C106.878 37.2825 106.878 37.5548 106.878 37.8723C107.592 37.8723 108.308 37.8723 109.059 37.8723C109.059 38.1514 109.059 38.3864 109.059 38.6372C108.042 38.6372 107.032 38.6372 105.996 38.6372C105.996 37.3401 105.996 36.0465 105.996 34.7344Z" fill="#2C5FA7"/>
<path d="M76.4341 36.0214C76.1596 36.0214 75.8847 36.0214 75.5923 36.0214C75.5731 35.978 75.5508 35.929 75.5298 35.8795C75.3666 35.4961 75.1369 35.3435 74.7357 35.3526C74.3531 35.3613 74.0394 35.572 73.9299 35.936C73.7873 36.4104 73.7619 36.8906 73.9158 37.3743C74.0717 37.8638 74.6386 38.135 75.1239 37.9325C75.4218 37.8082 75.5118 37.5568 75.6151 37.2542C75.7451 37.2542 75.8861 37.2542 76.0271 37.2542C76.1598 37.2542 76.2924 37.2542 76.4638 37.2542C76.465 37.7344 76.2771 38.0991 75.9297 38.3833C75.6363 38.6233 75.2905 38.7401 74.9103 38.7262C74.6455 38.7166 74.3782 38.7054 74.1176 38.6617C73.4338 38.5471 73.0461 38.0848 72.8922 37.4562C72.731 36.7977 72.768 36.1307 73.0857 35.5065C73.3419 35.003 73.7717 34.7088 74.3127 34.6494C74.691 34.6079 75.0926 34.6477 75.4667 34.7294C76.0213 34.8505 76.4362 35.4412 76.4341 36.0214Z" fill="#2C5FA7"/>
<path d="M93.627 34.7124C93.627 34.7124 94.9844 34.7055 95.5301 34.7219C95.7366 34.7282 95.9559 34.7615 96.1438 34.842C96.712 35.0856 96.9623 35.6419 96.8329 36.3019C96.7177 36.8902 96.2831 37.2402 95.6419 37.2515C95.2753 37.258 94.9084 37.2526 94.507 37.2526V38.6268H93.627C93.627 37.3409 93.627 36.0267 93.627 34.7124ZM94.4958 36.5609C94.8315 36.5853 95.02 36.5772 95.2603 36.5549C95.8282 36.541 95.8977 36.1754 95.887 35.974C95.8871 35.9717 95.8872 35.9694 95.8872 35.9671C95.8907 35.7329 95.7185 35.533 95.4889 35.4865C95.1607 35.42 94.8291 35.4451 94.4957 35.4676C94.4958 35.843 94.4958 36.1747 94.4958 36.5609Z" fill="#2C5FA7"/>
<path d="M56.5576 38.6344C56.2134 38.6344 55.9167 38.6344 55.6064 38.6344C55.5209 38.3936 55.437 38.157 55.3499 37.9115C54.8735 37.9115 54.4206 37.9115 53.9208 37.9115C53.8431 38.1378 53.7622 38.3735 53.6737 38.6313C53.3783 38.6313 53.0722 38.6313 52.7246 38.6313C53.2114 37.3177 53.6897 36.0272 54.1707 34.7295C54.4736 34.7295 54.7611 34.7295 55.1019 34.7295C55.5775 36.0054 56.0615 37.3041 56.5576 38.6344ZM55.1605 37.2387C54.9904 36.7312 54.8319 36.2581 54.6733 35.785C54.6497 35.7883 54.6262 35.7918 54.6026 35.7951C54.4431 36.2674 54.2837 36.7397 54.1152 37.2386C54.4742 37.2387 54.7817 37.2387 55.1605 37.2387Z" fill="#2C5FA7"/>
<path d="M60.0562 38.6383C59.7682 38.6383 59.5048 38.6383 59.2227 38.6383C59.2227 37.3319 59.2227 36.0386 59.2227 34.7305C59.5042 34.7305 59.7674 34.7305 60.0562 34.7305C60.0562 36.025 60.0562 37.3182 60.0562 38.6383Z" fill="#2C5FA7"/>
<path d="M21.6284 19.2382C18.4035 17.2777 15.2242 15.3449 11.9911 13.3794C11.9911 21.168 11.9911 28.8874 11.9911 36.6555C9.15769 34.9899 6.36922 33.3507 3.55859 31.6984C3.55859 26.4484 3.55859 21.1901 3.55859 15.8927C8.31944 13.0053 13.1027 10.1044 17.8962 7.19727C22.9566 10.3266 27.9899 13.439 33.0717 16.5816C32.3765 17.4337 31.6251 18.1964 30.9184 18.997C30.198 19.8131 29.4524 20.6068 28.719 21.4116C27.9934 22.2078 27.268 23.0043 26.5449 23.8028C25.8248 24.598 25.1077 25.3957 24.3578 26.2272C27.3992 27.9558 30.4014 29.6621 33.4685 31.4053C33.0549 31.638 32.7043 31.8366 32.3525 32.0328C31.5391 32.4861 30.7255 32.939 29.9112 33.3905C29.1739 33.7994 28.4355 34.2062 27.6977 34.6141C26.8538 35.0807 26.007 35.5421 25.1681 36.0177C24.9364 36.149 24.7542 36.1363 24.5251 35.9955C23.1943 35.1781 21.8556 34.3733 20.5154 33.5713C19.1547 32.757 17.7874 31.9536 16.426 31.1404C15.3314 30.4866 14.241 29.8258 13.1496 29.1667C13.076 29.1223 13.0091 29.0667 12.9061 28.9925C15.8127 25.742 18.702 22.5108 21.6284 19.2382Z" fill="#2C5FA7"/>
<path d="M34.3164 16.3115C36.5752 16.3115 38.8017 16.3115 41.0288 16.3115C41.1082 16.5464 41.1477 30.5359 41.0686 31.3939C38.8261 31.3939 36.5815 31.3939 34.3164 31.3939C34.3164 26.373 34.3164 21.3619 34.3164 16.3115Z" fill="#2C5FA7"/>
<path d="M19.1116 6.92773C19.2337 6.92773 19.3557 6.92773 19.4778 6.92773C21.8962 6.92773 24.3147 6.92773 26.7332 6.92773C27.4914 6.92773 27.4898 6.93021 28.0966 7.31186C29.4941 8.1908 30.8937 9.06638 32.2916 9.94457C33.568 10.7465 34.8417 11.5526 36.1195 12.3523C37.4252 13.1694 38.7347 13.9805 40.0418 14.7955C40.2202 14.9067 40.3942 15.0248 40.6082 15.1644C40.5083 15.1855 40.4414 15.2119 40.3744 15.212C38.1342 15.2141 35.8941 15.2154 33.6539 15.2092C33.5281 15.2089 33.3891 15.167 33.279 15.1045C32.113 14.4429 30.9528 13.7711 29.7887 13.1063C28.8841 12.5897 27.9745 12.0818 27.0702 11.5648C26.3207 11.1363 25.5772 10.6972 24.828 10.2682C24.0875 9.84387 23.3415 9.42903 22.6008 9.00496C21.4666 8.35559 20.3349 7.70195 19.2024 7.04971C19.1663 7.02897 19.1325 7.00421 19.0977 6.98126C19.1023 6.9634 19.107 6.9456 19.1116 6.92773Z" fill="#2C5FA7"/>
<path d="M20.0781 40.6884C20.3581 40.5195 20.636 40.3471 20.9184 40.1823C22.1329 39.4738 23.35 38.7695 24.564 38.0602C26.2017 37.1035 27.8384 36.1455 29.4736 35.1847C30.3811 34.6515 31.2831 34.1091 32.1905 33.5756C32.7824 33.2276 33.3776 32.885 33.9756 32.5478C34.0681 32.4957 34.184 32.4597 34.2892 32.4595C36.4625 32.4562 38.6357 32.4592 40.8089 32.4613C40.8192 32.4613 40.8294 32.4672 40.8654 32.4779C40.7527 32.6878 40.5333 32.7596 40.3621 32.8673C39.3208 33.5229 38.2675 34.1596 37.2192 34.8039C36.3413 35.3435 35.4636 35.8836 34.5874 36.426C33.6175 37.0263 32.6503 37.6307 31.6804 38.231C30.6343 38.8785 29.5865 39.5234 28.5391 40.1689C28.3505 40.2851 28.1444 40.3793 27.9741 40.5178C27.7322 40.7145 27.4694 40.7583 27.168 40.7572C24.9278 40.7489 22.6875 40.7527 20.4473 40.7527C20.3296 40.7527 20.2119 40.7527 20.0943 40.7527C20.0889 40.7313 20.0835 40.7099 20.0781 40.6884Z" fill="#2C5FA7"/>
<path d="M63.2383 38.6352C63.2383 37.3352 63.2383 36.0489 63.2383 34.72C63.4033 34.72 63.5554 34.7198 63.7075 34.72C64.2643 34.7205 64.8212 34.7178 65.3779 34.7228C65.8311 34.7268 66.3873 35.0199 66.5033 35.5377C66.6168 36.0441 66.4643 36.4581 66.0159 36.7278C65.9892 36.7439 65.859 36.831 65.8189 36.8638C65.8189 36.8638 65.8767 36.8628 65.996 36.9018C66.2846 37.0244 66.3525 37.2747 66.3831 37.5493C66.4232 37.9099 66.4637 38.2706 66.5054 38.6438C66.2308 38.6438 65.9441 38.6438 65.6517 38.6438C65.5002 38.4424 65.4864 38.2119 65.4951 37.9775C65.516 37.4148 65.426 37.1762 64.6902 37.1877C64.5345 37.1901 64.3788 37.1931 64.2233 37.1986C64.2036 37.1993 64.1305 37.2023 64.1305 37.2023C64.1305 37.6466 64.1305 38.1509 64.1305 38.6353C63.8154 38.6352 63.535 38.6352 63.2383 38.6352ZM64.1196 36.4564C64.4959 36.4564 64.7525 36.4743 65.1152 36.4556C65.4114 36.4556 65.5446 36.2664 65.5697 36.0564C65.57 36.0544 65.5702 36.0524 65.5704 36.0504C65.6009 35.7795 65.404 35.5361 65.1347 35.4934C64.8 35.4403 64.1008 35.5037 64.1008 35.5037C64.1008 35.7812 64.1179 36.2123 64.1196 36.4564C64.12 36.51 64.1116 36.3767 64.1196 36.4564Z" fill="#2C5FA7"/>
<path d="M99.7188 38.6303C99.7188 37.3303 99.7188 36.044 99.7188 34.7151C99.8838 34.7151 100.036 34.715 100.188 34.7151C100.745 34.7156 101.302 34.713 101.858 34.7179C102.312 34.7219 102.868 35.015 102.984 35.5328C103.097 36.0392 102.945 36.4532 102.496 36.7229C102.47 36.739 102.339 36.8261 102.299 36.859C102.299 36.859 102.357 36.8579 102.477 36.897C102.765 37.0195 102.833 37.2699 102.864 37.5444C102.904 37.905 102.944 38.2657 102.986 38.639C102.711 38.639 102.425 38.639 102.132 38.639C101.981 38.4375 101.967 38.207 101.976 37.9726C101.997 37.4099 101.907 37.1713 101.171 37.1828C101.015 37.1852 100.859 37.1882 100.704 37.1937C100.684 37.1944 100.611 37.1975 100.611 37.1975C100.611 37.6417 100.611 38.146 100.611 38.6304C100.296 38.6303 100.015 38.6303 99.7188 38.6303ZM100.6 36.4515C100.976 36.4515 101.233 36.4694 101.596 36.4507C101.892 36.4507 102.025 36.2615 102.05 36.0515C102.05 36.0495 102.051 36.0475 102.051 36.0455C102.081 35.7746 101.884 35.5312 101.615 35.4885C101.28 35.4354 100.581 35.4988 100.581 35.4988C100.581 35.7763 100.598 36.2074 100.6 36.4515C100.6 36.5051 100.592 36.3718 100.6 36.4515Z" fill="#2C5FA7"/>
<path d="M112.574 37.4084C112.699 37.8662 113.183 38.0897 113.676 37.9913C113.883 37.94 114.059 37.8254 114.081 37.626C114.101 37.4408 114.01 37.2653 113.797 37.1897C113.475 37.0754 113.14 36.9973 112.812 36.8995C112.447 36.7908 112.094 36.672 111.918 36.2803C111.646 35.6798 111.855 34.9789 112.509 34.746C113.011 34.5672 113.535 34.567 114.051 34.7066C114.495 34.8267 114.854 35.2474 114.869 35.7476H114.048C113.824 35.338 113.451 35.3396 113.092 35.3531C113.081 35.3536 113.07 35.3541 113.059 35.3547C112.605 35.3809 112.528 36.02 112.965 36.1484C112.988 36.1553 113.012 36.1618 113.036 36.1682C113.314 36.2428 113.797 36.3042 114.077 36.3732C114.653 36.5152 114.958 36.8134 114.991 37.328C115.032 37.9659 114.7 38.3676 114.301 38.5695C113.628 38.8283 112.936 38.8386 112.278 38.4772C111.869 38.2522 111.713 37.8809 111.686 37.4084C111.983 37.4084 112.267 37.4084 112.574 37.4084Z" fill="#2C5FA7"/>
<path d="M137.58 37.4162C137.705 37.8741 138.189 38.0975 138.681 37.9991C138.889 37.9479 139.065 37.8332 139.087 37.6338C139.107 37.4486 139.016 37.2731 138.803 37.1975C138.481 37.0832 138.146 37.0051 137.818 36.9073C137.453 36.7986 137.1 36.6798 136.923 36.2882C136.652 35.6876 136.86 34.9867 137.515 34.7538C138.017 34.575 138.541 34.5749 139.057 34.7144C139.501 34.8345 139.86 35.2552 139.874 35.7554H139.054C138.83 35.3458 138.457 35.3474 138.098 35.3609C138.087 35.3614 138.076 35.3619 138.065 35.3625C137.611 35.3887 137.534 36.0278 137.971 36.1562C137.994 36.1631 138.018 36.1697 138.042 36.176C138.32 36.2506 138.803 36.312 139.083 36.381C139.659 36.523 139.964 36.8212 139.997 37.3358C140.038 37.9738 139.706 38.3754 139.307 38.5773C138.634 38.8361 137.942 38.8465 137.284 38.485C136.874 38.26 136.719 37.8887 136.691 37.4163C136.989 37.4162 137.273 37.4162 137.58 37.4162Z" fill="#2C5FA7"/>
</svg>
