<svg width="18" height="18" viewBox="0 0 18 18" fill="none" xmlns="http://www.w3.org/2000/svg">
<path fill-rule="evenodd" clip-rule="evenodd" d="M10.6668 1C10.6668 0.447715 11.1145 0 11.6668 0H17.0002C17.5525 0 18.0002 0.447715 18.0002 1V6.33341C18.0002 6.8857 17.5525 7.33341 17.0002 7.33341C16.4479 7.33341 16.0002 6.8857 16.0002 6.33341V3.41421L7.9294 11.485C7.53888 11.8756 6.90571 11.8756 6.51519 11.485C6.12466 11.0945 6.12466 10.4613 6.51519 10.0708L14.586 2H11.6668C11.1145 2 10.6668 1.55228 10.6668 1Z" fill="#1A66AE"/>
<path fill-rule="evenodd" clip-rule="evenodd" d="M0 3.6667C0 3.11441 0.447715 2.6667 1 2.6667H8.11122C8.6635 2.6667 9.11122 3.11441 9.11122 3.6667C9.11122 4.21898 8.6635 4.6667 8.11122 4.6667H2V15.2224L2.00171 16.0002H13.3335V9.88902C13.3335 9.33673 13.7813 8.88902 14.3335 8.88902C14.8858 8.88902 15.3335 9.33673 15.3335 9.88902V16.9995C15.3335 17.5518 14.8858 18.0002 14.3335 18.0002H1.00391C0.452479 18.0002 0.00512034 17.5539 0.00390869 17.0024L2.38419e-06 15.2246L0 15.2224V3.6667Z" fill="#1A66AE"/>
</svg>
