<svg width="74" height="68" viewBox="0 0 74 68" fill="none" xmlns="http://www.w3.org/2000/svg">
<path d="M7 3C7 1.34315 8.34315 0 10 0H58C59.6569 0 61 1.34315 61 3V51C61 52.6569 59.6569 54 58 54H10C8.34315 54 7 52.6569 7 51V3Z" fill="#2A4455"/>
<mask id="mask0_1401_123553" style="mask-type:alpha" maskUnits="userSpaceOnUse" x="19" y="12" width="30" height="30">
<path d="M19 27C19 18.7157 25.7157 12 34 12C42.2843 12 49 18.7157 49 27C49 35.2843 42.2843 42 34 42C25.7157 42 19 35.2843 19 27Z" fill="#D9D9D9"/>
</mask>
<g mask="url(#mask0_1401_123553)">
<path d="M11 39C11 31.268 14.134 25 18 25C21.866 25 25 31.268 25 39C25 46.732 21.866 53 18 53C14.134 53 11 46.732 11 39Z" fill="white"/>
<path fill-rule="evenodd" clip-rule="evenodd" d="M13.9447 29.5477C12.761 31.9151 12 35.2556 12 39C12 42.7444 12.761 46.0849 13.9447 48.4523C15.1583 50.8795 16.6498 52 18 52C19.3502 52 20.8417 50.8795 22.0553 48.4523C23.239 46.0849 24 42.7444 24 39C24 35.2556 23.239 31.9151 22.0553 29.5477C20.8417 27.1205 19.3502 26 18 26C16.6498 26 15.1583 27.1205 13.9447 29.5477ZM18 25C14.134 25 11 31.268 11 39C11 46.732 14.134 53 18 53C21.866 53 25 46.732 25 39C25 31.268 21.866 25 18 25Z" fill="#2A4455"/>
<path d="M15 14C15 6.26801 18.134 -9.49935e-07 22 -6.11959e-07C25.866 -2.73984e-07 29 6.26801 29 14C29 21.732 25.866 28 22 28C18.134 28 15 21.732 15 14Z" fill="white"/>
<path fill-rule="evenodd" clip-rule="evenodd" d="M17.9447 4.54772C16.761 6.9151 16 10.2556 16 14C16 17.7444 16.761 21.0849 17.9447 23.4523C19.1583 25.8795 20.6498 27 22 27C23.3502 27 24.8417 25.8795 26.0553 23.4523C27.239 21.0849 28 17.7444 28 14C28 10.2556 27.239 6.9151 26.0553 4.54772C24.8417 2.12052 23.3502 1 22 0.999999C20.6498 0.999999 19.1583 2.12052 17.9447 4.54772ZM22 -6.11959e-07C18.134 -9.49935e-07 15 6.26801 15 14C15 21.732 18.134 28 22 28C25.866 28 29 21.732 29 14C29 6.26801 25.866 -2.73984e-07 22 -6.11959e-07Z" fill="#2A4455"/>
<path d="M18 39C18 31.268 21.134 25 25 25C28.866 25 32 31.268 32 39C32 46.732 28.866 53 25 53C21.134 53 18 46.732 18 39Z" fill="white"/>
<path fill-rule="evenodd" clip-rule="evenodd" d="M20.9447 29.5477C19.761 31.9151 19 35.2556 19 39C19 42.7444 19.761 46.0849 20.9447 48.4523C22.1583 50.8795 23.6498 52 25 52C26.3502 52 27.8417 50.8795 29.0553 48.4523C30.239 46.0849 31 42.7444 31 39C31 35.2556 30.239 31.9151 29.0553 29.5477C27.8417 27.1205 26.3502 26 25 26C23.6498 26 22.1583 27.1205 20.9447 29.5477ZM25 25C21.134 25 18 31.268 18 39C18 46.732 21.134 53 25 53C28.866 53 32 46.732 32 39C32 31.268 28.866 25 25 25Z" fill="#2A4455"/>
<path d="M22 14C22 6.26801 25.134 -9.49935e-07 29 -6.11959e-07C32.866 -2.73984e-07 36 6.26801 36 14C36 21.732 32.866 28 29 28C25.134 28 22 21.732 22 14Z" fill="white"/>
<path fill-rule="evenodd" clip-rule="evenodd" d="M24.9447 4.54772C23.761 6.9151 23 10.2556 23 14C23 17.7444 23.761 21.0849 24.9447 23.4523C26.1583 25.8795 27.6498 27 29 27C30.3502 27 31.8417 25.8795 33.0553 23.4523C34.239 21.0849 35 17.7444 35 14C35 10.2556 34.239 6.9151 33.0553 4.54772C31.8417 2.12052 30.3502 1 29 0.999999C27.6498 0.999999 26.1583 2.12052 24.9447 4.54772ZM29 -6.11959e-07C25.134 -9.49935e-07 22 6.26801 22 14C22 21.732 25.134 28 29 28C32.866 28 36 21.732 36 14C36 6.26801 32.866 -2.73984e-07 29 -6.11959e-07Z" fill="#2A4455"/>
<path d="M25 39C25 31.268 28.134 25 32 25C35.866 25 39 31.268 39 39C39 46.732 35.866 53 32 53C28.134 53 25 46.732 25 39Z" fill="white"/>
<path fill-rule="evenodd" clip-rule="evenodd" d="M27.9447 29.5477C26.761 31.9151 26 35.2556 26 39C26 42.7444 26.761 46.0849 27.9447 48.4523C29.1583 50.8795 30.6498 52 32 52C33.3502 52 34.8417 50.8795 36.0553 48.4523C37.239 46.0849 38 42.7444 38 39C38 35.2556 37.239 31.9151 36.0553 29.5477C34.8417 27.1205 33.3502 26 32 26C30.6498 26 29.1583 27.1205 27.9447 29.5477ZM32 25C28.134 25 25 31.268 25 39C25 46.732 28.134 53 32 53C35.866 53 39 46.732 39 39C39 31.268 35.866 25 32 25Z" fill="#2A4455"/>
<path d="M29 14C29 6.26801 32.134 -9.49935e-07 36 -6.11959e-07C39.866 -2.73984e-07 43 6.26801 43 14C43 21.732 39.866 28 36 28C32.134 28 29 21.732 29 14Z" fill="white"/>
<path fill-rule="evenodd" clip-rule="evenodd" d="M31.9447 4.54772C30.761 6.9151 30 10.2556 30 14C30 17.7444 30.761 21.0849 31.9447 23.4523C33.1583 25.8795 34.6498 27 36 27C37.3502 27 38.8417 25.8795 40.0553 23.4523C41.239 21.0849 42 17.7444 42 14C42 10.2556 41.239 6.9151 40.0553 4.54772C38.8417 2.12052 37.3502 1 36 0.999999C34.6498 0.999999 33.1583 2.12052 31.9447 4.54772ZM36 -6.11959e-07C32.134 -9.49935e-07 29 6.26801 29 14C29 21.732 32.134 28 36 28C39.866 28 43 21.732 43 14C43 6.26801 39.866 -2.73984e-07 36 -6.11959e-07Z" fill="#2A4455"/>
<path d="M32 39C32 31.268 35.134 25 39 25C42.866 25 46 31.268 46 39C46 46.732 42.866 53 39 53C35.134 53 32 46.732 32 39Z" fill="white"/>
<path fill-rule="evenodd" clip-rule="evenodd" d="M34.9447 29.5477C33.761 31.9151 33 35.2556 33 39C33 42.7444 33.761 46.0849 34.9447 48.4523C36.1583 50.8795 37.6498 52 39 52C40.3502 52 41.8417 50.8795 43.0553 48.4523C44.239 46.0849 45 42.7444 45 39C45 35.2556 44.239 31.9151 43.0553 29.5477C41.8417 27.1205 40.3502 26 39 26C37.6498 26 36.1583 27.1205 34.9447 29.5477ZM39 25C35.134 25 32 31.268 32 39C32 46.732 35.134 53 39 53C42.866 53 46 46.732 46 39C46 31.268 42.866 25 39 25Z" fill="#2A4455"/>
<path d="M36 14C36 6.26801 39.134 -9.49935e-07 43 -6.11959e-07C46.866 -2.73984e-07 50 6.26801 50 14C50 21.732 46.866 28 43 28C39.134 28 36 21.732 36 14Z" fill="white"/>
<path fill-rule="evenodd" clip-rule="evenodd" d="M38.9447 4.54772C37.761 6.9151 37 10.2556 37 14C37 17.7444 37.761 21.0849 38.9447 23.4523C40.1583 25.8795 41.6498 27 43 27C44.3502 27 45.8417 25.8795 47.0553 23.4523C48.239 21.0849 49 17.7444 49 14C49 10.2556 48.239 6.9151 47.0553 4.54772C45.8417 2.12052 44.3502 1 43 0.999999C41.6498 0.999999 40.1583 2.12052 38.9447 4.54772ZM43 -6.11959e-07C39.134 -9.49935e-07 36 6.26801 36 14C36 21.732 39.134 28 43 28C46.866 28 50 21.732 50 14C50 6.26801 46.866 -2.73984e-07 43 -6.11959e-07Z" fill="#2A4455"/>
<path d="M39 39C39 31.268 42.134 25 46 25C49.866 25 53 31.268 53 39C53 46.732 49.866 53 46 53C42.134 53 39 46.732 39 39Z" fill="white"/>
<path fill-rule="evenodd" clip-rule="evenodd" d="M41.9447 29.5477C40.761 31.9151 40 35.2556 40 39C40 42.7444 40.761 46.0849 41.9447 48.4523C43.1583 50.8795 44.6498 52 46 52C47.3502 52 48.8417 50.8795 50.0553 48.4523C51.239 46.0849 52 42.7444 52 39C52 35.2556 51.239 31.9151 50.0553 29.5477C48.8417 27.1205 47.3502 26 46 26C44.6498 26 43.1583 27.1205 41.9447 29.5477ZM46 25C42.134 25 39 31.268 39 39C39 46.732 42.134 53 46 53C49.866 53 53 46.732 53 39C53 31.268 49.866 25 46 25Z" fill="#2A4455"/>
<path d="M43 14C43 6.26801 46.134 -9.49935e-07 50 -6.11959e-07C53.866 -2.73984e-07 57 6.26801 57 14C57 21.732 53.866 28 50 28C46.134 28 43 21.732 43 14Z" fill="white"/>
<path fill-rule="evenodd" clip-rule="evenodd" d="M45.9447 4.54772C44.761 6.9151 44 10.2556 44 14C44 17.7444 44.761 21.0849 45.9447 23.4523C47.1583 25.8795 48.6498 27 50 27C51.3502 27 52.8417 25.8795 54.0553 23.4523C55.239 21.0849 56 17.7444 56 14C56 10.2556 55.239 6.9151 54.0553 4.54772C52.8417 2.12052 51.3502 1 50 0.999999C48.6498 0.999999 47.1583 2.12052 45.9447 4.54772ZM50 -6.11959e-07C46.134 -9.49935e-07 43 6.26801 43 14C43 21.732 46.134 28 50 28C53.866 28 57 21.732 57 14C57 6.26801 53.866 -2.73984e-07 50 -6.11959e-07Z" fill="#2A4455"/>
<path fill-rule="evenodd" clip-rule="evenodd" d="M34 13C26.268 13 20 19.268 20 27C20 34.732 26.268 41 34 41C41.732 41 48 34.732 48 27C48 19.268 41.732 13 34 13ZM34 12C25.7157 12 19 18.7157 19 27C19 35.2843 25.7157 42 34 42C42.2843 42 49 35.2843 49 27C49 18.7157 42.2843 12 34 12Z" fill="#92A7B3"/>
</g>
<path d="M3 15C3 13.3431 4.34315 12 6 12H7V43H6C4.34315 43 3 41.6569 3 40V15Z" fill="#D3D3D3"/>
<path d="M0 15H3V19H0V15Z" fill="#92A7B3"/>
<path d="M65 16H68V20H65V16Z" fill="#92A7B3"/>
<path d="M65 36H68V40H65V36Z" fill="#92A7B3"/>
<path d="M0 36H3V40H0V36Z" fill="#92A7B3"/>
<path d="M65 38C65 39.6569 63.6569 41 62 41L61 41L61 13L62 13C63.6569 13 65 14.3431 65 16L65 38Z" fill="#D3D3D3"/>
<mask id="mask1_1401_123553" style="mask-type:alpha" maskUnits="userSpaceOnUse" x="41" y="35" width="33" height="33">
<path d="M74 51.5C74 60.6127 66.6127 68 57.5 68C48.3873 68 41 60.6127 41 51.5C41 42.3873 48.3873 35 57.5 35C66.6127 35 74 42.3873 74 51.5Z" fill="#F5F5F5"/>
</mask>
<g mask="url(#mask1_1401_123553)">
<path fill-rule="evenodd" clip-rule="evenodd" d="M61 67.628C68.4315 66.0229 74 59.4117 74 51.5C74 42.3873 66.6127 35 57.5 35C48.3873 35 41 42.3873 41 51.5C41 59.4117 46.5685 66.0229 54 67.628V56.2618C51.0515 54.9517 49 52.0375 49 48.6527C49 45.2298 51.098 42.2881 54.1 41V47.3985C54.1 47.6668 54.2079 47.9239 54.3993 48.1119L56.7993 50.4688C57.1883 50.8508 57.8117 50.8508 58.2007 50.4688L60.6007 48.1119C60.7921 47.9239 60.9 47.6668 60.9 47.3985V41C63.902 42.2881 66 45.2298 66 48.6527C66 52.0375 63.9485 54.9517 61 56.2618V67.628Z" fill="white"/>
<path fill-rule="evenodd" clip-rule="evenodd" d="M57.5 67C66.0604 67 73 60.0604 73 51.5C73 42.9396 66.0604 36 57.5 36C48.9396 36 42 42.9396 42 51.5C42 60.0604 48.9396 67 57.5 67ZM57.5 68C66.6127 68 74 60.6127 74 51.5C74 42.3873 66.6127 35 57.5 35C48.3873 35 41 42.3873 41 51.5C41 60.6127 48.3873 68 57.5 68Z" fill="#92A7B3"/>
<path fill-rule="evenodd" clip-rule="evenodd" d="M61 56.2618C63.9485 54.9517 66 52.0375 66 48.6527C66 45.2298 63.902 42.2881 60.9 41V47.3985C60.9 47.6668 60.7921 47.9239 60.6007 48.1119L58.2007 50.4688C57.8117 50.8508 57.1883 50.8508 56.7993 50.4688L54.3993 48.1119C54.2079 47.9239 54.1 47.6668 54.1 47.3985V41C51.098 42.2881 49 45.2298 49 48.6527C49 52.0375 51.0515 54.9517 54 56.2618V68H61V56.2618Z" fill="#2A4455"/>
</g>
</svg>
