<svg width="72" height="60" viewBox="0 0 72 60" fill="none" xmlns="http://www.w3.org/2000/svg">
<path d="M31 12C31 16.4183 27.4183 20 23 20C18.5817 20 15 16.4183 15 12C15 7.58172 18.5817 4 23 4C27.4183 4 31 7.58172 31 12Z" fill="#2A4455"/>
<path fill-rule="evenodd" clip-rule="evenodd" d="M64 20H6C3.23858 20 1 27.6112 1 37C1 46.3888 3.23858 54 6 54H64C66.7614 54 69 46.3888 69 37C69 27.6112 66.7614 20 64 20Z" fill="#2A4455"/>
<path d="M8 20H59V39C59 40.6569 57.6569 42 56 42H11C9.34315 42 8 40.6569 8 39V20Z" fill="#92A7B3"/>
<path fill-rule="evenodd" clip-rule="evenodd" d="M25.9565 5.56092C23.9776 6.01209 22.6325 6.34319 22.316 6.44868L21.6836 4.55132C22.1171 4.40681 23.5845 4.05041 25.5119 3.61096C27.4715 3.16416 29.978 2.61589 32.5468 2.08332C35.1147 1.55097 37.7513 1.03297 39.9693 0.647575C42.1518 0.268336 44.0222 0 44.9998 0V2C44.2274 2 42.5353 2.23166 40.3116 2.61805C38.1234 2.99828 35.51 3.51153 32.9528 4.04168C30.3967 4.57161 27.9031 5.11709 25.9565 5.56092Z" fill="#2A4455"/>
<path fill-rule="evenodd" clip-rule="evenodd" d="M45 18C49.4183 18 53 14.4183 53 10C53 5.58172 49.4183 2 45 2C40.5817 2 37 5.58172 37 10C37 14.4183 40.5817 18 45 18ZM45 20C50.5228 20 55 15.5228 55 10C55 4.47715 50.5228 0 45 0C39.4772 0 35 4.47715 35 10C35 15.5228 39.4772 20 45 20Z" fill="#92A7B3"/>
<path d="M0 36C0 35.4477 0.447715 35 1 35C1.55228 35 2 35.4477 2 36V38C2 38.5523 1.55228 39 1 39C0.447715 39 0 38.5523 0 38V36Z" fill="#2A4455"/>
<path d="M15 18C15 17.4477 15.4477 17 16 17H54C54.5523 17 55 17.4477 55 18V22C55 22.5523 54.5523 23 54 23H16C15.4477 23 15 22.5523 15 22V18Z" fill="#2A4455"/>
<path d="M12.1088 50.0797C12.2758 48.8872 13.2959 48 14.5 48Lnan nanL14.5 48C15.7041 48 16.7242 48.8872 16.8912 50.0797L18 58H11L12.1088 50.0797Z" fill="#92A7B3"/>
<path d="M10 59C10 58.4477 10.4477 58 11 58H18C18.5523 58 19 58.4477 19 59C19 59.5523 18.5523 60 18 60H11C10.4477 60 10 59.5523 10 59Z" fill="#2A4455"/>
<mask id="mask0_1401_123668" style="mask-type:alpha" maskUnits="userSpaceOnUse" x="39" y="27" width="33" height="33">
<path d="M72 43.5C72 52.6127 64.6127 60 55.5 60C46.3873 60 39 52.6127 39 43.5C39 34.3873 46.3873 27 55.5 27C64.6127 27 72 34.3873 72 43.5Z" fill="#F5F5F5"/>
</mask>
<g mask="url(#mask0_1401_123668)">
<path fill-rule="evenodd" clip-rule="evenodd" d="M59 59.628C66.4315 58.0229 72 51.4117 72 43.5C72 34.3873 64.6127 27 55.5 27C46.3873 27 39 34.3873 39 43.5C39 51.4117 44.5685 58.0229 52 59.628V48.2618C49.0515 46.9517 47 44.0375 47 40.6527C47 37.2298 49.098 34.2881 52.1 33V39.3985C52.1 39.6668 52.2079 39.9239 52.3993 40.1119L54.7993 42.4688C55.1883 42.8508 55.8117 42.8508 56.2007 42.4688L58.6007 40.1119C58.7921 39.9239 58.9 39.6668 58.9 39.3985V33C61.902 34.2881 64 37.2298 64 40.6527C64 44.0375 61.9485 46.9517 59 48.2618V59.628Z" fill="white"/>
<path fill-rule="evenodd" clip-rule="evenodd" d="M55.5 59C64.0604 59 71 52.0604 71 43.5C71 34.9396 64.0604 28 55.5 28C46.9396 28 40 34.9396 40 43.5C40 52.0604 46.9396 59 55.5 59ZM55.5 60C64.6127 60 72 52.6127 72 43.5C72 34.3873 64.6127 27 55.5 27C46.3873 27 39 34.3873 39 43.5C39 52.6127 46.3873 60 55.5 60Z" fill="#D3D3D3"/>
<path fill-rule="evenodd" clip-rule="evenodd" d="M59 48.2618C61.9485 46.9517 64 44.0375 64 40.6527C64 37.2298 61.902 34.2881 58.9 33V39.3985C58.9 39.6668 58.7921 39.9239 58.6007 40.1119L56.2007 42.4688C55.8117 42.8508 55.1883 42.8508 54.7993 42.4688L52.3993 40.1119C52.2079 39.9239 52.1 39.6668 52.1 39.3985V33C49.098 34.2881 47 37.2298 47 40.6527C47 44.0375 49.0515 46.9517 52 48.2618V60H59V48.2618Z" fill="#2A4455"/>
</g>
<path fill-rule="evenodd" clip-rule="evenodd" d="M23 18C26.3137 18 29 15.3137 29 12C29 8.68629 26.3137 6 23 6C19.6863 6 17 8.68629 17 12C17 15.3137 19.6863 18 23 18ZM23 20C27.4183 20 31 16.4183 31 12C31 7.58172 27.4183 4 23 4C18.5817 4 15 7.58172 15 12C15 16.4183 18.5817 20 23 20Z" fill="#92A7B3"/>
</svg>
