<svg width="24" height="24" viewBox="0 0 24 24" fill="none" xmlns="http://www.w3.org/2000/svg">
<path d="M22 4L12 14.01L9 11.01" stroke="#2A4455" stroke-width="2" stroke-linecap="round" stroke-linejoin="round"/>
<path fill-rule="evenodd" clip-rule="evenodd" d="M12 23C18.0751 23 23 18.0751 23 12C23 10.2074 22.5712 8.51486 21.8105 7.0195L13.4149 15.4235C13.0399 15.7989 12.5311 16.0099 12.0005 16.01C11.4699 16.0101 10.961 15.7994 10.5858 15.4242L7.58579 12.4242C6.80474 11.6432 6.80474 10.3768 7.58579 9.59579C8.36684 8.81474 9.63317 8.81474 10.4142 9.59579L11.9993 11.1809L19.3536 3.81916C17.4051 2.06652 14.8271 1 12 1C5.92487 1 1 5.92487 1 12C1 18.0751 5.92487 23 12 23Z" fill="#2A4455"/>
</svg>
