<svg width="130" height="32" viewBox="0 0 130 32" fill="none" xmlns="http://www.w3.org/2000/svg">
<path d="M103.834 0.749093C103.832 0.741219 103.83 0.733606 103.828 0.725732L103.466 0.0425547C103.441 -0.0051422 103.368 0.0046145 103.357 0.0572084L103.222 0.694125C103.212 0.742202 103.149 0.756074 103.119 0.716816L102.714 0.190498C102.681 0.14711 102.61 0.169451 102.609 0.223705L102.597 0.882732C102.596 0.931367 102.537 0.956641 102.5 0.924431L101.979 0.474573C101.938 0.439126 101.874 0.473487 101.883 0.526341L101.99 1.18395C101.998 1.23251 101.944 1.2675 101.902 1.24112L101.324 0.882338C101.278 0.853499 101.22 0.897714 101.238 0.948663L101.488 1.67593C101.493 1.68295 101.496 1.68971 101.501 1.69672L103.182 3.45309C103.198 3.46913 103.223 3.47006 103.24 3.45583C103.426 3.30146 103.66 3.2023 103.918 3.18349C103.941 3.18182 103.958 3.16319 103.957 3.14088L103.834 0.749093Z" fill="#49559F"/>
<path d="M101.294 1.91588C101.287 1.91181 101.28 1.90788 101.273 1.90382L100.523 1.67081C100.471 1.65454 100.426 1.71158 100.457 1.75647L100.822 2.30011C100.849 2.34115 100.814 2.3948 100.765 2.38789L100.098 2.29525C100.043 2.28761 100.01 2.35223 100.048 2.3913L100.516 2.8658C100.551 2.90082 100.527 2.95932 100.478 2.96231L99.784 3.00424C99.7293 3.00755 99.709 3.07599 99.7534 3.10737L100.305 3.49781C100.346 3.52663 100.333 3.58899 100.284 3.59969L99.616 3.74515C99.5623 3.75684 99.5535 3.828 99.6027 3.85191L100.306 4.19309C100.314 4.19508 100.322 4.19701 100.33 4.199L102.79 4.27832C102.812 4.27905 102.83 4.26222 102.832 4.24035C102.852 4.00279 102.946 3.7706 103.114 3.57935C103.129 3.56243 103.128 3.53716 103.111 3.52218L101.294 1.91588Z" fill="#49559F"/>
<path d="M100.332 4.4952C100.324 4.49733 100.317 4.49938 100.308 4.50151L99.6097 4.85516C99.5609 4.87985 99.5709 4.95077 99.6246 4.96166L100.276 5.09355C100.325 5.10351 100.339 5.16552 100.299 5.19501L99.761 5.59031C99.7166 5.6229 99.7395 5.69195 99.795 5.69294L100.469 5.70497C100.519 5.70585 100.545 5.76331 100.512 5.79976L100.052 6.30892C100.015 6.34903 100.051 6.41147 100.105 6.40299L100.777 6.29755C100.827 6.28976 100.863 6.34296 100.836 6.38445L100.469 6.94895C100.439 6.99433 100.484 7.05075 100.537 7.0336L101.28 6.78883C101.287 6.78464 101.295 6.78059 101.302 6.7764L103.098 5.1322C103.115 5.11719 103.116 5.0924 103.101 5.07567C102.943 4.89411 102.842 4.66495 102.823 4.41331C102.821 4.39105 102.802 4.37394 102.779 4.37505L100.332 4.4952Z" fill="#49559F"/>
<path d="M101.535 6.98087C101.531 6.98794 101.527 6.99478 101.523 7.00185L101.284 7.735C101.268 7.78619 101.326 7.82943 101.372 7.79995L101.928 7.44283C101.97 7.41588 102.025 7.44992 102.018 7.49853L101.923 8.15021C101.915 8.20394 101.981 8.23696 102.021 8.1993L102.507 7.74181C102.542 7.70805 102.602 7.7308 102.605 7.77935L102.648 8.45747C102.651 8.5109 102.721 8.53075 102.754 8.48739L103.153 7.94782C103.182 7.90798 103.246 7.92086 103.257 7.96885L103.406 8.62171C103.418 8.67419 103.491 8.68283 103.515 8.63467L103.864 7.94733C103.866 7.93941 103.868 7.93177 103.87 7.92385L103.951 5.51922C103.952 5.49729 103.935 5.47915 103.913 5.47738C103.67 5.45817 103.432 5.36625 103.236 5.2016C103.219 5.18703 103.193 5.18811 103.178 5.20467L101.535 6.98087Z" fill="#49559F"/>
<path d="M104.17 7.91598C104.172 7.92386 104.175 7.93146 104.176 7.93935L104.538 8.62253C104.563 8.67023 104.636 8.66047 104.647 8.60788L104.782 7.97095C104.792 7.92288 104.855 7.909 104.886 7.94826L105.29 8.47457C105.323 8.51796 105.394 8.49562 105.395 8.44137L105.407 7.78234C105.408 7.7337 105.467 7.70843 105.504 7.74064L106.025 8.1905C106.066 8.22594 106.13 8.19161 106.121 8.13873L106.013 7.48112C106.005 7.43256 106.06 7.39757 106.102 7.42395L106.68 7.78273C106.726 7.81157 106.784 7.76736 106.766 7.71641L106.516 6.98914C106.511 6.98212 106.508 6.97536 106.503 6.96835L104.821 5.21198C104.806 5.19594 104.781 5.19501 104.764 5.20924C104.578 5.36361 104.343 5.46277 104.086 5.48158C104.063 5.48325 104.046 5.50188 104.047 5.52419L104.17 7.91598Z" fill="#49559F"/>
<path d="M106.705 6.75309C106.713 6.75716 106.72 6.76109 106.727 6.76515L107.477 6.99816C107.529 7.01443 107.573 6.95739 107.543 6.91249L107.178 6.36886C107.15 6.32782 107.186 6.27417 107.235 6.28108L107.901 6.37372C107.956 6.38136 107.99 6.31674 107.952 6.27767L107.484 5.80317C107.449 5.76815 107.473 5.70965 107.522 5.70666L108.216 5.66473C108.27 5.66142 108.291 5.59298 108.246 5.5616L107.695 5.17116C107.654 5.14234 107.667 5.07998 107.716 5.06928L108.384 4.92382C108.438 4.91213 108.446 4.84097 108.397 4.81706L107.694 4.47588C107.686 4.47389 107.678 4.47196 107.67 4.46997L105.21 4.39065C105.188 4.38993 105.169 4.40675 105.168 4.42862C105.148 4.66618 105.054 4.89837 104.885 5.08962C104.871 5.10654 104.872 5.13181 104.888 5.1468L106.705 6.75309Z" fill="#49559F"/>
<path d="M107.67 4.17046C107.678 4.16834 107.685 4.16628 107.693 4.16415L108.392 3.8105C108.441 3.78581 108.431 3.71489 108.377 3.704L107.726 3.57211C107.677 3.56215 107.663 3.50014 107.703 3.47065L108.241 3.07535C108.285 3.04276 108.263 2.97371 108.207 2.97272L107.533 2.96069C107.483 2.9598 107.457 2.90235 107.49 2.86589L107.95 2.35674C107.987 2.31662 107.951 2.25418 107.897 2.26266L107.225 2.36811C107.175 2.37589 107.139 2.3227 107.166 2.2812L107.533 1.7167C107.563 1.67133 107.518 1.6149 107.465 1.63206L106.722 1.87683C106.715 1.88102 106.707 1.88506 106.7 1.88925L104.904 3.53345C104.887 3.54846 104.886 3.57325 104.901 3.58999C105.059 3.77155 105.16 4.00071 105.179 4.25234C105.181 4.27461 105.2 4.29172 105.223 4.2906L107.67 4.17046Z" fill="#49559F"/>
<path d="M106.479 1.68549C106.483 1.67841 106.487 1.67158 106.491 1.66451L106.73 0.931354C106.746 0.880167 106.688 0.836921 106.642 0.866407L106.086 1.22352C106.044 1.25048 105.989 1.21643 105.996 1.16782L106.091 0.51614C106.099 0.462415 106.033 0.429394 105.993 0.467052L105.507 0.924545C105.472 0.958303 105.412 0.935552 105.409 0.887007L105.366 0.208882C105.363 0.155455 105.292 0.135599 105.26 0.178965L104.861 0.718538C104.831 0.758376 104.768 0.745501 104.757 0.697506L104.608 0.0446484C104.596 -0.00782641 104.523 -0.0164668 104.499 0.0316916L104.15 0.719029C104.147 0.726948 104.146 0.734591 104.144 0.742509L104.063 3.14714C104.062 3.16907 104.079 3.18721 104.101 3.18898C104.344 3.20819 104.582 3.30011 104.777 3.46476C104.795 3.47933 104.821 3.47826 104.836 3.46169L106.479 1.68549Z" fill="#49559F"/>
<path d="M104.004 5.34738C104.576 5.34738 105.039 4.89361 105.039 4.33385C105.039 3.77409 104.576 3.32031 104.004 3.32031C103.432 3.32031 102.969 3.77409 102.969 4.33385C102.969 4.89361 103.432 5.34738 104.004 5.34738Z" fill="#49559F"/>
<path d="M22.2019 24.8949C22.2019 28.7603 19.1182 31.6889 12.9099 31.6889H0V5.83984H12.2107C18.6249 5.83984 20.804 9.54942 20.804 12.673C20.804 15.992 19.0772 17.671 17.1446 18.491C19.4471 19.1939 22.2019 21.0291 22.2019 24.8949ZM3.08312 17.3979H12.2107C15.048 17.3979 17.7203 16.0703 17.7203 12.9073C17.7203 10.7598 16.2815 8.61223 12.5401 8.61223H3.08312V17.3979ZM19.1182 24.6604C19.1182 22.2394 17.227 20.053 12.9099 20.053H3.08312V28.9165H13.2387C16.9801 28.9165 19.1182 27.3547 19.1182 24.6604Z" fill="#49559F"/>
<path d="M41.6862 26.0647H45.0577C43.6189 29.5787 40.5762 31.9997 35.6832 31.9997C29.393 31.9997 25.2812 27.5093 25.2812 21.9256C25.2812 16.3419 29.1871 11.8516 35.4778 11.8516C41.7686 11.8516 45.6744 16.3419 45.6744 21.9256V23.097H28.4469C28.8992 26.5721 31.572 29.3445 35.7242 29.3445C38.6025 29.3445 40.5761 28.0169 41.6862 26.0647ZM28.4884 20.3638H42.4673C41.8916 17.0449 39.4246 14.5067 35.4778 14.5067C31.5305 14.5067 29.0636 17.0449 28.4884 20.3638Z" fill="#49559F"/>
<path d="M52.5368 31.6882H49.4531V4.35547H52.5368V31.6882Z" fill="#49559F"/>
<path d="M73.9189 15.3267V12.1639H77.0026V31.6873H73.9189V28.5637C72.3976 30.6721 69.9716 31.9997 66.5591 31.9997C60.5567 31.9997 56.6094 27.5093 56.6094 21.9256C56.6094 16.3419 60.5567 11.8516 66.5591 11.8516C69.9716 11.8516 72.3976 13.2183 73.9189 15.3267ZM74.0833 21.9256C74.0833 17.9037 71.5339 14.5067 66.9704 14.5067C62.4064 14.5067 59.6931 17.9037 59.6931 21.9256C59.6931 25.9475 62.4064 29.3445 66.9704 29.3445C71.5339 29.3445 74.0833 25.9475 74.0833 21.9256Z" fill="#49559F"/>
<path d="M99.5773 12.1641L91.5598 31.6875H87.9413L79.8828 12.1641H83.2544L89.7506 28.5639L96.2058 12.1641H99.5773Z" fill="#49559F"/>
<path d="M102.453 12.1641H105.537V31.6875H102.453V12.1641Z" fill="#49559F"/>
<path d="M126.919 15.3267V12.1639H130.003V31.6873H126.919V28.5637C125.398 30.6721 122.972 31.9997 119.559 31.9997C113.557 31.9997 109.609 27.5093 109.609 21.9256C109.609 16.3419 113.557 11.8516 119.559 11.8516C122.972 11.8516 125.398 13.2183 126.919 15.3267ZM127.083 21.9256C127.083 17.9037 124.534 14.5067 119.97 14.5067C115.406 14.5067 112.693 17.9037 112.693 21.9256C112.693 25.9475 115.406 29.3445 119.97 29.3445C124.534 29.3445 127.083 25.9475 127.083 21.9256Z" fill="#49559F"/>
</svg>
