<svg width="130" height="40" viewBox="0 0 130 40" fill="none" xmlns="http://www.w3.org/2000/svg">
<path d="M29.2583 35.4458C29.821 35.4458 30.2948 35.2695 30.6501 34.9462C31.0055 34.6229 31.1831 34.2114 31.1831 33.6824C31.1831 33.1534 31.0055 32.7419 30.6501 32.4186C30.2948 32.0953 29.8506 31.919 29.2583 31.919H25.4087V35.4164H29.2583V35.4458ZM28.6957 25.0417H25.4087V28.2746H28.6957C29.2287 28.2746 29.6433 28.1277 29.969 27.8044C30.2948 27.4811 30.4724 27.1284 30.4724 26.6288C30.4724 26.1585 30.2948 25.7765 29.969 25.4532C29.6433 25.1887 29.2287 25.0417 28.6957 25.0417ZM33.3153 29.8911C34.9736 30.8316 35.8027 32.2129 35.8027 34.0057C35.8027 35.5928 35.1809 36.8566 33.9371 37.8558C32.6934 38.8551 31.1535 39.3547 29.2879 39.3547H20.7891V21.1328H28.6957C30.502 21.1328 32.0123 21.6324 33.256 22.6023C34.4702 23.5722 35.092 24.836 35.092 26.3937C35.0624 27.8044 34.4998 28.98 33.3153 29.8911Z" fill="#6E6259"/>
<path d="M42.229 25.0417V29.7441H45.6937C46.3155 29.7441 46.8782 29.509 47.352 29.0682C47.8258 28.5979 48.0331 28.0689 48.0331 27.4223C48.0331 26.7757 47.7962 26.2173 47.352 25.7765C46.8782 25.3062 46.3451 25.1005 45.6937 25.1005C45.6937 25.0417 42.229 25.0417 42.229 25.0417ZM48.2107 39.3841L44.4203 33.3591H42.229V39.3547H37.6094V21.1328H45.6937C47.6185 21.1328 49.2472 21.7206 50.6094 22.955C51.9716 24.16 52.623 25.6589 52.623 27.3929C52.623 28.5097 52.2677 29.5384 51.5866 30.4789C50.9055 31.4194 49.9875 32.1541 48.8622 32.6831L53.1561 39.3841H48.2107Z" fill="#6E6259"/>
<path d="M60.0242 35.3577H68.0789V39.3841H55.375V21.1328H67.9604V25.1299H60.0242V28.1571H67.2201V32.1247H60.0242V35.3577Z" fill="#6E6259"/>
<path d="M90.9443 21.1328V39.3841H86.3247V28.7449L81.1128 36.5039H80.5798L75.3383 28.7449V39.3841H70.7188V21.1328H75.3383L80.8463 29.2445L86.3247 21.1328H90.9443Z" fill="#6E6259"/>
<path d="M99.0266 34.0332C100.004 35.0031 101.248 35.5027 102.728 35.5027C104.209 35.5027 105.453 35.0031 106.43 34.0332C107.407 33.0634 107.94 31.7996 107.94 30.2419C107.94 28.6842 107.437 27.4498 106.43 26.4506C105.453 25.4807 104.209 24.9811 102.728 24.9811C101.248 24.9811 100.004 25.4807 99.0266 26.4506C98.0494 27.4205 97.5164 28.6842 97.5164 30.2419C97.5164 31.7702 97.9902 33.0634 99.0266 34.0332ZM109.687 37.2074C107.792 39.0883 105.453 39.9994 102.699 39.9994C99.9446 39.9994 97.6348 39.059 95.71 37.2074C93.8148 35.3264 92.8672 33.0046 92.8672 30.2419C92.8672 27.4792 93.8148 25.1868 95.71 23.2764C97.6052 21.3955 99.9446 20.4844 102.699 20.4844C105.453 20.4844 107.762 21.4249 109.687 23.2764C111.582 25.1574 112.53 27.4792 112.53 30.2419C112.53 33.0046 111.582 35.3264 109.687 37.2074Z" fill="#6E6259"/>
<path d="M119.073 25.0397V29.7421H122.537C123.159 29.7421 123.722 29.507 124.196 29.0661C124.67 28.5959 124.877 28.0668 124.877 27.4203C124.877 26.7737 124.64 26.2153 124.196 25.7744C123.722 25.3042 123.189 25.0984 122.537 25.0984C122.537 25.0397 119.073 25.0397 119.073 25.0397ZM125.084 39.3821L121.264 33.3865H119.073V39.3821H114.453V21.1602H122.537C124.462 21.1602 126.091 21.748 127.453 22.9823C128.815 24.1873 129.467 25.6862 129.467 27.4203C129.467 28.5371 129.111 29.5657 128.43 30.5062C127.749 31.4467 126.831 32.1815 125.706 32.7105L130 39.4114L125.084 39.3821Z" fill="#6E6259"/>
<path d="M15.0781 11.7556L19.9346 15.782C20.7934 14.2244 21.3264 12.4903 21.3264 10.6094L15.0781 11.7556Z" fill="#C00D1E"/>
<path d="M7.39874 7.43681L5.2074 1.5C3.57869 2.44049 2.27573 3.79243 1.32812 5.3795L7.39874 7.43681Z" fill="#C00D1E"/>
<path d="M9.4472 6.28949L10.6613 0.0293902L11.8162 6.14254L15.9028 1.38134C14.3333 0.499633 12.5565 0 10.6613 0C8.67727 0 6.81166 0.558413 5.24219 1.4989L9.4472 6.28949Z" fill="#C00D1E"/>
<path d="M14.9531 9.40592L21.2606 10.5815C21.2606 8.61238 20.698 6.7608 19.7504 5.20312L14.9531 9.40592Z" fill="#C00D1E"/>
<path d="M13.8281 7.37841L19.8099 5.20353C18.8623 3.58707 17.5001 2.29391 15.901 1.38281L13.8281 7.37841Z" fill="#C00D1E"/>
<path d="M6.18907 9.43475L1.3918 5.37891C0.473804 6.93659 0 8.6706 0 10.581L6.18907 9.43475Z" fill="#C00D1E"/>
<path d="M13.8906 13.7266L16.082 19.6928C17.7107 18.7523 19.0136 17.4003 19.9316 15.8133L13.8906 13.7266Z" fill="#C00D1E"/>
<path d="M11.8451 14.873L10.6606 21.1037L9.50569 14.9906L5.41913 19.7812L7.46241 13.7856L1.51025 15.9898L6.33713 11.7576L0 10.582C0 16.4307 4.76765 21.1331 10.631 21.1331C12.615 21.1331 14.4806 20.5747 16.0501 19.6342L11.8451 14.873Z" fill="#C00D1E"/>
</svg>
