<svg width="130" height="75" viewBox="0 0 130 75" fill="none" xmlns="http://www.w3.org/2000/svg">
<path fill-rule="evenodd" clip-rule="evenodd" d="M60.1737 18.4474C57.519 28.6463 55.3198 37.0893 55.2865 37.2096L55.226 37.4283L33.5191 37.4452L11.8121 37.4622L5.89719 50.5844C2.64395 57.8016 -0.00977514 63.7143 2.70681e-05 63.7238C0.00982928 63.7332 14.6337 66.2743 32.4975 69.3705L64.9771 75L97.4885 69.365L130 63.73L129.677 63.0176C129.499 62.6258 126.83 56.708 123.745 49.867L118.135 37.4287L96.4363 37.4118L74.7374 37.3949L69.8891 18.7458C67.2225 8.48876 65.0316 0.0532379 65.0205 0.000252882C65.0094 -0.0527994 62.8283 8.24841 60.1737 18.4474ZM67.7688 40.8621C69.1991 46.3609 70.3489 50.8802 70.3239 50.905C70.2989 50.9298 69.0877 51.4683 67.6324 52.1017L64.9863 53.2534L62.3206 52.0685C60.8545 51.4168 59.6445 50.8734 59.6317 50.8608C59.619 50.8483 60.7995 46.253 62.2551 40.6492C63.7107 35.0453 64.9213 30.3998 64.9454 30.3257C64.9787 30.2227 65.0101 30.2702 65.0786 30.5277C65.128 30.7128 66.3385 35.3633 67.7688 40.8621ZM54.6155 39.7554C54.6155 39.7762 53.8264 42.8285 52.862 46.5384C51.8976 50.2483 51.0625 53.4431 51.0061 53.638L50.9036 53.9923L48.6089 53.9746L46.3142 53.9569L43.593 47.9486L40.8718 41.9402L36.6915 41.9566L32.5112 41.973L30.2481 47.0058C29.0034 49.7739 27.9526 52.0888 27.913 52.15C27.8556 52.2387 27.3659 51.2179 25.4986 47.1171L23.1562 41.973L18.9895 41.9556L14.8228 41.9383L10.4193 51.6537C7.99733 56.9972 6.0157 61.3907 6.0157 61.4169C6.0157 61.4432 7.88806 61.4569 10.1765 61.4474L14.3373 61.43L16.4453 56.7845C17.6047 54.2295 18.6477 51.9299 18.763 51.6742C18.8783 51.4185 18.9897 51.2261 19.0106 51.2466C19.0314 51.267 20.0784 53.5667 21.3372 56.3569L23.626 61.43H27.8528H32.0795L34.399 56.3145L36.7185 51.1989L36.9302 51.669C37.0468 51.9276 38.0892 54.2295 39.2468 56.7845L41.3516 61.43L49.0997 61.4471L56.8478 61.4642L57.2657 59.8649C57.5374 58.8249 57.7122 58.2722 57.7654 58.2841C57.8104 58.2943 59.4533 59.0164 61.4162 59.8886L64.9852 61.4746L68.4201 59.9451C70.3093 59.1038 71.9509 58.3756 72.0681 58.3268L72.2813 58.2382L72.6851 59.7893C72.9071 60.6425 73.1061 61.3683 73.1273 61.4022C73.1503 61.4393 83.2543 61.4571 98.5688 61.4469L123.972 61.43L122.282 57.7032L120.592 53.9764L118.037 52.8485C116.632 52.2282 115.467 51.7062 115.449 51.6886C115.431 51.6709 116.121 51.1631 116.982 50.5602L118.548 49.4639L116.853 45.7184L115.157 41.973L102.138 41.9559L89.1192 41.939L87.4658 45.5915C86.5563 47.6004 85.7918 49.2972 85.7667 49.3619C85.7235 49.4736 86.0515 49.4802 92.0176 49.4892C95.4807 49.4944 99.9827 49.5171 102.022 49.5397L105.73 49.5807L104.198 50.6227C103.356 51.1957 102.667 51.6838 102.667 51.7073C102.667 51.7308 103.677 52.1979 104.912 52.7454C106.146 53.2929 107.265 53.7956 107.397 53.8627C107.629 53.9807 107.182 53.9847 93.3434 53.9876L79.0503 53.9905L77.5498 48.2174C76.7246 45.0421 75.8897 41.8308 75.6945 41.0809L75.3397 39.7176L96.0122 39.7193L116.685 39.7211L121.867 51.1634L127.049 62.6058L126.837 62.6387C126.72 62.6568 112.728 63.7607 95.7436 65.0916L64.8632 67.5115L33.933 65.0725C16.9214 63.7312 2.98641 62.6177 2.96646 62.5981C2.94652 62.5785 5.21562 57.5208 8.00884 51.3588C10.8021 45.1968 13.1296 40.0568 13.1811 39.9364L13.2747 39.7176H33.9451C45.3138 39.7176 54.6155 39.7346 54.6155 39.7554Z" fill="#DD3020"/>
</svg>
