<svg width="33" height="32" viewBox="0 0 33 32" fill="none" xmlns="http://www.w3.org/2000/svg">
<rect width="33" height="32" rx="8" fill="#F5F5F5"/>
<path d="M11.2903 23C11.9403 23 12.509 22.8363 12.9964 22.5088C13.4839 22.1813 13.8698 21.7719 14.1541 21.2807C14.4385 20.7895 14.5806 20.2573 14.5806 19.6842C14.5806 18.8655 14.3166 18.1287 13.7885 17.4737C13.2605 16.7778 12.5902 16.4094 11.7778 16.3684C11.859 15.2632 12.2449 14.3421 12.9355 13.6053C13.626 12.8275 14.4588 12.0906 15.4337 11.3947L14.1541 9C13.0573 9.5731 12.0215 10.4123 11.0466 11.5175C10.1123 12.5819 9.36081 13.7895 8.79211 15.1403C8.26404 16.4912 8 17.8216 8 19.1316C8 20.2778 8.30466 21.2193 8.91398 21.9561C9.5233 22.652 10.3154 23 11.2903 23ZM20.7957 23C21.405 23 21.9534 22.8363 22.4409 22.5088C22.9689 22.1813 23.3751 21.7719 23.6595 21.2807C23.9845 20.7895 24.147 20.2573 24.147 19.6842C24.147 19.152 24.0048 18.6404 23.7204 18.1491C23.4767 17.6579 23.1517 17.2485 22.7455 16.9211C22.3393 16.5936 21.8722 16.4094 21.3441 16.3684C21.4659 15.2632 21.8519 14.3421 22.5018 13.6053C23.1517 12.8275 23.9845 12.0906 25 11.3947L23.7204 9C22.583 9.5731 21.5269 10.4123 20.552 11.5175C19.6177 12.5819 18.8865 13.7895 18.3584 15.1403C17.8303 16.4912 17.5663 17.8216 17.5663 19.1316C17.5663 20.2778 17.871 21.2193 18.4803 21.9561C19.1302 22.652 19.902 23 20.7957 23Z" fill="#2A4455"/>
</svg>
