<svg width="130" height="40" viewBox="0 0 130 40" fill="none" xmlns="http://www.w3.org/2000/svg">
<path d="M29.2583 35.4445C29.821 35.4445 30.2948 35.2681 30.6501 34.9448C31.0055 34.6216 31.1831 34.2101 31.1831 33.6811C31.1831 33.152 31.0055 32.7406 30.6501 32.4173C30.2948 32.094 29.8506 31.9177 29.2583 31.9177H25.4087V35.4151H29.2583V35.4445ZM28.6957 25.0404H25.4087V28.2733H28.6957C29.2287 28.2733 29.6433 28.1263 29.969 27.803C30.2948 27.4797 30.4724 27.1271 30.4724 26.6274C30.4724 26.1572 30.2948 25.7751 29.969 25.4518C29.6433 25.1873 29.2287 25.0404 28.6957 25.0404ZM33.3153 29.8897C34.9736 30.8302 35.8027 32.2116 35.8027 34.0044C35.8027 35.5914 35.1809 36.8552 33.9371 37.8545C32.6934 38.8537 31.1535 39.3534 29.2879 39.3534H20.7891V21.1315H28.6957C30.502 21.1315 32.0123 21.6311 33.256 22.601C34.4702 23.5709 35.092 24.8346 35.092 26.3923C35.0624 27.803 34.4998 28.9786 33.3153 29.8897Z" fill="#6E6259"/>
<path d="M42.229 25.0404V29.7428H45.6937C46.3155 29.7428 46.8782 29.5077 47.352 29.0668C47.8258 28.5966 48.0331 28.0675 48.0331 27.421C48.0331 26.7744 47.7962 26.216 47.352 25.7751C46.8782 25.3049 46.3451 25.0991 45.6937 25.0991C45.6937 25.0404 42.229 25.0404 42.229 25.0404ZM48.2107 39.3828L44.4203 33.3578H42.229V39.3534H37.6094V21.1315H45.6937C47.6185 21.1315 49.2472 21.7193 50.6094 22.9537C51.9716 24.1587 52.623 25.6576 52.623 27.3916C52.623 28.5084 52.2677 29.5371 51.5866 30.4775C50.9055 31.418 49.9875 32.1528 48.8622 32.6818L53.1561 39.3828H48.2107Z" fill="#6E6259"/>
<path d="M60.0242 35.3563H68.0789V39.3828H55.375V21.1315H67.9604V25.1285H60.0242V28.1557H67.2201V32.1234H60.0242V35.3563Z" fill="#6E6259"/>
<path d="M90.9404 21.1315V39.3828H86.3208V28.7435L81.1089 36.5025H80.5759L75.3344 28.7435V39.3828H70.7148V21.1315H75.3344L80.8424 29.2432L86.3208 21.1315H90.9404Z" fill="#6E6259"/>
<path d="M99.0247 34.0339C100.002 35.0037 101.246 35.5034 102.726 35.5034C104.207 35.5034 105.451 35.0037 106.428 34.0339C107.405 33.064 107.938 31.8002 107.938 30.2425C107.938 28.6848 107.435 27.4505 106.428 26.4512C105.451 25.4813 104.207 24.9817 102.726 24.9817C101.246 24.9817 100.002 25.4813 99.0247 26.4512C98.0475 27.4211 97.5144 28.6848 97.5144 30.2425C97.5144 31.7708 97.9882 33.064 99.0247 34.0339ZM109.685 37.208C107.79 39.089 105.451 40.0001 102.697 40.0001C99.9427 40.0001 97.6329 39.0596 95.7081 37.208C93.8128 35.327 92.8652 33.0052 92.8652 30.2425C92.8652 27.4798 93.8128 25.1874 95.7081 23.2771C97.6033 21.3961 99.9427 20.485 102.697 20.485C105.451 20.485 107.76 21.4255 109.685 23.2771C111.58 25.158 112.528 27.4798 112.528 30.2425C112.528 33.0052 111.58 35.327 109.685 37.208Z" fill="#6E6259"/>
<path d="M119.073 25.0404V29.7428H122.537C123.159 29.7428 123.722 29.5077 124.196 29.0668C124.67 28.5966 124.877 28.0676 124.877 27.421C124.877 26.7744 124.64 26.216 124.196 25.7751C123.722 25.3049 123.189 25.0992 122.537 25.0992C122.537 25.0404 119.073 25.0404 119.073 25.0404ZM125.084 39.3828L121.264 33.3872H119.073V39.3828H114.453V21.1609H122.537C124.462 21.1609 126.091 21.7487 127.453 22.9831C128.815 24.1881 129.467 25.687 129.467 27.421C129.467 28.5378 129.111 29.5665 128.43 30.507C127.749 31.4474 126.831 32.1822 125.706 32.7112L130 39.4122L125.084 39.3828Z" fill="#6E6259"/>
<path d="M15.0742 11.7561L19.9307 15.7825C20.7895 14.2249 21.3225 12.4908 21.3225 10.6099L15.0742 11.7561Z" fill="#C00D1E"/>
<path d="M7.40265 7.43572L5.2113 1.4989C3.5826 2.43939 2.27964 3.79133 1.33203 5.3784L7.40265 7.43572Z" fill="#C00D1E"/>
<path d="M9.4472 6.28949L10.6613 0.0293902L11.8162 6.14254L15.9028 1.38134C14.3333 0.499633 12.5565 0 10.6613 0C8.67727 0 6.81166 0.558413 5.24219 1.4989L9.4472 6.28949Z" fill="#C00D1E"/>
<path d="M14.9531 9.40482L21.2606 10.5804C21.2606 8.61129 20.698 6.75971 19.7504 5.20203L14.9531 9.40482Z" fill="#C00D1E"/>
<path d="M13.8281 7.37694L19.8099 5.20207C18.8623 3.58561 17.5001 2.29244 15.901 1.38135L13.8281 7.37694Z" fill="#C00D1E"/>
<path d="M6.18907 9.43426L1.3918 5.37842C0.473804 6.9361 0 8.67012 0 10.5805L6.18907 9.43426Z" fill="#C00D1E"/>
<path d="M13.8887 13.7252L16.08 19.6914C17.7087 18.7509 19.0117 17.399 19.9297 15.8119L13.8887 13.7252Z" fill="#C00D1E"/>
<path d="M11.8451 14.8714L10.6606 21.1021L9.50569 14.989L5.41913 19.7796L7.46241 13.784L1.51025 15.9882L6.33713 11.7561L0 10.5804C0 16.4291 4.76765 21.1315 10.631 21.1315C12.615 21.1315 14.4806 20.5731 16.0501 19.6326L11.8451 14.8714Z" fill="#C00D1E"/>
</svg>
