<svg width="67" height="60" viewBox="0 0 67 60" fill="none" xmlns="http://www.w3.org/2000/svg">
<path d="M1 0H25V5H1V0Z" fill="#D3D3D3"/>
<path d="M4 5H22V8H4V5Z" fill="#92A7B3"/>
<path d="M32 5H50V8H32V5Z" fill="#92A7B3"/>
<path d="M29 0H53V5H29V0Z" fill="#D3D3D3"/>
<path d="M54 54L54 56L-8.74229e-08 56L0 54L54 54Z" fill="white"/>
<path d="M26 8H28V54H26V8Z" fill="white"/>
<path fill-rule="evenodd" clip-rule="evenodd" d="M0 9.88247C0 8.84281 0.84281 8 1.88247 8H26V54H0.021124C0.00721178 53.9077 0 53.8132 0 53.717V9.88247ZM28 54H37.7715C35.4155 51.1472 34 47.4889 34 43.5C34 38.5035 36.2208 34.0258 39.7292 31H36V27.9897H40.4326V30.4262C40.7566 30.1763 41.0902 29.9382 41.4326 29.7126V27.9897H44.8582C46.6184 27.3493 48.5184 27 50.5 27C51.7007 27 52.8715 27.1283 53.9994 27.3718V9.88247C53.9994 8.84281 53.1566 8 52.1169 8H28V54ZM0 60V56H8V60H0ZM7 16H5.88247C4.84281 16 4 16.8428 4 17.8825V18.9966H7V16ZM4 19.9966V22.9932H7V19.9966H4ZM4 23.9932V26.9897H7V23.9932H4ZM4 27.9897V29.1175C4 30.1572 4.84281 31 5.88247 31H7V27.9897H4ZM8 31H12.4326V27.9897H8V31ZM13.4326 31H18V27.9897H13.4326V31ZM19 31H20.1175C21.1572 31 22 30.1572 22 29.1175V27.9897H19V31ZM22 26.9897V23.9932H19V26.9897H22ZM22 22.9932V19.9966H19V22.9932H22ZM22 18.9966V17.8825C22 16.8428 21.1572 16 20.1175 16H19V18.9966H22ZM18 16H13.4326V18.9966H18V16ZM12.4326 16V18.9966H8V16H12.4326ZM18 23.9932V26.9897H13.4326V23.9932H18ZM12.4326 23.9932V26.9897H8V23.9932H12.4326ZM18 22.9932V19.9966H13.4326V22.9932H18ZM12.4326 19.9966V22.9932L8 22.9932V19.9966H12.4326ZM33.8825 16H35V18.9966H32V17.8825C32 16.8428 32.8428 16 33.8825 16ZM32 22.9932V19.9966H35V22.9932H32ZM32 26.9897V23.9932H35V26.9897H32ZM32 29.1175V27.9897H35V31H33.8825C32.8428 31 32 30.1572 32 29.1175ZM50 23.9932V26.9897H47V23.9932H50ZM50 19.9966V22.9932H47V19.9966H50ZM50 17.8825V18.9966H47V16H48.1175C49.1572 16 50 16.8428 50 17.8825ZM41.4326 16H46V18.9966H41.4326V16ZM40.4326 18.9966V16H36V18.9966H40.4326ZM46 26.9897V23.9932H41.4326V26.9897H46ZM40.4326 26.9897V23.9932H36V26.9897H40.4326ZM46 19.9966V22.9932H41.4326V19.9966H46ZM40.4326 22.9932V19.9966H36V22.9932L40.4326 22.9932Z" fill="#2A4455"/>
<mask id="mask0_1401_122144" style="mask-type:alpha" maskUnits="userSpaceOnUse" x="34" y="27" width="33" height="33">
<path d="M67 43.5C67 52.6127 59.6127 60 50.5 60C41.3873 60 34 52.6127 34 43.5C34 34.3873 41.3873 27 50.5 27C59.6127 27 67 34.3873 67 43.5Z" fill="#F5F5F5"/>
</mask>
<g mask="url(#mask0_1401_122144)">
<path fill-rule="evenodd" clip-rule="evenodd" d="M50.5 60C59.6127 60 67 52.6127 67 43.5C67 34.3873 59.6127 27 50.5 27C41.3873 27 34 34.3873 34 43.5C34 52.6127 41.3873 60 50.5 60ZM48.0499 33.6562C48.0499 33.2938 48.3437 33 48.7062 33H52.2937C52.6561 33 52.9499 33.2938 52.9499 33.6562V34.1554C52.9499 34.7136 53.3267 35.1976 53.8426 35.411C54.3573 35.624 54.9564 35.5437 55.3503 35.1498L55.6361 34.864C55.8924 34.6077 56.3079 34.6077 56.5642 34.864L59.1009 37.4007C59.3572 37.657 59.3572 38.0725 59.1009 38.3288L58.8457 38.5841C58.4402 38.9895 58.3595 39.6068 58.5801 40.1361C58.8001 40.6639 59.2957 41.0501 59.8675 41.0501H60.3438C60.7062 41.0501 61 41.3439 61 41.7063V45.2938C61 45.6563 60.7062 45.9501 60.3438 45.9501H59.8444C59.2863 45.9501 58.8023 46.3268 58.589 46.8426C58.376 47.3572 58.4563 47.9563 58.8502 48.3501L59.136 48.636C59.3923 48.8922 59.3923 49.3077 59.136 49.564L56.5993 52.1008C56.343 52.3571 55.9275 52.3571 55.6712 52.1008L55.416 51.8456C55.0105 51.4401 54.3932 51.3594 53.8639 51.58C53.3361 51.8 52.9499 52.2956 52.9499 52.8674V53.3438C52.9499 53.7062 52.6561 54 52.2937 54H48.7062C48.3437 54 48.0499 53.7062 48.0499 53.3438V52.8671C48.0499 52.2954 47.6638 51.7999 47.1361 51.5799C46.6069 51.3594 45.9897 51.44 45.5843 51.8454L45.1798 52.25C44.9235 52.5063 44.508 52.5063 44.2517 52.25L41.7149 49.7132C41.4587 49.457 41.4587 49.0414 41.7149 48.7852L42.15 48.3501C42.5439 47.9562 42.6241 47.3572 42.4112 46.8425C42.1979 46.3268 41.7139 45.9501 41.1558 45.9501H40.6562C40.2938 45.9501 40 45.6563 40 45.2938V41.7063C40 41.3439 40.2938 41.0501 40.6562 41.0501H41.1327C41.7045 41.0501 42.2001 40.6639 42.4201 40.1361C42.6406 39.6069 42.56 38.9895 42.1545 38.5841L41.75 38.1796C41.4937 37.9233 41.4937 37.5078 41.75 37.2515L44.2868 34.7148C44.543 34.4585 44.9586 34.4585 45.2148 34.7148L45.65 35.1499C46.0438 35.5437 46.6428 35.624 47.1575 35.4111C47.6732 35.1977 48.0499 34.7138 48.0499 34.1557V33.6562ZM55.75 43.5C55.75 46.3995 53.3995 48.75 50.5 48.75C47.6005 48.75 45.25 46.3995 45.25 43.5C45.25 40.6005 47.6005 38.25 50.5 38.25C53.3995 38.25 55.75 40.6005 55.75 43.5Z" fill="white"/>
<path fill-rule="evenodd" clip-rule="evenodd" d="M48.7062 33C48.3437 33 48.0499 33.2938 48.0499 33.6562V34.1557C48.0499 34.7138 47.6732 35.1977 47.1575 35.4111C46.6428 35.624 46.0438 35.5437 45.65 35.1499L45.2148 34.7148C44.9586 34.4585 44.543 34.4585 44.2868 34.7148L41.75 37.2515C41.4937 37.5078 41.4937 37.9233 41.75 38.1796L42.1545 38.5841C42.56 38.9895 42.6406 39.6069 42.4201 40.1361C42.2001 40.6639 41.7045 41.0501 41.1327 41.0501H40.6562C40.2938 41.0501 40 41.3439 40 41.7063V45.2938C40 45.6563 40.2938 45.9501 40.6562 45.9501H41.1558C41.7139 45.9501 42.1979 46.3268 42.4112 46.8425C42.6241 47.3572 42.5439 47.9562 42.15 48.3501L41.7149 48.7852C41.4587 49.0414 41.4587 49.457 41.7149 49.7132L44.2517 52.25C44.508 52.5063 44.9235 52.5063 45.1798 52.25L45.5843 51.8454C45.9897 51.44 46.6069 51.3594 47.1361 51.5799C47.6638 51.7999 48.0499 52.2954 48.0499 52.8671V53.3438C48.0499 53.7062 48.3437 54 48.7062 54H52.2937C52.6561 54 52.9499 53.7062 52.9499 53.3438V52.8674C52.9499 52.2956 53.3361 51.8 53.8639 51.58C54.3932 51.3594 55.0105 51.4401 55.416 51.8456L55.6712 52.1008C55.9275 52.3571 56.343 52.3571 56.5993 52.1008L59.136 49.564C59.3923 49.3077 59.3923 48.8922 59.136 48.636L58.8502 48.3501C58.4563 47.9563 58.376 47.3572 58.589 46.8426C58.8023 46.3268 59.2863 45.9501 59.8444 45.9501H60.3438C60.7062 45.9501 61 45.6563 61 45.2938V41.7063C61 41.3439 60.7062 41.0501 60.3438 41.0501H59.8675C59.2957 41.0501 58.8001 40.6639 58.5801 40.1361C58.3595 39.6068 58.4402 38.9895 58.8457 38.5841L59.1009 38.3288C59.3572 38.0725 59.3572 37.657 59.1009 37.4007L56.5642 34.864C56.3079 34.6077 55.8924 34.6077 55.6361 34.864L55.3503 35.1498C54.9564 35.5437 54.3573 35.624 53.8426 35.411C53.3267 35.1976 52.9499 34.7136 52.9499 34.1554V33.6562C52.9499 33.2938 52.6561 33 52.2937 33H48.7062ZM50.5 48.75C53.3995 48.75 55.75 46.3995 55.75 43.5C55.75 40.6005 53.3995 38.25 50.5 38.25C47.6005 38.25 45.25 40.6005 45.25 43.5C45.25 46.3995 47.6005 48.75 50.5 48.75Z" fill="#2A4455"/>
<path fill-rule="evenodd" clip-rule="evenodd" d="M50.5 59C59.0604 59 66 52.0604 66 43.5C66 34.9396 59.0604 28 50.5 28C41.9396 28 35 34.9396 35 43.5C35 52.0604 41.9396 59 50.5 59ZM50.5 60C59.6127 60 67 52.6127 67 43.5C67 34.3873 59.6127 27 50.5 27C41.3873 27 34 34.3873 34 43.5C34 52.6127 41.3873 60 50.5 60Z" fill="#92A7B3"/>
</g>
</svg>
