<svg width="60" height="66" viewBox="0 0 60 66" fill="none" xmlns="http://www.w3.org/2000/svg">
<path d="M1 0H25V5H1V0Z" fill="#D3D3D3"/>
<path d="M4 5H22V8H4V5Z" fill="#92A7B3"/>
<path d="M32 5H50V8H32V5Z" fill="#92A7B3"/>
<path d="M29 0H53V5H29V0Z" fill="#D3D3D3"/>
<path d="M54 54L54 56L-8.74229e-08 56L0 54L54 54Z" fill="white"/>
<path fill-rule="evenodd" clip-rule="evenodd" d="M0 56V60H8V56L0 56Z" fill="#991C12"/>
<path d="M26 8H28V54H26V8Z" fill="white"/>
<path fill-rule="evenodd" clip-rule="evenodd" d="M1.88247 8C0.84281 8 0 8.84281 0 9.88247V53.717C0 53.8132 0.00721158 53.9077 0.0211235 54L26 54V8H1.88247ZM28 8V54H41.25C42.4082 48.2944 47.4526 44 53.5 44C53.6672 44 53.8337 44.0033 53.9994 44.0098V9.88247C53.9994 8.84281 53.1566 8 52.1169 8H28ZM5.88247 16H7V18.9966H4V17.8825C4 16.8428 4.84281 16 5.88247 16ZM4 22.9932V19.9966H7V22.9932H4ZM4 26.9897V23.9932H7V26.9897H4ZM4 29.1175V27.9897H7V31H5.88247C4.84281 31 4 30.1572 4 29.1175ZM12.4326 31H8V27.9897H12.4326V31ZM18 31H13.4326V27.9897H18V31ZM20.1175 31H19V27.9897H22V29.1175C22 30.1572 21.1572 31 20.1175 31ZM22 23.9932V26.9897H19V23.9932H22ZM22 19.9966V22.9932H19V19.9966H22ZM22 17.8825V18.9966H19V16H20.1175C21.1572 16 22 16.8428 22 17.8825ZM13.4326 16H18V18.9966H13.4326V16ZM12.4326 18.9966V16H8V18.9966H12.4326ZM18 26.9897V23.9932H13.4326V26.9897H18ZM12.4326 26.9897V23.9932H8V26.9897H12.4326ZM18 19.9966V22.9932H13.4326V19.9966H18ZM12.4326 22.9932V19.9966H8V22.9932L12.4326 22.9932ZM35 16H33.8825C32.8428 16 32 16.8428 32 17.8825V18.9966H35V16ZM32 19.9966V22.9932H35V19.9966H32ZM32 23.9932V26.9897H35V23.9932H32ZM32 27.9897V29.1175C32 30.1572 32.8428 31 33.8825 31H35V27.9897H32ZM36 31H40.4326V27.9897H36V31ZM41.4326 31H46V27.9897H41.4326V31ZM47 31H48.1175C49.1572 31 50 30.1572 50 29.1175V27.9897H47V31ZM50 26.9897V23.9932H47V26.9897H50ZM50 22.9932V19.9966H47V22.9932H50ZM50 18.9966V17.8825C50 16.8428 49.1572 16 48.1175 16H47V18.9966H50ZM46 16H41.4326V18.9966H46V16ZM40.4326 16V18.9966H36V16H40.4326ZM46 23.9932V26.9897H41.4326V23.9932H46ZM40.4326 23.9932V26.9897H36V23.9932H40.4326ZM46 22.9932V19.9966H41.4326V22.9932H46ZM40.4326 19.9966V22.9932L36 22.9932V19.9966H40.4326Z" fill="#BC0000"/>
<path fill-rule="evenodd" clip-rule="evenodd" d="M55.9455 46.1341C56.4238 45.8579 57.0354 46.0216 57.3116 46.4999L59.4957 50.2812C59.6284 50.511 59.6644 50.784 59.5957 51.0402C59.5271 51.2964 59.3594 51.5149 59.1297 51.6475L55.3891 53.8065C54.9107 54.0826 54.2992 53.9186 54.0231 53.4403C53.747 52.962 53.911 52.3504 54.3893 52.0743L55.9604 51.1675L53.9159 50.6755C53.9058 50.673 53.8957 50.6704 53.8856 50.6677C52.987 50.4214 52.0446 50.4077 51.146 50.6266C50.2475 50.8455 49.4214 51.29 48.7442 51.9188C48.067 52.5476 47.5602 53.3409 47.2719 54.2254C46.9835 55.11 46.9231 56.0571 47.0975 56.9784C47.2002 57.521 46.8436 58.0442 46.3009 58.1469C45.7583 58.2496 45.2351 57.893 45.1324 57.3504C44.8957 56.1001 44.9772 54.8118 45.3704 53.6055C45.7636 52.3992 46.4558 51.3145 47.3833 50.4532C48.3108 49.592 49.4425 48.9831 50.6726 48.6834C51.8974 48.385 53.179 48.4031 54.3986 48.7345L56.5985 49.264L55.5798 47.5002C55.3035 47.022 55.4673 46.4103 55.9455 46.1341ZM58.6991 53.8532C59.2417 53.7505 59.7649 54.1071 59.8676 54.6497C60.1043 55.9 60.0228 57.1883 59.6296 58.3945C59.2364 59.6009 58.5442 60.6856 57.6167 61.5469C56.6892 62.4081 55.5574 63.017 54.3274 63.3167C53.1026 63.6151 51.8211 63.597 50.6014 63.2655L48.4015 62.7361L49.4202 64.4999C49.6964 64.9781 49.5327 65.5897 49.0544 65.866C48.5762 66.1422 47.9646 65.9784 47.6884 65.5002L45.5042 61.7188C45.3716 61.4891 45.3356 61.2161 45.4042 60.9599C45.4729 60.7037 45.6405 60.4852 45.8703 60.3526L49.6109 58.1936C50.0893 57.9175 50.7008 58.0815 50.9769 58.5598C51.253 59.0381 51.089 59.6497 50.6107 59.9258L49.0396 60.8326L51.084 61.3246C51.0942 61.327 51.1043 61.3296 51.1144 61.3324C52.013 61.5787 52.9554 61.5924 53.854 61.3735C54.7524 61.1546 55.5786 60.7101 56.2558 60.0813C56.933 59.4525 57.4398 58.6592 57.7281 57.7747C58.0165 56.8901 58.0769 55.943 57.9025 55.0217C57.7998 54.4791 58.1564 53.9559 58.6991 53.8532Z" fill="#2A4455"/>
</svg>
