<svg width="74" height="58" viewBox="0 0 74 58" fill="none" xmlns="http://www.w3.org/2000/svg">
<path fill-rule="evenodd" clip-rule="evenodd" d="M52 0H22C22 5.52285 17.5228 10 12 10V14.7689C12 25.5219 12.6485 37.1526 20 45C25.0181 50.3566 36.5 58 36.5 58C36.5 58 48.7214 50.5853 54 45C61.3887 37.182 62 25.522 62 14.765V10C56.4772 10 52 5.52285 52 0Z" fill="#92A7B3"/>
<path fill-rule="evenodd" clip-rule="evenodd" d="M49.0494 4H24.8937C24.2359 8.79014 20.5985 12.5791 16 13.2642V16.8215C16 26.0346 16.5087 35.9886 22.72 42.7931C26.9352 47.4108 36.58 54 36.58 54C36.58 54 46.846 47.608 51.28 42.7931C57.5234 36.0134 58 26.0347 58 16.8182V13.3236C53.2756 12.835 49.5184 8.92127 49.0494 4Z" fill="#F5F5F5"/>
<path d="M1.12946 37.5812C0.656693 36.9194 1.12982 36 1.94319 36H14C15.1046 36 16 36.8954 16 38V48C16 49.1046 15.1046 50 14 50H1.94319C1.12982 50 0.656693 49.0806 1.12946 48.4188L4.16966 44.1625C4.66637 43.4671 4.66637 42.5329 4.16966 41.8375L1.12946 37.5812Z" fill="#991C12"/>
<path d="M72.8705 48.4188C73.3433 49.0806 72.8702 50 72.0568 50L60 50C58.8954 50 58 49.1046 58 48L58 38C58 36.8954 58.8954 36 60 36L72.0568 36C72.8702 36 73.3433 36.9194 72.8705 37.5812L69.8303 41.8375C69.3336 42.5329 69.3336 43.4671 69.8303 44.1625L72.8705 48.4188Z" fill="#991C12"/>
<rect x="10" y="38" width="54" height="16" rx="2" fill="#BC0000"/>
<path d="M24.4738 43.1193V48.9196H22.9621V46.0713C22.9621 45.7912 22.9674 45.5162 22.978 45.2464C22.9886 44.9767 23.0045 44.7276 23.0257 44.4994H22.9939L21.3549 48.9196H20.1402L18.4746 44.489H18.4322C18.4605 44.7207 18.4799 44.9697 18.4905 45.2361C18.5011 45.5024 18.5064 45.7946 18.5064 46.1128V48.9196H17V43.1193H19.2915L20.7661 47.0519L22.2672 43.1193H24.4738Z" fill="white"/>
<path d="M28.6218 43.0104C29.1699 43.0104 29.642 43.1141 30.0381 43.3217C30.4341 43.5257 30.74 43.8232 30.9557 44.214C31.1714 44.6048 31.2793 45.0821 31.2793 45.6459V46.4137H27.4548C27.4725 46.8599 27.6087 47.211 27.8633 47.4669C28.1214 47.7194 28.4786 47.8457 28.9348 47.8457C29.3131 47.8457 29.6597 47.8076 29.9744 47.7315C30.2891 47.6554 30.6127 47.5413 30.9451 47.3891V48.6135C30.6516 48.7553 30.3439 48.8591 30.0221 48.9248C29.7039 48.9905 29.3167 49.0233 28.8605 49.0233C28.2664 49.0233 27.7395 48.9161 27.2798 48.7017C26.8236 48.4872 26.4647 48.1604 26.203 47.7211C25.9449 47.2819 25.8158 46.7285 25.8158 46.061C25.8158 45.3831 25.9325 44.8193 26.1659 44.3696C26.4028 43.9166 26.7317 43.5776 27.1525 43.3528C27.5733 43.1245 28.0631 43.0104 28.6218 43.0104ZM28.6324 44.1362C28.3177 44.1362 28.056 44.2348 27.8474 44.4319C27.6423 44.6291 27.5238 44.9386 27.492 45.3606H29.7622C29.7587 45.1254 29.7145 44.9161 29.6296 44.7328C29.5483 44.5495 29.4245 44.4042 29.2583 44.297C29.0957 44.1898 28.887 44.1362 28.6324 44.1362Z" fill="white"/>
<path d="M35.0029 49.0233C34.4159 49.0233 33.9155 48.9196 33.5018 48.7121C33.0881 48.5011 32.7733 48.176 32.5576 47.7367C32.3419 47.2974 32.2341 46.7354 32.2341 46.0506C32.2341 45.3415 32.3561 44.7639 32.6001 44.3178C32.8476 43.8681 33.1888 43.5378 33.6238 43.3268C34.0623 43.1159 34.5697 43.0104 35.1461 43.0104C35.5563 43.0104 35.91 43.0502 36.207 43.1297C36.5076 43.2058 36.7693 43.2974 36.992 43.4047L36.5147 44.6291C36.26 44.5288 36.0231 44.4475 35.8039 44.3852C35.5846 44.3195 35.3654 44.2866 35.1461 44.2866C34.8632 44.2866 34.6281 44.3524 34.4407 44.4838C34.2532 44.6118 34.1136 44.8054 34.0216 45.0649C33.9297 45.3243 33.8837 45.6494 33.8837 46.0402C33.8837 46.4241 33.9332 46.7423 34.0322 46.9948C34.1312 47.2473 34.2745 47.4358 34.4619 47.5603C34.6493 47.6814 34.8774 47.7419 35.1461 47.7419C35.4821 47.7419 35.7809 47.6987 36.0426 47.6122C36.3042 47.5223 36.5589 47.3978 36.8064 47.2387V48.5927C36.5589 48.7449 36.2989 48.8539 36.0267 48.9196C35.7579 48.9888 35.4167 49.0233 35.0029 49.0233Z" fill="white"/>
<path d="M39.0873 48.9196H37.3368L38.9334 46.6265C38.7319 46.5435 38.5427 46.4293 38.3659 46.284C38.1891 46.1353 38.0458 45.9486 37.9362 45.7237C37.8266 45.4989 37.7718 45.2291 37.7718 44.9144C37.7718 44.3368 37.9946 43.8941 38.4401 43.5863C38.8892 43.275 39.4674 43.1193 40.1746 43.1193H42.9329V48.9196H41.3151V46.7613H40.4239L39.0873 48.9196ZM39.3578 44.9248C39.3578 45.1669 39.455 45.3571 39.6495 45.4955C39.8475 45.6304 40.1022 45.6978 40.4133 45.6978H41.3151V44.2348H40.2065C39.9165 44.2348 39.7026 44.3039 39.5646 44.4423C39.4267 44.5772 39.3578 44.738 39.3578 44.9248Z" fill="white"/>
<path d="M51.0963 51H49.6429V48.9196H44.625V43.1193H46.2428V47.7315H48.6085V43.1193H50.2317V47.7626H51.0963V51Z" fill="white"/>
<path d="M54.5335 43C55.3291 43 55.9391 43.1695 56.3635 43.5084C56.7878 43.8474 57 44.3627 57 45.0545V48.9196H55.8702L55.5572 48.131H55.5148C55.345 48.3385 55.1718 48.508 54.995 48.6394C54.8181 48.7709 54.6148 48.8677 54.385 48.93C54.1551 48.9922 53.8757 49.0233 53.5469 49.0233C53.1968 49.0233 52.8821 48.9576 52.6027 48.8262C52.3269 48.6948 52.1094 48.4942 51.9503 48.2244C51.7911 47.9511 51.7116 47.6053 51.7116 47.1868C51.7116 46.5711 51.9326 46.118 52.3746 45.8275C52.8166 45.5335 53.4797 45.3709 54.3637 45.3398L55.3928 45.3087V45.0545C55.3928 44.7501 55.3115 44.527 55.1488 44.3852C54.9861 44.2434 54.7598 44.1725 54.4698 44.1725C54.1834 44.1725 53.9023 44.2123 53.6264 44.2918C53.3506 44.3714 53.0748 44.4717 52.799 44.5927L52.2632 43.524C52.5779 43.3614 52.9298 43.2335 53.3188 43.1401C53.7113 43.0467 54.1162 43 54.5335 43ZM55.3928 46.2322L54.7669 46.2529C54.2435 46.2668 53.8793 46.3584 53.6742 46.5279C53.4726 46.6974 53.3718 46.9204 53.3718 47.1971C53.3718 47.4393 53.4443 47.6122 53.5893 47.716C53.7343 47.8163 53.9235 47.8664 54.1569 47.8664C54.5034 47.8664 54.7952 47.7661 55.0321 47.5655C55.2726 47.3649 55.3928 47.0796 55.3928 46.7095V46.2322Z" fill="white"/>
<path d="M44 31H30.0546V28.2454L35.0624 23.4922C36.0721 22.5185 36.8817 21.7071 37.4912 21.058C38.1098 20.4003 38.5556 19.8024 38.8285 19.2643C39.1105 18.7262 39.2515 18.1497 39.2515 17.5347C39.2515 16.7916 39.0286 16.2365 38.5828 15.8692C38.1462 15.4934 37.5595 15.3055 36.8226 15.3055C36.0494 15.3055 35.2989 15.472 34.5712 15.8051C33.8434 16.1382 33.0838 16.6123 32.2924 17.2272L30 14.6777C30.5731 14.2165 31.178 13.7808 31.8148 13.3709C32.4607 12.9609 33.2066 12.6321 34.0526 12.3844C34.9077 12.1281 35.9311 12 37.1228 12C38.4327 12 39.5562 12.2221 40.4932 12.6662C41.4392 13.1104 42.167 13.7168 42.6764 14.4855C43.1858 15.2457 43.4405 16.1083 43.4405 17.0735C43.4405 18.107 43.2222 19.0508 42.7856 19.9049C42.3489 20.759 41.7122 21.6046 40.8752 22.4417C40.0474 23.2787 39.0468 24.2054 37.8733 25.2218L35.308 27.4895V27.6689H44V31Z" fill="#1D262C"/>
</svg>
