<svg width="62" height="65" viewBox="0 0 62 65" fill="none" xmlns="http://www.w3.org/2000/svg">
<path d="M0 4C0 1.79086 1.79086 0 4 0H58C60.2091 0 62 1.79086 62 4V56C62 58.2091 60.2091 60 58 60H4C1.79086 60 0 58.2091 0 56V4Z" fill="#2A4455"/>
<path d="M0 4C0 2.89543 0.895431 2 2 2H58C59.1046 2 60 2.89543 60 4V58C60 59.1046 59.1046 60 58 60H2C0.895432 60 0 59.1046 0 58V4Z" fill="#92A7B3"/>
<path d="M38 11C38 9.89543 38.8954 9 40 9H52C53.1046 9 54 9.89543 54 11V27C54 28.1046 53.1046 29 52 29H40C38.8954 29 38 28.1046 38 27V11Z" fill="#F5F5F5"/>
<path d="M45 13C45 14.1046 44.1046 15 43 15C41.8954 15 41 14.1046 41 13C41 11.8954 41.8954 11 43 11C44.1046 11 45 11.8954 45 13Z" fill="#2A4455"/>
<path d="M45 19C45 20.1046 44.1046 21 43 21C41.8954 21 41 20.1046 41 19C41 17.8954 41.8954 17 43 17C44.1046 17 45 17.8954 45 19Z" fill="#2A4455"/>
<path d="M51 13C51 14.1046 50.1046 15 49 15C47.8954 15 47 14.1046 47 13C47 11.8954 47.8954 11 49 11C50.1046 11 51 11.8954 51 13Z" fill="#2A4455"/>
<path d="M51 19C51 20.1046 50.1046 21 49 21C47.8954 21 47 20.1046 47 19C47 17.8954 47.8954 17 49 17C50.1046 17 51 17.8954 51 19Z" fill="#2A4455"/>
<path d="M45 25C45 26.1046 44.1046 27 43 27C41.8954 27 41 26.1046 41 25C41 23.8954 41.8954 23 43 23C44.1046 23 45 23.8954 45 25Z" fill="#2A4455"/>
<path d="M51 25C51 26.1046 50.1046 27 49 27C47.8954 27 47 26.1046 47 25C47 23.8954 47.8954 23 49 23C50.1046 23 51 23.8954 51 25Z" fill="#2A4455"/>
<path d="M53 45C53 48.866 49.866 52 46 52C42.134 52 39 48.866 39 45C39 41.134 42.134 38 46 38C49.866 38 53 41.134 53 45Z" fill="#F5F5F5"/>
<path fill-rule="evenodd" clip-rule="evenodd" d="M55 45C55 49.9706 50.9706 54 46 54C41.0294 54 37 49.9706 37 45C37 40.0294 41.0294 36 46 36C50.9706 36 55 40.0294 55 45ZM46 52C49.866 52 53 48.866 53 45C53 41.134 49.866 38 46 38C42.134 38 39 41.134 39 45C39 48.866 42.134 52 46 52Z" fill="#2A4455"/>
<path d="M46 48L43 43L49 43L46 48Z" fill="#92A7B3"/>
<path d="M30 27.5C30 33.8513 24.8513 39 18.5 39C12.1487 39 7 33.8513 7 27.5C7 21.1487 12.1487 16 18.5 16C24.8513 16 30 21.1487 30 27.5Z" fill="#3F5766"/>
<path d="M27 27.5C27 32.1944 23.1944 36 18.5 36C13.8056 36 10 32.1944 10 27.5C10 22.8056 13.8056 19 18.5 19C23.1944 19 27 22.8056 27 27.5Z" fill="#2A4455"/>
<path d="M8 53H21V59H8V53Z" fill="#D3D3D3"/>
<path d="M8 53H20V59H8V53Z" fill="white"/>
<path d="M6 61C6 59.8954 6.89543 59 8 59H21C22.1046 59 23 59.8954 23 61V63C23 64.1046 22.1046 65 21 65H8C6.89543 65 6 64.1046 6 63V61Z" fill="#2A4455"/>
<path d="M21 62C21 62.5523 20.5523 63 20 63C19.4477 63 19 62.5523 19 62C19 61.4477 19.4477 61 20 61C20.5523 61 21 61.4477 21 62Z" fill="white"/>
<mask id="mask0_1401_122231" style="mask-type:alpha" maskUnits="userSpaceOnUse" x="5" y="24" width="20" height="33">
<path fill-rule="evenodd" clip-rule="evenodd" d="M17 26C17 24.8954 17.8954 24 19 24C20.1046 24 21 24.8954 21 26L21 41.9984C21.0009 40.8946 21.896 40 23 40C24.1046 40 25 40.8954 25 42V50C25 50.0411 24.9988 50.0819 24.9963 50.1223C24.9988 50.1819 25 50.2417 25 50.3019C25 50.7643 24.9255 51.2236 24.7792 51.6623L24.6325 52.1026C23.6576 55.0273 20.9206 57 17.8377 57H12.1623C9.07942 57 6.34243 55.0273 5.36754 52.1026C5.12411 51.3723 5 50.6075 5 49.8377V49V46V37C5 35.8954 5.89543 35 7 35C8.10408 35 8.99921 35.8946 9 36.9985V36C9 34.8954 9.89543 34 11 34C12.1039 34 12.9989 34.8943 13 35.998V35C13 33.8954 13.8954 33 15 33C16.1038 33 16.9987 33.8942 17 34.9977V26Z" fill="#D3D3D3"/>
</mask>
<g mask="url(#mask0_1401_122231)">
<path fill-rule="evenodd" clip-rule="evenodd" d="M17 26C17 24.8954 17.8954 24 19 24C20.1046 24 21 24.8954 21 26L21 41.9984C21.0009 40.8946 21.896 40 23 40C24.1046 40 25 40.8954 25 42V50C25 50.0411 24.9988 50.0819 24.9963 50.1223C24.9988 50.1819 25 50.2417 25 50.3019C25 50.7643 24.9255 51.2236 24.7792 51.6623L24.6325 52.1026C23.6576 55.0273 20.9206 57 17.8377 57H12.1623C9.07942 57 6.34243 55.0273 5.36754 52.1026C5.12411 51.3723 5 50.6075 5 49.8377V49V46V37C5 35.8954 5.89543 35 7 35C8.10408 35 8.99921 35.8946 9 36.9985V36C9 34.8954 9.89543 34 11 34C12.1039 34 12.9989 34.8943 13 35.998V35C13 33.8954 13.8954 33 15 33C16.1038 33 16.9987 33.8942 17 34.9977V26Z" fill="#D3D3D3"/>
<path fill-rule="evenodd" clip-rule="evenodd" d="M17 25.5C17 24.6716 17.6716 24 18.5 24C19.3284 24 20 24.6716 20 25.5L20 45V47.5C20 47.5002 20 47.5003 20 47.5005C20.0003 47.7764 20.224 48 20.5 48C20.7761 48 21 47.7761 21 47.5V47V41.5C21 40.6716 21.6716 40 22.5 40C23.3284 40 24 40.6716 24 41.5V47.5V50.3019V50.5C24 50.5982 23.9906 50.6942 23.9725 50.7871C23.9388 51.0844 23.8741 51.3777 23.7792 51.6623L23.6325 52.1026C22.6576 55.0273 19.9206 57 16.8377 57H11.1623C8.07942 57 5.34243 55.0273 4.36754 52.1026C4.12411 51.3723 4 50.6075 4 49.8377V42.5C4 42.2239 4.22386 42 4.5 42C4.77614 42 5 41.7761 5 41.5L5 36.5C5 35.6716 5.67157 35 6.5 35C7.32843 35 8 35.6716 8 36.5V41.5C8 41.7761 8.22386 42 8.5 42C8.77614 42 9 41.7761 9 41.5L9 35.5C9 34.6716 9.67157 34 10.5 34C11.3284 34 12 34.6716 12 35.5V41.5C12 41.7761 12.2239 42 12.5 42C12.7761 42 13 41.7761 13 41.5V34.5C13 33.6716 13.6716 33 14.5 33C15.3284 33 16 33.6716 16 34.5V41.5C16 41.7761 16.2239 42 16.5 42C16.7761 42 17 41.7761 17 41.5L17 25.5Z" fill="white"/>
</g>
</svg>
