<svg width="65" height="57" viewBox="0 0 65 57" fill="none" xmlns="http://www.w3.org/2000/svg">
<path fill-rule="evenodd" clip-rule="evenodd" d="M4 7C1.79086 7 0 8.79086 0 11V38H58V11C58 8.79086 56.2091 7 54 7H4Z" fill="#92A7B3"/>
<path fill-rule="evenodd" clip-rule="evenodd" d="M20.9499 25C20.5357 25 20.1999 25.3358 20.1999 25.75V26.3208C20.1999 26.9587 19.7694 27.5117 19.18 27.7555C18.5918 27.9989 17.9072 27.9071 17.4571 27.457L16.9598 26.9598C16.6669 26.6669 16.192 26.6669 15.8992 26.9598L13 29.8589C12.7071 30.1518 12.7071 30.6267 13 30.9196L13.4623 31.3818C13.9257 31.8452 14.0179 32.5507 13.7658 33.1556C13.5144 33.7587 12.948 34.2001 12.2945 34.2001H11.75C11.3358 34.2001 11 34.5359 11 34.9501V39.0501C11 39.4643 11.3358 39.8001 11.75 39.8001H12.3209C12.9588 39.8001 13.5119 40.2306 13.7557 40.82C13.999 41.4082 13.9073 42.0928 13.4572 42.5429L12.9599 43.0402C12.667 43.3331 12.667 43.808 12.9599 44.1008L15.8591 47C16.152 47.2929 16.6268 47.2929 16.9197 47L17.3821 46.5377C17.8454 46.0743 18.5508 45.9821 19.1556 46.2342C19.7587 46.4856 20.1999 47.0519 20.1999 47.7053V48.25C20.1999 48.6642 20.5357 49 20.9499 49H25.0499C25.4641 49 25.7999 48.6642 25.7999 48.25V47.7056C25.7999 47.0521 26.2413 46.4857 26.8445 46.2343C27.4494 45.9822 28.1549 46.0744 28.6183 46.5378L28.9099 46.8295C29.2028 47.1224 29.6777 47.1223 29.9706 46.8295L32.8697 43.9303C33.1626 43.6374 33.1626 43.1626 32.8697 42.8697L32.543 42.543C32.0929 42.0929 32.0012 41.4083 32.2445 40.8201C32.4884 40.2306 33.0414 39.8001 33.6793 39.8001H34.25C34.6642 39.8001 35 39.4643 35 39.0501V34.9501C35 34.5359 34.6642 34.2001 34.25 34.2001H33.7057C33.0523 34.2001 32.4859 33.7587 32.2344 33.1555C31.9823 32.5507 32.0746 31.8452 32.5379 31.3818L32.8296 31.0901C33.1225 30.7972 33.1225 30.3223 32.8296 30.0294L29.9305 27.1303C29.6376 26.8374 29.1627 26.8374 28.8698 27.1303L28.5432 27.4569C28.093 27.9071 27.4084 27.9988 26.8201 27.7555C26.2305 27.5116 25.7999 26.9584 25.7999 26.3204V25.75C25.7999 25.3358 25.4641 25 25.0499 25L20.9499 25ZM23 43C26.3137 43 29 40.3137 29 37C29 33.6863 26.3137 31 23 31C19.6863 31 17 33.6863 17 37C17 40.3137 19.6863 43 23 43Z" fill="white"/>
<path d="M0 38H58V45C58 47.2091 56.2091 49 54 49H4C1.79086 49 0 47.2091 0 45V38Z" fill="#D3D3D3"/>
<path d="M23 43C23 42.4477 23.4477 42 24 42H34C34.5523 42 35 42.4477 35 43C35 43.5523 34.5523 44 34 44H24C23.4477 44 23 43.5523 23 43Z" fill="#2A4455"/>
<path d="M23 49H35L36 55H22L23 49Z" fill="#D3D3D3"/>
<path d="M16 56C16 55.4477 16.4477 55 17 55H41C41.5523 55 42 55.4477 42 56C42 56.5523 41.5523 57 41 57H17C16.4477 57 16 56.5523 16 56Z" fill="#D3D3D3"/>
<path fill-rule="evenodd" clip-rule="evenodd" d="M47.4374 0C46.9196 0 46.4999 0.419733 46.4999 0.9375V1.65099C46.4999 2.44831 45.9617 3.13963 45.225 3.44443C44.4897 3.74859 43.634 3.63392 43.0714 3.07131L42.4498 2.44969C42.0837 2.08358 41.4901 2.08358 41.1239 2.4497L37.5 6.07362C37.1339 6.43973 37.1339 7.03333 37.5 7.39944L38.0779 7.97729C38.6571 8.5565 38.7724 9.43837 38.4572 10.1945C38.143 10.9484 37.435 11.5001 36.6181 11.5001H35.9375C35.4197 11.5001 35 11.9198 35 12.4376V17.5626C35 18.0804 35.4197 18.5001 35.9375 18.5001H36.6511C37.4485 18.5001 38.1398 19.0383 38.4446 19.7751C38.7488 20.5103 38.6341 21.366 38.0715 21.9287L37.4499 22.5502C37.0838 22.9164 37.0838 23.5099 37.4499 23.8761L41.0738 27.5C41.4399 27.8661 42.0335 27.8661 42.3997 27.5L42.9776 26.9221C43.5567 26.3429 44.4385 26.2277 45.1945 26.5428C45.9483 26.857 46.4999 27.5649 46.4999 28.3816V29.0625C46.4999 29.5803 46.9196 30 47.4374 30H52.5624C53.0802 30 53.4999 29.5803 53.4999 29.0625V28.382C53.4999 27.5651 54.0516 26.8571 54.8056 26.5429C55.5617 26.2277 56.4436 26.343 57.0228 26.9222L57.3874 27.2868C57.7535 27.6529 58.3471 27.6529 58.7132 27.2868L62.3371 23.6629C62.7033 23.2968 62.7033 22.7032 62.3371 22.3371L61.9288 21.9287C61.3662 21.3661 61.2515 20.5103 61.5557 19.7751C61.8605 19.0383 62.5518 18.5001 63.3492 18.5001H64.0625C64.5803 18.5001 65 18.0804 65 17.5626V12.4376C65 11.9198 64.5803 11.5001 64.0625 11.5001H63.3822C62.5653 11.5001 61.8573 10.9484 61.5431 10.1944C61.2279 9.43833 61.3432 8.55644 61.9224 7.97722L62.287 7.6126C62.6532 7.24649 62.6532 6.65289 62.287 6.28678L58.6631 2.66286C58.297 2.29674 57.7034 2.29674 57.3373 2.66286L56.929 3.07113C56.3663 3.63384 55.5104 3.74853 54.7751 3.44433C54.0382 3.13949 53.4999 2.44804 53.4999 1.65056V0.9375C53.4999 0.419733 53.0802 0 52.5624 0L47.4374 0ZM50 22.5C54.1421 22.5 57.5 19.1421 57.5 15C57.5 10.8579 54.1421 7.5 50 7.5C45.8579 7.5 42.5 10.8579 42.5 15C42.5 19.1421 45.8579 22.5 50 22.5Z" fill="#2A4455"/>
</svg>
