<svg width="73" height="57" viewBox="0 0 73 57" fill="none" xmlns="http://www.w3.org/2000/svg">
<circle cx="59.5" cy="13.5" r="6.5" fill="#92A7B3"/>
<circle cx="12.5" cy="6.5" r="6.5" fill="#92A7B3"/>
<circle cx="34" cy="10" r="10" fill="#D3D3D3"/>
<path d="M6 45L7.34708 49.1459H11.7063L8.17963 51.7082L9.52671 55.8541L6 53.2918L2.47329 55.8541L3.82037 51.7082L0.293661 49.1459H4.65292L6 45Z" fill="#2A4455"/>
<path d="M20 45L21.3471 49.1459H25.7063L22.1796 51.7082L23.5267 55.8541L20 53.2918L16.4733 55.8541L17.8204 51.7082L14.2937 49.1459H18.6529L20 45Z" fill="#2A4455"/>
<path d="M34 45L35.3471 49.1459H39.7063L36.1796 51.7082L37.5267 55.8541L34 53.2918L30.4733 55.8541L31.8204 51.7082L28.2937 49.1459H32.6529L34 45Z" fill="#2A4455"/>
<path d="M48 45L49.3471 49.1459H53.7063L50.1796 51.7082L51.5267 55.8541L48 53.2918L44.4733 55.8541L45.8204 51.7082L42.2937 49.1459H46.6529L48 45Z" fill="#2A4455"/>
<path fill-rule="evenodd" clip-rule="evenodd" d="M47 30C47 25.5817 50.4922 22 54.8 22H65.2C69.5078 22 73 25.5817 73 30V32.6667C73 33.403 72.418 34 71.7 34H69V28.35C69 27.6045 68.3956 27 67.65 27H67V22.2141C66.4222 22.0741 65.8195 22 65.2 22H64V27H56V22H54.8C54.1805 22 53.5778 22.0741 53 22.2141V27L52.35 27C51.6044 27 51 27.6045 51 28.35V34H48.3C47.582 34 47 33.403 47 32.6667V30ZM51 34V34L69 34V34H51Z" fill="#92A7B3"/>
<path fill-rule="evenodd" clip-rule="evenodd" d="M0 23C0 18.5817 3.49218 15 7.8 15H18.2C22.5078 15 26 18.5817 26 23V25.6667C26 26.403 25.418 27 24.7 27H22V21.35C22 20.6045 21.3956 20 20.65 20H20V15.2141C19.5438 15.1036 19.0721 15.0341 18.5888 15.0098H17V20H9V15H7.8C7.18048 15 6.57782 15.0741 6 15.2141V20L5.35 20C4.60441 20 4 20.6045 4 21.35V27H1.3C0.58203 27 0 26.403 0 25.6667V23ZM4 27V27L22 27V27H4Z" fill="#92A7B3"/>
<path d="M62 45L63.3471 49.1459H67.7063L64.1796 51.7082L65.5267 55.8541L62 53.2918L58.4733 55.8541L59.8204 51.7082L56.2937 49.1459H60.6529L62 45Z" fill="#2A4455"/>
<path fill-rule="evenodd" clip-rule="evenodd" d="M53 22.2141C53.5778 22.0741 54.1805 22 54.8 22H56V27H64V22H65.2C65.8195 22 66.4222 22.0741 67 22.2141V27H67.65C68.3956 27 69 27.6044 69 28.35V34L51 34V28.35C51 27.6044 51.6044 27 52.35 27L53 27V22.2141Z" fill="#BC0000"/>
<path fill-rule="evenodd" clip-rule="evenodd" d="M6 15.2141C6.57782 15.0741 7.18048 15 7.8 15H9V20H17V15H18.2C18.8195 15 19.4222 15.0741 20 15.2141V20H20.65C21.3956 20 22 20.6044 22 21.35V27L4 27V21.35C4 20.6044 4.60442 20 5.35 20L6 20V15.2141Z" fill="#BC0000"/>
<path fill-rule="evenodd" clip-rule="evenodd" d="M26 22V30H42V22H26ZM46 22.6828V30H47C48.1046 30 49 30.8954 49 32V40H52C53.1046 40 54 39.1046 54 38V34C54 28.7751 50.6608 24.3302 46 22.6828ZM19 40V32C19 30.8954 19.8954 30 21 30L22 30V22.6828C17.3392 24.3302 14 28.7751 14 34V38C14 39.1046 14.8954 40 16 40H19Z" fill="#D3D3D3"/>
<path fill-rule="evenodd" clip-rule="evenodd" d="M22 22.6828C23.2511 22.2406 24.5975 22 26 22V30H42V22C43.4025 22 44.7489 22.2406 46 22.6828V30H47C48.1046 30 49 30.8954 49 32V40H19V32C19 30.8954 19.8954 30 21 30L22 30V22.6828Z" fill="#BC0000"/>
</svg>
