<svg width="55" height="61" viewBox="0 0 55 61" fill="none" xmlns="http://www.w3.org/2000/svg">
<path d="M0 24H55V59.12C55 60.1583 54.1583 61 53.12 61H1.88C0.841706 61 0 60.1583 0 59.12V24Z" fill="#D3D3D3"/>
<path d="M0 24H54V58.12C54 59.1583 53.1583 60 52.12 60H1.88C0.841706 60 0 59.1583 0 58.12V24Z" fill="white"/>
<path d="M42 1C42 0.447715 42.4477 0 43 0C43.5523 0 44 0.447715 44 1V15C44 15.5523 43.5523 16 43 16C42.4477 16 42 15.5523 42 15V1Z" fill="#92A7B3"/>
<path d="M10 1C10 0.447715 10.4477 0 11 0C11.5523 0 12 0.447715 12 1V15C12 15.5523 11.5523 16 11 16C10.4477 16 10 15.5523 10 15V1Z" fill="#92A7B3"/>
<path d="M47 5.88C47 4.8417 47.8417 4 48.88 4H53.12C54.1583 4 55 4.8417 55 5.88V24H47V5.88Z" fill="#071C28"/>
<path d="M40 4H14V15C14 16.6569 12.6569 18 11 18C9.34315 18 8 16.6569 8 15V4H1.88C0.841705 4 0 4.8417 0 5.88V24H54V5.88C54 4.8417 53.1583 4 52.12 4H46V15C46 16.6569 44.6569 18 43 18C41.3431 18 40 16.6569 40 15V4Z" fill="#2A4455"/>
<mask id="mask0_1401_122303" style="mask-type:alpha" maskUnits="userSpaceOnUse" x="15" y="28" width="24" height="23">
<path fill-rule="evenodd" clip-rule="evenodd" d="M37 38V41.9688C37 42.3168 37.0908 42.6589 37.2635 42.9611L38.7365 45.5387C38.9092 45.8409 39 46.183 39 46.531V48.9999C39 48.9999 39 48.9999 39 48.9999C39 48.9999 39 48.9999 39 48.9999V50C39 50.5523 38.5523 51 38 51H17C15.8954 51 15 50.1046 15 49V46C15 46 15 46 15 46C15 46 15 46 15 46V45.9999C15 45.9999 15.0001 45.9999 15.0001 45.9999L16.7889 42.4222C16.9277 42.1445 17 41.8383 17 41.5278V38C17 38 17 37.9999 17 37.9999C17.0001 32.4771 21.4772 28 27 28C32.5228 28 36.9999 32.4771 37 37.9999C37 37.9999 37 38 37 38Z" fill="#92A7B3"/>
</mask>
<g mask="url(#mask0_1401_122303)">
<path fill-rule="evenodd" clip-rule="evenodd" d="M37 38V42.4999L39 45.9999V48.9999H39V51H15V46H15V45.9999L17 41.9999V38C17 38 17 37.9999 17 37.9999C17.0001 32.4771 21.4772 28 27 28C32.5228 28 36.9999 32.4771 37 37.9999C37 37.9999 37 38 37 38Z" fill="#92A7B3"/>
<path fill-rule="evenodd" clip-rule="evenodd" d="M35 38V42.4999L37 45.9999V48.9999H37V51H13V46H13V45.9999L15 41.9999V38C15 38 15 37.9999 15 37.9999C15.0001 32.4771 19.4772 28 25 28C30.5228 28 34.9999 32.4771 35 37.9999C35 37.9999 35 38 35 38Z" fill="#D3D3D3"/>
<path d="M15 45H37V47H15V45Z" fill="#92A7B3"/>
</g>
<path d="M24 51C24 51.7956 24.3161 52.5587 24.8787 53.1213C25.4413 53.6839 26.2043 54 27 54C27.7956 54 28.5587 53.6839 29.1213 53.1213C29.6839 52.5587 30 51.7957 30 51L27 51L24 51Z" fill="#92A7B3"/>
</svg>
