<svg width="67" height="60" viewBox="0 0 67 60" fill="none" xmlns="http://www.w3.org/2000/svg">
<path d="M1 0H25V5H1V0Z" fill="#D3D3D3"/>
<path d="M4 5H22V8H4V5Z" fill="#92A7B3"/>
<path d="M32 5H50V8H32V5Z" fill="#92A7B3"/>
<path d="M29 0H53V5H29V0Z" fill="#D3D3D3"/>
<path d="M0 54H8V60H0V54Z" fill="#2A4455"/>
<path d="M54 54L54 56L-8.74229e-08 56L0 54L54 54Z" fill="white"/>
<path d="M26 8H28V54H26V8Z" fill="white"/>
<path fill-rule="evenodd" clip-rule="evenodd" d="M1.88247 8C0.84281 8 0 8.84281 0 9.88247V53.717C0 53.8132 0.00721158 53.9077 0.0211235 54L26 54V8H1.88247ZM28 8V54H37.7715C35.4155 51.1472 34 47.4889 34 43.5C34 38.5035 36.2208 34.0258 39.7292 31H36V27.9897H40.4326V30.4262C40.7566 30.1763 41.0902 29.9382 41.4326 29.7126V27.9897H44.8582C46.6184 27.3493 48.5184 27 50.5 27C51.7007 27 52.8715 27.1283 53.9994 27.3718V9.88247C53.9994 8.84281 53.1566 8 52.1169 8H28ZM5.88247 16H7V18.9966H4V17.8825C4 16.8428 4.84281 16 5.88247 16ZM4 22.9932V19.9966H7V22.9932H4ZM4 26.9897V23.9932H7V26.9897H4ZM4 29.1175V27.9897H7V31H5.88247C4.84281 31 4 30.1572 4 29.1175ZM12.4326 31H8V27.9897H12.4326V31ZM18 31H13.4326V27.9897H18V31ZM20.1175 31H19V27.9897H22V29.1175C22 30.1572 21.1572 31 20.1175 31ZM22 23.9932V26.9897H19V23.9932H22ZM22 19.9966V22.9932H19V19.9966H22ZM22 17.8825V18.9966H19V16H20.1175C21.1572 16 22 16.8428 22 17.8825ZM13.4326 16H18V18.9966H13.4326V16ZM12.4326 18.9966V16H8V18.9966H12.4326ZM18 26.9897V23.9932H13.4326V26.9897H18ZM12.4326 26.9897V23.9932H8V26.9897H12.4326ZM18 19.9966V22.9932H13.4326V19.9966H18ZM12.4326 22.9932V19.9966H8V22.9932L12.4326 22.9932ZM35 16H33.8825C32.8428 16 32 16.8428 32 17.8825V18.9966H35V16ZM32 19.9966V22.9932H35V19.9966H32ZM32 23.9932V26.9897H35V23.9932H32ZM32 27.9897V29.1175C32 30.1572 32.8428 31 33.8825 31H35V27.9897H32ZM50 26.9897V23.9932H47V26.9897H50ZM50 22.9932V19.9966H47V22.9932H50ZM50 18.9966V17.8825C50 16.8428 49.1572 16 48.1175 16H47V18.9966H50ZM46 16H41.4326V18.9966H46V16ZM40.4326 16V18.9966H36V16H40.4326ZM46 23.9932V26.9897H41.4326V23.9932H46ZM40.4326 23.9932V26.9897H36V23.9932H40.4326ZM46 22.9932V19.9966H41.4326V22.9932H46ZM40.4326 19.9966V22.9932L36 22.9932V19.9966H40.4326Z" fill="#2A4455"/>
<mask id="mask0_1401_122207" style="mask-type:alpha" maskUnits="userSpaceOnUse" x="34" y="27" width="33" height="33">
<path d="M67 43.5C67 52.6127 59.6127 60 50.5 60C41.3873 60 34 52.6127 34 43.5C34 34.3873 41.3873 27 50.5 27C59.6127 27 67 34.3873 67 43.5Z" fill="#F5F5F5"/>
</mask>
<g mask="url(#mask0_1401_122207)">
<path fill-rule="evenodd" clip-rule="evenodd" d="M54 59.628C61.4315 58.0229 67 51.4117 67 43.5C67 34.3873 59.6127 27 50.5 27C41.3873 27 34 34.3873 34 43.5C34 51.4117 39.5685 58.0229 47 59.628V48.2618C44.0515 46.9517 42 44.0375 42 40.6527C42 37.2298 44.098 34.2881 47.1 33V39.3985C47.1 39.6668 47.2079 39.9239 47.3993 40.1119L49.7993 42.4688C50.1883 42.8508 50.8117 42.8508 51.2007 42.4688L53.6007 40.1119C53.7921 39.9239 53.9 39.6668 53.9 39.3985V33C56.902 34.2881 59 37.2298 59 40.6527C59 44.0375 56.9485 46.9517 54 48.2618V59.628Z" fill="white"/>
<path fill-rule="evenodd" clip-rule="evenodd" d="M54 48.2618C56.9485 46.9517 59 44.0375 59 40.6527C59 37.2298 56.902 34.2881 53.9 33V39.3985C53.9 39.6668 53.7921 39.9239 53.6007 40.1119L51.2007 42.4688C50.8117 42.8508 50.1883 42.8508 49.7993 42.4688L47.3993 40.1119C47.2079 39.9239 47.1 39.6668 47.1 39.3985V33C44.098 34.2881 42 37.2298 42 40.6527C42 44.0375 44.0515 46.9517 47 48.2618V60H54V48.2618Z" fill="#2A4455"/>
<path fill-rule="evenodd" clip-rule="evenodd" d="M50.5 59C59.0604 59 66 52.0604 66 43.5C66 34.9396 59.0604 28 50.5 28C41.9396 28 35 34.9396 35 43.5C35 52.0604 41.9396 59 50.5 59ZM50.5 60C59.6127 60 67 52.6127 67 43.5C67 34.3873 59.6127 27 50.5 27C41.3873 27 34 34.3873 34 43.5C34 52.6127 41.3873 60 50.5 60Z" fill="#92A7B3"/>
</g>
</svg>
