<svg width="66" height="57" viewBox="0 0 66 57" fill="none" xmlns="http://www.w3.org/2000/svg">
<path fill-rule="evenodd" clip-rule="evenodd" d="M17 57C20.3137 57 23 54.3137 23 51C23 47.6863 20.3137 45 17 45C13.6863 45 11 47.6863 11 51C11 54.3137 13.6863 57 17 57ZM17 54C18.6569 54 20 52.6569 20 51C20 49.3431 18.6569 48 17 48C15.3431 48 14 49.3431 14 51C14 52.6569 15.3431 54 17 54Z" fill="#1D262C"/>
<path d="M20 51C20 52.6569 18.6569 54 17 54C15.3431 54 14 52.6569 14 51C14 49.3431 15.3431 48 17 48C18.6569 48 20 49.3431 20 51Z" fill="#F5F5F5"/>
<path d="M58 51C58 52.6569 56.6569 54 55 54C53.3431 54 52 52.6569 52 51C52 49.3431 53.3431 48 55 48C56.6569 48 58 49.3431 58 51Z" fill="#F5F5F5"/>
<path fill-rule="evenodd" clip-rule="evenodd" d="M55 57C58.3137 57 61 54.3137 61 51C61 47.6863 58.3137 45 55 45C51.6863 45 49 47.6863 49 51C49 54.3137 51.6863 57 55 57ZM55 54C56.6569 54 58 52.6569 58 51C58 49.3431 56.6569 48 55 48C53.3431 48 52 49.3431 52 51C52 52.6569 53.3431 54 55 54Z" fill="#1D262C"/>
<path fill-rule="evenodd" clip-rule="evenodd" d="M62.748 53C62.9125 52.3608 63 51.6906 63 51C63 49.9391 62.7935 48.9264 62.4185 48L66 48V51C66 52.1046 65.1046 53 64 53H62.748ZM47.252 53L24.748 53C24.9125 52.3608 25 51.6906 25 51C25 49.9391 24.7935 48.9264 24.4185 48L47.5815 48C47.2065 48.9264 47 49.9391 47 51C47 51.6906 47.0875 52.3608 47.252 53ZM8 53H9.25203C9.08751 52.3608 9 51.6906 9 51C9 49.9391 9.20651 48.9264 9.58152 48H6V51C6 52.1046 6.89543 53 8 53Z" fill="#92A7B3"/>
<path fill-rule="evenodd" clip-rule="evenodd" d="M46 26C46 24.8954 46.8954 24 48 24H58.538C59.309 24 60.0114 24.4432 60.3432 25.1391L65.8052 36.5916C65.9334 36.8605 66 37.1546 66 37.4525V46H61.2454C59.7793 44.1711 57.5264 43 55 43C52.4736 43 50.2208 44.1711 48.7546 46H46V26ZM50 26.5C49.4477 26.5 49 26.9477 49 27.5V34C49 34.5523 49.4477 35 50 35H52.6429C53.1951 35 53.6429 35.4477 53.6429 36C53.6429 36.5523 54.0906 37 54.6429 37H61.4162C62.1512 37 62.6351 36.2337 62.3191 35.5701L58.2715 27.0701C58.1056 26.7218 57.7543 26.5 57.3686 26.5H50Z" fill="#D3D3D3"/>
<path fill-rule="evenodd" clip-rule="evenodd" d="M16 33C25.3888 33 33 25.3888 33 16H42C43.1046 16 44 16.8954 44 18V46H23.2454C21.7793 44.1711 19.5264 43 17 43C14.4736 43 12.2208 44.1711 10.7546 46H6V29.7492C8.80621 31.7937 12.2622 33 16 33Z" fill="#BC0000"/>
<path d="M14.8983 21H8.02689V19.5502L10.4944 17.0486C10.9919 16.5361 11.3909 16.109 11.6912 15.7674C11.996 15.4212 12.2156 15.1065 12.3501 14.8233C12.489 14.5401 12.5585 14.2367 12.5585 13.913C12.5585 13.5219 12.4487 13.2297 12.229 13.0364C12.0139 12.8386 11.7248 12.7397 11.3617 12.7397C10.9807 12.7397 10.6109 12.8274 10.2524 13.0027C9.89377 13.178 9.5195 13.4275 9.12954 13.7512L8 12.4093C8.28238 12.1666 8.58046 11.9373 8.89422 11.7215C9.21246 11.5057 9.58001 11.3327 9.99686 11.2023C10.4182 11.0674 10.9225 11 11.5096 11C12.1551 11 12.7087 11.1169 13.1703 11.3506C13.6365 11.5844 13.9951 11.9036 14.2461 12.3082C14.4971 12.7082 14.6226 13.1623 14.6226 13.6703C14.6226 14.2142 14.515 14.7109 14.2999 15.1605C14.0847 15.61 13.771 16.0551 13.3586 16.4956C12.9507 16.9362 12.4576 17.4239 11.8794 17.9589L10.6154 19.1524V19.2468H14.8983V21Z" fill="#BC0000"/>
<path d="M23 18.9568H21.8167V21H19.7862V18.9568H15.5908V17.5071L19.9005 11.1416H21.8167V17.3385H23V18.9568ZM19.7862 17.3385V15.6662C19.7862 15.5089 19.7884 15.3223 19.7929 15.1065C19.8019 14.8908 19.8108 14.675 19.8198 14.4592C19.8288 14.2434 19.8377 14.0524 19.8467 13.886C19.8602 13.7152 19.8691 13.5961 19.8736 13.5287H19.8198C19.7346 13.713 19.645 13.8928 19.5509 14.0681C19.4567 14.2389 19.3469 14.4187 19.2214 14.6076L17.4195 17.3385H19.7862Z" fill="#BC0000"/>
<path fill-rule="evenodd" clip-rule="evenodd" d="M19.3601 3.44291C12.4269 1.58516 5.30041 5.69963 3.44266 12.6328C1.58491 19.566 5.69939 26.6925 12.6326 28.5503C19.5658 30.408 26.6923 26.2935 28.55 19.3603C28.8611 18.1995 29.0046 17.0348 28.996 15.8912L30.9959 15.8762C31.0058 17.1979 30.8399 18.5418 30.4819 19.878C28.3382 27.8781 20.1151 32.6257 12.115 30.4821C4.11482 28.3385 -0.632821 20.1153 1.51081 12.1152C3.65444 4.11506 11.8776 -0.632577 19.8777 1.51105C23.7154 2.53935 26.5675 5.16547 28.4109 8.29142L29.0168 6.03015C29.1597 5.49668 29.7081 5.1801 30.2415 5.32304C30.775 5.46599 31.0916 6.01432 30.9486 6.54779L29.396 12.3421L23.6017 10.7896C23.0682 10.6466 22.7516 10.0983 22.8946 9.56481C23.0375 9.03134 23.5859 8.71476 24.1193 8.8577L26.8517 9.58983C25.2234 6.68964 22.6931 4.33599 19.3601 3.44291Z" fill="#BC0000"/>
</svg>
