<svg width="65" height="65" viewBox="0 0 65 65" fill="none" xmlns="http://www.w3.org/2000/svg">
<path fill-rule="evenodd" clip-rule="evenodd" d="M6.36358 12.0212C4.80149 13.5833 4.80149 16.1159 6.36358 17.678L47.3758 58.6902C48.9379 60.2523 51.4705 60.2523 53.0326 58.6902L60.1037 51.6192C61.6658 50.0571 61.6658 47.5244 60.1037 45.9623L19.0915 4.95011C17.5294 3.38802 14.9967 3.38802 13.4347 4.95011L6.36358 12.0212ZM52.3249 50.9114C53.4965 49.7398 53.4965 47.8403 52.3249 46.6687C51.1533 45.4971 49.2538 45.4971 48.0823 46.6687C46.9107 47.8403 46.9107 49.7398 48.0823 50.9114C49.2538 52.0829 51.1533 52.0829 52.3249 50.9114Z" fill="#92A7B3"/>
<path d="M8.48438 19.7988L13.4341 14.8491C13.8246 14.4586 14.4578 14.4586 14.8483 14.8491C15.2389 15.2396 15.2389 15.8728 14.8483 16.2633L9.89859 21.213L8.48438 19.7988Z" fill="#2A4455"/>
<path d="M15.5566 26.8701L20.5064 21.9204C20.8969 21.5298 21.5301 21.5298 21.9206 21.9204C22.3111 22.3109 22.3111 22.9441 21.9206 23.3346L16.9709 28.2843L15.5566 26.8701Z" fill="#2A4455"/>
<path d="M22.627 33.9414L27.5767 28.9917C27.9672 28.6011 28.6004 28.6011 28.9909 28.9917C29.3814 29.3822 29.3814 30.0153 28.9909 30.4059L24.0412 35.3556L22.627 33.9414Z" fill="#2A4455"/>
<path d="M29.6992 41.0117L34.649 36.062C35.0395 35.6714 35.6727 35.6714 36.0632 36.062C36.4537 36.4525 36.4537 37.0857 36.0632 37.4762L31.1134 42.4259L29.6992 41.0117Z" fill="#2A4455"/>
<path d="M36.7695 48.083L41.7193 43.1333C42.1098 42.7427 42.743 42.7427 43.1335 43.1333C43.524 43.5238 43.524 44.1569 43.1335 44.5475L38.1837 49.4972L36.7695 48.083Z" fill="#2A4455"/>
<path d="M12.0215 23.334L14.1428 21.2127C14.5333 20.8221 15.1665 20.8221 15.557 21.2127C15.9475 21.6032 15.9475 22.2364 15.557 22.6269L13.4357 24.7482L12.0215 23.334Z" fill="#2A4455"/>
<path d="M19.0918 30.4062L21.2131 28.2849C21.6036 27.8944 22.2368 27.8944 22.6273 28.2849C23.0179 28.6755 23.0179 29.3086 22.6273 29.6991L20.506 31.8205L19.0918 30.4062Z" fill="#2A4455"/>
<path d="M26.1621 37.4766L28.2834 35.3552C28.674 34.9647 29.3071 34.9647 29.6976 35.3552C30.0882 35.7458 30.0882 36.3789 29.6976 36.7695L27.5763 38.8908L26.1621 37.4766Z" fill="#2A4455"/>
<path d="M33.2344 44.5479L35.3557 42.4265C35.7462 42.036 36.3794 42.036 36.7699 42.4265C37.1604 42.8171 37.1604 43.4502 36.7699 43.8407L34.6486 45.9621L33.2344 44.5479Z" fill="#2A4455"/>
<path d="M9.89844 45.2549L41.7182 13.4351L51.6177 23.3346L19.7979 55.1544L9.89844 45.2549Z" fill="#2A4455"/>
<path d="M41.7188 13.4355L47.3756 7.77869L57.2751 17.6782L51.6182 23.335L41.7188 13.4355Z" fill="#92A7B3"/>
<path d="M47.375 7.77832L52.3247 2.82857C53.8868 1.26648 56.4195 1.26648 57.9816 2.82857L62.2242 7.07121C63.7863 8.63331 63.7863 11.166 62.2242 12.7281L57.2745 17.6778L47.375 7.77832Z" fill="#D3D3D3"/>
<path d="M14.1426 49.498L45.9624 17.6782L47.3766 19.0925L15.5568 50.9123L14.1426 49.498Z" fill="white"/>
<path d="M11.3125 43.8398L21.212 53.7393L19.7978 55.1536L9.89829 45.2541L11.3125 43.8398Z" fill="white"/>
<mask id="mask0_1401_122169" style="mask-type:alpha" maskUnits="userSpaceOnUse" x="5" y="45" width="15" height="15">
<path d="M9.90046 45.2548L19.8 55.1543L6.84808 59.4716C6.06632 59.7322 5.32258 58.9884 5.58317 58.2067L9.90046 45.2548Z" fill="#92A7B3"/>
</mask>
<g mask="url(#mask0_1401_122169)">
<path d="M9.90046 45.2548L19.8 55.1543L6.84808 59.4716C6.06632 59.7322 5.32258 58.9884 5.58317 58.2067L9.90046 45.2548Z" fill="#92A7B3"/>
<path d="M8.48483 56.5682C9.26588 57.3493 9.26588 58.6156 8.48483 59.3966C7.70378 60.1777 6.43745 60.1777 5.6564 59.3966C4.87535 58.6156 4.87535 57.3493 5.6564 56.5682C6.43745 55.7872 7.70378 55.7872 8.48483 56.5682Z" fill="#2A4455"/>
</g>
</svg>
