<svg width="48" height="48" viewBox="0 0 48 48" fill="none" xmlns="http://www.w3.org/2000/svg">
<rect width="48" height="48" rx="6" fill="white"/>
<g clip-path="url(#clip0_1056_3073)">
<path d="M24.0109 38.0218C31.7489 38.0218 38.0218 31.7489 38.0218 24.0109C38.0218 16.2729 31.7489 10 24.0109 10C16.2729 10 10 16.2729 10 24.0109C10 31.7489 16.2729 38.0218 24.0109 38.0218Z" fill="url(#paint0_linear_1056_3073)"/>
<path fill-rule="evenodd" clip-rule="evenodd" d="M16.3289 23.858C20.41 22.0684 23.138 20.9117 24.5129 20.3443C28.3975 18.7294 29.205 18.4457 29.7288 18.4238C29.8379 18.4238 30.0998 18.4457 30.2744 18.5766C30.4053 18.6857 30.449 18.8385 30.4708 18.9476C30.4926 19.0567 30.5144 19.2968 30.4926 19.4932C30.2744 21.6974 29.3796 27.0879 28.8995 29.554C28.7031 30.6015 28.3102 30.9507 27.9392 30.9944C27.1317 31.0598 26.4988 30.4488 25.7132 29.9468C24.4911 29.1393 23.7927 28.6374 22.5924 27.8517C21.2175 26.9351 22.1123 26.4332 22.8979 25.6257C23.0943 25.4075 26.6953 22.1557 26.7607 21.8502C26.7607 21.8065 26.7826 21.6756 26.6953 21.6101C26.608 21.5446 26.4988 21.5665 26.4115 21.5883C26.2806 21.6101 24.3165 22.9195 20.4973 25.4948C19.9299 25.8876 19.4279 26.0622 18.9696 26.0622C18.4677 26.0622 17.5074 25.7785 16.7872 25.5384C15.9143 25.2547 15.2159 25.1019 15.2814 24.6218C15.325 24.3817 15.6742 24.1199 16.3289 23.858Z" fill="white"/>
</g>
<defs>
<linearGradient id="paint0_linear_1056_3073" x1="10" y1="24.0008" x2="38.0015" y2="24.0008" gradientUnits="userSpaceOnUse">
<stop stop-color="#2AABEE"/>
<stop offset="1" stop-color="#229ED9"/>
</linearGradient>
<clipPath id="clip0_1056_3073">
<rect width="28" height="28" fill="white" transform="translate(10 10)"/>
</clipPath>
</defs>
</svg>
