<svg width="48" height="48" viewBox="0 0 48 48" fill="none" xmlns="http://www.w3.org/2000/svg">
<rect width="48" height="48" rx="6" fill="white"/>
<path d="M21.5666 21.4868V20.55C21.2331 20.5061 20.8946 20.479 20.5492 20.479C16.3868 20.479 13 23.7437 13 27.7567C13 30.2189 14.2759 32.3976 16.2232 33.7148C14.9666 32.4145 14.196 30.6729 14.196 28.7597C14.196 24.8045 17.4866 21.5789 21.5672 21.4868H21.5666Z" fill="#25F4EE"/>
<path d="M21.7447 32.0836C23.602 32.0836 25.1171 30.6592 25.1858 28.8851L25.1926 13.0402H28.1953C28.1329 12.7145 28.0985 12.3798 28.0985 12.0366H23.9973L23.9904 27.8816C23.9217 29.6557 22.4066 31.0801 20.5493 31.0801C19.9723 31.0801 19.4283 30.941 18.9499 30.6984C19.5763 31.5358 20.5943 32.0836 21.7447 32.0836Z" fill="#25F4EE"/>
<path d="M33.8047 18.4177V17.537C32.6593 17.537 31.592 17.2089 30.6971 16.646C31.4939 17.5279 32.5762 18.1643 33.8047 18.4177Z" fill="#25F4EE"/>
<path d="M30.6978 16.6462C29.8247 15.68 29.2945 14.4188 29.2945 13.0396H28.196C28.4851 14.5458 29.4126 15.8383 30.6978 16.6462Z" fill="#FE2C55"/>
<path d="M20.5493 24.433C18.6483 24.433 17.1013 25.9242 17.1013 27.7567C17.1013 29.033 17.8526 30.1419 18.9499 30.6981C18.5408 30.1515 18.2973 29.4833 18.2973 28.7597C18.2973 26.9271 19.8442 25.4359 21.7453 25.4359C22.1 25.4359 22.4403 25.4925 22.7626 25.5895V21.553C22.4291 21.509 22.0906 21.4819 21.7453 21.4819C21.6853 21.4819 21.6266 21.4849 21.5673 21.4861V24.5859C21.245 24.489 20.9047 24.4324 20.5499 24.4324L20.5493 24.433Z" fill="#FE2C55"/>
<path d="M33.8046 18.4175V21.4901C31.6781 21.4901 29.7071 20.8346 28.0983 19.7214V27.7565C28.0983 31.7695 24.7116 35.0336 20.5491 35.0336C18.9404 35.0336 17.449 34.5448 16.2224 33.7146C17.6014 35.142 19.5661 36.0366 21.7445 36.0366C25.9075 36.0366 29.2937 32.7718 29.2937 28.7594V20.725C30.9024 21.8381 32.8734 22.4937 34.9999 22.4937V18.5397C34.5896 18.5397 34.1899 18.4969 33.8046 18.4175Z" fill="#FE2C55"/>
<path d="M28.0985 27.7569V19.7219C29.7072 20.835 31.6782 21.4906 33.8047 21.4906V18.4179C32.5763 18.1645 31.494 17.5288 30.6971 16.6462C29.4118 15.8383 28.4844 14.5464 28.1953 13.0396H25.1926L25.1857 28.8845C25.117 30.6586 23.6019 32.083 21.7446 32.083C20.5942 32.083 19.5762 31.5351 18.9499 30.6978C17.8526 30.1409 17.1013 29.032 17.1013 27.7563C17.1013 25.9238 18.6482 24.4326 20.5493 24.4326C20.904 24.4326 21.2443 24.4892 21.5666 24.5861V21.4864C17.486 21.5785 14.1954 24.8041 14.1954 28.7593C14.1954 30.6725 14.966 32.4141 16.2226 33.7144C17.4485 34.544 18.9405 35.0334 20.5493 35.0334C24.7117 35.0334 28.0985 31.7687 28.0985 27.7563V27.7569Z" fill="black"/>
</svg>
