<svg width="20" height="21" viewBox="0 0 20 21" fill="none" xmlns="http://www.w3.org/2000/svg">
<path fill-rule="evenodd" clip-rule="evenodd" d="M7.61111 2.09961C7.37726 2.09961 7.1518 2.193 6.98464 2.36114C6.81729 2.52947 6.72222 2.75903 6.72222 2.99961V3.99963H13.2778V2.99961C13.2778 2.75903 13.1827 2.52948 13.0154 2.36114C12.8482 2.193 12.6227 2.09961 12.3889 2.09961H7.61111ZM15.2778 3.99963V2.99961C15.2778 2.23237 14.9748 1.49538 14.4337 0.951076C13.8924 0.406578 13.157 0.0996094 12.3889 0.0996094H7.61111C6.84303 0.0996094 6.1076 0.406578 5.56629 0.951076C5.02517 1.49538 4.72222 2.23237 4.72222 2.99961V3.99963H1C0.447715 3.99963 0 4.44734 0 4.99963C0 5.55191 0.447715 5.99963 1 5.99963H1.88889L1.88889 18.0996C1.88889 18.8669 2.19184 19.6039 2.73295 20.1482C3.27427 20.6927 4.0097 20.9996 4.77778 20.9996H15.2222C15.9903 20.9996 16.7257 20.6927 17.267 20.1482C17.8082 19.6039 18.1111 18.8669 18.1111 18.0996V5.99963H19C19.5523 5.99963 20 5.55191 20 4.99963C20 4.44734 19.5523 3.99963 19 3.99963H17.1118H17.1104H15.2778ZM3.88889 5.99963L3.88889 18.0996C3.88889 18.3402 3.98396 18.5698 4.15131 18.7381C4.31846 18.9062 4.54393 18.9996 4.77778 18.9996H15.2222C15.4561 18.9996 15.6815 18.9062 15.8487 18.7381C16.016 18.5698 16.1111 18.3402 16.1111 18.0996V5.99963H3.88889ZM7.61111 8.54964C8.16339 8.54964 8.61111 8.99736 8.61111 9.54964V15.2496C8.61111 15.8019 8.16339 16.2496 7.61111 16.2496C7.05883 16.2496 6.61111 15.8019 6.61111 15.2496V9.54964C6.61111 8.99736 7.05883 8.54964 7.61111 8.54964ZM12.3889 8.54964C12.9412 8.54964 13.3889 8.99736 13.3889 9.54964V15.2496C13.3889 15.8019 12.9412 16.2496 12.3889 16.2496C11.8366 16.2496 11.3889 15.8019 11.3889 15.2496V9.54964C11.3889 8.99736 11.8366 8.54964 12.3889 8.54964Z" fill="#2A4455"/>
</svg>
