<svg width="18" height="16" viewBox="0 0 18 16" fill="none" xmlns="http://www.w3.org/2000/svg">
<path fill-rule="evenodd" clip-rule="evenodd" d="M7.52699 0.850915L0.230873 13.3485C0.0804442 13.6158 0.000849055 13.9188 6.75527e-06 14.2275C-0.000835544 14.5361 0.0771043 14.8396 0.226072 15.1078C0.37504 15.3759 0.589844 15.5994 0.849112 15.7559C1.10838 15.9125 1.40308 15.9966 1.70388 16H16.2961C16.5969 15.9966 16.8916 15.9125 17.1509 15.7559C17.4102 15.5994 17.625 15.3759 17.7739 15.1078C17.9229 14.8396 18.0008 14.5361 18 14.2275C17.9992 13.9188 17.9196 13.6158 17.7691 13.3485L10.473 0.850915C10.3194 0.591159 10.1032 0.376397 9.84521 0.227349C9.58719 0.0783015 9.2961 0 9 0C8.7039 0 8.4128 0.0783015 8.15479 0.227349C7.89678 0.376397 7.68056 0.591159 7.52699 0.850915ZM9.99026 5.00456C9.99026 4.44976 9.54468 4 8.99503 4C8.44537 4 7.99979 4.44976 7.99979 5.00456V9C7.99979 9.5548 8.44537 10.0046 8.99503 10.0046C9.54468 10.0046 9.99026 9.5548 9.99026 9V5.00456ZM8.99503 11.9909C8.44537 11.9909 7.99979 12.4406 7.99979 12.9954C7.99979 13.5502 8.44537 14 8.99503 14H9.00455C9.5542 14 9.99979 13.5502 9.99979 12.9954C9.99979 12.4406 9.5542 11.9909 9.00455 11.9909H8.99503Z" fill="#2A4455"/>
</svg>
