<svg width="56" height="56" viewBox="0 0 56 56" fill="none" xmlns="http://www.w3.org/2000/svg">
<path fill-rule="evenodd" clip-rule="evenodd" d="M21.0707 14.4282C20.2947 14.8312 19.5569 15.2978 18.8641 15.8212L16.4146 12.5789C17.2877 11.9192 18.2183 11.3307 19.1976 10.822L21.0707 14.4282ZM16.9197 17.5637C16.3224 18.1965 15.7779 18.8794 15.2931 19.6051L11.914 17.348C12.5255 16.4326 13.2119 15.5719 13.9644 14.7745L16.9197 17.5637ZM14.0319 21.888C13.6798 22.6758 13.3914 23.4983 13.1733 24.3492L9.23699 23.34C9.51267 22.2647 9.8771 21.2252 10.322 20.2299L14.0319 21.888ZM12.7406 26.922C12.7049 27.3527 12.6866 27.7888 12.6866 28.2297C12.6866 28.6433 12.702 29.052 12.7323 29.4553L8.68014 29.76C8.64211 29.2541 8.62305 28.7438 8.62305 28.2297C8.62305 27.6767 8.64594 27.1285 8.6909 26.5863L12.7406 26.922ZM13.1041 31.8599C13.1981 32.2549 13.3078 32.6434 13.4328 33.0247L9.57127 34.2902C9.41105 33.8013 9.27091 33.3047 9.15102 32.8012L13.1041 31.8599Z" fill="#0C1D28"/>
<path d="M33.6866 31.7477C33.6866 34.7631 31.2456 37.2185 28.2159 37.2185C25.1861 37.2185 22.7451 34.7774 22.7451 31.7477C22.7451 28.7179 28.2159 19.2554 28.2159 19.2554C28.2159 19.2554 33.6866 28.7323 33.6866 31.7477Z" fill="#0C1D28"/>
<path d="M23.478 13.4253C23.8902 13.2932 24.31 13.1777 24.7365 13.0797L26.4108 12.7891C27.0087 12.7241 27.624 12.6861 28.2302 12.6861C36.8148 12.6861 43.7738 19.6452 43.7738 28.2297C43.7738 36.8143 36.8148 43.7733 28.2302 43.7733V47.8369C39.059 47.8369 47.8374 39.0585 47.8374 28.2297C47.8374 17.4009 39.059 8.62256 28.2302 8.62256C27.458 8.62256 26.6948 8.67073 25.9717 8.74933L23.8265 9.11929C23.288 9.24302 22.7579 9.38885 22.2373 9.55577L23.478 13.4253Z" fill="#0C1D28"/>
</svg>
