<svg width="56" height="56" viewBox="0 0 56 56" fill="none" xmlns="http://www.w3.org/2000/svg">
<path d="M50.2876 19.4321C47.7956 19.4321 46.4516 18.3541 45.4576 17.5701C44.6456 16.9261 44.2116 16.5761 43.1196 16.5761C42.0276 16.5761 41.5796 16.9261 40.7676 17.5701C39.7876 18.3541 38.4296 19.4321 35.9516 19.4321C33.4736 19.4321 32.1156 18.3541 31.1356 17.5701C30.3376 16.9261 29.8896 16.5761 28.7976 16.5761C27.7056 16.5761 27.2576 16.9261 26.4596 17.5701C25.4796 18.3541 24.1216 19.4321 21.6436 19.4321C19.1656 19.4321 17.8076 18.3541 16.8276 17.5701C16.0296 16.9261 15.5816 16.5761 14.4896 16.5761V12.6001C16.9816 12.6001 18.3256 13.6781 19.3056 14.4621C20.1036 15.1061 20.5516 15.4561 21.6436 15.4561C22.7356 15.4561 23.1836 15.1061 23.9816 14.4621C24.9616 13.6781 26.3196 12.6001 28.7976 12.6001C31.2756 12.6001 32.6336 13.6781 33.6136 14.4621C34.4256 15.1061 34.8596 15.4561 35.9516 15.4561C37.0436 15.4561 37.4916 15.1061 38.2896 14.4621C39.2696 13.6781 40.6276 12.6001 43.1196 12.6001C45.6116 12.6001 46.9556 13.6781 47.9356 14.4621C48.7476 15.1061 49.1816 15.4561 50.2876 15.4561V19.4321Z" fill="#0C1D28"/>
<path d="M50.2876 25.1861V29.1621C47.7956 29.1621 46.4376 28.0841 45.4576 27.2861C44.6596 26.6421 44.2116 26.2921 43.1196 26.2921C42.0276 26.2921 41.5656 26.6561 40.7676 27.2861C39.7876 28.0841 38.4296 29.1621 35.9516 29.1621C33.4736 29.1621 32.1156 28.0841 31.1216 27.2861C30.3236 26.6421 29.8756 26.2921 28.7836 26.2921C27.6916 26.2921 27.2436 26.6421 26.4456 27.2861C26.2776 27.4261 26.0956 27.5801 25.8856 27.7201C25.2416 26.5581 24.4016 25.5081 23.4216 24.6261C23.5896 24.4861 23.7716 24.3461 23.9676 24.1921C24.9476 23.4081 26.2916 22.3301 28.7836 22.3301C31.2756 22.3301 32.6196 23.4081 33.5996 24.1921C34.4116 24.8361 34.8456 25.1861 35.9516 25.1861C37.0576 25.1861 37.4916 24.8361 38.2896 24.1921C39.2696 23.4081 40.6276 22.3301 43.1196 22.3301C45.6116 22.3301 46.9556 23.4081 47.9356 24.1921C48.7476 24.8361 49.1816 25.1861 50.2876 25.1861Z" fill="#0C1D28"/>
<path d="M50.2876 34.9161V38.8781C47.7956 38.8781 46.4376 37.8001 45.4576 37.0161C44.6596 36.3721 44.2116 36.0081 43.1196 36.0081C42.0276 36.0081 41.5656 36.3721 40.7676 37.0161C39.7876 37.8001 38.4296 38.8781 35.9516 38.8781C33.4736 38.8781 32.1156 37.8001 31.1216 37.0161C30.3236 36.3721 29.8756 36.0081 28.7836 36.0081C28.0416 36.0081 27.5936 36.1761 27.1316 36.4841C27.3416 35.6021 27.4536 34.6781 27.4536 33.7261C27.4536 33.2081 27.4256 32.6901 27.3556 32.1861C27.7896 32.0881 28.2656 32.0461 28.7836 32.0461C31.2616 32.0461 32.6196 33.1241 33.5996 33.9081C34.4116 34.5521 34.8456 34.9161 35.9516 34.9161C37.0576 34.9161 37.4916 34.5521 38.2896 33.9081C39.2696 33.1241 40.6276 32.0461 43.1196 32.0461C45.6116 32.0461 46.9556 33.1241 47.9356 33.9081C48.7476 34.5521 49.1816 34.9161 50.2876 34.9161Z" fill="#0C1D28"/>
<path d="M24.6676 33.3761C24.6116 31.7661 24.1636 30.2541 23.3936 28.9521C21.7556 26.0961 18.6756 24.1781 15.1476 24.1781C14.9236 24.1781 14.6856 24.1921 14.4616 24.2201C9.50561 24.5561 5.59961 28.6721 5.59961 33.7261C5.59961 38.7801 9.86961 43.2601 15.1476 43.2601C18.5916 43.2601 21.6016 41.4401 23.2816 38.6961C24.1776 37.2541 24.6816 35.5461 24.6816 33.7261C24.6816 33.6141 24.6816 33.4881 24.6676 33.3761ZM15.7916 39.5361C15.5396 39.7881 15.2036 39.9001 14.7976 39.9001C14.3916 39.9001 14.0836 39.7741 13.8176 39.5361C13.5516 39.2841 13.4256 39.0041 13.4256 38.6681C13.4256 38.3321 13.5516 38.0381 13.8176 37.8001C14.0836 37.5481 14.4056 37.4361 14.7976 37.4361C15.1896 37.4361 15.5256 37.5621 15.7916 37.8001C16.0436 38.0521 16.1836 38.3321 16.1836 38.6681C16.1836 39.0041 16.0576 39.2981 15.7916 39.5361ZM18.8156 32.9281C18.4796 33.4321 18.0316 33.8521 17.4856 34.1601C16.9396 34.4681 16.3656 34.6641 15.7496 34.7341L15.6516 36.3441H13.9156L13.5796 33.3481H14.0976C14.7696 33.3481 15.3296 33.2361 15.7916 32.9981C16.2396 32.7741 16.5896 32.4801 16.8136 32.1441C17.0376 31.8081 17.1496 31.4721 17.1496 31.1501C17.1496 30.7721 17.0656 30.4501 16.8976 30.1981C16.7296 29.9461 16.4916 29.7361 16.1836 29.5961C15.8756 29.4561 15.5116 29.3861 15.0776 29.3861C14.5456 29.3861 14.0696 29.5121 13.6216 29.7641C13.1736 30.0161 12.7956 30.3661 12.5016 30.8281L10.9756 29.6381C11.3396 29.1901 11.7176 28.8121 12.1236 28.4901C12.5296 28.1821 12.9916 27.9301 13.4956 27.7621C13.9996 27.5941 14.6016 27.5101 15.2596 27.5101C15.7916 27.5101 16.3096 27.5941 16.7996 27.7621C17.2896 27.9301 17.7236 28.1681 18.1156 28.4901C18.5076 28.8121 18.8016 29.1901 19.0256 29.6381C19.2496 30.0861 19.3476 30.5761 19.3476 31.1361C19.3476 31.8081 19.1796 32.3961 18.8296 32.9141L18.8156 32.9281Z" fill="#0C1D28"/>
</svg>
