<svg width="140" height="48" viewBox="0 0 140 48" fill="none" xmlns="http://www.w3.org/2000/svg">
<path fill-rule="evenodd" clip-rule="evenodd" d="M37.8645 4.12109C34.7681 4.48589 32.6221 5.76834 31.3083 8.03914C30.9491 8.65975 30.4217 10.1176 30.5201 10.2174C30.555 10.2526 31.6501 10.5336 32.9538 10.8417L35.3242 11.4019L35.7054 10.589C36.4621 8.97533 37.4042 8.35591 39.234 8.26882C40.6998 8.19906 41.5681 8.44741 42.3483 9.15926C43.0666 9.81429 43.3872 10.5884 43.3792 11.6476C43.3615 13.9691 41.6096 15.4381 38.8526 15.4431L37.9637 15.4447V17.3787V19.3127H39.1424C40.5291 19.3127 41.4909 19.4964 42.3094 19.9176C44.0147 20.7952 44.6338 22.6181 43.7852 24.2635C43.0531 25.6829 41.7374 26.3014 39.4781 26.2885C36.9476 26.2738 35.7385 25.5045 34.8775 23.3612L34.5981 22.6655L32.3303 23.4173C30.6879 23.9619 30.0625 24.2263 30.0625 24.3762C30.0625 24.49 30.3602 25.1978 30.7242 25.9493C32.0736 28.7353 33.9715 29.965 37.5686 30.3841C41.7348 30.8694 45.4951 29.9603 47.4249 28.0012C49.4636 25.9314 49.9978 22.7131 48.7482 20.0274C48.226 18.9051 47.1116 17.8809 45.596 17.1305L44.4192 16.5479L45.1911 16.0653C47.4868 14.6301 48.6095 12.6417 48.4635 10.2703C48.3673 8.70897 47.7945 7.54123 46.534 6.33694C45.1223 4.98806 43.6422 4.38065 41.1075 4.11029C39.7053 3.96063 39.2122 3.96237 37.8645 4.12109ZM54.4245 17.3149V30.1222L56.9503 30.0861L59.4759 30.0498L64.5552 21.7472L69.6343 13.4445L69.7002 21.7472L69.766 30.0498L72.1035 30.0862L74.4409 30.1226V17.3151V4.50749L71.9059 4.51256L69.371 4.51763L64.301 12.9807L59.2311 21.4438L59.1973 12.9757L59.1633 4.50749H56.794H54.4245V17.3149ZM89.4532 5.77461V7.04172H88.9762C88.0422 7.04172 85.6903 7.46747 84.5193 7.84854C82.1497 8.61974 80.4687 10.0428 79.4566 12.1343C78.6134 13.8767 78.4566 14.6519 78.463 17.0452C78.4693 19.4338 78.6308 20.2214 79.4682 21.9502C80.521 24.1241 82.3253 25.6257 84.7783 26.37C85.7999 26.6798 88.0266 27.0468 88.8935 27.048L89.4532 27.0488V28.5826V30.1165H91.8851H94.3169L94.3542 28.6202L94.3914 27.1241L95.8641 26.9581C101.075 26.3705 103.679 24.4746 104.994 20.3131C105.388 19.0622 105.506 16.0893 105.214 14.7111C104.237 10.0897 101.281 7.69541 95.8729 7.14535L94.3256 6.98797V5.74766V4.50749H91.8894H89.4532V5.77461ZM89.4532 17.0452V22.7806L88.7618 22.7786C87.8641 22.7761 86.581 22.4657 85.7964 22.0613C84.014 21.1425 83.1384 19.2369 83.3078 16.6451C83.4458 14.5345 84.0746 13.1691 85.3051 12.3077C86.0729 11.7703 87.5873 11.328 88.696 11.3172L89.4532 11.3099V17.0452ZM96.5354 11.5114C98.2749 11.9268 99.2619 12.6644 99.9412 14.0567C100.384 14.9637 100.432 15.1735 100.487 16.4313C100.591 18.7952 100.135 20.4032 99.1015 21.3229C98.1574 22.1624 96.4397 22.7746 95.017 22.7786L94.3256 22.7806V17.0452V11.3099L95.017 11.3119C95.3971 11.313 96.0806 11.4027 96.5354 11.5114Z" fill="black"/>
<path d="M30 36.8858H30.9257V39.9493C31.3488 39.9493 31.6463 39.8682 31.8181 39.7059C31.9898 39.5405 32.2093 39.146 32.4766 38.5225C32.6706 38.0644 32.8297 37.7415 32.9537 37.5538C33.081 37.363 33.2607 37.2039 33.493 37.0767C33.7252 36.9462 33.9813 36.881 34.2612 36.881C34.6175 36.881 34.8052 36.8842 34.8243 36.8906V37.6922C34.7925 37.6922 34.7304 37.6906 34.6382 37.6874C34.5364 37.6843 34.4744 37.6827 34.4521 37.6827C34.1562 37.6827 33.9367 37.7543 33.7936 37.8974C33.6472 38.0406 33.4802 38.346 33.2925 38.8136C33.0571 39.4053 32.8583 39.7791 32.6961 39.935C32.5338 40.0877 32.3398 40.2101 32.1139 40.3024C32.5656 40.4265 33.011 40.8432 33.45 41.5526L34.8911 43.8812H33.7411L32.572 41.9821C32.2507 41.4572 31.9819 41.0977 31.7656 40.9036C31.5492 40.7064 31.2693 40.6078 30.9257 40.6078V43.8812H30V36.8858Z" fill="black"/>
<path d="M35.2871 40.4742C35.2871 39.313 35.5989 38.4048 36.2224 37.7495C36.8459 37.091 37.6508 36.7617 38.6369 36.7617C39.2827 36.7617 39.8649 36.916 40.3834 37.2246C40.902 37.5332 41.2964 37.9642 41.5668 38.5177C41.8404 39.0681 41.9772 39.6932 41.9772 40.3931C41.9772 41.1025 41.834 41.7371 41.5477 42.297C41.2614 42.8569 40.8558 43.2816 40.3309 43.5711C39.806 43.8574 39.2398 44.0005 38.6322 44.0005C37.9737 44.0005 37.3851 43.8415 36.8666 43.5233C36.3481 43.2052 35.9552 42.771 35.688 42.2207C35.4208 41.6703 35.2871 41.0881 35.2871 40.4742ZM36.2415 40.4885C36.2415 41.3315 36.4674 41.9964 36.9191 42.4831C37.374 42.9666 37.9434 43.2084 38.6274 43.2084C39.3241 43.2084 39.8967 42.9635 40.3452 42.4736C40.797 41.9837 41.0228 41.2886 41.0228 40.3883C41.0228 39.8188 40.9258 39.3226 40.7318 38.8995C40.5409 38.4732 40.2594 38.1439 39.8872 37.9117C39.5181 37.6763 39.103 37.5586 38.6417 37.5586C37.9864 37.5586 37.4217 37.7845 36.9477 38.2362C36.4769 38.6848 36.2415 39.4355 36.2415 40.4885Z" fill="black"/>
<path d="M43.1463 43.8812V36.8858H44.5397L46.1955 41.8389C46.3482 42.3002 46.4595 42.6453 46.5295 42.8744C46.609 42.6199 46.7331 42.2461 46.9017 41.753L48.5766 36.8858H49.822V43.8812H48.9297V38.0262L46.8969 43.8812H46.0619L44.0386 37.926V43.8812H43.1463Z" fill="black"/>
<path d="M51.3251 36.8858H56.827V43.8812H55.8965V37.7113H52.2509V43.8812H51.3251V36.8858Z" fill="black"/>
<path d="M58.3397 43.8812V36.8858H60.9785C61.4429 36.8858 61.7976 36.9081 62.0426 36.9526C62.3862 37.0099 62.6741 37.1196 62.9063 37.2818C63.1385 37.4409 63.3246 37.6652 63.4646 37.9547C63.6077 38.2442 63.6793 38.5623 63.6793 38.909C63.6793 39.5039 63.49 40.0081 63.1115 40.4217C62.7329 40.8321 62.049 41.0372 61.0596 41.0372H59.2654V43.8812H58.3397ZM59.2654 40.2117H61.0739C61.672 40.2117 62.0967 40.1004 62.348 39.8777C62.5993 39.655 62.725 39.3417 62.725 38.9377C62.725 38.645 62.6502 38.3953 62.5007 38.1885C62.3544 37.9785 62.1603 37.8401 61.9185 37.7733C61.7626 37.732 61.4748 37.7113 61.0548 37.7113H59.2654V40.2117Z" fill="black"/>
<path d="M64.877 43.8812V36.8858H69.9351V37.7113H65.8028V39.8538H69.6727V40.6746H65.8028V43.0557H70.0974V43.8812H64.877Z" fill="black"/>
<path d="M76.3675 41.4285L77.2932 41.6624C77.0992 42.4227 76.7493 43.0032 76.2435 43.4041C75.7408 43.8017 75.1253 44.0005 74.3968 44.0005C73.6428 44.0005 73.0289 43.8478 72.5549 43.5424C72.084 43.2339 71.7246 42.7885 71.4764 42.2063C71.2315 41.6242 71.109 40.9991 71.109 40.331C71.109 39.6025 71.2474 38.9679 71.5241 38.4271C71.8041 37.8831 72.2001 37.4711 72.7123 37.1912C73.2277 36.9081 73.7939 36.7665 74.4111 36.7665C75.1109 36.7665 75.6995 36.9446 76.1766 37.3009C76.6538 37.6572 76.9863 38.1583 77.174 38.804L76.2625 39.0188C76.1003 38.5098 75.8649 38.1392 75.5563 37.9069C75.2477 37.6747 74.8596 37.5586 74.392 37.5586C73.8544 37.5586 73.4042 37.6874 73.0416 37.9451C72.6821 38.2028 72.4292 38.5496 72.2829 38.9854C72.1365 39.418 72.0634 39.865 72.0634 40.3262C72.0634 40.9211 72.1493 41.4413 72.321 41.8866C72.496 42.3288 72.7664 42.6597 73.1322 42.8792C73.4981 43.0987 73.8941 43.2084 74.3204 43.2084C74.839 43.2084 75.278 43.0589 75.6374 42.7599C75.9969 42.4608 76.2403 42.0171 76.3675 41.4285Z" fill="black"/>
<path d="M83.4298 41.4285L84.3555 41.6624C84.1614 42.4227 83.8115 43.0032 83.3057 43.4041C82.8031 43.8017 82.1875 44.0005 81.459 44.0005C80.7051 44.0005 80.0911 43.8478 79.6171 43.5424C79.1463 43.2339 78.7868 42.7885 78.5387 42.2063C78.2937 41.6242 78.1713 40.9991 78.1713 40.331C78.1713 39.6025 78.3096 38.9679 78.5864 38.4271C78.8663 37.8831 79.2624 37.4711 79.7746 37.1912C80.2899 36.9081 80.8562 36.7665 81.4733 36.7665C82.1732 36.7665 82.7617 36.9446 83.2389 37.3009C83.7161 37.6572 84.0485 38.1583 84.2362 38.804L83.3248 39.0188C83.1625 38.5098 82.9271 38.1392 82.6186 37.9069C82.31 37.6747 81.9219 37.5586 81.4542 37.5586C80.9166 37.5586 80.4665 37.6874 80.1038 37.9451C79.7444 38.2028 79.4915 38.5496 79.3451 38.9854C79.1988 39.418 79.1256 39.865 79.1256 40.3262C79.1256 40.9211 79.2115 41.4413 79.3833 41.8866C79.5583 42.3288 79.8287 42.6597 80.1945 42.8792C80.5603 43.0987 80.9564 43.2084 81.3827 43.2084C81.9012 43.2084 82.3402 43.0589 82.6997 42.7599C83.0592 42.4608 83.3025 42.0171 83.4298 41.4285Z" fill="black"/>
<path d="M84.9997 40.4742C84.9997 39.313 85.3115 38.4048 85.935 37.7495C86.5585 37.091 87.3633 36.7617 88.3495 36.7617C88.9953 36.7617 89.5774 36.916 90.096 37.2246C90.6145 37.5332 91.009 37.9642 91.2794 38.5177C91.553 39.0681 91.6897 39.6932 91.6897 40.3931C91.6897 41.1025 91.5466 41.7371 91.2603 42.297C90.974 42.8569 90.5684 43.2816 90.0435 43.5711C89.5186 43.8574 88.9523 44.0005 88.3447 44.0005C87.6862 44.0005 87.0977 43.8415 86.5792 43.5233C86.0606 43.2052 85.6677 42.771 85.4005 42.2207C85.1333 41.6703 84.9997 41.0881 84.9997 40.4742ZM85.954 40.4885C85.954 41.3315 86.1799 41.9964 86.6316 42.4831C87.0866 42.9666 87.656 43.2084 88.3399 43.2084C89.0366 43.2084 89.6092 42.9635 90.0578 42.4736C90.5095 41.9837 90.7354 41.2886 90.7354 40.3883C90.7354 39.8188 90.6384 39.3226 90.4443 38.8995C90.2534 38.4732 89.9719 38.1439 89.5997 37.9117C89.2307 37.6763 88.8155 37.5586 88.3543 37.5586C87.6989 37.5586 87.1343 37.7845 86.6603 38.2362C86.1895 38.6848 85.954 39.4355 85.954 40.4885Z" fill="black"/>
<path d="M92.8875 43.8812V36.8858H95.5263C95.9907 36.8858 96.3454 36.9081 96.5904 36.9526C96.934 37.0099 97.2218 37.1196 97.4541 37.2818C97.6863 37.4409 97.8724 37.6652 98.0124 37.9547C98.1555 38.2442 98.2271 38.5623 98.2271 38.909C98.2271 39.5039 98.0378 40.0081 97.6593 40.4217C97.2807 40.8321 96.5967 41.0372 95.6074 41.0372H93.8132V43.8812H92.8875ZM93.8132 40.2117H95.6217C96.2198 40.2117 96.6445 40.1004 96.8958 39.8777C97.1471 39.655 97.2728 39.3417 97.2728 38.9377C97.2728 38.645 97.198 38.3953 97.0485 38.1885C96.9021 37.9785 96.7081 37.8401 96.4663 37.7733C96.3104 37.732 96.0225 37.7113 95.6026 37.7113H93.8132V40.2117Z" fill="black"/>
<path d="M99.4535 36.8858H100.379V39.8729H102.049C103.144 39.8729 103.863 40.0749 104.206 40.4789C104.553 40.883 104.726 41.341 104.726 41.8532C104.726 42.394 104.542 42.868 104.173 43.2752C103.804 43.6792 103.118 43.8812 102.116 43.8812H99.4535V36.8858ZM100.379 43.0939H102.073C102.655 43.0939 103.077 42.9969 103.338 42.8028C103.602 42.6056 103.734 42.2922 103.734 41.8628C103.734 41.5701 103.654 41.3251 103.495 41.1279C103.336 40.9307 103.131 40.805 102.88 40.7509C102.628 40.6969 102.208 40.6698 101.62 40.6698H100.379V43.0939ZM105.566 36.8858H106.492V43.8812H105.566V36.8858Z" fill="black"/>
<path d="M105.1 7.32301V4.7582H104.008V4.41504H106.636V4.7582H105.539V7.32301H105.1Z" fill="black"/>
<path d="M107.075 7.32301V4.41504H107.735L108.52 6.47402C108.593 6.66577 108.645 6.80925 108.679 6.90447C108.716 6.79867 108.775 6.64329 108.855 6.43832L109.649 4.41504H110.239V7.32301H109.816V4.88912L108.853 7.32301H108.457L107.498 4.84747V7.32301H107.075Z" fill="black"/>
</svg>
