<svg width="24" height="24" viewBox="0 0 24 24" fill="none" xmlns="http://www.w3.org/2000/svg">
<path d="M5.1255 3.0084C5.02445 3.00068 4.88415 3 4.62217 3H2.00272C1.44893 3 1 2.55229 1 2C1 1.44772 1.44893 1 2.00272 1L4.65116 1C4.8727 0.999975 5.09146 0.999948 5.27856 1.01423C5.48635 1.03009 5.72833 1.06738 5.97755 1.18097C6.32744 1.34044 6.62396 1.5969 6.83174 1.91979C6.97973 2.14977 7.05097 2.38339 7.0961 2.58629C7.13674 2.769 7.16765 2.98498 7.19895 3.20371L8.61815 13.1111C8.69009 13.6133 8.73677 13.9344 8.7909 14.1777C8.84231 14.4089 8.88566 14.4953 8.9145 14.5401C9.01839 14.7016 9.16665 14.8298 9.34159 14.9095C9.39016 14.9317 9.48208 14.9622 9.71878 14.9803C9.96799 14.9993 10.2933 15 10.802 15H18.1506C18.6792 15 19.0182 14.9993 19.2775 14.9791C19.5243 14.9599 19.6189 14.9273 19.6679 14.9042C19.847 14.8198 19.9971 14.6844 20.0991 14.515C20.127 14.4687 20.1689 14.378 20.2127 14.135C20.2576 13.8857 20.2915 13.559 20.3421 13.0551L20.9492 7H11.0272C10.4735 7 10.0245 6.55229 10.0245 6C10.0245 5.44772 10.4735 5 11.0272 5L21.1958 5C21.3269 4.99995 21.4807 4.99989 21.6152 5.01127C21.7688 5.02426 21.994 5.0578 22.2258 5.18445C22.5224 5.34647 22.7556 5.60342 22.8877 5.91386C22.991 6.1565 23.0021 6.38332 22.9997 6.53704C22.9977 6.67161 22.9823 6.82427 22.9692 6.95435L22.3376 13.254C22.2896 13.7322 22.248 14.1471 22.1866 14.4885C22.1214 14.8506 22.0219 15.2067 21.8182 15.545C21.5121 16.0531 21.0619 16.4594 20.5245 16.7125C20.1667 16.8811 19.8015 16.9443 19.4337 16.973C19.087 17 18.6689 17 18.187 17H10.7667C10.3034 17 9.90066 17 9.56572 16.9745C9.20977 16.9473 8.85649 16.8874 8.50801 16.7286C7.98317 16.4894 7.53839 16.1047 7.22672 15.6203C7.01978 15.2988 6.91035 14.9584 6.83304 14.6109C6.7603 14.2838 6.70335 13.8862 6.63786 13.4289L5.21776 3.51515C5.18073 3.25668 5.16018 3.11805 5.13824 3.01942L5.13593 3.00924L5.1255 3.0084Z" fill="black"/>
<path d="M12.03 21C12.03 22.1046 11.1321 23 10.0245 23C8.91694 23 8.01907 22.1046 8.01907 21C8.01907 19.8954 8.91694 19 10.0245 19C11.1321 19 12.03 19.8954 12.03 21Z" fill="black"/>
<path d="M19.049 23C20.1566 23 21.0545 22.1046 21.0545 21C21.0545 19.8954 20.1566 19 19.049 19C17.9415 19 17.0436 19.8954 17.0436 21C17.0436 22.1046 17.9415 23 19.049 23Z" fill="black"/>
</svg>
