<svg width="24" height="24" viewBox="0 0 24 24" fill="none" xmlns="http://www.w3.org/2000/svg">
<path fill-rule="evenodd" clip-rule="evenodd" d="M12 5C10.4066 5 8.87978 5.62892 7.75505 6.74635C6.63055 7.86355 6 9.37741 6 10.9545C6 13.2547 7.51297 15.5215 9.22371 17.3156C10.0582 18.1907 10.8962 18.908 11.5267 19.4068C11.7029 19.5462 11.8622 19.668 12 19.7709C12.1378 19.668 12.2971 19.5462 12.4733 19.4068C13.1038 18.908 13.9418 18.1907 14.7763 17.3156C16.487 15.5215 18 13.2547 18 10.9545C18 9.37741 17.3695 7.86355 16.2449 6.74635C15.1202 5.62892 13.5934 5 12 5ZM12 21C11.4478 21.8337 11.4473 21.8334 11.4473 21.8334L11.4448 21.8317L11.4392 21.828L11.4206 21.8155C11.4049 21.8049 11.3827 21.7898 11.3545 21.7704C11.2981 21.7316 11.2176 21.6754 11.1162 21.6027C10.9137 21.4574 10.6276 21.2457 10.2858 20.9753C9.6038 20.4358 8.69177 19.6558 7.77629 18.6958C5.98703 16.8194 4 14.0635 4 10.9545C4 8.84276 4.84445 6.81879 6.34545 5.32753C7.84624 3.83649 9.88036 3 12 3C14.1196 3 16.1538 3.83649 17.6545 5.32753C19.1556 6.81879 20 8.84276 20 10.9545C20 14.0635 18.013 16.8194 16.2237 18.6958C15.3082 19.6558 14.3962 20.4358 13.7142 20.9753C13.3724 21.2457 13.0863 21.4574 12.8838 21.6027C12.7824 21.6754 12.7019 21.7316 12.6455 21.7704C12.6173 21.7898 12.5951 21.8049 12.5794 21.8155L12.5608 21.828L12.5552 21.8317L12.5534 21.8329C12.5534 21.8329 12.5522 21.8337 12 21ZM12 21L12.5522 21.8337C12.2175 22.0554 11.782 22.0551 11.4473 21.8334L12 21ZM12 9.63636C11.2575 9.63636 10.6667 10.2327 10.6667 10.9545C10.6667 11.6764 11.2575 12.2727 12 12.2727C12.7425 12.2727 13.3333 11.6764 13.3333 10.9545C13.3333 10.2327 12.7425 9.63636 12 9.63636ZM8.66667 10.9545C8.66667 9.11583 10.1652 7.63636 12 7.63636C13.8348 7.63636 15.3333 9.11583 15.3333 10.9545C15.3333 12.7933 13.8348 14.2727 12 14.2727C10.1652 14.2727 8.66667 12.7933 8.66667 10.9545Z" fill="#D3D3D3"/>
</svg>
